OFF
828 1877 0
0.000 33.101 0.000
0.000 33.101 1.000
0.000 33.101 12.000
0.404 32.634 1.000
0.404 32.634 12.000
0.406 32.590 1.000
0.406 32.590 12.000
0.406 32.677 1.000
0.406 32.677 12.000
0.412 32.547 1.000
0.412 32.547 12.000
0.412 32.721 1.000
0.412 32.721 12.000
0.421 32.504 1.000
0.421 32.504 12.000
0.421 32.763 1.000
0.421 32.763 12.000
0.434 32.463 1.000
0.434 32.463 12.000
0.434 32.805 1.000
0.434 32.805 12.000
0.451 32.423 1.000
0.451 32.423 12.000
0.451 32.845 1.000
0.451 32.845 12.000
0.471 32.384 1.000
0.471 32.384 12.000
0.471 32.884 1.000
0.471 32.884 12.000
0.494 32.347 1.000
0.494 32.347 12.000
0.495 32.921 1.000
0.495 32.921 12.000
0.521 32.313 1.000
0.521 32.313 12.000
0.521 32.955 1.000
0.521 32.955 12.000
0.551 32.280 1.000
0.551 32.280 12.000
0.551 32.987 1.000
0.551 32.987 12.000
0.583 32.251 1.000
0.583 32.251 12.000
0.583 33.017 1.000
0.583 33.017 12.000
0.617 32.224 1.000
0.617 32.224 12.000
0.617 33.043 1.000
0.617 33.043 12.000
0.638 30.880 0.000
0.638 30.880 1.000
0.638 30.880 12.000
0.638 30.880 15.000
0.654 32.201 1.000
0.654 32.201 12.000
0.654 33.067 1.000
0.654 33.067 12.000
0.693 32.181 1.000
0.693 32.181 12.000
0.693 33.087 1.000
0.693 33.087 12.000
0.733 32.164 1.000
0.733 32.164 12.000
0.733 33.104 1.000
0.733 33.104 12.000
0.775 32.151 1.000
0.775 32.151 12.000
0.775 33.117 1.000
0.775 33.117 12.000
0.817 32.142 1.000
0.817 32.142 12.000
0.817 33.126 1.000
0.817 33.126 12.000
0.861 32.136 1.000
0.861 32.136 12.000
0.861 33.132 1.000
0.861 33.132 12.000
0.904 32.134 1.000
0.904 32.134 12.000
0.904 33.134 1.000
0.904 33.134 12.000
0.948 32.136 1.000
0.948 32.136 12.000
0.948 33.132 1.000
0.948 33.132 12.000
0.991 32.142 1.000
0.991 32.142 12.000
0.991 33.126 1.000
0.991 33.126 12.000
1.034 32.151 1.000
1.034 32.151 12.000
1.034 33.117 1.000
1.034 33.117 12.000
1.075 32.164 1.000
1.075 32.164 12.000
1.075 33.104 1.000
1.075 33.104 12.000
1.115 32.181 1.000
1.115 32.181 12.000
1.116 33.087 1.000
1.116 33.087 12.000
1.154 32.201 1.000
1.154 32.201 12.000
1.154 33.067 1.000
1.154 33.067 12.000
1.191 32.224 1.000
1.191 32.224 12.000
1.191 33.044 1.000
1.191 33.044 12.000
1.226 32.251 1.000
1.226 32.251 12.000
1.226 33.017 1.000
1.226 33.017 12.000
1.258 32.280 1.000
1.258 32.280 12.000
1.258 32.988 1.000
1.258 32.988 12.000
1.287 32.313 1.000
1.287 32.313 12.000
1.287 32.955 1.000
1.287 32.955 12.000
1.314 32.347 1.000
1.314 32.347 12.000
1.314 32.921 1.000
1.314 32.921 12.000
1.337 32.384 1.000
1.337 32.384 12.000
1.337 32.884 1.000
1.337 32.884 12.000
1.357 32.423 1.000
1.357 32.423 12.000
1.357 32.845 1.000
1.357 32.845 12.000
1.374 32.463 1.000
1.374 32.463 12.000
1.374 32.805 1.000
1.374 32.805 12.000
1.387 32.505 1.000
1.387 32.505 12.000
1.387 32.763 1.000
1.387 32.763 12.000
1.397 32.547 1.000
1.397 32.547 12.000
1.397 32.721 1.000
1.397 32.721 12.000
1.402 32.590 1.000
1.402 32.590 12.000
1.402 32.678 1.000
1.402 32.678 12.000
1.404 32.634 1.000
1.404 32.634 12.000
4.124 33.732 1.000
4.124 33.732 12.000
4.126 33.689 1.000
4.126 33.689 12.000
4.126 33.776 1.000
4.126 33.776 12.000
4.132 33.646 1.000
4.132 33.646 12.000
4.132 33.819 1.000
4.132 33.819 12.000
4.141 33.603 1.000
4.141 33.603 12.000
4.141 33.862 1.000
4.141 33.862 12.000
4.154 33.561 1.000
4.154 33.561 12.000
4.154 33.903 1.000
4.154 33.903 12.000
4.171 33.521 1.000
4.171 33.521 12.000
4.171 33.944 1.000
4.171 33.944 12.000
4.191 33.482 1.000
4.191 33.482 12.000
4.191 33.982 1.000
4.191 33.982 12.000
4.214 33.446 1.000
4.214 33.446 12.000
4.214 34.019 1.000
4.214 34.019 12.000
4.241 33.411 1.000
4.241 33.411 12.000
4.241 34.054 1.000
4.241 34.054 12.000
4.270 33.379 1.000
4.270 33.379 12.000
4.270 34.086 1.000
4.270 34.086 12.000
4.303 33.349 1.000
4.303 33.349 12.000
4.303 34.115 1.000
4.303 34.115 12.000
4.337 33.323 1.000
4.337 33.323 12.000
4.337 34.142 1.000
4.337 34.142 12.000
4.374 33.299 1.000
4.374 33.299 12.000
4.374 34.165 1.000
4.374 34.165 12.000
4.413 33.279 1.000
4.413 33.279 12.000
4.413 34.186 1.000
4.413 34.186 12.000
4.453 33.263 1.000
4.453 33.263 12.000
4.453 34.202 1.000
4.453 34.202 12.000
4.495 33.249 1.000
4.495 33.249 12.000
4.495 34.215 1.000
4.495 34.215 12.000
4.537 33.240 1.000
4.537 33.240 12.000
4.537 34.225 1.000
4.537 34.225 12.000
4.580 33.234 1.000
4.580 33.234 12.000
4.581 34.231 1.000
4.581 34.231 12.000
4.624 33.233 1.000
4.624 33.233 12.000
4.624 34.232 1.000
4.624 34.232 12.000
4.668 33.234 1.000
4.668 33.234 12.000
4.668 34.231 1.000
4.668 34.231 12.000
4.711 33.240 1.000
4.711 33.240 12.000
4.711 34.225 1.000
4.711 34.225 12.000
4.753 33.250 1.000
4.753 33.250 12.000
4.754 34.215 1.000
4.754 34.215 12.000
4.795 33.263 1.000
4.795 33.263 12.000
4.795 34.202 1.000
4.795 34.202 12.000
4.835 33.279 1.000
4.835 33.279 12.000
4.835 34.186 1.000
4.835 34.186 12.000
4.874 33.300 1.000
4.874 33.300 12.000
4.874 34.166 1.000
4.874 34.166 12.000
4.911 33.323 1.000
4.911 33.323 12.000
4.911 34.142 1.000
4.911 34.142 12.000
4.946 33.350 1.000
4.946 33.350 12.000
4.946 34.116 1.000
4.946 34.116 12.000
4.978 33.379 1.000
4.978 33.379 12.000
4.978 34.086 1.000
4.978 34.086 12.000
5.007 33.411 1.000
5.007 33.411 12.000
5.007 34.054 1.000
5.007 34.054 12.000
5.034 33.446 1.000
5.034 33.446 12.000
5.034 34.019 1.000
5.034 34.019 12.000
5.057 33.483 1.000
5.057 33.483 12.000
5.057 33.983 1.000
5.057 33.983 12.000
5.077 33.521 1.000
5.077 33.521 12.000
5.077 33.944 1.000
5.077 33.944 12.000
5.094 33.562 1.000
5.094 33.562 12.000
5.094 33.904 1.000
5.094 33.904 12.000
5.107 33.603 1.000
5.107 33.603 12.000
5.107 33.862 1.000
5.107 33.862 12.000
5.117 33.646 1.000
5.117 33.646 12.000
5.117 33.819 1.000
5.117 33.819 12.000
5.122 33.689 1.000
5.122 33.689 12.000
5.122 33.776 1.000
5.122 33.776 12.000
5.124 33.733 1.000
5.124 33.733 12.000
6.807 35.058 16.000
7.446 32.837 16.000
8.758 35.075 1.000
8.758 35.075 12.000
8.760 35.032 1.000
8.760 35.032 12.000
8.760 35.119 1.000
8.760 35.119 12.000
8.766 34.988 1.000
8.766 34.988 12.000
8.766 35.162 1.000
8.766 35.162 12.000
8.776 34.946 1.000
8.776 34.946 12.000
8.776 35.204 1.000
8.776 35.204 12.000
8.789 34.904 1.000
8.789 34.904 12.000
8.789 35.246 1.000
8.789 35.246 12.000
8.805 34.864 1.000
8.805 34.864 12.000
8.805 35.286 1.000
8.805 35.286 12.000
8.825 34.825 1.000
8.825 34.825 12.000
8.825 35.325 1.000
8.825 35.325 12.000
8.849 34.788 1.000
8.849 34.788 12.000
8.849 35.362 1.000
8.849 35.362 12.000
8.875 34.754 1.000
8.875 34.754 12.000
8.875 35.396 1.000
8.875 35.396 12.000
8.905 34.722 1.000
8.905 34.722 12.000
8.905 35.429 1.000
8.905 35.429 12.000
8.937 34.692 1.000
8.937 34.692 12.000
8.937 35.458 1.000
8.937 35.458 12.000
8.972 34.666 1.000
8.972 34.666 12.000
8.972 35.485 1.000
8.972 35.485 12.000
9.009 34.642 1.000
9.009 34.642 12.000
9.009 35.508 1.000
9.009 35.508 12.000
9.047 34.622 1.000
9.047 34.622 12.000
9.047 35.528 1.000
9.047 35.528 12.000
9.087 34.605 1.000
9.087 34.605 12.000
9.088 35.545 1.000
9.088 35.545 12.000
9.129 34.592 1.000
9.129 34.592 12.000
9.129 35.558 1.000
9.129 35.558 12.000
9.172 34.583 1.000
9.172 34.583 12.000
9.172 35.568 1.000
9.172 35.568 12.000
9.215 34.577 1.000
9.215 34.577 12.000
9.215 35.573 1.000
9.215 35.573 12.000
9.259 34.575 1.000
9.259 34.575 12.000
9.259 35.575 1.000
9.259 35.575 12.000
9.302 34.577 1.000
9.302 34.577 12.000
9.302 35.573 1.000
9.302 35.573 12.000
9.345 34.583 1.000
9.345 34.583 12.000
9.345 35.568 1.000
9.345 35.568 12.000
9.388 34.592 1.000
9.388 34.592 12.000
9.388 35.558 1.000
9.388 35.558 12.000
9.430 34.605 1.000
9.430 34.605 12.000
9.430 35.545 1.000
9.430 35.545 12.000
9.470 34.622 1.000
9.470 34.622 12.000
9.470 35.528 1.000
9.470 35.528 12.000
9.509 34.642 1.000
9.509 34.642 12.000
9.509 35.508 1.000
9.509 35.508 12.000
9.511 0.000 0.000
9.511 0.000 15.000
9.545 34.666 1.000
9.545 34.666 12.000
9.545 35.485 1.000
9.545 35.485 12.000
9.580 34.692 1.000
9.580 34.692 12.000
9.580 35.458 1.000
9.580 35.458 12.000
9.612 34.722 1.000
9.612 34.722 12.000
9.612 35.429 1.000
9.612 35.429 12.000
9.642 34.754 1.000
9.642 34.754 12.000
9.642 35.397 1.000
9.642 35.397 12.000
9.668 34.788 1.000
9.668 34.788 12.000
9.668 35.362 1.000
9.668 35.362 12.000
9.692 34.825 1.000
9.692 34.825 12.000
9.692 35.325 1.000
9.692 35.325 12.000
9.712 34.864 1.000
9.712 34.864 12.000
9.712 35.286 1.000
9.712 35.286 12.000
9.728 34.904 1.000
9.728 34.904 12.000
9.729 35.246 1.000
9.729 35.246 12.000
9.742 34.946 1.000
9.742 34.946 12.000
9.742 35.205 1.000
9.742 35.205 12.000
9.751 34.988 1.000
9.751 34.988 12.000
9.751 35.162 1.000
9.751 35.162 12.000
9.757 35.032 1.000
9.757 35.032 12.000
9.757 35.119 1.000
9.757 35.119 12.000
9.759 35.075 1.000
9.759 35.075 12.000
12.540 36.174 1.000
12.540 36.174 12.000
12.541 36.130 1.000
12.541 36.130 12.000
12.541 36.218 1.000
12.541 36.218 12.000
12.547 36.087 1.000
12.547 36.087 12.000
12.547 36.261 1.000
12.547 36.261 12.000
12.557 36.045 1.000
12.557 36.045 12.000
12.557 36.303 1.000
12.557 36.303 12.000
12.570 36.003 1.000
12.570 36.003 12.000
12.570 36.345 1.000
12.570 36.345 12.000
12.586 35.963 1.000
12.586 35.963 12.000
12.586 36.385 1.000
12.586 36.385 12.000
12.607 35.924 1.000
12.607 35.924 12.000
12.607 36.424 1.000
12.607 36.424 12.000
12.630 35.887 1.000
12.630 35.887 12.000
12.630 36.461 1.000
12.630 36.461 12.000
12.657 35.853 1.000
12.657 35.853 12.000
12.657 36.495 1.000
12.657 36.495 12.000
12.686 35.821 1.000
12.686 35.821 12.000
12.686 36.528 1.000
12.686 36.528 12.000
12.718 35.791 1.000
12.718 35.791 12.000
12.718 36.557 1.000
12.718 36.557 12.000
12.753 35.764 1.000
12.753 35.764 12.000
12.753 36.584 1.000
12.753 36.584 12.000
12.790 35.741 1.000
12.790 35.741 12.000
12.790 36.607 1.000
12.790 36.607 12.000
12.828 35.721 1.000
12.828 35.721 12.000
12.828 36.627 1.000
12.828 36.627 12.000
12.869 35.704 1.000
12.869 35.704 12.000
12.869 36.644 1.000
12.869 36.644 12.000
12.910 35.691 1.000
12.910 35.691 12.000
12.910 36.657 1.000
12.910 36.657 12.000
12.953 35.682 1.000
12.953 35.682 12.000
12.953 36.666 1.000
12.953 36.666 12.000
12.996 35.676 1.000
12.996 35.676 12.000
12.996 36.672 1.000
12.996 36.672 12.000
13.040 35.674 1.000
13.040 35.674 12.000
13.040 36.674 1.000
13.040 36.674 12.000
13.083 35.676 1.000
13.083 35.676 12.000
13.083 36.672 1.000
13.083 36.672 12.000
13.126 35.682 1.000
13.126 35.682 12.000
13.126 36.666 1.000
13.126 36.666 12.000
13.169 35.691 1.000
13.169 35.691 12.000
13.169 36.657 1.000
13.169 36.657 12.000
13.211 35.704 1.000
13.211 35.704 12.000
13.211 36.644 1.000
13.211 36.644 12.000
13.251 35.721 1.000
13.251 35.721 12.000
13.251 36.627 1.000
13.251 36.627 12.000
13.290 35.741 1.000
13.290 35.741 12.000
13.290 36.607 1.000
13.290 36.607 12.000
13.326 35.765 1.000
13.326 35.765 12.000
13.326 36.584 1.000
13.326 36.584 12.000
13.361 35.791 1.000
13.361 35.791 12.000
13.361 36.557 1.000
13.361 36.557 12.000
13.393 35.821 1.000
13.393 35.821 12.000
13.393 36.528 1.000
13.393 36.528 12.000
13.423 35.853 1.000
13.423 35.853 12.000
13.423 36.496 1.000
13.423 36.496 12.000
13.449 35.887 1.000
13.449 35.887 12.000
13.449 36.461 1.000
13.449 36.461 12.000
13.473 35.924 1.000
13.473 35.924 12.000
13.473 36.424 1.000
13.473 36.424 12.000
13.493 35.963 1.000
13.493 35.963 12.000
13.493 36.385 1.000
13.493 36.385 12.000
13.510 36.003 1.000
13.510 36.003 12.000
13.510 36.345 1.000
13.510 36.345 12.000
13.523 36.045 1.000
13.523 36.045 12.000
13.523 36.304 1.000
13.523 36.304 12.000
13.532 36.087 1.000
13.532 36.087 12.000
13.532 36.261 1.000
13.532 36.261 12.000
13.538 36.131 1.000
13.538 36.131 12.000
13.538 36.218 1.000
13.538 36.218 12.000
13.540 36.174 1.000
13.540 36.174 12.000
13.595 37.425 4.300
13.595 37.425 4.800
13.595 37.425 7.300
13.595 37.425 7.800
13.595 37.425 10.300
13.595 37.425 10.800
13.595 37.425 13.300
13.595 37.425 13.800
13.595 37.425 16.300
13.595 37.425 16.800
13.614 37.014 0.000
13.614 37.014 1.000
13.614 37.014 12.000
13.704 37.040 0.000
13.704 37.040 4.300
13.704 37.040 4.800
13.704 37.040 7.300
13.704 37.040 7.800
13.704 37.040 10.300
13.704 37.040 10.800
13.704 37.040 13.300
13.704 37.040 13.800
13.704 37.040 16.300
13.704 37.040 16.800
13.704 37.040 19.300
13.704 37.040 20.000
13.704 37.040 20.050
13.780 36.774 0.000
13.780 36.774 19.300
13.780 36.775 0.000
13.780 36.775 3.300
13.781 36.772 3.300
13.781 36.772 19.300
14.007 35.976 3.300
14.007 35.976 19.300
14.007 35.979 3.300
14.007 35.979 19.300
14.253 34.793 0.000
14.253 34.793 1.000
14.253 34.793 12.000
14.253 34.793 15.000
14.766 37.342 0.000
14.766 37.342 19.300
14.842 37.077 0.000
14.842 37.077 19.300
17.272 38.055 0.000
17.272 38.055 19.300
17.347 37.789 0.000
17.347 37.789 19.300
18.333 38.357 0.000
18.333 38.357 19.300
18.409 38.092 0.000
18.409 38.092 19.300
20.839 39.069 0.000
20.839 39.069 19.300
20.915 38.804 0.000
20.915 38.804 19.300
21.901 39.372 0.000
21.901 39.372 19.300
21.977 39.106 0.000
21.977 39.106 19.300
23.125 3.913 0.000
23.125 3.913 3.300
23.125 3.913 15.000
23.125 3.913 19.300
23.125 3.913 20.000
23.125 3.913 20.050
24.407 40.084 0.000
24.407 40.084 19.300
24.482 39.819 0.000
24.482 39.819 19.300
25.468 40.387 0.000
25.468 40.387 19.300
25.544 40.121 0.000
25.544 40.121 19.300
27.974 41.099 0.000
27.974 41.099 19.300
28.050 40.833 0.000
28.050 40.833 19.300
29.036 41.401 0.000
29.036 41.401 19.300
29.111 41.136 0.000
29.111 41.136 19.300
31.542 42.114 0.000
31.542 42.114 19.300
31.617 41.848 0.000
31.617 41.848 19.300
32.603 42.416 0.000
32.603 42.416 19.300
32.679 42.150 0.000
32.679 42.150 19.300
35.109 43.128 0.000
35.109 43.128 19.300
35.185 42.863 0.000
35.185 42.863 19.300
36.171 43.431 0.000
36.171 43.431 19.300
36.246 43.165 0.000
36.246 43.165 19.300
38.512 44.095 0.000
38.512 44.095 19.300
38.587 43.829 0.000
38.587 43.829 19.300
39.573 44.397 0.000
39.573 44.397 19.300
39.649 44.132 0.000
39.649 44.132 3.300
39.649 44.132 19.300
40.569 40.895 0.000
40.569 40.895 3.300
42.015 45.091 0.000
42.015 45.091 19.300
42.090 44.826 3.300
42.090 44.826 19.300
42.317 44.030 0.000
42.317 44.030 3.300
42.317 44.030 19.300
43.076 45.393 0.000
43.076 45.393 4.300
43.076 45.393 4.800
43.076 45.393 7.300
43.076 45.393 7.800
43.076 45.393 10.300
43.076 45.393 10.800
43.076 45.393 13.300
43.076 45.393 13.800
43.076 45.393 16.300
43.076 45.393 16.800
43.076 45.393 19.300
43.076 45.393 20.000
43.076 45.393 20.050
43.113 44.257 3.300
43.113 44.257 19.300
43.352 45.887 4.300
43.352 45.887 4.800
43.352 45.887 7.300
43.352 45.887 7.800
43.352 45.887 10.300
43.352 45.887 10.800
43.352 45.887 13.300
43.352 45.887 13.800
43.352 45.887 16.300
43.352 45.887 16.800
43.378 44.332 0.000
43.378 44.332 19.300
43.807 41.815 0.000
43.807 41.815 3.300
43.807 41.815 19.300
44.073 41.891 0.000
44.073 41.891 19.300
44.110 40.754 0.000
44.110 40.754 19.300
44.375 40.829 0.000
44.375 40.829 19.300
44.829 38.222 0.000
44.829 38.222 19.300
45.094 38.297 0.000
45.094 38.297 19.300
45.131 37.160 0.000
45.131 37.160 19.300
45.397 37.236 0.000
45.397 37.236 19.300
45.843 34.655 0.000
45.843 34.655 19.300
46.109 34.731 0.000
46.109 34.731 19.300
46.146 33.593 0.000
46.146 33.593 19.300
46.411 33.669 0.000
46.411 33.669 19.300
46.857 31.088 0.000
46.857 31.088 19.300
47.123 31.164 0.000
47.123 31.164 19.300
47.160 30.027 0.000
47.160 30.027 19.300
47.425 30.103 0.000
47.425 30.103 19.300
47.872 27.522 0.000
47.872 27.522 19.300
48.137 27.597 0.000
48.137 27.597 19.300
48.174 26.460 0.000
48.174 26.460 19.300
48.440 26.536 0.000
48.440 26.536 19.300
48.886 23.955 0.000
48.886 23.955 19.300
49.151 24.031 0.000
49.151 24.031 19.300
49.188 22.894 0.000
49.188 22.894 19.300
49.454 22.969 0.000
49.454 22.969 19.300
49.900 20.389 0.000
49.900 20.389 19.300
50.166 20.464 0.000
50.166 20.464 19.300
50.202 19.327 0.000
50.202 19.327 19.300
50.468 19.403 0.000
50.468 19.403 19.300
50.914 16.822 0.000
50.914 16.822 19.300
51.180 16.898 0.000
51.180 16.898 19.300
51.217 15.761 0.000
51.217 15.761 19.300
51.482 15.836 0.000
51.482 15.836 19.300
51.929 13.252 0.000
51.929 13.252 19.300
52.195 13.328 0.000
52.195 13.328 19.300
52.232 12.191 0.000
52.232 12.191 3.300
52.232 12.191 19.300
52.497 12.266 0.000
52.497 12.266 4.300
52.497 12.266 4.800
52.497 12.266 7.300
52.497 12.266 7.800
52.497 12.266 10.300
52.497 12.266 10.800
52.497 12.266 13.300
52.497 12.266 13.800
52.497 12.266 16.300
52.497 12.266 16.800
52.497 12.266 19.300
52.497 12.266 20.000
52.497 12.266 20.050
52.882 12.376 4.300
52.882 12.376 4.800
52.882 12.376 7.300
52.882 12.376 7.800
52.882 12.376 10.300
52.882 12.376 10.800
52.882 12.376 13.300
52.882 12.376 13.800
52.882 12.376 16.300
52.882 12.376 16.800
3 701 697 704
3 730 701 704
3 741 743 747
3 745 741 747
3 732 735 739
3 737 732 739
3 749 751 755
3 753 749 755
3 757 759 763
3 761 757 763
3 765 767 771
3 769 765 771
3 773 775 779
3 777 773 779
3 781 783 787
3 785 781 787
3 789 791 795
3 793 789 795
3 797 799 804
3 801 797 804
3 614 600 628
3 630 614 628
3 634 632 636
3 638 634 636
3 642 640 644
3 646 642 644
3 656 654 658
3 660 656 658
3 664 662 666
3 668 664 666
3 672 670 674
3 676 672 674
3 680 678 682
3 684 680 682
3 688 686 690
3 692 688 690
3 648 616 692
3 732 801 648
3 695 732 648
3 692 695 648
3 652 612 716
3 816 652 716
3 648 616 692
3 732 801 648
3 695 732 648
3 692 695 648
3 617 616 648
3 649 617 648
3 802 649 648
3 802 648 801
3 733 802 801
3 733 801 732
3 733 732 695
3 696 733 695
3 693 696 695
3 693 695 692
3 693 692 616
3 617 693 616
3 649 617 693
3 733 802 649
3 696 733 649
3 693 696 649
3 688 686 690
3 692 688 690
3 687 686 688
3 689 687 688
3 694 689 688
3 694 688 692
3 691 694 692
3 691 692 690
3 691 690 686
3 687 691 686
3 689 687 691
3 694 689 691
3 680 678 682
3 684 680 682
3 679 678 680
3 681 679 680
3 685 681 680
3 685 680 684
3 683 685 684
3 683 684 682
3 683 682 678
3 679 683 678
3 681 679 683
3 685 681 683
3 672 670 674
3 676 672 674
3 671 670 672
3 673 671 672
3 677 673 672
3 677 672 676
3 675 677 676
3 675 676 674
3 675 674 670
3 671 675 670
3 673 671 675
3 677 673 675
3 664 662 666
3 668 664 666
3 663 662 664
3 665 663 664
3 669 665 664
3 669 664 668
3 667 669 668
3 667 668 666
3 667 666 662
3 663 667 662
3 665 663 667
3 669 665 667
3 656 654 658
3 660 656 658
3 655 654 656
3 657 655 656
3 661 657 656
3 661 656 660
3 659 661 660
3 659 660 658
3 659 658 654
3 655 659 654
3 657 655 659
3 661 657 659
3 642 640 644
3 646 642 644
3 641 640 642
3 643 641 642
3 647 643 642
3 647 642 646
3 645 647 646
3 645 646 644
3 645 644 640
3 641 645 640
3 643 641 645
3 647 643 645
3 634 632 636
3 638 634 636
3 633 632 634
3 635 633 634
3 639 635 634
3 639 634 638
3 637 639 638
3 637 638 636
3 637 636 632
3 633 637 632
3 635 633 637
3 639 635 637
3 614 600 628
3 630 614 628
3 611 600 614
3 615 611 614
3 631 615 614
3 631 614 630
3 629 631 630
3 629 630 628
3 629 628 600
3 611 629 600
3 615 611 629
3 631 615 629
3 732 735 739
3 737 732 739
3 736 735 732
3 734 736 732
3 734 732 737
3 738 734 737
3 740 738 737
3 740 737 739
3 736 740 739
3 736 739 735
3 734 736 740
3 738 734 740
3 741 743 747
3 745 741 747
3 744 743 741
3 742 744 741
3 742 741 745
3 746 742 745
3 748 746 745
3 748 745 747
3 744 748 747
3 744 747 743
3 742 744 748
3 746 742 748
3 749 751 755
3 753 749 755
3 752 751 749
3 750 752 749
3 750 749 753
3 754 750 753
3 756 754 753
3 756 753 755
3 752 756 755
3 752 755 751
3 750 752 756
3 754 750 756
3 757 759 763
3 761 757 763
3 760 759 757
3 758 760 757
3 758 757 761
3 762 758 761
3 764 762 761
3 764 761 763
3 760 764 763
3 760 763 759
3 758 760 764
3 762 758 764
3 765 767 771
3 769 765 771
3 768 767 765
3 766 768 765
3 766 765 769
3 770 766 769
3 772 770 769
3 772 769 771
3 768 772 771
3 768 771 767
3 766 768 772
3 770 766 772
3 773 775 779
3 777 773 779
3 776 775 773
3 774 776 773
3 774 773 777
3 778 774 777
3 780 778 777
3 780 777 779
3 776 780 779
3 776 779 775
3 774 776 780
3 778 774 780
3 781 783 787
3 785 781 787
3 784 783 781
3 782 784 781
3 782 781 785
3 786 782 785
3 788 786 785
3 788 785 787
3 784 788 787
3 784 787 783
3 782 784 788
3 786 782 788
3 789 791 795
3 793 789 795
3 792 791 789
3 790 792 789
3 790 789 793
3 794 790 793
3 796 794 793
3 796 793 795
3 792 796 795
3 792 795 791
3 790 792 796
3 794 790 796
3 797 799 804
3 801 797 804
3 800 799 797
3 798 800 797
3 798 797 801
3 803 798 801
3 815 803 801
3 815 801 804
3 800 815 804
3 800 804 799
3 798 800 815
3 803 798 815
3 652 612 716
3 816 652 716
3 611 612 716
3 715 611 716
3 815 715 716
3 815 716 816
3 651 815 816
3 651 816 652
3 651 652 612
3 611 651 612
3 651 611 715
3 815 651 715
3 714 610 596
3 827 814 714
3 729 827 714
3 596 729 714
3 714 610 596
3 827 814 714
3 729 827 714
3 596 729 714
3 609 610 596
3 595 609 596
3 595 596 729
3 728 595 729
3 826 728 729
3 826 729 827
3 813 826 827
3 813 827 814
3 813 814 714
3 713 813 714
3 609 713 714
3 609 714 610
3 713 609 595
3 826 813 713
3 728 826 713
3 595 728 713
3 701 697 704
3 730 701 704
3 698 697 701
3 703 698 701
3 731 703 701
3 731 701 730
3 715 731 730
3 715 730 704
3 715 704 697
3 698 715 697
3 703 698 715
3 731 703 715
3 49 624 648
3 395 49 648
3 147 149 145
3 143 147 145
3 139 143 145
3 135 139 145
3 131 135 145
3 127 131 145
3 123 127 145
3 119 123 145
3 115 119 145
3 111 115 145
3 107 111 145
3 103 107 145
3 99 103 145
3 95 99 145
3 91 95 145
3 87 91 145
3 83 87 145
3 79 83 145
3 75 79 145
3 71 75 145
3 67 71 145
3 63 67 145
3 59 63 145
3 55 59 145
3 47 55 145
3 43 47 145
3 39 43 145
3 35 39 145
3 31 35 145
3 27 31 145
3 23 27 145
3 19 23 145
3 15 19 145
3 11 15 145
3 7 11 145
3 3 7 145
3 5 3 145
3 9 5 145
3 13 9 145
3 17 13 145
3 21 17 145
3 25 21 145
3 29 25 145
3 33 29 145
3 37 33 145
3 41 37 145
3 45 41 145
3 53 45 145
3 57 53 145
3 61 57 145
3 65 61 145
3 69 65 145
3 73 69 145
3 77 73 145
3 81 77 145
3 85 81 145
3 89 85 145
3 93 89 145
3 97 93 145
3 101 97 145
3 105 101 145
3 109 105 145
3 113 109 145
3 117 113 145
3 121 117 145
3 125 121 145
3 129 125 145
3 133 129 145
3 137 133 145
3 141 137 145
3 583 585 581
3 579 583 581
3 575 579 581
3 571 575 581
3 567 571 581
3 563 567 581
3 559 563 581
3 555 559 581
3 551 555 581
3 547 551 581
3 543 547 581
3 539 543 581
3 535 539 581
3 531 535 581
3 527 531 581
3 523 527 581
3 519 523 581
3 515 519 581
3 511 515 581
3 507 511 581
3 503 507 581
3 499 503 581
3 495 499 581
3 491 495 581
3 487 491 581
3 483 487 581
3 479 483 581
3 475 479 581
3 471 475 581
3 467 471 581
3 463 467 581
3 459 463 581
3 455 459 581
3 451 455 581
3 447 451 581
3 443 447 581
3 445 443 581
3 449 445 581
3 453 449 581
3 457 453 581
3 461 457 581
3 465 461 581
3 469 465 581
3 473 469 581
3 477 473 581
3 481 477 581
3 485 481 581
3 489 485 581
3 493 489 581
3 497 493 581
3 501 497 581
3 505 501 581
3 509 505 581
3 513 509 581
3 517 513 581
3 521 517 581
3 525 521 581
3 529 525 581
3 533 529 581
3 537 533 581
3 541 537 581
3 545 541 581
3 549 545 581
3 553 549 581
3 557 553 581
3 561 557 581
3 565 561 581
3 569 565 581
3 573 569 581
3 577 573 581
3 439 441 437
3 435 439 437
3 431 435 437
3 427 431 437
3 423 427 437
3 419 423 437
3 415 419 437
3 411 415 437
3 407 411 437
3 403 407 437
3 399 403 437
3 393 399 437
3 389 393 437
3 385 389 437
3 381 385 437
3 377 381 437
3 373 377 437
3 369 373 437
3 365 369 437
3 361 365 437
3 357 361 437
3 353 357 437
3 349 353 437
3 345 349 437
3 341 345 437
3 337 341 437
3 333 337 437
3 329 333 437
3 325 329 437
3 321 325 437
3 317 321 437
3 313 317 437
3 309 313 437
3 305 309 437
3 301 305 437
3 297 301 437
3 299 297 437
3 303 299 437
3 307 303 437
3 311 307 437
3 315 311 437
3 319 315 437
3 323 319 437
3 327 323 437
3 331 327 437
3 335 331 437
3 339 335 437
3 343 339 437
3 347 343 437
3 351 347 437
3 355 351 437
3 359 355 437
3 363 359 437
3 367 363 437
3 371 367 437
3 375 371 437
3 379 375 437
3 383 379 437
3 387 383 437
3 391 387 437
3 397 391 437
3 401 397 437
3 405 401 437
3 409 405 437
3 413 409 437
3 417 413 437
3 421 417 437
3 425 421 437
3 429 425 437
3 433 429 437
3 291 293 289
3 287 291 289
3 283 287 289
3 279 283 289
3 275 279 289
3 271 275 289
3 267 271 289
3 263 267 289
3 259 263 289
3 255 259 289
3 251 255 289
3 247 251 289
3 243 247 289
3 239 243 289
3 235 239 289
3 231 235 289
3 227 231 289
3 223 227 289
3 219 223 289
3 215 219 289
3 211 215 289
3 207 211 289
3 203 207 289
3 199 203 289
3 195 199 289
3 191 195 289
3 187 191 289
3 183 187 289
3 179 183 289
3 175 179 289
3 171 175 289
3 167 171 289
3 163 167 289
3 159 163 289
3 155 159 289
3 151 155 289
3 153 151 289
3 157 153 289
3 161 157 289
3 165 161 289
3 169 165 289
3 173 169 289
3 177 173 289
3 181 177 289
3 185 181 289
3 189 185 289
3 193 189 289
3 197 193 289
3 201 197 289
3 205 201 289
3 209 205 289
3 213 209 289
3 217 213 289
3 221 217 289
3 225 221 289
3 229 225 289
3 233 229 289
3 237 233 289
3 241 237 289
3 245 241 289
3 249 245 289
3 253 249 289
3 257 253 289
3 261 257 289
3 265 261 289
3 269 265 289
3 273 269 289
3 277 273 289
3 281 277 289
3 285 281 289
3 626 51 2
3 599 626 2
3 49 624 648
3 395 49 648
3 627 624 49
3 52 627 49
3 52 49 395
3 396 52 395
3 650 396 395
3 650 395 648
3 627 650 648
3 627 648 624
3 52 627 650
3 396 52 650
3 295 599 2
3 295 599 2
3 295 599 626
3 296 295 626
3 2 295 296
3 51 2 296
3 51 2 599
3 626 51 599
3 296 626 51
3 624 49 0
3 597 624 0
3 624 49 0
3 597 624 0
3 625 50 49
3 625 49 624
3 598 625 624
3 598 624 597
3 598 597 0
3 1 598 0
3 1 0 49
3 50 1 49
3 625 50 1
3 598 625 1
3 147 149 145
3 143 147 145
3 139 143 145
3 135 139 145
3 131 135 145
3 127 131 145
3 123 127 145
3 119 123 145
3 115 119 145
3 111 115 145
3 107 111 145
3 103 107 145
3 99 103 145
3 95 99 145
3 91 95 145
3 87 91 145
3 83 87 145
3 79 83 145
3 75 79 145
3 71 75 145
3 67 71 145
3 63 67 145
3 59 63 145
3 55 59 145
3 47 55 145
3 43 47 145
3 39 43 145
3 35 39 145
3 31 35 145
3 27 31 145
3 23 27 145
3 19 23 145
3 15 19 145
3 11 15 145
3 7 11 145
3 3 7 145
3 5 3 145
3 9 5 145
3 13 9 145
3 17 13 145
3 21 17 145
3 25 21 145
3 29 25 145
3 33 29 145
3 37 33 145
3 41 37 145
3 45 41 145
3 53 45 145
3 57 53 145
3 61 57 145
3 65 61 145
3 69 65 145
3 73 69 145
3 77 73 145
3 81 77 145
3 85 81 145
3 89 85 145
3 93 89 145
3 97 93 145
3 101 97 145
3 105 101 145
3 109 105 145
3 113 109 145
3 117 113 145
3 121 117 145
3 125 121 145
3 129 125 145
3 133 129 145
3 137 133 145
3 141 137 145
3 148 150 149
3 148 149 147
3 144 148 147
3 144 147 143
3 140 144 143
3 140 143 139
3 136 140 139
3 136 139 135
3 132 136 135
3 132 135 131
3 128 132 131
3 128 131 127
3 124 128 127
3 124 127 123
3 120 124 123
3 120 123 119
3 116 120 119
3 116 119 115
3 116 115 111
3 112 116 111
3 112 111 107
3 108 112 107
3 108 107 103
3 104 108 103
3 104 103 99
3 100 104 99
3 100 99 95
3 96 100 95
3 96 95 91
3 92 96 91
3 92 91 87
3 88 92 87
3 88 87 83
3 84 88 83
3 84 83 79
3 80 84 79
3 80 79 75
3 76 80 75
3 76 75 71
3 72 76 71
3 72 71 67
3 68 72 67
3 68 67 63
3 64 68 63
3 64 63 59
3 60 64 59
3 60 59 55
3 56 60 55
3 56 55 47
3 48 56 47
3 48 47 43
3 44 48 43
3 44 43 39
3 40 44 39
3 40 39 35
3 36 40 35
3 36 35 31
3 32 36 31
3 32 31 27
3 28 32 27
3 28 27 23
3 24 28 23
3 24 23 19
3 20 24 19
3 20 19 15
3 16 20 15
3 16 15 11
3 12 16 11
3 12 11 7
3 8 12 7
3 8 7 3
3 4 8 3
3 4 3 5
3 6 4 5
3 6 5 9
3 10 6 9
3 10 9 13
3 14 10 13
3 14 13 17
3 18 14 17
3 18 17 21
3 22 18 21
3 22 21 25
3 26 22 25
3 26 25 29
3 30 26 29
3 30 29 33
3 34 30 33
3 34 33 37
3 38 34 37
3 42 38 37
3 42 37 41
3 46 42 41
3 46 41 45
3 54 46 45
3 54 45 53
3 58 54 53
3 58 53 57
3 62 58 57
3 62 57 61
3 66 62 61
3 66 61 65
3 70 66 65
3 70 65 69
3 74 70 69
3 74 69 73
3 78 74 73
3 78 73 77
3 82 78 77
3 82 77 81
3 86 82 81
3 86 81 85
3 90 86 85
3 90 85 89
3 94 90 89
3 94 89 93
3 98 94 93
3 98 93 97
3 102 98 97
3 102 97 101
3 106 102 101
3 106 101 105
3 110 106 105
3 110 105 109
3 114 110 109
3 114 109 113
3 118 114 113
3 118 113 117
3 122 118 117
3 122 117 121
3 126 122 121
3 126 121 125
3 130 126 125
3 130 125 129
3 134 130 129
3 134 129 133
3 138 134 133
3 138 133 137
3 142 138 137
3 142 137 141
3 146 142 141
3 146 141 145
3 150 146 145
3 150 145 149
3 148 150 146
3 144 148 146
3 140 144 146
3 136 140 146
3 132 136 146
3 128 132 146
3 124 128 146
3 120 124 146
3 116 120 146
3 112 116 146
3 108 112 146
3 104 108 146
3 100 104 146
3 96 100 146
3 92 96 146
3 88 92 146
3 84 88 146
3 80 84 146
3 76 80 146
3 72 76 146
3 68 72 146
3 64 68 146
3 60 64 146
3 56 60 146
3 48 56 146
3 44 48 146
3 40 44 146
3 36 40 146
3 32 36 146
3 28 32 146
3 24 28 146
3 20 24 146
3 16 20 146
3 12 16 146
3 8 12 146
3 4 8 146
3 6 4 146
3 10 6 146
3 14 10 146
3 18 14 146
3 22 18 146
3 26 22 146
3 30 26 146
3 34 30 146
3 38 34 146
3 42 38 146
3 46 42 146
3 54 46 146
3 58 54 146
3 62 58 146
3 66 62 146
3 70 66 146
3 74 70 146
3 78 74 146
3 82 78 146
3 86 82 146
3 90 86 146
3 94 90 146
3 98 94 146
3 102 98 146
3 106 102 146
3 110 106 146
3 114 110 146
3 118 114 146
3 122 118 146
3 126 122 146
3 130 126 146
3 134 130 146
3 138 134 146
3 142 138 146
3 291 293 289
3 287 291 289
3 283 287 289
3 279 283 289
3 275 279 289
3 271 275 289
3 267 271 289
3 263 267 289
3 259 263 289
3 255 259 289
3 251 255 289
3 247 251 289
3 243 247 289
3 239 243 289
3 235 239 289
3 231 235 289
3 227 231 289
3 223 227 289
3 219 223 289
3 215 219 289
3 211 215 289
3 207 211 289
3 203 207 289
3 199 203 289
3 195 199 289
3 191 195 289
3 187 191 289
3 183 187 289
3 179 183 289
3 175 179 289
3 171 175 289
3 167 171 289
3 163 167 289
3 159 163 289
3 155 159 289
3 151 155 289
3 153 151 289
3 157 153 289
3 161 157 289
3 165 161 289
3 169 165 289
3 173 169 289
3 177 173 289
3 181 177 289
3 185 181 289
3 189 185 289
3 193 189 289
3 197 193 289
3 201 197 289
3 205 201 289
3 209 205 289
3 213 209 289
3 217 213 289
3 221 217 289
3 225 221 289
3 229 225 289
3 233 229 289
3 237 233 289
3 241 237 289
3 245 241 289
3 249 245 289
3 253 249 289
3 257 253 289
3 261 257 289
3 265 261 289
3 269 265 289
3 273 269 289
3 277 273 289
3 281 277 289
3 285 281 289
3 292 294 293
3 292 293 291
3 288 292 291
3 288 291 287
3 284 288 287
3 284 287 283
3 280 284 283
3 280 283 279
3 276 280 279
3 276 279 275
3 272 276 275
3 272 275 271
3 268 272 271
3 268 271 267
3 264 268 267
3 264 267 263
3 260 264 263
3 260 263 259
3 260 259 255
3 256 260 255
3 256 255 251
3 252 256 251
3 252 251 247
3 248 252 247
3 248 247 243
3 244 248 243
3 244 243 239
3 240 244 239
3 240 239 235
3 236 240 235
3 236 235 231
3 232 236 231
3 232 231 227
3 228 232 227
3 228 227 223
3 224 228 223
3 224 223 219
3 220 224 219
3 220 219 215
3 216 220 215
3 216 215 211
3 212 216 211
3 212 211 207
3 208 212 207
3 208 207 203
3 204 208 203
3 204 203 199
3 200 204 199
3 200 199 195
3 196 200 195
3 196 195 191
3 192 196 191
3 192 191 187
3 188 192 187
3 188 187 183
3 184 188 183
3 184 183 179
3 180 184 179
3 180 179 175
3 176 180 175
3 176 175 171
3 172 176 171
3 172 171 167
3 168 172 167
3 168 167 163
3 164 168 163
3 164 163 159
3 160 164 159
3 160 159 155
3 156 160 155
3 156 155 151
3 152 156 151
3 152 151 153
3 154 152 153
3 154 153 157
3 158 154 157
3 158 157 161
3 162 158 161
3 162 161 165
3 166 162 165
3 166 165 169
3 170 166 169
3 170 169 173
3 174 170 173
3 174 173 177
3 178 174 177
3 178 177 181
3 182 178 181
3 182 181 185
3 186 182 185
3 190 186 185
3 190 185 189
3 194 190 189
3 194 189 193
3 198 194 193
3 198 193 197
3 202 198 197
3 202 197 201
3 206 202 201
3 206 201 205
3 210 206 205
3 210 205 209
3 214 210 209
3 214 209 213
3 218 214 213
3 218 213 217
3 222 218 217
3 222 217 221
3 226 222 221
3 226 221 225
3 230 226 225
3 230 225 229
3 234 230 229
3 234 229 233
3 238 234 233
3 238 233 237
3 242 238 237
3 242 237 241
3 246 242 241
3 246 241 245
3 250 246 245
3 250 245 249
3 254 250 249
3 254 249 253
3 258 254 253
3 258 253 257
3 262 258 257
3 262 257 261
3 266 262 261
3 266 261 265
3 270 266 265
3 270 265 269
3 274 270 269
3 274 269 273
3 278 274 273
3 278 273 277
3 282 278 277
3 282 277 281
3 286 282 281
3 286 281 285
3 290 286 285
3 290 285 289
3 294 290 289
3 294 289 293
3 292 294 290
3 288 292 290
3 284 288 290
3 280 284 290
3 276 280 290
3 272 276 290
3 268 272 290
3 264 268 290
3 260 264 290
3 256 260 290
3 252 256 290
3 248 252 290
3 244 248 290
3 240 244 290
3 236 240 290
3 232 236 290
3 228 232 290
3 224 228 290
3 220 224 290
3 216 220 290
3 212 216 290
3 208 212 290
3 204 208 290
3 200 204 290
3 196 200 290
3 192 196 290
3 188 192 290
3 184 188 290
3 180 184 290
3 176 180 290
3 172 176 290
3 168 172 290
3 164 168 290
3 160 164 290
3 156 160 290
3 152 156 290
3 154 152 290
3 158 154 290
3 162 158 290
3 166 162 290
3 170 166 290
3 174 170 290
3 178 174 290
3 182 178 290
3 186 182 290
3 190 186 290
3 194 190 290
3 198 194 290
3 202 198 290
3 206 202 290
3 210 206 290
3 214 210 290
3 218 214 290
3 222 218 290
3 226 222 290
3 230 226 290
3 234 230 290
3 238 234 290
3 242 238 290
3 246 242 290
3 250 246 290
3 254 250 290
3 258 254 290
3 262 258 290
3 266 262 290
3 270 266 290
3 274 270 290
3 278 274 290
3 282 278 290
3 286 282 290
3 439 441 437
3 435 439 437
3 431 435 437
3 427 431 437
3 423 427 437
3 419 423 437
3 415 419 437
3 411 415 437
3 407 411 437
3 403 407 437
3 399 403 437
3 393 399 437
3 389 393 437
3 385 389 437
3 381 385 437
3 377 381 437
3 373 377 437
3 369 373 437
3 365 369 437
3 361 365 437
3 357 361 437
3 353 357 437
3 349 353 437
3 345 349 437
3 341 345 437
3 337 341 437
3 333 337 437
3 329 333 437
3 325 329 437
3 321 325 437
3 317 321 437
3 313 317 437
3 309 313 437
3 305 309 437
3 301 305 437
3 297 301 437
3 299 297 437
3 303 299 437
3 307 303 437
3 311 307 437
3 315 311 437
3 319 315 437
3 323 319 437
3 327 323 437
3 331 327 437
3 335 331 437
3 339 335 437
3 343 339 437
3 347 343 437
3 351 347 437
3 355 351 437
3 359 355 437
3 363 359 437
3 367 363 437
3 371 367 437
3 375 371 437
3 379 375 437
3 383 379 437
3 387 383 437
3 391 387 437
3 397 391 437
3 401 397 437
3 405 401 437
3 409 405 437
3 413 409 437
3 417 413 437
3 421 417 437
3 425 421 437
3 429 425 437
3 433 429 437
3 440 442 441
3 440 441 439
3 436 440 439
3 436 439 435
3 432 436 435
3 432 435 431
3 428 432 431
3 428 431 427
3 424 428 427
3 424 427 423
3 420 424 423
3 420 423 419
3 416 420 419
3 416 419 415
3 412 416 415
3 412 415 411
3 408 412 411
3 408 411 407
3 408 407 403
3 404 408 403
3 404 403 399
3 400 404 399
3 400 399 393
3 394 400 393
3 394 393 389
3 390 394 389
3 390 389 385
3 386 390 385
3 386 385 381
3 382 386 381
3 382 381 377
3 378 382 377
3 378 377 373
3 374 378 373
3 374 373 369
3 370 374 369
3 370 369 365
3 366 370 365
3 366 365 361
3 362 366 361
3 362 361 357
3 358 362 357
3 358 357 353
3 354 358 353
3 354 353 349
3 350 354 349
3 350 349 345
3 346 350 345
3 346 345 341
3 342 346 341
3 342 341 337
3 338 342 337
3 338 337 333
3 334 338 333
3 334 333 329
3 330 334 329
3 330 329 325
3 326 330 325
3 326 325 321
3 322 326 321
3 322 321 317
3 318 322 317
3 318 317 313
3 314 318 313
3 314 313 309
3 310 314 309
3 310 309 305
3 306 310 305
3 306 305 301
3 302 306 301
3 302 301 297
3 298 302 297
3 298 297 299
3 300 298 299
3 300 299 303
3 304 300 303
3 304 303 307
3 308 304 307
3 308 307 311
3 312 308 311
3 312 311 315
3 316 312 315
3 316 315 319
3 320 316 319
3 320 319 323
3 324 320 323
3 324 323 327
3 328 324 327
3 328 327 331
3 332 328 331
3 336 332 331
3 336 331 335
3 340 336 335
3 340 335 339
3 344 340 339
3 344 339 343
3 348 344 343
3 348 343 347
3 352 348 347
3 352 347 351
3 356 352 351
3 356 351 355
3 360 356 355
3 360 355 359
3 364 360 359
3 364 359 363
3 368 364 363
3 368 363 367
3 372 368 367
3 372 367 371
3 376 372 371
3 376 371 375
3 380 376 375
3 380 375 379
3 384 380 379
3 384 379 383
3 388 384 383
3 388 383 387
3 392 388 387
3 392 387 391
3 398 392 391
3 398 391 397
3 402 398 397
3 402 397 401
3 406 402 401
3 406 401 405
3 410 406 405
3 410 405 409
3 414 410 409
3 414 409 413
3 418 414 413
3 418 413 417
3 422 418 417
3 422 417 421
3 426 422 421
3 426 421 425
3 430 426 425
3 430 425 429
3 434 430 429
3 434 429 433
3 438 434 433
3 438 433 437
3 442 438 437
3 442 437 441
3 440 442 438
3 436 440 438
3 432 436 438
3 428 432 438
3 424 428 438
3 420 424 438
3 416 420 438
3 412 416 438
3 408 412 438
3 404 408 438
3 400 404 438
3 394 400 438
3 390 394 438
3 386 390 438
3 382 386 438
3 378 382 438
3 374 378 438
3 370 374 438
3 366 370 438
3 362 366 438
3 358 362 438
3 354 358 438
3 350 354 438
3 346 350 438
3 342 346 438
3 338 342 438
3 334 338 438
3 330 334 438
3 326 330 438
3 322 326 438
3 318 322 438
3 314 318 438
3 310 314 438
3 306 310 438
3 302 306 438
3 298 302 438
3 300 298 438
3 304 300 438
3 308 304 438
3 312 308 438
3 316 312 438
3 320 316 438
3 324 320 438
3 328 324 438
3 332 328 438
3 336 332 438
3 340 336 438
3 344 340 438
3 348 344 438
3 352 348 438
3 356 352 438
3 360 356 438
3 364 360 438
3 368 364 438
3 372 368 438
3 376 372 438
3 380 376 438
3 384 380 438
3 388 384 438
3 392 388 438
3 398 392 438
3 402 398 438
3 406 402 438
3 410 406 438
3 414 410 438
3 418 414 438
3 422 418 438
3 426 422 438
3 430 426 438
3 434 430 438
3 583 585 581
3 579 583 581
3 575 579 581
3 571 575 581
3 567 571 581
3 563 567 581
3 559 563 581
3 555 559 581
3 551 555 581
3 547 551 581
3 543 547 581
3 539 543 581
3 535 539 581
3 531 535 581
3 527 531 581
3 523 527 581
3 519 523 581
3 515 519 581
3 511 515 581
3 507 511 581
3 503 507 581
3 499 503 581
3 495 499 581
3 491 495 581
3 487 491 581
3 483 487 581
3 479 483 581
3 475 479 581
3 471 475 581
3 467 471 581
3 463 467 581
3 459 463 581
3 455 459 581
3 451 455 581
3 447 451 581
3 443 447 581
3 445 443 581
3 449 445 581
3 453 449 581
3 457 453 581
3 461 457 581
3 465 461 581
3 469 465 581
3 473 469 581
3 477 473 581
3 481 477 581
3 485 481 581
3 489 485 581
3 493 489 581
3 497 493 581
3 501 497 581
3 505 501 581
3 509 505 581
3 513 509 581
3 517 513 581
3 521 517 581
3 525 521 581
3 529 525 581
3 533 529 581
3 537 533 581
3 541 537 581
3 545 541 581
3 549 545 581
3 553 549 581
3 557 553 581
3 561 557 581
3 565 561 581
3 569 565 581
3 573 569 581
3 577 573 581
3 584 586 585
3 584 585 583
3 580 584 583
3 580 583 579
3 576 580 579
3 576 579 575
3 572 576 575
3 572 575 571
3 568 572 571
3 568 571 567
3 564 568 567
3 564 567 563
3 560 564 563
3 560 563 559
3 556 560 559
3 556 559 555
3 552 556 555
3 552 555 551
3 552 551 547
3 548 552 547
3 548 547 543
3 544 548 543
3 544 543 539
3 540 544 539
3 540 539 535
3 536 540 535
3 536 535 531
3 532 536 531
3 532 531 527
3 528 532 527
3 528 527 523
3 524 528 523
3 524 523 519
3 520 524 519
3 520 519 515
3 516 520 515
3 516 515 511
3 512 516 511
3 512 511 507
3 508 512 507
3 508 507 503
3 504 508 503
3 504 503 499
3 500 504 499
3 500 499 495
3 496 500 495
3 496 495 491
3 492 496 491
3 492 491 487
3 488 492 487
3 488 487 483
3 484 488 483
3 484 483 479
3 480 484 479
3 480 479 475
3 476 480 475
3 476 475 471
3 472 476 471
3 472 471 467
3 468 472 467
3 468 467 463
3 464 468 463
3 464 463 459
3 460 464 459
3 460 459 455
3 456 460 455
3 456 455 451
3 452 456 451
3 452 451 447
3 448 452 447
3 448 447 443
3 444 448 443
3 444 443 445
3 446 444 445
3 446 445 449
3 450 446 449
3 450 449 453
3 454 450 453
3 454 453 457
3 458 454 457
3 458 457 461
3 462 458 461
3 462 461 465
3 466 462 465
3 466 465 469
3 470 466 469
3 470 469 473
3 474 470 473
3 474 473 477
3 478 474 477
3 482 478 477
3 482 477 481
3 486 482 481
3 486 481 485
3 490 486 485
3 490 485 489
3 494 490 489
3 494 489 493
3 498 494 493
3 498 493 497
3 502 498 497
3 502 497 501
3 506 502 501
3 506 501 505
3 510 506 505
3 510 505 509
3 514 510 509
3 514 509 513
3 518 514 513
3 518 513 517
3 522 518 517
3 522 517 521
3 526 522 521
3 526 521 525
3 530 526 525
3 530 525 529
3 534 530 529
3 534 529 533
3 538 534 533
3 538 533 537
3 542 538 537
3 542 537 541
3 546 542 541
3 546 541 545
3 550 546 545
3 550 545 549
3 554 550 549
3 554 549 553
3 558 554 553
3 558 553 557
3 562 558 557
3 562 557 561
3 566 562 561
3 566 561 565
3 570 566 565
3 570 565 569
3 574 570 569
3 574 569 573
3 578 574 573
3 578 573 577
3 582 578 577
3 582 577 581
3 586 582 581
3 586 581 585
3 584 586 582
3 580 584 582
3 576 580 582
3 572 576 582
3 568 572 582
3 564 568 582
3 560 564 582
3 556 560 582
3 552 556 582
3 548 552 582
3 544 548 582
3 540 544 582
3 536 540 582
3 532 536 582
3 528 532 582
3 524 528 582
3 520 524 582
3 516 520 582
3 512 516 582
3 508 512 582
3 504 508 582
3 500 504 582
3 496 500 582
3 492 496 582
3 488 492 582
3 484 488 582
3 480 484 582
3 476 480 582
3 472 476 582
3 468 472 582
3 464 468 582
3 460 464 582
3 456 460 582
3 452 456 582
3 448 452 582
3 444 448 582
3 446 444 582
3 450 446 582
3 454 450 582
3 458 454 582
3 462 458 582
3 466 462 582
3 470 466 582
3 474 470 582
3 478 474 582
3 482 478 582
3 486 482 582
3 490 486 582
3 494 490 582
3 498 494 582
3 502 498 582
3 506 502 582
3 510 506 582
3 514 510 582
3 518 514 582
3 522 518 582
3 526 522 582
3 530 526 582
3 534 530 582
3 538 534 582
3 542 538 582
3 546 542 582
3 550 546 582
3 554 550 582
3 558 554 582
3 562 558 582
3 566 562 582
3 570 566 582
3 574 570 582
3 578 574 582
3 712 608 594
3 825 812 712
3 727 825 712
3 594 727 712
3 607 608 594
3 593 607 594
3 593 594 727
3 726 593 727
3 824 726 727
3 824 727 825
3 811 824 825
3 811 825 812
3 811 812 712
3 711 811 712
3 607 711 712
3 607 712 608
3 711 607 593
3 824 811 711
3 726 824 711
3 593 726 711
3 710 606 592
3 823 810 710
3 725 823 710
3 592 725 710
3 605 606 592
3 591 605 592
3 591 592 725
3 724 591 725
3 822 724 725
3 822 725 823
3 809 822 823
3 809 823 810
3 809 810 710
3 709 809 710
3 605 709 710
3 605 710 606
3 709 605 591
3 822 809 709
3 724 822 709
3 591 724 709
3 708 604 590
3 821 808 708
3 723 821 708
3 590 723 708
3 603 604 590
3 589 603 590
3 589 590 723
3 722 589 723
3 820 722 723
3 820 723 821
3 807 820 821
3 807 821 808
3 807 808 708
3 707 807 708
3 603 707 708
3 603 708 604
3 707 603 589
3 820 807 707
3 722 820 707
3 589 722 707
3 706 602 588
3 819 806 706
3 721 819 706
3 588 721 706
3 601 602 588
3 587 601 588
3 587 588 721
3 720 587 721
3 818 720 721
3 818 721 819
3 805 818 819
3 805 819 806
3 805 806 706
3 705 805 706
3 601 705 706
3 601 706 602
3 705 601 587
3 818 805 705
3 720 818 705
3 587 720 705
3 618 699 702
3 620 618 702
3 653 613 717
3 817 653 717
3 618 699 702
3 620 618 702
3 700 699 618
3 619 700 618
3 619 618 620
3 621 619 620
3 703 621 620
3 703 620 702
3 700 703 702
3 700 702 699
3 619 700 703
3 621 619 703
3 703 702 702
3 703 703 702
3 719 703 702
3 719 702 718
3 719 718 802
3 803 719 802
3 803 802 649
3 651 803 649
3 623 651 649
3 623 649 622
3 703 623 622
3 703 622 702
