OFF
1536 1736 0
0.000 6.707 0.000
0.000 6.707 3.000
0.770 4.100 0.000
0.770 4.100 3.000
1.541 1.493 0.000
1.541 1.493 3.000
2.094 9.841 0.000
2.094 9.841 7.600
2.777 7.528 0.000
2.777 7.528 3.000
3.548 4.920 0.000
3.548 4.920 3.000
3.548 4.920 7.600
4.318 2.313 0.000
4.318 2.313 3.000
5.002 0.000 0.000
5.002 0.000 7.600
5.688 10.903 0.000
5.688 10.903 7.600
7.208 11.749 0.000
7.208 11.749 7.600
8.596 1.062 0.000
8.596 1.062 7.600
8.822 12.226 0.000
8.822 12.226 7.600
10.332 1.177 0.000
10.332 1.177 7.600
10.450 12.707 0.000
10.450 12.707 7.600
10.558 12.342 0.000
10.558 12.342 7.600
11.946 1.654 0.000
11.946 1.654 7.600
12.011 7.421 7.600
13.465 2.501 0.000
13.465 2.501 7.600
13.573 2.135 0.000
13.573 2.135 7.600
14.060 13.774 7.600
14.060 13.774 10.100
14.641 11.808 10.100
15.222 9.842 7.600
15.622 8.488 10.100
16.022 7.134 7.600
16.520 14.501 0.000
16.520 14.501 7.600
16.603 5.168 10.100
17.184 3.202 7.600
17.184 3.202 10.100
17.232 14.711 0.000
17.232 14.711 7.600
17.432 14.033 6.904
17.433 14.030 6.834
17.433 14.031 6.939
17.433 14.033 6.869
17.435 14.024 5.400
17.435 14.024 6.800
17.435 14.025 6.974
17.437 14.017 7.008
17.441 14.006 7.041
17.442 14.002 2.300
17.442 14.002 3.200
17.445 13.992 7.072
17.447 13.985 3.280
17.447 13.985 3.282
17.449 13.976 7.103
17.453 13.962 3.358
17.454 13.960 3.363
17.455 13.957 7.132
17.461 13.936 7.159
17.462 13.933 3.434
17.463 13.930 3.441
17.468 13.913 7.185
17.473 13.897 3.507
17.473 14.045 6.871
17.473 14.045 6.907
17.474 13.893 3.516
17.474 14.042 6.835
17.474 14.042 6.943
17.475 13.888 7.208
17.476 14.036 5.400
17.476 14.036 6.800
17.476 14.036 6.978
17.478 14.027 7.012
17.479 14.784 0.000
17.479 14.784 7.600
17.482 14.016 7.046
17.483 13.861 7.229
17.485 13.856 3.576
17.486 14.001 7.079
17.487 13.849 3.587
17.491 13.984 7.110
17.492 13.833 7.247
17.497 13.965 7.139
17.499 13.810 3.642
17.501 13.800 3.654
17.501 13.803 7.263
17.504 13.942 7.167
17.510 13.772 7.276
17.511 13.918 7.192
17.514 13.758 3.704
17.517 13.746 3.716
17.519 13.740 7.287
17.519 13.892 7.215
17.527 13.864 7.236
17.529 13.707 7.294
17.531 13.701 3.760
17.535 13.686 3.773
17.536 13.834 7.254
17.539 13.674 7.299
17.545 13.803 7.269
17.549 13.640 3.811
17.549 13.640 7.300
17.554 13.622 3.825
17.554 13.771 7.281
17.558 13.607 7.299
17.564 13.737 7.290
17.568 13.573 7.294
17.568 13.575 3.857
17.574 13.554 3.870
17.574 13.704 7.296
17.578 13.541 7.287
17.584 13.669 7.300
17.587 13.509 7.276
17.588 13.507 3.897
17.594 13.635 7.300
17.595 13.482 3.909
17.597 13.477 7.263
17.603 11.256 1.602
17.603 11.256 3.202
17.605 11.248 3.275
17.605 11.248 3.277
17.605 13.447 7.247
17.605 13.601 7.296
17.609 11.234 3.352
17.609 11.235 3.347
17.609 13.435 3.931
17.614 13.419 7.229
17.615 11.213 3.424
17.615 11.215 3.418
17.615 13.567 7.290
17.617 13.408 3.942
17.622 11.190 3.487
17.622 13.392 7.208
17.623 11.186 3.495
17.624 13.534 7.281
17.629 13.367 7.185
17.631 11.159 3.553
17.631 13.361 3.958
17.633 11.154 3.562
17.634 13.501 7.269
17.636 13.344 7.159
17.640 13.331 3.967
17.642 11.122 3.616
17.642 13.323 7.132
17.643 13.470 7.254
17.644 11.115 3.627
17.648 13.304 7.103
17.652 13.441 7.236
17.653 13.285 3.978
17.653 13.288 7.072
17.654 11.081 3.676
17.657 11.072 3.688
17.657 13.274 7.041
17.660 13.263 7.008
17.660 13.412 7.215
17.662 13.255 6.974
17.662 13.257 5.400
17.662 13.257 6.800
17.663 13.252 3.985
17.664 13.250 6.939
17.664 13.251 6.834
17.665 13.247 6.869
17.665 13.247 6.904
17.668 11.035 3.732
17.668 13.386 7.192
17.671 11.024 3.744
17.671 14.841 7.600
17.675 13.362 7.167
17.676 13.208 3.992
17.680 14.104 6.939
17.680 14.106 6.869
17.680 14.106 6.871
17.680 14.106 6.904
17.680 14.106 6.907
17.681 14.103 6.834
17.681 14.103 6.835
17.681 14.103 6.943
17.682 13.340 7.139
17.682 14.097 5.400
17.682 14.097 6.800
17.682 14.097 6.978
17.682 14.098 6.974
17.683 10.984 3.783
17.684 14.090 7.008
17.685 14.088 7.012
17.687 10.970 3.796
17.687 13.171 3.996
17.687 13.320 7.110
17.688 14.077 7.046
17.688 14.079 7.041
17.689 14.075 2.300
17.689 14.075 3.200
17.692 13.303 7.079
17.692 14.065 7.072
17.693 14.062 7.079
17.694 14.058 3.280
17.694 14.058 3.282
17.697 13.289 7.046
17.697 14.049 7.103
17.698 14.045 7.110
17.699 10.930 3.830
17.699 13.130 3.999
17.700 13.277 7.012
17.701 14.033 3.363
17.701 14.035 3.358
17.702 14.030 7.132
17.703 13.268 6.978
17.703 13.269 5.400
17.703 13.269 6.800
17.704 10.913 3.843
17.704 13.263 6.835
17.704 14.026 7.139
17.705 13.259 6.871
17.705 13.259 6.907
17.705 13.262 6.943
17.708 14.010 7.159
17.709 14.006 3.434
17.710 14.003 3.441
17.710 14.004 7.167
17.711 13.091 4.000
17.715 13.986 7.185
17.716 10.872 3.872
17.717 13.979 7.192
17.720 13.970 3.507
17.721 13.966 3.516
17.722 10.852 3.884
17.723 13.051 3.999
17.723 13.961 7.208
17.725 13.953 7.215
17.730 13.934 7.229
17.732 13.929 3.576
17.733 13.925 7.236
17.734 10.810 3.908
17.734 13.922 3.587
17.735 13.010 3.996
17.739 13.906 7.247
17.741 10.788 3.919
17.742 13.895 7.254
17.746 12.973 3.992
17.746 13.883 3.642
17.748 13.873 3.654
17.748 13.876 7.263
17.751 13.864 7.269
17.753 10.746 3.939
17.757 13.845 7.276
17.759 12.930 3.985
17.761 10.721 3.949
17.761 13.831 3.704
17.761 13.832 7.281
17.765 13.819 3.716
17.766 13.813 7.287
17.768 12.896 3.978
17.771 13.798 7.290
17.773 10.680 3.963
17.776 13.780 7.294
17.778 13.774 3.760
17.781 10.652 3.972
17.781 13.765 7.296
17.782 12.851 3.967
17.782 13.759 3.773
17.786 13.747 7.299
17.791 12.820 3.958
17.791 13.730 7.300
17.793 10.611 3.982
17.796 13.713 3.811
17.796 13.713 7.300
17.801 13.695 3.825
17.801 13.696 7.300
17.802 10.581 3.989
17.805 12.774 3.942
17.806 13.680 7.299
17.811 13.662 7.296
17.813 12.746 3.931
17.814 10.542 3.995
17.815 13.648 3.857
17.816 13.646 7.294
17.821 13.627 3.870
17.821 13.628 7.290
17.823 10.509 3.999
17.825 13.614 7.287
17.827 12.699 3.909
17.831 13.595 7.281
17.834 10.471 4.001
17.834 12.675 3.897
17.835 13.580 3.897
17.835 13.582 7.276
17.840 13.562 7.269
17.842 13.555 3.909
17.844 13.551 7.263
17.845 10.436 4.002
17.848 12.627 3.870
17.850 13.531 7.254
17.853 13.521 7.247
17.854 12.606 3.857
17.855 10.401 4.001
17.856 13.508 3.931
17.858 13.502 7.236
17.861 13.492 7.229
17.864 13.481 3.942
17.866 10.363 3.999
17.867 13.473 7.215
17.868 12.559 3.825
17.869 13.465 7.208
17.873 12.541 3.811
17.874 13.447 7.192
17.876 10.330 3.995
17.876 13.440 7.185
17.878 13.434 3.958
17.882 13.423 7.167
17.883 13.417 7.159
17.887 10.291 3.989
17.887 12.495 3.773
17.887 13.404 3.967
17.888 13.401 7.139
17.890 13.396 7.132
17.891 12.480 3.760
17.894 13.381 7.110
17.895 13.377 7.103
17.897 10.261 3.982
17.899 13.364 7.079
17.900 13.361 7.072
17.901 13.358 3.978
17.903 13.350 7.046
17.904 13.348 7.041
17.905 12.436 3.716
17.907 13.336 7.008
17.907 13.338 7.012
17.908 10.220 3.972
17.908 12.424 3.704
17.909 13.329 6.978
17.909 13.330 5.400
17.909 13.330 6.800
17.910 13.328 6.974
17.911 12.412 6.869
17.911 12.412 6.904
17.911 13.323 6.939
17.911 13.323 6.943
17.911 13.324 6.834
17.911 13.324 6.835
17.911 13.325 3.985
17.912 12.409 6.834
17.912 12.410 6.939
17.912 13.320 6.871
17.912 13.320 6.904
17.912 13.320 6.907
17.912 13.321 6.869
17.914 12.403 5.400
17.914 12.403 6.800
17.914 12.404 6.974
17.916 12.396 7.008
17.917 10.192 3.963
17.919 12.385 7.041
17.921 12.381 3.654
17.923 12.371 7.072
17.923 12.372 3.642
17.923 13.281 3.992
17.928 12.355 7.103
17.929 10.151 3.949
17.934 12.337 7.132
17.934 13.244 3.996
17.935 12.332 3.587
17.936 10.126 3.939
17.937 12.325 3.576
17.940 12.316 7.159
17.947 12.293 7.185
17.947 13.203 3.999
17.948 12.289 3.516
17.949 10.084 3.919
17.949 12.284 3.507
17.952 12.424 6.871
17.952 12.424 6.907
17.953 12.421 6.835
17.953 12.421 6.943
17.954 12.267 7.208
17.955 10.062 3.908
17.955 12.415 5.400
17.955 12.415 6.800
17.955 12.416 6.978
17.957 12.407 7.012
17.958 13.164 4.000
17.959 12.252 3.441
17.960 12.249 3.434
17.961 12.395 7.046
17.962 12.241 7.229
17.965 12.381 7.079
17.968 10.020 3.884
17.968 12.219 3.358
17.968 12.221 3.363
17.970 12.212 7.247
17.970 12.363 7.110
17.970 13.124 3.999
17.973 10.000 3.872
17.975 12.196 3.280
17.975 12.197 3.282
17.976 12.344 7.139
17.979 12.182 7.263
17.980 12.180 2.300
17.980 12.180 3.200
17.982 12.322 7.167
17.982 13.083 3.996
17.986 9.959 3.843
17.989 12.151 7.276
17.990 12.297 7.192
17.991 9.942 3.830
17.993 13.046 3.992
17.997 12.271 7.215
17.998 12.119 7.287
18.003 9.902 3.796
18.006 12.243 7.236
18.006 13.003 3.985
18.007 9.888 3.783
18.008 12.086 7.294
18.014 12.213 7.254
18.016 12.969 3.978
18.018 9.849 3.744
18.018 12.053 7.299
18.022 9.837 3.732
18.024 12.182 7.269
18.027 12.019 7.300
18.029 12.924 3.967
18.033 9.800 3.688
18.033 12.150 7.281
18.035 9.791 3.676
18.037 11.986 7.299
18.038 12.893 3.958
18.043 12.117 7.290
18.045 9.757 3.627
18.047 11.953 7.294
18.048 9.750 3.616
18.052 12.847 3.942
18.053 12.083 7.296
18.057 9.718 3.562
18.057 11.920 7.287
18.058 9.713 3.553
18.060 12.819 3.931
18.063 12.049 7.300
18.066 9.686 3.495
18.066 11.888 7.276
18.067 9.682 3.487
18.073 12.014 7.300
18.074 9.659 3.424
18.074 12.772 3.909
18.075 9.657 3.418
18.076 11.857 7.263
18.080 9.638 3.352
18.081 9.637 3.347
18.081 12.748 3.897
18.082 9.215 0.000
18.082 9.215 7.600
18.083 11.980 7.296
18.084 11.827 7.247
18.085 9.624 3.275
18.085 9.624 3.277
18.087 9.616 1.602
18.087 9.616 3.202
18.093 11.798 7.229
18.093 11.946 7.290
18.095 12.700 3.870
18.101 11.771 7.208
18.101 12.679 3.857
18.103 11.913 7.281
18.108 11.746 7.185
18.113 11.881 7.269
18.115 11.723 7.159
18.115 12.632 3.825
18.120 12.614 3.811
18.121 11.702 7.132
18.122 11.850 7.254
18.127 11.683 7.103
18.131 11.667 7.072
18.131 11.820 7.236
18.134 12.568 3.773
18.136 11.654 7.041
18.138 12.553 3.760
18.139 11.643 7.008
18.139 11.792 7.215
18.141 11.634 6.974
18.141 11.636 5.400
18.141 11.636 6.800
18.143 11.627 6.869
18.143 11.629 6.939
18.143 11.630 6.834
18.144 11.626 6.904
18.147 11.765 7.192
18.152 12.509 3.716
18.154 11.741 7.167
18.155 12.497 3.704
18.159 12.482 6.943
18.159 12.483 6.939
18.159 12.485 6.869
18.159 12.485 6.871
18.159 12.485 6.904
18.159 12.485 6.907
18.160 11.719 7.139
18.160 12.482 6.834
18.160 12.482 6.835
18.161 12.476 5.400
18.161 12.476 6.800
18.161 12.477 6.974
18.161 12.477 6.978
18.163 12.469 7.008
18.164 12.468 7.012
18.166 11.699 7.110
18.167 12.456 7.046
18.167 12.458 7.041
18.168 12.454 3.654
18.171 11.682 7.079
18.171 12.445 3.642
18.171 12.445 7.072
18.172 12.442 7.079
18.175 12.428 7.103
18.176 11.668 7.046
18.177 12.424 7.110
18.179 11.656 7.012
18.181 12.410 7.132
18.182 11.647 6.978
18.182 11.648 5.400
18.182 11.648 6.800
18.182 12.405 3.587
18.182 12.405 7.139
18.183 11.641 6.943
18.183 11.642 6.835
18.184 11.639 6.871
18.184 11.639 6.907
18.184 12.398 3.576
18.185 11.487 1.600
18.185 11.487 3.200
18.187 11.480 3.273
18.187 12.389 7.159
18.189 12.383 7.167
18.191 11.466 3.345
18.194 12.366 7.185
18.195 12.362 3.516
18.196 12.358 7.192
18.197 11.446 3.416
18.197 12.357 3.507
18.201 11.433 1.602
18.201 11.433 3.202
18.201 12.341 7.208
18.203 11.425 3.275
18.204 11.421 3.485
18.204 12.332 7.215
18.206 12.325 3.441
18.207 11.411 3.347
18.207 12.322 3.434
18.209 12.314 7.229
18.212 12.304 7.236
18.213 11.390 3.551
18.213 11.392 3.418
18.215 12.294 3.363
18.216 12.292 3.358
18.218 12.285 7.247
18.220 11.366 3.487
18.221 12.274 7.254
18.222 12.269 3.280
18.222 12.270 3.282
18.224 11.354 3.614
18.227 12.253 2.300
18.227 12.253 3.200
18.227 12.255 7.263
18.229 11.335 3.553
18.230 12.243 7.269
18.236 11.312 3.674
18.236 12.224 7.276
18.240 11.299 3.616
18.240 12.211 7.281
18.245 12.192 7.287
18.249 12.178 7.290
18.250 11.266 3.730
18.252 11.258 3.676
18.252 12.875 10.100
18.255 12.159 7.294
18.259 12.144 7.296
18.265 11.216 3.781
18.265 12.126 7.299
18.266 11.212 3.732
18.270 12.110 7.300
18.275 12.092 7.300
18.280 12.075 7.300
18.281 11.161 3.783
18.281 11.161 3.828
18.285 12.059 7.299
18.290 12.041 7.296
18.294 12.026 7.294
18.297 11.107 3.830
18.298 11.103 3.870
18.300 12.007 7.290
18.304 8.881 1.602
18.304 8.881 3.202
18.304 11.993 7.287
18.306 8.873 3.275
18.306 8.873 3.277
18.310 8.860 3.347
18.310 11.974 7.281
18.311 8.859 3.352
18.313 11.961 7.276
18.314 11.049 3.872
18.316 8.840 3.418
18.316 11.042 3.906
18.317 8.838 3.424
18.319 11.942 7.269
18.323 11.930 7.263
18.324 8.815 3.487
18.325 8.811 3.495
18.328 11.911 7.254
18.332 10.987 3.908
18.332 11.900 7.247
18.333 8.784 3.553
18.334 8.779 3.562
18.335 10.977 3.937
18.337 11.881 7.236
18.340 11.871 7.229
18.344 8.748 3.616
18.346 8.741 3.627
18.346 11.853 7.215
18.348 11.844 7.208
18.351 10.923 3.939
18.353 11.826 7.192
18.355 10.911 3.962
18.355 11.819 7.185
18.356 8.706 3.676
18.358 8.697 3.688
18.360 11.802 7.167
18.362 11.796 7.159
18.367 11.780 7.139
18.368 11.775 7.132
18.369 8.660 3.732
18.371 10.856 3.963
18.373 8.649 3.744
18.373 11.760 7.110
18.374 11.757 7.103
18.375 10.843 3.980
18.378 11.743 7.079
18.379 11.740 7.072
18.382 11.729 7.046
18.383 11.727 7.041
18.384 8.610 3.783
18.386 11.716 7.008
18.386 11.717 7.012
18.388 11.708 6.974
18.388 11.708 6.978
18.388 11.709 5.400
18.388 11.709 6.800
18.389 8.596 3.796
18.390 11.702 6.939
18.390 11.702 6.943
18.390 11.703 6.834
18.390 11.703 6.835
18.391 10.788 3.982
18.391 11.699 6.904
18.391 11.700 6.869
18.391 11.700 6.871
18.391 11.700 6.907
18.396 10.773 3.993
18.400 8.555 3.830
18.405 8.538 3.843
18.412 10.718 3.995
18.416 10.703 3.999
18.418 8.497 3.872
18.423 8.477 3.884
18.432 11.560 0.000
18.432 11.560 1.250
18.432 11.560 1.600
18.432 11.560 3.200
18.433 10.648 4.001
18.434 11.552 3.275
18.434 11.553 3.273
18.436 8.435 3.908
18.437 10.632 3.999
18.438 11.538 3.350
18.438 11.539 3.345
18.442 8.413 3.919
18.444 11.519 3.416
18.445 11.517 3.422
18.451 11.494 3.485
18.452 11.491 3.493
18.453 10.578 4.001
18.455 8.371 3.939
18.458 10.562 3.993
18.461 11.463 3.551
18.462 8.346 3.949
18.462 11.458 3.561
18.471 11.427 3.614
18.473 11.420 3.625
18.474 8.305 3.963
18.474 10.507 3.995
18.479 10.492 3.980
18.483 8.277 3.972
18.483 11.385 3.674
18.486 11.376 3.686
18.495 8.236 3.982
18.495 10.438 3.982
18.497 11.339 3.730
18.499 10.424 3.962
18.501 11.328 3.742
18.504 8.206 3.989
18.512 11.289 3.781
18.515 8.167 3.995
18.515 10.369 3.963
18.516 11.275 3.794
18.518 10.357 3.937
18.525 8.134 3.999
18.528 11.234 3.828
18.533 11.218 3.841
18.535 10.303 3.939
18.536 8.097 4.001
18.537 10.293 3.906
18.545 11.176 3.870
18.546 8.061 4.002
18.551 11.157 3.882
18.554 10.239 3.908
18.556 10.232 3.870
18.557 8.026 4.001
18.564 11.115 3.906
18.568 7.989 3.999
18.570 11.092 3.917
18.572 10.177 3.872
18.573 10.174 3.828
18.578 7.956 3.995
18.582 11.050 3.937
18.589 7.917 3.989
18.589 10.119 3.781
18.589 10.119 3.830
18.590 11.025 3.947
18.598 7.886 3.982
18.602 10.984 3.962
18.604 10.068 3.730
18.605 10.064 3.783
18.610 7.846 3.972
18.610 10.956 3.970
18.617 10.022 3.674
18.618 7.818 3.963
18.620 10.014 3.732
18.622 10.916 3.980
18.630 9.981 3.614
18.631 7.776 3.949
18.631 10.885 3.987
18.634 9.968 3.676
18.638 7.751 3.939
18.640 9.945 3.551
18.643 10.846 3.993
18.646 9.926 3.616
18.650 7.709 3.919
18.650 9.914 3.485
18.653 10.813 3.997
18.657 7.687 3.908
18.657 9.888 3.416
18.657 9.890 3.553
18.663 9.869 3.345
18.664 10.776 3.999
18.666 9.859 3.487
18.667 9.855 3.273
18.669 7.645 3.884
18.669 9.847 1.600
18.669 9.847 3.200
18.673 9.834 3.418
18.674 10.740 4.000
18.675 7.626 3.872
18.679 9.814 3.347
18.683 9.801 3.275
18.685 9.793 1.602
18.685 9.793 3.202
18.685 10.705 3.999
18.687 7.584 3.843
18.692 7.567 3.830
18.696 10.668 3.997
18.704 7.527 3.796
18.705 10.635 3.993
18.708 7.513 3.783
18.717 10.596 3.987
18.720 7.474 3.744
18.720 11.645 0.000
18.720 11.645 1.000
18.720 11.645 1.250
18.723 7.462 3.732
18.726 10.565 3.980
18.734 7.425 3.688
18.737 7.416 3.676
18.738 10.525 3.970
18.746 10.497 3.962
18.747 7.382 3.627
18.749 7.375 3.616
18.758 7.344 3.562
18.758 10.456 3.947
18.760 7.339 3.553
18.766 10.430 3.937
18.768 7.311 3.495
18.769 7.308 3.487
18.776 7.282 3.418
18.776 7.284 3.424
18.778 10.389 3.917
18.782 7.263 3.347
18.782 7.264 3.352
18.785 10.366 3.906
18.786 7.249 3.275
18.786 7.249 3.277
18.789 7.241 1.602
18.789 7.241 3.202
18.794 9.425 0.000
18.794 9.425 7.600
18.797 10.324 3.882
18.803 10.305 3.870
18.815 10.263 3.841
18.820 10.247 3.828
18.832 10.206 3.794
18.833 10.909 7.600
18.836 10.192 3.781
18.848 10.153 3.742
18.851 10.141 3.730
18.862 10.104 3.686
18.865 10.095 3.674
18.875 10.061 3.625
18.877 10.054 3.614
18.886 10.023 3.561
18.888 10.018 3.551
18.896 9.990 3.493
18.897 9.987 3.485
18.902 9.058 1.602
18.902 9.058 3.202
18.904 9.961 3.416
18.904 9.963 3.422
18.905 9.050 3.275
18.909 9.037 3.347
18.910 9.942 3.345
18.910 9.943 3.350
18.914 9.928 3.273
18.914 9.928 3.275
18.915 9.017 3.418
18.916 9.920 0.000
18.916 9.920 1.250
18.916 9.920 1.600
18.916 9.920 3.200
18.918 9.003 1.600
18.918 9.003 3.200
18.921 8.996 3.273
18.922 8.992 3.487
18.925 8.982 3.345
18.931 8.961 3.553
18.931 8.962 3.416
18.938 8.937 3.485
18.942 8.924 3.616
18.947 8.906 3.551
18.954 8.883 3.676
18.958 8.870 3.614
18.968 8.837 3.732
18.970 8.829 3.674
18.983 8.786 3.783
18.984 8.782 3.730
18.999 8.732 3.781
18.999 8.732 3.830
19.007 11.730 0.000
19.007 11.730 0.750
19.007 11.730 1.000
19.015 8.677 3.828
19.016 8.674 3.872
19.032 8.619 3.870
19.034 8.612 3.908
19.041 9.498 0.000
19.041 9.498 7.600
19.050 8.558 3.906
19.053 8.548 3.939
19.069 8.494 3.937
19.073 8.482 3.963
19.089 8.427 3.962
19.093 8.413 3.982
19.109 8.359 3.980
19.113 8.344 3.995
19.130 8.289 3.993
19.134 8.273 4.001
19.150 8.219 3.999
19.155 8.203 4.001
19.166 9.076 0.000
19.166 9.076 1.250
19.166 9.076 1.600
19.166 9.076 3.200
19.168 9.068 3.275
19.168 9.069 3.273
19.171 8.148 3.999
19.172 9.054 3.350
19.172 9.055 3.345
19.176 8.132 3.995
19.178 9.033 3.422
19.178 9.035 3.416
19.185 9.010 3.485
19.186 9.007 3.493
19.192 8.078 3.993
19.195 8.979 3.551
19.196 8.063 3.982
19.196 8.974 3.561
19.204 10.005 0.000
19.204 10.005 1.000
19.204 10.005 1.250
19.205 8.943 3.614
19.207 8.936 3.625
19.213 8.008 3.980
19.217 7.995 3.963
19.217 8.902 3.674
19.220 8.892 3.686
19.231 8.855 3.730
19.233 7.940 3.962
19.233 9.555 7.600
19.234 8.844 3.742
19.236 7.928 3.939
19.246 8.805 3.781
19.250 8.791 3.794
19.252 7.873 3.937
19.255 7.864 3.908
19.262 8.750 3.828
19.267 8.734 3.841
19.271 7.809 3.906
19.273 7.802 3.872
19.279 8.692 3.870
19.285 8.673 3.882
19.290 7.748 3.870
19.291 7.744 3.830
19.295 11.815 0.000
19.295 11.815 0.500
19.295 11.815 0.750
19.297 8.631 3.906
19.304 8.608 3.917
19.307 7.690 3.783
19.307 7.690 3.828
19.316 8.567 3.937
19.322 7.639 3.732
19.323 7.635 3.781
19.324 8.541 3.947
19.335 7.593 3.676
19.336 8.500 3.962
19.338 7.585 3.730
19.344 8.472 3.970
19.347 7.552 3.616
19.351 7.538 3.674
19.356 8.432 3.980
19.358 7.515 3.553
19.364 7.497 3.614
19.365 8.401 3.987
19.367 7.484 3.487
19.374 7.461 3.551
19.375 7.459 3.418
19.377 8.362 3.993
19.381 7.439 3.347
19.383 7.430 3.485
19.385 7.426 3.275
19.387 7.418 1.602
19.387 7.418 3.202
19.387 8.329 3.997
19.391 7.405 3.416
19.397 7.385 3.345
19.398 8.292 3.999
19.401 7.371 3.273
19.403 7.364 1.600
19.403 7.364 3.200
19.408 8.256 4.000
19.418 8.221 3.999
19.429 8.184 3.997
19.439 8.151 3.993
19.444 7.224 6.869
19.444 7.224 6.904
19.445 7.221 6.834
19.445 7.222 6.939
19.446 7.216 6.974
19.447 7.215 5.400
19.447 7.215 6.800
19.449 7.208 7.008
19.451 8.112 3.987
19.452 7.197 7.041
19.453 9.162 0.000
19.453 9.162 1.000
19.453 9.162 1.250
19.456 7.184 7.072
19.460 8.081 3.980
19.461 7.167 7.103
19.466 7.149 7.132
19.472 8.041 3.970
19.473 7.128 7.159
19.480 7.105 7.185
19.480 8.013 3.962
19.485 7.236 6.871
19.485 7.236 6.907
19.486 7.233 6.835
19.486 7.233 6.943
19.487 7.080 7.208
19.487 7.228 6.978
19.488 7.227 5.400
19.488 7.227 6.800
19.490 7.219 7.012
19.492 7.972 3.947
19.492 10.090 0.000
19.492 10.090 0.750
19.492 10.090 1.000
19.494 7.207 7.046
19.495 7.053 7.229
19.498 7.193 7.079
19.500 7.946 3.937
19.503 7.024 7.247
19.503 7.175 7.110
19.509 7.156 7.139
19.512 6.994 7.263
19.512 7.905 3.917
19.515 7.134 7.167
19.519 7.882 3.906
19.521 6.963 7.276
19.522 7.109 7.192
19.530 7.083 7.215
19.531 6.931 7.287
19.531 7.840 3.882
19.537 7.821 3.870
19.538 7.055 7.236
19.541 6.898 7.294
19.547 7.025 7.254
19.549 7.779 3.841
19.550 6.865 7.299
19.554 7.763 3.828
19.556 6.994 7.269
19.560 6.831 7.300
19.566 6.962 7.281
19.566 7.722 3.794
19.570 6.798 7.299
19.570 7.708 3.781
19.576 6.929 7.290
19.580 6.765 7.294
19.582 7.669 3.742
19.583 11.900 0.000
19.583 11.900 0.250
19.583 11.900 0.500
19.585 7.658 3.730
19.586 6.895 7.296
19.590 6.732 7.287
19.596 6.861 7.300
19.596 7.621 3.686
19.599 6.700 7.276
19.599 7.611 3.674
19.606 6.826 7.300
19.608 6.669 7.263
19.608 6.671 2.300
19.608 6.671 3.200
19.609 7.577 3.625
19.611 7.570 3.614
19.612 6.655 3.280
19.613 6.654 3.282
19.616 6.792 7.296
19.617 6.639 7.247
19.619 6.632 3.358
19.620 6.630 3.363
19.620 7.539 3.561
19.621 7.534 3.551
19.626 6.610 7.229
19.626 6.758 7.290
19.628 6.602 3.434
19.629 6.599 3.441
19.630 7.506 3.493
19.631 7.503 3.485
19.633 8.201 7.600
19.634 6.583 7.208
19.636 6.725 7.281
19.638 6.567 3.507
19.638 7.478 3.416
19.638 7.480 3.422
19.640 6.562 3.516
19.641 6.558 7.185
19.644 3.929 0.000
19.644 3.929 7.600
19.644 7.458 3.345
19.644 7.459 3.350
19.646 6.693 7.269
19.648 6.535 7.159
19.648 7.444 3.273
19.648 7.445 3.275
19.650 7.437 0.000
19.650 7.437 1.250
19.650 7.437 1.600
19.650 7.437 3.200
19.651 6.526 3.576
19.653 6.519 3.587
19.654 6.514 7.132
19.655 6.662 7.254
19.659 6.496 7.103
19.664 6.479 3.642
19.664 6.479 7.072
19.664 6.632 7.236
19.667 6.470 3.654
19.668 6.466 7.041
19.672 6.455 7.008
19.672 6.604 7.215
19.674 6.446 6.974
19.674 6.448 5.400
19.674 6.448 6.800
19.675 6.442 6.834
19.676 6.438 6.904
19.676 6.439 6.869
19.676 6.441 6.939
19.680 6.427 3.704
19.680 6.577 7.192
19.683 6.415 3.716
19.687 6.553 7.167
19.691 7.297 6.869
19.691 7.297 6.871
19.691 7.297 6.904
19.691 7.297 6.907
19.692 7.294 6.834
19.692 7.294 6.835
19.692 7.294 6.943
19.692 7.295 6.939
19.693 6.531 7.139
19.694 7.288 5.400
19.694 7.288 6.800
19.694 7.289 6.974
19.694 7.289 6.978
19.696 6.371 3.760
19.696 7.281 7.008
19.697 7.280 7.012
19.699 6.512 7.110
19.699 7.270 7.041
19.700 7.268 7.046
19.701 6.356 3.773
19.703 7.257 7.072
19.704 6.494 7.079
19.704 7.254 7.079
19.708 6.480 7.046
19.708 7.240 7.103
19.709 7.236 7.110
19.712 6.468 7.012
19.714 6.310 3.811
19.714 6.459 6.978
19.714 6.460 5.400
19.714 6.460 6.800
19.714 7.222 7.132
19.715 7.217 7.139
19.716 6.453 6.943
19.716 6.454 6.835
19.717 6.451 6.871
19.717 6.451 6.907
19.720 6.292 3.825
19.720 7.201 7.159
19.722 7.195 7.167
19.727 7.178 7.185
19.729 7.171 7.192
19.734 6.245 3.857
19.734 7.153 7.208
19.737 7.144 7.215
19.740 6.224 3.870
19.741 9.247 0.000
19.741 9.247 0.750
19.741 9.247 1.000
19.742 7.126 7.229
19.745 7.116 7.236
19.751 7.097 7.247
19.754 6.176 3.897
19.754 7.086 7.254
19.759 7.067 7.263
19.761 6.152 3.909
19.763 7.055 7.269
19.769 7.036 7.276
19.772 7.023 7.281
19.775 6.105 3.931
19.778 7.004 7.287
19.780 10.176 0.000
19.780 10.176 0.500
19.780 10.176 0.750
19.782 6.990 7.290
19.783 6.077 3.942
19.788 6.971 7.294
19.792 6.956 7.296
19.797 6.031 3.958
19.798 6.938 7.299
19.802 6.922 7.300
19.806 6.000 3.967
19.807 6.905 7.300
19.812 6.887 7.300
19.817 6.871 7.299
19.819 5.955 3.978
19.823 6.853 7.296
19.827 6.838 7.294
19.829 5.921 3.985
19.833 6.819 7.290
19.837 6.805 7.287
19.842 5.878 3.992
19.842 6.786 7.281
19.846 6.773 7.276
19.852 6.754 7.269
19.853 5.841 3.996
19.855 6.744 2.300
19.855 6.744 3.200
19.856 6.742 7.263
19.860 6.727 3.282
19.860 6.728 3.280
19.861 6.723 7.254
19.864 6.712 7.247
19.865 5.799 3.999
19.866 6.705 3.358
19.867 6.703 3.363
19.870 6.693 7.236
19.870 11.985 0.000
19.870 11.985 0.250
19.873 6.683 7.229
19.875 6.675 3.434
19.876 6.672 3.441
19.877 5.760 4.000
19.878 6.665 7.215
19.881 6.656 7.208
19.886 6.638 7.192
19.886 6.640 3.507
19.887 6.635 3.516
19.888 5.721 3.999
19.888 6.631 7.185
19.893 6.614 7.167
19.895 6.608 7.159
19.898 6.599 3.576
19.900 6.592 3.587
19.900 6.592 7.139
19.901 5.679 3.996
19.901 6.587 7.132
19.906 6.572 7.110
19.907 6.569 7.103
19.911 5.643 3.992
19.911 6.552 7.072
19.911 6.555 7.079
19.912 6.552 3.642
19.914 6.543 3.654
19.915 6.539 7.041
19.915 6.541 7.046
19.918 6.529 7.012
19.919 6.528 7.008
19.921 6.520 6.974
19.921 6.520 6.978
19.921 6.521 5.400
19.921 6.521 6.800
19.923 5.603 6.869
19.923 5.604 6.904
19.923 6.512 6.869
19.923 6.512 6.871
19.923 6.512 6.907
19.923 6.514 6.939
19.923 6.515 6.834
19.923 6.515 6.835
19.923 6.515 6.943
19.924 5.599 3.985
19.924 5.600 6.834
19.924 5.601 6.939
19.924 6.512 6.904
19.925 5.596 6.974
19.926 5.594 5.400
19.926 5.594 6.800
19.927 6.500 3.704
19.928 5.587 7.008
19.930 6.488 3.716
19.931 5.576 7.041
19.934 5.566 3.978
19.935 5.563 7.072
19.938 7.522 0.000
19.938 7.522 1.000
19.938 7.522 1.250
19.940 5.547 7.103
19.944 6.444 3.760
19.945 5.528 7.132
19.948 5.520 3.967
19.948 6.429 3.773
19.952 5.507 7.159
19.957 5.490 3.958
19.958 5.484 7.185
19.962 6.383 3.811
19.964 5.616 6.871
19.964 5.616 6.907
19.965 5.612 6.835
19.965 5.613 6.943
19.966 5.459 7.208
19.966 5.607 6.978
19.967 5.606 5.400
19.967 5.606 6.800
19.967 6.365 3.825
19.969 5.598 7.012
19.970 5.443 3.942
19.972 5.586 7.046
19.974 5.432 7.229
19.977 5.572 7.079
19.978 5.416 3.931
19.981 6.318 3.857
19.982 5.403 7.247
19.982 5.555 7.110
19.987 6.297 3.870
19.988 5.535 7.139
19.991 5.373 7.263
19.992 5.369 3.909
19.994 5.513 7.167
20.000 5.342 7.276
20.000 5.344 3.897
20.001 5.489 7.192
20.001 6.249 3.897
20.008 6.225 3.909
20.009 5.462 7.215
20.010 5.310 7.287
20.014 5.297 3.870
20.017 5.434 7.236
20.019 5.277 7.294
20.020 5.276 3.857
20.022 6.178 3.931
20.026 5.405 7.254
20.029 5.244 7.299
20.029 9.332 0.000
20.029 9.332 0.500
20.029 9.332 0.750
20.030 6.150 3.942
20.034 5.229 3.825
20.035 5.373 7.269
20.039 5.211 3.811
20.039 5.211 7.300
20.044 6.104 3.958
20.045 5.341 7.281
20.049 5.177 7.299
20.053 5.165 3.773
20.053 6.073 3.967
20.055 5.308 7.290
20.057 5.150 3.760
20.059 5.144 7.294
20.065 5.274 7.296
20.066 6.028 3.978
20.067 10.260 0.000
20.067 10.260 0.250
20.067 10.260 0.500
20.069 5.111 7.287
20.070 5.105 3.716
20.074 5.093 3.704
20.075 5.240 7.300
20.076 5.994 3.985
20.078 5.079 7.276
20.085 5.206 7.300
20.086 5.051 3.654
20.087 5.048 7.263
20.089 5.041 3.642
20.089 5.951 3.992
20.095 5.171 7.296
20.096 5.018 7.247
20.100 5.914 3.996
20.101 5.002 3.587
20.103 4.995 3.576
20.104 4.989 7.229
20.105 5.137 7.290
20.112 4.963 7.208
20.112 5.872 3.999
20.114 4.958 3.516
20.115 4.953 3.507
20.115 5.104 7.281
20.120 4.938 7.185
20.124 5.072 7.269
20.124 5.833 4.000
20.125 4.921 3.441
20.126 4.918 3.434
20.127 4.914 7.159
20.133 4.893 7.132
20.134 4.889 3.358
20.134 4.890 3.363
20.134 5.041 7.254
20.136 5.794 3.999
20.138 4.875 7.103
20.141 4.866 3.280
20.141 4.866 3.282
20.142 5.011 7.236
20.143 4.859 7.072
20.146 4.849 2.300
20.146 4.849 3.200
20.147 4.845 7.041
20.148 5.752 3.996
20.150 4.834 7.008
20.151 4.983 7.215
20.152 4.827 5.400
20.152 4.827 6.800
20.153 4.826 6.974
20.154 4.820 6.939
20.154 4.821 6.834
20.155 4.818 6.869
20.155 4.818 6.904
20.158 4.957 7.192
20.159 5.716 3.992
20.166 4.932 7.167
20.170 5.676 6.869
20.170 5.676 6.871
20.170 5.677 6.904
20.170 5.677 6.907
20.171 5.673 6.834
20.171 5.673 6.835
20.171 5.674 6.939
20.171 5.674 6.943
20.172 4.910 7.139
20.172 5.672 3.985
20.173 5.667 5.400
20.173 5.667 6.800
20.173 5.668 6.978
20.173 5.669 6.974
20.175 5.659 7.012
20.175 5.660 7.008
20.178 4.891 7.110
20.178 5.649 7.041
20.179 5.647 7.046
20.181 5.639 3.978
20.182 5.636 7.072
20.183 4.874 7.079
20.183 5.633 7.079
20.187 4.859 7.046
20.187 5.620 7.103
20.188 5.616 7.110
20.191 4.847 7.012
20.193 4.839 5.400
20.193 4.839 6.800
20.193 4.839 6.978
20.193 5.601 7.132
20.194 5.596 7.139
20.195 4.833 6.835
20.195 4.833 6.943
20.195 5.593 3.967
20.196 4.830 6.871
20.196 4.830 6.907
20.199 5.580 7.159
20.201 5.574 7.167
20.204 5.563 3.958
20.206 5.557 7.185
20.208 5.550 7.192
20.213 5.532 7.208
20.214 6.235 10.100
20.215 5.523 7.215
20.218 5.516 3.942
20.221 5.505 7.229
20.224 5.495 7.236
20.226 5.489 3.931
20.226 7.607 0.000
20.226 7.607 0.750
20.226 7.607 1.000
20.229 5.476 7.247
20.233 5.466 7.254
20.238 5.446 7.263
20.240 5.442 3.909
20.242 5.434 7.269
20.247 5.415 7.276
20.247 5.417 3.897
20.251 5.402 7.281
20.257 5.383 7.287
20.261 5.369 7.290
20.261 5.370 3.870
20.267 5.349 3.857
20.267 5.350 7.294
20.271 5.335 7.296
20.276 5.317 7.299
20.281 5.301 7.300
20.281 5.302 3.825
20.286 5.284 3.811
20.286 5.284 7.300
20.291 5.267 7.300
20.296 5.250 7.299
20.300 5.238 3.773
20.302 5.232 7.296
20.304 5.223 3.760
20.306 5.217 7.294
20.311 5.198 7.290
20.316 5.184 7.287
20.317 9.417 0.000
20.317 9.417 0.250
20.317 9.417 0.500
20.318 5.178 3.716
20.321 5.165 7.281
20.321 5.166 3.704
20.325 5.152 7.276
20.331 5.133 7.269
20.334 5.121 7.263
20.334 5.124 3.654
20.336 5.114 3.642
20.340 5.102 7.254
20.343 5.091 7.247
20.348 5.075 3.587
20.349 5.072 7.236
20.350 5.068 3.576
20.352 5.063 7.229
20.355 10.345 0.000
20.355 10.345 0.250
20.356 4.139 0.000
20.356 4.139 7.600
20.357 5.044 7.215
20.360 5.036 7.208
20.361 5.031 3.516
20.362 5.026 3.507
20.365 5.018 7.192
20.367 5.011 7.185
20.372 4.993 7.167
20.372 4.994 3.441
20.373 4.991 3.434
20.374 4.987 7.159
20.379 4.971 7.139
20.380 4.966 7.132
20.381 4.962 3.358
20.381 4.963 3.363
20.384 4.952 7.110
20.386 4.948 7.103
20.388 4.939 3.280
20.388 4.939 3.282
20.389 4.935 7.079
20.390 4.932 7.072
20.393 4.922 2.300
20.393 4.922 3.200
20.394 4.918 7.041
20.394 4.920 7.046
20.397 4.908 7.012
20.398 4.907 7.008
20.400 4.899 6.974
20.400 4.900 5.400
20.400 4.900 6.800
20.400 4.900 6.978
20.401 4.894 6.834
20.401 4.894 6.835
20.402 4.891 6.869
20.402 4.891 6.871
20.402 4.891 6.904
20.402 4.891 6.907
20.402 4.893 6.939
20.402 4.894 6.943
20.513 7.692 0.000
20.513 7.692 0.500
20.513 7.692 0.750
20.603 4.212 0.000
20.603 4.212 7.600
20.604 9.502 0.000
20.604 9.502 0.250
20.795 4.269 7.600
20.801 7.777 0.000
20.801 7.777 0.250
20.801 7.777 0.500
21.089 7.862 0.000
21.089 7.862 0.250
3 10 13 4
3 2 10 4
3 15 10 458
3 21 15 458
3 25 21 458
3 31 25 458
3 34 31 458
3 36 34 458
3 1071 36 458
3 458 868 1526
3 1071 458 1526
3 15 10 458
3 21 15 458
3 25 21 458
3 31 25 458
3 34 31 458
3 36 34 458
3 1071 36 458
3 12 10 15
3 16 12 15
3 22 16 15
3 22 15 21
3 26 22 21
3 26 21 25
3 32 26 25
3 32 25 31
3 35 32 31
3 35 31 34
3 35 34 36
3 37 35 36
3 1072 37 36
3 1072 36 1071
3 459 1072 1071
3 459 1071 458
3 459 458 10
3 12 459 10
3 16 12 459
3 22 16 459
3 26 22 459
3 32 26 459
3 35 32 459
3 37 35 459
3 1072 37 459
3 459 869 1527
3 1072 459 1527
3 806 808 807
3 806 807 598
3 599 602 605
3 599 605 610
3 599 610 614
3 599 614 619
3 599 619 624
3 599 624 632
3 599 632 639
3 599 639 654
3 599 654 666
3 599 666 670
3 599 670 682
3 599 682 691
3 599 691 698
3 599 698 706
3 599 706 712
3 599 712 719
3 599 719 725
3 599 725 731
3 599 731 739
3 599 739 746
3 599 746 753
3 599 753 763
3 599 763 774
3 599 774 777
3 599 777 781
3 599 781 787
3 599 787 791
3 599 791 793
3 599 793 797
3 599 797 800
3 599 800 803
3 599 803 806
3 599 806 598
3 1370 1369 1045
3 1046 1050 1054
3 1046 1054 1060
3 1046 1060 1069
3 1046 1069 1084
3 1046 1084 1091
3 1046 1091 1104
3 1046 1104 1125
3 1046 1125 1143
3 1046 1143 1151
3 1046 1151 1161
3 1046 1161 1171
3 1046 1171 1177
3 1046 1177 1184
3 1046 1184 1191
3 1046 1191 1208
3 1046 1208 1221
3 1046 1221 1247
3 1046 1247 1266
3 1046 1266 1282
3 1046 1282 1293
3 1046 1293 1302
3 1046 1302 1313
3 1046 1313 1320
3 1046 1320 1331
3 1046 1331 1337
3 1046 1337 1344
3 1046 1344 1350
3 1046 1350 1356
3 1046 1356 1361
3 1046 1361 1366
3 1370 1045 1046
3 1370 1046 1366
3 1528 1534 1531
3 1464 1528 1531
3 1464 1531 1523
3 1309 1464 1523
3 1309 1523 1434
3 1152 1309 1434
3 1152 1434 1260
3 977 1152 1260
3 977 1260 1079
3 882 977 1079
3 1530 37 48
3 911 33 42
3 10 13 4
3 2 10 4
3 11 14 13
3 11 13 10
3 11 10 2
3 3 11 2
3 3 2 4
3 5 3 4
3 14 5 4
3 14 4 13
3 11 14 5
3 3 11 5
3 1483 1071 1072
3 1484 1483 1072
3 809 458 459
3 810 809 459
3 1528 1534 1531
3 1464 1528 1531
3 1529 1535 1534
3 1529 1534 1528
3 1529 1528 1464
3 1465 1529 1464
3 1465 1464 1531
3 1532 1465 1531
3 1535 1532 1531
3 1535 1531 1534
3 1529 1535 1532
3 1465 1529 1532
3 1464 1531 1523
3 1309 1464 1523
3 1466 1533 1531
3 1466 1531 1464
3 1466 1464 1309
3 1310 1466 1309
3 1310 1309 1523
3 1524 1310 1523
3 1533 1524 1523
3 1533 1523 1531
3 1466 1533 1524
3 1310 1466 1524
3 1309 1523 1434
3 1152 1309 1434
3 1311 1525 1523
3 1311 1523 1309
3 1311 1309 1152
3 1153 1311 1152
3 1153 1152 1434
3 1435 1153 1434
3 1525 1435 1434
3 1525 1434 1523
3 1311 1525 1435
3 1153 1311 1435
3 1152 1434 1260
3 977 1152 1260
3 1154 1436 1434
3 1154 1434 1152
3 1154 1152 977
3 978 1154 977
3 978 977 1260
3 1261 978 1260
3 1436 1261 1260
3 1436 1260 1434
3 1154 1436 1261
3 978 1154 1261
3 977 1260 1079
3 882 977 1079
3 979 1262 1260
3 979 1260 977
3 979 977 882
3 883 979 882
3 883 882 1079
3 1080 883 1079
3 1262 1080 1079
3 1262 1079 1260
3 979 1262 1080
3 883 979 1080
3 911 33 42
3 809 458 459
3 810 809 459
3 1063 1530 1428
3 1413 1412 1278
3 1279 1274 1272
3 1279 1272 1273
3 1279 1273 1275
3 1279 1275 1277
3 1279 1277 1281
3 1279 1281 1283
3 1279 1283 1285
3 1279 1285 1289
3 1279 1289 1291
3 1279 1291 1294
3 1279 1294 1297
3 1279 1297 1300
3 1279 1300 1303
3 1279 1303 1307
3 1279 1307 1314
3 1279 1314 1318
3 1279 1318 1322
3 1279 1322 1325
3 1279 1325 1333
3 1279 1333 1336
3 1279 1336 1341
3 1279 1341 1347
3 1279 1347 1352
3 1279 1352 1354
3 1279 1354 1362
3 1279 1362 1367
3 1279 1367 1374
3 1279 1374 1382
3 1279 1382 1384
3 1279 1384 1393
3 1279 1393 1401
3 1279 1401 1406
3 1279 1406 1408
3 1279 1408 1411
3 1279 1411 1414
3 1279 1414 1418
3 1279 1418 1421
3 1279 1421 1420
3 1279 1420 1417
3 1279 1417 1413
3 1279 1413 1278
3 1136 1135 994
3 995 990 988
3 995 988 989
3 995 989 991
3 995 991 993
3 995 993 996
3 995 996 1001
3 995 1001 1003
3 995 1003 1006
3 995 1006 1007
3 995 1007 1010
3 995 1010 1013
3 995 1013 1014
3 995 1014 1018
3 995 1018 1020
3 995 1020 1024
3 995 1024 1026
3 995 1026 1030
3 995 1030 1037
3 995 1037 1039
3 995 1039 1043
3 995 1043 1051
3 995 1051 1058
3 995 1058 1065
3 995 1065 1075
3 995 1075 1086
3 995 1086 1090
3 995 1090 1094
3 995 1094 1103
3 995 1103 1105
3 995 1105 1114
3 995 1114 1122
3 995 1122 1127
3 995 1127 1129
3 995 1129 1132
3 995 1132 1134
3 995 1134 1139
3 995 1139 1142
3 995 1142 1141
3 995 1141 1140
3 995 1140 1136
3 995 1136 994
3 1115 1236 1237
3 1107 1111 1116
3 1109 1107 1116
3 1112 1109 1116
3 1118 1112 1116
3 1121 1118 1116
3 1124 1121 1116
3 1128 1124 1116
3 1131 1128 1116
3 1138 1131 1116
3 1145 1138 1116
3 1147 1145 1116
3 1150 1147 1116
3 1156 1150 1116
3 1159 1156 1116
3 1162 1159 1116
3 1164 1162 1116
3 1170 1164 1116
3 1173 1170 1116
3 1176 1173 1116
3 1179 1176 1116
3 1182 1179 1116
3 1185 1182 1116
3 1188 1185 1116
3 1190 1188 1116
3 1197 1190 1116
3 1202 1197 1116
3 1209 1202 1116
3 1211 1209 1116
3 1216 1211 1116
3 1220 1216 1116
3 1223 1220 1116
3 1227 1223 1116
3 1231 1227 1116
3 1232 1231 1116
3 1235 1232 1116
3 1246 1235 1116
3 1242 1246 1116
3 1241 1242 1116
3 1245 1241 1116
3 1116 1115 1237
3 1245 1116 1237
3 1395 1512 1513
3 1386 1390 1396
3 1388 1386 1396
3 1392 1388 1396
3 1397 1392 1396
3 1399 1397 1396
3 1403 1399 1396
3 1407 1403 1396
3 1410 1407 1396
3 1416 1410 1396
3 1423 1416 1396
3 1426 1423 1396
3 1429 1426 1396
3 1432 1429 1396
3 1438 1432 1396
3 1441 1438 1396
3 1444 1441 1396
3 1446 1444 1396
3 1450 1446 1396
3 1452 1450 1396
3 1456 1452 1396
3 1459 1456 1396
3 1462 1459 1396
3 1468 1462 1396
3 1471 1468 1396
3 1475 1471 1396
3 1478 1475 1396
3 1485 1478 1396
3 1489 1485 1396
3 1491 1489 1396
3 1495 1491 1396
3 1499 1495 1396
3 1503 1499 1396
3 1508 1503 1396
3 1509 1508 1396
3 1514 1509 1396
3 1522 1514 1396
3 1520 1522 1396
3 1518 1520 1396
3 1516 1518 1396
3 1396 1395 1513
3 1516 1396 1513
3 1078 1082 1081
3 1078 1081 884
3 885 886 889
3 885 889 892
3 885 892 895
3 885 895 899
3 885 899 904
3 885 904 908
3 885 908 912
3 885 912 915
3 885 915 919
3 885 919 923
3 885 923 930
3 885 930 936
3 885 936 940
3 885 940 946
3 885 946 956
3 885 956 963
3 885 963 965
3 885 965 975
3 885 975 984
3 885 984 997
3 885 997 1009
3 885 1009 1016
3 885 1016 1021
3 885 1021 1027
3 885 1027 1032
3 885 1032 1040
3 885 1040 1047
3 885 1047 1055
3 885 1055 1061
3 885 1061 1068
3 885 1068 1074
3 885 1074 1078
3 885 1078 884
3 1505 1506 1502
3 1192 1505 1502
3 1201 1195 1193
3 1207 1201 1193
3 1213 1207 1193
3 1219 1213 1193
3 1229 1219 1193
3 1256 1229 1193
3 1267 1256 1193
3 1280 1267 1193
3 1290 1280 1193
3 1299 1290 1193
3 1312 1299 1193
3 1321 1312 1193
3 1334 1321 1193
3 1343 1334 1193
3 1355 1343 1193
3 1372 1355 1193
3 1394 1372 1193
3 1419 1394 1193
3 1430 1419 1193
3 1440 1430 1193
3 1447 1440 1193
3 1453 1447 1193
3 1458 1453 1193
3 1467 1458 1193
3 1473 1467 1193
3 1477 1473 1193
3 1487 1477 1193
3 1492 1487 1193
3 1498 1492 1193
3 1502 1498 1193
3 1192 1502 1193
3 1526 1527 869
3 868 1526 869
3 0 8 10
3 2 0 10
3 458 10 6
3 27 44 458
3 29 27 458
3 23 29 458
3 19 23 458
3 17 19 458
3 6 17 458
3 84 868 458
3 44 84 458
3 458 10 6
3 27 44 458
3 29 27 458
3 23 29 458
3 19 23 458
3 17 19 458
3 6 17 458
3 459 12 10
3 459 10 458
3 45 459 458
3 45 458 44
3 45 44 27
3 28 45 27
3 28 27 29
3 30 28 29
3 30 29 23
3 24 30 23
3 24 23 19
3 20 24 19
3 20 19 17
3 18 20 17
3 18 17 6
3 7 18 6
3 7 6 10
3 12 7 10
3 459 12 7
3 28 45 459
3 30 28 459
3 24 30 459
3 20 24 459
3 18 20 459
3 7 18 459
3 85 869 459
3 45 85 459
3 129 131 134
3 129 134 138
3 129 138 144
3 129 144 149
3 129 149 156
3 129 156 162
3 129 162 176
3 129 176 196
3 129 196 220
3 129 220 236
3 129 236 247
3 129 247 257
3 129 257 267
3 129 267 279
3 129 279 289
3 129 289 300
3 129 300 310
3 129 310 321
3 129 321 338
3 129 338 368
3 129 368 378
3 129 378 396
3 129 396 411
3 129 411 418
3 129 418 425
3 129 425 431
3 129 431 437
3 129 437 442
3 129 442 447
3 129 447 451
3 129 451 455
3 129 455 463
3 465 464 128
3 129 463 465
3 129 465 128
3 60 61 64
3 60 64 67
3 60 67 71
3 60 71 76
3 60 76 90
3 60 90 95
3 60 95 101
3 60 101 107
3 60 107 113
3 60 113 119
3 60 119 126
3 60 126 141
3 60 141 152
3 60 152 169
3 60 169 197
3 60 197 230
3 60 230 245
3 60 245 256
3 60 256 269
3 60 269 280
3 60 280 291
3 60 291 301
3 60 301 312
3 60 312 322
3 60 322 335
3 60 335 363
3 60 363 371
3 60 371 377
3 60 377 391
3 60 391 398
3 60 398 404
3 408 407 60
3 408 60 404
3 1033 1203 1481
3 1327 1033 1481
3 926 1033 1327
3 1167 926 1327
3 861 926 1167
3 998 861 1167
3 782 861 998
3 900 782 998
3 671 782 900
3 839 671 900
3 177 28 39
3 911 33 42
3 0 8 10
3 2 0 10
3 9 8 0
3 1 9 0
3 1 0 2
3 3 1 2
3 11 3 2
3 11 2 10
3 9 11 10
3 9 10 8
3 1 9 11
3 3 1 11
3 49 44 45
3 50 49 45
3 809 458 459
3 810 809 459
3 1033 1203 1481
3 1327 1033 1481
3 1204 1203 1033
3 1034 1204 1033
3 1034 1033 1327
3 1328 1034 1327
3 1482 1328 1327
3 1482 1327 1481
3 1204 1482 1481
3 1204 1481 1203
3 1034 1204 1482
3 1328 1034 1482
3 926 1033 1327
3 1167 926 1327
3 1035 1033 926
3 927 1035 926
3 927 926 1167
3 1168 927 1167
3 1329 1168 1167
3 1329 1167 1327
3 1035 1329 1327
3 1035 1327 1033
3 927 1035 1329
3 1168 927 1329
3 861 926 1167
3 998 861 1167
3 928 926 861
3 862 928 861
3 862 861 998
3 999 862 998
3 1169 999 998
3 1169 998 1167
3 928 1169 1167
3 928 1167 926
3 862 928 1169
3 999 862 1169
3 782 861 998
3 900 782 998
3 863 861 782
3 783 863 782
3 783 782 900
3 901 783 900
3 1000 901 900
3 1000 900 998
3 863 1000 998
3 863 998 861
3 783 863 1000
3 901 783 1000
3 671 782 900
3 839 671 900
3 784 782 671
3 672 784 671
3 672 671 839
3 840 672 839
3 902 840 839
3 902 839 900
3 784 902 900
3 784 900 782
3 672 784 902
3 840 672 902
3 911 33 42
3 809 458 459
3 810 809 459
3 581 177 816
3 81 77 74
3 81 74 75
3 81 75 78
3 81 78 82
3 81 82 83
3 81 83 86
3 81 86 89
3 81 89 91
3 81 91 93
3 81 93 97
3 81 97 99
3 81 99 103
3 81 103 104
3 81 104 108
3 81 108 110
3 81 110 114
3 81 114 116
3 81 116 120
3 81 120 122
3 81 122 125
3 81 125 133
3 81 133 140
3 81 140 145
3 81 145 150
3 81 150 155
3 81 155 158
3 81 158 165
3 81 165 175
3 81 175 178
3 81 178 188
3 81 188 198
3 81 198 203
3 81 203 208
3 81 208 213
3 81 213 217
3 81 217 225
3 81 225 224
3 81 224 223
3 81 223 221
3 219 218 80
3 81 221 219
3 81 219 80
3 387 382 380
3 387 380 381
3 387 381 383
3 387 383 388
3 387 388 389
3 387 389 393
3 387 393 395
3 387 395 400
3 387 400 405
3 387 405 409
3 387 409 413
3 387 413 416
3 387 416 419
3 387 419 423
3 387 423 428
3 387 428 432
3 387 432 436
3 387 436 441
3 387 441 446
3 387 446 450
3 387 450 460
3 387 460 467
3 387 467 471
3 387 471 473
3 387 473 478
3 387 478 481
3 387 481 486
3 387 486 494
3 387 494 496
3 387 496 504
3 387 504 513
3 387 513 517
3 387 517 522
3 387 522 524
3 387 524 526
3 387 526 531
3 387 531 534
3 387 534 533
3 387 533 532
3 528 527 386
3 387 532 528
3 387 528 386
3 676 674 673
3 680 676 673
3 684 680 673
3 686 684 673
3 692 686 673
3 694 692 673
3 700 694 673
3 705 700 673
3 710 705 673
3 714 710 673
3 720 714 673
3 726 720 673
3 734 726 673
3 740 734 673
3 747 740 673
3 755 747 673
3 767 755 673
3 776 767 673
3 780 776 673
3 789 780 673
3 794 789 673
3 801 794 673
3 811 801 673
3 813 811 673
3 815 813 673
3 818 815 673
3 820 818 673
3 822 820 673
3 824 822 673
3 826 824 673
3 831 826 673
3 835 831 673
3 837 835 673
3 673 841 842
3 837 673 842
3 842 837 842
3 501 506 508
3 503 501 508
3 498 503 508
3 510 498 508
3 512 510 508
3 514 512 508
3 520 514 508
3 523 520 508
3 530 523 508
3 540 530 508
3 544 540 508
3 552 544 508
3 557 552 508
3 564 557 508
3 572 564 508
3 576 572 508
3 578 576 508
3 583 578 508
3 587 583 508
3 589 587 508
3 593 589 508
3 597 593 508
3 604 597 508
3 611 604 508
3 615 611 508
3 621 615 508
3 625 621 508
3 628 625 508
3 633 628 508
3 635 633 508
3 640 635 508
3 643 640 508
3 645 643 508
3 649 645 508
3 651 649 508
3 656 651 508
3 663 656 508
3 662 663 508
3 658 662 508
3 507 652 653
3 508 507 653
3 658 508 653
3 182 186 190
3 184 182 190
3 187 184 190
3 191 187 190
3 195 191 190
3 199 195 190
3 205 199 190
3 210 205 190
3 222 210 190
3 229 222 190
3 233 229 190
3 239 233 190
3 242 239 190
3 248 242 190
3 253 248 190
3 259 253 190
3 263 259 190
3 268 263 190
3 273 268 190
3 278 273 190
3 282 278 190
3 288 282 190
3 292 288 190
3 297 292 190
3 302 297 190
3 307 302 190
3 311 307 190
3 315 311 190
3 319 315 190
3 324 319 190
3 327 324 190
3 330 327 190
3 333 330 190
3 337 333 190
3 340 337 190
3 347 340 190
3 355 347 190
3 353 355 190
3 349 353 190
3 189 341 342
3 190 189 342
3 349 190 342
3 201 202 207
3 201 207 214
3 201 214 228
3 201 228 235
3 201 235 244
3 201 244 251
3 201 251 260
3 201 260 270
3 201 270 277
3 201 277 287
3 201 287 298
3 201 298 309
3 201 309 323
3 201 323 350
3 201 350 370
3 201 370 390
3 201 390 410
3 201 410 420
3 201 420 430
3 201 430 440
3 201 440 452
3 201 452 468
3 201 468 475
3 201 475 482
3 201 482 495
3 201 495 516
3 201 516 529
3 201 529 543
3 201 543 553
3 201 553 560
3 201 560 566
3 569 568 201
3 569 201 566
3 569 566 569
3 868 84 85
3 868 85 869
3 954 807 598
3 828 954 598
3 828 598 599
3 829 828 599
3 832 601 599
3 832 599 829
3 833 603 601
3 833 601 832
3 838 608 603
3 838 603 833
3 846 613 608
3 846 608 838
3 848 618 613
3 848 613 846
3 851 623 618
3 851 618 848
3 853 631 623
3 853 623 851
3 855 637 631
3 855 631 853
3 647 637 855
3 857 647 855
3 665 647 857
3 860 665 857
3 669 665 860
3 865 669 860
3 678 669 865
3 867 678 865
3 688 678 867
3 871 688 867
3 695 688 871
3 873 695 871
3 701 695 873
3 875 701 873
3 708 701 875
3 877 708 875
3 716 708 877
3 879 716 877
3 723 716 879
3 881 723 879
3 729 723 881
3 891 729 881
3 735 729 891
3 898 735 891
3 742 735 898
3 906 742 898
3 749 742 906
3 913 749 906
3 756 749 913
3 917 756 913
3 768 756 917
3 921 768 917
3 775 768 921
3 925 775 921
3 779 775 925
3 931 779 925
3 785 779 931
3 934 785 931
3 788 785 934
3 937 788 934
3 792 788 937
3 941 792 937
3 795 792 941
3 944 795 941
3 798 795 944
3 947 798 944
3 799 798 947
3 949 799 947
3 802 799 949
3 951 802 949
3 805 802 951
3 953 805 951
3 808 805 953
3 955 808 953
3 954 955 808
3 954 808 807
3 1530 48 42
3 911 1530 42
3 911 1530 37
3 33 911 37
3 48 37 33
3 42 48 33
3 43 1063 1428
3 43 1428 46
3 43 1063 1530
3 47 43 1530
3 1428 1530 47
3 46 1428 47
3 1100 1098 1244
3 1100 1244 1240
3 1099 1100 1240
3 1099 1240 1250
3 1243 1250 1099
3 1101 1243 1099
3 1234 1243 1101
3 1095 1234 1101
3 1233 1234 1095
3 1093 1233 1095
3 1230 1233 1093
3 1092 1230 1093
3 1226 1230 1092
3 1089 1226 1092
3 1224 1226 1089
3 1087 1224 1089
3 1222 1224 1087
3 1085 1222 1087
3 1217 1222 1085
3 1076 1217 1085
3 1215 1217 1076
3 1070 1215 1076
3 1210 1215 1070
3 1064 1210 1070
3 1205 1210 1064
3 1057 1205 1064
3 1198 1205 1057
3 1052 1198 1057
3 1194 1198 1052
3 1044 1194 1052
3 1189 1194 1044
3 1041 1189 1044
3 1186 1189 1041
3 1038 1186 1041
3 1183 1186 1038
3 1031 1183 1038
3 1180 1183 1031
3 1028 1180 1031
3 1178 1180 1028
3 1025 1178 1028
3 1175 1178 1025
3 1022 1175 1025
3 1172 1175 1022
3 1019 1172 1022
3 1166 1172 1019
3 1015 1166 1019
3 1163 1166 1015
3 1012 1163 1015
3 1160 1163 1012
3 1008 1160 1012
3 1157 1160 1008
3 1005 1157 1008
3 1155 1157 1005
3 1002 1155 1005
3 1149 1155 1002
3 992 1149 1002
3 1146 1149 992
3 986 1146 992
3 985 1144 1146
3 985 1146 986
3 983 1137 1144
3 983 1144 985
3 982 1130 1137
3 982 1137 983
3 980 1126 1130
3 980 1130 982
3 976 1123 1126
3 976 1126 980
3 974 1120 1123
3 974 1123 976
3 971 1117 1120
3 971 1120 974
3 970 1113 1117
3 970 1117 971
3 968 1108 1113
3 968 1113 970
3 968 1108 1106
3 967 968 1106
3 967 1106 1110
3 969 967 1110
3 969 1110 1116
3 973 969 1116
3 972 1115 1116
3 972 1116 973
3 972 1115 1236
3 1096 972 1236
3 1237 1236 1096
3 1097 1237 1096
3 1379 1376 1513
3 1379 1513 1515
3 1380 1379 1515
3 1380 1515 1517
3 1381 1380 1517
3 1381 1517 1519
3 1521 1519 1381
3 1378 1521 1381
3 1511 1521 1378
3 1377 1511 1378
3 1510 1511 1377
3 1373 1510 1377
3 1507 1510 1373
3 1371 1507 1373
3 1504 1507 1371
3 1368 1504 1371
3 1500 1504 1368
3 1364 1500 1368
3 1496 1500 1364
3 1359 1496 1364
3 1494 1496 1359
3 1358 1494 1359
3 1490 1494 1358
3 1353 1490 1358
3 1486 1490 1353
3 1348 1486 1353
3 1480 1486 1348
3 1346 1480 1348
3 1476 1480 1346
3 1342 1476 1346
3 1472 1476 1342
3 1338 1472 1342
3 1470 1472 1338
3 1335 1470 1338
3 1463 1470 1335
3 1330 1463 1335
3 1461 1463 1330
3 1324 1461 1330
3 1457 1461 1324
3 1319 1457 1324
3 1455 1457 1319
3 1316 1455 1319
3 1451 1455 1316
3 1308 1451 1316
3 1449 1451 1308
3 1304 1449 1308
3 1445 1449 1304
3 1301 1445 1304
3 1442 1445 1301
3 1295 1442 1301
3 1439 1442 1295
3 1292 1439 1295
3 1437 1439 1292
3 1288 1437 1292
3 1431 1437 1288
3 1284 1431 1288
3 1427 1431 1284
3 1276 1427 1284
3 1425 1427 1276
3 1270 1425 1276
3 1268 1422 1425
3 1268 1425 1270
3 1265 1415 1422
3 1265 1422 1268
3 1263 1409 1415
3 1263 1415 1265
3 1259 1405 1409
3 1259 1409 1263
3 1257 1402 1405
3 1257 1405 1259
3 1255 1400 1402
3 1255 1402 1257
3 1251 1398 1400
3 1251 1400 1255
3 1249 1391 1398
3 1249 1398 1251
3 1239 1387 1391
3 1239 1391 1249
3 1239 1387 1385
3 1238 1239 1385
3 1238 1385 1389
3 1248 1238 1389
3 1248 1389 1396
3 1253 1248 1396
3 1252 1395 1396
3 1252 1396 1253
3 1252 1395 1512
3 1375 1252 1512
3 1513 1512 1375
3 1376 1513 1375
3 1501 1506 1370
3 1365 1501 1370
3 1497 1501 1365
3 1360 1497 1365
3 1493 1497 1360
3 1357 1493 1360
3 1488 1493 1357
3 1351 1488 1357
3 1479 1488 1351
3 1345 1479 1351
3 1474 1479 1345
3 1339 1474 1345
3 1469 1474 1339
3 1332 1469 1339
3 1460 1469 1332
3 1323 1460 1332
3 1454 1460 1323
3 1315 1454 1323
3 1448 1454 1315
3 1305 1448 1315
3 1443 1448 1305
3 1296 1443 1305
3 1433 1443 1296
3 1286 1433 1296
3 1424 1433 1286
3 1269 1424 1286
3 1404 1424 1269
3 1258 1404 1269
3 1383 1404 1258
3 1225 1383 1258
3 1363 1383 1225
3 1214 1363 1225
3 1349 1363 1214
3 1199 1349 1214
3 1340 1349 1199
3 1187 1340 1199
3 1326 1340 1187
3 1181 1326 1187
3 1317 1326 1181
3 1174 1317 1181
3 1306 1317 1174
3 1165 1306 1174
3 1298 1306 1165
3 1158 1298 1165
3 1287 1298 1158
3 1148 1287 1158
3 1271 1287 1148
3 1133 1271 1148
3 1264 1271 1133
3 1119 1264 1133
3 1254 1264 1119
3 1102 1254 1119
3 1088 1228 1254
3 1088 1254 1102
3 1083 1218 1228
3 1083 1228 1088
3 1066 1212 1218
3 1066 1218 1083
3 1059 1206 1212
3 1059 1212 1066
3 1053 1200 1206
3 1053 1206 1059
3 1049 1196 1200
3 1049 1200 1053
3 1046 1193 1196
3 1046 1196 1049
3 1046 1193 1192
3 1045 1046 1192
3 1045 1192 1505
3 1369 1045 1505
3 1506 1505 1369
3 1370 1506 1369
3 1077 1082 962
3 960 1077 962
3 1073 1077 960
3 958 1073 960
3 1067 1073 958
3 957 1067 958
3 1062 1067 957
3 952 1062 957
3 1056 1062 952
3 948 1056 952
3 1048 1056 948
3 945 1048 948
3 1042 1048 945
3 942 1042 945
3 1036 1042 942
3 939 1036 942
3 1029 1036 939
3 935 1029 939
3 1023 1029 935
3 932 1023 935
3 1017 1023 932
3 924 1017 932
3 1011 1017 924
3 920 1011 924
3 1004 1011 920
3 916 1004 920
3 987 1004 916
3 910 987 916
3 981 987 910
3 905 981 910
3 966 981 905
3 896 966 905
3 964 966 896
3 888 964 896
3 959 964 888
3 880 959 888
3 950 959 880
3 878 950 880
3 943 950 878
3 876 943 878
3 938 943 876
3 874 938 876
3 933 938 874
3 872 933 874
3 929 933 872
3 870 929 872
3 922 929 870
3 866 922 870
3 918 922 866
3 864 918 866
3 914 918 864
3 859 914 864
3 909 914 859
3 858 909 859
3 856 907 909
3 856 909 858
3 854 903 907
3 854 907 856
3 852 897 903
3 852 903 854
3 850 894 897
3 850 897 852
3 849 893 894
3 849 894 850
3 847 890 893
3 847 893 849
3 845 887 890
3 845 890 847
3 844 885 887
3 844 887 845
3 843 884 885
3 843 885 844
3 843 884 1081
3 961 843 1081
3 1082 1081 961
3 962 1082 961
3 1483 1526 1527
3 1483 1527 1484
3 868 1526 1483
3 809 868 1483
3 869 868 809
3 810 869 809
3 810 869 1527
3 1484 810 1527
3 1098 1097 1237
3 1098 1237 1244
3 464 128 547
3 771 464 547
3 771 464 465
3 772 771 465
3 772 465 462
3 770 772 462
3 770 462 456
3 769 770 456
3 769 456 453
3 766 769 453
3 766 453 449
3 761 766 449
3 761 449 444
3 758 761 444
3 758 444 439
3 752 758 439
3 752 439 433
3 748 752 433
3 748 433 427
3 743 748 427
3 743 427 421
3 738 743 421
3 738 421 414
3 733 738 414
3 733 414 402
3 727 733 402
3 727 402 385
3 721 727 385
3 721 385 372
3 715 721 372
3 715 372 361
3 709 715 361
3 709 361 329
3 702 709 329
3 702 329 316
3 696 702 316
3 696 316 305
3 687 696 305
3 687 305 293
3 675 687 293
3 675 293 284
3 667 675 284
3 667 284 274
3 659 667 274
3 659 274 264
3 638 659 264
3 638 264 254
3 627 638 254
3 627 254 243
3 616 627 243
3 616 243 232
3 607 616 232
3 607 232 211
3 595 607 211
3 595 211 193
3 590 595 193
3 590 193 174
3 586 590 174
3 580 586 174
3 580 174 161
3 575 580 161
3 575 161 153
3 571 575 153
3 571 153 147
3 563 571 147
3 563 147 142
3 559 563 142
3 559 142 139
3 554 559 139
3 554 139 135
3 550 554 135
3 550 135 130
3 548 550 130
3 548 130 129
3 547 548 129
3 547 129 128
3 42 39 177
3 911 42 177
3 28 177 911
3 33 28 911
3 33 28 39
3 42 33 39
3 40 581 816
3 41 40 816
3 177 816 41
3 38 177 41
3 40 38 177
3 40 177 581
3 500 505 351
3 344 500 351
3 502 500 344
3 345 502 344
3 352 345 502
3 352 502 499
3 359 352 499
3 359 499 509
3 360 359 509
3 360 509 511
3 362 360 511
3 362 511 515
3 364 362 515
3 364 515 519
3 367 364 519
3 367 519 521
3 369 367 521
3 369 521 525
3 374 369 525
3 374 525 539
3 375 374 539
3 375 539 542
3 375 542 549
3 384 375 549
3 384 549 556
3 394 384 556
3 394 556 562
3 399 394 562
3 399 562 570
3 406 399 570
3 406 570 574
3 412 406 574
3 412 574 577
3 417 412 577
3 417 577 582
3 422 417 582
3 422 582 585
3 426 422 585
3 426 585 588
3 429 426 588
3 429 588 592
3 434 429 592
3 434 592 594
3 438 434 594
3 438 594 600
3 443 438 600
3 443 600 606
3 448 443 606
3 448 606 612
3 454 448 612
3 454 612 617
3 461 454 617
3 461 617 622
3 466 461 622
3 466 622 626
3 469 466 626
3 469 626 630
3 472 469 630
3 472 630 634
3 474 472 634
3 474 634 636
3 477 474 636
3 477 636 641
3 479 477 641
3 479 641 644
3 480 479 644
3 480 644 646
3 483 480 646
3 483 646 648
3 485 483 648
3 485 648 650
3 487 485 650
3 487 650 655
3 491 487 655
3 491 655 660
3 493 491 660
3 490 661 660
3 490 660 493
3 492 657 661
3 492 661 490
3 489 653 657
3 489 657 492
3 489 653 652
3 488 489 652
3 507 652 488
3 357 507 488
3 358 357 507
3 358 507 508
3 185 190 56
3 52 185 56
3 181 185 52
3 54 181 52
3 183 181 54
3 51 183 54
3 53 51 183
3 53 183 180
3 57 53 180
3 57 180 192
3 58 57 192
3 58 192 194
3 59 58 194
3 59 194 200
3 62 59 200
3 62 200 204
3 65 62 204
3 65 204 209
3 68 65 209
3 68 209 216
3 69 68 216
3 69 216 226
3 69 226 231
3 72 69 231
3 72 231 238
3 79 72 238
3 79 238 240
3 87 79 240
3 87 240 246
3 92 87 246
3 92 246 252
3 96 92 252
3 96 252 255
3 98 96 255
3 98 255 261
3 102 98 261
3 102 261 265
3 105 102 265
3 105 265 271
3 109 105 271
3 109 271 276
3 112 109 276
3 112 276 281
3 115 112 281
3 115 281 286
3 117 115 286
3 117 286 290
3 121 117 290
3 121 290 296
3 123 121 296
3 123 296 299
3 127 123 299
3 127 299 303
3 132 127 303
3 132 303 308
3 137 132 308
3 137 308 313
3 143 137 313
3 143 313 317
3 146 143 317
3 146 317 320
3 151 146 320
3 151 320 325
3 154 151 325
3 154 325 328
3 157 154 328
3 157 328 331
3 160 157 331
3 160 331 334
3 163 160 334
3 163 334 336
3 164 163 336
3 164 336 343
3 166 164 343
3 166 343 346
3 170 166 346
3 170 346 354
3 173 170 354
3 172 356 354
3 172 354 173
3 171 348 356
3 171 356 172
3 168 342 348
3 168 348 171
3 168 342 341
3 167 168 341
3 189 341 167
3 55 189 167
3 56 55 189
3 56 189 190
3 63 61 202
3 63 202 206
3 66 63 206
3 66 206 215
3 70 66 215
3 70 215 227
3 73 70 227
3 73 227 234
3 88 73 234
3 88 234 241
3 94 88 241
3 94 241 250
3 100 94 250
3 100 250 258
3 100 258 266
3 106 100 266
3 106 266 275
3 111 106 275
3 111 275 285
3 118 111 285
3 118 285 295
3 124 118 295
3 124 295 306
3 136 124 306
3 136 306 318
3 148 136 318
3 148 318 332
3 159 148 332
3 159 332 366
3 179 159 366
3 179 366 376
3 212 179 376
3 212 376 401
3 237 212 401
3 237 401 415
3 249 237 415
3 249 415 424
3 262 249 424
3 262 424 435
3 272 262 435
3 272 435 445
3 283 272 445
3 283 445 457
3 294 283 457
3 294 457 470
3 304 294 470
3 304 470 476
3 314 304 476
3 314 476 484
3 326 314 484
3 326 484 497
3 339 326 497
3 339 497 518
3 365 339 518
3 365 518 535
3 373 365 535
3 373 535 546
3 379 373 546
3 379 546 555
3 392 379 555
3 392 555 561
3 397 392 561
3 397 561 565
3 403 397 565
3 403 565 569
3 408 403 569
3 407 568 569
3 407 569 408
3 201 568 407
3 60 201 407
3 61 60 201
3 61 201 202
3 538 537 674
3 538 674 677
3 541 538 677
3 541 677 681
3 545 541 681
3 545 681 683
3 551 545 683
3 551 683 685
3 558 551 685
3 558 685 690
3 567 558 690
3 567 690 693
3 573 567 693
3 573 693 699
3 579 573 699
3 579 699 703
3 579 703 707
3 584 579 707
3 584 707 713
3 591 584 713
3 591 713 718
3 596 591 718
3 596 718 724
3 609 596 724
3 609 724 730
3 620 609 730
3 620 730 736
3 629 620 736
3 629 736 744
3 642 629 744
3 642 744 751
3 664 642 751
3 664 751 760
3 668 664 760
3 668 760 773
3 679 668 773
3 679 773 778
3 689 679 778
3 689 778 786
3 697 689 786
3 697 786 790
3 704 697 790
3 704 790 796
3 711 704 796
3 711 796 804
3 717 711 804
3 717 804 812
3 722 717 812
3 722 812 814
3 728 722 814
3 728 814 817
3 732 728 817
3 732 817 819
3 737 732 819
3 737 819 821
3 741 737 821
3 741 821 823
3 745 741 823
3 745 823 825
3 750 745 825
3 750 825 827
3 754 750 827
3 754 827 830
3 757 754 830
3 757 830 834
3 759 757 834
3 759 834 836
3 762 759 836
3 762 836 842
3 765 762 842
3 765 842 841
3 764 765 841
3 673 841 764
3 536 673 764
3 537 536 673
3 537 673 674
3 50 85 84
3 49 50 84
3 49 84 868
3 809 49 868
3 810 809 868
3 810 868 869
3 85 869 810
3 50 85 810
3 505 508 358
3 351 505 358
