OFF
1536 1736 0
0.000 6.707 0.000
0.000 6.707 3.000
0.770 4.100 0.000
0.770 4.100 3.000
1.541 1.493 0.000
1.541 1.493 3.000
2.094 9.841 0.000
2.094 9.841 7.600
2.777 7.527 0.000
2.777 7.527 3.000
3.548 4.920 0.000
3.548 4.920 3.000
3.548 4.920 7.600
4.318 2.313 0.000
4.318 2.313 3.000
5.002 0.000 0.000
5.002 0.000 7.600
5.688 10.903 0.000
5.688 10.903 7.600
7.208 11.749 0.000
7.208 11.749 7.600
8.596 1.062 0.000
8.596 1.062 7.600
8.822 12.226 0.000
8.822 12.226 7.600
10.332 1.178 0.000
10.332 1.178 7.600
10.450 12.707 0.000
10.450 12.707 7.600
10.558 12.342 0.000
10.558 12.342 7.600
11.946 1.655 0.000
11.946 1.655 7.600
12.012 7.421 7.600
13.466 2.501 0.000
13.466 2.501 7.600
13.574 2.136 0.000
13.574 2.136 7.600
14.061 13.774 7.600
14.061 13.774 10.100
14.642 11.808 10.100
15.223 9.842 7.600
15.623 8.488 10.100
16.023 7.135 7.600
16.521 14.501 0.000
16.521 14.501 7.600
16.604 5.169 10.100
17.185 3.202 7.600
17.185 3.202 10.100
17.233 14.712 0.000
17.233 14.712 7.600
17.433 14.033 6.869
17.433 14.033 6.904
17.434 14.030 6.834
17.434 14.031 6.939
17.435 14.025 6.974
17.436 14.024 5.400
17.436 14.024 6.800
17.438 14.017 7.008
17.441 14.006 7.041
17.442 14.002 2.300
17.442 14.002 3.200
17.445 13.993 7.072
17.447 13.985 3.280
17.447 13.985 3.282
17.450 13.976 7.103
17.454 13.962 3.358
17.455 13.958 7.132
17.455 13.961 3.363
17.462 13.937 7.159
17.463 13.933 3.434
17.464 13.930 3.441
17.468 13.914 7.185
17.473 13.898 3.507
17.474 14.045 6.871
17.474 14.045 6.907
17.475 13.893 3.516
17.475 14.042 6.835
17.475 14.042 6.943
17.476 13.888 7.208
17.476 14.037 6.978
17.477 14.036 5.400
17.477 14.036 6.800
17.479 14.028 7.012
17.480 14.785 0.000
17.480 14.785 7.600
17.482 14.016 7.046
17.484 13.862 7.229
17.485 13.856 3.576
17.487 13.850 3.587
17.487 14.002 7.079
17.492 13.833 7.247
17.492 13.984 7.110
17.498 13.965 7.139
17.499 13.810 3.642
17.501 13.803 7.263
17.502 13.800 3.654
17.504 13.943 7.167
17.510 13.772 7.276
17.511 13.919 7.192
17.514 13.758 3.704
17.518 13.746 3.716
17.519 13.892 7.215
17.520 13.740 7.287
17.527 13.864 7.236
17.529 13.707 7.294
17.531 13.701 3.760
17.536 13.686 3.773
17.536 13.834 7.254
17.539 13.674 7.299
17.545 13.803 7.269
17.549 13.640 3.811
17.549 13.640 7.300
17.555 13.622 3.825
17.555 13.771 7.281
17.559 13.607 7.299
17.565 13.738 7.290
17.568 13.575 3.857
17.569 13.574 7.294
17.575 13.554 3.870
17.575 13.704 7.296
17.579 13.541 7.287
17.585 13.670 7.300
17.588 13.509 7.276
17.589 13.507 3.897
17.595 13.635 7.300
17.596 13.483 3.909
17.597 13.478 7.263
17.603 11.256 1.602
17.603 11.256 3.202
17.605 11.248 3.277
17.605 11.249 3.275
17.605 13.601 7.296
17.606 13.448 7.247
17.609 11.235 3.347
17.610 11.234 3.352
17.610 13.435 3.931
17.615 11.215 3.418
17.615 13.419 7.229
17.615 13.567 7.290
17.616 11.213 3.424
17.618 13.408 3.942
17.622 13.392 7.208
17.623 11.190 3.487
17.624 11.186 3.495
17.625 13.534 7.281
17.630 13.367 7.185
17.632 11.159 3.553
17.632 13.361 3.958
17.633 11.154 3.562
17.634 13.502 7.269
17.637 13.344 7.159
17.641 13.331 3.967
17.643 11.123 3.616
17.643 13.323 7.132
17.644 13.471 7.254
17.645 11.116 3.627
17.648 13.305 7.103
17.652 13.441 7.236
17.653 13.288 7.072
17.654 13.285 3.978
17.655 11.081 3.676
17.657 11.072 3.688
17.657 13.275 7.041
17.660 13.264 7.008
17.661 13.413 7.215
17.662 13.257 5.400
17.662 13.257 6.800
17.663 13.255 6.974
17.664 13.251 6.834
17.664 13.252 3.985
17.665 13.247 6.904
17.665 13.248 6.869
17.665 13.250 6.939
17.668 11.035 3.732
17.668 13.386 7.192
17.672 11.024 3.744
17.672 14.841 7.600
17.676 13.362 7.167
17.677 13.208 3.992
17.680 14.106 6.869
17.680 14.106 6.871
17.680 14.106 6.904
17.680 14.106 6.907
17.681 14.103 6.834
17.681 14.103 6.835
17.681 14.103 6.943
17.681 14.104 6.939
17.682 13.340 7.139
17.683 10.985 3.783
17.683 14.097 5.400
17.683 14.097 6.800
17.683 14.098 6.974
17.683 14.098 6.978
17.685 14.090 7.008
17.686 14.089 7.012
17.687 10.971 3.796
17.688 13.172 3.996
17.688 13.320 7.110
17.688 14.079 7.041
17.689 14.077 7.046
17.690 14.075 2.300
17.690 14.075 3.200
17.692 14.066 7.072
17.693 13.303 7.079
17.693 14.063 7.079
17.694 14.058 3.280
17.695 14.058 3.282
17.697 13.289 7.046
17.697 14.049 7.103
17.698 14.045 7.110
17.699 10.930 3.830
17.700 13.130 3.999
17.701 13.277 7.012
17.701 14.035 3.358
17.702 14.034 3.363
17.703 13.268 6.978
17.703 13.269 5.400
17.703 13.269 6.800
17.703 14.031 7.132
17.704 10.913 3.843
17.704 14.026 7.139
17.705 13.263 6.835
17.705 13.263 6.943
17.706 13.260 6.871
17.706 13.260 6.907
17.709 14.010 7.159
17.710 14.006 3.434
17.711 13.091 4.000
17.711 14.003 3.441
17.711 14.004 7.167
17.716 13.987 7.185
17.717 10.872 3.872
17.718 13.979 7.192
17.720 13.971 3.507
17.722 10.852 3.884
17.722 13.966 3.516
17.723 13.052 3.999
17.723 13.962 7.208
17.726 13.953 7.215
17.731 13.935 7.229
17.733 13.930 3.576
17.734 13.925 7.236
17.735 10.810 3.908
17.735 13.010 3.996
17.735 13.923 3.587
17.739 13.906 7.247
17.741 10.788 3.919
17.743 13.895 7.254
17.746 12.974 3.992
17.746 13.883 3.642
17.748 13.876 7.263
17.749 13.873 3.654
17.752 13.864 7.269
17.754 10.746 3.939
17.757 13.845 7.276
17.759 12.930 3.985
17.761 10.721 3.949
17.761 13.832 7.281
17.762 13.831 3.704
17.765 13.819 3.716
17.767 13.813 7.287
17.769 12.896 3.978
17.771 13.799 7.290
17.773 10.680 3.963
17.777 13.780 7.294
17.778 13.774 3.760
17.781 13.765 7.296
17.782 10.652 3.972
17.782 12.851 3.967
17.783 13.760 3.773
17.786 13.747 7.299
17.791 12.820 3.958
17.791 13.731 7.300
17.794 10.612 3.982
17.796 13.713 3.811
17.796 13.713 7.300
17.801 13.696 7.300
17.802 13.695 3.825
17.803 10.581 3.989
17.805 12.774 3.942
17.806 13.680 7.299
17.812 13.662 7.296
17.813 12.746 3.931
17.814 10.542 3.995
17.816 13.647 7.294
17.816 13.648 3.857
17.822 13.627 3.870
17.822 13.628 7.290
17.824 10.509 3.999
17.826 13.614 7.287
17.827 12.699 3.909
17.831 13.595 7.281
17.834 12.675 3.897
17.835 10.472 4.001
17.835 13.582 7.276
17.836 13.580 3.897
17.841 13.563 7.269
17.843 13.556 3.909
17.844 13.551 7.263
17.845 10.436 4.002
17.848 12.628 3.870
17.850 13.532 7.254
17.853 13.521 7.247
17.855 12.607 3.857
17.856 10.401 4.001
17.857 13.508 3.931
17.859 13.502 7.236
17.862 13.492 7.229
17.865 13.481 3.942
17.867 10.364 3.999
17.867 13.474 7.215
17.869 12.559 3.825
17.870 13.465 7.208
17.874 12.542 3.811
17.875 13.447 7.192
17.877 10.331 3.995
17.877 13.440 7.185
17.879 13.434 3.958
17.882 13.423 7.167
17.884 13.417 7.159
17.887 12.495 3.773
17.888 10.292 3.989
17.888 13.404 3.967
17.889 13.401 7.139
17.890 13.396 7.132
17.892 12.481 3.760
17.894 13.382 7.110
17.896 13.378 7.103
17.897 10.261 3.982
17.900 13.361 7.072
17.900 13.364 7.079
17.901 13.359 3.978
17.904 13.348 7.041
17.904 13.350 7.046
17.905 12.436 3.716
17.907 13.338 7.012
17.908 13.337 7.008
17.909 10.221 3.972
17.909 12.424 3.704
17.910 13.329 6.974
17.910 13.329 6.978
17.910 13.330 5.400
17.910 13.330 6.800
17.911 13.325 3.985
17.912 12.412 6.869
17.912 12.413 6.904
17.912 13.321 6.869
17.912 13.321 6.871
17.912 13.321 6.904
17.912 13.321 6.907
17.912 13.323 6.939
17.912 13.323 6.943
17.912 13.324 6.834
17.912 13.324 6.835
17.913 12.409 6.834
17.913 12.410 6.939
17.914 12.405 6.974
17.915 12.403 5.400
17.915 12.403 6.800
17.917 10.193 3.963
17.917 12.396 7.008
17.920 12.385 7.041
17.921 12.381 3.654
17.924 12.372 3.642
17.924 12.372 7.072
17.924 13.281 3.992
17.929 12.356 7.103
17.930 10.151 3.949
17.934 12.337 7.132
17.935 13.245 3.996
17.936 12.332 3.587
17.937 10.126 3.939
17.938 12.325 3.576
17.940 12.316 7.159
17.947 12.293 7.185
17.947 13.203 3.999
17.948 12.289 3.516
17.949 10.084 3.919
17.950 12.284 3.507
17.953 12.424 6.871
17.953 12.425 6.907
17.954 12.421 6.835
17.954 12.422 6.943
17.955 12.268 7.208
17.955 12.415 5.400
17.955 12.415 6.800
17.955 12.416 6.978
17.956 10.062 3.908
17.958 12.407 7.012
17.959 12.252 3.441
17.959 13.164 4.000
17.960 12.249 3.434
17.961 12.395 7.046
17.963 12.241 7.229
17.966 12.381 7.079
17.968 10.020 3.884
17.968 12.221 3.363
17.969 12.219 3.358
17.970 13.125 3.999
17.971 12.212 7.247
17.971 12.364 7.110
17.974 10.001 3.872
17.976 12.196 3.280
17.976 12.197 3.282
17.977 12.344 7.139
17.980 12.182 7.263
17.981 12.180 2.300
17.981 12.180 3.200
17.983 12.322 7.167
17.983 13.083 3.996
17.986 9.959 3.843
17.989 12.151 7.276
17.990 12.298 7.192
17.991 9.942 3.830
17.993 13.047 3.992
17.998 12.271 7.215
17.999 12.119 7.287
18.003 9.902 3.796
18.006 12.243 7.236
18.006 13.003 3.985
18.007 9.888 3.783
18.008 12.086 7.294
18.015 12.214 7.254
18.016 12.969 3.978
18.018 12.053 7.299
18.019 9.849 3.744
18.022 9.837 3.732
18.024 12.182 7.269
18.028 12.020 7.300
18.030 12.924 3.967
18.033 9.800 3.688
18.034 12.150 7.281
18.036 9.791 3.676
18.038 11.986 7.299
18.039 12.893 3.958
18.044 12.117 7.290
18.046 9.757 3.627
18.048 9.750 3.616
18.048 11.953 7.294
18.052 12.847 3.942
18.054 12.083 7.296
18.057 9.719 3.562
18.057 11.920 7.287
18.059 9.714 3.553
18.060 12.819 3.931
18.064 12.049 7.300
18.067 9.686 3.495
18.067 11.888 7.276
18.068 9.683 3.487
18.074 12.014 7.300
18.074 12.772 3.909
18.075 9.657 3.418
18.075 9.659 3.424
18.076 11.857 7.263
18.081 9.638 3.347
18.081 9.639 3.352
18.082 12.748 3.897
18.083 9.215 0.000
18.083 9.215 7.600
18.084 11.980 7.296
18.085 9.624 3.275
18.085 9.624 3.277
18.085 11.827 7.247
18.088 9.616 1.602
18.088 9.616 3.202
18.093 11.798 7.229
18.094 11.946 7.290
18.096 12.701 3.870
18.101 11.772 7.208
18.102 12.680 3.857
18.104 11.913 7.281
18.109 11.746 7.185
18.113 11.881 7.269
18.116 11.723 7.159
18.116 12.632 3.825
18.121 12.615 3.811
18.122 11.702 7.132
18.123 11.850 7.254
18.127 11.684 7.103
18.131 11.820 7.236
18.132 11.668 7.072
18.135 12.568 3.773
18.136 11.654 7.041
18.139 11.643 7.008
18.139 12.553 3.760
18.140 11.792 7.215
18.141 11.636 5.400
18.141 11.636 6.800
18.142 11.635 6.974
18.143 11.629 6.939
18.143 11.630 6.834
18.144 11.627 6.869
18.144 11.627 6.904
18.147 11.766 7.192
18.152 12.509 3.716
18.155 11.741 7.167
18.156 12.497 3.704
18.159 12.485 6.869
18.159 12.486 6.871
18.159 12.486 6.904
18.159 12.486 6.907
18.160 12.482 6.834
18.160 12.482 6.835
18.160 12.483 6.939
18.160 12.483 6.943
18.161 11.719 7.139
18.162 12.476 5.400
18.162 12.476 6.800
18.162 12.477 6.978
18.162 12.478 6.974
18.164 12.468 7.012
18.164 12.469 7.008
18.167 11.700 7.110
18.167 12.458 7.041
18.168 12.454 3.654
18.168 12.456 7.046
18.171 12.445 3.642
18.171 12.445 7.072
18.172 11.683 7.079
18.172 12.442 7.079
18.176 11.668 7.046
18.176 12.429 7.103
18.177 12.425 7.110
18.180 11.656 7.012
18.182 11.648 5.400
18.182 11.648 6.800
18.182 11.648 6.978
18.182 12.410 7.132
18.183 12.405 3.587
18.183 12.405 7.139
18.184 11.642 6.835
18.184 11.642 6.943
18.185 11.488 1.600
18.185 11.488 3.200
18.185 11.639 6.871
18.185 11.639 6.907
18.185 12.398 3.576
18.187 11.480 3.273
18.188 12.389 7.159
18.189 12.383 7.167
18.192 11.466 3.345
18.195 12.366 7.185
18.196 12.362 3.516
18.197 11.447 3.416
18.197 12.357 3.507
18.197 12.359 7.192
18.201 11.433 1.602
18.201 11.433 3.202
18.202 12.341 7.208
18.204 11.425 3.275
18.204 12.332 7.215
18.205 11.421 3.485
18.207 12.325 3.441
18.208 11.412 3.347
18.208 12.322 3.434
18.210 12.314 7.229
18.213 11.392 3.418
18.213 12.304 7.236
18.214 11.390 3.551
18.216 12.292 3.358
18.216 12.294 3.363
18.218 12.285 7.247
18.221 11.367 3.487
18.222 12.275 7.254
18.223 12.269 3.280
18.223 12.270 3.282
18.225 11.354 3.614
18.227 12.255 7.263
18.228 12.253 2.300
18.228 12.253 3.200
18.230 11.336 3.553
18.231 12.243 7.269
18.236 12.224 7.276
18.237 11.313 3.674
18.240 12.211 7.281
18.241 11.299 3.616
18.246 12.192 7.287
18.250 12.178 7.290
18.251 11.267 3.730
18.253 11.258 3.676
18.253 12.875 10.100
18.255 12.159 7.294
18.260 12.144 7.296
18.265 11.216 3.781
18.265 12.126 7.299
18.267 11.212 3.732
18.270 12.110 7.300
18.275 12.093 7.300
18.280 12.076 7.300
18.282 11.162 3.783
18.282 11.162 3.828
18.285 12.059 7.299
18.290 12.041 7.296
18.295 12.026 7.294
18.298 11.107 3.830
18.299 11.103 3.870
18.300 12.007 7.290
18.305 8.881 1.602
18.305 8.881 3.202
18.305 11.993 7.287
18.307 8.873 3.277
18.307 8.874 3.275
18.310 11.974 7.281
18.311 8.859 3.352
18.311 8.860 3.347
18.314 11.961 7.276
18.315 11.049 3.872
18.317 8.838 3.424
18.317 8.840 3.418
18.317 11.042 3.906
18.320 11.942 7.269
18.323 11.930 7.263
18.324 8.815 3.487
18.325 8.812 3.495
18.329 11.911 7.254
18.332 11.900 7.247
18.333 8.784 3.553
18.333 10.987 3.908
18.335 8.779 3.562
18.336 10.978 3.937
18.338 11.881 7.236
18.341 11.872 7.229
18.344 8.748 3.616
18.346 8.741 3.627
18.346 11.853 7.215
18.349 11.845 7.208
18.352 10.923 3.939
18.354 11.827 7.192
18.356 8.707 3.676
18.356 10.911 3.962
18.356 11.820 7.185
18.359 8.697 3.688
18.361 11.802 7.167
18.363 11.796 7.159
18.368 11.780 7.139
18.369 11.775 7.132
18.370 8.660 3.732
18.372 10.857 3.963
18.373 8.649 3.744
18.373 11.761 7.110
18.374 11.757 7.103
18.376 10.843 3.980
18.378 11.744 7.079
18.379 11.741 7.072
18.383 11.727 7.041
18.383 11.729 7.046
18.385 8.610 3.783
18.386 11.717 7.012
18.387 11.716 7.008
18.389 8.596 3.796
18.389 11.708 6.974
18.389 11.709 5.400
18.389 11.709 6.800
18.389 11.709 6.978
18.390 11.703 6.834
18.390 11.703 6.835
18.390 11.703 6.943
18.391 11.700 6.869
18.391 11.700 6.871
18.391 11.700 6.904
18.391 11.700 6.907
18.391 11.702 6.939
18.392 10.788 3.982
18.396 10.773 3.993
18.401 8.555 3.830
18.406 8.539 3.843
18.412 10.719 3.995
18.417 10.703 3.999
18.418 8.497 3.872
18.424 8.478 3.884
18.432 11.561 0.000
18.432 11.561 1.250
18.432 11.561 1.600
18.432 11.561 3.200
18.433 10.648 4.001
18.435 11.553 3.273
18.435 11.553 3.275
18.436 8.436 3.908
18.438 10.632 3.999
18.439 11.538 3.350
18.439 11.539 3.345
18.443 8.413 3.919
18.445 11.518 3.422
18.445 11.520 3.416
18.452 11.494 3.485
18.453 11.491 3.493
18.454 10.578 4.001
18.455 8.372 3.939
18.459 10.562 3.993
18.461 11.463 3.551
18.463 8.346 3.949
18.463 11.458 3.561
18.472 11.427 3.614
18.474 11.420 3.625
18.475 8.305 3.963
18.475 10.507 3.995
18.479 10.492 3.980
18.483 8.277 3.972
18.484 11.386 3.674
18.487 11.377 3.686
18.495 8.237 3.982
18.495 10.438 3.982
18.498 11.340 3.730
18.499 10.424 3.962
18.501 11.328 3.742
18.504 8.206 3.989
18.513 11.289 3.781
18.516 8.167 3.995
18.516 10.370 3.963
18.517 11.275 3.794
18.519 10.358 3.937
18.526 8.134 3.999
18.529 11.235 3.828
18.534 11.218 3.841
18.535 10.303 3.939
18.537 8.097 4.001
18.538 10.293 3.906
18.546 11.176 3.870
18.547 8.061 4.002
18.552 11.157 3.882
18.554 10.239 3.908
18.556 10.232 3.870
18.557 8.026 4.001
18.564 11.115 3.906
18.568 7.989 3.999
18.571 11.093 3.917
18.572 10.177 3.872
18.573 10.174 3.828
18.578 7.956 3.995
18.583 11.051 3.937
18.590 7.917 3.989
18.590 10.119 3.781
18.590 10.119 3.830
18.591 11.026 3.947
18.599 7.886 3.982
18.603 10.984 3.962
18.604 10.069 3.730
18.606 10.065 3.783
18.611 7.846 3.972
18.611 10.956 3.970
18.618 10.023 3.674
18.619 7.818 3.963
18.621 10.014 3.732
18.623 10.916 3.980
18.630 9.981 3.614
18.631 7.777 3.949
18.632 10.885 3.987
18.634 9.968 3.676
18.639 7.751 3.939
18.641 9.945 3.551
18.643 10.846 3.993
18.646 9.927 3.616
18.650 9.914 3.485
18.651 7.710 3.919
18.653 10.813 3.997
18.657 9.890 3.553
18.658 7.687 3.908
18.658 9.889 3.416
18.663 9.869 3.345
18.664 10.776 3.999
18.666 9.859 3.487
18.667 9.855 3.273
18.670 7.645 3.884
18.670 9.848 1.600
18.670 9.848 3.200
18.674 9.834 3.418
18.675 10.741 4.000
18.676 7.626 3.872
18.680 9.815 3.347
18.684 9.801 3.275
18.685 10.705 3.999
18.686 9.793 1.602
18.686 9.793 3.202
18.688 7.584 3.843
18.693 7.568 3.830
18.696 10.668 3.997
18.705 7.527 3.796
18.706 10.635 3.993
18.709 7.513 3.783
18.717 10.596 3.987
18.720 11.646 0.000
18.720 11.646 1.000
18.720 11.646 1.250
18.721 7.474 3.744
18.724 7.463 3.732
18.726 10.565 3.980
18.735 7.426 3.688
18.738 7.416 3.676
18.738 10.525 3.970
18.747 10.497 3.962
18.748 7.382 3.627
18.750 7.375 3.616
18.759 7.344 3.562
18.759 10.456 3.947
18.760 7.339 3.553
18.766 10.431 3.937
18.769 7.311 3.495
18.770 7.308 3.487
18.777 7.283 3.418
18.777 7.285 3.424
18.779 10.389 3.917
18.783 7.263 3.347
18.783 7.264 3.352
18.785 10.366 3.906
18.787 7.249 3.275
18.787 7.250 3.277
18.789 7.241 1.602
18.789 7.241 3.202
18.794 9.426 0.000
18.794 9.426 7.600
18.798 10.325 3.882
18.803 10.305 3.870
18.816 10.264 3.841
18.821 10.247 3.828
18.833 10.206 3.794
18.833 10.909 7.600
18.837 10.192 3.781
18.848 10.153 3.742
18.852 10.142 3.730
18.863 10.105 3.686
18.865 10.096 3.674
18.875 10.061 3.625
18.877 10.054 3.614
18.887 10.023 3.561
18.888 10.018 3.551
18.896 9.990 3.493
18.897 9.987 3.485
18.903 9.058 1.602
18.903 9.058 3.202
18.904 9.964 3.422
18.905 9.051 3.275
18.905 9.962 3.416
18.909 9.037 3.347
18.910 9.943 3.350
18.911 9.942 3.345
18.915 9.017 3.418
18.915 9.928 3.273
18.915 9.929 3.275
18.917 9.921 0.000
18.917 9.921 1.250
18.917 9.921 1.600
18.917 9.921 3.200
18.919 9.004 1.600
18.919 9.004 3.200
18.921 8.996 3.273
18.923 8.992 3.487
18.925 8.982 3.345
18.931 8.963 3.416
18.932 8.961 3.553
18.939 8.937 3.485
18.942 8.925 3.616
18.948 8.906 3.551
18.955 8.883 3.676
18.959 8.870 3.614
18.968 8.837 3.732
18.971 8.829 3.674
18.983 8.787 3.783
18.984 8.783 3.730
18.999 8.732 3.781
18.999 8.732 3.830
19.008 11.731 0.000
19.008 11.731 0.750
19.008 11.731 1.000
19.015 8.678 3.828
19.017 8.674 3.872
19.033 8.619 3.870
19.035 8.612 3.908
19.042 9.499 0.000
19.042 9.499 7.600
19.051 8.558 3.906
19.054 8.548 3.939
19.070 8.494 3.937
19.073 8.482 3.963
19.089 8.427 3.962
19.093 8.414 3.982
19.110 8.359 3.980
19.114 8.344 3.995
19.130 8.289 3.993
19.135 8.274 4.001
19.151 8.219 3.999
19.156 8.203 4.001
19.166 9.077 0.000
19.166 9.077 1.250
19.166 9.077 1.600
19.166 9.077 3.200
19.169 9.069 3.273
19.169 9.069 3.275
19.172 8.148 3.999
19.173 9.054 3.350
19.173 9.055 3.345
19.176 8.133 3.995
19.178 9.036 3.416
19.179 9.034 3.422
19.186 9.010 3.485
19.187 9.007 3.493
19.193 8.078 3.993
19.195 8.979 3.551
19.197 8.063 3.982
19.197 8.974 3.561
19.205 10.006 0.000
19.205 10.006 1.000
19.205 10.006 1.250
19.206 8.943 3.614
19.208 8.936 3.625
19.213 8.008 3.980
19.217 7.995 3.963
19.218 8.902 3.674
19.221 8.893 3.686
19.232 8.856 3.730
19.233 7.940 3.962
19.233 9.555 7.600
19.235 8.844 3.742
19.237 7.928 3.939
19.247 8.805 3.781
19.251 8.791 3.794
19.253 7.874 3.937
19.256 7.864 3.908
19.263 8.751 3.828
19.268 8.734 3.841
19.272 7.810 3.906
19.274 7.803 3.872
19.280 8.692 3.870
19.286 8.673 3.882
19.290 7.748 3.870
19.291 7.744 3.830
19.296 11.816 0.000
19.296 11.816 0.500
19.296 11.816 0.750
19.298 8.631 3.906
19.305 8.609 3.917
19.307 7.690 3.783
19.307 7.690 3.828
19.317 8.567 3.937
19.322 7.639 3.732
19.323 7.635 3.781
19.324 8.542 3.947
19.336 7.593 3.676
19.337 8.500 3.962
19.338 7.585 3.730
19.345 8.472 3.970
19.348 7.552 3.616
19.352 7.539 3.674
19.357 8.432 3.980
19.359 7.516 3.553
19.364 7.497 3.614
19.366 8.401 3.987
19.368 7.485 3.487
19.375 7.459 3.418
19.375 7.461 3.551
19.377 8.362 3.993
19.381 7.440 3.347
19.384 7.430 3.485
19.385 7.426 3.275
19.387 8.329 3.997
19.388 7.418 1.602
19.388 7.418 3.202
19.392 7.405 3.416
19.397 7.385 3.345
19.398 8.292 3.999
19.401 7.371 3.273
19.404 7.364 1.600
19.404 7.364 3.200
19.409 8.257 4.000
19.419 8.221 3.999
19.430 8.184 3.997
19.440 8.151 3.993
19.445 7.222 6.939
19.445 7.224 6.869
19.445 7.225 6.904
19.446 7.221 6.834
19.447 7.215 5.400
19.447 7.215 6.800
19.447 7.217 6.974
19.449 7.208 7.008
19.451 8.112 3.987
19.453 7.197 7.041
19.454 9.162 0.000
19.454 9.162 1.000
19.454 9.162 1.250
19.457 7.184 7.072
19.460 8.081 3.980
19.462 7.168 7.103
19.467 7.149 7.132
19.472 8.041 3.970
19.473 7.128 7.159
19.480 7.105 7.185
19.481 8.013 3.962
19.485 7.237 6.907
19.486 7.233 6.835
19.486 7.234 6.943
19.486 7.236 6.871
19.488 7.080 7.208
19.488 7.227 5.400
19.488 7.227 6.800
19.488 7.228 6.978
19.491 7.219 7.012
19.492 10.091 0.000
19.492 10.091 0.750
19.492 10.091 1.000
19.493 7.972 3.947
19.494 7.207 7.046
19.495 7.053 7.229
19.498 7.193 7.079
19.500 7.947 3.937
19.504 7.024 7.247
19.504 7.176 7.110
19.509 7.156 7.139
19.513 6.994 7.263
19.513 7.905 3.917
19.516 7.134 7.167
19.519 7.883 3.906
19.522 6.963 7.276
19.523 7.110 7.192
19.531 6.931 7.287
19.531 7.083 7.215
19.532 7.841 3.882
19.537 7.821 3.870
19.539 7.055 7.236
19.541 6.898 7.294
19.548 7.026 7.254
19.550 7.780 3.841
19.551 6.865 7.299
19.555 7.763 3.828
19.557 6.994 7.269
19.561 6.832 7.300
19.566 7.722 3.794
19.567 6.962 7.281
19.571 6.798 7.299
19.571 7.708 3.781
19.576 6.929 7.290
19.581 6.765 7.294
19.582 7.669 3.742
19.583 11.901 0.000
19.583 11.901 0.250
19.583 11.901 0.500
19.586 6.895 7.296
19.586 7.658 3.730
19.590 6.732 7.287
19.596 6.861 7.300
19.596 7.621 3.686
19.599 7.612 3.674
19.600 6.700 7.276
19.607 6.826 7.300
19.608 6.672 2.300
19.608 6.672 3.200
19.609 6.669 7.263
19.609 7.577 3.625
19.611 7.570 3.614
19.613 6.654 3.282
19.613 6.655 3.280
19.617 6.792 7.296
19.618 6.639 7.247
19.620 6.630 3.363
19.620 6.632 3.358
19.621 7.539 3.561
19.622 7.534 3.551
19.626 6.610 7.229
19.627 6.758 7.290
19.629 6.600 3.441
19.629 6.603 3.434
19.630 7.506 3.493
19.631 7.503 3.485
19.633 8.201 7.600
19.634 6.584 7.208
19.637 6.725 7.281
19.638 7.480 3.422
19.639 6.567 3.507
19.639 7.478 3.416
19.640 6.562 3.516
19.642 6.559 7.185
19.644 3.929 0.000
19.644 3.929 7.600
19.644 7.459 3.350
19.645 7.458 3.345
19.646 6.693 7.269
19.648 6.535 7.159
19.649 7.444 3.273
19.649 7.445 3.275
19.651 6.526 3.576
19.651 7.437 0.000
19.651 7.437 1.250
19.651 7.437 1.600
19.651 7.437 3.200
19.653 6.519 3.587
19.655 6.514 7.132
19.655 6.662 7.254
19.660 6.496 7.103
19.664 6.632 7.236
19.665 6.479 3.642
19.665 6.480 7.072
19.668 6.470 3.654
19.669 6.466 7.041
19.672 6.455 7.008
19.672 6.604 7.215
19.674 6.448 5.400
19.674 6.448 6.800
19.675 6.447 6.974
19.676 6.441 6.939
19.676 6.442 6.834
19.677 6.439 6.869
19.677 6.439 6.904
19.680 6.427 3.704
19.680 6.578 7.192
19.684 6.416 3.716
19.687 6.553 7.167
19.692 7.297 6.869
19.692 7.298 6.871
19.692 7.298 6.904
19.692 7.298 6.907
19.693 7.294 6.834
19.693 7.294 6.835
19.693 7.295 6.939
19.693 7.295 6.943
19.694 6.531 7.139
19.694 7.290 6.974
19.695 7.288 5.400
19.695 7.288 6.800
19.695 7.289 6.978
19.697 6.371 3.760
19.697 7.280 7.012
19.697 7.281 7.008
19.700 6.512 7.110
19.700 7.270 7.041
19.701 6.356 3.773
19.701 7.268 7.046
19.704 7.257 7.072
19.705 6.495 7.079
19.705 7.254 7.079
19.709 6.480 7.046
19.709 7.241 7.103
19.710 7.237 7.110
19.712 6.468 7.012
19.714 7.222 7.132
19.715 6.310 3.811
19.715 6.460 5.400
19.715 6.460 6.800
19.715 6.460 6.978
19.716 7.217 7.139
19.717 6.454 6.835
19.717 6.454 6.943
19.718 6.451 6.871
19.718 6.451 6.907
19.720 6.292 3.825
19.721 7.201 7.159
19.722 7.195 7.167
19.727 7.178 7.185
19.729 7.171 7.192
19.734 6.245 3.857
19.735 7.153 7.208
19.737 7.144 7.215
19.740 6.224 3.870
19.742 9.247 0.000
19.742 9.247 0.750
19.742 9.247 1.000
19.743 7.126 7.229
19.746 7.116 7.236
19.751 7.097 7.247
19.754 6.176 3.897
19.754 7.087 7.254
19.760 7.067 7.263
19.762 6.152 3.909
19.764 7.055 7.269
19.769 7.036 7.276
19.773 7.023 7.281
19.776 6.105 3.931
19.779 7.004 7.287
19.780 10.176 0.000
19.780 10.176 0.500
19.780 10.176 0.750
19.783 6.990 7.290
19.784 6.077 3.942
19.788 6.971 7.294
19.793 6.956 7.296
19.797 6.031 3.958
19.798 6.938 7.299
19.803 6.922 7.300
19.806 6.000 3.967
19.808 6.905 7.300
19.813 6.888 7.300
19.818 6.871 7.299
19.820 5.955 3.978
19.823 6.853 7.296
19.828 6.838 7.294
19.830 5.921 3.985
19.833 6.819 7.290
19.837 6.805 7.287
19.843 5.878 3.992
19.843 6.786 7.281
19.847 6.773 7.276
19.853 5.841 3.996
19.853 6.754 7.269
19.855 6.745 2.300
19.855 6.745 3.200
19.856 6.742 7.263
19.860 6.727 3.282
19.860 6.728 3.280
19.862 6.723 7.254
19.865 6.712 7.247
19.866 5.800 3.999
19.867 6.705 3.358
19.868 6.703 3.363
19.871 6.693 7.236
19.871 11.986 0.000
19.871 11.986 0.250
19.873 6.684 7.229
19.876 6.676 3.434
19.877 5.760 4.000
19.877 6.673 3.441
19.879 6.665 7.215
19.881 6.657 7.208
19.886 6.640 3.507
19.887 6.639 7.192
19.888 6.635 3.516
19.889 5.721 3.999
19.889 6.632 7.185
19.894 6.614 7.167
19.896 6.608 7.159
19.898 6.599 3.576
19.900 6.592 3.587
19.900 6.592 7.139
19.901 5.680 3.996
19.902 6.587 7.132
19.906 6.573 7.110
19.907 6.569 7.103
19.911 6.556 7.079
19.912 5.643 3.992
19.912 6.552 3.642
19.912 6.553 7.072
19.915 6.541 7.046
19.915 6.543 3.654
19.916 6.539 7.041
19.919 6.528 7.008
19.919 6.529 7.012
19.921 6.521 5.400
19.921 6.521 6.800
19.922 6.520 6.974
19.922 6.521 6.978
19.923 6.514 6.939
19.923 6.515 6.834
19.923 6.515 6.835
19.923 6.515 6.943
19.924 5.601 6.939
19.924 5.604 6.869
19.924 5.604 6.904
19.924 6.512 6.869
19.924 6.512 6.871
19.924 6.512 6.904
19.924 6.512 6.907
19.925 5.599 3.985
19.925 5.600 6.834
19.926 5.595 5.400
19.926 5.595 6.800
19.926 5.596 6.974
19.927 6.501 3.704
19.928 5.588 7.008
19.931 6.489 3.716
19.932 5.577 7.041
19.935 5.566 3.978
19.936 5.563 7.072
19.939 7.522 0.000
19.939 7.522 1.000
19.939 7.522 1.250
19.940 5.547 7.103
19.944 6.444 3.760
19.946 5.528 7.132
19.948 5.521 3.967
19.949 6.429 3.773
19.952 5.507 7.159
19.957 5.490 3.958
19.959 5.484 7.185
19.962 6.383 3.811
19.964 5.616 6.871
19.964 5.616 6.907
19.965 5.613 6.835
19.965 5.613 6.943
19.966 5.459 7.208
19.967 5.607 5.400
19.967 5.607 6.800
19.967 5.607 6.978
19.968 6.365 3.825
19.970 5.598 7.012
19.971 5.443 3.942
19.973 5.587 7.046
19.974 5.432 7.229
19.977 5.572 7.079
19.979 5.416 3.931
19.981 6.318 3.857
19.982 5.555 7.110
19.983 5.404 7.247
19.988 5.535 7.139
19.988 6.297 3.870
19.992 5.374 7.263
19.993 5.369 3.909
19.995 5.513 7.167
20.000 5.345 3.897
20.001 5.343 7.276
20.002 5.489 7.192
20.002 6.249 3.897
20.009 6.225 3.909
20.010 5.310 7.287
20.010 5.463 7.215
20.014 5.297 3.870
20.018 5.435 7.236
20.020 5.276 3.857
20.020 5.278 7.294
20.023 6.178 3.931
20.027 5.405 7.254
20.029 9.332 0.000
20.029 9.332 0.500
20.029 9.332 0.750
20.030 5.244 7.299
20.031 6.150 3.942
20.034 5.229 3.825
20.036 5.374 7.269
20.040 5.211 3.811
20.040 5.211 7.300
20.045 5.341 7.281
20.045 6.104 3.958
20.050 5.177 7.299
20.053 5.165 3.773
20.054 6.073 3.967
20.055 5.308 7.290
20.058 5.150 3.760
20.059 5.144 7.294
20.065 5.274 7.296
20.067 6.028 3.978
20.068 10.261 0.000
20.068 10.261 0.250
20.068 10.261 0.500
20.069 5.111 7.287
20.071 5.105 3.716
20.074 5.093 3.704
20.075 5.240 7.300
20.077 5.994 3.985
20.079 5.079 7.276
20.085 5.206 7.300
20.087 5.051 3.654
20.088 5.048 7.263
20.090 5.042 3.642
20.090 5.951 3.992
20.096 5.171 7.296
20.097 5.018 7.247
20.101 5.002 3.587
20.101 5.914 3.996
20.104 4.995 3.576
20.105 4.990 7.229
20.106 5.138 7.290
20.113 4.963 7.208
20.113 5.873 3.999
20.114 4.959 3.516
20.115 5.105 7.281
20.116 4.954 3.507
20.120 4.938 7.185
20.125 4.921 3.441
20.125 5.072 7.269
20.125 5.833 4.000
20.126 4.918 3.434
20.127 4.915 7.159
20.133 4.894 7.132
20.134 4.891 3.363
20.134 5.041 7.254
20.135 4.889 3.358
20.136 5.794 3.999
20.139 4.875 7.103
20.141 4.867 3.282
20.142 4.866 3.280
20.143 5.011 7.236
20.144 4.859 7.072
20.147 4.849 2.300
20.147 4.849 3.200
20.148 4.845 7.041
20.148 5.753 3.996
20.151 4.834 7.008
20.151 4.983 7.215
20.153 4.826 6.974
20.153 4.827 5.400
20.153 4.827 6.800
20.155 4.820 6.939
20.155 4.821 6.834
20.156 4.818 6.869
20.156 4.818 6.904
20.159 4.957 7.192
20.159 5.716 3.992
20.166 4.933 7.167
20.171 5.677 6.869
20.171 5.677 6.871
20.171 5.677 6.904
20.171 5.677 6.907
20.172 5.673 3.985
20.172 5.673 6.834
20.172 5.674 6.835
20.172 5.674 6.939
20.172 5.674 6.943
20.173 4.911 7.139
20.173 5.668 6.978
20.173 5.669 6.974
20.174 5.668 5.400
20.174 5.668 6.800
20.176 5.659 7.012
20.176 5.661 7.008
20.179 4.891 7.110
20.179 5.648 7.046
20.179 5.650 7.041
20.182 5.639 3.978
20.183 5.636 7.072
20.184 4.874 7.079
20.184 5.633 7.079
20.188 4.859 7.046
20.188 5.620 7.103
20.189 5.616 7.110
20.191 4.848 7.012
20.193 5.601 7.132
20.194 4.839 5.400
20.194 4.839 6.800
20.194 4.839 6.978
20.195 5.594 3.967
20.195 5.596 7.139
20.196 4.830 6.871
20.196 4.830 6.907
20.196 4.833 6.835
20.196 4.833 6.943
20.199 5.580 7.159
20.201 5.574 7.167
20.204 5.563 3.958
20.206 5.557 7.185
20.208 5.550 7.192
20.214 5.532 7.208
20.214 6.235 10.100
20.216 5.524 7.215
20.218 5.516 3.942
20.222 5.505 7.229
20.224 5.496 7.236
20.226 5.489 3.931
20.226 7.607 0.000
20.226 7.607 0.750
20.226 7.607 1.000
20.230 5.477 7.247
20.233 5.466 7.254
20.239 5.447 7.263
20.240 5.442 3.909
20.242 5.435 7.269
20.247 5.418 3.897
20.248 5.416 7.276
20.252 5.402 7.281
20.257 5.384 7.287
20.261 5.370 3.870
20.262 5.369 7.290
20.267 5.351 7.294
20.268 5.349 3.857
20.272 5.335 7.296
20.277 5.317 7.299
20.282 5.301 7.300
20.282 5.302 3.825
20.287 5.284 3.811
20.287 5.284 7.300
20.292 5.267 7.300
20.297 5.250 7.299
20.301 5.238 3.773
20.302 5.233 7.296
20.305 5.223 3.760
20.307 5.217 7.294
20.312 5.199 7.290
20.316 5.184 7.287
20.317 9.417 0.000
20.317 9.417 0.250
20.317 9.417 0.500
20.318 5.178 3.716
20.322 5.166 3.704
20.322 5.166 7.281
20.326 5.152 7.276
20.331 5.133 7.269
20.334 5.124 3.654
20.335 5.121 7.263
20.337 5.115 3.642
20.341 5.102 7.254
20.344 5.091 7.247
20.349 5.072 7.236
20.349 5.075 3.587
20.351 5.068 3.576
20.352 5.063 7.229
20.356 4.140 0.000
20.356 4.140 7.600
20.356 10.346 0.000
20.356 10.346 0.250
20.358 5.044 7.215
20.360 5.036 7.208
20.361 5.032 3.516
20.363 5.027 3.507
20.365 5.018 7.192
20.368 5.011 7.185
20.372 4.994 3.441
20.373 4.991 3.434
20.373 4.994 7.167
20.374 4.988 7.159
20.379 4.972 7.139
20.381 4.967 7.132
20.382 4.962 3.358
20.382 4.964 3.363
20.385 4.952 7.110
20.386 4.948 7.103
20.389 4.939 3.280
20.389 4.940 3.282
20.390 4.935 7.079
20.391 4.932 7.072
20.394 4.920 7.046
20.394 4.922 2.300
20.394 4.922 3.200
20.395 4.918 7.041
20.398 4.907 7.008
20.398 4.909 7.012
20.400 4.900 5.400
20.400 4.900 6.800
20.400 4.900 6.978
20.401 4.899 6.974
20.402 4.894 6.834
20.402 4.894 6.835
20.402 4.894 6.939
20.402 4.894 6.943
20.403 4.891 6.869
20.403 4.891 6.871
20.403 4.891 6.904
20.403 4.891 6.907
20.514 7.692 0.000
20.514 7.692 0.500
20.514 7.692 0.750
20.603 4.213 0.000
20.603 4.213 7.600
20.605 9.502 0.000
20.605 9.502 0.250
20.795 4.269 7.600
20.802 7.777 0.000
20.802 7.777 0.250
20.802 7.777 0.500
21.089 7.862 0.000
21.089 7.862 0.250
3 10 13 4
3 2 10 4
3 15 10 458
3 21 15 458
3 25 21 458
3 31 25 458
3 34 31 458
3 36 34 458
3 1071 36 458
3 458 868 1526
3 1071 458 1526
3 15 10 458
3 21 15 458
3 25 21 458
3 31 25 458
3 34 31 458
3 36 34 458
3 1071 36 458
3 12 10 15
3 16 12 15
3 22 16 15
3 22 15 21
3 26 22 21
3 26 21 25
3 32 26 25
3 32 25 31
3 35 32 31
3 35 31 34
3 35 34 36
3 37 35 36
3 1072 37 36
3 1072 36 1071
3 459 1072 1071
3 459 1071 458
3 459 458 10
3 12 459 10
3 16 12 459
3 22 16 459
3 26 22 459
3 32 26 459
3 35 32 459
3 37 35 459
3 1072 37 459
3 459 869 1527
3 1072 459 1527
3 806 808 807
3 806 807 598
3 599 601 604
3 599 604 608
3 599 608 614
3 599 614 619
3 599 619 624
3 599 624 632
3 599 632 639
3 599 639 650
3 599 650 666
3 599 666 670
3 599 670 682
3 599 682 691
3 599 691 698
3 599 698 706
3 599 706 712
3 599 712 719
3 599 719 725
3 599 725 731
3 599 731 739
3 599 739 746
3 599 746 754
3 599 754 763
3 599 763 774
3 599 774 777
3 599 777 784
3 599 784 787
3 599 787 791
3 599 791 793
3 599 793 797
3 599 797 800
3 599 800 803
3 599 803 806
3 599 806 598
3 1369 1370 1365
3 1044 1369 1365
3 1053 1049 1045
3 1059 1053 1045
3 1069 1059 1045
3 1084 1069 1045
3 1091 1084 1045
3 1104 1091 1045
3 1124 1104 1045
3 1143 1124 1045
3 1151 1143 1045
3 1161 1151 1045
3 1171 1161 1045
3 1177 1171 1045
3 1184 1177 1045
3 1190 1184 1045
3 1207 1190 1045
3 1221 1207 1045
3 1249 1221 1045
3 1266 1249 1045
3 1282 1266 1045
3 1293 1282 1045
3 1302 1293 1045
3 1313 1302 1045
3 1320 1313 1045
3 1331 1320 1045
3 1337 1331 1045
3 1343 1337 1045
3 1350 1343 1045
3 1354 1350 1045
3 1360 1354 1045
3 1365 1360 1045
3 1044 1365 1045
3 1528 1534 1531
3 1464 1528 1531
3 1464 1531 1523
3 1308 1464 1523
3 1308 1523 1434
3 1152 1308 1434
3 1152 1434 1260
3 977 1152 1260
3 977 1260 1080
3 882 977 1080
3 1530 37 48
3 911 33 42
3 10 13 4
3 2 10 4
3 11 14 13
3 11 13 10
3 11 10 2
3 3 11 2
3 3 2 4
3 5 3 4
3 14 5 4
3 14 4 13
3 11 14 5
3 3 11 5
3 1481 1071 1072
3 1482 1481 1072
3 809 458 459
3 810 809 459
3 1528 1534 1531
3 1464 1528 1531
3 1529 1535 1534
3 1529 1534 1528
3 1529 1528 1464
3 1465 1529 1464
3 1465 1464 1531
3 1532 1465 1531
3 1535 1532 1531
3 1535 1531 1534
3 1529 1535 1532
3 1465 1529 1532
3 1464 1531 1523
3 1308 1464 1523
3 1466 1533 1531
3 1466 1531 1464
3 1466 1464 1308
3 1309 1466 1308
3 1309 1308 1523
3 1524 1309 1523
3 1533 1524 1523
3 1533 1523 1531
3 1466 1533 1524
3 1309 1466 1524
3 1308 1523 1434
3 1152 1308 1434
3 1310 1525 1523
3 1310 1523 1308
3 1310 1308 1152
3 1153 1310 1152
3 1153 1152 1434
3 1435 1153 1434
3 1525 1435 1434
3 1525 1434 1523
3 1310 1525 1435
3 1153 1310 1435
3 1152 1434 1260
3 977 1152 1260
3 1154 1436 1434
3 1154 1434 1152
3 1154 1152 977
3 978 1154 977
3 978 977 1260
3 1261 978 1260
3 1436 1261 1260
3 1436 1260 1434
3 1154 1436 1261
3 978 1154 1261
3 977 1260 1080
3 882 977 1080
3 979 1262 1260
3 979 1260 977
3 979 977 882
3 883 979 882
3 883 882 1080
3 1081 883 1080
3 1262 1081 1080
3 1262 1080 1260
3 979 1262 1081
3 883 979 1081
3 911 33 42
3 809 458 459
3 810 809 459
3 1063 1530 1428
3 1414 1413 1277
3 1278 1274 1272
3 1278 1272 1273
3 1278 1273 1275
3 1278 1275 1279
3 1278 1279 1281
3 1278 1281 1283
3 1278 1283 1285
3 1278 1285 1288
3 1278 1288 1290
3 1278 1290 1294
3 1278 1294 1297
3 1278 1297 1301
3 1278 1301 1303
3 1278 1303 1307
3 1278 1307 1314
3 1278 1314 1317
3 1278 1317 1322
3 1278 1322 1325
3 1278 1325 1333
3 1278 1333 1336
3 1278 1336 1341
3 1278 1341 1347
3 1278 1347 1351
3 1278 1351 1355
3 1278 1355 1361
3 1278 1361 1367
3 1278 1367 1374
3 1278 1374 1382
3 1278 1382 1384
3 1278 1384 1394
3 1278 1394 1401
3 1278 1401 1406
3 1278 1406 1408
3 1278 1408 1411
3 1278 1411 1415
3 1278 1415 1421
3 1278 1421 1419
3 1278 1419 1418
3 1278 1418 1420
3 1278 1420 1414
3 1278 1414 1277
3 1136 1135 993
3 994 989 991
3 994 991 988
3 994 988 990
3 994 990 995
3 994 995 996
3 994 996 1001
3 994 1001 1003
3 994 1003 1006
3 994 1006 1007
3 994 1007 1010
3 994 1010 1013
3 994 1013 1015
3 994 1015 1018
3 994 1018 1020
3 994 1020 1024
3 994 1024 1027
3 994 1027 1030
3 994 1030 1036
3 994 1036 1039
3 994 1039 1043
3 994 1043 1051
3 994 1051 1058
3 994 1058 1065
3 994 1065 1075
3 994 1075 1086
3 994 1086 1088
3 994 1088 1094
3 994 1094 1103
3 994 1103 1105
3 994 1105 1114
3 994 1114 1122
3 994 1122 1127
3 994 1127 1129
3 994 1129 1132
3 994 1132 1137
3 994 1137 1140
3 994 1140 1142
3 994 1142 1141
3 994 1141 1139
3 994 1139 1136
3 994 1136 993
3 1116 1234 1235
3 1107 1111 1117
3 1109 1107 1117
3 1113 1109 1117
3 1118 1113 1117
3 1120 1118 1117
3 1125 1120 1117
3 1128 1125 1117
3 1131 1128 1117
3 1138 1131 1117
3 1145 1138 1117
3 1147 1145 1117
3 1150 1147 1117
3 1156 1150 1117
3 1159 1156 1117
3 1162 1159 1117
3 1164 1162 1117
3 1170 1164 1117
3 1173 1170 1117
3 1176 1173 1117
3 1179 1176 1117
3 1182 1179 1117
3 1185 1182 1117
3 1188 1185 1117
3 1191 1188 1117
3 1197 1191 1117
3 1202 1197 1117
3 1209 1202 1117
3 1212 1209 1117
3 1216 1212 1117
3 1220 1216 1117
3 1223 1220 1117
3 1225 1223 1117
3 1229 1225 1117
3 1233 1229 1117
3 1237 1233 1117
3 1241 1237 1117
3 1248 1241 1117
3 1246 1248 1117
3 1240 1246 1117
3 1117 1116 1235
3 1240 1117 1235
3 1397 1511 1512
3 1386 1391 1398
3 1388 1386 1398
3 1393 1388 1398
3 1395 1393 1398
3 1399 1395 1398
3 1402 1399 1398
3 1407 1402 1398
3 1410 1407 1398
3 1417 1410 1398
3 1423 1417 1398
3 1426 1423 1398
3 1429 1426 1398
3 1432 1429 1398
3 1438 1432 1398
3 1441 1438 1398
3 1444 1441 1398
3 1447 1444 1398
3 1450 1447 1398
3 1452 1450 1398
3 1456 1452 1398
3 1459 1456 1398
3 1462 1459 1398
3 1469 1462 1398
3 1471 1469 1398
3 1475 1471 1398
3 1477 1475 1398
3 1485 1477 1398
3 1489 1485 1398
3 1493 1489 1398
3 1495 1493 1398
3 1499 1495 1398
3 1503 1499 1398
3 1505 1503 1398
3 1510 1505 1398
3 1513 1510 1398
3 1518 1513 1398
3 1522 1518 1398
3 1520 1522 1398
3 1516 1520 1398
3 1398 1397 1512
3 1516 1398 1512
3 1078 1083 1082
3 1078 1082 884
3 885 887 889
3 885 889 893
3 885 893 895
3 885 895 899
3 885 899 904
3 885 904 908
3 885 908 912
3 885 912 915
3 885 915 919
3 885 919 923
3 885 923 930
3 885 930 936
3 885 936 940
3 885 940 946
3 885 946 954
3 885 954 963
3 885 963 965
3 885 965 975
3 885 975 984
3 885 984 1000
3 885 1000 1009
3 885 1009 1016
3 885 1016 1021
3 885 1021 1026
3 885 1026 1032
3 885 1032 1040
3 885 1040 1047
3 885 1047 1055
3 885 1055 1061
3 885 1061 1066
3 885 1066 1073
3 885 1073 1078
3 885 1078 884
3 1506 1507 1502
3 1192 1506 1502
3 1201 1195 1193
3 1208 1201 1193
3 1213 1208 1193
3 1219 1213 1193
3 1230 1219 1193
3 1256 1230 1193
3 1267 1256 1193
3 1280 1267 1193
3 1291 1280 1193
3 1299 1291 1193
3 1312 1299 1193
3 1321 1312 1193
3 1334 1321 1193
3 1344 1334 1193
3 1356 1344 1193
3 1372 1356 1193
3 1389 1372 1193
3 1416 1389 1193
3 1430 1416 1193
3 1440 1430 1193
3 1446 1440 1193
3 1453 1446 1193
3 1458 1453 1193
3 1467 1458 1193
3 1472 1467 1193
3 1478 1472 1193
3 1487 1478 1193
3 1491 1487 1193
3 1498 1491 1193
3 1502 1498 1193
3 1192 1502 1193
3 1526 1527 869
3 868 1526 869
3 0 8 10
3 2 0 10
3 458 10 6
3 27 44 458
3 29 27 458
3 23 29 458
3 19 23 458
3 17 19 458
3 6 17 458
3 84 868 458
3 44 84 458
3 458 10 6
3 27 44 458
3 29 27 458
3 23 29 458
3 19 23 458
3 17 19 458
3 6 17 458
3 459 12 10
3 459 10 458
3 45 459 458
3 45 458 44
3 45 44 27
3 28 45 27
3 28 27 29
3 30 28 29
3 30 29 23
3 24 30 23
3 24 23 19
3 20 24 19
3 20 19 17
3 18 20 17
3 18 17 6
3 7 18 6
3 7 6 10
3 12 7 10
3 459 12 7
3 28 45 459
3 30 28 459
3 24 30 459
3 20 24 459
3 18 20 459
3 7 18 459
3 85 869 459
3 45 85 459
3 129 130 135
3 129 135 140
3 129 140 144
3 129 144 149
3 129 149 156
3 129 156 162
3 129 162 176
3 129 176 196
3 129 196 220
3 129 220 235
3 129 235 247
3 129 247 257
3 129 257 268
3 129 268 279
3 129 279 289
3 129 289 300
3 129 300 310
3 129 310 322
3 129 322 338
3 129 338 368
3 129 368 378
3 129 378 396
3 129 396 411
3 129 411 418
3 129 418 426
3 129 426 431
3 129 431 437
3 129 437 442
3 129 442 447
3 129 447 453
3 129 453 456
3 129 456 462
3 465 464 128
3 129 462 465
3 129 465 128
3 60 61 64
3 60 64 68
3 60 68 71
3 60 71 76
3 60 76 89
3 60 89 96
3 60 96 101
3 60 101 107
3 60 107 113
3 60 113 119
3 60 119 126
3 60 126 141
3 60 141 152
3 60 152 170
3 60 170 197
3 60 197 228
3 60 228 244
3 60 244 256
3 60 256 269
3 60 269 280
3 60 280 291
3 60 291 301
3 60 301 312
3 60 312 321
3 60 321 335
3 60 335 363
3 60 363 371
3 60 371 377
3 60 377 390
3 60 390 397
3 60 397 404
3 408 407 60
3 408 60 404
3 408 404 408
3 1033 1203 1483
3 1327 1033 1483
3 926 1033 1327
3 1167 926 1327
3 861 926 1167
3 997 861 1167
3 781 861 997
3 900 781 997
3 671 781 900
3 839 671 900
3 177 28 39
3 911 33 42
3 0 8 10
3 2 0 10
3 9 8 0
3 1 9 0
3 1 0 2
3 3 1 2
3 11 3 2
3 11 2 10
3 9 11 10
3 9 10 8
3 1 9 11
3 3 1 11
3 49 44 45
3 50 49 45
3 809 458 459
3 810 809 459
3 1033 1203 1483
3 1327 1033 1483
3 1204 1203 1033
3 1034 1204 1033
3 1034 1033 1327
3 1328 1034 1327
3 1484 1328 1327
3 1484 1327 1483
3 1204 1484 1483
3 1204 1483 1203
3 1034 1204 1484
3 1328 1034 1484
3 926 1033 1327
3 1167 926 1327
3 1035 1033 926
3 927 1035 926
3 927 926 1167
3 1168 927 1167
3 1329 1168 1167
3 1329 1167 1327
3 1035 1329 1327
3 1035 1327 1033
3 927 1035 1329
3 1168 927 1329
3 861 926 1167
3 997 861 1167
3 928 926 861
3 862 928 861
3 862 861 997
3 998 862 997
3 1169 998 997
3 1169 997 1167
3 928 1169 1167
3 928 1167 926
3 862 928 1169
3 998 862 1169
3 781 861 997
3 900 781 997
3 863 861 781
3 782 863 781
3 782 781 900
3 901 782 900
3 999 901 900
3 999 900 997
3 863 999 997
3 863 997 861
3 782 863 999
3 901 782 999
3 671 781 900
3 839 671 900
3 783 781 671
3 672 783 671
3 672 671 839
3 840 672 839
3 902 840 839
3 902 839 900
3 783 902 900
3 783 900 781
3 672 783 902
3 840 672 902
3 911 33 42
3 809 458 459
3 810 809 459
3 581 177 816
3 82 77 74
3 82 74 75
3 82 75 78
3 82 78 80
3 82 80 83
3 82 83 86
3 82 86 90
3 82 90 92
3 82 92 93
3 82 93 97
3 82 97 99
3 82 99 102
3 82 102 104
3 82 104 108
3 82 108 110
3 82 110 114
3 82 114 116
3 82 116 120
3 82 120 122
3 82 122 125
3 82 125 132
3 82 132 139
3 82 139 145
3 82 145 150
3 82 150 155
3 82 155 158
3 82 158 165
3 82 165 175
3 82 175 178
3 82 178 188
3 82 188 198
3 82 198 204
3 82 204 208
3 82 208 213
3 82 213 216
3 82 216 223
3 82 223 225
3 82 225 224
3 82 224 222
3 218 217 81
3 82 222 218
3 82 218 81
3 386 382 380
3 386 380 381
3 386 381 383
3 386 383 387
3 386 387 389
3 386 389 393
3 386 393 395
3 386 395 401
3 386 401 405
3 386 405 409
3 386 409 413
3 386 413 416
3 386 416 419
3 386 419 423
3 386 423 428
3 386 428 432
3 386 432 436
3 386 436 441
3 386 441 446
3 386 446 450
3 386 450 460
3 386 460 467
3 386 467 471
3 386 471 473
3 386 473 478
3 386 478 480
3 386 480 486
3 386 486 494
3 386 494 496
3 386 496 506
3 386 506 513
3 386 513 519
3 386 519 521
3 386 521 524
3 386 524 527
3 386 527 532
3 386 532 536
3 386 536 535
3 386 535 531
3 526 525 385
3 386 531 526
3 386 526 385
3 677 674 673
3 680 677 673
3 683 680 673
3 686 683 673
3 692 686 673
3 694 692 673
3 700 694 673
3 705 700 673
3 710 705 673
3 714 710 673
3 720 714 673
3 726 720 673
3 734 726 673
3 740 734 673
3 747 740 673
3 755 747 673
3 767 755 673
3 776 767 673
3 780 776 673
3 789 780 673
3 794 789 673
3 801 794 673
3 811 801 673
3 813 811 673
3 815 813 673
3 818 815 673
3 820 818 673
3 822 820 673
3 824 822 673
3 826 824 673
3 830 826 673
3 834 830 673
3 838 834 673
3 673 841 842
3 838 673 842
3 499 503 508
3 501 499 508
3 505 501 508
3 509 505 508
3 511 509 508
3 516 511 508
3 520 516 508
3 523 520 508
3 530 523 508
3 540 530 508
3 546 540 508
3 551 546 508
3 558 551 508
3 564 558 508
3 572 564 508
3 575 572 508
3 578 575 508
3 583 578 508
3 587 583 508
3 589 587 508
3 593 589 508
3 597 593 508
3 603 597 508
3 611 603 508
3 615 611 508
3 621 615 508
3 625 621 508
3 628 625 508
3 633 628 508
3 635 633 508
3 640 635 508
3 643 640 508
3 646 643 508
3 648 646 508
3 654 648 508
3 657 654 508
3 661 657 508
3 659 661 508
3 656 659 508
3 507 652 653
3 508 507 653
3 656 508 653
3 181 185 191
3 183 181 191
3 186 183 191
3 193 186 191
3 195 193 191
3 200 195 191
3 205 200 191
3 210 205 191
3 221 210 191
3 230 221 191
3 233 230 191
3 239 233 191
3 242 239 191
3 248 242 191
3 253 248 191
3 258 253 191
3 263 258 191
3 267 263 191
3 273 267 191
3 277 273 191
3 282 277 191
3 288 282 191
3 292 288 191
3 297 292 191
3 302 297 191
3 307 302 191
3 311 307 191
3 315 311 191
3 319 315 191
3 324 319 191
3 327 324 191
3 331 327 191
3 334 331 191
3 336 334 191
3 341 336 191
3 352 341 191
3 350 352 191
3 348 350 191
3 354 348 191
3 190 342 343
3 191 190 343
3 354 191 343
3 343 354 343
3 201 202 207
3 201 207 215
3 201 215 229
3 201 229 236
3 201 236 245
3 201 245 252
3 201 252 260
3 201 260 270
3 201 270 278
3 201 278 287
3 201 287 298
3 201 298 309
3 201 309 323
3 201 323 344
3 201 344 370
3 201 370 391
3 201 391 410
3 201 410 420
3 201 420 430
3 201 430 440
3 201 440 451
3 201 451 468
3 201 468 475
3 201 475 482
3 201 482 495
3 201 495 515
3 201 515 529
3 201 529 543
3 201 543 553
3 201 553 561
3 201 561 566
3 570 569 201
3 570 201 566
3 868 84 85
3 868 85 869
3 955 807 598
3 828 955 598
3 828 598 599
3 829 828 599
3 831 602 599
3 831 599 829
3 833 605 602
3 833 602 831
3 836 609 605
3 836 605 833
3 846 613 609
3 846 609 836
3 849 617 613
3 849 613 846
3 851 623 617
3 851 617 849
3 853 629 623
3 853 623 851
3 855 637 629
3 855 629 853
3 647 637 855
3 857 647 855
3 665 647 857
3 860 665 857
3 669 665 860
3 865 669 860
3 678 669 865
3 867 678 865
3 688 678 867
3 871 688 867
3 695 688 871
3 873 695 871
3 701 695 873
3 875 701 873
3 708 701 875
3 877 708 875
3 716 708 877
3 879 716 877
3 723 716 879
3 881 723 879
3 729 723 881
3 891 729 881
3 735 729 891
3 898 735 891
3 742 735 898
3 906 742 898
3 749 742 906
3 913 749 906
3 757 749 913
3 917 757 913
3 768 757 917
3 921 768 917
3 775 768 921
3 925 775 921
3 779 775 925
3 931 779 925
3 785 779 931
3 934 785 931
3 788 785 934
3 937 788 934
3 792 788 937
3 941 792 937
3 795 792 941
3 944 795 941
3 798 795 944
3 947 798 944
3 799 798 947
3 948 799 947
3 802 799 948
3 951 802 948
3 805 802 951
3 953 805 951
3 808 805 953
3 956 808 953
3 955 956 808
3 955 808 807
3 1530 48 42
3 911 1530 42
3 911 1530 37
3 33 911 37
3 48 37 33
3 42 48 33
3 43 1063 1428
3 43 1428 46
3 43 1063 1530
3 47 43 1530
3 1428 1530 47
3 46 1428 47
3 1100 1099 1239
3 1100 1239 1245
3 1101 1100 1245
3 1101 1245 1247
3 1238 1247 1101
3 1098 1238 1101
3 1236 1238 1098
3 1097 1236 1098
3 1232 1236 1097
3 1093 1232 1097
3 1231 1232 1093
3 1092 1231 1093
3 1228 1231 1092
3 1090 1228 1092
3 1224 1228 1090
3 1087 1224 1090
3 1222 1224 1087
3 1085 1222 1087
3 1217 1222 1085
3 1076 1217 1085
3 1215 1217 1076
3 1070 1215 1076
3 1210 1215 1070
3 1064 1210 1070
3 1205 1210 1064
3 1057 1205 1064
3 1198 1205 1057
3 1052 1198 1057
3 1194 1198 1052
3 1046 1194 1052
3 1189 1194 1046
3 1042 1189 1046
3 1186 1189 1042
3 1038 1186 1042
3 1183 1186 1038
3 1031 1183 1038
3 1180 1183 1031
3 1028 1180 1031
3 1178 1180 1028
3 1025 1178 1028
3 1175 1178 1025
3 1022 1175 1025
3 1172 1175 1022
3 1019 1172 1022
3 1166 1172 1019
3 1014 1166 1019
3 1163 1166 1014
3 1012 1163 1014
3 1160 1163 1012
3 1008 1160 1012
3 1157 1160 1008
3 1005 1157 1008
3 1155 1157 1005
3 1002 1155 1005
3 1149 1155 1002
3 992 1149 1002
3 1146 1149 992
3 986 1146 992
3 1144 1146 986
3 985 1144 986
3 983 1133 1144
3 983 1144 985
3 982 1130 1133
3 982 1133 983
3 980 1126 1130
3 980 1130 982
3 976 1123 1126
3 976 1126 980
3 974 1121 1123
3 974 1123 976
3 973 1115 1121
3 973 1121 974
3 967 1112 1115
3 967 1115 973
3 969 1108 1112
3 969 1112 967
3 969 1108 1106
3 968 969 1106
3 968 1106 1110
3 970 968 1110
3 970 1110 1117
3 972 970 1117
3 971 1116 1117
3 971 1117 972
3 971 1116 1234
3 1095 971 1234
3 1235 1234 1095
3 1096 1235 1095
3 1379 1377 1512
3 1379 1512 1515
3 1380 1379 1515
3 1380 1515 1519
3 1381 1380 1519
3 1381 1519 1521
3 1517 1521 1381
3 1378 1517 1381
3 1514 1517 1378
3 1375 1514 1378
3 1509 1514 1375
3 1373 1509 1375
3 1508 1509 1373
3 1371 1508 1373
3 1504 1508 1371
3 1368 1504 1371
3 1500 1504 1368
3 1364 1500 1368
3 1496 1500 1364
3 1359 1496 1364
3 1494 1496 1359
3 1358 1494 1359
3 1490 1494 1358
3 1353 1490 1358
3 1486 1490 1353
3 1348 1486 1353
3 1480 1486 1348
3 1346 1480 1348
3 1476 1480 1346
3 1342 1476 1346
3 1473 1476 1342
3 1338 1473 1342
3 1470 1473 1338
3 1335 1470 1338
3 1463 1470 1335
3 1330 1463 1335
3 1461 1463 1330
3 1324 1461 1330
3 1457 1461 1324
3 1319 1457 1324
3 1455 1457 1319
3 1316 1455 1319
3 1451 1455 1316
3 1311 1451 1316
3 1448 1451 1311
3 1305 1448 1311
3 1445 1448 1305
3 1300 1445 1305
3 1443 1445 1300
3 1296 1443 1300
3 1439 1443 1296
3 1292 1439 1296
3 1437 1439 1292
3 1289 1437 1292
3 1431 1437 1289
3 1284 1431 1289
3 1427 1431 1284
3 1276 1427 1284
3 1425 1427 1276
3 1270 1425 1276
3 1268 1422 1425
3 1268 1425 1270
3 1265 1412 1422
3 1265 1422 1268
3 1263 1409 1412
3 1263 1412 1265
3 1259 1405 1409
3 1259 1409 1263
3 1257 1403 1405
3 1257 1405 1259
3 1255 1400 1403
3 1255 1403 1257
3 1253 1396 1400
3 1253 1400 1255
3 1242 1392 1396
3 1242 1396 1253
3 1244 1387 1392
3 1244 1392 1242
3 1244 1387 1385
3 1243 1244 1385
3 1243 1385 1390
3 1250 1243 1390
3 1250 1390 1398
3 1252 1250 1398
3 1251 1397 1398
3 1251 1398 1252
3 1251 1397 1511
3 1376 1251 1511
3 1512 1511 1376
3 1377 1512 1376
3 1501 1507 1370
3 1366 1501 1370
3 1497 1501 1366
3 1362 1497 1366
3 1492 1497 1362
3 1357 1492 1362
3 1488 1492 1357
3 1352 1488 1357
3 1479 1488 1352
3 1345 1479 1352
3 1474 1479 1345
3 1339 1474 1345
3 1468 1474 1339
3 1332 1468 1339
3 1460 1468 1332
3 1323 1460 1332
3 1454 1460 1323
3 1315 1454 1323
3 1449 1454 1315
3 1304 1449 1315
3 1442 1449 1304
3 1295 1442 1304
3 1433 1442 1295
3 1286 1433 1295
3 1424 1433 1286
3 1269 1424 1286
3 1404 1424 1269
3 1258 1404 1269
3 1383 1404 1258
3 1226 1383 1258
3 1363 1383 1226
3 1214 1363 1226
3 1349 1363 1214
3 1199 1349 1214
3 1340 1349 1199
3 1187 1340 1199
3 1326 1340 1187
3 1181 1326 1187
3 1318 1326 1181
3 1174 1318 1181
3 1306 1318 1174
3 1165 1306 1174
3 1298 1306 1165
3 1158 1298 1165
3 1287 1298 1158
3 1148 1287 1158
3 1271 1287 1148
3 1134 1271 1148
3 1264 1271 1134
3 1119 1264 1134
3 1254 1264 1119
3 1102 1254 1119
3 1089 1227 1254
3 1089 1254 1102
3 1079 1218 1227
3 1079 1227 1089
3 1067 1211 1218
3 1067 1218 1079
3 1060 1206 1211
3 1060 1211 1067
3 1054 1200 1206
3 1054 1206 1060
3 1050 1196 1200
3 1050 1200 1054
3 1045 1193 1196
3 1045 1196 1050
3 1045 1193 1192
3 1044 1045 1192
3 1044 1192 1506
3 1369 1044 1506
3 1507 1506 1369
3 1370 1507 1369
3 1077 1083 962
3 960 1077 962
3 1074 1077 960
3 958 1074 960
3 1068 1074 958
3 957 1068 958
3 1062 1068 957
3 952 1062 957
3 1056 1062 952
3 949 1056 952
3 1048 1056 949
3 945 1048 949
3 1041 1048 945
3 942 1041 945
3 1037 1041 942
3 939 1037 942
3 1029 1037 939
3 935 1029 939
3 1023 1029 935
3 932 1023 935
3 1017 1023 932
3 924 1017 932
3 1011 1017 924
3 920 1011 924
3 1004 1011 920
3 916 1004 920
3 987 1004 916
3 910 987 916
3 981 987 910
3 905 981 910
3 966 981 905
3 896 966 905
3 964 966 896
3 888 964 896
3 959 964 888
3 880 959 888
3 950 959 880
3 878 950 880
3 943 950 878
3 876 943 878
3 938 943 876
3 874 938 876
3 933 938 874
3 872 933 874
3 929 933 872
3 870 929 872
3 922 929 870
3 866 922 870
3 918 922 866
3 864 918 866
3 914 918 864
3 859 914 864
3 909 914 859
3 858 909 859
3 856 907 909
3 856 909 858
3 854 903 907
3 854 907 856
3 852 897 903
3 852 903 854
3 850 894 897
3 850 897 852
3 848 892 894
3 848 894 850
3 847 890 892
3 847 892 848
3 845 886 890
3 845 890 847
3 844 885 886
3 844 886 845
3 843 884 885
3 843 885 844
3 843 884 1082
3 961 843 1082
3 1083 1082 961
3 962 1083 961
3 1481 1526 1527
3 1481 1527 1482
3 868 1526 1481
3 809 868 1481
3 869 868 809
3 810 869 809
3 810 869 1527
3 1482 810 1527
3 1099 1096 1235
3 1099 1235 1239
3 464 128 547
3 772 464 547
3 772 464 465
3 773 772 465
3 773 465 461
3 770 773 461
3 770 461 455
3 769 770 455
3 769 455 452
3 766 769 452
3 766 452 449
3 761 766 449
3 761 449 444
3 756 761 444
3 756 444 438
3 752 756 438
3 752 438 433
3 748 752 433
3 748 433 427
3 743 748 427
3 743 427 421
3 738 743 421
3 738 421 414
3 733 738 414
3 733 414 402
3 727 733 402
3 727 402 388
3 721 727 388
3 721 388 372
3 715 721 372
3 715 372 360
3 709 715 360
3 709 360 329
3 702 709 329
3 702 329 316
3 696 702 316
3 696 316 305
3 687 696 305
3 687 305 294
3 675 687 294
3 675 294 284
3 667 675 284
3 667 284 274
3 663 667 274
3 663 274 264
3 638 663 264
3 638 264 254
3 627 638 254
3 627 254 243
3 618 627 243
3 618 243 232
3 607 618 232
3 607 232 211
3 595 607 211
3 595 211 189
3 590 595 189
3 590 189 174
3 586 590 174
3 580 586 174
3 580 174 161
3 576 580 161
3 576 161 153
3 571 576 153
3 571 153 147
3 563 571 147
3 563 147 143
3 557 563 143
3 557 143 137
3 554 557 137
3 554 137 134
3 550 554 134
3 550 134 131
3 548 550 131
3 548 131 129
3 547 548 129
3 547 129 128
3 42 39 177
3 911 42 177
3 28 177 911
3 33 28 911
3 33 28 39
3 42 33 39
3 40 581 816
3 41 40 816
3 177 816 41
3 38 177 41
3 40 38 177
3 40 177 581
3 498 502 355
3 345 498 355
3 500 498 345
3 346 500 345
3 356 346 500
3 356 500 504
3 357 356 504
3 357 504 510
3 361 357 510
3 361 510 512
3 362 361 512
3 362 512 514
3 365 362 514
3 365 514 518
3 367 365 518
3 367 518 522
3 369 367 522
3 369 522 528
3 374 369 528
3 374 528 539
3 375 374 539
3 375 539 542
3 375 542 549
3 384 375 549
3 384 549 556
3 394 384 556
3 394 556 562
3 400 394 562
3 400 562 568
3 406 400 568
3 406 568 573
3 412 406 573
3 412 573 577
3 417 412 577
3 417 577 582
3 422 417 582
3 422 582 585
3 425 422 585
3 425 585 588
3 429 425 588
3 429 588 592
3 434 429 592
3 434 592 594
3 439 434 594
3 439 594 600
3 443 439 600
3 443 600 606
3 448 443 606
3 448 606 612
3 454 448 612
3 454 612 616
3 463 454 616
3 463 616 622
3 466 463 622
3 466 622 626
3 469 466 626
3 469 626 631
3 472 469 631
3 472 631 634
3 474 472 634
3 474 634 636
3 477 474 636
3 477 636 641
3 479 477 641
3 479 641 644
3 481 479 644
3 481 644 645
3 483 481 645
3 483 645 649
3 484 483 649
3 484 649 651
3 489 484 651
3 489 651 662
3 490 489 662
3 490 662 660
3 493 490 660
3 492 658 660
3 492 660 493
3 491 655 658
3 491 658 492
3 488 653 655
3 488 655 491
3 488 653 652
3 487 488 652
3 507 652 487
3 358 507 487
3 359 358 507
3 359 507 508
3 184 191 57
3 53 184 57
3 180 184 53
3 51 180 53
3 182 180 51
3 52 182 51
3 54 52 182
3 54 182 187
3 55 54 187
3 55 187 192
3 58 55 192
3 58 192 194
3 59 58 194
3 59 194 199
3 62 59 199
3 62 199 203
3 65 62 203
3 65 203 209
3 67 65 209
3 67 209 219
3 69 67 219
3 69 219 226
3 72 69 226
3 72 226 231
3 72 231 238
3 79 72 238
3 79 238 240
3 87 79 240
3 87 240 246
3 91 87 246
3 91 246 251
3 95 91 251
3 95 251 255
3 98 95 255
3 98 255 261
3 103 98 261
3 103 261 265
3 105 103 265
3 105 265 271
3 109 105 271
3 109 271 276
3 112 109 276
3 112 276 281
3 115 112 281
3 115 281 285
3 118 115 285
3 118 285 290
3 121 118 290
3 121 290 295
3 123 121 295
3 123 295 299
3 127 123 299
3 127 299 303
3 133 127 303
3 133 303 308
3 138 133 308
3 138 308 313
3 142 138 313
3 142 313 317
3 146 142 317
3 146 317 320
3 151 146 320
3 151 320 325
3 154 151 325
3 154 325 328
3 157 154 328
3 157 328 330
3 159 157 330
3 159 330 333
3 163 159 333
3 163 333 337
3 164 163 337
3 164 337 340
3 168 164 340
3 168 340 351
3 173 168 351
3 173 351 349
3 171 173 349
3 172 347 349
3 172 349 171
3 169 353 347
3 169 347 172
3 167 343 353
3 167 353 169
3 167 343 342
3 166 167 342
3 190 342 166
3 56 190 166
3 57 56 190
3 57 190 191
3 63 61 202
3 63 202 206
3 66 63 206
3 66 206 214
3 70 66 214
3 70 214 227
3 73 70 227
3 73 227 234
3 88 73 234
3 88 234 241
3 94 88 241
3 94 241 250
3 100 94 250
3 100 250 259
3 100 259 266
3 106 100 266
3 106 266 275
3 111 106 275
3 111 275 286
3 117 111 286
3 117 286 296
3 124 117 296
3 124 296 306
3 136 124 306
3 136 306 318
3 148 136 318
3 148 318 332
3 160 148 332
3 160 332 366
3 179 160 366
3 179 366 376
3 212 179 376
3 212 376 399
3 237 212 399
3 237 399 415
3 249 237 415
3 249 415 424
3 262 249 424
3 262 424 435
3 272 262 435
3 272 435 445
3 283 272 445
3 283 445 457
3 293 283 457
3 293 457 470
3 304 293 470
3 304 470 476
3 314 304 476
3 314 476 485
3 326 314 485
3 326 485 497
3 339 326 497
3 339 497 517
3 364 339 517
3 364 517 537
3 373 364 537
3 373 537 545
3 379 373 545
3 379 545 555
3 392 379 555
3 392 555 560
3 398 392 560
3 398 560 565
3 403 398 565
3 403 565 570
3 408 403 570
3 407 569 570
3 407 570 408
3 201 569 407
3 60 201 407
3 61 60 201
3 61 201 202
3 538 534 674
3 538 674 676
3 541 538 676
3 541 676 681
3 544 541 681
3 544 681 684
3 552 544 684
3 552 684 685
3 559 552 685
3 559 685 690
3 567 559 690
3 567 690 693
3 574 567 693
3 574 693 699
3 579 574 699
3 579 699 703
3 579 703 707
3 584 579 707
3 584 707 713
3 591 584 713
3 591 713 718
3 596 591 718
3 596 718 724
3 610 596 724
3 610 724 730
3 620 610 730
3 620 730 736
3 630 620 736
3 630 736 744
3 642 630 744
3 642 744 751
3 664 642 751
3 664 751 760
3 668 664 760
3 668 760 771
3 679 668 771
3 679 771 778
3 689 679 778
3 689 778 786
3 697 689 786
3 697 786 790
3 704 697 790
3 704 790 796
3 711 704 796
3 711 796 804
3 717 711 804
3 717 804 812
3 722 717 812
3 722 812 814
3 728 722 814
3 728 814 817
3 732 728 817
3 732 817 819
3 737 732 819
3 737 819 821
3 741 737 821
3 741 821 823
3 745 741 823
3 745 823 825
3 750 745 825
3 750 825 827
3 753 750 827
3 753 827 832
3 758 753 832
3 758 832 835
3 759 758 835
3 759 835 837
3 762 759 837
3 762 837 842
3 765 762 842
3 765 842 841
3 764 765 841
3 673 841 764
3 533 673 764
3 534 533 673
3 534 673 674
3 50 85 84
3 49 50 84
3 49 84 868
3 809 49 868
3 810 809 868
3 810 868 869
3 85 869 810
3 50 85 810
3 502 508 359
3 355 502 359
