OFF
476 786 0
0.000 53.908 0.000
0.000 53.908 3.900
2.337 54.610 3.900
2.337 54.610 9.100
5.801 34.570 3.900
5.801 34.570 14.500
8.138 35.273 3.900
8.138 35.273 9.100
9.498 54.611 3.900
9.498 54.611 9.100
9.498 54.611 14.500
9.498 54.611 19.800
9.498 54.611 32.200
11.933 14.105 14.500
11.933 14.105 19.800
12.620 40.378 3.900
12.620 40.378 9.100
12.620 40.378 14.500
13.654 36.930 3.900
13.654 36.930 9.100
13.654 36.930 14.500
13.673 40.694 3.900
13.673 40.694 9.100
13.673 40.694 14.500
14.328 38.464 19.800
14.341 38.468 19.800
14.341 38.468 32.200
14.342 38.468 19.800
14.776 58.348 3.900
14.776 58.348 9.100
14.776 58.348 14.500
15.369 56.376 3.900
15.369 56.376 9.100
15.369 56.376 14.500
15.741 1.436 14.500
15.741 1.436 19.800
16.172 0.000 0.000
16.172 0.000 3.900
16.172 0.000 14.500
16.611 4.099 19.800
16.611 4.099 22.500
17.273 1.897 14.500
17.273 1.897 19.800
17.705 0.460 14.500
17.705 0.460 19.800
17.705 0.460 22.500
20.250 5.193 19.800
20.250 5.193 22.500
20.846 16.784 14.500
20.846 16.784 19.800
20.912 2.990 14.500
20.912 2.990 19.800
21.344 1.554 14.500
21.344 1.554 19.800
21.344 1.554 22.500
22.043 4.792 0.000
22.043 4.792 3.900
22.866 10.051 19.800
22.876 2.014 0.000
22.876 2.014 3.900
28.591 42.749 23.000
28.605 42.753 23.000
31.535 63.385 3.900
31.535 63.385 9.100
31.535 63.385 14.500
32.128 61.412 3.900
32.128 61.412 9.100
32.128 61.412 14.500
37.130 14.337 23.000
37.999 63.176 3.900
37.999 63.176 9.100
37.999 63.176 14.500
37.999 63.176 19.800
37.999 63.176 32.200
42.175 49.256 3.900
42.175 49.256 9.100
42.175 49.256 14.500
42.828 47.027 19.800
42.842 47.031 19.800
42.842 47.031 32.200
43.976 67.124 3.900
43.976 67.124 9.100
46.313 67.826 0.000
46.313 67.826 3.900
47.898 68.530 0.000
47.898 68.530 20.000
48.745 51.229 3.900
48.745 51.229 9.100
48.745 51.229 14.500
49.347 25.349 14.500
49.347 25.349 19.800
49.778 47.786 3.900
49.778 47.786 14.500
51.367 18.614 19.800
52.114 48.488 3.900
52.114 48.488 14.500
54.948 14.681 0.000
54.948 14.681 3.900
55.781 11.903 0.000
55.781 11.903 3.900
56.220 16.003 19.800
56.220 16.003 22.500
56.730 33.403 0.000
56.730 33.403 20.000
56.882 13.800 14.500
56.882 13.800 19.800
57.314 12.364 14.500
57.314 12.364 19.800
57.314 12.364 22.500
58.246 28.024 14.500
58.246 28.024 19.800
58.263 33.861 0.000
58.263 33.861 20.000
59.859 17.096 19.800
59.859 17.096 22.500
60.521 14.894 14.500
60.521 14.894 19.800
60.953 13.457 14.500
60.953 13.457 19.800
60.953 13.457 22.500
60.979 72.441 0.000
60.979 72.441 20.000
61.937 69.238 0.000
61.937 69.238 19.800
62.055 15.353 14.500
62.055 15.353 19.800
62.289 14.804 20.000
62.289 14.804 20.600
62.481 14.861 20.600
62.481 14.861 21.100
62.485 13.918 0.000
62.485 13.918 3.900
62.485 13.918 14.500
62.551 13.928 0.000
62.551 13.928 20.000
62.551 13.928 20.600
62.743 13.985 20.600
62.743 13.985 21.100
65.835 15.863 20.600
65.835 15.863 21.100
66.026 15.921 20.000
66.026 15.921 20.600
66.096 14.987 20.600
66.096 14.987 21.100
66.288 15.045 20.000
66.288 15.045 20.600
73.167 18.055 20.000
73.167 18.055 20.600
73.359 18.112 20.600
73.359 18.112 21.100
73.429 17.179 20.000
73.429 17.179 20.600
73.621 17.236 20.600
73.621 17.236 21.100
76.240 77.350 0.000
76.240 77.350 19.800
76.606 73.547 0.000
76.606 73.547 19.800
76.713 19.114 20.600
76.713 19.114 21.100
76.904 19.171 20.000
76.904 19.171 20.600
76.974 18.239 20.600
76.974 18.239 21.100
77.166 18.296 0.000
77.166 18.296 19.800
77.166 18.296 20.000
77.166 18.296 20.600
78.930 65.679 0.000
78.930 65.679 19.800
79.629 65.886 0.000
79.629 65.886 19.800
91.564 25.361 0.000
91.564 25.361 19.800
92.339 22.735 0.000
92.339 22.735 19.800
93.355 82.408 0.000
93.355 82.408 19.800
98.164 27.254 4.000
98.164 27.254 5.500
98.909 25.588 0.000
98.909 25.588 4.000
98.910 24.676 4.000
98.910 24.676 5.500
98.910 25.562 0.000
98.910 25.562 4.000
98.910 25.614 0.000
98.910 25.614 4.000
98.914 25.536 0.000
98.914 25.536 4.000
98.914 25.640 0.000
98.914 25.640 4.000
98.919 25.510 0.000
98.919 25.510 4.000
98.919 25.666 0.000
98.919 25.666 4.000
98.927 25.485 0.000
98.927 25.485 4.000
98.927 25.691 0.000
98.927 25.691 4.000
98.937 25.461 0.000
98.937 25.461 4.000
98.937 25.715 0.000
98.937 25.715 4.000
98.949 25.438 0.000
98.949 25.438 4.000
98.949 25.738 0.000
98.949 25.738 4.000
98.963 25.416 0.000
98.963 25.416 4.000
98.963 25.760 0.000
98.963 25.760 4.000
98.979 25.395 0.000
98.979 25.395 4.000
98.979 25.781 0.000
98.979 25.781 4.000
98.997 25.376 0.000
98.997 25.376 4.000
98.997 25.800 0.000
98.997 25.800 4.000
99.016 25.358 0.000
99.016 25.358 4.000
99.016 25.818 0.000
99.016 25.818 4.000
99.037 25.342 0.000
99.037 25.342 4.000
99.037 25.834 0.000
99.037 25.834 4.000
99.059 25.328 0.000
99.059 25.328 4.000
99.059 25.848 0.000
99.059 25.848 4.000
99.082 25.316 0.000
99.082 25.316 4.000
99.082 25.860 0.000
99.082 25.860 4.000
99.107 25.306 0.000
99.107 25.306 4.000
99.107 25.870 0.000
99.107 25.870 4.000
99.131 25.298 0.000
99.131 25.298 4.000
99.132 25.878 0.000
99.132 25.878 4.000
99.157 25.293 0.000
99.157 25.293 4.000
99.157 25.883 0.000
99.157 25.883 4.000
99.183 25.289 0.000
99.183 25.289 4.000
99.183 25.887 0.000
99.183 25.887 4.000
99.209 25.288 0.000
99.209 25.288 4.000
99.209 25.888 0.000
99.209 25.888 4.000
99.235 25.289 0.000
99.235 25.289 4.000
99.235 25.887 0.000
99.235 25.887 4.000
99.261 25.293 0.000
99.261 25.293 4.000
99.261 25.883 0.000
99.261 25.883 4.000
99.287 25.298 0.000
99.287 25.298 4.000
99.287 25.878 0.000
99.287 25.878 4.000
99.312 25.306 0.000
99.312 25.306 4.000
99.312 25.870 0.000
99.312 25.870 4.000
99.336 25.316 0.000
99.336 25.316 4.000
99.336 25.860 0.000
99.336 25.860 4.000
99.359 25.328 0.000
99.359 25.328 4.000
99.359 25.848 0.000
99.359 25.848 4.000
99.381 25.342 0.000
99.381 25.342 4.000
99.381 25.834 0.000
99.381 25.834 4.000
99.402 25.358 0.000
99.402 25.358 4.000
99.402 25.818 0.000
99.402 25.818 4.000
99.421 25.376 0.000
99.421 25.376 4.000
99.421 25.800 0.000
99.421 25.800 4.000
99.439 25.395 0.000
99.439 25.395 4.000
99.439 25.781 0.000
99.439 25.781 4.000
99.455 25.416 0.000
99.455 25.416 4.000
99.455 25.760 0.000
99.455 25.760 4.000
99.469 25.438 0.000
99.469 25.438 4.000
99.469 25.738 0.000
99.469 25.738 4.000
99.481 25.461 0.000
99.481 25.461 4.000
99.481 25.715 0.000
99.481 25.715 4.000
99.491 25.485 0.000
99.491 25.485 4.000
99.491 25.691 0.000
99.491 25.691 4.000
99.499 25.510 0.000
99.499 25.510 4.000
99.499 25.666 0.000
99.499 25.666 4.000
99.505 25.536 0.000
99.505 25.536 4.000
99.505 25.640 0.000
99.505 25.640 4.000
99.508 25.562 0.000
99.508 25.562 4.000
99.508 25.614 0.000
99.508 25.614 4.000
99.509 25.588 0.000
99.509 25.588 4.000
101.614 26.309 0.000
101.614 26.309 4.000
101.615 26.283 0.000
101.615 26.283 4.000
101.615 26.335 0.000
101.615 26.335 4.000
101.619 26.257 0.000
101.619 26.257 4.000
101.619 26.361 0.000
101.619 26.361 4.000
101.624 26.231 0.000
101.624 26.231 4.000
101.624 26.387 0.000
101.624 26.387 4.000
101.632 26.206 0.000
101.632 26.206 4.000
101.632 26.412 0.000
101.632 26.412 4.000
101.642 26.182 0.000
101.642 26.182 4.000
101.642 26.436 0.000
101.642 26.436 4.000
101.654 26.159 0.000
101.654 26.159 4.000
101.654 26.459 0.000
101.654 26.459 4.000
101.668 26.137 0.000
101.668 26.137 4.000
101.668 26.481 0.000
101.668 26.481 4.000
101.684 26.116 0.000
101.684 26.116 4.000
101.684 26.502 0.000
101.684 26.502 4.000
101.702 26.097 0.000
101.702 26.097 4.000
101.702 26.521 0.000
101.702 26.521 4.000
101.721 26.079 0.000
101.721 26.079 4.000
101.721 26.539 0.000
101.721 26.539 4.000
101.742 26.063 0.000
101.742 26.063 4.000
101.742 26.555 0.000
101.742 26.555 4.000
101.764 26.049 0.000
101.764 26.049 4.000
101.764 26.569 0.000
101.764 26.569 4.000
101.787 26.037 0.000
101.787 26.037 4.000
101.787 26.581 0.000
101.787 26.581 4.000
101.811 26.027 0.000
101.811 26.027 4.000
101.811 26.591 0.000
101.811 26.591 4.000
101.836 26.019 0.000
101.836 26.019 4.000
101.836 26.599 0.000
101.836 26.599 4.000
101.862 26.014 0.000
101.862 26.014 4.000
101.862 26.605 0.000
101.862 26.605 4.000
101.888 26.010 0.000
101.888 26.010 4.000
101.888 26.608 0.000
101.888 26.608 4.000
101.895 28.335 4.000
101.895 28.335 5.500
101.914 26.009 0.000
101.914 26.009 4.000
101.914 26.609 0.000
101.914 26.609 4.000
101.940 26.010 0.000
101.940 26.010 4.000
101.940 26.608 0.000
101.940 26.608 4.000
101.966 26.014 0.000
101.966 26.014 4.000
101.966 26.605 0.000
101.966 26.605 4.000
101.992 26.019 0.000
101.992 26.019 4.000
101.992 26.599 0.000
101.992 26.599 4.000
102.017 26.027 0.000
102.017 26.027 4.000
102.017 26.591 0.000
102.017 26.591 4.000
102.041 26.037 0.000
102.041 26.037 4.000
102.041 26.581 0.000
102.041 26.581 4.000
102.064 26.049 0.000
102.064 26.049 4.000
102.064 26.569 0.000
102.064 26.569 4.000
102.086 26.063 0.000
102.086 26.063 4.000
102.086 26.555 0.000
102.086 26.555 4.000
102.107 26.079 0.000
102.107 26.079 4.000
102.107 26.539 0.000
102.107 26.539 4.000
102.126 26.097 0.000
102.126 26.097 4.000
102.126 26.521 0.000
102.126 26.521 4.000
102.144 26.116 0.000
102.144 26.116 4.000
102.144 26.502 0.000
102.144 26.502 4.000
102.160 26.137 0.000
102.160 26.137 4.000
102.160 26.481 0.000
102.160 26.481 4.000
102.174 26.159 0.000
102.174 26.159 4.000
102.174 26.459 0.000
102.174 26.459 4.000
102.186 26.182 0.000
102.186 26.182 4.000
102.186 26.436 0.000
102.186 26.436 4.000
102.196 26.206 0.000
102.196 26.206 4.000
102.196 26.412 0.000
102.196 26.412 4.000
102.204 26.231 0.000
102.204 26.231 4.000
102.204 26.387 0.000
102.204 26.387 4.000
102.209 26.257 0.000
102.209 26.257 4.000
102.209 26.361 0.000
102.209 26.361 4.000
102.213 26.283 0.000
102.213 26.283 4.000
102.213 26.335 0.000
102.213 26.335 4.000
102.214 26.309 0.000
102.214 26.309 4.000
102.642 25.757 4.000
102.642 25.757 5.500
108.754 30.310 0.000
108.754 30.310 19.800
3 58 36 0
3 55 58 0
3 96 55 0
3 130 98 96
3 82 130 96
3 0 82 96
3 37 4 18
3 131 37 18
3 91 94 131
3 74 86 91
3 65 69 74
3 28 62 65
3 31 28 65
3 21 8 31
3 18 15 21
3 131 18 21
3 91 131 21
3 74 91 21
3 65 74 21
3 31 65 21
3 18 6 2
3 15 18 2
3 21 15 2
3 8 21 2
3 31 8 2
3 28 31 2
3 86 74 69
3 80 86 69
3 62 80 69
3 65 62 69
3 34 13 48
3 41 34 48
3 43 41 48
3 50 52 43
3 117 106 104
3 115 117 104
3 109 124 115
3 89 109 115
3 10 71 89
3 48 10 89
3 50 43 48
3 104 50 48
3 115 104 48
3 89 115 48
3 57 25 78
3 93 57 78
3 44 39 46
3 53 44 46
3 107 100 113
3 118 107 113
3 78 25 11
3 72 78 11
3 59 37 1
3 56 59 1
3 97 56 1
3 131 99 97
3 83 131 97
3 1 83 97
3 19 7 3
3 16 19 3
3 22 16 3
3 9 22 3
3 32 9 3
3 29 32 3
3 87 75 70
3 81 87 70
3 63 81 70
3 66 63 70
3 38 5 20
3 132 38 20
3 92 95 132
3 76 88 92
3 67 71 76
3 30 64 67
3 33 30 67
3 23 10 33
3 20 17 23
3 132 20 23
3 92 132 23
3 76 92 23
3 67 76 23
3 33 67 23
3 35 14 49
3 42 35 49
3 44 42 49
3 51 53 44
3 118 107 105
3 116 118 105
3 110 125 116
3 90 110 116
3 11 72 90
3 49 11 90
3 51 44 49
3 105 51 49
3 116 105 49
3 90 116 49
3 45 40 47
3 54 45 47
3 108 101 114
3 119 108 114
3 93 57 68
3 77 24 60
3 79 26 12
3 73 79 12
3 120 164 133
3 111 84 120
3 133 102 111
3 120 133 111
3 134 126 140
3 144 134 140
3 150 146 160
3 166 150 160
3 142 136 128
3 138 142 128
3 162 152 148
3 158 162 148
3 121 166 134
3 112 85 121
3 134 103 112
3 121 134 112
3 135 127 141
3 145 135 141
3 151 147 161
3 167 151 161
3 143 137 129
3 139 143 129
3 163 153 149
3 159 163 149
3 182 178 396
3 472 182 396
3 322 324 320
3 318 322 320
3 314 318 320
3 310 314 320
3 306 310 320
3 302 306 320
3 298 302 320
3 294 298 320
3 290 294 320
3 286 290 320
3 282 286 320
3 278 282 320
3 274 278 320
3 270 274 320
3 266 270 320
3 262 266 320
3 258 262 320
3 254 258 320
3 250 254 320
3 246 250 320
3 242 246 320
3 238 242 320
3 234 238 320
3 230 234 320
3 226 230 320
3 222 226 320
3 218 222 320
3 214 218 320
3 210 214 320
3 206 210 320
3 202 206 320
3 198 202 320
3 194 198 320
3 190 194 320
3 186 190 320
3 180 186 320
3 184 180 320
3 188 184 320
3 192 188 320
3 196 192 320
3 200 196 320
3 204 200 320
3 208 204 320
3 212 208 320
3 216 212 320
3 220 216 320
3 224 220 320
3 228 224 320
3 232 228 320
3 236 232 320
3 240 236 320
3 244 240 320
3 248 244 320
3 252 248 320
3 256 252 320
3 260 256 320
3 264 260 320
3 268 264 320
3 272 268 320
3 276 272 320
3 280 276 320
3 284 280 320
3 288 284 320
3 292 288 320
3 296 292 320
3 300 296 320
3 304 300 320
3 308 304 320
3 312 308 320
3 316 312 320
3 468 470 466
3 464 468 466
3 460 464 466
3 456 460 466
3 452 456 466
3 448 452 466
3 444 448 466
3 440 444 466
3 436 440 466
3 432 436 466
3 428 432 466
3 424 428 466
3 420 424 466
3 416 420 466
3 412 416 466
3 408 412 466
3 404 408 466
3 400 404 466
3 394 400 466
3 390 394 466
3 386 390 466
3 382 386 466
3 378 382 466
3 374 378 466
3 370 374 466
3 366 370 466
3 362 366 466
3 358 362 466
3 354 358 466
3 350 354 466
3 346 350 466
3 342 346 466
3 338 342 466
3 334 338 466
3 330 334 466
3 326 330 466
3 328 326 466
3 332 328 466
3 336 332 466
3 340 336 466
3 344 340 466
3 348 344 466
3 352 348 466
3 356 352 466
3 360 356 466
3 364 360 466
3 368 364 466
3 372 368 466
3 376 372 466
3 380 376 466
3 384 380 466
3 388 384 466
3 392 388 466
3 398 392 466
3 402 398 466
3 406 402 466
3 410 406 466
3 414 410 466
3 418 414 466
3 422 418 466
3 426 422 466
3 430 426 466
3 434 430 466
3 438 434 466
3 442 438 466
3 446 442 466
3 450 446 466
3 454 450 466
3 458 454 466
3 462 458 466
3 176 474 172
3 170 154 176
3 122 156 168
3 164 122 168
3 174 164 168
3 172 174 168
3 170 176 172
3 168 170 172
3 177 475 173
3 171 155 177
3 123 157 169
3 165 123 169
3 175 165 169
3 173 175 169
3 171 177 173
3 169 171 173
3 183 179 397
3 473 183 397
3 83 1 0
3 83 0 82
3 83 82 130
3 131 83 130
3 131 130 98
3 99 131 98
3 97 99 98
3 97 98 96
3 97 96 55
3 56 97 55
3 56 55 58
3 59 56 58
3 59 58 36
3 37 59 36
3 1 37 36
3 1 36 0
3 19 7 6
3 19 6 18
3 16 19 18
3 16 18 15
3 22 16 15
3 22 15 21
3 9 22 21
3 9 21 8
3 32 9 8
3 32 8 31
3 29 32 31
3 29 31 28
3 29 28 2
3 3 29 2
3 3 2 6
3 7 3 6
3 70 69 65
3 66 70 65
3 63 66 65
3 63 65 62
3 81 63 62
3 81 62 80
3 81 80 86
3 87 81 86
3 87 86 74
3 75 87 74
3 70 75 74
3 70 74 69
3 17 20 18
3 17 18 15
3 23 17 15
3 23 15 21
3 10 23 21
3 10 21 8
3 33 10 8
3 33 8 31
3 30 33 31
3 30 31 28
3 64 30 28
3 64 28 62
3 64 62 65
3 67 64 65
3 71 67 65
3 71 65 69
3 71 69 74
3 76 71 74
3 88 76 74
3 88 74 86
3 88 86 91
3 92 88 91
3 95 92 91
3 95 91 94
3 95 94 131
3 132 95 131
3 132 131 37
3 38 132 37
3 5 38 37
3 5 37 4
3 20 5 4
3 20 4 18
3 72 11 10
3 72 10 71
3 72 71 89
3 90 72 89
3 110 90 89
3 110 89 109
3 110 109 124
3 125 110 124
3 125 124 115
3 116 125 115
3 116 115 117
3 118 116 117
3 118 117 106
3 107 118 106
3 105 107 106
3 105 106 104
3 105 104 50
3 51 105 50
3 51 50 52
3 53 51 52
3 53 52 43
3 44 53 43
3 42 44 43
3 42 43 41
3 42 41 34
3 35 42 34
3 14 35 34
3 14 34 13
3 49 14 13
3 49 13 48
3 11 49 48
3 11 48 10
3 47 46 53
3 54 47 53
3 54 53 44
3 45 54 44
3 40 45 44
3 40 44 39
3 47 40 39
3 47 39 46
3 114 113 118
3 119 114 118
3 119 118 107
3 108 119 107
3 101 108 107
3 101 107 100
3 114 101 100
3 114 100 113
3 93 68 61
3 78 93 61
3 78 93 57
3 27 78 57
3 68 57 27
3 61 68 27
3 73 12 11
3 73 11 72
3 73 72 78
3 79 73 78
3 79 78 25
3 26 79 25
3 12 26 25
3 12 25 11
3 121 120 84
3 85 121 84
3 85 84 111
3 112 85 111
3 112 111 102
3 103 112 102
3 103 102 133
3 134 103 133
3 166 134 133
3 166 133 164
3 121 166 164
3 121 164 120
3 141 140 144
3 145 141 144
3 145 144 134
3 135 145 134
3 127 135 134
3 127 134 126
3 141 127 126
3 141 126 140
3 161 160 166
3 167 161 166
3 167 166 150
3 151 167 150
3 147 151 150
3 147 150 146
3 161 147 146
3 161 146 160
3 139 129 128
3 139 128 138
3 139 138 142
3 143 139 142
3 143 142 136
3 137 143 136
3 129 137 136
3 129 136 128
3 159 149 148
3 159 148 158
3 159 158 162
3 163 159 162
3 163 162 152
3 153 163 152
3 149 153 152
3 149 152 148
3 177 176 154
3 155 177 154
3 155 154 170
3 171 155 170
3 171 170 168
3 169 171 168
3 157 169 168
3 157 168 156
3 157 156 122
3 123 157 122
3 123 122 164
3 165 123 164
3 175 165 164
3 175 164 174
3 173 175 174
3 173 174 172
3 475 173 172
3 475 172 474
3 177 475 474
3 177 474 176
3 397 396 472
3 473 397 472
3 473 472 182
3 183 473 182
3 179 183 182
3 179 182 178
3 397 179 178
3 397 178 396
3 319 323 322
3 319 322 318
3 315 319 318
3 315 318 314
3 311 315 314
3 311 314 310
3 307 311 310
3 307 310 306
3 303 307 306
3 303 306 302
3 299 303 302
3 299 302 298
3 295 299 298
3 295 298 294
3 291 295 294
3 291 294 290
3 291 290 286
3 287 291 286
3 287 286 282
3 283 287 282
3 283 282 278
3 279 283 278
3 279 278 274
3 275 279 274
3 275 274 270
3 271 275 270
3 271 270 266
3 267 271 266
3 267 266 262
3 263 267 262
3 263 262 258
3 259 263 258
3 259 258 254
3 255 259 254
3 255 254 250
3 251 255 250
3 251 250 246
3 247 251 246
3 247 246 242
3 243 247 242
3 243 242 238
3 239 243 238
3 239 238 234
3 235 239 234
3 235 234 230
3 231 235 230
3 231 230 226
3 227 231 226
3 227 226 222
3 223 227 222
3 223 222 218
3 219 223 218
3 219 218 214
3 215 219 214
3 215 214 210
3 211 215 210
3 211 210 206
3 207 211 206
3 207 206 202
3 203 207 202
3 203 202 198
3 199 203 198
3 199 198 194
3 195 199 194
3 195 194 190
3 191 195 190
3 191 190 186
3 187 191 186
3 187 186 180
3 181 187 180
3 181 180 184
3 185 181 184
3 185 184 188
3 189 185 188
3 189 188 192
3 193 189 192
3 193 192 196
3 197 193 196
3 197 196 200
3 201 197 200
3 201 200 204
3 205 201 204
3 205 204 208
3 209 205 208
3 209 208 212
3 213 209 212
3 213 212 216
3 217 213 216
3 221 217 216
3 221 216 220
3 225 221 220
3 225 220 224
3 229 225 224
3 229 224 228
3 233 229 228
3 233 228 232
3 237 233 232
3 237 232 236
3 241 237 236
3 241 236 240
3 245 241 240
3 245 240 244
3 249 245 244
3 249 244 248
3 253 249 248
3 253 248 252
3 257 253 252
3 257 252 256
3 261 257 256
3 261 256 260
3 265 261 260
3 265 260 264
3 269 265 264
3 269 264 268
3 273 269 268
3 273 268 272
3 277 273 272
3 277 272 276
3 281 277 276
3 281 276 280
3 285 281 280
3 285 280 284
3 289 285 284
3 289 284 288
3 293 289 288
3 293 288 292
3 297 293 292
3 297 292 296
3 301 297 296
3 301 296 300
3 305 301 300
3 305 300 304
3 309 305 304
3 309 304 308
3 313 309 308
3 313 308 312
3 317 313 312
3 317 312 316
3 321 317 316
3 321 316 320
3 325 321 320
3 325 320 324
3 323 325 324
3 323 324 322
3 465 469 468
3 465 468 464
3 461 465 464
3 461 464 460
3 457 461 460
3 457 460 456
3 453 457 456
3 453 456 452
3 449 453 452
3 449 452 448
3 445 449 448
3 445 448 444
3 441 445 444
3 441 444 440
3 437 441 440
3 437 440 436
3 437 436 432
3 433 437 432
3 433 432 428
3 429 433 428
3 429 428 424
3 425 429 424
3 425 424 420
3 421 425 420
3 421 420 416
3 417 421 416
3 417 416 412
3 413 417 412
3 413 412 408
3 409 413 408
3 409 408 404
3 405 409 404
3 405 404 400
3 401 405 400
3 401 400 394
3 395 401 394
3 395 394 390
3 391 395 390
3 391 390 386
3 387 391 386
3 387 386 382
3 383 387 382
3 383 382 378
3 379 383 378
3 379 378 374
3 375 379 374
3 375 374 370
3 371 375 370
3 371 370 366
3 367 371 366
3 367 366 362
3 363 367 362
3 363 362 358
3 359 363 358
3 359 358 354
3 355 359 354
3 355 354 350
3 351 355 350
3 351 350 346
3 347 351 346
3 347 346 342
3 343 347 342
3 343 342 338
3 339 343 338
3 339 338 334
3 335 339 334
3 335 334 330
3 331 335 330
3 331 330 326
3 327 331 326
3 327 326 328
3 329 327 328
3 329 328 332
3 333 329 332
3 333 332 336
3 337 333 336
3 337 336 340
3 341 337 340
3 341 340 344
3 345 341 344
3 345 344 348
3 349 345 348
3 349 348 352
3 353 349 352
3 353 352 356
3 357 353 356
3 357 356 360
3 361 357 360
3 365 361 360
3 365 360 364
3 369 365 364
3 369 364 368
3 373 369 368
3 373 368 372
3 377 373 372
3 377 372 376
3 381 377 376
3 381 376 380
3 385 381 380
3 385 380 384
3 389 385 384
3 389 384 388
3 393 389 388
3 393 388 392
3 399 393 392
3 399 392 398
3 403 399 398
3 403 398 402
3 407 403 402
3 407 402 406
3 411 407 406
3 411 406 410
3 415 411 410
3 415 410 414
3 419 415 414
3 419 414 418
3 423 419 418
3 423 418 422
3 427 423 422
3 427 422 426
3 431 427 426
3 431 426 430
3 435 431 430
3 435 430 434
3 439 435 434
3 439 434 438
3 443 439 438
3 443 438 442
3 447 443 442
3 447 442 446
3 451 447 446
3 451 446 450
3 455 451 450
3 455 450 454
3 459 455 454
3 459 454 458
3 463 459 458
3 463 458 462
3 467 463 462
3 467 462 466
3 471 467 466
3 471 466 470
3 469 471 470
3 469 470 468
