OFF
610 1416 0
0.000 63.228 129.300
0.000 63.228 139.300
1.604 57.822 0.000
1.604 57.822 129.300
1.641 62.338 14.800
1.641 62.338 18.800
1.641 62.338 19.300
1.641 62.338 23.300
1.641 62.338 23.800
1.641 62.338 27.800
1.641 62.338 28.300
1.641 62.338 32.300
1.641 62.338 32.800
1.641 62.338 36.800
1.641 62.338 37.300
1.641 62.338 41.300
1.641 62.338 47.800
1.641 62.338 50.580
1.641 62.338 51.810
1.641 62.338 54.270
1.641 62.338 55.500
1.641 62.338 57.960
1.641 62.338 59.190
1.641 62.338 61.650
1.641 62.338 62.880
1.641 62.338 65.340
1.641 62.338 66.570
1.641 62.338 69.030
1.641 62.338 70.260
1.641 62.338 72.720
1.641 62.338 73.950
1.641 62.338 76.410
1.641 62.338 77.640
1.641 62.338 80.100
1.641 62.338 81.330
1.641 62.338 83.790
1.641 62.338 85.020
1.641 62.338 87.480
1.641 62.338 88.710
1.641 62.338 91.170
1.641 62.338 92.400
1.641 62.338 94.860
1.641 62.338 96.090
1.641 62.338 98.550
1.641 62.338 99.780
1.641 62.338 102.240
1.641 62.338 103.470
1.641 62.338 105.930
1.641 62.338 107.160
1.641 62.338 109.620
1.641 62.338 110.850
1.641 62.338 113.310
1.641 62.338 114.540
1.641 62.338 117.000
1.641 62.338 118.230
1.641 62.338 120.690
1.641 62.338 121.920
1.641 62.338 124.380
1.641 62.338 125.610
1.641 62.338 128.070
1.641 62.338 129.300
1.951 56.654 0.000
1.951 56.654 125.300
1.951 56.654 129.300
2.304 61.978 14.300
2.304 61.978 14.800
2.304 61.978 18.800
2.304 61.978 19.300
2.304 61.978 23.300
2.304 61.978 23.800
2.304 61.978 27.800
2.304 61.978 28.300
2.304 61.978 32.300
2.304 61.978 32.800
2.304 61.978 36.800
2.304 61.978 37.300
2.304 61.978 41.300
2.304 61.978 41.800
3.217 57.029 125.300
3.217 57.029 129.300
3.878 30.367 0.000
3.878 30.367 41.700
3.899 61.114 41.800
3.899 61.114 47.800
3.942 58.516 0.000
3.942 58.516 129.300
4.206 49.057 0.000
4.206 49.057 125.300
4.206 49.057 129.300
4.289 57.347 0.000
4.289 57.347 129.300
4.553 47.888 0.000
4.553 47.888 125.300
4.553 47.888 129.300
5.050 64.726 0.000
5.050 64.726 129.300
5.133 63.374 0.000
5.133 63.374 9.700
5.133 63.374 14.300
5.472 49.432 0.000
5.472 49.432 9.700
5.472 49.432 14.300
5.472 49.432 125.300
5.472 49.432 129.300
5.507 44.674 125.300
5.507 44.674 129.300
5.508 44.674 0.000
5.508 44.674 129.300
5.743 62.389 0.000
5.743 62.389 129.300
5.819 48.264 0.000
5.819 48.264 125.300
5.819 48.264 129.300
5.855 43.505 0.000
5.855 43.505 125.300
5.855 43.505 129.300
6.056 49.606 0.000
6.056 49.606 9.700
6.056 49.606 14.300
6.218 65.073 0.000
6.218 65.073 125.300
6.218 65.073 129.300
6.544 49.750 0.000
6.544 49.750 129.300
6.594 63.808 125.300
6.594 63.808 129.300
6.773 45.049 125.300
6.773 45.049 129.300
6.774 45.049 0.000
6.891 48.582 0.000
6.891 48.582 129.300
6.912 62.736 0.000
6.912 62.736 129.300
7.120 43.881 0.000
7.120 43.881 125.300
7.120 43.881 129.300
7.323 43.200 0.000
7.323 43.200 9.700
7.845 45.367 0.000
7.845 45.367 129.300
8.060 64.242 0.000
8.060 64.242 9.700
8.111 35.908 0.000
8.111 35.908 125.300
8.111 35.908 129.300
8.192 44.199 0.000
8.192 44.199 129.300
8.407 63.073 0.000
8.407 63.073 9.700
8.457 34.739 0.000
8.457 34.739 129.300
8.457 34.740 0.000
9.055 43.714 0.000
9.055 43.714 9.700
9.174 36.965 0.000
9.174 36.965 9.700
9.376 36.284 0.000
9.376 36.284 125.300
9.376 36.284 129.300
9.723 35.115 0.000
10.063 29.333 129.300
10.063 29.333 139.300
10.448 36.602 0.000
10.448 36.602 129.300
10.553 32.316 0.000
10.553 32.316 41.700
10.795 35.433 0.000
10.795 35.433 129.300
10.907 37.480 0.000
10.907 37.480 9.700
10.951 30.975 0.000
10.951 30.975 9.700
10.951 30.975 14.300
10.951 30.975 14.800
10.951 30.975 18.800
10.951 30.975 19.300
10.951 30.975 23.300
10.951 30.975 23.800
10.951 30.975 27.800
10.951 30.975 28.300
10.951 30.975 32.300
10.951 30.975 32.800
10.951 30.975 36.800
10.951 30.975 37.300
10.951 30.975 41.300
10.951 30.975 41.700
10.951 30.975 47.800
10.951 30.975 50.580
10.951 30.975 51.810
10.951 30.975 54.270
10.951 30.975 55.500
10.951 30.975 57.960
10.951 30.975 59.190
10.951 30.975 61.650
10.951 30.975 62.880
10.951 30.975 65.340
10.951 30.975 66.570
10.951 30.975 69.030
10.951 30.975 70.260
10.951 30.975 72.720
10.951 30.975 73.950
10.951 30.975 76.410
10.951 30.975 77.640
10.951 30.975 80.100
10.951 30.975 81.330
10.951 30.975 83.790
10.951 30.975 85.020
10.951 30.975 87.480
10.951 30.975 88.710
10.951 30.975 91.170
10.951 30.975 92.400
10.951 30.975 94.860
10.951 30.975 96.090
10.951 30.975 98.550
10.951 30.975 99.780
10.951 30.975 102.240
10.951 30.975 103.470
10.951 30.975 105.930
10.951 30.975 107.160
10.951 30.975 109.620
10.951 30.975 110.850
10.951 30.975 113.310
10.951 30.975 114.540
10.951 30.975 117.000
10.951 30.975 118.230
10.951 30.975 120.690
10.951 30.975 121.920
10.951 30.975 124.380
10.951 30.975 125.610
10.951 30.975 128.070
10.951 30.975 129.300
11.311 31.638 14.300
11.311 31.638 14.800
11.311 31.638 18.800
11.311 31.638 19.300
11.311 31.638 23.300
11.311 31.638 23.800
11.311 31.638 27.800
11.311 31.638 28.300
11.311 31.638 32.300
11.311 31.638 32.800
11.311 31.638 36.800
11.311 31.638 37.300
11.311 31.638 41.300
11.311 31.638 41.800
12.174 33.233 41.800
12.174 33.233 47.800
12.952 0.000 0.000
12.952 0.000 41.700
13.458 65.844 0.000
13.458 65.844 9.700
13.805 64.675 0.000
13.805 64.675 9.700
14.419 33.171 0.000
14.419 33.171 129.300
14.547 67.544 0.000
14.547 67.544 125.300
14.547 67.544 129.300
14.923 66.278 125.300
14.923 66.278 129.300
15.112 30.834 0.000
15.112 30.834 129.300
15.241 65.207 0.000
15.241 65.207 129.300
15.587 33.518 0.000
15.587 33.518 129.300
15.716 67.891 0.000
15.716 67.891 125.300
15.716 67.891 129.300
15.905 32.446 125.300
15.905 32.446 129.300
16.092 66.626 125.300
16.092 66.626 129.300
16.281 31.181 0.000
16.281 31.181 125.300
16.281 31.181 129.300
16.410 65.554 0.000
16.410 65.554 129.300
23.915 35.990 0.000
23.915 35.990 129.300
24.025 70.357 0.000
24.025 70.357 125.300
24.025 70.357 129.300
24.234 34.918 125.300
24.234 34.918 129.300
24.400 69.092 125.300
24.400 69.092 129.300
24.609 33.653 0.000
24.609 33.653 125.300
24.609 33.653 129.300
24.719 68.020 0.000
24.719 68.020 129.300
25.084 36.337 0.000
25.084 36.337 129.300
25.194 70.704 0.000
25.194 70.704 125.300
25.194 70.704 129.300
25.403 35.265 125.300
25.403 35.265 129.300
25.570 69.439 125.300
25.570 69.439 129.300
25.778 34.000 0.000
25.778 34.000 125.300
25.778 34.000 129.300
25.888 68.367 0.000
25.888 68.367 129.300
33.393 38.804 0.000
33.393 38.804 129.300
33.522 73.176 0.000
33.522 73.176 125.300
33.522 73.176 129.300
33.711 37.732 125.300
33.711 37.732 129.300
33.898 71.911 0.000
33.898 71.911 125.300
33.898 71.911 129.300
34.087 36.466 125.300
34.087 36.466 129.300
34.087 36.467 0.000
34.087 36.467 129.300
34.216 70.839 0.000
34.216 70.839 129.300
34.562 39.150 0.000
34.562 39.150 129.300
34.691 73.523 0.000
34.691 73.523 129.300
34.880 38.078 125.300
34.880 38.078 129.300
35.067 72.258 0.000
35.256 36.813 0.000
35.256 36.813 125.300
35.256 36.813 129.300
35.385 71.186 0.000
35.385 71.186 129.300
37.627 71.121 41.800
37.627 71.121 47.800
38.492 72.716 14.300
38.492 72.716 14.800
38.492 72.716 18.800
38.492 72.716 19.300
38.492 72.716 23.300
38.492 72.716 23.800
38.492 72.716 27.800
38.492 72.716 28.300
38.492 72.716 32.300
38.492 72.716 32.800
38.492 72.716 36.800
38.492 72.716 37.300
38.492 72.716 41.300
38.492 72.716 41.800
38.598 74.234 0.000
38.598 74.234 41.700
38.851 73.379 0.000
38.851 73.379 9.700
38.851 73.379 14.300
38.851 73.379 14.800
38.851 73.379 18.800
38.851 73.379 19.300
38.851 73.379 23.300
38.851 73.379 23.800
38.851 73.379 27.800
38.851 73.379 28.300
38.851 73.379 32.300
38.851 73.379 32.800
38.851 73.379 36.800
38.851 73.379 37.300
38.851 73.379 41.300
38.851 73.379 47.800
38.851 73.379 50.580
38.851 73.379 51.810
38.851 73.379 54.270
38.851 73.379 55.500
38.851 73.379 57.960
38.851 73.379 59.190
38.851 73.379 61.650
38.851 73.379 62.880
38.851 73.379 65.340
38.851 73.379 66.570
38.851 73.379 69.030
38.851 73.379 70.260
38.851 73.379 72.720
38.851 73.379 73.950
38.851 73.379 76.410
38.851 73.379 77.640
38.851 73.379 80.100
38.851 73.379 81.330
38.851 73.379 83.790
38.851 73.379 85.020
38.851 73.379 87.480
38.851 73.379 88.710
38.851 73.379 91.170
38.851 73.379 92.400
38.851 73.379 94.860
38.851 73.379 96.090
38.851 73.379 98.550
38.851 73.379 99.780
38.851 73.379 102.240
38.851 73.379 103.470
38.851 73.379 105.930
38.851 73.379 107.160
38.851 73.379 109.620
38.851 73.379 110.850
38.851 73.379 113.310
38.851 73.379 114.540
38.851 73.379 117.000
38.851 73.379 118.230
38.851 73.379 120.690
38.851 73.379 121.920
38.851 73.379 124.380
38.851 73.379 125.610
38.851 73.379 128.070
38.851 73.379 129.300
39.008 68.923 0.000
39.008 68.923 129.300
39.355 67.754 0.000
39.355 67.754 129.300
39.741 75.022 129.300
39.741 75.022 139.300
40.428 68.072 125.300
40.428 68.072 129.300
41.345 69.617 0.000
41.345 69.617 129.300
41.611 60.158 0.000
41.611 60.158 129.300
41.692 68.448 0.000
41.692 68.448 125.300
41.692 68.448 129.300
41.958 58.989 0.000
41.958 58.989 129.300
42.682 60.476 125.300
42.682 60.476 129.300
42.891 41.622 0.000
42.891 41.622 129.300
42.912 55.775 0.000
42.912 55.775 129.300
43.029 59.307 125.300
43.029 59.307 129.300
43.209 40.550 125.300
43.209 40.550 129.300
43.259 54.606 0.000
43.259 54.606 129.300
43.585 39.284 125.300
43.585 39.284 129.300
43.585 39.285 0.000
43.585 39.285 129.300
43.948 60.852 0.000
43.948 60.852 125.300
43.948 60.852 129.300
43.983 56.093 125.300
43.983 56.093 129.300
44.060 41.969 0.000
44.060 41.969 129.300
44.295 59.683 0.000
44.295 59.683 125.300
44.295 59.683 129.300
44.331 54.924 125.300
44.331 54.924 129.300
44.753 39.632 0.000
44.753 39.632 129.300
45.249 56.468 0.000
45.249 56.468 129.300
45.249 56.469 125.300
45.249 56.469 129.300
45.514 47.009 0.000
45.514 47.009 129.300
45.596 55.299 0.000
45.596 55.299 125.300
45.596 55.299 129.300
45.861 45.841 0.000
45.861 45.841 129.300
45.902 43.243 41.800
45.902 43.243 47.800
46.585 47.327 125.300
46.585 47.327 129.300
47.499 42.381 14.300
47.499 42.381 14.800
47.499 42.381 18.800
47.499 42.381 19.300
47.499 42.381 23.300
47.499 42.381 23.800
47.499 42.381 27.800
47.499 42.381 28.300
47.499 42.381 32.300
47.499 42.381 32.800
47.499 42.381 36.800
47.499 42.381 37.300
47.499 42.381 41.300
47.499 42.381 41.800
47.851 47.703 0.000
47.851 47.703 125.300
47.851 47.703 129.300
48.162 42.022 0.000
48.162 42.022 9.700
48.162 42.022 14.300
48.162 42.022 14.800
48.162 42.022 18.800
48.162 42.022 19.300
48.162 42.022 23.300
48.162 42.022 23.800
48.162 42.022 27.800
48.162 42.022 28.300
48.162 42.022 32.300
48.162 42.022 32.800
48.162 42.022 36.800
48.162 42.022 37.300
48.162 42.022 41.300
48.162 42.022 41.700
48.162 42.022 47.800
48.162 42.022 50.580
48.162 42.022 51.810
48.162 42.022 54.270
48.162 42.022 55.500
48.162 42.022 57.960
48.162 42.022 59.190
48.162 42.022 61.650
48.162 42.022 62.880
48.162 42.022 65.340
48.162 42.022 66.570
48.162 42.022 69.030
48.162 42.022 70.260
48.162 42.022 72.720
48.162 42.022 73.950
48.162 42.022 76.410
48.162 42.022 77.640
48.162 42.022 80.100
48.162 42.022 81.330
48.162 42.022 83.790
48.162 42.022 85.020
48.162 42.022 87.480
48.162 42.022 88.710
48.162 42.022 91.170
48.162 42.022 92.400
48.162 42.022 94.860
48.162 42.022 96.090
48.162 42.022 98.550
48.162 42.022 99.780
48.162 42.022 102.240
48.162 42.022 103.470
48.162 42.022 105.930
48.162 42.022 107.160
48.162 42.022 109.620
48.162 42.022 110.850
48.162 42.022 113.310
48.162 42.022 114.540
48.162 42.022 117.000
48.162 42.022 118.230
48.162 42.022 120.690
48.162 42.022 121.920
48.162 42.022 124.380
48.162 42.022 125.610
48.162 42.022 128.070
48.162 42.022 129.300
48.198 46.534 0.000
48.198 46.534 129.300
49.802 41.131 129.300
49.802 41.131 139.300
70.406 83.494 0.000
70.406 83.494 27.400
70.406 83.494 41.700
88.138 22.555 0.000
88.138 22.555 27.400
88.138 22.555 41.700
88.252 71.244 27.400
88.252 71.244 35.000
93.441 80.689 27.400
93.441 80.689 35.000
95.570 73.372 27.400
95.570 73.372 35.000
98.044 37.590 27.400
98.044 37.590 35.000
98.913 125.194 5.363
98.913 125.194 6.588
99.019 125.228 7.299
99.331 125.326 7.940
99.816 125.479 8.448
100.427 125.672 8.774
101.105 125.886 8.887
101.781 126.100 8.774
101.998 114.278 5.363
102.393 126.292 8.448
102.877 126.445 7.940
103.189 126.543 7.299
103.296 126.577 5.363
103.296 126.577 6.588
106.381 115.662 5.363
107.752 93.922 5.363
107.752 93.922 6.588
107.860 93.956 7.299
108.171 94.054 7.940
108.656 94.207 8.448
109.267 94.400 8.774
109.944 94.614 8.887
110.621 94.828 8.774
111.232 95.020 8.448
111.717 95.173 7.940
112.029 95.272 7.299
112.136 95.305 5.363
112.136 95.305 6.588
112.463 86.222 27.400
112.463 86.222 35.000
122.255 52.568 27.400
122.255 52.568 35.000
136.889 56.824 27.400
136.889 56.824 35.000
139.018 49.508 27.400
139.018 49.508 35.000
164.060 110.735 0.000
164.060 110.735 27.400
182.327 50.810 0.000
182.327 50.810 27.400
3 559 556 606
3 608 559 606
3 560 557 607
3 609 560 607
3 568 562 566
3 602 604 568
3 600 602 568
3 598 600 568
3 566 564 598
3 568 566 598
3 569 563 567
3 603 605 569
3 601 603 569
3 599 601 569
3 567 565 599
3 569 567 599
3 350 556 559
3 491 350 559
3 170 491 559
3 80 164 170
3 247 80 170
3 559 247 170
3 558 556 350
3 351 558 350
3 351 350 491
3 506 351 491
3 506 491 170
3 185 506 170
3 165 185 170
3 165 170 164
3 165 164 80
3 81 165 80
3 81 80 247
3 248 81 247
3 561 248 247
3 561 247 559
3 558 561 559
3 558 559 556
3 351 558 561
3 506 351 561
3 185 506 561
3 81 165 185
3 248 81 185
3 561 248 185
3 173 4 355
3 494 173 355
3 86 99 110
3 91 86 110
3 106 128 133
3 113 106 133
3 142 156 159
3 151 142 159
3 313 308 324
3 328 313 324
3 61 2 84
3 89 61 84
3 117 97 353
3 171 100 117
3 492 171 117
3 353 492 117
3 108 94 119
3 131 108 119
3 262 255 266
3 276 262 266
3 290 280 294
3 304 290 294
3 320 308 324
3 332 320 324
3 414 412 420
3 424 414 420
3 427 422 445
3 452 427 445
3 439 433 459
3 465 439 459
3 468 463 488
3 552 468 488
3 260 253 264
3 273 260 264
3 287 278 292
3 301 287 292
3 318 306 322
3 329 318 322
3 443 431 450
3 457 443 450
3 91 86 122
3 129 91 122
3 113 106 138
3 145 113 138
3 149 142 162
3 166 149 162
3 82 334 470
3 245 82 470
3 136 99 116
3 152 136 116
3 170 154 168
3 491 170 168
3 352 491 168
3 251 249 352
3 96 140 147
3 116 96 147
3 152 116 147
3 168 152 147
3 251 352 168
3 147 251 168
3 136 99 116
3 152 136 116
3 170 154 168
3 491 170 168
3 352 491 168
3 251 249 352
3 96 140 147
3 116 96 147
3 152 116 147
3 168 152 147
3 251 352 168
3 147 251 168
3 117 116 99
3 100 117 99
3 100 99 136
3 137 100 136
3 153 137 136
3 153 136 152
3 153 152 168
3 169 153 168
3 169 168 154
3 155 169 154
3 155 154 170
3 171 155 170
3 492 171 170
3 492 170 491
3 353 492 491
3 353 491 352
3 353 352 249
3 250 353 249
3 250 249 251
3 252 250 251
3 252 251 147
3 148 252 147
3 141 148 147
3 141 147 140
3 141 140 96
3 97 141 96
3 97 96 116
3 117 97 116
3 137 100 117
3 153 137 117
3 171 155 169
3 492 171 169
3 353 492 169
3 252 250 353
3 97 141 148
3 117 97 148
3 153 117 148
3 169 153 148
3 252 353 169
3 148 252 169
3 117 97 353
3 171 100 117
3 492 171 117
3 353 492 117
3 98 97 117
3 118 98 117
3 118 117 100
3 101 118 100
3 101 100 171
3 172 101 171
3 493 172 171
3 493 171 492
3 354 493 492
3 354 492 353
3 354 353 97
3 98 354 97
3 118 98 354
3 172 101 118
3 493 172 118
3 354 493 118
3 231 64 336
3 474 231 336
3 231 64 336
3 474 231 336
3 65 64 231
3 232 65 231
3 475 232 231
3 475 231 474
3 337 475 474
3 337 474 336
3 337 336 64
3 65 337 64
3 232 65 337
3 475 232 337
3 186 16 367
3 507 186 367
3 173 4 355
3 494 173 355
3 5 4 173
3 174 5 173
3 495 174 173
3 495 173 494
3 356 495 494
3 356 494 355
3 356 355 4
3 5 356 4
3 174 5 356
3 495 174 356
3 175 6 357
3 496 175 357
3 233 66 338
3 476 233 338
3 233 66 338
3 476 233 338
3 67 66 233
3 234 67 233
3 477 234 233
3 477 233 476
3 339 477 476
3 339 476 338
3 339 338 66
3 67 339 66
3 234 67 339
3 477 234 339
3 175 6 357
3 496 175 357
3 7 6 175
3 176 7 175
3 497 176 175
3 497 175 496
3 358 497 496
3 358 496 357
3 358 357 6
3 7 358 6
3 176 7 358
3 497 176 358
3 177 8 359
3 498 177 359
3 235 68 340
3 478 235 340
3 235 68 340
3 478 235 340
3 69 68 235
3 236 69 235
3 479 236 235
3 479 235 478
3 341 479 478
3 341 478 340
3 341 340 68
3 69 341 68
3 236 69 341
3 479 236 341
3 177 8 359
3 498 177 359
3 9 8 177
3 178 9 177
3 499 178 177
3 499 177 498
3 360 499 498
3 360 498 359
3 360 359 8
3 9 360 8
3 178 9 360
3 499 178 360
3 179 10 361
3 500 179 361
3 237 70 342
3 480 237 342
3 237 70 342
3 480 237 342
3 71 70 237
3 238 71 237
3 481 238 237
3 481 237 480
3 343 481 480
3 343 480 342
3 343 342 70
3 71 343 70
3 238 71 343
3 481 238 343
3 179 10 361
3 500 179 361
3 11 10 179
3 180 11 179
3 501 180 179
3 501 179 500
3 362 501 500
3 362 500 361
3 362 361 10
3 11 362 10
3 180 11 362
3 501 180 362
3 181 12 363
3 502 181 363
3 239 72 344
3 482 239 344
3 239 72 344
3 482 239 344
3 73 72 239
3 240 73 239
3 483 240 239
3 483 239 482
3 345 483 482
3 345 482 344
3 345 344 72
3 73 345 72
3 240 73 345
3 483 240 345
3 181 12 363
3 502 181 363
3 13 12 181
3 182 13 181
3 503 182 181
3 503 181 502
3 364 503 502
3 364 502 363
3 364 363 12
3 13 364 12
3 182 13 364
3 503 182 364
3 183 14 365
3 504 183 365
3 241 74 346
3 484 241 346
3 241 74 346
3 484 241 346
3 75 74 241
3 242 75 241
3 485 242 241
3 485 241 484
3 347 485 484
3 347 484 346
3 347 346 74
3 75 347 74
3 242 75 347
3 485 242 347
3 183 14 365
3 504 183 365
3 15 14 183
3 184 15 183
3 505 184 183
3 505 183 504
3 366 505 504
3 366 504 365
3 366 365 14
3 15 366 14
3 184 15 366
3 505 184 366
3 243 76 348
3 486 243 348
3 243 76 348
3 486 243 348
3 77 76 243
3 244 77 243
3 487 244 243
3 487 243 486
3 349 487 486
3 349 486 348
3 349 348 76
3 77 349 76
3 244 77 349
3 487 244 349
3 82 334 470
3 245 82 470
3 335 334 82
3 83 335 82
3 83 82 245
3 246 83 245
3 471 246 245
3 471 245 470
3 335 471 470
3 335 470 334
3 83 335 471
3 246 83 471
3 260 253 264
3 273 260 264
3 254 253 260
3 261 254 260
3 275 261 260
3 275 260 273
3 265 275 273
3 265 273 264
3 265 264 253
3 254 265 253
3 261 254 265
3 275 261 265
3 287 278 292
3 301 287 292
3 279 278 287
3 289 279 287
3 303 289 287
3 303 287 301
3 293 303 301
3 293 301 292
3 293 292 278
3 279 293 278
3 289 279 293
3 303 289 293
3 318 306 322
3 329 318 322
3 307 306 318
3 319 307 318
3 331 319 318
3 331 318 329
3 323 331 329
3 323 329 322
3 323 322 306
3 307 323 306
3 319 307 323
3 331 319 323
3 443 431 450
3 457 443 450
3 432 431 443
3 444 432 443
3 458 444 443
3 458 443 457
3 451 458 457
3 451 457 450
3 451 450 431
3 432 451 431
3 444 432 451
3 458 444 451
3 149 142 162
3 166 149 162
3 144 142 149
3 150 144 149
3 167 150 149
3 167 149 166
3 163 167 166
3 163 166 162
3 163 162 142
3 144 163 142
3 150 144 163
3 167 150 163
3 113 106 138
3 145 113 138
3 107 106 113
3 115 107 113
3 146 115 113
3 146 113 145
3 139 146 145
3 139 145 138
3 139 138 106
3 107 139 106
3 115 107 139
3 146 115 139
3 91 86 122
3 129 91 122
3 88 86 91
3 93 88 91
3 130 93 91
3 130 91 129
3 123 130 129
3 123 129 122
3 123 122 86
3 88 123 86
3 93 88 123
3 130 93 123
3 61 2 84
3 89 61 84
3 3 2 61
3 63 3 61
3 90 63 61
3 90 61 89
3 85 90 89
3 85 89 84
3 85 84 2
3 3 85 2
3 63 3 85
3 90 63 85
3 108 94 119
3 131 108 119
3 95 94 108
3 109 95 108
3 132 109 108
3 132 108 131
3 121 132 131
3 121 131 119
3 121 119 94
3 95 121 94
3 109 95 121
3 132 109 121
3 262 255 266
3 276 262 266
3 257 255 262
3 263 257 262
3 277 263 262
3 277 262 276
3 268 277 276
3 268 276 266
3 268 266 255
3 257 268 255
3 263 257 268
3 277 263 268
3 290 280 294
3 304 290 294
3 282 280 290
3 291 282 290
3 305 291 290
3 305 290 304
3 296 305 304
3 296 304 294
3 296 294 280
3 282 296 280
3 291 282 296
3 305 291 296
3 320 308 324
3 332 320 324
3 310 308 320
3 321 310 320
3 333 321 320
3 333 320 332
3 325 333 332
3 325 332 324
3 325 324 308
3 310 325 308
3 321 310 325
3 333 321 325
3 468 463 488
3 552 468 488
3 464 463 468
3 469 464 468
3 553 469 468
3 553 468 552
3 490 553 552
3 490 552 488
3 490 488 463
3 464 490 463
3 469 464 490
3 553 469 490
3 439 433 459
3 465 439 459
3 434 433 439
3 440 434 439
3 467 440 439
3 467 439 465
3 460 467 465
3 460 465 459
3 460 459 433
3 434 460 433
3 440 434 460
3 467 440 460
3 427 422 445
3 452 427 445
3 423 422 427
3 428 423 427
3 454 428 427
3 454 427 452
3 447 454 452
3 447 452 445
3 447 445 422
3 423 447 422
3 428 423 447
3 454 428 447
3 414 412 420
3 424 414 420
3 413 412 414
3 415 413 414
3 426 415 414
3 426 414 424
3 421 426 424
3 421 424 420
3 421 420 412
3 413 421 412
3 415 413 421
3 426 415 421
3 554 160 0
3 416 554 0
3 87 62 78
3 102 87 78
3 92 111 126
3 104 92 126
3 114 134 157
3 143 114 157
3 288 274 269
3 283 288 269
3 316 302 297
3 311 316 297
3 330 326 437
3 441 330 437
3 466 489 472
3 455 466 472
3 453 461 448
3 435 453 448
3 425 446 429
3 418 425 429
3 295 309 314
3 299 295 314
3 267 281 285
3 271 267 285
3 120 256 258
3 124 120 258
3 554 160 0
3 416 554 0
3 554 160 0
3 416 554 0
3 555 161 160
3 555 160 554
3 417 555 554
3 417 554 416
3 417 416 0
3 1 417 0
3 1 0 160
3 161 1 160
3 555 161 1
3 417 555 1
3 114 134 157
3 143 114 157
3 135 134 114
3 115 135 114
3 115 114 143
3 144 115 143
3 158 144 143
3 158 143 157
3 135 158 157
3 135 157 134
3 115 135 158
3 144 115 158
3 87 62 78
3 102 87 78
3 63 62 87
3 88 63 87
3 103 88 87
3 103 87 102
3 79 103 102
3 79 102 78
3 79 78 62
3 63 79 62
3 88 63 79
3 103 88 79
3 92 111 126
3 104 92 126
3 112 111 92
3 93 112 92
3 93 92 104
3 105 93 104
3 127 105 104
3 127 104 126
3 112 127 126
3 112 126 111
3 93 112 127
3 105 93 127
3 288 274 269
3 283 288 269
3 289 275 274
3 289 274 288
3 284 289 288
3 284 288 283
3 284 283 269
3 270 284 269
3 270 269 274
3 275 270 274
3 289 275 270
3 284 289 270
3 316 302 297
3 311 316 297
3 317 303 302
3 317 302 316
3 312 317 316
3 312 316 311
3 312 311 297
3 298 312 297
3 298 297 302
3 303 298 302
3 317 303 298
3 312 317 298
3 330 326 437
3 441 330 437
3 327 326 330
3 331 327 330
3 442 331 330
3 442 330 441
3 438 442 441
3 438 441 437
3 438 437 326
3 327 438 326
3 331 327 438
3 442 331 438
3 453 461 448
3 435 453 448
3 454 462 461
3 454 461 453
3 454 453 435
3 436 454 435
3 436 435 448
3 449 436 448
3 462 449 448
3 462 448 461
3 454 462 449
3 436 454 449
3 466 489 472
3 455 466 472
3 467 490 489
3 467 489 466
3 467 466 455
3 456 467 455
3 456 455 472
3 473 456 472
3 490 473 472
3 490 472 489
3 467 490 473
3 456 467 473
3 425 446 429
3 418 425 429
3 426 447 446
3 426 446 425
3 426 425 418
3 419 426 418
3 419 418 429
3 430 419 429
3 447 430 429
3 447 429 446
3 426 447 430
3 419 426 430
3 295 309 314
3 299 295 314
3 310 309 295
3 296 310 295
3 296 295 299
3 300 296 299
3 315 300 299
3 315 299 314
3 310 315 314
3 310 314 309
3 296 310 315
3 300 296 315
3 267 281 285
3 271 267 285
3 282 281 267
3 268 282 267
3 268 267 271
3 272 268 271
3 286 272 271
3 286 271 285
3 282 286 285
3 282 285 281
3 268 282 286
3 272 268 286
3 120 256 258
3 124 120 258
3 257 256 120
3 121 257 120
3 121 120 124
3 125 121 124
3 259 125 124
3 259 124 258
3 257 259 258
3 257 258 256
3 121 257 259
3 125 121 259
3 554 160 0
3 416 554 0
3 367 507 186
3 16 367 186
3 411 551 230
3 60 411 230
3 411 551 230
3 60 411 230
3 229 550 551
3 229 551 230
3 229 230 60
3 59 229 60
3 59 60 411
3 410 59 411
3 550 410 411
3 550 411 551
3 410 550 229
3 59 410 229
3 410 550 229
3 59 410 229
3 410 550 229
3 59 410 229
3 228 549 550
3 228 550 229
3 228 229 59
3 58 228 59
3 58 59 410
3 409 58 410
3 549 409 410
3 549 410 550
3 409 549 228
3 58 409 228
3 409 549 228
3 58 409 228
3 409 549 228
3 58 409 228
3 227 548 549
3 227 549 228
3 227 228 58
3 57 227 58
3 57 58 409
3 408 57 409
3 548 408 409
3 548 409 549
3 408 548 227
3 57 408 227
3 408 548 227
3 57 408 227
3 408 548 227
3 57 408 227
3 226 547 548
3 226 548 227
3 226 227 57
3 56 226 57
3 56 57 408
3 407 56 408
3 547 407 408
3 547 408 548
3 407 547 226
3 56 407 226
3 407 547 226
3 56 407 226
3 407 547 226
3 56 407 226
3 225 546 547
3 225 547 226
3 225 226 56
3 55 225 56
3 55 56 407
3 406 55 407
3 546 406 407
3 546 407 547
3 406 546 225
3 55 406 225
3 406 546 225
3 55 406 225
3 406 546 225
3 55 406 225
3 224 545 546
3 224 546 225
3 224 225 55
3 54 224 55
3 54 55 406
3 405 54 406
3 545 405 406
3 545 406 546
3 405 545 224
3 54 405 224
3 405 545 224
3 54 405 224
3 405 545 224
3 54 405 224
3 223 544 545
3 223 545 224
3 223 224 54
3 53 223 54
3 53 54 405
3 404 53 405
3 544 404 405
3 544 405 545
3 404 544 223
3 53 404 223
3 404 544 223
3 53 404 223
3 404 544 223
3 53 404 223
3 222 543 544
3 222 544 223
3 222 223 53
3 52 222 53
3 52 53 404
3 403 52 404
3 543 403 404
3 543 404 544
3 403 543 222
3 52 403 222
3 403 543 222
3 52 403 222
3 403 543 222
3 52 403 222
3 221 542 543
3 221 543 222
3 221 222 52
3 51 221 52
3 51 52 403
3 402 51 403
3 542 402 403
3 542 403 543
3 402 542 221
3 51 402 221
3 402 542 221
3 51 402 221
3 402 542 221
3 51 402 221
3 220 541 542
3 220 542 221
3 220 221 51
3 50 220 51
3 50 51 402
3 401 50 402
3 541 401 402
3 541 402 542
3 401 541 220
3 50 401 220
3 401 541 220
3 50 401 220
3 401 541 220
3 50 401 220
3 219 540 541
3 219 541 220
3 219 220 50
3 49 219 50
3 49 50 401
3 400 49 401
3 540 400 401
3 540 401 541
3 400 540 219
3 49 400 219
3 400 540 219
3 49 400 219
3 400 540 219
3 49 400 219
3 218 539 540
3 218 540 219
3 218 219 49
3 48 218 49
3 48 49 400
3 399 48 400
3 539 399 400
3 539 400 540
3 399 539 218
3 48 399 218
3 399 539 218
3 48 399 218
3 399 539 218
3 48 399 218
3 217 538 539
3 217 539 218
3 217 218 48
3 47 217 48
3 47 48 399
3 398 47 399
3 538 398 399
3 538 399 539
3 398 538 217
3 47 398 217
3 398 538 217
3 47 398 217
3 398 538 217
3 47 398 217
3 216 537 538
3 216 538 217
3 216 217 47
3 46 216 47
3 46 47 398
3 397 46 398
3 537 397 398
3 537 398 538
3 397 537 216
3 46 397 216
3 397 537 216
3 46 397 216
3 397 537 216
3 46 397 216
3 215 536 537
3 215 537 216
3 215 216 46
3 45 215 46
3 45 46 397
3 396 45 397
3 536 396 397
3 536 397 537
3 396 536 215
3 45 396 215
3 396 536 215
3 45 396 215
3 396 536 215
3 45 396 215
3 214 535 536
3 214 536 215
3 214 215 45
3 44 214 45
3 44 45 396
3 395 44 396
3 535 395 396
3 535 396 536
3 395 535 214
3 44 395 214
3 395 535 214
3 44 395 214
3 395 535 214
3 44 395 214
3 213 534 535
3 213 535 214
3 213 214 44
3 43 213 44
3 43 44 395
3 394 43 395
3 534 394 395
3 534 395 535
3 394 534 213
3 43 394 213
3 394 534 213
3 43 394 213
3 394 534 213
3 43 394 213
3 212 533 534
3 212 534 213
3 212 213 43
3 42 212 43
3 42 43 394
3 393 42 394
3 533 393 394
3 533 394 534
3 393 533 212
3 42 393 212
3 393 533 212
3 42 393 212
3 393 533 212
3 42 393 212
3 211 532 533
3 211 533 212
3 211 212 42
3 41 211 42
3 41 42 393
3 392 41 393
3 532 392 393
3 532 393 533
3 392 532 211
3 41 392 211
3 392 532 211
3 41 392 211
3 392 532 211
3 41 392 211
3 210 531 532
3 210 532 211
3 210 211 41
3 40 210 41
3 40 41 392
3 391 40 392
3 531 391 392
3 531 392 532
3 391 531 210
3 40 391 210
3 391 531 210
3 40 391 210
3 391 531 210
3 40 391 210
3 209 530 531
3 209 531 210
3 209 210 40
3 39 209 40
3 39 40 391
3 390 39 391
3 530 390 391
3 530 391 531
3 390 530 209
3 39 390 209
3 390 530 209
3 39 390 209
3 390 530 209
3 39 390 209
3 208 529 530
3 208 530 209
3 208 209 39
3 38 208 39
3 38 39 390
3 389 38 390
3 529 389 390
3 529 390 530
3 389 529 208
3 38 389 208
3 389 529 208
3 38 389 208
3 389 529 208
3 38 389 208
3 207 528 529
3 207 529 208
3 207 208 38
3 37 207 38
3 37 38 389
3 388 37 389
3 528 388 389
3 528 389 529
3 388 528 207
3 37 388 207
3 388 528 207
3 37 388 207
3 388 528 207
3 37 388 207
3 206 527 528
3 206 528 207
3 206 207 37
3 36 206 37
3 36 37 388
3 387 36 388
3 527 387 388
3 527 388 528
3 387 527 206
3 36 387 206
3 387 527 206
3 36 387 206
3 387 527 206
3 36 387 206
3 205 526 527
3 205 527 206
3 205 206 36
3 35 205 36
3 35 36 387
3 386 35 387
3 526 386 387
3 526 387 527
3 386 526 205
3 35 386 205
3 386 526 205
3 35 386 205
3 386 526 205
3 35 386 205
3 204 525 526
3 204 526 205
3 204 205 35
3 34 204 35
3 34 35 386
3 385 34 386
3 525 385 386
3 525 386 526
3 385 525 204
3 34 385 204
3 385 525 204
3 34 385 204
3 385 525 204
3 34 385 204
3 203 524 525
3 203 525 204
3 203 204 34
3 33 203 34
3 33 34 385
3 384 33 385
3 524 384 385
3 524 385 525
3 384 524 203
3 33 384 203
3 384 524 203
3 33 384 203
3 384 524 203
3 33 384 203
3 202 523 524
3 202 524 203
3 202 203 33
3 32 202 33
3 32 33 384
3 383 32 384
3 523 383 384
3 523 384 524
3 383 523 202
3 32 383 202
3 383 523 202
3 32 383 202
3 383 523 202
3 32 383 202
3 201 522 523
3 201 523 202
3 201 202 32
3 31 201 32
3 31 32 383
3 382 31 383
3 522 382 383
3 522 383 523
3 382 522 201
3 31 382 201
3 382 522 201
3 31 382 201
3 382 522 201
3 31 382 201
3 200 521 522
3 200 522 201
3 200 201 31
3 30 200 31
3 30 31 382
3 381 30 382
3 521 381 382
3 521 382 522
3 381 521 200
3 30 381 200
3 381 521 200
3 30 381 200
3 381 521 200
3 30 381 200
3 199 520 521
3 199 521 200
3 199 200 30
3 29 199 30
3 29 30 381
3 380 29 381
3 520 380 381
3 520 381 521
3 380 520 199
3 29 380 199
3 380 520 199
3 29 380 199
3 380 520 199
3 29 380 199
3 198 519 520
3 198 520 199
3 198 199 29
3 28 198 29
3 28 29 380
3 379 28 380
3 519 379 380
3 519 380 520
3 379 519 198
3 28 379 198
3 379 519 198
3 28 379 198
3 379 519 198
3 28 379 198
3 197 518 519
3 197 519 198
3 197 198 28
3 27 197 28
3 27 28 379
3 378 27 379
3 518 378 379
3 518 379 519
3 378 518 197
3 27 378 197
3 378 518 197
3 27 378 197
3 378 518 197
3 27 378 197
3 196 517 518
3 196 518 197
3 196 197 27
3 26 196 27
3 26 27 378
3 377 26 378
3 517 377 378
3 517 378 518
3 377 517 196
3 26 377 196
3 377 517 196
3 26 377 196
3 377 517 196
3 26 377 196
3 195 516 517
3 195 517 196
3 195 196 26
3 25 195 26
3 25 26 377
3 376 25 377
3 516 376 377
3 516 377 517
3 376 516 195
3 25 376 195
3 376 516 195
3 25 376 195
3 376 516 195
3 25 376 195
3 194 515 516
3 194 516 195
3 194 195 25
3 24 194 25
3 24 25 376
3 375 24 376
3 515 375 376
3 515 376 516
3 375 515 194
3 24 375 194
3 375 515 194
3 24 375 194
3 375 515 194
3 24 375 194
3 193 514 515
3 193 515 194
3 193 194 24
3 23 193 24
3 23 24 375
3 374 23 375
3 514 374 375
3 514 375 515
3 374 514 193
3 23 374 193
3 374 514 193
3 23 374 193
3 374 514 193
3 23 374 193
3 192 513 514
3 192 514 193
3 192 193 23
3 22 192 23
3 22 23 374
3 373 22 374
3 513 373 374
3 513 374 514
3 373 513 192
3 22 373 192
3 373 513 192
3 22 373 192
3 373 513 192
3 22 373 192
3 191 512 513
3 191 513 192
3 191 192 22
3 21 191 22
3 21 22 373
3 372 21 373
3 512 372 373
3 512 373 513
3 372 512 191
3 21 372 191
3 372 512 191
3 21 372 191
3 372 512 191
3 21 372 191
3 190 511 512
3 190 512 191
3 190 191 21
3 20 190 21
3 20 21 372
3 371 20 372
3 511 371 372
3 511 372 512
3 371 511 190
3 20 371 190
3 371 511 190
3 20 371 190
3 371 511 190
3 20 371 190
3 189 510 511
3 189 511 190
3 189 190 20
3 19 189 20
3 19 20 371
3 370 19 371
3 510 370 371
3 510 371 511
3 370 510 189
3 19 370 189
3 370 510 189
3 19 370 189
3 370 510 189
3 19 370 189
3 188 509 510
3 188 510 189
3 188 189 19
3 18 188 19
3 18 19 370
3 369 18 370
3 509 369 370
3 509 370 510
3 369 509 188
3 18 369 188
3 369 509 188
3 18 369 188
3 369 509 188
3 18 369 188
3 187 508 509
3 187 509 188
3 187 188 18
3 17 187 18
3 17 18 369
3 368 17 369
3 508 368 369
3 508 369 509
3 368 508 187
3 17 368 187
3 368 508 187
3 17 368 187
3 367 507 186
3 16 367 186
3 368 508 507
3 368 507 367
3 368 367 16
3 17 368 16
3 17 16 186
3 187 17 186
3 508 187 186
3 508 186 507
3 368 508 187
3 17 368 187
3 585 578 584
3 596 585 584
3 607 606 608
3 609 607 608
3 609 608 559
3 560 609 559
3 557 560 559
3 557 559 556
3 607 557 556
3 607 556 606
3 605 569 568
3 605 568 604
3 603 605 604
3 603 604 602
3 603 602 600
3 601 603 600
3 599 601 600
3 599 600 598
3 599 598 564
3 565 599 564
3 565 564 566
3 567 565 566
3 567 566 562
3 563 567 562
3 563 562 568
3 569 563 568
3 583 582 596
3 597 583 596
3 571 570 585
3 586 571 585
3 586 571 572
3 587 573 588
3 587 572 573
3 574 589 588
3 573 574 588
3 575 590 589
3 574 575 589
3 576 591 590
3 575 576 590
3 577 592 591
3 576 577 591
3 579 593 592
3 577 579 592
3 580 594 593
3 579 580 593
3 581 595 594
3 580 581 594
3 583 597 595
3 581 583 595
3 586 572 587
