OFF
366 781 0
0.000 54.496 0.000
0.000 54.496 2.400
0.000 54.496 2.730
0.000 54.496 5.140
0.000 54.496 5.470
0.000 54.496 7.880
0.000 54.496 8.210
0.000 54.496 10.620
0.000 54.496 10.950
0.000 54.496 13.360
0.000 54.496 13.690
0.000 54.496 16.100
0.000 54.496 16.430
0.000 54.496 20.600
0.073 54.253 0.000
0.073 54.253 20.600
0.214 54.666 20.230
0.214 54.666 20.600
0.243 54.569 0.000
0.243 54.569 20.600
0.287 54.423 2.730
0.287 54.423 20.230
0.316 54.325 0.000
0.316 54.325 2.400
0.316 54.325 2.730
0.316 54.325 5.140
0.316 54.325 5.470
0.316 54.325 7.880
0.316 54.325 8.210
0.316 54.325 10.620
0.316 54.325 10.950
0.316 54.325 13.360
0.316 54.325 13.690
0.316 54.325 16.100
0.316 54.325 16.430
0.316 54.325 20.200
0.316 54.325 20.230
0.316 54.325 20.600
0.317 54.323 2.730
0.317 54.323 20.230
1.770 49.458 0.000
1.770 49.458 16.430
1.770 49.458 20.200
5.034 56.105 20.230
5.034 56.105 20.600
5.062 56.008 0.000
5.062 56.008 20.600
5.106 55.862 2.730
5.106 55.862 20.230
5.135 55.764 0.000
5.135 55.764 2.730
5.135 55.764 20.230
5.135 55.764 20.600
5.232 55.794 0.000
5.232 55.794 20.200
5.306 56.080 0.000
5.306 56.080 20.600
5.349 55.934 2.730
5.349 55.934 3.810
5.349 55.934 5.470
5.349 55.934 6.550
5.349 55.934 8.210
5.349 55.934 9.290
5.349 55.934 10.950
5.349 55.934 12.030
5.349 55.934 13.690
5.349 55.934 14.770
5.349 55.934 16.430
5.349 55.934 17.510
5.378 55.837 0.000
5.378 55.837 2.730
5.378 55.837 3.810
5.378 55.837 5.470
5.378 55.837 6.550
5.378 55.837 8.210
5.378 55.837 9.290
5.378 55.837 10.950
5.378 55.837 12.030
5.378 55.837 13.690
5.378 55.837 14.770
5.378 55.837 16.430
5.378 55.837 17.510
5.378 55.837 20.600
6.686 50.926 0.000
6.686 50.926 20.200
9.322 57.279 0.000
9.322 57.279 17.700
9.394 57.036 0.000
9.394 57.036 17.700
9.565 57.352 0.000
9.565 57.352 17.700
9.638 57.108 0.000
9.638 57.108 17.700
11.116 56.861 0.000
11.116 56.861 2.500
11.392 56.988 0.000
11.392 56.988 2.500
11.664 57.160 0.000
11.664 57.160 2.500
11.879 57.336 0.000
11.879 57.336 2.500
12.052 57.511 0.000
12.052 57.511 2.500
12.207 57.706 0.000
12.207 57.706 2.500
12.360 57.877 0.000
12.360 57.877 2.500
12.542 58.033 0.000
12.542 58.033 2.500
12.555 52.042 0.000
12.555 52.042 2.500
12.704 58.151 0.000
12.704 58.151 2.500
12.924 58.286 0.000
12.924 58.286 2.500
13.093 58.372 0.000
13.093 58.372 2.500
13.257 58.443 0.000
13.257 58.443 2.500
13.410 58.500 0.000
13.410 58.500 17.700
13.483 58.257 0.000
13.483 58.257 17.700
13.532 58.537 0.000
13.532 58.537 2.500
13.653 58.573 0.000
13.653 58.573 17.700
13.726 58.329 0.000
13.726 58.329 17.700
14.846 58.929 0.000
14.846 58.929 2.500
15.066 4.940 0.000
15.066 4.940 16.400
15.107 58.053 0.000
15.107 58.053 2.500
16.203 0.243 0.000
16.203 0.243 17.700
16.276 0.000 0.000
16.276 0.000 2.400
16.276 0.000 2.730
16.276 0.000 5.140
16.276 0.000 5.470
16.276 0.000 7.880
16.276 0.000 8.210
16.276 0.000 10.620
16.276 0.000 10.950
16.276 0.000 13.360
16.276 0.000 13.690
16.276 0.000 16.100
16.276 0.000 16.430
16.276 0.000 17.700
16.276 58.402 0.000
16.276 58.402 2.500
16.446 0.316 0.000
16.446 0.316 17.700
16.447 0.316 0.000
16.447 0.316 1.080
16.447 0.316 2.400
16.447 0.316 2.730
16.447 0.316 3.810
16.447 0.316 5.140
16.447 0.316 5.470
16.447 0.316 6.550
16.447 0.316 7.880
16.447 0.316 8.210
16.447 0.316 9.290
16.447 0.316 10.620
16.447 0.316 10.950
16.447 0.316 12.030
16.447 0.316 13.360
16.447 0.316 13.690
16.447 0.316 14.770
16.447 0.316 16.100
16.447 0.316 16.400
16.447 0.316 16.430
16.447 0.316 17.510
16.476 0.219 0.000
16.476 0.219 1.080
16.476 0.219 2.730
16.476 0.219 3.810
16.476 0.219 5.470
16.476 0.219 6.550
16.476 0.219 8.210
16.476 0.219 9.290
16.476 0.219 10.950
16.476 0.219 12.030
16.476 0.219 13.690
16.476 0.219 14.770
16.476 0.219 16.430
16.476 0.219 17.510
16.519 0.072 0.000
16.519 0.072 17.700
17.499 59.721 0.000
17.499 59.721 17.700
17.571 59.478 0.000
17.571 59.478 17.700
17.621 5.703 0.000
17.621 5.703 16.400
17.715 53.583 0.000
17.715 53.583 2.500
17.742 59.794 0.000
17.742 59.794 17.700
17.815 59.550 0.000
17.815 59.550 17.700
19.002 1.079 0.000
19.002 1.079 16.400
21.587 60.942 0.000
21.587 60.942 17.700
21.660 60.699 0.000
21.660 60.699 17.700
21.831 61.015 0.000
21.831 61.015 17.700
21.839 59.321 0.000
21.839 59.321 2.500
21.903 60.771 0.000
21.903 60.771 17.700
23.480 2.416 0.000
23.480 2.416 17.700
23.553 2.173 0.000
23.553 2.173 17.700
23.724 2.489 0.000
23.724 2.489 17.700
23.796 2.245 0.000
23.796 2.245 17.700
25.555 62.127 0.000
25.555 62.127 17.700
25.598 61.981 2.730
25.598 61.981 3.810
25.598 61.981 5.470
25.598 61.981 6.550
25.598 61.981 8.210
25.598 61.981 9.290
25.598 61.981 10.950
25.598 61.981 12.030
25.598 61.981 13.690
25.598 61.981 14.770
25.598 61.981 16.430
25.598 61.981 17.510
25.627 61.883 0.000
25.627 61.883 2.400
25.627 61.883 2.730
25.627 61.883 3.810
25.627 61.883 5.140
25.627 61.883 5.470
25.627 61.883 6.550
25.627 61.883 7.880
25.627 61.883 8.210
25.627 61.883 9.290
25.627 61.883 10.620
25.627 61.883 10.950
25.627 61.883 12.030
25.627 61.883 13.360
25.627 61.883 13.690
25.627 61.883 14.770
25.627 61.883 16.100
25.627 61.883 16.430
25.627 61.883 17.510
25.627 61.883 17.700
25.798 62.199 0.000
25.798 62.199 2.400
25.798 62.199 2.730
25.798 62.199 5.140
25.798 62.199 5.470
25.798 62.199 7.880
25.798 62.199 8.210
25.798 62.199 10.620
25.798 62.199 10.950
25.798 62.199 13.360
25.798 62.199 13.690
25.798 62.199 16.100
25.798 62.199 16.430
25.798 62.199 17.700
25.871 61.956 0.000
25.871 61.956 17.700
26.019 60.569 0.000
26.019 60.569 2.500
26.025 45.302 0.000
26.025 45.302 2.500
28.080 3.790 0.000
28.080 3.790 17.700
28.153 3.547 0.000
28.153 3.547 17.700
28.323 3.863 0.000
28.323 3.863 17.700
28.396 3.619 0.000
28.396 3.619 17.700
30.206 46.551 0.000
30.206 46.551 2.500
32.680 5.163 0.000
32.680 5.163 17.700
32.753 4.920 0.000
32.753 4.920 17.700
32.923 5.236 0.000
32.923 5.236 17.700
32.996 4.992 0.000
32.996 4.992 17.700
35.526 11.076 0.000
35.526 11.076 2.500
35.904 9.812 0.000
35.904 9.812 2.500
37.280 6.537 0.000
37.280 6.537 17.700
37.352 6.294 0.000
37.352 6.294 17.700
37.523 6.610 0.000
37.523 6.610 17.700
37.595 6.366 0.000
37.595 6.366 17.700
39.129 7.089 0.000
39.129 7.089 2.500
40.370 12.522 0.000
40.370 12.522 2.500
41.758 7.874 0.000
41.758 7.874 1.080
41.758 7.874 2.400
41.758 7.874 2.500
41.758 7.874 2.730
41.758 7.874 3.810
41.758 7.874 5.140
41.758 7.874 5.470
41.758 7.874 6.550
41.758 7.874 7.880
41.758 7.874 8.210
41.758 7.874 9.290
41.758 7.874 10.620
41.758 7.874 10.950
41.758 7.874 12.030
41.758 7.874 13.360
41.758 7.874 13.690
41.758 7.874 14.770
41.758 7.874 16.100
41.758 7.874 16.430
41.758 7.874 17.510
41.758 7.874 17.700
41.787 7.777 0.000
41.787 7.777 1.080
41.787 7.777 2.730
41.787 7.777 3.810
41.787 7.777 5.470
41.787 7.777 6.550
41.787 7.777 8.210
41.787 7.777 9.290
41.787 7.777 10.950
41.787 7.777 12.030
41.787 7.777 13.690
41.787 7.777 14.770
41.787 7.777 16.430
41.787 7.777 17.510
41.831 7.631 0.000
41.831 7.631 17.700
42.001 7.947 0.000
42.001 7.947 17.700
42.074 7.703 0.000
42.074 7.703 2.400
42.074 7.703 2.730
42.074 7.703 5.140
42.074 7.703 5.470
42.074 7.703 7.880
42.074 7.703 8.210
42.074 7.703 10.620
42.074 7.703 10.950
42.074 7.703 13.360
42.074 7.703 13.690
42.074 7.703 16.100
42.074 7.703 16.430
42.074 7.703 17.700
3 155 131 196
3 204 155 196
3 239 314 157
3 23 239 157
3 298 296 310
3 308 298 310
3 312 308 310
3 151 198 109
3 133 151 109
3 129 133 109
3 123 129 109
3 117 123 109
3 115 117 109
3 113 115 109
3 111 113 109
3 107 111 109
3 105 107 109
3 103 105 109
3 101 103 109
3 99 101 109
3 97 99 109
3 95 97 109
3 93 95 109
3 276 212 274
3 286 276 274
3 53 83 40
3 22 53 40
3 38 20 47
3 50 38 47
3 176 155 312
3 334 176 312
3 218 216 220
3 222 218 220
3 280 278 282
3 284 280 282
3 290 288 292
3 294 290 292
3 302 300 304
3 306 302 304
3 137 135 153
3 190 137 153
3 348 312 350
3 352 348 350
3 314 353 138
3 157 314 138
3 23 157 138
3 353 314 239
3 259 353 239
3 1 259 239
3 23 138 1
3 239 23 1
3 314 353 138
3 157 314 138
3 23 157 138
3 353 314 239
3 259 353 239
3 1 259 239
3 23 138 1
3 239 23 1
3 2 1 138
3 139 2 138
3 354 139 138
3 354 138 353
3 354 353 314
3 316 354 314
3 316 314 157
3 158 316 157
3 24 158 157
3 24 157 23
3 240 24 23
3 240 23 239
3 240 239 314
3 316 240 314
3 354 316 314
3 354 314 353
3 260 354 353
3 260 353 259
3 260 259 1
3 2 260 1
3 316 354 139
3 158 316 139
3 24 158 139
3 354 316 240
3 260 354 240
3 2 260 240
3 24 139 2
3 240 24 2
3 14 0 18
3 22 14 18
3 13 0 14
3 15 13 14
3 37 15 14
3 37 14 22
3 19 37 22
3 19 22 18
3 19 18 0
3 13 19 0
3 15 13 19
3 37 15 19
3 49 45 55
3 69 49 55
3 46 45 49
3 52 46 49
3 82 52 49
3 82 49 69
3 56 82 69
3 56 69 55
3 56 55 45
3 46 56 45
3 52 46 56
3 82 52 56
3 318 355 140
3 160 318 140
3 25 160 140
3 355 318 242
3 261 355 242
3 3 261 242
3 25 140 3
3 242 25 3
3 318 355 140
3 160 318 140
3 25 160 140
3 355 318 242
3 261 355 242
3 3 261 242
3 25 140 3
3 242 25 3
3 4 3 140
3 141 4 140
3 356 141 140
3 356 140 355
3 356 355 318
3 319 356 318
3 319 318 160
3 161 319 160
3 26 161 160
3 26 160 25
3 243 26 25
3 243 25 242
3 243 242 318
3 319 243 318
3 356 319 318
3 356 318 355
3 262 356 355
3 262 355 261
3 262 261 3
3 4 262 3
3 319 356 141
3 161 319 141
3 26 161 141
3 356 319 243
3 262 356 243
3 4 262 243
3 26 141 4
3 243 26 4
3 321 357 142
3 163 321 142
3 27 163 142
3 357 321 245
3 263 357 245
3 5 263 245
3 27 142 5
3 245 27 5
3 321 357 142
3 163 321 142
3 27 163 142
3 357 321 245
3 263 357 245
3 5 263 245
3 27 142 5
3 245 27 5
3 6 5 142
3 143 6 142
3 358 143 142
3 358 142 357
3 358 357 321
3 322 358 321
3 322 321 163
3 164 322 163
3 28 164 163
3 28 163 27
3 246 28 27
3 246 27 245
3 246 245 321
3 322 246 321
3 358 322 321
3 358 321 357
3 264 358 357
3 264 357 263
3 264 263 5
3 6 264 5
3 322 358 143
3 164 322 143
3 28 164 143
3 358 322 246
3 264 358 246
3 6 264 246
3 28 143 6
3 246 28 6
3 324 359 144
3 166 324 144
3 29 166 144
3 359 324 248
3 265 359 248
3 7 265 248
3 29 144 7
3 248 29 7
3 324 359 144
3 166 324 144
3 29 166 144
3 359 324 248
3 265 359 248
3 7 265 248
3 29 144 7
3 248 29 7
3 8 7 144
3 145 8 144
3 360 145 144
3 360 144 359
3 360 359 324
3 325 360 324
3 325 324 166
3 167 325 166
3 30 167 166
3 30 166 29
3 249 30 29
3 249 29 248
3 249 248 324
3 325 249 324
3 360 325 324
3 360 324 359
3 266 360 359
3 266 359 265
3 266 265 7
3 8 266 7
3 325 360 145
3 167 325 145
3 30 167 145
3 360 325 249
3 266 360 249
3 8 266 249
3 30 145 8
3 249 30 8
3 327 361 146
3 169 327 146
3 31 169 146
3 361 327 251
3 267 361 251
3 9 267 251
3 31 146 9
3 251 31 9
3 327 361 146
3 169 327 146
3 31 169 146
3 361 327 251
3 267 361 251
3 9 267 251
3 31 146 9
3 251 31 9
3 10 9 146
3 147 10 146
3 362 147 146
3 362 146 361
3 362 361 327
3 328 362 327
3 328 327 169
3 170 328 169
3 32 170 169
3 32 169 31
3 252 32 31
3 252 31 251
3 252 251 327
3 328 252 327
3 362 328 327
3 362 327 361
3 268 362 361
3 268 361 267
3 268 267 9
3 10 268 9
3 328 362 147
3 170 328 147
3 32 170 147
3 362 328 252
3 268 362 252
3 10 268 252
3 32 147 10
3 252 32 10
3 330 363 148
3 172 330 148
3 33 172 148
3 363 330 254
3 269 363 254
3 11 269 254
3 33 148 11
3 254 33 11
3 330 363 148
3 172 330 148
3 33 172 148
3 363 330 254
3 269 363 254
3 11 269 254
3 33 148 11
3 254 33 11
3 12 11 148
3 149 12 148
3 364 149 148
3 364 148 363
3 364 363 330
3 331 364 330
3 331 330 172
3 174 331 172
3 34 174 172
3 34 172 33
3 255 34 33
3 255 33 254
3 255 254 330
3 331 255 330
3 364 331 330
3 364 330 363
3 270 364 363
3 270 363 269
3 270 269 11
3 12 270 11
3 331 364 149
3 174 331 149
3 34 174 149
3 364 331 255
3 270 364 255
3 12 270 255
3 34 149 12
3 255 34 12
3 242 318 160
3 25 242 160
3 245 321 163
3 27 245 163
3 248 324 166
3 29 248 166
3 251 327 169
3 31 251 169
3 254 330 172
3 33 254 172
3 238 224 258
3 272 238 258
3 225 224 238
3 257 225 238
3 273 257 238
3 273 238 272
3 271 273 272
3 271 272 258
3 271 258 224
3 225 271 224
3 257 225 271
3 273 257 271
3 208 206 210
3 214 208 210
3 207 206 208
3 209 207 208
3 215 209 208
3 215 208 214
3 211 215 214
3 211 214 210
3 211 210 206
3 207 211 206
3 209 207 211
3 215 209 211
3 194 192 200
3 202 194 200
3 193 192 194
3 195 193 194
3 203 195 194
3 203 194 202
3 201 203 202
3 201 202 200
3 201 200 192
3 193 201 192
3 195 193 201
3 203 195 201
3 121 119 125
3 127 121 125
3 120 119 121
3 122 120 121
3 128 122 121
3 128 121 127
3 126 128 127
3 126 127 125
3 126 125 119
3 120 126 119
3 122 120 126
3 128 122 126
3 87 85 89
3 91 87 89
3 86 85 87
3 88 86 87
3 92 88 87
3 92 87 91
3 90 92 91
3 90 91 89
3 90 89 85
3 86 90 85
3 88 86 90
3 92 88 90
3 70 57 226
3 240 70 226
3 70 57 226
3 240 70 226
3 58 57 70
3 71 58 70
3 241 71 70
3 241 70 240
3 227 241 240
3 227 240 226
3 227 226 57
3 58 227 57
3 71 58 227
3 241 71 227
3 72 59 228
3 243 72 228
3 60 59 72
3 73 60 72
3 244 73 72
3 244 72 243
3 229 244 243
3 229 243 228
3 229 228 59
3 60 229 59
3 73 60 229
3 244 73 229
3 74 61 230
3 246 74 230
3 62 61 74
3 75 62 74
3 247 75 74
3 247 74 246
3 231 247 246
3 231 246 230
3 231 230 61
3 62 231 61
3 75 62 231
3 247 75 231
3 76 63 232
3 249 76 232
3 64 63 76
3 77 64 76
3 250 77 76
3 250 76 249
3 233 250 249
3 233 249 232
3 233 232 63
3 64 233 63
3 77 64 233
3 250 77 233
3 78 65 234
3 252 78 234
3 66 65 78
3 79 66 78
3 253 79 78
3 253 78 252
3 235 253 252
3 235 252 234
3 235 234 65
3 66 235 65
3 79 66 235
3 253 79 235
3 80 67 236
3 255 80 236
3 68 67 80
3 81 68 80
3 256 81 80
3 256 80 255
3 237 256 255
3 237 255 236
3 237 236 67
3 68 237 67
3 81 68 237
3 256 81 237
3 38 20 47
3 50 38 47
3 21 20 38
3 39 21 38
3 51 39 38
3 51 38 50
3 48 51 50
3 48 50 47
3 48 47 20
3 21 48 20
3 39 21 48
3 51 39 48
3 37 17 44
3 52 37 44
3 37 17 44
3 52 37 44
3 16 17 44
3 43 16 44
3 51 43 44
3 51 44 52
3 36 51 52
3 36 52 37
3 36 37 17
3 16 36 17
3 36 16 43
3 51 36 43
3 53 83 40
3 22 53 40
3 54 84 83
3 54 83 53
3 54 53 22
3 35 54 22
3 35 22 40
3 42 35 40
3 84 42 40
3 84 40 83
3 54 84 42
3 35 54 42
3 41 40 176
3 172 41 176
3 151 198 109
3 133 151 109
3 129 133 109
3 123 129 109
3 117 123 109
3 115 117 109
3 113 115 109
3 111 113 109
3 107 111 109
3 105 107 109
3 103 105 109
3 101 103 109
3 99 101 109
3 97 99 109
3 95 97 109
3 93 95 109
3 152 199 198
3 152 198 151
3 152 151 133
3 134 152 133
3 130 134 133
3 130 133 129
3 130 129 123
3 124 130 123
3 124 123 117
3 118 124 117
3 118 117 115
3 116 118 115
3 116 115 113
3 114 116 113
3 114 113 111
3 112 114 111
3 112 111 107
3 108 112 107
3 108 107 105
3 106 108 105
3 106 105 103
3 104 106 103
3 104 103 101
3 102 104 101
3 102 101 99
3 100 102 99
3 100 99 97
3 98 100 97
3 98 97 95
3 96 98 95
3 96 95 93
3 94 96 93
3 94 93 109
3 110 94 109
3 199 110 109
3 199 109 198
3 152 199 110
3 134 152 110
3 130 134 110
3 124 130 110
3 118 124 110
3 116 118 110
3 114 116 110
3 112 114 110
3 108 112 110
3 106 108 110
3 104 106 110
3 102 104 110
3 100 102 110
3 98 100 110
3 96 98 110
3 94 96 110
3 276 212 274
3 286 276 274
3 213 212 276
3 277 213 276
3 287 277 276
3 287 276 286
3 275 287 286
3 275 286 274
3 275 274 212
3 213 275 212
3 277 213 275
3 287 277 275
3 137 135 153
3 190 137 153
3 136 135 137
3 150 136 137
3 191 150 137
3 191 137 190
3 154 191 190
3 154 190 153
3 154 153 135
3 136 154 135
3 150 136 154
3 191 150 154
3 218 216 220
3 222 218 220
3 217 216 218
3 219 217 218
3 223 219 218
3 223 218 222
3 221 223 222
3 221 222 220
3 221 220 216
3 217 221 216
3 219 217 221
3 223 219 221
3 155 131 196
3 204 155 196
3 132 131 155
3 173 132 155
3 205 173 155
3 205 155 204
3 197 205 204
3 197 204 196
3 197 196 131
3 132 197 131
3 173 132 197
3 205 173 197
3 298 296 310
3 308 298 310
3 312 308 310
3 297 296 298
3 299 297 298
3 309 299 298
3 309 298 308
3 315 309 308
3 315 308 312
3 311 315 312
3 311 312 310
3 311 310 296
3 297 311 296
3 299 297 311
3 309 299 311
3 315 309 311
3 255 238 312
3 330 255 312
3 280 278 282
3 284 280 282
3 279 278 280
3 281 279 280
3 285 281 280
3 285 280 284
3 283 285 284
3 283 284 282
3 283 282 278
3 279 283 278
3 281 279 283
3 285 281 283
3 290 288 292
3 294 290 292
3 289 288 290
3 291 289 290
3 295 291 290
3 295 290 294
3 293 295 294
3 293 294 292
3 293 292 288
3 289 293 288
3 291 289 293
3 295 291 293
3 302 300 304
3 306 302 304
3 301 300 302
3 303 301 302
3 307 303 302
3 307 302 306
3 305 307 306
3 305 306 304
3 305 304 300
3 301 305 300
3 303 301 305
3 307 303 305
3 348 312 350
3 352 348 350
3 333 312 348
3 349 333 348
3 365 349 348
3 365 348 352
3 351 365 352
3 351 352 350
3 351 350 312
3 333 351 312
3 349 333 351
3 365 349 351
3 176 155 312
3 334 176 312
3 156 155 176
3 177 156 176
3 335 177 176
3 335 176 334
3 313 335 334
3 313 334 312
3 313 312 155
3 156 313 155
3 177 156 313
3 335 177 313
3 178 158 316
3 336 178 316
3 159 158 178
3 179 159 178
3 337 179 178
3 337 178 336
3 317 337 336
3 317 336 316
3 317 316 158
3 159 317 158
3 179 159 317
3 337 179 317
3 180 161 319
3 338 180 319
3 162 161 180
3 181 162 180
3 339 181 180
3 339 180 338
3 320 339 338
3 320 338 319
3 320 319 161
3 162 320 161
3 181 162 320
3 339 181 320
3 182 164 322
3 340 182 322
3 165 164 182
3 183 165 182
3 341 183 182
3 341 182 340
3 323 341 340
3 323 340 322
3 323 322 164
3 165 323 164
3 183 165 323
3 341 183 323
3 184 167 325
3 342 184 325
3 168 167 184
3 185 168 184
3 343 185 184
3 343 184 342
3 326 343 342
3 326 342 325
3 326 325 167
3 168 326 167
3 185 168 326
3 343 185 326
3 186 170 328
3 344 186 328
3 171 170 186
3 187 171 186
3 345 187 186
3 345 186 344
3 329 345 344
3 329 344 328
3 329 328 170
3 171 329 170
3 187 171 329
3 345 187 329
3 188 174 331
3 346 188 331
3 175 174 188
3 189 175 188
3 347 189 188
3 347 188 346
3 332 347 346
3 332 346 331
3 332 331 174
3 175 332 174
3 189 175 332
3 347 189 332
