OFF
216 356 0
0.000 61.089 0.000
0.000 61.089 40.530
7.416 37.724 0.000
7.416 37.724 27.070
7.416 37.724 40.530
11.218 45.762 40.530
11.218 45.762 45.250
11.344 25.968 0.000
11.344 25.968 3.300
11.344 25.968 5.250
11.344 25.968 27.070
11.344 25.968 38.000
11.344 25.968 39.820
11.534 25.866 0.000
11.534 25.866 38.000
13.130 39.445 40.530
13.130 39.445 45.250
16.889 27.638 39.820
16.889 27.638 48.810
19.164 0.000 3.300
19.164 0.000 5.250
19.164 0.000 38.000
19.164 0.000 39.820
19.266 0.190 0.000
19.266 0.190 38.000
20.701 0.622 0.000
20.701 0.622 38.000
20.745 0.476 0.000
20.745 0.476 38.000
21.139 0.754 0.000
21.139 0.754 38.000
21.183 0.608 0.000
21.183 0.608 38.000
23.480 5.749 39.820
23.480 5.749 48.810
23.711 1.529 5.000
23.711 1.529 38.000
23.755 1.383 5.000
23.755 1.383 38.000
23.906 1.587 5.000
23.906 1.587 38.000
23.950 1.442 5.000
23.950 1.442 38.000
26.478 2.362 0.000
26.478 2.362 38.000
26.522 2.216 0.000
26.522 2.216 38.000
26.916 2.494 0.000
26.916 2.494 38.000
26.960 2.348 0.000
26.960 2.348 38.000
29.488 3.269 5.000
29.488 3.269 38.000
29.532 3.123 5.000
29.532 3.123 38.000
29.682 3.327 5.000
29.682 3.327 38.000
29.726 3.181 5.000
29.726 3.181 38.000
31.547 51.885 40.530
31.547 51.885 45.250
32.254 4.102 0.000
32.254 4.102 38.000
32.298 3.956 0.000
32.298 3.956 38.000
32.692 4.234 0.000
32.692 4.234 38.000
32.736 4.088 0.000
32.736 4.088 38.000
32.868 70.989 0.000
32.868 70.989 40.530
33.459 45.568 40.530
33.459 45.568 45.250
35.264 5.009 5.000
35.264 5.009 38.000
35.308 4.863 5.000
35.308 4.863 38.000
35.459 5.067 5.000
35.459 5.067 38.000
35.503 4.921 5.000
35.503 4.921 38.000
38.015 34.001 39.820
38.015 34.001 48.810
38.031 5.842 0.000
38.031 5.842 38.000
38.075 5.696 0.000
38.075 5.696 38.000
38.469 5.974 0.000
38.469 5.974 38.000
38.513 5.828 0.000
38.513 5.828 38.000
39.970 47.529 0.000
39.970 47.529 27.070
39.970 47.529 40.530
41.041 6.748 5.000
41.041 6.748 38.000
41.085 6.603 5.000
41.085 6.603 38.000
41.235 6.807 5.000
41.235 6.807 38.000
41.279 6.661 5.000
41.279 6.661 38.000
43.414 35.627 0.000
43.414 35.627 38.000
43.458 35.481 0.000
43.458 35.481 38.000
43.546 35.189 0.000
43.546 35.189 38.000
43.560 35.671 0.000
43.560 35.671 3.300
43.560 35.671 5.250
43.560 35.671 27.070
43.560 35.671 38.000
43.560 35.671 39.820
43.692 35.233 0.000
43.692 35.233 38.000
43.807 7.582 0.000
43.807 7.582 38.000
43.851 7.436 0.000
43.851 7.436 38.000
44.245 7.714 0.000
44.245 7.714 38.000
44.289 7.568 0.000
44.289 7.568 38.000
44.304 32.669 5.000
44.304 32.669 38.000
44.363 32.474 5.000
44.363 32.474 38.000
44.450 32.713 5.000
44.450 32.713 38.000
44.509 32.518 5.000
44.509 32.518 38.000
44.607 12.112 39.820
44.607 12.112 48.810
45.056 30.173 0.000
45.056 30.173 38.000
45.188 29.735 0.000
45.188 29.735 38.000
45.202 30.217 0.000
45.202 30.217 38.000
45.334 29.779 0.000
45.334 29.779 38.000
45.947 27.215 5.000
45.947 27.215 38.000
46.005 27.020 5.000
46.005 27.020 38.000
46.092 27.259 5.000
46.092 27.259 38.000
46.151 27.064 5.000
46.151 27.064 38.000
46.764 24.500 0.000
46.764 24.500 38.000
46.817 8.488 5.000
46.817 8.488 38.000
46.861 8.342 5.000
46.861 8.342 38.000
46.896 24.062 0.000
46.896 24.062 38.000
46.910 24.544 0.000
46.910 24.544 38.000
47.012 8.547 5.000
47.012 8.547 38.000
47.042 24.106 0.000
47.042 24.106 38.000
47.056 8.401 5.000
47.056 8.401 38.000
47.655 21.542 5.000
47.655 21.542 38.000
47.713 21.347 5.000
47.713 21.347 38.000
47.801 21.586 5.000
47.801 21.586 38.000
47.859 21.391 5.000
47.859 21.391 38.000
48.472 18.827 0.000
48.472 18.827 38.000
48.604 18.389 0.000
48.604 18.389 38.000
48.618 18.871 0.000
48.618 18.871 38.000
48.750 18.433 0.000
48.750 18.433 38.000
49.363 15.869 5.000
49.363 15.869 10.000
49.363 15.869 38.000
49.421 15.675 5.000
49.421 15.675 10.000
49.421 15.675 38.000
49.509 15.913 5.000
49.509 15.913 10.000
49.509 15.913 38.000
49.567 15.719 5.000
49.567 15.719 10.000
49.567 15.719 38.000
49.584 9.321 0.000
49.584 9.321 38.000
49.627 9.176 0.000
49.627 9.176 38.000
50.021 9.453 0.000
50.021 9.453 38.000
50.065 9.307 0.000
50.065 9.307 38.000
50.180 13.154 0.000
50.180 13.154 38.000
50.312 12.717 0.000
50.312 12.717 38.000
50.326 13.198 0.000
50.326 13.198 38.000
50.458 12.760 0.000
50.458 12.760 38.000
51.189 9.805 0.000
51.189 9.805 38.000
51.379 9.703 3.300
51.379 9.703 5.250
51.379 9.703 38.000
51.379 9.703 39.820
3 10 3 92
3 111 10 92
3 4 1 70
3 93 4 70
3 16 6 60
3 72 16 60
3 22 12 113
3 215 22 113
3 13 104 210
3 23 13 210
3 118 116 120
3 122 118 120
3 85 83 87
3 89 85 87
3 63 61 65
3 67 63 65
3 45 43 47
3 49 45 47
3 27 25 29
3 31 27 29
3 196 194 198
3 200 196 198
3 208 204 202
3 206 208 202
3 180 176 174
3 178 180 174
3 162 156 150
3 158 162 150
3 140 136 134
3 138 140 134
3 114 106 102
3 108 114 102
3 98 100 96
3 94 98 96
3 19 8 109
3 212 19 109
3 19 8 109
3 212 19 109
3 9 8 19
3 20 9 19
3 213 20 19
3 213 19 212
3 110 213 212
3 110 212 109
3 110 109 8
3 9 110 8
3 20 9 110
3 213 20 110
3 22 12 113
3 215 22 113
3 11 12 113
3 112 11 113
3 214 112 113
3 214 113 215
3 21 214 215
3 21 215 22
3 21 22 12
3 11 21 12
3 21 11 112
3 214 21 112
3 114 106 102
3 108 114 102
3 115 107 106
3 115 106 114
3 112 115 114
3 112 114 108
3 112 108 102
3 103 112 102
3 103 102 106
3 107 103 106
3 115 107 103
3 112 115 103
3 140 136 134
3 138 140 134
3 141 137 136
3 141 136 140
3 139 141 140
3 139 140 138
3 139 138 134
3 135 139 134
3 135 134 136
3 137 135 136
3 141 137 135
3 139 141 135
3 162 156 150
3 158 162 150
3 163 157 156
3 163 156 162
3 159 163 162
3 159 162 158
3 159 158 150
3 151 159 150
3 151 150 156
3 157 151 156
3 163 157 151
3 159 163 151
3 180 176 174
3 178 180 174
3 181 177 176
3 181 176 180
3 179 181 180
3 179 180 178
3 179 178 174
3 175 179 174
3 175 174 176
3 177 175 176
3 181 177 175
3 179 181 175
3 208 204 202
3 206 208 202
3 209 205 204
3 209 204 208
3 207 209 208
3 207 208 206
3 207 206 202
3 203 207 202
3 203 202 204
3 205 203 204
3 209 205 203
3 207 209 203
3 196 194 198
3 200 196 198
3 195 194 196
3 197 195 196
3 201 197 196
3 201 196 200
3 199 201 200
3 199 200 198
3 199 198 194
3 195 199 194
3 197 195 199
3 201 197 199
3 118 116 120
3 122 118 120
3 117 116 118
3 119 117 118
3 123 119 118
3 123 118 122
3 121 123 122
3 121 122 120
3 121 120 116
3 117 121 116
3 119 117 121
3 123 119 121
3 85 83 87
3 89 85 87
3 84 83 85
3 86 84 85
3 90 86 85
3 90 85 89
3 88 90 89
3 88 89 87
3 88 87 83
3 84 88 83
3 86 84 88
3 90 86 88
3 63 61 65
3 67 63 65
3 62 61 63
3 64 62 63
3 68 64 63
3 68 63 67
3 66 68 67
3 66 67 65
3 66 65 61
3 62 66 61
3 64 62 66
3 68 64 66
3 45 43 47
3 49 45 47
3 44 43 45
3 46 44 45
3 50 46 45
3 50 45 49
3 48 50 49
3 48 49 47
3 48 47 43
3 44 48 43
3 46 44 48
3 50 46 48
3 27 25 29
3 31 27 29
3 26 25 27
3 28 26 27
3 32 28 27
3 32 27 31
3 30 32 31
3 30 31 29
3 30 29 25
3 26 30 25
3 28 26 30
3 32 28 30
3 13 104 210
3 23 13 210
3 105 104 13
3 14 105 13
3 14 13 23
3 24 14 23
3 211 24 23
3 211 23 210
3 105 211 210
3 105 210 104
3 14 105 211
3 24 14 211
3 98 100 96
3 94 98 96
3 99 101 100
3 99 100 98
3 99 98 94
3 95 99 94
3 95 94 96
3 97 95 96
3 101 97 96
3 101 96 100
3 99 101 97
3 95 99 97
3 77 79 75
3 73 77 75
3 77 79 75
3 73 77 75
3 78 80 79
3 78 79 77
3 78 77 73
3 74 78 73
3 74 73 75
3 76 74 75
3 80 76 75
3 80 75 79
3 78 80 76
3 74 78 76
3 55 57 53
3 51 55 53
3 55 57 53
3 51 55 53
3 56 58 57
3 56 57 55
3 56 55 51
3 52 56 51
3 52 51 53
3 54 52 53
3 58 54 53
3 58 53 57
3 56 58 54
3 52 56 54
3 39 41 37
3 35 39 37
3 39 41 37
3 35 39 37
3 40 42 41
3 40 41 39
3 40 39 35
3 36 40 35
3 36 35 37
3 38 36 37
3 42 38 37
3 42 37 41
3 40 42 38
3 36 40 38
3 160 164 154
3 152 160 154
3 160 164 154
3 152 160 154
3 161 165 164
3 161 164 160
3 161 160 152
3 153 161 152
3 153 152 154
3 155 153 154
3 165 155 154
3 165 154 164
3 161 165 155
3 153 161 155
3 183 189 192
3 186 183 192
3 182 188 191
3 185 182 191
3 190 188 182
3 184 190 182
3 184 182 185
3 187 184 185
3 193 187 185
3 193 185 191
3 190 193 191
3 190 191 188
3 184 190 193
3 187 184 193
3 166 170 172
3 168 166 172
3 171 170 166
3 167 171 166
3 167 166 168
3 169 167 168
3 173 169 168
3 173 168 172
3 171 173 172
3 171 172 170
3 167 171 173
3 169 167 173
3 142 146 148
3 144 142 148
3 147 146 142
3 143 147 142
3 143 142 144
3 145 143 144
3 149 145 144
3 149 144 148
3 147 149 148
3 147 148 146
3 143 147 149
3 145 143 149
3 124 128 130
3 126 124 130
3 129 128 124
3 125 129 124
3 125 124 126
3 127 125 126
3 131 127 126
3 131 126 130
3 129 131 130
3 129 130 128
3 125 129 131
3 127 125 131
3 34 18 82
3 133 34 82
3 111 10 7
3 111 7 108
3 92 111 108
3 92 108 91
3 92 91 2
3 3 92 2
3 3 2 7
3 10 3 7
3 70 69 91
3 93 70 91
3 93 91 2
3 4 93 2
3 1 4 2
3 1 2 0
3 70 1 0
3 70 0 69
3 60 59 71
3 72 60 71
3 72 71 15
3 16 72 15
3 6 16 15
3 6 15 5
3 60 6 5
3 60 5 59
3 133 34 33
3 133 33 132
3 82 133 132
3 82 132 81
3 82 81 17
3 18 82 17
3 18 17 33
3 34 18 33
