OFF
751 1760 0
0.000 56.027 0.000
0.000 56.027 23.770
0.729 52.484 0.000
0.729 52.484 23.770
1.020 52.570 0.000
1.020 52.570 23.770
1.507 56.842 0.000
1.507 56.842 61.260
1.608 56.501 0.000
1.608 56.501 23.770
5.001 45.002 61.260
5.001 45.002 63.390
14.905 11.441 61.260
14.905 11.441 63.390
15.222 3.371 0.000
15.222 3.371 23.770
15.514 3.457 0.000
15.514 3.457 23.770
16.534 0.000 0.000
16.534 0.000 23.770
18.142 0.474 0.000
18.142 0.474 23.770
18.242 0.134 0.000
18.242 0.134 61.260
19.033 49.142 61.260
19.033 49.142 63.390
20.153 62.344 0.000
20.153 62.344 23.770
20.153 62.344 61.260
22.314 38.027 61.260
22.314 38.027 63.390
26.927 39.388 0.000
26.927 39.388 23.770
26.927 39.388 61.260
26.927 39.388 63.390
26.927 39.388 84.730
27.056 21.954 61.260
27.056 21.954 63.390
28.937 15.581 61.260
28.937 15.581 63.390
31.670 23.315 0.000
31.670 23.315 23.770
31.670 23.315 61.260
31.670 23.315 63.390
31.670 23.315 84.730
34.994 5.444 0.000
34.994 5.444 61.260
35.094 5.106 0.000
35.094 5.106 61.260
36.717 6.212 0.000
36.717 6.212 23.770
36.788 5.973 0.000
36.788 5.973 61.260
40.678 68.401 0.000
40.678 68.401 23.770
40.678 68.401 84.730
40.974 45.280 0.000
40.974 45.280 23.770
40.974 45.280 95.400
41.449 43.673 0.000
41.449 43.673 23.770
41.449 43.673 84.730
43.091 49.167 0.000
43.091 49.167 23.770
43.091 49.167 84.730
43.977 46.165 0.000
43.977 46.165 23.770
43.977 46.165 84.730
44.760 43.219 95.400
44.760 43.219 101.490
46.093 50.053 0.000
46.093 50.053 23.770
46.093 50.053 84.730
46.191 27.600 0.000
46.191 27.600 23.770
46.191 27.600 84.730
46.665 25.993 0.000
46.665 25.993 23.770
46.665 25.993 95.400
46.797 9.189 0.000
46.797 9.189 23.770
46.897 8.851 0.000
46.897 8.851 23.770
48.726 29.779 95.400
48.726 29.779 101.490
52.313 38.142 113.690
56.702 41.026 109.730
56.702 41.026 119.790
57.133 39.564 113.690
57.564 38.103 109.730
57.564 38.103 119.790
57.705 12.043 0.000
57.705 12.043 23.770
57.777 11.799 0.000
57.777 11.799 23.770
58.219 73.576 0.000
58.219 73.576 23.770
58.219 73.576 84.730
59.625 41.888 109.730
59.625 41.888 119.790
60.057 40.426 113.690
60.488 38.965 109.730
60.488 38.965 119.790
63.633 55.229 0.000
63.633 55.229 23.770
63.633 55.229 84.730
64.877 41.849 113.690
66.635 56.115 0.000
66.635 56.115 23.770
66.635 56.115 84.730
67.521 53.113 0.000
67.521 53.113 23.770
67.521 53.113 84.730
68.464 50.213 95.400
68.464 50.213 101.490
70.524 53.999 0.000
70.524 53.999 23.770
70.524 53.999 95.400
70.998 52.393 0.000
70.998 52.393 23.770
70.998 52.393 84.730
72.430 36.773 95.400
72.430 36.773 101.490
73.273 16.637 0.000
73.273 16.637 23.770
73.344 16.393 0.000
73.344 16.393 23.770
75.741 36.319 0.000
75.741 36.319 23.770
75.741 36.319 84.730
76.216 34.713 0.000
76.216 34.713 23.770
76.216 34.713 95.400
77.498 79.266 0.000
77.498 79.266 23.770
77.498 79.266 61.260
83.983 20.161 0.000
83.983 20.161 23.770
84.082 19.823 0.000
84.082 19.823 23.770
84.273 56.309 0.000
84.273 56.309 63.390
84.273 56.310 0.000
84.273 56.310 23.770
84.273 56.310 61.260
84.273 56.310 84.730
85.609 68.788 0.000
85.609 68.788 61.260
85.609 68.788 63.390
88.890 57.672 0.000
88.890 57.672 61.260
88.890 57.672 63.390
89.017 40.237 0.000
89.017 40.237 23.770
89.017 40.237 61.260
89.017 40.237 63.390
89.017 40.237 84.730
93.633 41.598 0.000
93.633 41.598 61.260
93.633 41.598 63.390
94.064 23.133 0.000
94.064 23.133 23.770
94.135 22.893 0.000
94.135 22.893 61.260
95.514 35.227 0.000
95.514 35.227 61.260
95.514 35.227 63.390
95.928 23.423 0.000
95.928 23.423 61.260
96.028 23.086 0.000
96.028 23.086 61.260
96.206 84.566 0.000
96.206 84.566 23.770
96.206 84.566 61.260
99.641 72.928 0.000
99.641 72.928 61.260
99.641 72.928 63.390
102.921 61.813 0.000
102.921 61.813 23.770
102.921 61.813 63.390
107.665 45.738 0.000
107.665 45.738 23.770
107.665 45.738 63.390
109.546 39.367 0.000
109.546 39.367 61.260
109.546 39.367 63.390
112.712 28.636 0.000
112.712 28.636 61.260
112.750 28.497 0.000
112.750 28.497 23.770
112.879 28.059 0.000
112.879 28.059 61.260
114.491 29.381 0.000
114.491 29.381 23.770
114.592 29.040 0.000
114.592 29.040 23.770
119.124 91.549 0.000
119.124 91.549 23.770
119.124 91.549 61.260
122.461 80.242 0.000
122.461 80.242 61.260
122.461 80.242 63.390
124.532 68.190 0.000
124.532 68.190 63.390
124.532 68.190 65.520
125.899 68.594 0.000
125.899 68.594 23.770
125.899 68.594 63.390
127.982 56.499 0.000
127.982 56.499 63.390
127.982 56.499 65.520
129.350 56.902 0.000
129.350 56.902 63.390
130.643 52.517 0.000
130.643 52.517 23.770
130.643 52.517 63.390
131.671 169.028 7.310
131.671 169.028 9.310
132.365 57.792 0.000
132.365 57.792 63.390
132.365 57.792 65.520
132.524 46.147 0.000
132.524 46.147 61.260
132.524 46.147 63.390
133.214 54.915 0.000
133.214 54.915 63.390
133.214 54.915 65.520
133.456 163.044 0.000
133.456 163.044 7.310
133.717 162.172 0.000
133.717 162.172 7.310
134.328 163.304 0.000
134.328 163.304 7.310
134.589 162.432 0.000
134.589 162.432 7.310
135.630 35.619 0.000
135.630 35.619 23.770
135.731 35.278 0.000
135.731 35.278 61.260
135.866 58.825 0.000
135.866 58.825 63.390
135.866 58.825 65.520
136.715 55.948 0.000
136.715 55.948 63.390
136.715 55.948 65.520
137.126 150.944 0.000
137.126 150.944 7.310
137.387 150.072 0.000
137.387 150.072 7.310
137.572 35.822 0.000
137.572 35.822 61.260
137.702 35.383 0.000
137.702 35.383 61.260
137.998 151.204 0.000
137.998 151.204 7.310
138.225 97.186 0.000
138.225 97.186 61.260
138.259 150.332 0.000
138.259 150.332 7.310
138.841 95.124 0.000
138.841 95.124 9.310
139.149 72.503 0.000
139.149 72.503 63.390
139.149 72.503 65.520
139.984 171.550 0.000
139.984 171.550 3.000
139.984 171.550 6.000
139.984 171.550 7.310
139.984 171.550 9.310
140.559 139.247 0.000
140.559 139.247 7.310
140.820 138.375 0.000
140.820 138.375 7.310
141.431 139.508 0.000
141.431 139.508 7.310
141.562 85.878 0.000
141.562 85.878 61.260
141.562 85.878 63.390
141.692 138.636 0.000
141.692 138.636 7.310
142.073 164.566 0.000
142.073 164.566 3.000
142.073 164.566 6.000
142.599 60.812 0.000
142.599 60.812 63.390
142.599 60.812 65.520
142.889 161.619 0.000
142.889 161.619 6.000
142.889 161.619 9.310
142.927 172.442 3.000
142.927 172.442 6.000
143.822 158.721 0.000
143.822 158.721 6.000
143.822 158.721 9.310
144.046 127.566 0.000
144.046 127.566 7.310
144.248 157.298 0.000
144.248 157.298 7.310
144.248 157.298 9.310
144.307 126.695 0.000
144.307 126.695 7.310
144.918 127.827 0.000
144.918 127.827 7.310
145.144 165.554 0.000
145.144 165.554 3.000
145.144 165.554 6.000
145.179 126.955 0.000
145.179 126.955 7.310
145.403 157.669 0.000
145.403 157.669 1.000
145.403 157.669 7.310
145.403 157.669 9.310
145.403 157.669 112.000
145.403 157.669 113.000
146.080 162.646 0.000
146.080 162.646 3.000
146.080 162.646 6.000
146.396 173.495 0.000
146.396 173.495 3.000
146.401 159.551 0.000
146.401 159.551 1.000
146.401 159.551 9.310
146.401 159.551 112.000
146.401 159.551 113.000
147.012 159.747 0.000
147.012 159.747 6.000
147.285 156.671 1.000
147.285 156.671 7.310
147.285 156.671 9.310
147.285 156.671 112.000
147.285 156.671 113.000
147.532 115.886 0.000
147.532 115.886 7.300
147.532 115.886 7.310
147.793 115.014 0.000
147.793 115.014 7.300
147.793 115.014 7.310
148.283 158.553 0.000
148.283 158.553 1.000
148.283 158.553 9.310
148.283 158.553 112.000
148.283 158.553 113.000
148.404 116.147 0.000
148.404 116.147 7.300
148.404 116.147 7.310
148.453 166.618 0.000
148.453 166.618 3.000
148.665 115.275 0.000
148.665 115.275 7.300
148.665 115.275 7.310
148.901 146.051 1.000
148.901 146.051 7.310
148.901 146.051 9.310
148.901 146.051 112.000
148.901 146.051 113.000
149.269 163.671 0.000
149.269 163.671 3.000
149.269 163.671 6.000
149.899 147.933 1.000
149.899 147.933 7.310
149.899 147.933 9.310
149.899 147.933 112.000
149.899 147.933 113.000
150.202 160.773 0.000
150.202 160.773 6.000
150.202 160.773 9.310
150.636 159.321 0.000
150.636 159.321 9.310
150.782 145.053 1.000
150.782 145.053 7.310
150.782 145.053 9.310
150.782 145.053 112.000
150.782 145.053 113.000
151.623 51.783 0.000
151.623 51.783 61.260
151.623 51.783 63.390
152.301 134.252 1.000
152.301 134.252 7.310
152.301 134.252 9.310
152.301 134.252 112.000
152.301 134.252 113.000
152.509 99.213 7.310
152.509 99.213 9.310
152.807 175.440 0.000
153.299 136.133 1.000
153.299 136.133 7.310
153.299 136.133 9.310
153.299 136.133 112.000
153.299 136.133 113.000
154.182 133.254 1.000
154.182 133.254 7.310
154.182 133.254 9.310
154.182 133.254 112.000
154.182 133.254 113.000
154.832 168.671 0.000
154.960 40.476 0.000
154.960 40.476 9.310
154.960 40.476 61.260
155.700 122.652 1.000
155.700 122.652 7.310
155.700 122.652 9.310
155.700 122.652 112.000
155.700 122.652 113.000
156.698 124.534 1.000
156.698 124.534 7.310
156.698 124.534 9.310
156.698 124.534 112.000
156.698 124.534 113.000
156.903 161.369 1.000
156.903 161.369 112.000
156.903 161.369 113.000
157.582 121.654 1.000
157.582 121.654 7.310
157.582 121.654 9.310
157.582 121.654 112.000
157.582 121.654 113.000
157.901 163.251 1.000
157.901 163.251 112.000
157.901 163.251 113.000
159.300 111.053 0.000
159.300 111.053 1.000
159.300 111.053 7.310
159.300 111.053 9.310
159.300 111.053 112.000
159.300 111.053 113.000
159.783 162.253 1.000
159.783 162.253 112.000
159.783 162.253 113.000
160.298 112.934 1.000
160.298 112.934 7.310
160.298 112.934 9.310
160.298 112.934 112.000
160.298 112.934 113.000
161.182 110.054 0.000
161.182 110.054 1.000
161.182 110.054 9.310
161.182 110.054 112.000
161.182 110.054 113.000
161.993 102.050 0.000
161.993 102.050 7.310
161.993 102.050 9.310
162.180 111.936 0.000
162.180 111.936 1.000
162.180 111.936 9.310
162.180 111.936 112.000
162.180 111.936 113.000
164.961 49.065 0.000
164.961 49.065 6.000
164.961 49.065 9.310
165.826 113.042 0.000
165.826 113.042 1.000
165.826 113.042 9.310
165.826 113.042 112.000
165.826 113.042 113.000
167.707 106.842 0.000
167.707 106.842 1.000
167.707 106.842 9.310
167.707 106.842 112.000
167.707 106.842 113.000
168.504 164.768 1.000
168.504 164.768 112.000
168.504 164.768 113.000
168.951 46.884 0.000
168.951 46.884 6.000
168.951 46.884 9.310
169.502 166.650 1.000
169.502 166.650 112.000
169.502 166.650 113.000
169.505 107.387 0.000
169.505 107.387 1.000
169.505 107.387 9.310
169.505 107.387 112.000
169.505 107.387 113.000
169.561 44.844 0.000
169.561 44.844 9.310
170.651 109.530 34.740
170.651 109.530 53.020
171.310 60.833 0.000
171.310 60.833 3.000
171.310 60.833 6.000
171.310 60.833 9.310
171.383 165.652 1.000
171.383 165.652 112.000
171.383 165.652 113.000
171.847 111.768 0.000
171.847 111.768 9.310
171.847 111.768 34.740
175.300 58.653 0.000
175.300 58.653 3.000
175.300 58.653 6.000
177.999 84.637 34.740
177.999 84.637 53.020
180.204 168.368 1.000
180.204 168.368 112.000
180.204 168.368 113.000
181.202 170.250 1.000
181.202 170.250 112.000
181.202 170.250 113.000
181.483 129.795 0.000
181.483 129.795 1.000
181.483 129.795 34.740
181.483 129.795 53.020
181.483 129.795 112.000
181.483 129.795 113.000
182.363 106.147 0.000
182.363 106.147 9.310
182.363 106.147 34.740
182.685 60.862 0.000
182.685 60.862 3.000
182.894 132.456 0.000
182.894 132.456 1.000
182.894 132.456 34.740
182.894 132.456 53.020
182.894 132.456 112.000
182.894 132.456 113.000
183.084 169.252 1.000
183.084 169.252 112.000
183.084 169.252 113.000
183.519 130.420 0.000
183.519 130.420 1.000
183.519 130.420 34.740
183.519 130.420 53.020
183.519 130.420 112.000
183.519 130.420 113.000
184.856 64.886 0.000
184.856 64.886 3.000
184.856 64.886 9.310
185.733 83.403 0.000
185.733 83.403 9.310
185.733 83.403 34.740
187.887 87.433 0.000
187.887 87.433 9.310
187.887 87.433 34.740
188.128 57.926 0.000
189.600 144.981 0.000
189.600 144.981 1.000
189.600 144.981 34.740
189.600 144.981 53.020
189.600 144.981 112.000
189.600 144.981 113.000
190.299 61.950 0.000
190.565 75.466 0.000
190.565 75.466 174.280
190.565 75.466 175.280
191.012 147.642 0.000
191.012 147.642 1.000
191.012 147.642 34.740
191.012 147.642 53.020
191.012 147.642 112.000
191.012 147.642 113.000
191.099 73.654 0.000
191.099 73.654 174.280
191.099 73.654 175.280
191.637 145.606 0.000
191.637 145.606 1.000
191.637 145.606 34.740
191.637 145.606 53.020
191.637 145.606 112.000
191.637 145.606 113.000
191.673 77.629 34.740
191.673 77.629 53.020
192.005 171.868 1.000
192.005 171.868 112.000
192.005 171.868 113.000
192.782 79.791 0.000
192.782 79.791 9.310
192.782 79.791 34.740
193.003 173.750 1.000
193.003 173.750 112.000
193.003 173.750 113.000
193.886 170.870 1.000
193.886 170.870 112.000
193.886 170.870 113.000
194.884 172.752 1.000
194.884 172.752 112.000
194.884 172.752 113.000
195.028 167.235 1.000
195.028 167.235 112.000
195.028 167.235 113.000
196.899 71.454 0.000
196.899 71.454 174.280
196.899 71.454 175.280
197.239 75.408 0.000
197.239 75.408 174.280
197.239 75.408 175.280
197.898 73.336 0.000
197.898 73.336 174.280
197.898 73.336 175.280
198.781 70.456 0.000
198.781 70.456 174.280
198.781 70.456 175.280
199.409 163.332 0.000
199.409 163.332 34.740
200.555 165.475 34.740
200.555 165.475 53.020
200.618 59.652 0.000
200.618 59.652 174.280
200.618 59.652 175.280
201.211 169.178 1.000
201.211 169.178 112.000
201.211 169.178 113.000
201.505 100.113 0.000
201.505 100.113 34.740
201.505 100.113 53.020
201.505 100.113 174.280
201.505 100.113 175.280
201.616 61.534 0.000
201.616 61.534 174.280
201.616 61.534 175.280
201.701 167.618 1.000
201.701 167.618 112.000
201.701 167.618 113.000
202.158 98.086 0.000
202.158 98.086 34.740
202.158 98.086 53.020
202.158 98.086 174.280
202.158 98.086 175.280
202.499 58.654 0.000
202.499 58.654 174.280
202.499 58.654 175.280
203.497 60.536 0.000
203.497 60.536 174.280
203.497 60.536 175.280
203.532 100.766 0.000
203.532 100.766 34.740
203.532 100.766 53.020
203.532 100.766 174.280
203.532 100.766 175.280
204.240 155.568 0.000
204.240 155.568 34.740
206.395 159.598 0.000
206.395 159.598 34.740
209.382 115.456 0.000
209.382 115.456 34.740
209.382 115.456 53.020
209.382 115.456 174.280
209.382 115.456 175.280
209.765 136.854 0.000
209.765 136.854 34.740
210.036 113.429 0.000
210.036 113.429 34.740
210.036 113.429 53.020
210.036 113.429 174.280
210.036 113.429 175.280
211.410 116.109 0.000
211.410 116.109 34.740
211.410 116.109 53.020
211.410 116.109 174.280
211.410 116.109 175.280
212.218 63.152 0.000
212.218 63.152 174.280
212.218 63.152 175.280
213.007 158.819 34.740
213.007 158.819 53.020
214.099 62.154 0.000
214.099 62.154 174.280
214.099 62.154 175.280
215.097 64.035 0.000
215.097 64.035 174.280
215.097 64.035 175.280
219.479 131.876 0.000
219.479 131.876 34.740
220.419 133.711 34.740
220.419 133.711 53.020
222.027 136.848 0.000
222.027 136.848 174.280
222.027 136.848 175.280
223.818 66.652 0.000
223.818 66.652 174.280
223.818 66.652 175.280
223.829 137.380 0.000
223.829 137.380 174.280
223.829 137.380 175.280
225.699 65.654 0.000
225.699 65.654 174.280
225.699 65.654 175.280
225.762 131.151 0.000
225.762 131.151 174.280
225.762 131.151 175.280
226.698 67.535 0.000
226.698 67.535 174.280
226.698 67.535 175.280
229.404 132.269 0.000
229.404 132.269 174.280
229.404 132.269 175.280
230.402 134.151 0.000
230.402 134.151 174.280
230.402 134.151 175.280
231.286 131.271 0.000
231.286 131.271 174.280
231.286 131.271 175.280
232.284 133.153 0.000
232.284 133.153 174.280
232.284 133.153 175.280
234.220 122.249 0.000
234.220 122.249 174.280
234.220 122.249 175.280
235.103 119.370 0.000
235.103 119.370 174.280
235.103 119.370 175.280
235.518 70.252 0.000
235.518 70.252 174.280
235.518 70.252 175.280
236.101 121.251 0.000
236.101 121.251 174.280
236.101 121.251 175.280
237.399 69.254 0.000
237.399 69.254 174.280
237.399 69.254 175.280
237.820 110.750 0.000
237.820 110.750 174.280
237.820 110.750 175.280
238.397 71.135 0.000
238.397 71.135 174.280
238.397 71.135 175.280
238.703 107.870 0.000
238.703 107.870 174.280
238.703 107.870 175.280
239.701 109.752 0.000
239.701 109.752 174.280
239.701 109.752 175.280
241.219 99.050 0.000
241.219 99.050 174.280
241.219 99.050 175.280
242.102 96.171 0.000
242.102 96.171 174.280
242.102 96.171 175.280
243.101 98.052 0.000
243.101 98.052 174.280
243.101 98.052 175.280
244.819 87.351 0.000
244.819 87.351 174.280
244.819 87.351 175.280
245.702 84.471 0.000
245.702 84.471 174.280
245.702 84.471 175.280
246.700 86.353 0.000
246.700 86.353 174.280
246.700 86.353 175.280
247.520 73.769 0.000
247.520 73.769 174.280
247.520 73.769 175.280
248.518 75.651 0.000
248.518 75.651 174.280
248.518 75.651 175.280
249.402 72.771 0.000
249.402 72.771 174.280
249.402 72.771 175.280
250.400 74.653 0.000
250.400 74.653 174.280
250.400 74.653 175.280
3 152 142 149
3 157 152 149
3 183 164 157
3 174 183 157
3 149 146 174
3 157 149 174
3 157 152 142
3 183 164 157
3 174 183 157
3 149 146 174
3 157 142 149
3 174 157 149
3 208 202 261
3 218 208 261
3 224 218 261
3 239 242 224
3 261 283 239
3 224 261 239
3 200 198 256
3 276 200 256
3 238 222 374
3 250 238 374
3 252 250 374
3 397 252 374
3 159 155 141
3 185 166 159
3 182 185 159
3 375 223 215
3 207 201 277
3 262 207 277
3 284 262 277
3 243 240 284
3 212 219 225
3 209 212 225
3 179 203 209
3 148 176 179
3 151 148 179
3 159 141 151
3 182 159 151
3 215 182 151
3 375 215 151
3 284 277 375
3 243 284 375
3 225 243 375
3 179 209 225
3 151 179 225
3 375 151 225
3 210 204 263
3 220 210 263
3 226 220 263
3 241 244 226
3 263 285 241
3 226 263 241
3 178 172 197
3 206 178 197
3 189 181 214
3 193 195 189
3 214 236 193
3 189 214 193
3 163 154 158
3 168 163 158
3 170 168 158
3 187 191 170
3 184 187 170
3 165 184 170
3 158 165 170
3 150 144 135
3 147 150 135
3 175 147 135
3 173 175 135
3 104 96 134
3 108 104 134
3 111 108 134
3 116 111 134
3 119 116 134
3 143 119 134
3 32 27 54
3 57 60 32
3 63 66 57
3 54 71 63
3 32 54 63
3 57 32 63
3 112 67 64
3 105 109 112
3 55 97 105
3 72 55 105
3 112 64 72
3 105 112 72
3 129 120 145
3 156 129 145
3 44 35 61
3 75 44 61
3 132 78 58
3 117 132 58
3 50 41 74
3 80 50 74
3 82 80 74
3 126 94 92
3 124 126 92
3 137 139 124
3 153 161 137
3 128 153 137
3 131 128 137
3 77 131 137
3 82 74 77
3 92 82 77
3 124 92 77
3 137 124 77
3 23 7 28
3 46 48 23
3 28 52 46
3 23 28 46
3 13 11 25
3 37 39 13
3 34 43 37
3 30 34 37
3 25 30 37
3 13 25 37
3 1 9 21
3 5 1 21
3 3 5 21
3 17 15 3
3 21 19 17
3 3 21 17
3 84 69 114
3 122 84 114
3 90 87 99
3 102 90 99
3 106 122 84
3 85 106 84
3 106 85 69
3 106 69 114
3 85 84 69
3 106 114 122
3 98 99 102
3 102 101 100
3 102 100 98
3 86 87 90
3 90 89 88
3 90 88 86
3 582 550 541
3 588 579 585
3 606 588 585
3 617 595 606
3 620 617 606
3 649 620 606
3 657 654 649
3 679 673 667
3 700 679 667
3 712 706 700
3 748 745 739
3 742 748 739
3 733 742 739
3 730 736 733
3 724 730 733
3 721 727 724
3 709 718 715
3 697 709 715
3 694 703 697
3 688 694 697
3 685 691 688
3 682 685 688
3 676 682 688
3 664 670 676
3 644 664 676
3 639 632 644
3 612 601 623
3 582 541 612
3 585 582 612
3 606 585 612
3 649 606 612
3 657 649 612
3 667 657 612
3 700 667 612
3 712 700 612
3 739 712 612
3 733 739 612
3 724 733 612
3 721 724 612
3 715 721 612
3 697 715 612
3 688 697 612
3 676 688 612
3 639 644 676
3 623 639 676
3 612 623 676
3 330 313 323
3 372 354 362
3 393 380 388
3 415 402 407
3 432 415 407
3 437 424 432
3 445 437 432
3 453 445 432
3 472 458 453
3 503 472 453
3 514 523 503
3 549 558 539
3 600 611 549
3 578 600 549
3 572 578 549
3 569 575 572
3 563 569 572
3 517 563 572
3 494 497 517
3 483 494 517
3 461 467 483
3 410 418 427
3 341 410 427
3 330 323 341
3 362 330 341
3 372 362 341
3 388 372 341
3 393 388 341
3 407 393 341
3 432 407 341
3 453 432 341
3 503 453 341
3 514 503 341
3 539 514 341
3 549 539 341
3 572 549 341
3 483 517 572
3 461 483 572
3 427 461 572
3 341 427 572
3 564 527 530
3 612 564 530
3 601 612 530
3 639 623 601
3 632 639 601
3 660 644 632
3 637 660 632
3 628 637 632
3 591 630 628
3 544 591 628
3 553 544 628
3 509 534 553
3 518 509 553
3 484 498 518
3 504 484 518
3 530 504 518
3 601 530 518
3 632 601 518
3 628 632 518
3 553 628 518
3 566 529 532
3 613 566 532
3 602 613 532
3 640 624 602
3 633 640 602
3 661 645 633
3 638 661 633
3 629 638 633
3 592 631 629
3 546 592 629
3 555 546 629
3 511 536 555
3 520 511 555
3 486 500 520
3 506 486 520
3 532 506 520
3 602 532 520
3 633 602 520
3 629 633 520
3 555 629 520
3 559 490 475
3 613 559 475
3 602 613 475
3 624 602 475
3 640 624 475
3 633 640 475
3 645 633 475
3 662 645 475
3 652 662 475
3 546 593 652
3 555 546 652
3 511 536 555
3 520 511 555
3 475 500 520
3 652 475 520
3 555 652 520
3 560 491 476
3 614 560 476
3 603 614 476
3 625 603 476
3 641 625 476
3 634 641 476
3 646 634 476
3 663 646 476
3 653 663 476
3 547 594 653
3 556 547 653
3 512 537 556
3 521 512 556
3 476 501 521
3 653 476 521
3 556 653 521
3 533 507 524
3 540 533 524
3 462 446 477
3 487 462 477
3 233 229 227
3 231 233 227
3 257 247 245
3 253 257 245
3 278 271 269
3 273 278 269
3 306 299 294
3 301 306 294
3 347 334 331
3 342 347 331
3 308 296 291
3 319 308 291
3 337 319 363
3 366 337 363
3 395 259 438
3 462 473 395
3 446 462 395
3 477 446 395
3 564 524 477
3 527 564 477
3 530 527 477
3 504 530 477
3 484 504 477
3 468 484 477
3 454 468 477
3 449 454 477
3 441 449 477
3 433 441 477
3 438 419 433
3 477 395 438
3 433 477 438
3 348 335 332
3 343 348 332
3 307 300 295
3 302 307 295
3 279 272 270
3 274 279 270
3 258 248 246
3 254 258 246
3 234 230 228
3 232 234 228
3 345 317 383
3 394 345 383
3 383 394 346
3 318 383 346
3 317 318 383
3 281 265 318
3 346 281 318
3 381 216 267
3 421 439 381
3 429 421 381
3 412 429 381
3 399 412 381
3 390 404 399
3 377 390 399
3 369 385 377
3 351 369 377
3 327 359 351
3 310 327 351
3 297 310 351
3 381 267 297
3 399 381 297
3 377 399 297
3 351 377 297
3 382 217 268
3 422 440 382
3 430 422 382
3 413 430 382
3 400 413 382
3 391 405 400
3 378 391 400
3 370 386 378
3 352 370 378
3 328 360 352
3 311 328 352
3 298 311 352
3 382 268 298
3 400 382 298
3 378 400 298
3 352 378 298
3 291 286 314
3 324 291 314
3 324 314 355
3 363 324 355
3 325 316 357
3 364 325 357
3 315 304 346
3 356 315 346
3 304 346 357
3 316 304 357
3 316 325 293
3 288 316 293
3 303 314 286
3 280 303 286
3 305 316 287
3 282 305 287
3 356 346 357
3 339 321 365
3 367 339 365
3 311 298 293
3 321 311 293
3 292 287 316
3 325 292 316
3 281 265 289
3 304 281 289
3 282 266 290
3 305 282 290
3 288 316 287
3 396 260 440
3 464 474 396
3 448 464 396
3 480 448 396
3 565 526 480
3 528 565 480
3 531 528 480
3 505 531 480
3 485 505 480
3 470 485 480
3 456 470 480
3 451 456 480
3 443 451 480
3 435 443 480
3 440 422 435
3 480 396 440
3 435 480 440
3 463 447 479
3 489 463 479
3 479 489 464
3 448 479 464
3 508 489 479
3 525 508 479
3 508 488 478
3 525 508 478
3 463 489 464
3 488 489 508
3 540 533 508
3 525 540 508
3 533 508 507
3 584 552 543
3 590 581 587
3 608 590 587
3 619 597 608
3 622 619 608
3 651 622 608
3 659 656 651
3 681 675 669
3 702 681 669
3 714 708 702
3 750 747 741
3 744 750 741
3 735 744 741
3 732 738 735
3 726 732 735
3 723 729 726
3 711 720 717
3 699 711 717
3 696 705 699
3 690 696 699
3 687 693 690
3 684 687 690
3 678 684 690
3 666 672 678
3 648 666 678
3 643 636 648
3 616 605 627
3 584 543 616
3 587 584 616
3 608 587 616
3 651 608 616
3 659 651 616
3 669 659 616
3 702 669 616
3 714 702 616
3 741 714 616
3 735 741 616
3 726 735 616
3 723 726 616
3 717 723 616
3 699 717 616
3 690 699 616
3 678 690 616
3 643 648 678
3 627 643 678
3 616 627 678
3 551 552 543
3 542 551 543
3 542 543 616
3 615 542 616
3 615 616 605
3 604 615 605
3 604 605 627
3 626 604 627
3 626 627 643
3 642 626 643
3 642 643 636
3 635 642 636
3 635 636 648
3 647 635 648
3 647 648 666
3 665 647 666
3 665 666 672
3 671 665 672
3 677 671 672
3 677 672 678
3 677 678 684
3 683 677 684
3 683 684 687
3 686 683 687
3 686 687 693
3 692 686 693
3 689 692 693
3 689 693 690
3 695 689 690
3 695 690 696
3 695 696 705
3 704 695 705
3 698 704 705
3 698 705 699
3 710 698 699
3 710 699 711
3 710 711 720
3 719 710 720
3 716 719 720
3 716 720 717
3 722 716 717
3 722 717 723
3 722 723 729
3 728 722 729
3 725 728 729
3 725 729 726
3 731 725 726
3 731 726 732
3 731 732 738
3 737 731 738
3 734 737 738
3 734 738 735
3 743 734 735
3 743 735 744
3 743 744 750
3 749 743 750
3 746 749 750
3 746 750 747
3 740 746 747
3 740 747 741
3 713 740 741
3 713 741 714
3 707 713 714
3 707 714 708
3 701 707 708
3 701 708 702
3 680 701 702
3 680 702 681
3 674 680 681
3 674 681 675
3 668 674 675
3 668 675 669
3 658 668 669
3 658 669 659
3 655 658 659
3 655 659 656
3 650 655 656
3 650 656 651
3 621 650 651
3 621 651 622
3 618 621 622
3 618 622 619
3 596 618 619
3 596 619 597
3 596 597 608
3 607 596 608
3 607 608 590
3 589 607 590
3 580 589 590
3 580 590 581
3 580 581 587
3 586 580 587
3 586 587 584
3 583 586 584
3 551 583 584
3 551 584 552
3 583 551 542
3 589 580 586
3 607 589 586
3 618 596 607
3 621 618 607
3 650 621 607
3 658 655 650
3 680 674 668
3 701 680 668
3 713 707 701
3 749 746 740
3 743 749 740
3 734 743 740
3 731 737 734
3 725 731 734
3 722 728 725
3 710 719 716
3 698 710 716
3 695 704 698
3 689 695 698
3 686 692 689
3 683 686 689
3 677 683 689
3 665 671 677
3 647 665 677
3 642 635 647
3 615 604 626
3 583 542 615
3 586 583 615
3 607 586 615
3 650 607 615
3 658 650 615
3 668 658 615
3 701 668 615
3 713 701 615
3 740 713 615
3 734 740 615
3 725 734 615
3 722 725 615
3 716 722 615
3 698 716 615
3 689 698 615
3 677 689 615
3 642 647 677
3 626 642 677
3 615 626 677
3 330 313 323
3 372 354 362
3 393 380 388
3 415 402 407
3 432 415 407
3 437 424 432
3 445 437 432
3 453 445 432
3 472 458 453
3 503 472 453
3 514 523 503
3 549 558 539
3 600 611 549
3 578 600 549
3 572 578 549
3 569 575 572
3 563 569 572
3 517 563 572
3 494 497 517
3 483 494 517
3 461 467 483
3 410 418 427
3 341 410 427
3 330 323 341
3 362 330 341
3 372 362 341
3 388 372 341
3 393 388 341
3 407 393 341
3 432 407 341
3 453 432 341
3 503 453 341
3 514 503 341
3 539 514 341
3 549 539 341
3 572 549 341
3 483 517 572
3 461 483 572
3 427 461 572
3 341 427 572
3 312 313 323
3 322 312 323
3 322 323 341
3 340 322 341
3 340 341 410
3 409 340 410
3 409 410 418
3 417 409 418
3 417 418 427
3 426 417 427
3 426 427 461
3 460 426 461
3 460 461 467
3 466 460 467
3 466 467 483
3 482 466 483
3 482 483 494
3 493 482 494
3 493 494 497
3 496 493 497
3 496 497 517
3 516 496 517
3 516 517 563
3 562 516 563
3 562 563 569
3 568 562 569
3 568 569 575
3 574 568 575
3 571 574 575
3 571 575 572
3 577 571 572
3 577 572 578
3 577 578 600
3 599 577 600
3 610 599 600
3 610 600 611
3 548 610 611
3 548 611 549
3 557 548 549
3 557 549 558
3 538 557 558
3 538 558 539
3 513 538 539
3 513 539 514
3 522 513 514
3 522 514 523
3 502 522 523
3 502 523 503
3 471 502 503
3 471 503 472
3 457 471 472
3 457 472 458
3 457 458 453
3 452 457 453
3 444 452 453
3 444 453 445
3 436 444 445
3 436 445 437
3 423 436 437
3 423 437 424
3 423 424 432
3 431 423 432
3 431 432 415
3 414 431 415
3 401 414 415
3 401 415 402
3 401 402 407
3 406 401 407
3 406 407 393
3 392 406 393
3 379 392 393
3 379 393 380
3 379 380 388
3 387 379 388
3 387 388 372
3 371 387 372
3 353 371 372
3 353 372 354
3 353 354 362
3 361 353 362
3 361 362 330
3 329 361 330
3 312 329 330
3 312 330 313
3 329 312 322
3 371 353 361
3 392 379 387
3 414 401 406
3 431 414 406
3 436 423 431
3 444 436 431
3 452 444 431
3 471 457 452
3 502 471 452
3 513 522 502
3 548 557 538
3 599 610 548
3 577 599 548
3 571 577 548
3 568 574 571
3 562 568 571
3 516 562 571
3 493 496 516
3 482 493 516
3 460 466 482
3 409 417 426
3 340 409 426
3 329 322 340
3 361 329 340
3 371 361 340
3 387 371 340
3 392 387 340
3 406 392 340
3 431 406 340
3 452 431 340
3 502 452 340
3 513 502 340
3 538 513 340
3 548 538 340
3 571 548 340
3 482 516 571
3 460 482 571
3 426 460 571
3 340 426 571
3 582 550 541
3 588 579 585
3 606 588 585
3 617 595 606
3 620 617 606
3 649 620 606
3 657 654 649
3 679 673 667
3 700 679 667
3 712 706 700
3 748 745 739
3 742 748 739
3 733 742 739
3 730 736 733
3 724 730 733
3 721 727 724
3 709 718 715
3 697 709 715
3 694 703 697
3 688 694 697
3 685 691 688
3 682 685 688
3 676 682 688
3 664 670 676
3 644 664 676
3 639 632 644
3 612 601 623
3 582 541 612
3 585 582 612
3 606 585 612
3 649 606 612
3 657 649 612
3 667 657 612
3 700 667 612
3 712 700 612
3 739 712 612
3 733 739 612
3 724 733 612
3 721 724 612
3 715 721 612
3 697 715 612
3 688 697 612
3 676 688 612
3 639 644 676
3 623 639 676
3 612 623 676
3 583 551 550
3 583 550 582
3 583 582 585
3 586 583 585
3 586 585 579
3 580 586 579
3 589 580 579
3 589 579 588
3 589 588 606
3 607 589 606
3 607 606 595
3 596 607 595
3 618 596 595
3 618 595 617
3 621 618 617
3 621 617 620
3 650 621 620
3 650 620 649
3 655 650 649
3 655 649 654
3 658 655 654
3 658 654 657
3 668 658 657
3 668 657 667
3 674 668 667
3 674 667 673
3 680 674 673
3 680 673 679
3 701 680 679
3 701 679 700
3 707 701 700
3 707 700 706
3 713 707 706
3 713 706 712
3 740 713 712
3 740 712 739
3 746 740 739
3 746 739 745
3 749 746 745
3 749 745 748
3 749 748 742
3 743 749 742
3 734 743 742
3 734 742 733
3 737 734 733
3 737 733 736
3 737 736 730
3 731 737 730
3 725 731 730
3 725 730 724
3 728 725 724
3 728 724 727
3 728 727 721
3 722 728 721
3 716 722 721
3 716 721 715
3 719 716 715
3 719 715 718
3 719 718 709
3 710 719 709
3 698 710 709
3 698 709 697
3 704 698 697
3 704 697 703
3 704 703 694
3 695 704 694
3 689 695 694
3 689 694 688
3 692 689 688
3 692 688 691
3 692 691 685
3 686 692 685
3 686 685 682
3 683 686 682
3 683 682 676
3 677 683 676
3 671 677 676
3 671 676 670
3 671 670 664
3 665 671 664
3 665 664 644
3 647 665 644
3 647 644 632
3 635 647 632
3 635 632 639
3 642 635 639
3 642 639 623
3 626 642 623
3 626 623 601
3 604 626 601
3 604 601 612
3 615 604 612
3 615 612 541
3 542 615 541
3 542 541 550
3 551 542 550
3 583 551 542
3 589 580 586
3 607 589 586
3 618 596 607
3 621 618 607
3 650 621 607
3 658 655 650
3 680 674 668
3 701 680 668
3 713 707 701
3 749 746 740
3 743 749 740
3 734 743 740
3 731 737 734
3 725 731 734
3 722 728 725
3 710 719 716
3 698 710 716
3 695 704 698
3 689 695 698
3 686 692 689
3 683 686 689
3 677 683 689
3 665 671 677
3 647 665 677
3 642 635 647
3 615 604 626
3 583 542 615
3 586 583 615
3 607 586 615
3 650 607 615
3 658 650 615
3 668 658 615
3 701 668 615
3 713 701 615
3 740 713 615
3 734 740 615
3 725 734 615
3 722 725 615
3 716 722 615
3 698 716 615
3 689 698 615
3 677 689 615
3 642 647 677
3 626 642 677
3 615 626 677
3 326 309 320
3 368 350 358
3 389 376 384
3 411 398 403
3 428 411 403
3 434 420 428
3 442 434 428
3 450 442 428
3 469 455 450
3 499 469 450
3 510 519 499
3 545 554 535
3 598 609 545
3 576 598 545
3 570 576 545
3 567 573 570
3 561 567 570
3 515 561 570
3 492 495 515
3 481 492 515
3 459 465 481
3 408 416 425
3 338 408 425
3 326 320 338
3 358 326 338
3 368 358 338
3 384 368 338
3 389 384 338
3 403 389 338
3 428 403 338
3 450 428 338
3 499 450 338
3 510 499 338
3 535 510 338
3 545 535 338
3 570 545 338
3 481 515 570
3 459 481 570
3 425 459 570
3 338 425 570
3 326 309 320
3 368 350 358
3 389 376 384
3 411 398 403
3 428 411 403
3 434 420 428
3 442 434 428
3 450 442 428
3 469 455 450
3 499 469 450
3 510 519 499
3 545 554 535
3 598 609 545
3 576 598 545
3 570 576 545
3 567 573 570
3 561 567 570
3 515 561 570
3 492 495 515
3 481 492 515
3 459 465 481
3 408 416 425
3 338 408 425
3 326 320 338
3 358 326 338
3 368 358 338
3 384 368 338
3 389 384 338
3 403 389 338
3 428 403 338
3 450 428 338
3 499 450 338
3 510 499 338
3 535 510 338
3 545 535 338
3 570 545 338
3 481 515 570
3 459 481 570
3 425 459 570
3 338 425 570
3 329 312 309
3 329 309 326
3 329 326 358
3 361 329 358
3 361 358 350
3 353 361 350
3 371 353 350
3 371 350 368
3 371 368 384
3 387 371 384
3 387 384 376
3 379 387 376
3 392 379 376
3 392 376 389
3 392 389 403
3 406 392 403
3 406 403 398
3 401 406 398
3 414 401 398
3 414 398 411
3 414 411 428
3 431 414 428
3 431 428 420
3 423 431 420
3 436 423 420
3 436 420 434
3 444 436 434
3 444 434 442
3 452 444 442
3 452 442 450
3 452 450 455
3 457 452 455
3 471 457 455
3 471 455 469
3 502 471 469
3 502 469 499
3 522 502 499
3 522 499 519
3 513 522 519
3 513 519 510
3 538 513 510
3 538 510 535
3 557 538 535
3 557 535 554
3 548 557 554
3 548 554 545
3 610 548 545
3 610 545 609
3 599 610 609
3 599 609 598
3 599 598 576
3 577 599 576
3 571 577 576
3 571 576 570
3 574 571 570
3 574 570 573
3 574 573 567
3 568 574 567
3 568 567 561
3 562 568 561
3 562 561 515
3 516 562 515
3 516 515 495
3 496 516 495
3 496 495 492
3 493 496 492
3 493 492 481
3 482 493 481
3 482 481 465
3 466 482 465
3 466 465 459
3 460 466 459
3 460 459 425
3 426 460 425
3 426 425 416
3 417 426 416
3 417 416 408
3 409 417 408
3 409 408 338
3 340 409 338
3 340 338 320
3 322 340 320
3 322 320 309
3 312 322 309
3 329 312 322
3 371 353 361
3 392 379 387
3 414 401 406
3 431 414 406
3 436 423 431
3 444 436 431
3 452 444 431
3 471 457 452
3 502 471 452
3 513 522 502
3 548 557 538
3 599 610 548
3 577 599 548
3 571 577 548
3 568 574 571
3 562 568 571
3 516 562 571
3 493 496 516
3 482 493 516
3 460 466 482
3 409 417 426
3 340 409 426
3 329 322 340
3 361 329 340
3 371 361 340
3 387 371 340
3 392 387 340
3 406 392 340
3 431 406 340
3 452 431 340
3 502 452 340
3 513 502 340
3 538 513 340
3 548 538 340
3 571 548 340
3 482 516 571
3 460 482 571
3 426 460 571
3 340 426 571
3 256 255 275
3 276 256 275
3 276 275 199
3 200 276 199
3 198 200 199
3 198 199 196
3 256 198 196
3 256 196 255
3 374 373 395
3 397 374 395
3 397 395 251
3 252 397 251
3 250 252 251
3 250 251 249
3 250 249 237
3 238 250 237
3 222 238 237
3 222 237 221
3 374 222 221
3 374 221 373
3 159 157 164
3 166 159 164
3 185 166 164
3 185 164 183
3 182 185 183
3 182 183 180
3 215 182 180
3 215 180 213
3 215 213 221
3 223 215 221
3 375 223 221
3 375 221 373
3 277 375 373
3 277 373 275
3 277 275 199
3 201 277 199
3 201 199 205
3 207 201 205
3 262 207 205
3 262 205 261
3 262 261 283
3 284 262 283
3 284 283 239
3 240 284 239
3 240 239 242
3 243 240 242
3 243 242 224
3 225 243 224
3 219 225 224
3 219 224 218
3 219 218 211
3 212 219 211
3 212 211 208
3 209 212 208
3 203 209 208
3 203 208 202
3 203 202 177
3 179 203 177
3 176 179 177
3 176 177 174
3 176 174 146
3 148 176 146
3 148 146 149
3 151 148 149
3 151 149 140
3 141 151 140
3 141 140 152
3 155 141 152
3 159 155 152
3 159 152 157
3 220 210 209
3 220 209 219
3 220 219 225
3 226 220 225
3 244 226 225
3 244 225 243
3 241 244 243
3 241 243 240
3 285 241 240
3 285 240 284
3 263 285 284
3 263 284 262
3 263 262 203
3 204 263 203
3 204 203 209
3 210 204 209
3 206 178 177
3 206 177 205
3 197 206 205
3 197 205 196
3 197 196 171
3 172 197 171
3 172 171 177
3 178 172 177
3 214 213 235
3 236 214 235
3 236 235 192
3 193 236 192
3 193 192 194
3 195 193 194
3 195 194 188
3 189 195 188
3 181 189 188
3 181 188 180
3 214 181 180
3 214 180 213
3 158 157 164
3 165 158 164
3 184 165 164
3 184 164 183
3 184 183 186
3 187 184 186
3 187 186 190
3 191 187 190
3 191 190 169
3 170 191 169
3 168 170 169
3 168 169 167
3 168 167 162
3 163 168 162
3 154 163 162
3 154 162 152
3 158 154 152
3 158 152 157
3 150 144 142
3 150 142 149
3 147 150 149
3 147 149 146
3 175 147 146
3 175 146 174
3 173 175 174
3 173 174 171
3 173 171 133
3 135 173 133
3 135 133 142
3 144 135 142
3 108 104 103
3 108 103 107
3 108 107 110
3 111 108 110
3 116 111 110
3 116 110 115
3 116 115 118
3 119 116 118
3 143 119 118
3 143 118 142
3 134 143 142
3 134 142 133
3 134 133 95
3 96 134 95
3 96 95 103
3 104 96 103
3 54 53 70
3 71 54 70
3 71 70 62
3 63 71 62
3 63 62 65
3 66 63 65
3 66 65 56
3 57 66 56
3 57 56 59
3 60 57 59
3 60 59 31
3 32 60 31
3 27 32 31
3 27 31 26
3 54 27 26
3 54 26 53
3 72 64 62
3 72 62 70
3 55 72 70
3 55 70 53
3 97 55 53
3 97 53 95
3 97 95 103
3 105 97 103
3 109 105 103
3 109 103 107
3 109 107 110
3 112 109 110
3 112 110 65
3 67 112 65
3 64 67 65
3 64 65 62
3 145 142 152
3 156 145 152
3 156 152 127
3 129 156 127
3 120 129 127
3 120 127 118
3 145 120 118
3 145 118 142
3 61 59 73
3 75 61 73
3 75 73 40
3 44 75 40
3 35 44 40
3 35 40 31
3 61 35 31
3 61 31 59
3 117 58 56
3 117 56 115
3 117 115 130
3 132 117 130
3 132 130 76
3 78 132 76
3 58 78 76
3 58 76 56
3 74 73 76
3 77 74 76
3 131 77 76
3 131 76 130
3 128 131 130
3 128 130 127
3 153 128 127
3 153 127 152
3 153 152 160
3 161 153 160
3 161 160 136
3 137 161 136
3 137 136 138
3 139 137 138
3 139 138 123
3 124 139 123
3 124 123 125
3 126 124 125
3 126 125 93
3 94 126 93
3 92 94 93
3 92 93 91
3 92 91 81
3 82 92 81
3 80 82 81
3 80 81 79
3 80 79 49
3 50 80 49
3 41 50 49
3 41 49 40
3 74 41 40
3 74 40 73
3 28 26 51
3 52 28 51
3 52 51 45
3 46 52 45
3 46 45 47
3 48 46 47
3 48 47 22
3 23 48 22
3 7 23 22
3 7 22 6
3 28 7 6
3 28 6 26
3 25 24 29
3 30 25 29
3 34 30 29
3 34 29 33
3 34 33 42
3 43 34 42
3 43 42 36
3 37 43 36
3 37 36 38
3 39 37 38
3 39 38 12
3 13 39 12
3 11 13 12
3 11 12 10
3 25 11 10
3 25 10 24
3 1 0 4
3 5 1 4
3 5 4 2
3 3 5 2
3 3 2 14
3 15 3 14
3 17 15 14
3 17 14 16
3 17 16 18
3 19 17 18
3 21 19 18
3 21 18 20
3 9 21 20
3 9 20 8
3 9 8 0
3 1 9 0
3 114 113 121
3 122 114 121
3 122 121 83
3 84 122 83
3 69 84 83
3 69 83 68
3 114 69 68
3 114 68 113
3 101 89 88
3 100 101 88
3 98 100 88
3 98 88 86
3 98 86 87
3 99 98 87
3 90 87 99
3 102 90 99
3 101 102 90
3 101 90 89
3 532 530 527
3 529 532 527
3 566 529 527
3 566 527 564
3 613 566 564
3 613 564 612
3 602 613 612
3 602 612 601
3 624 602 601
3 624 601 623
3 640 624 623
3 640 623 639
3 633 640 639
3 633 639 632
3 645 633 632
3 645 632 644
3 661 645 644
3 661 644 660
3 661 660 637
3 638 661 637
3 629 638 637
3 629 637 628
3 631 629 628
3 631 628 630
3 631 630 591
3 592 631 591
3 592 591 544
3 546 592 544
3 546 544 553
3 555 546 553
3 555 553 534
3 536 555 534
3 536 534 509
3 511 536 509
3 511 509 518
3 520 511 518
3 520 518 498
3 500 520 498
3 500 498 484
3 486 500 484
3 506 486 484
3 506 484 504
3 506 504 530
3 532 506 530
3 614 560 559
3 614 559 613
3 603 614 613
3 603 613 602
3 625 603 602
3 625 602 624
3 641 625 624
3 641 624 640
3 634 641 640
3 634 640 633
3 646 634 633
3 646 633 645
3 663 646 645
3 663 645 662
3 653 663 662
3 653 662 652
3 653 652 593
3 594 653 593
3 594 593 546
3 547 594 546
3 547 546 555
3 556 547 555
3 556 555 536
3 537 556 536
3 537 536 511
3 512 537 511
3 512 511 520
3 521 512 520
3 521 520 500
3 501 521 500
3 501 500 475
3 476 501 475
3 476 475 490
3 491 476 490
3 560 491 490
3 560 490 559
3 344 333 331
3 344 331 342
3 344 342 347
3 349 344 347
3 349 347 334
3 336 349 334
3 333 336 334
3 333 334 331
3 302 295 294
3 302 294 301
3 302 301 306
3 307 302 306
3 307 306 299
3 300 307 299
3 295 300 299
3 295 299 294
3 274 270 269
3 274 269 273
3 274 273 278
3 279 274 278
3 279 278 271
3 272 279 271
3 270 272 271
3 270 271 269
3 254 246 245
3 254 245 253
3 254 253 257
3 258 254 257
3 258 257 247
3 248 258 247
3 246 248 247
3 246 247 245
3 232 228 227
3 232 227 231
3 232 231 233
3 234 232 233
3 234 233 229
3 230 234 229
3 228 230 229
3 228 229 227
3 346 281 280
3 346 280 345
3 318 346 345
3 318 345 317
3 318 317 264
3 265 318 264
3 265 264 280
3 281 265 280
3 440 382 381
3 440 381 439
3 422 440 439
3 422 439 421
3 430 422 421
3 430 421 429
3 413 430 429
3 413 429 412
3 413 412 399
3 400 413 399
3 405 400 399
3 405 399 404
3 391 405 404
3 391 404 390
3 391 390 377
3 378 391 377
3 386 378 377
3 386 377 385
3 370 386 385
3 370 385 369
3 370 369 351
3 352 370 351
3 360 352 351
3 360 351 359
3 328 360 359
3 328 359 327
3 328 327 310
3 311 328 310
3 311 310 297
3 298 311 297
3 268 298 297
3 268 297 267
3 268 267 216
3 217 268 216
3 217 216 381
3 382 217 381
3 357 355 363
3 364 357 363
3 364 363 324
3 325 364 324
3 316 325 324
3 316 324 314
3 357 316 314
3 357 314 355
3 356 315 314
3 356 314 355
3 346 356 355
3 346 355 345
3 346 345 303
3 304 346 303
3 304 303 314
3 315 304 314
3 305 303 280
3 282 305 280
3 282 280 286
3 287 282 286
3 316 287 286
3 316 286 314
3 305 316 314
3 305 314 303
3 367 339 337
3 367 337 366
3 365 367 366
3 365 366 363
3 365 363 319
3 321 365 319
3 339 321 319
3 339 319 337
3 321 293 291
3 321 291 319
3 321 319 308
3 311 321 308
3 311 308 296
3 298 311 296
3 293 298 296
3 293 296 291
3 316 314 324
3 325 316 324
3 325 324 291
3 292 325 291
3 287 292 291
3 287 291 286
3 316 287 286
3 316 286 314
3 305 282 281
3 305 281 304
3 290 305 304
3 290 304 289
3 290 289 265
3 266 290 265
3 266 265 281
3 282 266 281
3 422 440 438
3 422 438 419
3 435 422 419
3 435 419 433
3 443 435 433
3 443 433 441
3 451 443 441
3 451 441 449
3 451 449 454
3 456 451 454
3 470 456 454
3 470 454 468
3 485 470 468
3 485 468 484
3 505 485 484
3 505 484 504
3 505 504 530
3 531 505 530
3 531 530 527
3 528 531 527
3 565 528 527
3 565 527 564
3 565 564 524
3 526 565 524
3 526 524 477
3 480 526 477
3 480 477 446
3 448 480 446
3 464 448 446
3 464 446 462
3 464 462 473
3 474 464 473
3 474 473 395
3 396 474 395
3 260 396 395
3 260 395 259
3 440 260 259
3 440 259 438
3 489 463 462
3 489 462 487
3 489 487 477
3 479 489 477
3 479 477 446
3 447 479 446
3 463 447 446
3 463 446 462
3 525 478 477
3 525 477 524
3 525 524 507
3 508 525 507
3 508 507 487
3 488 508 487
3 488 487 477
3 478 488 477
