OFF
601 969 0
0.000 64.617 0.000
0.000 64.617 5.300
0.000 64.617 25.000
0.373 64.415 5.300
0.373 64.415 25.000
0.373 64.416 6.800
0.373 64.416 8.650
0.373 64.416 10.150
0.373 64.416 12.000
0.373 64.416 13.500
0.373 64.416 15.350
0.373 64.416 16.850
0.373 64.416 18.700
0.373 64.416 20.200
0.373 64.416 20.600
0.373 64.416 25.000
0.489 62.989 0.000
0.489 62.989 5.300
0.489 62.989 25.000
0.622 64.281 5.300
0.622 64.281 6.800
0.622 64.281 8.650
0.622 64.281 10.150
0.622 64.281 12.000
0.622 64.281 13.500
0.622 64.281 15.350
0.622 64.281 16.850
0.622 64.281 18.700
0.622 64.281 20.200
0.776 63.075 5.300
0.776 63.075 25.000
1.064 63.161 0.000
1.064 63.161 5.300
1.628 65.106 5.300
1.628 65.106 25.000
1.629 65.105 0.000
1.629 65.105 5.300
1.715 64.818 5.300
1.715 64.818 25.000
1.753 59.818 0.000
1.753 59.818 5.300
1.801 64.530 0.000
1.801 64.530 5.300
1.802 58.612 0.000
1.802 58.612 26.000
2.089 58.698 0.000
2.089 58.698 26.000
2.204 57.271 0.000
2.204 57.271 26.000
2.491 57.357 0.000
2.491 57.357 26.000
3.509 52.923 0.000
3.509 52.923 26.000
3.796 53.009 0.000
3.796 53.009 26.000
3.911 51.582 0.000
3.911 51.582 26.000
4.198 51.668 0.000
4.198 51.668 26.000
4.972 65.792 0.000
4.972 65.792 5.300
5.216 47.234 0.000
5.216 47.234 26.000
5.503 47.320 0.000
5.503 47.320 26.000
5.618 45.893 0.000
5.618 45.893 26.000
5.652 66.309 0.000
5.652 66.309 26.000
5.738 66.022 0.000
5.738 66.022 26.000
5.905 45.979 0.000
5.905 45.979 26.000
6.923 41.545 0.000
6.923 41.545 26.000
6.993 66.710 0.000
6.993 66.710 26.000
7.079 66.423 0.000
7.079 66.423 26.000
7.210 41.631 0.000
7.210 41.631 26.000
7.325 40.204 0.000
7.325 40.204 26.000
7.612 40.290 0.000
7.612 40.290 26.000
8.630 35.855 0.000
8.630 35.855 26.000
8.917 35.941 0.000
8.917 35.941 26.000
9.032 34.515 0.000
9.032 34.515 26.000
9.319 34.601 0.000
9.319 34.601 26.000
10.337 30.166 0.000
10.337 30.166 26.000
10.624 30.252 0.000
10.624 30.252 26.000
10.739 28.825 0.000
10.739 28.825 26.000
10.998 67.908 0.000
10.998 67.908 26.000
11.026 28.911 0.000
11.026 28.911 26.000
11.084 67.621 0.000
11.084 67.621 26.000
12.044 24.477 0.000
12.044 24.477 26.000
12.331 24.563 0.000
12.331 24.563 26.000
12.339 68.310 0.000
12.339 68.310 26.000
12.425 68.023 0.000
12.425 68.023 26.000
12.446 23.136 0.000
12.446 23.136 26.000
12.733 23.222 0.000
12.733 23.222 26.000
13.751 18.788 0.000
13.751 18.788 26.000
14.038 18.874 0.000
14.038 18.874 26.000
14.153 17.447 0.000
14.153 17.447 26.000
14.440 17.533 0.000
14.440 17.533 26.000
15.458 13.099 0.000
15.458 13.099 26.000
15.745 13.185 0.000
15.745 13.185 26.000
15.860 11.758 0.000
15.860 11.758 26.000
16.147 11.844 0.000
16.147 11.844 26.000
16.344 69.508 0.000
16.344 69.508 26.000
16.430 69.221 0.000
16.430 69.221 26.000
17.165 7.409 0.000
17.165 7.409 26.000
17.452 7.495 0.000
17.452 7.495 26.000
17.567 6.069 0.000
17.567 6.069 26.000
17.685 69.910 0.000
17.685 69.910 26.000
17.771 69.623 0.000
17.771 69.623 26.000
17.854 6.155 0.000
17.854 6.155 26.000
18.986 1.341 0.000
18.986 1.341 26.000
19.273 1.427 0.000
19.273 1.427 26.000
19.388 0.000 0.000
19.388 0.000 26.000
19.589 0.373 0.000
19.589 0.373 5.300
19.589 0.373 6.800
19.589 0.373 8.650
19.589 0.373 10.150
19.589 0.373 12.000
19.589 0.373 13.500
19.589 0.373 15.350
19.589 0.373 16.850
19.589 0.373 18.700
19.589 0.373 20.200
19.589 0.373 20.600
19.589 0.373 25.000
19.589 0.373 26.000
19.723 0.622 5.300
19.723 0.622 6.800
19.723 0.622 8.650
19.723 0.622 10.150
19.723 0.622 12.000
19.723 0.622 13.500
19.723 0.622 15.350
19.723 0.622 16.850
19.723 0.622 18.700
19.723 0.622 20.200
20.643 0.689 0.000
20.643 0.689 26.000
20.729 0.402 0.000
20.729 0.402 26.000
21.689 71.108 0.000
21.689 71.108 26.000
21.775 70.821 0.000
21.775 70.821 26.000
23.030 71.510 0.000
23.030 71.510 26.000
23.116 71.222 0.000
23.116 71.222 26.000
24.954 1.981 0.000
24.954 1.981 26.000
25.040 1.694 0.000
25.040 1.694 26.000
26.294 2.383 0.000
26.294 2.383 26.000
26.380 2.096 0.000
26.380 2.096 26.000
26.393 58.320 5.300
26.393 58.320 6.800
26.393 58.320 8.650
26.393 58.320 10.150
26.393 58.320 12.000
26.393 58.320 13.500
26.393 58.320 15.350
26.393 58.320 16.850
26.393 58.320 18.700
26.393 58.320 20.200
26.642 58.185 6.800
26.642 58.185 8.650
26.642 58.185 10.150
26.642 58.185 12.000
26.642 58.185 13.500
26.642 58.185 15.350
26.642 58.185 16.850
26.642 58.185 18.700
26.642 58.185 20.200
26.642 58.185 20.600
26.642 58.185 25.000
27.035 72.707 0.000
27.035 72.707 26.000
27.121 72.421 0.000
27.121 72.421 26.000
27.807 34.415 20.200
27.807 34.415 20.600
27.807 34.415 25.000
28.185 53.043 0.000
28.185 53.043 5.300
28.376 73.109 0.000
28.376 73.109 26.000
28.462 72.822 0.000
28.462 72.822 26.000
28.893 40.938 5.300
28.893 40.938 6.800
28.893 40.938 8.650
28.893 40.938 10.150
28.893 40.938 12.000
28.893 40.938 13.500
28.893 40.938 15.350
28.893 40.938 16.850
28.893 40.938 18.700
28.893 40.938 20.200
29.143 40.804 0.000
29.143 40.804 5.300
29.143 40.804 6.800
29.143 40.804 8.650
29.143 40.804 10.150
29.143 40.804 12.000
29.143 40.804 13.500
29.143 40.804 15.350
29.143 40.804 16.850
29.143 40.804 18.700
29.143 40.804 20.200
29.143 40.804 20.600
29.143 40.804 25.000
30.298 3.585 0.000
30.298 3.585 26.000
30.384 3.297 0.000
30.384 3.297 26.000
30.657 35.060 5.300
30.657 35.060 6.800
30.657 35.060 8.650
30.657 35.060 10.150
30.657 35.060 12.000
30.657 35.060 13.500
30.657 35.060 15.350
30.657 35.060 16.850
30.657 35.060 18.700
30.657 35.060 20.200
30.791 35.309 0.000
30.791 35.309 5.300
30.791 35.309 6.800
30.791 35.309 8.650
30.791 35.309 10.150
30.791 35.309 12.000
30.791 35.309 13.500
30.791 35.309 15.350
30.791 35.309 16.850
30.791 35.309 18.700
30.791 35.309 20.200
30.791 35.309 20.600
30.791 35.309 25.000
30.842 24.300 20.200
30.842 24.300 20.600
30.842 24.300 25.000
31.384 41.683 5.300
31.384 41.683 6.800
31.384 41.683 8.650
31.384 41.683 10.150
31.384 41.683 12.000
31.384 41.683 13.500
31.384 41.683 15.350
31.384 41.683 16.850
31.384 41.683 18.700
31.384 41.683 20.200
31.633 41.549 0.000
31.633 41.549 5.300
31.633 41.549 6.800
31.633 41.549 8.650
31.633 41.549 10.150
31.633 41.549 12.000
31.633 41.549 13.500
31.633 41.549 15.350
31.633 41.549 16.850
31.633 41.549 18.700
31.633 41.549 20.200
31.633 41.549 20.600
31.633 41.549 25.000
31.639 3.986 0.000
31.639 3.986 26.000
31.725 3.699 0.000
31.725 3.699 26.000
32.380 74.307 0.000
32.380 74.307 26.000
32.466 74.020 0.000
32.466 74.020 26.000
33.721 74.709 0.000
33.721 74.709 26.000
33.807 74.422 0.000
33.807 74.422 26.000
35.644 5.185 0.000
35.644 5.185 26.000
35.729 4.898 0.000
35.729 4.898 26.000
36.984 5.587 0.000
36.984 5.587 26.000
37.070 5.300 0.000
37.070 5.300 26.000
37.865 37.428 20.600
37.865 37.428 25.000
38.080 76.012 0.000
38.080 76.012 26.000
38.166 75.725 0.000
38.166 75.725 26.000
38.559 59.456 0.000
38.559 59.456 5.300
39.086 75.792 5.300
39.086 75.792 6.800
39.086 75.792 8.650
39.086 75.792 10.150
39.086 75.792 12.000
39.086 75.792 13.500
39.086 75.792 15.350
39.086 75.792 16.850
39.086 75.792 18.700
39.086 75.792 20.200
39.220 76.041 0.000
39.220 76.041 5.300
39.220 76.041 6.800
39.220 76.041 8.650
39.220 76.041 10.150
39.220 76.041 12.000
39.220 76.041 13.500
39.220 76.041 15.350
39.220 76.041 16.850
39.220 76.041 18.700
39.220 76.041 20.200
39.220 76.041 20.600
39.220 76.041 25.000
39.220 76.041 26.000
39.421 76.414 0.000
39.421 76.414 26.000
39.470 56.420 0.000
39.470 56.420 5.300
39.532 31.874 20.600
39.532 31.874 25.000
39.536 74.987 0.000
39.536 74.987 26.000
39.823 75.073 0.000
39.823 75.073 26.000
40.932 70.330 0.000
40.932 70.330 26.000
40.988 6.787 0.000
40.988 6.787 26.000
41.074 6.500 0.000
41.074 6.500 26.000
41.218 70.416 0.000
41.218 70.416 26.000
41.333 68.989 0.000
41.333 68.989 26.000
41.417 27.679 5.300
41.417 27.679 6.800
41.417 27.679 8.650
41.417 27.679 10.150
41.417 27.679 12.000
41.417 27.679 13.500
41.417 27.679 15.350
41.417 27.679 16.850
41.417 27.679 18.700
41.417 27.679 20.200
41.620 69.075 0.000
41.620 69.075 26.000
41.666 27.545 6.800
41.666 27.545 8.650
41.666 27.545 10.150
41.666 27.545 12.000
41.666 27.545 12.800
41.666 27.545 13.500
41.666 27.545 15.350
41.666 27.545 16.850
41.666 27.545 18.700
41.666 27.545 20.200
41.666 27.545 20.600
41.666 27.545 25.000
41.915 27.411 5.300
41.915 27.411 6.800
42.329 7.189 0.000
42.329 7.189 26.000
42.415 6.902 0.000
42.415 6.902 26.000
42.636 64.639 0.000
42.636 64.639 26.000
42.851 63.245 5.300
42.851 63.245 6.800
42.851 63.245 8.650
42.851 63.245 10.150
42.851 63.245 12.000
42.851 63.245 13.500
42.851 63.245 15.350
42.851 63.245 16.850
42.851 63.245 18.700
42.851 63.245 20.200
42.923 64.725 0.000
42.923 64.725 26.000
43.038 63.299 0.000
43.038 63.299 26.000
43.100 63.110 6.800
43.100 63.110 8.650
43.100 63.110 10.150
43.100 63.110 12.000
43.100 63.110 13.500
43.100 63.110 15.350
43.100 63.110 16.850
43.100 63.110 18.700
43.100 63.110 20.200
43.100 63.110 20.600
43.100 63.110 25.000
43.325 63.385 0.000
43.325 63.385 26.000
43.732 61.004 0.000
43.732 61.004 5.300
44.053 39.075 5.300
44.053 39.075 6.800
44.053 39.075 8.650
44.053 39.075 10.150
44.053 39.075 12.000
44.053 39.075 13.500
44.053 39.075 15.350
44.053 39.075 16.850
44.053 39.075 18.700
44.053 39.075 20.200
44.187 39.324 6.800
44.187 39.324 8.650
44.187 39.324 10.150
44.187 39.324 12.000
44.187 39.324 12.800
44.187 39.324 13.500
44.187 39.324 15.350
44.187 39.324 16.850
44.187 39.324 18.700
44.187 39.324 20.600
44.187 39.324 25.000
44.436 39.190 5.300
44.436 39.190 6.800
45.854 33.769 20.600
45.854 33.769 25.000
46.333 8.390 0.000
46.333 8.390 26.000
46.419 8.102 0.000
46.419 8.102 26.000
46.972 29.344 5.300
46.972 29.344 6.800
46.972 29.344 8.650
46.972 29.344 10.150
46.972 29.344 12.000
46.972 29.344 13.500
46.972 29.344 15.350
46.972 29.344 16.850
46.972 29.344 18.700
46.972 29.344 20.200
47.075 8.820 5.300
47.075 8.820 6.800
47.075 8.820 8.650
47.075 8.820 10.150
47.075 8.820 12.000
47.075 8.820 13.500
47.075 8.820 15.350
47.075 8.820 16.850
47.075 8.820 18.700
47.075 8.820 20.200
47.222 29.210 6.800
47.222 29.210 8.650
47.222 29.210 10.150
47.222 29.210 12.000
47.222 29.210 12.800
47.222 29.210 13.500
47.222 29.210 15.350
47.222 29.210 16.850
47.222 29.210 18.700
47.222 29.210 20.600
47.325 8.686 6.800
47.325 8.686 8.650
47.325 8.686 10.150
47.325 8.686 12.000
47.325 8.686 12.800
47.325 8.686 13.500
47.325 8.686 15.350
47.325 8.686 16.850
47.325 8.686 18.700
47.325 8.686 20.200
47.325 8.686 20.600
47.325 8.686 25.000
47.459 8.935 5.300
47.459 8.935 6.800
47.471 29.076 5.300
47.471 29.076 6.800
47.674 8.791 0.000
47.674 8.791 26.000
47.760 8.504 0.000
47.760 8.504 26.000
51.678 9.991 0.000
51.678 9.991 13.000
51.764 9.704 0.000
51.764 9.704 13.000
53.019 10.393 0.000
53.019 10.393 13.000
53.105 10.106 0.000
53.105 10.106 13.000
57.023 11.593 0.000
57.023 11.593 13.000
57.109 11.306 0.000
57.109 11.306 13.000
58.364 11.995 0.000
58.364 11.995 13.000
58.450 11.708 0.000
58.450 11.708 13.000
62.368 13.195 0.000
62.368 13.195 13.000
62.454 12.908 0.000
62.454 12.908 13.000
63.709 13.597 0.000
63.709 13.597 13.000
63.795 13.310 0.000
63.795 13.310 13.000
66.223 45.720 5.300
66.223 45.720 6.800
66.357 45.969 0.000
66.357 45.969 5.300
66.357 45.969 6.800
66.357 45.969 12.800
66.358 45.969 0.000
66.358 45.969 13.000
66.645 46.055 0.000
66.645 46.055 13.000
66.759 44.628 0.000
66.759 44.628 13.000
67.047 44.714 0.000
67.047 44.714 13.000
67.713 14.797 0.000
67.713 14.797 13.000
67.799 14.510 0.000
67.799 14.510 13.000
69.054 15.199 0.000
69.054 15.199 13.000
69.140 14.912 0.000
69.140 14.912 13.000
69.217 36.439 0.000
69.217 36.439 13.000
69.504 36.525 0.000
69.504 36.525 13.000
69.619 35.098 0.000
69.619 35.098 13.000
69.906 35.184 0.000
69.906 35.184 13.000
72.034 27.053 0.000
72.034 27.053 13.000
72.321 27.139 0.000
72.321 27.139 13.000
72.435 25.712 0.000
72.435 25.712 13.000
72.723 25.798 0.000
72.723 25.798 13.000
73.997 16.681 0.000
73.997 16.681 13.000
74.083 16.393 0.000
74.083 16.393 13.000
74.735 18.050 0.000
74.735 18.050 13.000
74.801 17.131 5.300
74.801 17.131 6.800
75.022 18.136 0.000
75.022 18.136 13.000
75.050 16.996 0.000
75.050 16.996 5.300
75.050 16.996 6.800
75.050 16.996 12.800
75.051 16.996 0.000
75.051 16.996 13.000
75.424 16.795 0.000
75.424 16.795 13.000
3 197 193 191
3 195 197 191
3 311 258 256
3 309 311 256
3 327 323 321
3 325 327 321
3 409 375 373
3 407 409 373
3 519 469 467
3 517 519 467
3 527 523 521
3 525 527 521
3 535 531 529
3 533 535 529
3 543 539 537
3 541 543 537
3 565 561 559
3 563 565 559
3 597 587 591
3 585 583 597
3 599 585 597
3 591 599 597
3 553 557 555
3 551 553 555
3 577 581 579
3 575 577 579
3 569 573 571
3 567 569 571
3 155 179 181
3 149 151 155
3 153 149 155
3 181 153 155
3 139 147 141
3 137 139 141
3 127 131 129
3 125 127 129
3 119 123 121
3 117 119 121
3 107 115 113
3 105 107 113
3 95 101 97
3 93 95 97
3 87 91 89
3 85 87 89
3 79 83 81
3 73 79 81
3 63 71 65
3 61 63 65
3 45 49 47
3 43 45 47
3 67 75 77
3 69 67 77
3 99 109 111
3 103 99 111
3 133 143 145
3 135 133 145
3 183 187 189
3 185 183 189
3 220 229 231
3 222 220 231
3 313 317 319
3 315 313 319
3 41 31 16
3 35 41 16
3 0 35 16
3 53 57 55
3 51 53 55
3 377 391 379
3 371 377 379
3 423 438 425
3 411 423 425
3 595 501 393
3 452 549 595
3 491 452 595
3 393 491 595
3 501 157 5
3 452 491 393
3 272 452 393
3 209 298 245
3 349 427 209
3 5 349 209
3 272 393 501
3 5 209 245
3 272 501 5
3 245 272 5
3 347 333 331
3 369 367 347
3 361 369 347
3 331 361 347
3 29 17 1
3 3 29 1
3 37 3 1
3 33 37 1
3 403 511 166
3 284 403 166
3 225 284 166
3 254 281 225
3 218 307 254
3 358 436 218
3 14 358 218
3 166 14 218
3 225 166 218
3 254 225 218
3 596 505 397
3 456 550 596
3 495 456 596
3 397 495 596
3 511 166 14
3 461 500 403
3 281 461 403
3 218 307 254
3 358 436 218
3 14 358 218
3 281 403 511
3 14 218 254
3 281 511 14
3 254 281 14
3 404 512 167
3 285 404 167
3 226 285 167
3 255 282 226
3 219 308 255
3 359 437 219
3 15 359 219
3 167 15 219
3 226 167 219
3 255 226 219
3 465 365 329
3 461 465 329
3 466 366 330
3 462 466 330
3 198 194 192
3 196 198 192
3 312 259 257
3 310 312 257
3 328 324 322
3 326 328 322
3 410 376 374
3 408 410 374
3 520 470 468
3 518 520 468
3 168 180 182
3 150 152 168
3 154 150 168
3 182 154 168
3 140 148 142
3 138 140 142
3 128 132 130
3 126 128 130
3 528 524 522
3 526 528 522
3 536 532 530
3 534 536 530
3 544 540 538
3 542 544 538
3 566 562 560
3 564 566 560
3 598 588 592
3 586 584 598
3 600 586 598
3 592 600 598
3 108 116 114
3 106 108 114
3 96 102 98
3 94 96 98
3 88 92 90
3 86 88 90
3 80 84 82
3 74 80 82
3 64 72 66
3 62 64 66
3 46 50 48
3 44 46 48
3 54 58 56
3 52 54 56
3 120 124 122
3 118 120 122
3 30 18 2
3 4 30 2
3 38 4 2
3 34 38 2
3 68 76 78
3 70 68 78
3 100 110 112
3 104 100 112
3 134 144 146
3 136 134 146
3 184 188 190
3 186 184 190
3 221 230 232
3 223 221 232
3 314 318 320
3 316 314 320
3 360 334 332
3 370 368 360
3 362 370 360
3 332 362 360
3 378 392 380
3 372 378 380
3 424 439 426
3 412 424 426
3 554 558 556
3 552 554 556
3 570 574 572
3 568 570 572
3 578 582 580
3 576 578 580
3 155 39 59
3 547 593 155
3 270 547 155
3 243 270 155
3 227 296 243
3 335 363 227
3 347 440 335
3 59 347 335
3 243 155 59
3 227 243 59
3 335 227 59
3 40 39 155
3 156 40 155
3 594 156 155
3 594 155 593
3 548 594 593
3 548 593 547
3 548 547 270
3 271 548 270
3 244 271 270
3 244 270 243
3 297 244 243
3 297 243 296
3 228 297 296
3 228 296 227
3 364 228 227
3 364 227 363
3 336 364 363
3 336 363 335
3 441 336 335
3 441 335 440
3 348 441 440
3 348 440 347
3 348 347 59
3 60 348 59
3 60 59 39
3 40 60 39
3 156 40 60
3 548 594 156
3 271 548 156
3 244 271 156
3 228 297 244
3 336 364 228
3 348 441 336
3 60 348 336
3 244 156 60
3 228 244 60
3 336 228 60
3 589 513 405
3 463 545 589
3 515 463 589
3 405 515 589
3 481 169 19
3 442 471 381
3 260 442 381
3 199 286 233
3 337 413 199
3 19 337 199
3 260 381 481
3 19 199 233
3 260 481 19
3 233 260 19
3 502 158 6
3 453 492 394
3 273 453 394
3 210 299 246
3 350 428 210
3 6 350 210
3 273 394 502
3 6 210 246
3 273 502 6
3 246 273 6
3 503 159 7
3 454 493 395
3 274 454 395
3 211 300 247
3 351 429 211
3 7 351 211
3 274 395 503
3 7 211 247
3 274 503 7
3 247 274 7
3 504 160 8
3 455 494 396
3 275 455 396
3 212 301 248
3 352 430 212
3 8 352 212
3 275 396 504
3 8 212 248
3 275 504 8
3 248 275 8
3 506 161 9
3 457 496 398
3 276 457 398
3 213 302 249
3 353 431 213
3 9 353 213
3 276 398 506
3 9 213 249
3 276 506 9
3 249 276 9
3 507 162 10
3 458 497 399
3 277 458 399
3 214 303 250
3 354 432 214
3 10 354 214
3 277 399 507
3 10 214 250
3 277 507 10
3 250 277 10
3 508 163 11
3 459 498 400
3 278 459 400
3 215 304 251
3 355 433 215
3 11 355 215
3 278 400 508
3 11 215 251
3 278 508 11
3 251 278 11
3 509 164 12
3 460 499 401
3 279 460 401
3 216 305 252
3 356 434 216
3 12 356 216
3 279 401 509
3 12 216 252
3 279 509 12
3 252 279 12
3 511 166 14
3 461 500 403
3 281 461 403
3 218 307 254
3 358 436 218
3 14 358 218
3 281 403 511
3 14 218 254
3 281 511 14
3 254 281 14
3 1 17 16
3 1 16 0
3 36 1 0
3 36 0 35
3 36 35 41
3 42 36 41
3 42 41 31
3 32 42 31
3 32 31 16
3 17 32 16
3 348 60 59
3 348 59 347
3 348 347 440
3 441 348 440
3 441 440 335
3 336 441 335
3 336 335 363
3 364 336 363
3 364 363 227
3 228 364 227
3 228 227 296
3 297 228 296
3 297 296 243
3 244 297 243
3 244 243 270
3 271 244 270
3 548 271 270
3 548 270 547
3 548 547 593
3 594 548 593
3 594 593 155
3 156 594 155
3 40 156 155
3 40 155 39
3 60 40 39
3 60 39 59
3 359 358 436
3 437 359 436
3 437 436 218
3 219 437 218
3 219 218 307
3 308 219 307
3 308 307 254
3 255 308 254
3 255 254 281
3 282 255 281
3 282 281 225
3 226 282 225
3 226 225 284
3 285 226 284
3 404 285 284
3 404 284 403
3 404 403 511
3 512 404 511
3 512 511 166
3 167 512 166
3 15 167 166
3 15 166 14
3 359 15 14
3 359 14 358
3 462 466 465
3 462 465 461
3 462 461 329
3 330 462 329
3 330 329 365
3 366 330 365
3 466 366 365
3 466 365 465
3 592 591 599
3 600 592 599
3 600 599 585
3 586 600 585
3 584 586 585
3 584 585 583
3 598 584 583
3 598 583 597
3 588 598 597
3 588 597 587
3 592 588 587
3 592 587 591
3 564 566 565
3 564 565 563
3 564 563 559
3 560 564 559
3 560 559 561
3 562 560 561
3 566 562 561
3 566 561 565
3 542 544 543
3 542 543 541
3 542 541 537
3 538 542 537
3 538 537 539
3 540 538 539
3 544 540 539
3 544 539 543
3 534 536 535
3 534 535 533
3 534 533 529
3 530 534 529
3 530 529 531
3 532 530 531
3 536 532 531
3 536 531 535
3 526 528 527
3 526 527 525
3 526 525 521
3 522 526 521
3 522 521 523
3 524 522 523
3 528 524 523
3 528 523 527
3 518 520 519
3 518 519 517
3 518 517 467
3 468 518 467
3 468 467 469
3 470 468 469
3 520 470 469
3 520 469 519
3 408 410 409
3 408 409 407
3 408 407 373
3 374 408 373
3 374 373 375
3 376 374 375
3 410 376 375
3 410 375 409
3 326 328 327
3 326 327 325
3 326 325 321
3 322 326 321
3 322 321 323
3 324 322 323
3 328 324 323
3 328 323 327
3 310 312 311
3 310 311 309
3 310 309 256
3 257 310 256
3 257 256 258
3 259 257 258
3 312 259 258
3 312 258 311
3 196 198 197
3 196 197 195
3 196 195 191
3 192 196 191
3 192 191 193
3 194 192 193
3 198 194 193
3 198 193 197
3 182 181 153
3 154 182 153
3 150 154 153
3 150 153 149
3 152 150 149
3 152 149 151
3 152 151 155
3 168 152 155
3 180 168 155
3 180 155 179
3 180 179 181
3 182 180 181
3 140 139 137
3 138 140 137
3 138 137 141
3 142 138 141
3 148 142 141
3 148 141 147
3 140 148 147
3 140 147 139
3 128 127 125
3 126 128 125
3 126 125 129
3 130 126 129
3 132 130 129
3 132 129 131
3 128 132 131
3 128 131 127
3 120 119 117
3 118 120 117
3 118 117 121
3 122 118 121
3 124 122 121
3 124 121 123
3 120 124 123
3 120 123 119
3 108 107 105
3 106 108 105
3 106 105 113
3 114 106 113
3 116 114 113
3 116 113 115
3 108 116 115
3 108 115 107
3 96 95 93
3 94 96 93
3 94 93 97
3 98 94 97
3 102 98 97
3 102 97 101
3 96 102 101
3 96 101 95
3 88 87 85
3 86 88 85
3 86 85 89
3 90 86 89
3 92 90 89
3 92 89 91
3 88 92 91
3 88 91 87
3 80 79 73
3 74 80 73
3 74 73 81
3 82 74 81
3 84 82 81
3 84 81 83
3 80 84 83
3 80 83 79
3 64 63 61
3 62 64 61
3 62 61 65
3 66 62 65
3 72 66 65
3 72 65 71
3 64 72 71
3 64 71 63
3 54 53 51
3 52 54 51
3 52 51 55
3 56 52 55
3 58 56 55
3 58 55 57
3 54 58 57
3 54 57 53
3 46 45 43
3 44 46 43
3 44 43 47
3 48 44 47
3 50 48 47
3 50 47 49
3 46 50 49
3 46 49 45
3 34 2 1
3 34 1 33
3 34 33 37
3 38 34 37
3 38 37 3
3 4 38 3
3 4 3 29
3 30 4 29
3 30 29 17
3 18 30 17
3 2 18 17
3 2 17 1
3 68 67 69
3 70 68 69
3 78 70 69
3 78 69 77
3 76 78 77
3 76 77 75
3 76 75 67
3 68 76 67
3 100 99 103
3 104 100 103
3 112 104 103
3 112 103 111
3 110 112 111
3 110 111 109
3 110 109 99
3 100 110 99
3 134 133 135
3 136 134 135
3 146 136 135
3 146 135 145
3 144 146 145
3 144 145 143
3 144 143 133
3 134 144 133
3 184 183 185
3 186 184 185
3 190 186 185
3 190 185 189
3 188 190 189
3 188 189 187
3 188 187 183
3 184 188 183
3 221 220 222
3 223 221 222
3 232 223 222
3 232 222 231
3 230 232 231
3 230 231 229
3 230 229 220
3 221 230 220
3 314 313 315
3 316 314 315
3 320 316 315
3 320 315 319
3 318 320 319
3 318 319 317
3 318 317 313
3 314 318 313
3 362 332 331
3 362 331 361
3 362 361 369
3 370 362 369
3 370 369 367
3 368 370 367
3 360 368 367
3 360 367 347
3 360 347 333
3 334 360 333
3 332 334 333
3 332 333 331
3 378 377 371
3 372 378 371
3 372 371 379
3 380 372 379
3 392 380 379
3 392 379 391
3 378 392 391
3 378 391 377
3 424 423 411
3 412 424 411
3 412 411 425
3 426 412 425
3 439 426 425
3 439 425 438
3 424 439 438
3 424 438 423
3 554 553 551
3 552 554 551
3 552 551 555
3 556 552 555
3 558 556 555
3 558 555 557
3 554 558 557
3 554 557 553
3 570 569 567
3 568 570 567
3 568 567 571
3 572 568 571
3 574 572 571
3 574 571 573
3 570 574 573
3 570 573 569
3 578 577 575
3 576 578 575
3 576 575 579
3 580 576 579
3 582 580 579
3 582 579 581
3 578 582 581
3 578 581 577
3 516 406 405
3 516 405 515
3 464 516 515
3 464 515 463
3 546 464 463
3 546 463 545
3 546 545 589
3 590 546 589
3 590 589 513
3 514 590 513
3 406 514 513
3 406 513 405
3 338 337 413
3 414 338 413
3 414 413 199
3 200 414 199
3 200 199 286
3 287 200 286
3 287 286 233
3 234 287 233
3 234 233 260
3 261 234 260
3 443 261 260
3 443 260 442
3 443 442 471
3 472 443 471
3 472 471 381
3 382 472 381
3 382 381 481
3 482 382 481
3 482 481 169
3 170 482 169
3 20 170 169
3 20 169 19
3 338 20 19
3 338 19 337
3 340 339 415
3 416 340 415
3 416 415 201
3 202 416 201
3 202 201 288
3 289 202 288
3 289 288 235
3 236 289 235
3 236 235 262
3 263 236 262
3 445 263 262
3 445 262 444
3 445 444 473
3 474 445 473
3 474 473 383
3 384 474 383
3 384 383 483
3 484 384 483
3 484 483 171
3 172 484 171
3 22 172 171
3 22 171 21
3 340 22 21
3 340 21 339
3 342 341 417
3 418 342 417
3 418 417 203
3 204 418 203
3 204 203 290
3 291 204 290
3 291 290 237
3 238 291 237
3 238 237 264
3 265 238 264
3 447 265 264
3 447 264 446
3 447 446 475
3 476 447 475
3 476 475 385
3 386 476 385
3 386 385 485
3 486 386 485
3 486 485 173
3 174 486 173
3 24 174 173
3 24 173 23
3 342 24 23
3 342 23 341
3 344 343 419
3 420 344 419
3 420 419 205
3 206 420 205
3 206 205 292
3 293 206 292
3 293 292 239
3 240 293 239
3 240 239 266
3 267 240 266
3 449 267 266
3 449 266 448
3 449 448 477
3 478 449 477
3 478 477 387
3 388 478 387
3 388 387 487
3 488 388 487
3 488 487 175
3 176 488 175
3 26 176 175
3 26 175 25
3 344 26 25
3 344 25 343
3 346 345 421
3 422 346 421
3 422 421 207
3 208 422 207
3 208 207 294
3 295 208 294
3 295 294 241
3 242 295 241
3 242 241 268
3 269 242 268
3 451 269 268
3 451 268 450
3 451 450 479
3 480 451 479
3 480 479 389
3 390 480 389
3 390 389 489
3 490 390 489
3 490 489 177
3 178 490 177
3 28 178 177
3 28 177 27
3 346 28 27
3 346 27 345
3 495 397 393
3 495 393 491
3 456 495 491
3 456 491 452
3 550 456 452
3 550 452 549
3 550 549 595
3 596 550 595
3 596 595 501
3 505 596 501
3 397 505 501
3 397 501 393
3 350 349 427
3 428 350 427
3 428 427 209
3 210 428 209
3 210 209 298
3 299 210 298
3 299 298 245
3 246 299 245
3 246 245 272
3 273 246 272
3 453 273 272
3 453 272 452
3 453 452 491
3 492 453 491
3 492 491 393
3 394 492 393
3 394 393 501
3 502 394 501
3 502 501 157
3 158 502 157
3 6 158 157
3 6 157 5
3 350 6 5
3 350 5 349
3 352 351 429
3 430 352 429
3 430 429 211
3 212 430 211
3 212 211 300
3 301 212 300
3 301 300 247
3 248 301 247
3 248 247 274
3 275 248 274
3 455 275 274
3 455 274 454
3 455 454 493
3 494 455 493
3 494 493 395
3 396 494 395
3 396 395 503
3 504 396 503
3 504 503 159
3 160 504 159
3 8 160 159
3 8 159 7
3 352 8 7
3 352 7 351
3 354 353 431
3 432 354 431
3 432 431 213
3 214 432 213
3 214 213 302
3 303 214 302
3 303 302 249
3 250 303 249
3 250 249 276
3 277 250 276
3 458 277 276
3 458 276 457
3 458 457 496
3 497 458 496
3 497 496 398
3 399 497 398
3 399 398 506
3 507 399 506
3 507 506 161
3 162 507 161
3 10 162 161
3 10 161 9
3 354 10 9
3 354 9 353
3 356 355 433
3 434 356 433
3 434 433 215
3 216 434 215
3 216 215 304
3 305 216 304
3 305 304 251
3 252 305 251
3 252 251 278
3 279 252 278
3 460 279 278
3 460 278 459
3 460 459 498
3 499 460 498
3 499 498 400
3 401 499 400
3 401 400 508
3 509 401 508
3 509 508 163
3 164 509 163
3 12 164 163
3 12 163 11
3 356 12 11
3 356 11 355
3 435 357 358
3 435 358 436
3 217 435 436
3 217 436 218
3 306 217 218
3 306 218 307
3 253 306 307
3 253 307 254
3 280 253 254
3 280 254 281
3 224 280 281
3 224 281 225
3 283 224 225
3 283 225 284
3 283 284 403
3 402 283 403
3 510 402 403
3 510 403 511
3 165 510 511
3 165 511 166
3 165 166 14
3 13 165 14
3 13 14 358
3 357 13 358
