OFF
261 481 0
0.000 54.679 0.000
0.000 54.679 14.500
5.871 34.486 0.000
5.871 34.486 14.500
9.107 50.513 14.500
9.107 50.513 17.100
13.837 36.801 0.000
13.837 36.801 14.500
15.898 0.000 0.000
15.898 0.000 14.500
18.724 60.122 0.000
18.724 60.122 14.500
20.551 53.840 14.500
20.551 53.840 17.100
23.178 2.116 14.500
23.178 2.116 17.100
24.595 39.929 0.000
24.595 39.929 14.500
25.106 38.172 14.500
25.106 38.172 17.100
28.223 39.078 14.500
28.223 39.078 17.100
32.862 24.531 14.500
32.875 24.252 14.500
32.875 24.809 14.500
32.875 24.810 14.500
32.911 23.975 14.500
32.911 25.086 14.500
32.971 23.702 14.500
32.971 23.703 14.500
32.971 25.359 14.500
33.055 23.436 14.500
33.055 25.625 14.500
33.162 23.178 14.500
33.162 25.883 14.500
33.291 22.931 14.500
33.291 26.130 14.500
33.291 26.131 14.500
33.441 22.695 14.500
33.441 26.366 14.500
33.611 22.474 14.500
33.611 26.587 14.500
33.611 26.588 14.500
33.800 22.268 14.500
33.800 26.793 14.500
34.005 22.079 14.500
34.006 22.079 14.500
34.006 26.982 14.500
34.012 24.530 76.100
34.020 24.352 76.100
34.020 24.709 76.100
34.044 24.174 76.100
34.044 24.886 76.100
34.062 24.530 76.100
34.070 24.356 76.100
34.070 24.705 76.100
34.082 24.000 76.100
34.082 25.061 76.100
34.093 24.183 76.100
34.093 24.878 76.100
34.131 24.013 76.100
34.131 25.048 76.100
34.136 23.829 76.100
34.136 25.231 76.100
34.183 23.846 76.100
34.183 25.214 76.100
34.204 23.664 76.100
34.204 25.397 76.100
34.227 21.909 14.500
34.227 27.152 14.500
34.250 23.685 76.100
34.250 25.375 76.100
34.287 23.505 76.100
34.287 25.555 76.100
34.330 23.530 76.100
34.330 25.530 76.100
34.383 23.354 76.100
34.383 25.706 76.100
34.424 23.383 76.100
34.424 25.677 76.100
34.462 21.759 14.500
34.462 27.302 14.500
34.492 23.213 76.100
34.492 25.848 76.100
34.530 23.245 76.100
34.530 25.816 76.100
34.613 23.081 76.100
34.613 25.980 76.100
34.648 23.116 76.100
34.648 25.944 76.100
34.710 21.630 14.500
34.710 21.631 14.500
34.710 27.431 14.500
34.745 22.960 76.100
34.745 26.101 76.100
34.777 22.998 76.100
34.777 26.062 76.100
34.887 22.851 76.100
34.887 26.209 76.100
34.915 22.892 76.100
34.915 26.168 76.100
34.968 21.524 14.500
34.968 27.537 14.500
34.968 27.538 14.500
34.993 42.951 0.000
34.993 42.951 14.500
35.037 22.755 76.100
35.037 26.305 76.100
35.062 22.798 76.100
35.062 26.262 76.100
35.196 22.672 76.100
35.196 26.388 76.100
35.217 22.718 76.100
35.217 26.343 76.100
35.234 21.440 14.500
35.234 27.621 14.500
35.361 22.604 76.100
35.361 26.456 76.100
35.378 22.651 76.100
35.378 26.409 76.100
35.507 21.379 14.500
35.507 27.682 14.500
35.532 22.550 76.100
35.532 26.510 76.100
35.545 22.598 76.100
35.545 26.462 76.100
35.706 22.511 76.100
35.706 26.549 76.100
35.715 22.561 76.100
35.715 26.500 76.100
35.783 21.343 14.500
35.784 21.343 14.500
35.784 27.718 14.500
35.884 22.488 76.100
35.884 26.572 76.100
35.888 22.538 76.100
35.888 26.522 76.100
36.062 21.331 14.500
36.062 22.480 76.100
36.062 22.530 76.100
36.062 26.530 76.100
36.062 26.580 76.100
36.062 27.730 14.500
36.237 22.538 76.100
36.237 26.522 76.100
36.241 22.488 76.100
36.241 26.572 76.100
36.341 21.343 14.500
36.341 27.718 14.500
36.410 22.561 76.100
36.410 26.500 76.100
36.418 22.511 76.100
36.418 26.549 76.100
36.580 22.598 76.100
36.580 26.462 76.100
36.593 22.550 76.100
36.593 26.510 76.100
36.618 21.379 14.500
36.618 27.682 14.500
36.746 22.651 76.100
36.746 26.409 76.100
36.763 22.604 76.100
36.764 26.456 76.100
36.891 21.439 14.500
36.891 21.440 14.500
36.891 27.621 14.500
36.908 22.718 76.100
36.908 26.343 76.100
36.929 22.672 76.100
36.929 26.388 76.100
37.062 22.798 76.100
37.062 26.262 76.100
37.087 22.755 76.100
37.087 26.305 76.100
37.157 21.523 14.500
37.157 21.524 14.500
37.157 27.537 14.500
37.210 22.892 76.100
37.210 26.168 76.100
37.238 22.851 76.100
37.238 26.209 76.100
37.348 22.998 76.100
37.348 26.062 76.100
37.380 22.960 76.100
37.380 26.100 76.100
37.415 21.630 14.500
37.415 27.430 14.500
37.415 27.431 14.500
37.477 23.116 76.100
37.477 25.944 76.100
37.512 23.081 76.100
37.512 25.980 76.100
37.594 23.245 76.100
37.594 25.816 76.100
37.633 23.212 76.100
37.633 25.848 76.100
37.662 21.759 14.500
37.662 27.301 14.500
37.662 27.302 14.500
37.701 23.383 76.100
37.701 25.677 76.100
37.739 6.349 14.500
37.739 6.349 17.100
37.742 23.354 76.100
37.742 25.706 76.100
37.794 23.530 76.100
37.794 25.530 76.100
37.838 23.505 76.100
37.838 25.555 76.100
37.875 23.685 76.100
37.875 25.375 76.100
37.898 21.909 14.500
37.898 27.151 14.500
37.898 27.152 14.500
37.920 23.664 76.100
37.920 25.396 76.100
37.942 23.846 76.100
37.942 25.214 76.100
37.989 23.829 76.100
37.989 25.231 76.100
37.994 24.013 76.100
37.994 25.048 76.100
38.032 24.183 76.100
38.032 24.877 76.100
38.043 24.000 76.100
38.043 25.061 76.100
38.055 24.356 76.100
38.055 24.704 76.100
38.062 24.530 76.100
38.081 24.174 76.100
38.081 24.886 76.100
38.105 24.351 76.100
38.105 24.709 76.100
38.112 24.530 76.100
38.119 22.079 14.500
38.119 26.982 14.500
38.325 22.268 14.500
38.325 26.793 14.500
38.514 22.473 14.500
38.514 22.474 14.500
38.514 26.587 14.500
38.684 22.695 14.500
38.684 26.366 14.500
38.834 22.930 14.500
38.834 22.931 14.500
38.834 26.130 14.500
38.963 23.178 14.500
38.963 25.883 14.500
39.069 23.436 14.500
39.069 25.625 14.500
39.153 23.702 14.500
39.153 25.358 14.500
39.153 25.359 14.500
39.214 23.975 14.500
39.214 25.086 14.500
39.250 24.251 14.500
39.250 24.252 14.500
39.250 24.809 14.500
39.262 24.530 14.500
45.019 8.466 0.000
45.019 8.466 14.500
3 6 2 0
3 16 6 0
3 10 16 0
3 259 8 2
3 104 259 2
3 257 258 255
3 254 257 255
3 251 254 255
3 249 251 255
3 247 249 255
3 245 247 255
3 242 245 255
3 240 242 255
3 237 240 255
3 235 237 255
3 212 235 255
3 197 212 255
3 186 197 255
3 176 186 255
3 165 176 255
3 158 165 255
3 148 158 255
3 142 148 255
3 132 142 255
3 121 132 255
3 115 121 255
3 102 115 255
3 92 102 255
3 81 92 255
3 69 81 255
3 47 69 255
3 44 47 255
3 41 44 255
3 39 41 255
3 36 39 255
3 34 36 255
3 32 34 255
3 30 32 255
3 27 30 255
3 24 27 255
3 22 24 255
3 23 22 255
3 26 23 255
3 28 26 255
3 31 28 255
3 33 31 255
3 35 33 255
3 38 35 255
3 40 38 255
3 43 40 255
3 46 43 255
3 68 46 255
3 80 68 255
3 90 80 255
3 101 90 255
3 114 101 255
3 120 114 255
3 131 120 255
3 137 131 255
3 147 137 255
3 157 147 255
3 163 157 255
3 174 163 255
3 185 174 255
3 196 185 255
3 211 196 255
3 234 211 255
3 236 234 255
3 238 236 255
3 241 238 255
3 243 241 255
3 246 243 255
3 248 246 255
3 250 248 255
3 253 250 255
3 227 228 226
3 223 227 226
3 221 223 226
3 217 221 226
3 210 217 226
3 206 210 226
3 200 206 226
3 193 200 226
3 189 193 226
3 182 189 226
3 178 182 226
3 171 178 226
3 167 171 226
3 160 167 226
3 154 160 226
3 150 154 226
3 144 150 226
3 140 144 226
3 136 140 226
3 129 136 226
3 125 129 226
3 119 125 226
3 113 119 226
3 109 113 226
3 100 109 226
3 96 100 226
3 89 96 226
3 85 89 226
3 79 85 226
3 75 79 226
3 71 75 226
3 65 71 226
3 61 65 226
3 59 61 226
3 55 59 226
3 53 55 226
3 54 53 226
3 58 54 226
3 60 58 226
3 64 60 226
3 70 64 226
3 74 70 226
3 78 74 226
3 84 78 226
3 88 84 226
3 95 88 226
3 99 95 226
3 108 99 226
3 112 108 226
3 118 112 226
3 124 118 226
3 128 124 226
3 135 128 226
3 139 135 226
3 143 139 226
3 149 143 226
3 153 149 226
3 159 153 226
3 166 159 226
3 170 166 226
3 177 170 226
3 181 177 226
3 188 181 226
3 192 188 226
3 199 192 226
3 205 199 226
3 209 205 226
3 216 209 226
3 220 216 226
3 222 220 226
3 14 4 12
3 20 201 14
3 18 20 14
3 12 18 14
3 259 8 2
3 104 259 2
3 260 9 8
3 260 8 259
3 105 260 259
3 105 259 104
3 105 104 2
3 3 105 2
3 3 2 8
3 9 3 8
3 260 9 3
3 105 260 3
3 6 2 0
3 16 6 0
3 10 16 0
3 7 3 2
3 7 2 6
3 17 7 6
3 17 6 16
3 11 17 16
3 11 16 10
3 11 10 0
3 1 11 0
3 1 0 2
3 3 1 2
3 7 3 1
3 17 7 1
3 11 17 1
3 14 4 12
3 20 201 14
3 18 20 14
3 12 18 14
3 5 4 14
3 15 5 14
3 202 15 14
3 202 14 201
3 21 202 201
3 21 201 20
3 21 20 18
3 19 21 18
3 13 19 18
3 13 18 12
3 13 12 4
3 5 13 4
3 15 5 13
3 21 202 15
3 19 21 15
3 13 19 15
3 232 233 231
3 230 232 231
3 225 230 231
3 219 225 231
3 215 219 231
3 208 215 231
3 204 208 231
3 195 204 231
3 191 195 231
3 184 191 231
3 180 184 231
3 173 180 231
3 169 173 231
3 162 169 231
3 156 162 231
3 152 156 231
3 146 152 231
3 141 146 231
3 134 141 231
3 127 134 231
3 123 127 231
3 117 123 231
3 111 117 231
3 107 111 231
3 98 107 231
3 94 98 231
3 87 94 231
3 83 87 231
3 77 83 231
3 73 77 231
3 67 73 231
3 63 67 231
3 57 63 231
3 52 57 231
3 50 52 231
3 48 50 231
3 49 48 231
3 51 49 231
3 56 51 231
3 62 56 231
3 66 62 231
3 72 66 231
3 76 72 231
3 82 76 231
3 86 82 231
3 93 86 231
3 97 93 231
3 106 97 231
3 110 106 231
3 116 110 231
3 122 116 231
3 126 122 231
3 133 126 231
3 138 133 231
3 145 138 231
3 151 145 231
3 155 151 231
3 161 155 231
3 168 161 231
3 172 168 231
3 179 172 231
3 183 179 231
3 190 183 231
3 194 190 231
3 203 194 231
3 207 203 231
3 214 207 231
3 218 214 231
3 224 218 231
3 229 224 231
3 257 258 256
3 254 257 256
3 252 254 256
3 249 252 256
3 247 249 256
3 245 247 256
3 242 245 256
3 240 242 256
3 237 240 256
3 235 237 256
3 213 235 256
3 198 213 256
3 187 198 256
3 176 187 256
3 165 176 256
3 158 165 256
3 148 158 256
3 142 148 256
3 132 142 256
3 121 132 256
3 115 121 256
3 103 115 256
3 92 103 256
3 81 92 256
3 69 81 256
3 47 69 256
3 44 47 256
3 42 44 256
3 39 42 256
3 37 39 256
3 34 37 256
3 32 34 256
3 30 32 256
3 27 30 256
3 25 27 256
3 22 25 256
3 23 22 256
3 26 23 256
3 29 26 256
3 31 29 256
3 33 31 256
3 35 33 256
3 38 35 256
3 40 38 256
3 43 40 256
3 45 43 256
3 68 45 256
3 80 68 256
3 91 80 256
3 101 91 256
3 114 101 256
3 120 114 256
3 130 120 256
3 137 130 256
3 147 137 256
3 157 147 256
3 164 157 256
3 175 164 256
3 185 175 256
3 196 185 256
3 211 196 256
3 234 211 256
3 236 234 256
3 239 236 256
3 241 239 256
3 244 241 256
3 246 244 256
3 248 246 256
3 250 248 256
3 253 250 256
3 258 233 232
3 257 258 232
3 257 232 230
3 254 257 230
3 254 230 225
3 252 254 225
3 252 225 219
3 249 252 219
3 249 219 215
3 247 249 215
3 247 215 208
3 245 247 208
3 245 208 204
3 242 245 204
3 242 204 195
3 240 242 195
3 240 195 191
3 237 240 191
3 184 237 191
3 184 235 237
3 180 235 184
3 180 213 235
3 173 213 180
3 173 198 213
3 169 198 173
3 169 187 198
3 162 187 169
3 162 176 187
3 156 176 162
3 156 165 176
3 152 165 156
3 152 158 165
3 146 158 152
3 146 148 158
3 141 148 146
3 141 142 148
3 134 142 141
3 134 132 142
3 127 132 134
3 127 121 132
3 123 121 127
3 123 115 121
3 117 115 123
3 117 103 115
3 111 103 117
3 111 92 103
3 107 92 111
3 107 81 92
3 98 81 107
3 98 69 81
3 94 69 98
3 94 47 69
3 87 47 94
3 87 44 47
3 83 44 87
3 83 42 44
3 77 42 83
3 77 39 42
3 73 39 77
3 73 37 39
3 67 37 73
3 67 34 37
3 63 34 67
3 63 32 34
3 57 32 63
3 57 30 32
3 52 30 57
3 52 27 30
3 50 27 52
3 50 25 27
3 48 25 50
3 48 22 25
3 49 22 48
3 49 23 22
3 51 23 49
3 51 26 23
3 56 26 51
3 56 29 26
3 62 29 56
3 62 31 29
3 66 31 62
3 66 33 31
3 72 33 66
3 72 35 33
3 76 35 72
3 76 38 35
3 82 38 76
3 82 40 38
3 86 40 82
3 86 43 40
3 43 86 93
3 45 43 93
3 45 93 97
3 68 45 97
3 68 97 106
3 80 68 106
3 80 106 110
3 91 80 110
3 91 110 116
3 101 91 116
3 101 116 122
3 114 101 122
3 114 122 126
3 120 114 126
3 120 126 133
3 130 120 133
3 130 133 138
3 137 130 138
3 137 138 145
3 147 137 145
3 147 145 151
3 157 147 151
3 157 151 155
3 164 157 155
3 164 155 161
3 175 164 161
3 175 161 168
3 185 175 168
3 185 168 172
3 196 185 172
3 196 172 179
3 211 196 179
3 211 179 183
3 234 211 183
3 234 183 190
3 236 234 190
3 236 190 194
3 239 236 194
3 239 194 203
3 241 239 203
3 241 203 207
3 244 241 207
3 244 207 214
3 246 244 214
3 246 214 218
3 248 246 218
3 248 218 224
3 250 248 224
3 250 224 229
3 253 250 229
3 253 229 231
3 256 253 231
3 256 231 233
3 258 256 233
