OFF
943 1610 0
0.000 115.116 0.000
0.000 115.116 6.700
0.000 115.116 11.270
0.000 115.116 15.840
0.000 115.116 29.560
0.000 115.116 44.190
0.050 115.041 44.190
0.050 115.041 51.510
0.382 113.843 0.000
0.382 113.843 6.700
1.274 115.493 0.000
1.274 115.493 6.700
1.660 114.221 0.000
1.660 114.221 6.700
2.587 106.497 0.000
2.587 106.497 6.700
7.649 112.937 0.000
7.649 112.937 6.700
8.768 117.710 0.000
8.768 117.710 6.700
9.150 116.438 0.000
9.150 116.438 6.700
9.606 119.543 6.700
9.606 119.543 11.270
9.606 119.543 15.840
9.606 119.543 29.560
9.606 119.543 44.190
9.606 119.543 51.510
9.988 107.523 44.190
9.988 107.523 48.760
9.988 107.523 51.510
10.043 118.087 0.000
10.043 118.087 6.700
10.043 118.087 11.270
10.043 118.087 15.840
10.043 118.087 29.560
10.043 118.087 44.190
10.043 118.087 51.510
10.428 116.816 0.000
10.428 116.816 6.700
17.536 120.304 0.000
17.536 120.304 6.700
17.918 119.032 0.000
17.918 119.032 6.700
18.811 120.682 0.000
18.811 120.682 6.700
19.196 119.410 0.000
19.196 119.410 6.700
20.090 40.768 6.700
20.090 40.768 11.270
20.090 40.768 15.840
20.090 40.768 29.560
22.132 41.373 6.700
22.132 41.373 11.270
22.132 41.373 15.840
22.132 41.373 29.560
22.132 41.373 44.190
26.305 122.899 0.000
26.305 122.899 6.700
26.687 121.626 0.000
26.687 121.626 6.700
26.947 88.813 48.760
26.947 88.813 69.130
26.995 123.104 6.700
26.995 123.104 11.270
26.995 123.104 15.840
26.995 123.104 29.560
26.995 123.104 44.190
26.995 123.104 51.510
27.579 123.276 0.000
27.579 123.276 6.700
27.965 122.004 0.000
27.965 122.004 6.700
30.581 5.812 6.700
30.581 5.812 11.270
30.581 5.812 15.840
30.581 5.812 29.560
32.623 6.416 6.700
32.623 6.416 11.270
32.623 6.416 15.840
32.623 6.416 29.560
32.623 6.416 44.190
33.054 4.980 0.000
33.054 4.980 6.700
34.167 1.273 0.000
34.167 1.273 6.700
34.337 25.667 44.190
34.337 25.667 48.760
34.337 25.667 51.510
34.549 0.000 0.000
34.549 0.000 6.700
34.549 0.000 11.270
34.549 0.000 15.840
34.549 0.000 29.560
34.549 0.000 44.190
34.549 0.000 51.510
35.073 125.494 0.000
35.073 125.494 6.700
35.442 1.650 0.000
35.442 1.650 6.700
35.455 124.221 0.000
35.455 124.221 6.700
35.827 0.378 0.000
35.827 0.378 6.700
36.347 125.871 0.000
36.347 125.871 6.700
36.672 30.628 0.000
36.672 30.628 61.660
36.733 124.599 0.000
36.733 124.599 6.700
38.677 27.069 44.190
38.677 27.069 48.760
38.677 27.069 51.510
40.186 46.759 48.760
40.186 46.759 69.130
43.841 128.088 0.000
43.841 128.088 6.700
43.851 2.752 0.000
43.851 2.752 6.700
44.223 126.815 0.000
44.223 126.815 6.700
45.115 128.465 0.000
45.115 128.465 6.700
45.501 127.193 0.000
45.501 127.193 6.700
50.851 4.823 0.000
50.851 4.823 6.700
50.851 4.823 11.270
50.851 4.823 15.840
50.851 4.823 29.560
50.851 4.823 44.190
50.851 4.823 51.510
52.319 2.036 0.000
52.319 2.036 61.660
52.339 2.103 0.000
52.339 2.103 6.700
52.339 2.103 11.270
52.339 2.103 15.840
52.339 2.103 29.560
52.339 2.103 44.190
52.339 2.103 48.760
52.609 130.682 0.000
52.609 130.682 6.700
52.991 129.410 0.000
52.991 129.410 6.700
53.883 131.059 0.000
53.883 131.059 6.700
53.883 131.059 11.270
53.883 131.059 15.840
53.883 131.059 29.560
53.883 131.059 44.190
54.269 129.787 0.000
54.269 129.787 6.700
54.745 128.186 6.700
54.745 128.186 11.270
54.745 128.186 15.840
54.745 128.186 29.560
54.990 126.945 0.000
54.990 126.945 6.700
56.370 122.347 0.000
56.370 122.347 6.700
59.487 99.054 48.760
59.487 99.054 69.130
59.546 131.000 44.190
59.546 131.000 48.760
59.546 131.000 51.510
59.546 131.000 61.660
61.377 133.276 0.000
61.377 133.276 6.700
61.377 133.276 11.270
61.377 133.276 15.840
61.377 133.276 29.560
61.759 132.004 0.000
61.759 132.004 6.700
62.203 130.393 6.700
62.203 130.393 11.270
62.203 130.393 15.840
62.203 130.393 29.560
62.565 129.186 0.000
62.565 129.186 6.700
62.651 133.654 0.000
62.651 133.654 6.700
63.037 132.382 0.000
63.037 132.382 6.700
63.175 122.791 44.190
63.175 122.791 48.760
63.175 122.791 51.510
63.944 124.589 0.000
63.944 124.589 6.700
67.204 87.948 48.760
67.204 87.948 57.300
70.145 135.871 0.000
70.145 135.871 6.700
70.145 135.871 44.190
70.145 135.871 51.510
70.527 134.598 0.000
70.527 134.598 6.700
71.419 136.248 0.000
71.419 136.248 6.700
71.419 136.248 15.840
71.419 136.248 29.560
71.419 136.248 44.190
71.805 134.976 0.000
71.805 134.976 6.700
72.543 50.253 0.000
72.543 50.253 61.660
72.726 57.000 48.760
72.726 57.000 69.130
73.682 99.025 48.760
73.682 99.025 61.660
76.446 58.240 48.760
76.446 58.240 57.300
77.463 15.849 15.840
77.463 15.849 29.560
77.463 15.849 44.190
77.950 14.226 0.000
77.950 14.226 15.840
78.332 12.953 0.000
78.332 12.953 15.840
78.332 12.953 29.560
78.332 12.953 44.190
78.913 138.465 0.000
78.913 138.465 6.700
79.225 14.603 0.000
79.225 14.603 15.840
79.295 137.192 0.000
79.295 137.192 6.700
79.610 13.331 0.000
79.610 13.331 15.840
80.187 138.842 0.000
80.187 138.842 6.700
80.573 137.570 0.000
80.573 137.570 6.700
81.930 33.100 44.190
81.930 33.100 48.760
84.949 27.581 0.000
84.949 27.581 6.700
86.718 16.820 0.000
86.718 16.820 15.840
87.100 15.547 0.000
87.100 15.547 15.840
87.626 22.689 6.700
87.626 22.689 11.270
87.626 22.689 15.840
87.681 141.060 0.000
87.681 141.060 6.700
87.993 17.197 0.000
87.993 17.197 15.840
88.063 139.787 0.000
88.063 139.787 6.700
88.166 21.704 0.000
88.166 21.704 6.700
88.166 21.704 11.270
88.166 21.704 15.840
88.166 21.704 44.190
88.166 21.704 48.760
88.190 21.660 0.000
88.190 21.660 61.660
88.378 15.925 0.000
88.378 15.925 15.840
88.955 141.437 0.000
88.955 141.437 6.700
89.341 140.165 0.000
89.341 140.165 6.700
92.689 145.650 15.840
92.689 145.650 29.560
92.689 145.650 44.190
92.689 145.650 48.760
92.689 145.650 61.660
94.051 24.590 6.700
94.051 24.590 11.270
94.051 24.590 15.840
94.178 142.931 15.840
94.178 142.931 29.560
94.178 142.931 44.190
95.486 19.414 0.000
95.486 19.414 6.700
95.641 138.973 44.190
95.641 138.973 48.760
95.868 18.141 0.000
95.868 18.141 6.700
95.868 18.141 11.270
95.868 18.141 15.840
95.868 18.141 29.560
95.868 18.141 44.190
96.449 143.654 0.000
96.449 143.654 6.700
96.761 19.791 0.000
96.761 19.791 6.700
96.831 142.381 0.000
96.831 142.381 6.700
97.146 18.519 0.000
97.146 18.519 6.700
97.723 144.031 0.000
97.723 144.031 6.700
98.109 142.759 0.000
98.109 142.759 6.700
99.563 31.905 0.000
99.563 31.905 6.700
99.682 98.049 48.760
99.682 98.049 57.300
99.686 30.089 0.000
99.686 30.089 6.700
100.630 140.449 0.000
100.630 140.449 6.700
100.630 140.449 44.190
100.630 140.449 48.760
101.268 24.817 0.000
101.268 24.817 6.700
104.255 22.008 0.000
104.255 22.008 6.700
104.637 20.736 0.000
104.637 20.736 6.700
105.163 146.232 0.000
105.163 146.232 6.700
105.241 37.064 51.510
105.252 36.509 11.270
105.252 36.509 51.510
105.258 37.755 11.270
105.258 37.755 51.510
105.296 35.819 51.510
105.296 38.308 51.510
105.355 35.268 11.270
105.355 35.268 51.510
105.373 38.995 11.270
105.373 38.995 51.510
105.374 38.029 44.190
105.374 38.029 48.760
105.458 34.584 51.510
105.458 39.543 51.510
105.465 35.195 44.190
105.465 35.195 48.760
105.529 22.385 0.000
105.529 22.385 6.700
105.545 144.960 0.000
105.545 144.960 6.700
105.565 34.040 11.270
105.565 34.040 51.510
105.595 40.220 11.270
105.595 40.220 51.510
105.676 40.125 44.190
105.676 40.125 48.760
105.728 33.368 51.510
105.728 40.759 51.510
105.882 32.835 11.270
105.882 32.835 51.510
105.915 21.114 0.000
105.915 21.114 6.700
105.923 41.422 11.270
105.923 41.422 51.510
106.102 32.180 51.510
106.103 41.947 51.510
106.302 31.663 11.270
106.302 31.663 51.510
106.355 42.591 11.270
106.355 42.591 51.510
106.437 146.609 0.000
106.437 146.609 6.700
106.437 146.609 11.270
106.437 146.609 15.840
106.437 146.609 29.560
106.437 146.609 44.190
106.548 31.341 44.190
106.548 31.341 48.760
106.579 31.029 51.510
106.579 43.098 51.510
106.823 30.531 11.270
106.823 30.531 51.510
106.823 145.338 0.000
106.823 145.338 6.700
106.826 113.676 48.760
106.826 113.676 61.660
106.886 43.717 11.270
106.886 43.717 51.510
107.154 29.925 51.510
107.155 44.203 51.510
107.441 29.450 11.270
107.441 29.450 51.510
107.515 44.793 11.270
107.515 44.793 51.510
107.791 137.475 0.000
107.791 137.475 6.700
107.823 28.874 51.510
107.824 45.253 51.510
108.037 28.747 44.190
108.037 28.747 48.760
108.150 28.426 11.270
108.150 28.426 51.510
108.173 136.202 0.000
108.173 136.202 6.700
108.234 45.809 11.270
108.234 45.809 51.510
108.582 27.886 51.510
108.582 46.241 51.510
108.924 68.341 48.760
108.924 68.341 57.300
108.947 27.468 11.270
108.947 27.468 51.510
109.039 46.760 11.270
109.039 46.760 51.510
109.065 137.852 0.000
109.065 137.852 6.700
109.423 26.967 51.510
109.424 47.160 51.510
109.451 136.580 0.000
109.451 136.580 6.700
109.823 26.583 11.270
109.823 26.583 51.510
109.924 47.636 11.270
109.924 47.636 51.510
110.041 26.519 44.190
110.041 26.519 48.760
110.342 26.126 51.510
110.342 48.001 51.510
110.420 128.718 0.000
110.420 128.718 6.700
110.774 25.778 11.270
110.774 25.778 51.510
110.801 127.445 0.000
110.801 127.445 6.700
110.882 48.432 11.270
110.882 48.432 51.510
111.330 25.368 51.510
111.331 48.759 51.510
111.507 77.767 44.190
111.507 77.767 48.760
111.694 129.095 0.000
111.694 129.095 6.700
111.694 129.095 11.270
111.694 129.095 15.840
111.694 129.095 29.560
111.694 129.095 44.190
111.791 25.058 11.270
111.791 25.058 51.510
111.906 49.142 11.270
111.906 49.142 51.510
112.080 127.823 0.000
112.080 127.823 6.700
112.381 24.698 51.510
112.381 49.428 51.510
112.400 24.803 44.190
112.400 24.803 48.760
112.676 78.883 44.190
112.676 78.883 48.760
112.866 24.430 11.270
112.866 24.430 51.510
112.988 49.759 11.270
112.988 49.759 51.510
113.023 24.602 0.000
113.023 24.602 6.700
113.048 119.960 0.000
113.048 119.960 6.700
113.283 28.371 6.700
113.283 28.371 11.270
113.405 23.330 0.000
113.405 23.330 6.700
113.430 118.688 0.000
113.430 118.688 6.700
113.486 24.123 51.510
113.486 50.004 51.510
113.923 80.494 44.190
113.923 80.494 48.760
113.993 23.898 11.270
113.993 23.898 51.510
114.120 50.280 11.270
114.120 50.280 51.510
114.297 24.979 0.000
114.297 24.979 6.700
114.322 120.337 0.000
114.322 120.337 6.700
114.636 23.646 51.510
114.637 50.480 51.510
114.683 23.707 0.000
114.683 23.707 6.700
114.683 23.707 11.270
114.683 23.707 15.840
114.683 23.707 29.560
114.683 23.707 44.190
114.708 119.065 0.000
114.708 119.065 6.700
114.923 82.379 44.190
114.923 82.379 48.760
115.161 23.467 11.270
115.161 23.467 51.510
115.286 23.532 44.190
115.286 23.532 48.760
115.292 50.701 11.270
115.292 50.701 51.510
115.371 90.636 44.190
115.371 90.636 48.760
115.676 111.203 0.000
115.676 111.203 6.700
115.781 85.536 44.190
115.781 85.536 48.760
115.824 23.272 51.510
115.825 50.855 51.510
115.847 88.103 44.190
115.847 88.103 48.760
116.058 109.930 0.000
116.058 109.930 6.700
116.363 23.139 11.270
116.363 23.139 51.510
116.497 51.017 11.270
116.497 51.017 51.510
116.609 23.187 11.270
116.609 23.187 15.840
116.609 23.187 29.560
116.609 23.187 44.190
116.951 111.580 0.000
116.951 111.580 6.700
117.041 23.002 51.510
117.042 51.124 51.510
117.336 110.308 0.000
117.336 110.308 6.700
117.589 22.916 11.270
117.589 22.916 51.510
117.725 51.228 11.270
117.725 51.228 51.510
118.276 22.839 51.510
118.277 51.287 51.510
118.304 102.445 0.000
118.304 102.445 6.700
118.686 101.172 0.000
118.686 101.172 6.700
118.775 22.904 44.190
118.775 22.904 48.760
118.829 22.802 11.270
118.829 22.802 51.510
118.966 51.330 11.270
118.966 51.330 51.510
119.467 51.241 44.190
119.467 51.241 48.760
119.520 22.785 51.510
119.521 51.341 51.510
119.579 102.822 0.000
119.579 102.822 6.700
119.964 101.550 0.000
119.964 101.550 6.700
120.075 22.796 11.270
120.075 22.796 51.510
120.212 51.324 11.270
120.212 51.324 51.510
120.238 22.903 11.270
120.238 22.903 15.840
120.238 22.903 29.560
120.238 22.903 44.190
120.765 22.839 51.510
120.766 51.286 51.510
120.933 93.688 0.000
120.933 93.688 6.700
121.315 92.415 0.000
121.315 92.415 6.700
121.316 22.898 11.270
121.316 22.898 51.510
121.453 51.210 11.270
121.453 51.210 51.510
121.493 51.103 44.190
121.493 51.103 48.760
121.803 55.058 0.000
121.803 55.058 6.700
121.804 95.407 6.700
121.804 95.407 11.270
121.804 95.407 15.840
121.804 95.407 29.560
121.804 95.407 44.190
121.822 23.073 44.190
121.822 23.073 48.760
122.000 23.002 51.510
122.001 51.124 51.510
122.207 94.065 0.000
122.207 94.065 6.700
122.544 23.109 11.270
122.544 23.109 51.510
122.593 92.793 0.000
122.593 92.793 6.700
122.617 23.227 11.270
122.617 23.227 15.840
122.617 23.227 29.560
122.617 23.227 44.190
122.678 50.987 11.270
122.678 50.987 51.510
122.694 24.151 0.000
122.694 24.151 11.270
122.696 24.093 0.000
122.696 24.093 11.270
122.697 24.210 0.000
122.697 24.210 11.270
122.703 24.035 0.000
122.703 24.035 11.270
122.705 24.267 0.000
122.705 24.267 11.270
122.716 23.978 0.000
122.716 23.978 11.270
122.718 24.324 0.000
122.718 24.324 11.270
122.733 23.923 0.000
122.733 23.923 11.270
122.736 24.379 0.000
122.736 24.379 11.270
122.755 23.869 0.000
122.755 23.869 11.270
122.758 24.433 0.000
122.758 24.433 11.270
122.781 23.817 0.000
122.781 23.817 11.270
122.785 24.485 0.000
122.785 24.485 11.270
122.812 23.768 0.000
122.812 23.768 11.270
122.817 24.534 0.000
122.817 24.534 11.270
122.848 23.721 0.000
122.848 23.721 11.270
122.853 24.580 0.000
122.853 24.580 11.270
122.887 23.678 0.000
122.887 23.678 11.270
122.892 24.622 0.000
122.892 24.622 11.270
122.930 23.638 0.000
122.930 23.638 11.270
122.936 24.662 0.000
122.936 24.662 11.270
122.976 23.603 0.000
122.976 23.603 11.270
122.982 24.697 0.000
122.982 24.697 11.270
123.025 23.571 0.000
123.025 23.571 11.270
123.031 24.728 0.000
123.031 24.728 11.270
123.076 23.544 0.000
123.076 23.544 11.270
123.083 24.754 0.000
123.083 24.754 11.270
123.130 23.521 0.000
123.130 23.521 11.270
123.137 24.776 0.000
123.137 24.776 11.270
123.185 23.503 0.000
123.185 23.503 11.270
123.193 24.794 0.000
123.193 24.794 11.270
123.216 23.271 51.510
123.217 50.854 51.510
123.242 23.490 0.000
123.242 23.490 11.270
123.250 24.806 0.000
123.250 24.806 11.270
123.300 23.482 0.000
123.300 23.482 11.270
123.308 24.813 0.000
123.308 24.813 11.270
123.358 23.479 0.000
123.358 23.479 11.270
123.366 24.815 0.000
123.366 24.815 11.270
123.416 23.482 0.000
123.416 23.482 11.270
123.424 24.812 0.000
123.424 24.812 11.270
123.474 23.489 0.000
123.474 23.489 11.270
123.482 24.804 0.000
123.482 24.804 11.270
123.531 23.501 0.000
123.531 23.501 11.270
123.539 24.791 0.000
123.539 24.791 11.270
123.547 95.930 6.700
123.547 95.930 11.270
123.547 95.930 15.840
123.547 95.930 29.560
123.547 95.930 44.190
123.561 84.931 0.000
123.561 84.931 6.700
123.587 23.518 0.000
123.587 23.518 11.270
123.594 24.774 0.000
123.594 24.774 11.270
123.641 23.540 0.000
123.641 23.540 11.270
123.648 24.751 0.000
123.648 24.751 11.270
123.693 23.567 0.000
123.693 23.567 11.270
123.699 24.724 0.000
123.699 24.724 11.270
123.742 23.598 0.000
123.742 23.598 11.270
123.748 24.692 0.000
123.748 24.692 11.270
123.749 23.425 11.270
123.749 23.425 51.510
123.788 23.633 0.000
123.788 23.633 11.270
123.794 24.657 0.000
123.794 24.657 11.270
123.831 23.672 0.000
123.831 23.672 11.270
123.837 24.617 0.000
123.837 24.617 11.270
123.871 23.715 0.000
123.871 23.715 11.270
123.876 24.574 0.000
123.876 24.574 11.270
123.880 50.659 11.270
123.880 50.659 51.510
123.900 50.548 44.190
123.900 50.548 48.760
123.907 23.761 0.000
123.907 23.761 11.270
123.911 24.527 0.000
123.911 24.527 11.270
123.938 23.810 0.000
123.938 23.810 11.270
123.942 24.478 0.000
123.942 24.478 11.270
123.943 83.658 0.000
123.943 83.658 6.700
123.966 23.862 0.000
123.966 23.862 11.270
123.969 24.426 0.000
123.969 24.426 11.270
123.988 23.915 0.000
123.988 23.915 11.270
123.991 24.372 0.000
123.991 24.372 11.270
124.006 23.971 0.000
124.006 23.971 11.270
124.008 24.316 0.000
124.008 24.316 11.270
124.019 24.028 0.000
124.019 24.028 11.270
124.020 24.259 0.000
124.020 24.259 11.270
124.027 24.085 0.000
124.027 24.085 11.270
124.028 24.202 0.000
124.028 24.202 11.270
124.030 24.143 0.000
124.030 24.143 11.270
124.404 23.646 51.510
124.405 50.479 51.510
124.613 23.830 44.190
124.613 23.830 48.760
124.836 85.308 0.000
124.836 85.308 6.700
124.922 23.846 11.270
124.922 23.846 51.510
125.049 50.227 11.270
125.049 50.227 51.510
125.221 84.036 0.000
125.221 84.036 6.700
125.309 24.120 11.270
125.309 24.120 15.840
125.309 24.120 29.560
125.309 24.120 44.190
125.555 24.122 51.510
125.556 50.003 51.510
126.053 24.366 11.270
126.053 24.366 51.510
126.175 49.696 11.270
126.175 49.696 51.510
126.462 49.426 44.190
126.462 49.426 48.760
126.660 24.697 51.510
126.661 49.428 51.510
127.119 25.092 44.190
127.119 25.092 48.760
127.135 24.984 11.270
127.135 24.984 51.510
127.225 77.346 0.000
127.225 77.346 6.700
127.251 49.068 11.270
127.251 49.068 51.510
127.532 58.444 6.700
127.532 58.444 11.270
127.532 58.444 15.840
127.532 58.444 29.560
127.532 58.444 44.190
127.711 25.367 51.510
127.711 48.758 51.510
127.767 25.529 11.270
127.767 25.529 15.840
127.767 25.529 29.560
127.767 25.529 44.190
128.159 25.693 11.270
128.159 25.693 51.510
128.268 48.348 11.270
128.268 48.348 51.510
128.655 47.907 44.190
128.655 47.907 48.760
128.699 26.125 51.510
128.700 48.000 51.510
129.117 26.489 11.270
129.117 26.489 51.510
129.218 47.543 11.270
129.218 47.543 51.510
129.358 49.019 0.000
129.358 49.019 6.700
129.374 26.868 44.190
129.374 26.868 48.760
129.541 33.182 6.700
129.541 33.182 11.270
129.618 26.966 51.510
129.618 47.158 51.510
129.866 27.366 11.270
129.866 27.366 15.840
129.866 27.366 29.560
129.866 27.366 44.190
130.002 27.366 11.270
130.002 27.366 51.510
130.095 46.658 11.270
130.095 46.658 51.510
130.459 27.884 51.510
130.460 46.240 51.510
130.560 29.788 0.000
130.560 29.788 6.700
130.604 45.905 44.190
130.604 45.905 48.760
130.608 66.072 0.000
130.608 66.072 6.700
130.807 28.316 11.270
130.807 28.316 51.510
130.891 45.700 11.270
130.891 45.700 51.510
130.930 28.555 44.190
130.930 28.555 48.760
130.942 28.515 0.000
130.942 28.515 6.700
130.942 28.515 11.270
130.942 28.515 15.840
130.942 28.515 29.560
130.942 28.515 44.190
131.218 28.873 51.510
131.218 45.252 51.510
131.433 63.323 6.700
131.433 63.323 11.270
131.433 63.323 15.840
131.433 63.323 29.560
131.433 63.323 44.190
131.527 29.333 11.270
131.527 29.333 51.510
131.601 44.676 11.270
131.601 44.676 51.510
131.835 30.165 0.000
131.835 30.165 6.700
131.887 29.923 51.510
131.887 44.201 51.510
132.155 30.409 11.270
132.155 30.409 51.510
132.218 43.594 11.270
132.218 43.594 51.510
132.220 28.893 0.000
132.220 28.893 6.700
132.440 31.218 44.190
132.440 31.218 48.760
132.462 31.028 51.510
132.462 43.096 51.510
132.579 42.587 44.190
132.579 42.587 48.760
132.687 31.535 11.270
132.687 31.535 51.510
132.739 42.463 11.270
132.739 42.463 51.510
132.766 54.261 0.000
132.766 54.261 6.700
132.766 54.261 11.270
132.766 54.261 15.840
132.766 54.261 29.560
132.766 54.261 44.190
132.939 32.179 51.510
132.939 41.945 51.510
133.118 32.703 11.270
133.118 32.703 51.510
133.148 52.988 0.000
133.148 52.988 6.700
133.160 41.290 11.270
133.160 41.290 51.510
133.314 33.366 51.510
133.314 40.757 51.510
133.329 33.837 44.190
133.329 33.837 48.760
133.447 33.905 11.270
133.447 33.905 51.510
133.476 40.085 11.270
133.476 40.085 51.510
133.524 39.290 44.190
133.524 39.290 48.760
133.583 34.582 51.510
133.583 39.541 51.510
133.669 35.131 11.270
133.669 35.131 51.510
133.687 38.858 11.270
133.687 38.858 51.510
133.692 36.573 44.190
133.692 36.573 48.760
133.738 34.423 0.000
133.738 34.423 6.700
133.746 35.817 51.510
133.746 38.306 51.510
133.783 36.371 11.270
133.783 36.371 51.510
133.789 37.616 11.270
133.789 37.616 51.510
133.800 37.062 51.510
134.040 54.638 0.000
134.040 54.638 6.700
134.040 54.638 11.270
134.040 54.638 15.840
134.040 54.638 29.560
134.040 54.638 44.190
134.080 49.882 0.000
134.080 49.882 6.700
134.426 53.366 0.000
134.426 53.366 6.700
134.462 48.609 0.000
134.462 48.609 6.700
135.354 50.259 0.000
135.354 50.259 6.700
135.740 48.987 0.000
135.740 48.987 6.700
136.708 41.124 0.000
136.708 41.124 6.700
137.090 39.852 0.000
137.090 39.852 6.700
137.983 41.501 0.000
137.983 41.501 6.700
138.369 40.230 0.000
138.369 40.230 6.700
139.327 32.385 0.000
139.327 32.385 6.700
139.709 31.112 0.000
139.709 31.112 6.700
140.602 32.762 0.000
140.602 32.762 6.700
140.987 31.490 0.000
140.987 31.490 6.700
140.987 31.490 11.270
140.987 31.490 15.840
140.987 31.490 29.560
140.987 31.490 44.190
3 12 8 0
3 10 12 0
3 38 20 18
3 31 38 18
3 46 42 40
3 44 46 40
3 71 59 57
3 69 71 57
3 108 100 96
3 104 108 96
3 123 119 115
3 121 123 115
3 151 143 141
3 145 151 141
3 182 172 167
3 180 182 167
3 202 195 191
3 197 202 191
3 231 225 221
3 229 231 221
3 262 248 244
3 260 262 244
3 295 289 285
3 293 295 285
3 368 334 313
3 356 368 313
3 404 388 380
3 400 404 380
3 436 418 414
3 426 436 414
3 478 456 450
3 468 478 450
3 512 498 490
3 508 512 490
3 536 522 520
3 534 536 520
3 573 550 548
3 569 573 548
3 752 718 674
3 746 752 674
3 915 876 866
3 907 915 866
3 921 917 913
3 919 921 913
3 929 925 923
3 927 929 923
3 937 933 931
3 935 937 931
3 854 829 817
3 846 854 817
3 472 454 448
3 466 472 448
3 346 311 309
3 332 346 309
3 291 279 275
3 287 291 275
3 258 239 237
3 246 258 237
3 227 217 215
3 223 227 215
3 680 676 665
3 684 680 665
3 688 684 665
3 694 688 665
3 698 694 665
3 702 698 665
3 710 702 665
3 714 710 665
3 720 714 665
3 724 720 665
3 728 724 665
3 732 728 665
3 736 732 665
3 740 736 665
3 738 740 665
3 734 738 665
3 730 734 665
3 726 730 665
3 722 726 665
3 716 722 665
3 712 716 665
3 704 712 665
3 700 704 665
3 696 700 665
3 690 696 665
3 686 690 665
3 682 686 665
3 678 682 665
3 667 678 665
3 663 667 665
3 659 663 665
3 655 659 665
3 651 655 665
3 647 651 665
3 641 647 665
3 637 641 665
3 633 637 665
3 629 633 665
3 625 629 665
3 621 625 665
3 617 621 665
3 613 617 665
3 609 613 665
3 605 609 665
3 601 605 665
3 597 601 665
3 593 597 665
3 589 593 665
3 585 589 665
3 581 585 665
3 583 581 665
3 587 583 665
3 591 587 665
3 595 591 665
3 599 595 665
3 603 599 665
3 607 603 665
3 611 607 665
3 615 611 665
3 619 615 665
3 623 619 665
3 627 623 665
3 631 627 665
3 635 631 665
3 639 635 665
3 645 639 665
3 649 645 665
3 653 649 665
3 657 653 665
3 661 657 665
3 102 89 84
3 98 102 84
3 82 14 16
3 117 82 16
3 125 117 16
3 134 125 16
3 250 134 16
3 235 250 16
3 297 235 16
3 307 301 297
3 898 307 297
3 799 898 297
3 558 799 297
3 821 558 297
3 772 821 297
3 303 772 297
3 178 303 297
3 187 178 297
3 159 187 297
3 16 157 159
3 297 16 159
3 53 2 33
3 74 49 53
3 78 74 53
3 91 78 53
3 127 91 53
3 252 136 127
3 242 252 127
3 474 281 270
3 542 504 474
3 575 542 474
3 754 575 474
3 783 754 474
3 807 783 474
3 831 807 474
3 939 831 474
3 909 939 474
3 868 909 474
3 777 868 474
3 561 838 777
3 428 670 561
3 358 428 561
3 169 358 561
3 175 169 561
3 154 175 561
3 64 147 154
3 23 64 154
3 33 23 154
3 53 33 154
3 127 53 154
3 242 127 154
3 270 242 154
3 474 270 154
3 777 474 154
3 561 777 154
3 52 1 32
3 73 48 52
3 77 73 52
3 90 77 52
3 126 90 52
3 251 135 126
3 241 251 126
3 473 280 269
3 452 473 269
3 803 452 269
3 938 830 803
3 908 938 803
3 867 908 803
3 776 867 803
3 560 837 776
3 427 669 560
3 357 427 560
3 168 357 560
3 174 168 560
3 153 174 560
3 63 146 153
3 22 63 153
3 32 22 153
3 52 32 153
3 126 52 153
3 241 126 153
3 269 241 153
3 803 269 153
3 776 803 153
3 560 776 153
3 83 15 17
3 118 83 17
3 126 118 17
3 135 126 17
3 251 135 17
3 236 251 17
3 298 236 17
3 308 302 298
3 899 308 298
3 800 899 298
3 559 800 298
3 822 559 298
3 773 822 298
3 304 773 298
3 179 304 298
3 188 179 298
3 160 188 298
3 17 158 160
3 298 17 160
3 53 2 33
3 74 49 53
3 78 74 53
3 91 78 53
3 127 91 53
3 252 136 127
3 242 252 127
3 474 281 270
3 453 474 270
3 804 453 270
3 939 831 804
3 909 939 804
3 868 909 804
3 777 868 804
3 561 838 777
3 428 670 561
3 358 428 561
3 169 358 561
3 175 169 561
3 154 175 561
3 64 147 154
3 23 64 154
3 33 23 154
3 53 33 154
3 127 53 154
3 242 127 154
3 270 242 154
3 804 270 154
3 777 804 154
3 561 777 154
3 54 3 34
3 75 50 54
3 79 75 54
3 92 79 54
3 128 92 54
3 253 137 128
3 243 253 128
3 475 282 271
3 543 505 475
3 576 543 475
3 755 576 475
3 784 755 475
3 808 784 475
3 832 808 475
3 940 832 475
3 910 940 475
3 869 910 475
3 778 869 475
3 562 839 778
3 429 671 562
3 359 429 562
3 170 359 562
3 176 170 562
3 155 176 562
3 65 148 155
3 24 65 155
3 34 24 155
3 54 34 155
3 128 54 155
3 243 128 155
3 271 243 155
3 475 271 155
3 778 475 155
3 562 778 155
3 55 4 35
3 80 55 35
3 93 80 35
3 129 93 35
3 138 129 35
3 213 138 35
3 283 219 213
3 476 283 213
3 544 506 476
3 577 544 476
3 756 577 476
3 785 756 476
3 809 785 476
3 833 809 476
3 941 833 476
3 911 941 476
3 870 911 476
3 779 870 476
3 563 840 779
3 430 672 563
3 360 430 563
3 273 360 563
3 200 265 273
3 149 200 273
3 66 149 273
3 35 25 66
3 213 35 66
3 476 213 66
3 779 476 66
3 563 779 66
3 273 563 66
3 54 3 34
3 75 50 54
3 79 75 54
3 92 79 54
3 128 92 54
3 212 137 128
3 282 218 212
3 475 282 212
3 543 505 475
3 576 543 475
3 755 576 475
3 784 755 475
3 808 784 475
3 832 808 475
3 940 832 475
3 910 940 475
3 869 910 475
3 778 869 475
3 562 839 778
3 429 671 562
3 359 429 562
3 272 359 562
3 199 264 272
3 170 199 272
3 176 170 272
3 65 148 155
3 24 65 155
3 34 24 155
3 54 34 155
3 128 54 155
3 212 128 155
3 475 212 155
3 778 475 155
3 562 778 155
3 176 272 562
3 155 176 562
3 55 4 35
3 76 51 55
3 80 76 55
3 93 80 55
3 129 93 55
3 213 138 129
3 283 219 213
3 476 283 213
3 544 506 476
3 577 544 476
3 756 577 476
3 785 756 476
3 809 785 476
3 833 809 476
3 941 833 476
3 911 941 476
3 870 911 476
3 779 870 476
3 563 840 779
3 430 672 563
3 360 430 563
3 273 360 563
3 200 265 273
3 171 200 273
3 177 171 273
3 66 149 156
3 25 66 156
3 35 25 156
3 55 35 156
3 129 55 156
3 213 129 156
3 476 213 156
3 779 476 156
3 563 779 156
3 177 273 563
3 156 177 563
3 56 5 36
3 81 56 36
3 94 81 36
3 130 94 36
3 139 130 36
3 214 139 36
3 284 220 214
3 477 284 214
3 545 507 477
3 578 545 477
3 757 578 477
3 786 757 477
3 810 786 477
3 834 810 477
3 942 834 477
3 912 942 477
3 871 912 477
3 780 871 477
3 564 841 780
3 431 673 564
3 361 431 564
3 274 361 564
3 201 266 274
3 150 201 274
3 67 150 274
3 36 26 67
3 214 36 67
3 477 214 67
3 780 477 67
3 564 780 67
3 274 564 67
3 163 266 277
3 184 163 277
3 86 28 184
3 110 86 184
3 139 110 184
3 233 254 139
3 330 326 340
3 362 330 340
3 384 362 340
3 410 384 340
3 440 410 340
3 484 440 340
3 524 484 340
3 565 524 340
3 744 565 340
3 768 744 340
3 801 768 340
3 827 801 340
3 856 827 340
3 882 856 340
3 896 882 340
3 888 896 340
3 860 888 340
3 819 860 340
3 791 819 340
3 764 791 340
3 708 764 340
3 556 708 340
3 530 556 340
3 424 530 340
3 460 442 424
3 480 460 424
3 492 480 424
3 496 492 424
3 488 496 424
3 305 488 424
3 277 305 424
3 184 277 424
3 139 184 424
3 233 139 424
3 340 233 424
3 110 130 94
3 86 110 94
3 28 86 94
3 163 184 28
3 67 193 163
3 36 26 67
3 6 36 67
3 28 94 6
3 163 28 6
3 67 163 6
3 164 267 278
3 185 164 278
3 87 29 185
3 111 87 185
3 140 111 185
3 234 255 140
3 331 327 341
3 363 331 341
3 385 363 341
3 411 385 341
3 441 411 341
3 485 441 341
3 525 485 341
3 566 525 341
3 745 566 341
3 769 745 341
3 802 769 341
3 828 802 341
3 857 828 341
3 883 857 341
3 897 883 341
3 889 897 341
3 861 889 341
3 820 861 341
3 792 820 341
3 765 792 341
3 709 765 341
3 557 709 341
3 531 557 341
3 425 531 341
3 461 443 425
3 481 461 425
3 493 481 425
3 497 493 425
3 489 497 425
3 306 489 425
3 278 306 425
3 185 278 425
3 140 185 425
3 234 140 425
3 341 234 425
3 112 131 95
3 88 112 95
3 30 88 95
3 165 186 30
3 68 194 165
3 37 27 68
3 7 37 68
3 30 95 7
3 165 30 7
3 68 165 7
3 166 268 371
3 209 166 371
3 114 62 162
3 207 114 162
3 395 211 190
3 300 395 190
3 257 133 107
3 205 257 107
3 519 533 547
3 511 519 547
3 495 511 547
3 471 495 547
3 459 471 547
3 439 459 547
3 423 439 547
3 413 423 547
3 403 413 547
3 393 403 547
3 383 393 547
3 375 383 547
3 365 375 547
3 351 365 547
3 343 351 547
3 329 343 547
3 321 329 547
3 315 321 547
3 320 315 547
3 328 320 547
3 342 328 547
3 350 342 547
3 364 350 547
3 374 364 547
3 382 374 547
3 392 382 547
3 402 392 547
3 412 402 547
3 422 412 547
3 438 422 547
3 458 438 547
3 470 458 547
3 494 470 547
3 510 494 547
3 518 510 547
3 532 518 547
3 546 532 547
3 567 546 547
3 643 567 547
3 742 643 547
3 758 742 547
3 766 758 547
3 781 766 547
3 793 781 547
3 805 793 547
3 815 805 547
3 835 815 547
3 848 835 547
3 858 848 547
3 872 858 547
3 880 872 547
3 890 880 547
3 900 890 547
3 906 900 547
3 901 906 547
3 891 901 547
3 881 891 547
3 873 881 547
3 859 873 547
3 849 859 547
3 836 849 547
3 816 836 547
3 806 816 547
3 794 806 547
3 782 794 547
3 767 782 547
3 759 767 547
3 743 759 547
3 644 743 547
3 568 644 547
3 158 17 16
3 158 16 157
3 158 157 159
3 160 158 159
3 188 160 159
3 188 159 187
3 179 188 187
3 179 187 178
3 304 179 178
3 304 178 303
3 304 303 772
3 773 304 772
3 773 772 821
3 822 773 821
3 822 821 558
3 559 822 558
3 800 559 558
3 800 558 799
3 800 799 898
3 899 800 898
3 899 898 307
3 308 899 307
3 302 308 307
3 302 307 301
3 298 302 301
3 298 301 297
3 298 297 235
3 236 298 235
3 236 235 250
3 251 236 250
3 251 250 134
3 135 251 134
3 126 135 134
3 126 134 125
3 126 125 117
3 118 126 117
3 118 117 82
3 83 118 82
3 15 83 82
3 15 82 14
3 17 15 14
3 17 14 16
3 99 103 102
3 99 102 98
3 99 98 84
3 85 99 84
3 85 84 89
3 90 85 89
3 103 90 89
3 103 89 102
3 288 292 291
3 288 291 287
3 288 287 275
3 276 288 275
3 276 275 279
3 280 276 279
3 292 280 279
3 292 279 291
3 333 347 346
3 333 346 332
3 333 332 309
3 310 333 309
3 310 309 311
3 312 310 311
3 347 312 311
3 347 311 346
3 467 473 472
3 467 472 466
3 467 466 448
3 449 467 448
3 449 448 454
3 455 449 454
3 473 455 454
3 473 454 472
3 847 855 854
3 847 854 846
3 847 846 817
3 818 847 817
3 818 817 829
3 830 818 829
3 855 830 829
3 855 829 854
3 936 938 937
3 936 937 935
3 936 935 931
3 932 936 931
3 932 931 933
3 934 932 933
3 938 934 933
3 938 933 937
3 928 930 929
3 928 929 927
3 928 927 923
3 924 928 923
3 924 923 925
3 926 924 925
3 930 926 925
3 930 925 929
3 920 922 921
3 920 921 919
3 920 919 913
3 914 920 913
3 914 913 917
3 918 914 917
3 922 918 917
3 922 917 921
3 908 916 915
3 908 915 907
3 908 907 866
3 867 908 866
3 867 866 876
3 877 867 876
3 916 877 876
3 916 876 915
3 11 13 12
3 11 12 10
3 11 10 0
3 1 11 0
3 1 0 8
3 9 1 8
3 13 9 8
3 13 8 12
3 32 39 38
3 32 38 31
3 32 31 18
3 19 32 18
3 19 18 20
3 21 19 20
3 39 21 20
3 39 20 38
3 45 47 46
3 45 46 44
3 45 44 40
3 41 45 40
3 41 40 42
3 43 41 42
3 47 43 42
3 47 42 46
3 70 72 71
3 70 71 69
3 70 69 57
3 58 70 57
3 58 57 59
3 60 58 59
3 72 60 59
3 72 59 71
3 105 109 108
3 105 108 104
3 105 104 96
3 97 105 96
3 97 96 100
3 101 97 100
3 109 101 100
3 109 100 108
3 122 124 123
3 122 123 121
3 122 121 115
3 116 122 115
3 116 115 119
3 120 116 119
3 124 120 119
3 124 119 123
3 146 152 151
3 146 151 145
3 146 145 141
3 142 146 141
3 142 141 143
3 144 142 143
3 152 144 143
3 152 143 151
3 181 183 182
3 181 182 180
3 181 180 167
3 168 181 167
3 168 167 172
3 173 168 172
3 183 173 172
3 183 172 182
3 198 203 202
3 198 202 197
3 198 197 191
3 192 198 191
3 192 191 195
3 196 192 195
3 203 196 195
3 203 195 202
3 230 232 231
3 230 231 229
3 230 229 221
3 222 230 221
3 222 221 225
3 226 222 225
3 232 226 225
3 232 225 231
3 261 263 262
3 261 262 260
3 261 260 244
3 245 261 244
3 245 244 248
3 249 245 248
3 263 249 248
3 263 248 262
3 294 296 295
3 294 295 293
3 294 293 285
3 286 294 285
3 286 285 289
3 290 286 289
3 296 290 289
3 296 289 295
3 357 369 368
3 357 368 356
3 357 356 313
3 314 357 313
3 314 313 334
3 335 314 334
3 369 335 334
3 369 334 368
3 401 405 404
3 401 404 400
3 401 400 380
3 381 401 380
3 381 380 388
3 389 381 388
3 405 389 388
3 405 388 404
3 427 437 436
3 427 436 426
3 427 426 414
3 415 427 414
3 415 414 418
3 419 415 418
3 437 419 418
3 437 418 436
3 469 479 478
3 469 478 468
3 469 468 450
3 451 469 450
3 451 450 456
3 457 451 456
3 479 457 456
3 479 456 478
3 509 513 512
3 509 512 508
3 509 508 490
3 491 509 490
3 491 490 498
3 499 491 498
3 513 499 498
3 513 498 512
3 535 537 536
3 535 536 534
3 535 534 520
3 521 535 520
3 521 520 522
3 523 521 522
3 537 523 522
3 537 522 536
3 570 574 573
3 570 573 569
3 570 569 548
3 549 570 548
3 549 548 550
3 551 549 550
3 574 551 550
3 574 550 573
3 747 753 752
3 747 752 746
3 747 746 674
3 675 747 674
3 675 674 718
3 719 675 718
3 753 719 718
3 753 718 752
3 53 52 48
3 49 53 48
3 49 48 73
3 74 49 73
3 78 74 73
3 78 73 77
3 78 77 90
3 91 78 90
3 127 91 90
3 127 90 126
3 127 126 135
3 136 127 135
3 252 136 135
3 252 135 251
3 242 252 251
3 242 251 241
3 270 242 241
3 270 241 269
3 270 269 280
3 281 270 280
3 474 281 280
3 474 280 473
3 453 474 473
3 453 473 452
3 804 453 452
3 804 452 803
3 804 803 830
3 831 804 830
3 939 831 830
3 939 830 938
3 909 939 938
3 909 938 908
3 909 908 867
3 868 909 867
3 868 867 776
3 777 868 776
3 838 777 776
3 838 776 837
3 561 838 837
3 561 837 560
3 670 561 560
3 670 560 669
3 428 670 669
3 428 669 427
3 358 428 427
3 358 427 357
3 358 357 168
3 169 358 168
3 169 168 174
3 175 169 174
3 175 174 153
3 154 175 153
3 147 154 153
3 147 153 146
3 147 146 63
3 64 147 63
3 64 63 22
3 23 64 22
3 23 22 32
3 33 23 32
3 33 32 1
3 2 33 1
3 2 1 52
3 53 2 52
3 685 681 680
3 685 680 684
3 689 685 684
3 689 684 688
3 695 689 688
3 695 688 694
3 699 695 694
3 699 694 698
3 703 699 698
3 703 698 702
3 711 703 702
3 711 702 710
3 715 711 710
3 715 710 714
3 721 715 714
3 721 714 720
3 725 721 720
3 725 720 724
3 729 725 724
3 729 724 728
3 733 729 728
3 733 728 732
3 737 733 732
3 737 732 736
3 741 737 736
3 741 736 740
3 739 741 740
3 739 740 738
3 735 739 738
3 735 738 734
3 731 735 734
3 731 734 730
3 727 731 730
3 727 730 726
3 723 727 726
3 723 726 722
3 717 723 722
3 717 722 716
3 713 717 716
3 713 716 712
3 705 713 712
3 705 712 704
3 701 705 704
3 701 704 700
3 701 700 696
3 697 701 696
3 697 696 690
3 691 697 690
3 691 690 686
3 687 691 686
3 687 686 682
3 683 687 682
3 683 682 678
3 679 683 678
3 679 678 667
3 668 679 667
3 668 667 663
3 664 668 663
3 664 663 659
3 660 664 659
3 660 659 655
3 656 660 655
3 656 655 651
3 652 656 651
3 652 651 647
3 648 652 647
3 648 647 641
3 642 648 641
3 642 641 637
3 638 642 637
3 638 637 633
3 634 638 633
3 634 633 629
3 630 634 629
3 630 629 625
3 626 630 625
3 626 625 621
3 622 626 621
3 622 621 617
3 618 622 617
3 618 617 613
3 614 618 613
3 614 613 609
3 610 614 609
3 610 609 605
3 606 610 605
3 606 605 601
3 602 606 601
3 602 601 597
3 598 602 597
3 598 597 593
3 594 598 593
3 594 593 589
3 590 594 589
3 590 589 585
3 586 590 585
3 586 585 581
3 582 586 581
3 582 581 583
3 584 582 583
3 584 583 587
3 588 584 587
3 588 587 591
3 592 588 591
3 592 591 595
3 596 592 595
3 596 595 599
3 600 596 599
3 600 599 603
3 604 600 603
3 604 603 607
3 608 604 607
3 608 607 611
3 612 608 611
3 612 611 615
3 616 612 615
3 620 616 615
3 620 615 619
3 624 620 619
3 624 619 623
3 628 624 623
3 628 623 627
3 632 628 627
3 632 627 631
3 636 632 631
3 636 631 635
3 640 636 635
3 640 635 639
3 646 640 639
3 646 639 645
3 650 646 645
3 650 645 649
3 654 650 649
3 654 649 653
3 658 654 653
3 658 653 657
3 662 658 657
3 662 657 661
3 666 662 661
3 666 661 665
3 677 666 665
3 677 665 676
3 681 677 676
3 681 676 680
3 54 53 49
3 50 54 49
3 50 49 74
3 75 50 74
3 79 75 74
3 79 74 78
3 79 78 91
3 92 79 91
3 128 92 91
3 128 91 127
3 128 127 136
3 137 128 136
3 253 137 136
3 253 136 252
3 243 253 252
3 243 252 242
3 271 243 242
3 271 242 270
3 271 270 281
3 282 271 281
3 475 282 281
3 475 281 474
3 505 475 474
3 505 474 504
3 543 505 504
3 543 504 542
3 576 543 542
3 576 542 575
3 755 576 575
3 755 575 754
3 784 755 754
3 784 754 783
3 808 784 783
3 808 783 807
3 832 808 807
3 832 807 831
3 940 832 831
3 940 831 939
3 910 940 939
3 910 939 909
3 910 909 868
3 869 910 868
3 869 868 777
3 778 869 777
3 839 778 777
3 839 777 838
3 562 839 838
3 562 838 561
3 671 562 561
3 671 561 670
3 429 671 670
3 429 670 428
3 359 429 428
3 359 428 358
3 359 358 169
3 170 359 169
3 170 169 175
3 176 170 175
3 176 175 154
3 155 176 154
3 148 155 154
3 148 154 147
3 148 147 64
3 65 148 64
3 65 64 23
3 24 65 23
3 24 23 33
3 34 24 33
3 34 33 2
3 3 34 2
3 3 2 53
3 54 3 53
3 55 54 50
3 51 55 50
3 51 50 75
3 76 51 75
3 80 76 75
3 80 75 79
3 80 79 92
3 93 80 92
3 129 93 92
3 129 92 128
3 129 128 137
3 138 129 137
3 213 138 137
3 213 137 212
3 213 212 218
3 219 213 218
3 283 219 218
3 283 218 282
3 476 283 282
3 476 282 475
3 506 476 475
3 506 475 505
3 544 506 505
3 544 505 543
3 577 544 543
3 577 543 576
3 756 577 576
3 756 576 755
3 785 756 755
3 785 755 784
3 809 785 784
3 809 784 808
3 833 809 808
3 833 808 832
3 941 833 832
3 941 832 940
3 911 941 940
3 911 940 910
3 911 910 869
3 870 911 869
3 870 869 778
3 779 870 778
3 840 779 778
3 840 778 839
3 563 840 839
3 563 839 562
3 672 563 562
3 672 562 671
3 430 672 671
3 430 671 429
3 360 430 429
3 360 429 359
3 360 359 272
3 273 360 272
3 265 273 272
3 265 272 264
3 265 264 199
3 200 265 199
3 200 199 170
3 171 200 170
3 171 170 176
3 177 171 176
3 177 176 155
3 156 177 155
3 149 156 155
3 149 155 148
3 149 148 65
3 66 149 65
3 66 65 24
3 25 66 24
3 25 24 34
3 35 25 34
3 35 34 3
3 4 35 3
3 4 3 54
3 55 4 54
3 56 55 80
3 81 56 80
3 81 80 93
3 94 81 93
3 130 94 93
3 130 93 129
3 130 129 138
3 139 130 138
3 214 139 138
3 214 138 213
3 214 213 219
3 220 214 219
3 284 220 219
3 284 219 283
3 477 284 283
3 477 283 476
3 507 477 476
3 507 476 506
3 545 507 506
3 545 506 544
3 578 545 544
3 578 544 577
3 757 578 577
3 757 577 756
3 786 757 756
3 786 756 785
3 810 786 785
3 810 785 809
3 834 810 809
3 834 809 833
3 942 834 833
3 942 833 941
3 912 942 941
3 912 941 911
3 912 911 870
3 871 912 870
3 871 870 779
3 780 871 779
3 841 780 779
3 841 779 840
3 564 841 840
3 564 840 563
3 673 564 563
3 673 563 672
3 431 673 672
3 431 672 430
3 361 431 430
3 361 430 360
3 361 360 273
3 274 361 273
3 266 274 273
3 266 273 265
3 266 265 200
3 201 266 200
3 201 200 149
3 150 201 149
3 150 149 66
3 67 150 66
3 67 66 25
3 26 67 25
3 26 25 35
3 36 26 35
3 36 35 4
3 5 36 4
3 5 4 55
3 56 5 55
3 306 278 277
3 306 277 305
3 306 305 488
3 489 306 488
3 489 488 496
3 497 489 496
3 497 496 492
3 493 497 492
3 493 492 480
3 481 493 480
3 481 480 460
3 461 481 460
3 461 460 442
3 443 461 442
3 443 442 424
3 425 443 424
3 425 424 530
3 531 425 530
3 557 531 530
3 557 530 556
3 709 557 556
3 709 556 708
3 765 709 708
3 765 708 764
3 792 765 764
3 792 764 791
3 792 791 819
3 820 792 819
3 820 819 860
3 861 820 860
3 861 860 888
3 889 861 888
3 889 888 896
3 897 889 896
3 897 896 882
3 883 897 882
3 883 882 856
3 857 883 856
3 857 856 827
3 828 857 827
3 828 827 801
3 802 828 801
3 802 801 768
3 769 802 768
3 769 768 744
3 745 769 744
3 745 744 565
3 566 745 565
3 566 565 524
3 525 566 524
3 525 524 484
3 485 525 484
3 485 484 440
3 441 485 440
3 441 440 410
3 411 441 410
3 385 411 410
3 385 410 384
3 363 385 384
3 363 384 362
3 331 363 362
3 331 362 330
3 327 331 330
3 327 330 326
3 341 327 326
3 341 326 340
3 341 340 233
3 234 341 233
3 234 233 254
3 255 234 254
3 255 254 139
3 140 255 139
3 111 140 139
3 111 139 110
3 111 110 86
3 87 111 86
3 29 87 86
3 29 86 28
3 185 29 28
3 185 28 184
3 164 185 184
3 164 184 163
3 267 164 163
3 267 163 266
3 267 266 277
3 278 267 277
3 131 95 94
3 131 94 130
3 112 131 130
3 112 130 110
3 112 110 86
3 88 112 86
3 30 88 86
3 30 86 28
3 186 30 28
3 186 28 184
3 165 186 184
3 165 184 163
3 194 165 163
3 194 163 193
3 194 193 67
3 68 194 67
3 68 67 26
3 27 68 26
3 27 26 36
3 37 27 36
3 37 36 6
3 7 37 6
3 7 6 94
3 95 7 94
3 166 164 208
3 209 166 208
3 371 209 208
3 371 208 370
3 268 371 370
3 268 370 267
3 268 267 164
3 166 268 164
3 162 161 206
3 207 162 206
3 207 206 113
3 114 207 113
3 62 114 113
3 62 113 61
3 162 62 61
3 162 61 161
3 300 395 394
3 300 394 299
3 300 299 189
3 190 300 189
3 190 189 210
3 211 190 210
3 395 211 210
3 395 210 394
3 224 228 227
3 224 227 223
3 224 223 215
3 216 224 215
3 216 215 217
3 218 216 217
3 228 218 217
3 228 217 227
3 247 259 258
3 247 258 246
3 247 246 237
3 238 247 237
3 238 237 239
3 240 238 239
3 259 240 239
3 259 239 258
3 106 107 205
3 204 106 205
3 256 204 205
3 256 205 257
3 132 256 257
3 132 257 133
3 132 133 107
3 106 132 107
3 316 317 319
3 318 316 319
3 318 319 325
3 324 318 325
3 324 325 339
3 338 324 339
3 338 339 349
3 348 338 349
3 348 349 355
3 354 348 355
3 354 355 373
3 372 354 373
3 372 373 379
3 378 372 379
3 378 379 391
3 390 378 391
3 390 391 399
3 398 390 399
3 398 399 409
3 408 398 409
3 408 409 421
3 420 408 421
3 420 421 435
3 434 420 435
3 434 435 447
3 446 434 447
3 446 447 465
3 464 446 465
3 464 465 487
3 486 464 487
3 486 487 503
3 502 486 503
3 502 503 517
3 516 502 517
3 516 517 529
3 528 516 529
3 528 529 541
3 540 528 541
3 540 541 555
3 554 540 555
3 554 555 580
3 579 554 580
3 579 580 707
3 706 579 707
3 706 707 751
3 750 706 751
3 750 751 763
3 762 750 763
3 762 763 775
3 774 762 775
3 774 775 790
3 789 774 790
3 789 790 798
3 797 789 798
3 813 797 798
3 813 798 814
3 825 813 814
3 825 814 826
3 844 825 826
3 844 826 845
3 852 844 845
3 852 845 853
3 864 852 853
3 864 853 865
3 878 864 865
3 878 865 879
3 886 878 879
3 886 879 887
3 894 886 887
3 894 887 895
3 904 894 895
3 904 895 905
3 902 904 905
3 902 905 903
3 892 902 903
3 892 903 893
3 884 892 893
3 884 893 885
3 874 884 885
3 874 885 875
3 862 874 875
3 862 875 863
3 850 862 863
3 850 863 851
3 842 850 851
3 842 851 843
3 823 842 843
3 823 843 824
3 811 823 824
3 811 824 812
3 795 811 812
3 795 812 796
3 787 795 796
3 787 796 788
3 770 787 788
3 770 788 771
3 760 770 771
3 760 771 761
3 748 760 761
3 748 761 749
3 692 748 749
3 692 749 693
3 571 692 693
3 571 693 572
3 552 571 572
3 552 572 553
3 538 552 553
3 538 553 539
3 526 538 539
3 526 539 527
3 514 526 527
3 514 527 515
3 500 514 515
3 500 515 501
3 482 500 501
3 482 501 483
3 462 482 483
3 462 483 463
3 444 462 463
3 444 463 445
3 432 444 445
3 432 445 433
3 416 432 433
3 416 433 417
3 406 416 417
3 406 417 407
3 406 407 397
3 396 406 397
3 396 397 387
3 386 396 387
3 386 387 377
3 376 386 377
3 376 377 367
3 366 376 367
3 366 367 353
3 352 366 353
3 352 353 345
3 344 352 345
3 344 345 337
3 336 344 337
3 336 337 323
3 322 336 323
3 322 323 317
3 316 322 317
