OFF
1026 2073 0
0.000 35.369 0.000
0.000 35.369 3.650
0.000 35.369 37.680
0.212 34.664 0.000
0.212 34.664 3.650
0.220 35.251 37.680
0.220 35.251 41.030
0.705 35.581 0.000
0.705 35.581 3.650
0.917 34.876 0.000
0.917 34.876 3.650
1.808 29.360 0.000
1.808 29.360 3.650
2.020 28.655 0.000
2.020 28.655 3.650
2.359 36.078 0.000
2.359 36.078 3.650
2.513 29.572 0.000
2.513 29.572 3.650
2.725 28.867 0.000
2.725 28.867 3.650
3.720 22.998 0.000
3.720 22.998 3.650
3.932 22.293 0.000
3.932 22.293 3.650
4.425 23.210 0.000
4.425 23.210 3.650
4.637 22.505 0.000
4.637 22.505 3.650
5.526 16.989 0.000
5.526 16.989 3.650
5.738 16.284 0.000
5.738 16.284 3.650
5.738 16.284 37.680
5.852 16.503 37.680
5.852 16.503 41.030
5.981 23.645 37.680
5.981 23.645 41.030
5.981 23.645 47.890
6.231 17.201 0.000
6.231 17.201 3.650
6.443 16.496 0.000
6.443 16.496 3.650
7.883 17.113 37.680
7.883 17.113 41.030
7.933 16.943 3.650
7.933 16.943 37.680
9.686 10.924 0.000
9.686 10.924 3.650
9.686 10.924 37.680
9.686 10.924 47.890
39.846 47.123 37.680
39.846 47.123 40.570
39.846 47.123 41.030
42.149 47.816 37.680
42.149 47.816 40.570
42.273 47.403 37.680
42.273 47.403 40.570
42.562 47.940 37.680
42.562 47.940 40.570
42.562 47.940 41.030
42.646 48.814 0.000
42.646 48.814 5.500
42.646 48.814 17.100
42.685 47.527 37.680
42.685 47.527 40.570
42.689 48.668 5.500
42.689 48.668 17.100
42.706 48.205 0.000
42.706 48.205 3.650
42.706 48.205 37.680
43.025 48.609 0.000
43.025 48.609 5.500
43.025 48.609 17.100
43.078 44.627 37.680
43.078 44.627 40.570
43.201 44.214 37.680
43.201 44.214 40.570
43.260 46.770 0.000
43.260 46.770 5.500
43.260 46.770 17.100
43.349 48.283 17.100
43.349 48.283 17.200
43.409 34.895 37.680
43.409 34.895 40.570
43.409 34.895 41.030
43.490 44.751 37.680
43.490 44.751 40.570
43.551 46.858 0.000
43.551 46.858 5.500
43.614 44.338 37.680
43.614 44.338 40.570
43.784 48.201 22.400
43.951 41.629 37.680
43.951 41.629 40.570
44.075 41.216 37.680
44.075 41.216 40.570
44.233 43.535 17.100
44.233 43.535 17.200
44.364 41.753 37.680
44.364 41.753 40.570
44.372 49.333 6.800
44.372 49.333 9.300
44.372 49.333 10.200
44.372 49.333 12.700
44.372 49.333 13.600
44.372 49.333 16.100
44.416 49.187 6.800
44.416 49.187 9.300
44.416 49.187 10.200
44.416 49.187 12.700
44.416 49.187 13.600
44.416 49.187 16.100
44.488 41.340 37.680
44.488 41.340 40.570
44.616 49.406 0.000
44.616 49.406 5.500
44.703 49.114 0.000
44.703 49.114 5.500
44.704 39.044 37.680
44.704 39.044 40.570
44.732 43.685 17.100
44.732 43.685 17.200
44.828 38.631 37.680
44.828 38.631 40.570
45.035 49.531 19.800
45.117 39.168 37.680
45.117 39.168 40.570
45.241 38.755 37.680
45.241 38.755 40.570
45.431 49.651 17.100
45.431 49.651 17.200
45.431 49.651 17.400
45.431 49.651 19.800
45.540 49.683 6.800
45.540 49.683 9.300
45.540 49.683 10.200
45.540 49.683 12.700
45.540 49.683 13.600
45.540 49.683 16.100
45.584 49.537 6.800
45.584 49.537 9.300
45.584 49.537 10.200
45.584 49.537 12.700
45.584 49.537 13.600
45.584 49.537 16.100
45.587 36.000 37.680
45.587 36.000 40.570
45.635 48.970 17.100
45.635 48.970 17.200
45.635 49.712 20.236
45.711 35.587 37.680
45.711 35.587 40.570
46.000 36.124 37.680
46.000 36.124 40.570
46.051 49.837 19.800
46.095 49.691 19.800
46.124 35.711 37.680
46.124 35.711 40.570
46.124 35.711 41.030
46.268 49.902 20.616
46.328 35.772 37.680
46.328 35.772 47.890
46.629 50.011 20.135
46.673 49.865 20.135
46.781 50.057 17.400
46.781 50.057 19.800
46.825 49.910 17.400
46.825 49.910 19.800
46.853 50.078 6.800
46.853 50.078 9.300
46.853 50.078 10.200
46.853 50.078 12.700
46.853 50.078 13.600
46.853 50.078 16.100
46.897 49.932 6.800
46.897 49.932 9.300
46.897 49.932 10.200
46.897 49.932 12.700
46.897 49.932 13.600
46.897 49.932 16.100
46.931 50.101 20.937
47.232 50.192 20.417
47.277 50.046 20.417
47.618 50.308 21.197
47.856 50.379 20.646
47.900 50.233 20.646
48.324 50.520 21.394
48.496 50.572 20.819
48.540 50.426 20.819
48.936 27.896 17.100
48.936 27.896 17.200
48.970 50.714 0.000
48.970 50.714 5.500
49.044 50.736 21.526
49.057 50.422 0.000
49.057 50.422 5.500
49.148 50.768 20.935
49.192 50.622 20.935
49.435 28.046 17.100
49.435 28.046 17.200
49.481 50.867 6.800
49.481 50.867 9.300
49.481 50.867 10.200
49.481 50.867 12.700
49.481 50.867 13.600
49.481 50.867 16.100
49.525 50.721 6.800
49.525 50.721 9.300
49.525 50.721 10.200
49.525 50.721 12.700
49.525 50.721 13.600
49.525 50.721 16.100
49.772 50.955 21.592
49.799 50.963 0.000
49.799 50.963 5.500
49.807 50.966 20.993
49.851 50.820 20.993
50.033 23.051 0.000
50.033 23.051 3.650
50.033 23.051 37.680
50.033 23.051 47.890
50.089 50.000 0.000
50.089 50.000 5.500
50.468 51.164 20.993
50.476 51.167 0.000
50.476 51.167 5.500
50.503 51.175 21.592
50.512 51.018 20.993
50.522 22.617 0.000
50.522 22.617 17.100
50.715 23.033 17.100
50.765 50.204 0.000
50.765 50.204 5.500
50.794 51.262 6.800
50.794 51.262 9.300
50.794 51.262 10.200
50.794 51.262 12.700
50.794 51.262 13.600
50.794 51.262 16.100
50.817 23.449 17.100
50.817 23.449 17.200
50.838 51.116 6.800
50.838 51.116 9.300
50.838 51.116 10.200
50.838 51.116 12.700
50.838 51.116 13.600
50.838 51.116 16.100
51.123 23.792 22.400
51.127 51.362 20.935
51.171 51.216 20.935
51.231 51.394 21.526
51.305 51.416 0.000
51.305 51.416 5.500
51.393 51.124 0.000
51.393 51.124 5.500
51.779 51.558 20.819
51.823 51.412 20.819
51.951 51.610 21.394
52.390 43.573 26.300
52.419 51.751 20.646
52.463 51.605 20.646
52.657 51.822 21.197
53.042 51.938 20.417
53.086 51.792 20.417
53.103 24.136 17.100
53.103 24.136 17.200
53.308 23.456 17.100
53.308 23.456 17.200
53.344 52.029 20.937
53.421 52.052 6.800
53.421 52.052 9.300
53.421 52.052 10.200
53.421 52.052 12.700
53.421 52.052 13.600
53.421 52.052 16.100
53.465 51.906 6.800
53.465 51.906 9.300
53.465 51.906 10.200
53.465 51.906 12.700
53.465 51.906 13.600
53.465 51.906 16.100
53.494 52.074 17.400
53.494 52.074 19.800
53.538 51.928 17.400
53.538 51.928 19.800
53.646 52.120 20.135
53.690 51.974 20.135
54.007 52.228 20.616
54.224 52.294 19.800
54.268 52.147 19.800
54.640 52.419 20.236
54.735 52.447 6.800
54.735 52.447 9.300
54.735 52.447 10.200
54.735 52.447 12.700
54.735 52.447 13.600
54.735 52.447 16.100
54.779 52.301 6.800
54.779 52.301 9.300
54.779 52.301 10.200
54.779 52.301 12.700
54.779 52.301 13.600
54.779 52.301 16.100
54.844 52.480 17.100
54.844 52.480 17.200
54.844 52.480 17.400
54.844 52.480 19.800
55.049 51.799 17.100
55.049 51.799 17.200
55.240 52.599 19.800
55.659 52.725 0.000
55.659 52.725 5.500
55.746 52.433 0.000
55.746 52.433 5.500
55.750 32.397 26.300
55.902 52.798 6.800
55.902 52.798 9.300
55.902 52.798 10.200
55.902 52.798 12.700
55.902 52.798 13.600
55.902 52.798 16.100
55.946 52.652 6.800
55.946 52.652 9.300
55.946 52.652 10.200
55.946 52.652 12.700
55.946 52.652 13.600
55.946 52.652 16.100
57.017 52.178 22.400
57.335 52.486 17.100
57.335 52.486 17.200
57.425 52.937 0.000
57.425 52.937 5.500
57.425 52.937 17.100
57.629 53.317 0.000
57.629 53.317 5.500
57.629 53.317 17.100
57.673 53.171 5.500
57.673 53.171 17.100
57.951 51.186 0.000
57.951 51.186 5.500
57.978 52.495 0.000
57.978 52.495 6.400
57.978 52.495 7.700
58.119 52.033 0.000
58.119 52.033 6.400
58.243 51.274 0.000
58.243 51.274 5.500
58.243 51.274 17.100
58.468 53.414 0.000
58.468 53.414 6.400
58.468 53.414 7.700
58.718 47.889 17.100
58.718 47.889 17.200
58.929 53.555 0.000
58.929 53.555 6.400
59.074 53.081 3.000
59.074 53.081 3.500
59.211 52.632 0.000
59.211 52.632 3.000
59.211 52.632 3.500
59.211 52.632 6.400
59.216 48.039 17.100
59.216 48.039 17.200
59.249 52.612 0.000
59.249 52.612 6.400
59.285 52.389 0.000
59.285 52.389 6.400
62.517 26.968 17.100
62.517 26.968 17.200
62.673 37.101 0.000
62.673 37.101 6.400
62.673 37.101 7.700
62.721 26.286 17.100
62.721 26.286 17.200
63.421 32.252 17.100
63.421 32.252 17.200
63.919 32.402 17.100
63.919 32.402 17.200
64.355 27.771 22.400
64.803 27.655 17.100
64.803 27.655 17.200
65.114 27.363 17.100
65.506 27.121 0.000
65.506 27.121 17.100
65.698 38.024 0.000
65.698 38.024 6.400
65.698 38.024 7.700
65.787 37.731 0.000
65.787 37.731 6.400
65.787 37.731 7.700
66.680 38.243 0.000
66.680 38.243 65.200
66.680 38.243 74.100
66.857 37.660 0.000
66.857 37.660 65.200
67.169 39.162 0.000
67.169 39.162 65.200
67.169 39.162 74.100
67.375 38.424 6.400
67.375 38.424 7.700
67.375 38.424 10.100
67.375 38.424 11.370
67.375 38.424 13.770
67.375 38.424 15.040
67.375 38.424 17.440
67.375 38.424 18.710
67.375 38.424 21.110
67.375 38.424 22.380
67.375 38.424 24.780
67.375 38.424 26.050
67.375 38.424 28.450
67.375 38.424 29.720
67.375 38.424 32.120
67.375 38.424 33.390
67.375 38.424 35.790
67.375 38.424 37.060
67.375 38.424 39.460
67.375 38.424 40.730
67.375 38.424 43.130
67.375 38.424 44.400
67.375 38.424 46.800
67.375 38.424 48.070
67.375 38.424 50.470
67.375 38.424 51.740
67.375 38.424 54.140
67.375 38.424 55.410
67.375 38.424 57.810
67.375 38.424 59.080
67.375 38.424 61.480
67.375 38.424 62.750
67.625 38.291 0.000
67.625 38.291 6.400
67.625 38.291 65.200
67.654 31.610 0.000
67.753 39.339 0.000
67.753 39.339 65.200
68.145 38.052 0.000
68.145 38.052 65.200
68.438 32.486 0.000
68.438 32.486 6.400
68.438 32.486 65.200
68.615 31.903 0.000
68.615 31.903 6.400
68.615 31.903 65.200
68.855 32.852 0.000
68.855 32.852 6.400
68.900 32.706 0.000
68.900 32.706 6.400
69.122 31.977 0.000
69.122 31.977 6.400
69.166 31.832 0.000
69.166 31.832 6.400
69.246 32.971 0.000
69.246 32.971 6.400
69.312 32.752 6.400
69.312 32.752 65.200
69.489 32.170 0.000
69.490 32.169 6.400
69.490 32.169 65.200
69.556 31.951 0.000
69.556 31.951 6.400
70.394 26.072 0.000
70.394 26.072 6.400
70.394 26.072 65.200
70.571 25.489 0.000
70.571 25.489 6.400
70.571 25.489 65.200
70.811 26.438 0.000
70.811 26.438 6.400
70.856 26.292 0.000
70.856 26.292 6.400
71.078 25.564 0.000
71.078 25.564 6.400
71.122 25.418 0.000
71.122 25.418 6.400
71.202 26.557 0.000
71.202 26.557 6.400
71.268 26.339 6.400
71.268 26.339 65.200
71.446 25.755 6.400
71.446 25.755 65.200
71.512 25.537 0.000
71.512 25.537 6.400
72.350 19.658 0.000
72.350 19.658 6.400
72.350 19.658 65.200
72.528 19.075 0.000
72.528 19.075 6.400
72.528 19.075 65.200
72.767 20.024 0.000
72.767 20.024 6.400
72.812 19.879 0.000
72.812 19.879 6.400
72.874 40.314 0.000
72.944 40.865 0.000
72.944 40.865 6.400
72.944 40.865 65.200
72.993 39.924 0.000
73.019 40.358 0.000
73.034 19.150 0.000
73.034 19.150 6.400
73.079 19.004 0.000
73.079 19.004 6.400
73.158 20.143 0.000
73.158 20.143 6.400
73.211 39.991 6.400
73.211 39.991 65.200
73.224 19.925 6.400
73.224 19.925 65.200
73.402 19.342 6.400
73.402 19.342 65.200
73.469 19.123 0.000
73.469 19.123 6.400
73.527 41.042 0.000
73.527 41.042 6.400
73.527 41.042 65.200
73.748 40.581 0.000
73.795 40.168 6.400
73.795 40.168 65.200
73.894 40.625 0.000
74.013 40.234 0.000
74.041 58.162 0.000
74.041 58.162 6.400
74.186 57.688 3.000
74.186 57.688 3.500
74.303 57.201 0.000
74.303 57.201 6.400
74.306 13.244 0.000
74.306 13.244 6.400
74.306 13.244 65.200
74.323 57.239 0.000
74.323 57.239 3.000
74.323 57.239 3.500
74.323 57.239 6.400
74.377 56.958 0.000
74.377 56.958 6.400
74.397 56.996 0.000
74.397 56.996 6.400
74.484 12.661 0.000
74.484 12.661 6.400
74.484 12.661 65.200
74.503 58.303 0.000
74.503 58.303 6.400
74.503 58.303 7.700
74.619 57.032 0.000
74.619 57.032 6.400
74.640 57.070 0.000
74.640 57.070 6.400
74.646 57.072 3.000
74.646 57.072 3.500
74.723 13.610 0.000
74.723 13.610 6.400
74.768 13.465 0.000
74.768 13.465 6.400
74.990 12.736 0.000
74.990 12.736 6.400
75.035 12.590 0.000
75.035 12.590 6.400
75.089 57.207 3.000
75.089 57.207 3.500
75.114 13.729 0.000
75.114 13.729 6.400
75.180 13.511 6.400
75.180 13.511 65.200
75.358 12.928 6.400
75.358 12.928 65.200
75.422 57.814 0.000
75.422 57.814 6.400
75.422 57.814 7.700
75.425 12.709 0.000
75.425 12.709 6.400
75.563 57.352 0.000
75.563 57.352 6.400
76.262 6.831 0.000
76.262 6.831 6.400
76.262 6.831 65.200
76.440 6.247 0.000
76.440 6.247 6.400
76.440 6.247 65.200
76.680 7.197 0.000
76.680 7.197 6.400
76.724 7.051 0.000
76.724 7.051 6.400
76.946 6.322 0.000
76.946 6.322 6.400
76.991 6.177 0.000
76.991 6.177 6.400
77.070 7.316 0.000
77.070 7.316 6.400
77.137 7.097 6.400
77.137 7.097 65.200
77.314 6.514 6.400
77.314 6.514 65.200
77.381 6.296 0.000
77.381 6.296 6.400
78.017 1.072 0.000
78.017 1.072 6.400
78.017 1.072 65.200
78.195 0.489 0.000
78.195 0.489 6.400
78.195 0.489 65.200
78.195 0.489 74.100
78.419 43.809 0.000
78.419 43.809 6.400
78.436 1.439 0.000
78.436 1.439 6.400
78.481 1.294 0.000
78.481 1.294 6.400
78.643 43.845 0.000
78.643 43.845 6.400
78.663 43.883 0.000
78.663 43.883 3.000
78.663 43.883 3.500
78.663 43.883 6.400
78.869 0.730 6.400
78.869 0.730 7.700
78.869 0.730 10.100
78.869 0.730 11.370
78.869 0.730 13.770
78.869 0.730 15.040
78.869 0.730 17.440
78.869 0.730 18.710
78.869 0.730 21.110
78.869 0.730 22.380
78.869 0.730 24.780
78.869 0.730 26.050
78.869 0.730 28.450
78.869 0.730 29.720
78.869 0.730 32.120
78.869 0.730 33.390
78.869 0.730 35.790
78.869 0.730 37.060
78.869 0.730 39.460
78.869 0.730 40.730
78.869 0.730 43.130
78.869 0.730 44.400
78.869 0.730 46.800
78.869 0.730 48.070
78.869 0.730 50.470
78.869 0.730 51.740
78.869 0.730 54.140
78.869 0.730 55.410
78.869 0.730 57.810
78.869 0.730 59.080
78.869 0.730 61.480
78.869 0.730 62.750
79.002 0.980 0.000
79.002 0.980 6.400
79.002 0.980 65.200
79.032 0.006 65.200
79.032 0.006 74.100
79.106 44.018 3.000
79.106 44.018 3.500
79.115 0.000 0.000
79.115 0.000 6.400
79.115 0.000 65.200
79.287 41.839 0.000
79.287 41.839 6.400
79.288 42.269 0.000
79.288 42.269 6.400
79.305 1.465 0.000
79.305 1.465 6.400
79.305 1.465 65.200
79.328 42.919 0.000
79.328 42.919 6.400
79.328 42.919 7.700
79.358 42.820 0.000
79.358 42.820 6.400
79.358 42.820 65.200
79.407 41.879 0.000
79.407 41.879 6.400
79.433 42.314 0.000
79.433 42.314 6.400
79.457 1.750 0.000
79.457 1.750 6.400
79.585 44.163 0.000
79.585 44.163 6.400
79.622 0.685 0.000
79.622 0.685 6.400
79.625 41.946 0.000
79.625 41.946 6.400
79.625 41.946 7.700
79.625 41.946 65.200
79.697 0.178 0.000
79.697 0.178 6.400
79.697 0.178 65.200
79.733 43.678 0.000
79.733 43.678 6.400
79.733 43.678 7.700
79.768 0.730 0.000
79.768 0.730 6.400
79.941 42.998 0.000
79.941 42.998 6.400
79.941 42.998 65.200
80.162 42.536 0.000
80.162 42.536 6.400
80.209 42.124 6.400
80.209 42.124 65.200
80.308 42.580 0.000
80.308 42.580 6.400
80.427 42.190 0.000
80.427 42.190 6.400
81.063 36.017 0.000
81.063 36.017 6.400
84.370 2.617 0.000
84.370 2.617 6.400
84.489 2.227 0.000
84.489 2.227 6.400
84.589 2.683 6.400
84.589 2.683 65.200
84.635 2.271 0.000
84.635 2.271 6.400
84.855 1.809 0.000
84.855 1.809 6.400
84.855 1.809 65.200
85.172 2.861 6.400
85.172 2.861 65.200
85.363 2.493 0.000
85.363 2.493 6.400
85.390 2.928 0.000
85.390 2.928 6.400
85.438 1.987 0.000
85.438 1.987 6.400
85.438 1.987 65.200
85.509 2.538 0.000
85.509 2.538 6.400
85.711 44.222 0.000
85.711 44.222 6.400
85.782 44.772 0.000
85.782 44.772 6.400
85.782 44.772 65.200
85.857 44.266 0.000
85.857 44.266 6.400
86.023 43.200 0.000
86.023 43.200 6.400
86.049 43.898 6.400
86.049 43.898 65.200
86.365 44.950 0.000
86.365 44.950 6.400
86.365 44.950 65.200
86.585 44.488 0.000
86.585 44.488 6.400
86.632 44.076 6.400
86.632 44.076 65.200
86.731 44.533 0.000
86.731 44.533 6.400
87.043 43.511 0.000
87.043 43.511 6.400
90.784 4.572 0.000
90.784 4.572 6.400
90.903 4.182 0.000
90.903 4.182 6.400
91.003 4.639 6.400
91.003 4.639 65.200
91.049 4.227 0.000
91.049 4.227 6.400
91.269 3.765 0.000
91.269 3.765 6.400
91.269 3.765 65.200
91.443 46.032 0.000
91.443 46.032 6.400
91.513 46.584 0.000
91.513 46.584 6.400
91.513 46.584 65.200
91.586 4.817 6.400
91.586 4.817 65.200
91.589 46.077 0.000
91.589 46.077 6.400
91.754 45.012 0.000
91.754 45.012 6.400
91.777 4.449 0.000
91.777 4.449 6.400
91.804 4.884 0.000
91.804 4.884 6.400
91.852 3.943 0.000
91.852 3.943 6.400
91.852 3.943 65.200
91.906 45.297 6.400
91.906 45.297 65.200
91.923 4.493 0.000
91.923 4.493 6.400
92.097 46.762 0.000
92.097 46.762 6.400
92.097 46.762 65.200
92.097 46.762 74.100
92.209 45.771 6.400
92.209 45.771 65.200
92.342 46.020 6.400
92.342 46.020 7.700
92.342 46.020 10.100
92.342 46.020 11.370
92.342 46.020 13.770
92.342 46.020 15.040
92.342 46.020 17.440
92.342 46.020 18.710
92.342 46.020 21.110
92.342 46.020 22.380
92.342 46.020 24.780
92.342 46.020 26.050
92.342 46.020 28.450
92.342 46.020 29.720
92.342 46.020 32.120
92.342 46.020 33.390
92.342 46.020 35.790
92.342 46.020 37.060
92.342 46.020 39.460
92.342 46.020 40.730
92.342 46.020 43.130
92.342 46.020 44.400
92.342 46.020 46.800
92.342 46.020 48.070
92.342 46.020 50.470
92.342 46.020 51.740
92.342 46.020 54.140
92.342 46.020 55.410
92.342 46.020 57.810
92.342 46.020 59.080
92.342 46.020 61.480
92.342 46.020 62.750
92.730 45.469 0.000
92.730 45.469 6.400
92.775 45.323 0.000
92.775 45.323 6.400
93.016 46.273 0.000
93.016 46.273 6.400
93.016 46.273 65.200
93.016 46.273 74.100
93.194 45.689 0.000
93.194 45.689 6.400
93.194 45.689 65.200
93.829 40.466 0.000
93.829 40.466 6.400
93.895 40.248 6.400
93.895 40.248 65.200
93.984 39.956 0.000
93.984 39.956 6.400
94.073 39.665 6.400
94.073 39.665 65.200
94.140 39.447 0.000
94.140 39.447 6.400
94.219 40.585 0.000
94.219 40.585 6.400
94.263 40.440 0.000
94.263 40.440 6.400
94.486 39.711 0.000
94.486 39.711 6.400
94.530 39.565 0.000
94.530 39.565 6.400
94.770 40.514 0.000
94.770 40.514 6.400
94.770 40.514 65.200
94.948 39.931 0.000
94.948 39.931 6.400
94.948 39.931 65.200
95.785 34.052 0.000
95.785 34.052 6.400
95.852 33.834 6.400
95.852 33.834 65.200
96.030 33.251 6.400
96.030 33.251 65.200
96.097 33.033 0.000
96.097 33.033 6.400
96.175 34.172 0.000
96.175 34.172 6.400
96.220 34.026 0.000
96.220 34.026 6.400
96.442 33.297 0.000
96.442 33.297 6.400
96.487 33.152 0.000
96.487 33.152 6.400
96.726 34.101 0.000
96.726 34.101 6.400
96.726 34.101 65.200
96.904 33.517 0.000
96.904 33.517 6.400
96.904 33.517 65.200
97.198 6.528 0.000
97.198 6.528 6.400
97.317 6.138 0.000
97.317 6.138 6.400
97.417 6.595 6.400
97.417 6.595 65.200
97.463 6.183 0.000
97.463 6.183 6.400
97.683 5.721 0.000
97.683 5.721 6.400
97.683 5.721 65.200
97.741 27.639 0.000
97.741 27.639 6.400
97.808 27.421 6.400
97.808 27.421 65.200
97.986 26.837 6.400
97.986 26.837 65.200
98.000 6.773 6.400
98.000 6.773 65.200
98.053 26.619 0.000
98.053 26.619 6.400
98.131 27.758 0.000
98.131 27.758 6.400
98.176 27.612 0.000
98.176 27.612 6.400
98.191 6.405 0.000
98.191 6.405 6.400
98.218 6.840 0.000
98.218 6.840 6.400
98.266 5.898 0.000
98.266 5.898 6.400
98.266 5.898 65.200
98.337 6.449 0.000
98.337 6.449 6.400
98.398 26.883 0.000
98.398 26.883 6.400
98.443 26.738 0.000
98.443 26.738 6.400
98.682 27.687 0.000
98.682 27.687 6.400
98.682 27.687 65.200
98.860 27.104 0.000
98.860 27.104 6.400
98.860 27.104 65.200
99.697 21.225 0.000
99.697 21.225 6.400
99.764 21.007 6.400
99.764 21.007 65.200
99.942 20.424 6.400
99.942 20.424 65.200
100.009 20.205 0.000
100.009 20.205 6.400
100.088 21.344 0.000
100.088 21.344 6.400
100.132 21.198 0.000
100.132 21.198 6.400
100.355 20.470 0.000
100.355 20.470 6.400
100.399 20.324 0.000
100.399 20.324 6.400
100.639 21.273 0.000
100.639 21.273 6.400
100.639 21.273 65.200
100.817 20.690 0.000
100.817 20.690 6.400
100.817 20.690 65.200
101.653 14.811 0.000
101.653 14.811 6.400
101.720 14.593 6.400
101.720 14.593 65.200
101.898 14.010 6.400
101.898 14.010 65.200
101.965 13.791 0.000
101.965 13.791 6.400
102.044 14.930 0.000
102.044 14.930 6.400
102.088 14.785 0.000
102.088 14.785 6.400
102.311 14.056 0.000
102.311 14.056 6.400
102.355 13.910 0.000
102.355 13.910 6.400
102.595 14.859 0.000
102.595 14.859 6.400
102.595 14.859 65.200
102.773 14.276 0.000
102.773 14.276 6.400
102.773 14.276 65.200
102.779 8.861 0.000
102.779 8.861 6.400
103.064 8.709 6.400
103.064 8.709 65.200
103.090 7.841 0.000
103.090 7.841 6.400
103.236 7.885 0.000
103.236 7.885 6.400
103.457 7.422 0.000
103.457 7.422 6.400
103.457 7.422 65.200
103.586 8.476 0.000
103.586 8.476 6.400
103.586 8.476 65.200
103.799 9.172 0.000
103.799 9.172 6.400
103.836 8.343 6.400
103.836 8.343 7.700
103.836 8.343 10.100
103.836 8.343 11.370
103.836 8.343 13.770
103.836 8.343 15.040
103.836 8.343 17.440
103.836 8.343 18.710
103.836 8.343 21.110
103.836 8.343 22.380
103.836 8.343 24.780
103.836 8.343 26.050
103.836 8.343 28.450
103.836 8.343 29.720
103.836 8.343 32.120
103.836 8.343 33.390
103.836 8.343 35.790
103.836 8.343 37.060
103.836 8.343 39.460
103.836 8.343 40.730
103.836 8.343 43.130
103.836 8.343 44.400
103.836 8.343 46.800
103.836 8.343 48.070
103.836 8.343 50.470
103.836 8.343 51.740
103.836 8.343 54.140
103.836 8.343 55.410
103.836 8.343 57.810
103.836 8.343 59.080
103.836 8.343 61.480
103.836 8.343 62.750
103.844 9.027 0.000
103.844 9.027 6.400
104.040 7.600 0.000
104.040 7.600 6.400
104.040 7.600 65.200
104.040 7.600 74.100
104.352 9.102 0.000
104.352 9.102 6.400
104.352 9.102 65.200
104.529 8.519 0.000
104.529 8.519 6.400
104.529 8.519 65.200
104.529 8.519 74.100
3 14 12 18
3 20 14 18
3 24 22 26
3 28 24 26
3 32 30 40
3 42 32 40
3 4 1 8
3 10 4 8
3 48 16 69
3 219 48 69
3 220 49 46
3 70 220 46
3 2 70 46
3 33 2 46
3 53 85 37
3 6 53 37
3 35 6 37
3 44 35 37
3 65 57 55
3 59 65 55
3 91 77 75
3 87 91 75
3 114 96 94
3 100 114 94
3 129 124 120
3 127 129 120
3 158 152 147
3 154 158 147
3 85 53 60
3 159 85 60
3 50 38 162
3 221 50 162
3 254 195 192
3 252 254 192
3 232 222 214
3 225 232 214
3 71 88 78
3 115 117 71
3 61 115 71
3 78 61 71
3 331 313 311
3 346 339 331
3 334 346 331
3 311 334 331
3 229 78 346
3 383 229 346
3 190 97 121
3 199 190 121
3 265 240 199
3 373 267 265
3 368 373 265
3 375 380 368
3 362 377 375
3 352 362 375
3 329 352 375
3 308 329 375
3 130 304 308
3 148 130 308
3 121 81 148
3 199 121 148
3 265 199 148
3 368 265 148
3 375 368 148
3 308 375 148
3 231 73 333
3 382 231 333
3 331 313 311
3 346 339 331
3 334 346 331
3 311 334 331
3 332 314 313
3 332 313 331
3 332 331 339
3 340 332 339
3 347 340 339
3 347 339 346
3 335 347 346
3 335 346 334
3 335 334 311
3 312 335 311
3 312 311 313
3 314 312 313
3 332 314 312
3 347 340 332
3 335 347 332
3 312 335 332
3 71 88 78
3 115 117 71
3 61 115 71
3 78 61 71
3 72 89 88
3 72 88 71
3 118 72 71
3 118 71 117
3 116 118 117
3 116 117 115
3 116 115 61
3 62 116 61
3 62 61 78
3 79 62 78
3 89 79 78
3 89 78 88
3 72 89 79
3 116 118 72
3 62 116 72
3 79 62 72
3 232 222 214
3 225 232 214
3 233 223 222
3 233 222 232
3 226 233 232
3 226 232 225
3 226 225 214
3 215 226 214
3 215 214 222
3 223 215 222
3 233 223 215
3 226 233 215
3 254 195 192
3 252 254 192
3 255 196 195
3 255 195 254
3 253 255 254
3 253 254 252
3 253 252 192
3 193 253 192
3 193 192 195
3 196 193 195
3 255 196 193
3 253 255 193
3 229 78 346
3 383 229 346
3 80 78 229
3 230 80 229
3 384 230 229
3 384 229 383
3 348 384 383
3 348 383 346
3 348 346 78
3 80 348 78
3 230 80 348
3 384 230 348
3 176 175 207
3 176 207 208
3 108 107 140
3 108 140 141
3 178 177 209
3 178 209 210
3 110 109 142
3 110 142 143
3 180 179 211
3 180 211 212
3 112 111 144
3 112 144 145
3 276 242 243
3 277 276 243
3 322 298 299
3 323 322 299
3 278 244 245
3 279 278 245
3 324 300 301
3 325 324 301
3 280 246 247
3 281 280 247
3 326 302 303
3 327 326 303
3 336 335 347
3 348 336 347
3 63 336 348
3 80 63 348
3 63 80 79
3 63 79 62
3 63 62 335
3 63 335 336
3 106 105 138
3 106 138 139
3 137 136 103
3 104 137 103
3 102 101 134
3 102 134 135
3 170 169 201
3 170 201 202
3 204 203 171
3 172 204 171
3 174 173 205
3 174 205 206
3 274 238 239
3 275 274 239
3 273 237 236
3 273 236 272
3 270 234 235
3 271 270 235
3 316 292 293
3 317 316 293
3 319 295 294
3 319 294 318
3 320 296 297
3 321 320 297
3 336 335 62
3 63 336 62
3 139 138 105
3 106 139 105
3 137 136 103
3 104 137 103
3 135 134 101
3 102 135 101
3 202 201 169
3 170 202 169
3 204 203 171
3 172 204 171
3 206 205 173
3 174 206 173
3 274 238 239
3 275 274 239
3 272 236 237
3 273 272 237
3 270 234 235
3 271 270 235
3 316 292 293
3 317 316 293
3 318 294 295
3 319 318 295
3 320 296 297
3 321 320 297
3 338 337 335
3 338 335 336
3 63 336 338
3 67 63 338
3 67 63 62
3 66 67 62
3 66 62 335
3 337 66 335
3 105 138 144
3 111 105 144
3 112 111 105
3 112 105 106
3 112 106 139
3 145 112 139
3 145 139 138
3 144 145 138
3 103 136 142
3 109 103 142
3 110 109 103
3 110 103 104
3 110 104 137
3 143 110 137
3 143 137 136
3 142 143 136
3 101 134 140
3 107 101 140
3 108 107 101
3 108 101 102
3 108 102 135
3 141 108 135
3 141 135 134
3 140 141 134
3 169 201 207
3 175 169 207
3 176 175 169
3 176 169 170
3 176 170 202
3 208 176 202
3 208 202 201
3 207 208 201
3 171 203 209
3 177 171 209
3 178 177 171
3 178 171 172
3 178 172 204
3 210 178 204
3 210 204 203
3 209 210 203
3 173 205 211
3 179 173 211
3 180 179 173
3 180 173 174
3 180 174 206
3 212 180 206
3 212 206 205
3 211 212 205
3 247 246 238
3 247 238 239
3 247 239 275
3 281 247 275
3 281 275 274
3 280 281 274
3 238 274 280
3 246 238 280
3 245 244 236
3 245 236 237
3 245 237 273
3 279 245 273
3 279 273 272
3 278 279 272
3 236 272 278
3 244 236 278
3 243 242 234
3 243 234 235
3 243 235 271
3 277 243 271
3 277 271 270
3 276 277 270
3 234 270 276
3 242 234 276
3 299 298 292
3 299 292 293
3 299 293 317
3 323 299 317
3 323 317 316
3 322 323 316
3 292 316 322
3 298 292 322
3 301 300 294
3 301 294 295
3 301 295 319
3 325 301 319
3 325 319 318
3 324 325 318
3 294 318 324
3 300 294 324
3 303 302 296
3 303 296 297
3 303 297 321
3 327 303 321
3 327 321 320
3 326 327 320
3 296 320 326
3 302 296 326
3 67 66 337
3 67 337 338
3 112 111 144
3 112 144 145
3 110 109 142
3 110 142 143
3 108 107 140
3 108 140 141
3 176 175 207
3 176 207 208
3 178 177 209
3 178 209 210
3 180 179 211
3 180 211 212
3 281 247 246
3 281 246 280
3 279 245 244
3 279 244 278
3 277 243 242
3 277 242 276
3 323 299 298
3 323 298 322
3 325 301 300
3 325 300 324
3 327 303 302
3 327 302 326
3 248 92 328
3 379 248 328
3 92 73 333
3 92 333 328
3 379 328 333
3 382 379 333
3 379 382 231
3 248 379 231
3 92 248 231
3 92 231 73
3 92 328 259
3 315 259 328
3 379 315 328
3 248 315 379
3 92 259 315
3 248 92 315
3 285 290 287
3 285 287 264
3 285 264 261
3 285 261 257
3 285 257 250
3 285 250 228
3 285 228 217
3 285 217 198
3 285 198 189
3 285 189 186
3 285 186 183
3 285 183 164
3 168 167 284
3 168 284 285
3 168 285 164
3 156 168 164
3 307 310 291
3 307 291 288
3 307 288 269
3 307 269 262
3 307 262 258
3 307 258 251
3 307 251 227
3 307 227 213
3 307 213 194
3 307 194 187
3 307 187 184
3 307 184 181
3 307 181 160
3 307 160 150
3 307 150 125
3 125 125 133
3 133 132 306
3 133 306 307
3 133 307 125
3 263 286 289
3 260 263 289
3 256 260 289
3 249 256 289
3 224 249 289
3 216 224 289
3 197 216 289
3 188 197 289
3 185 188 289
3 182 185 289
3 163 182 289
3 282 165 166
3 283 282 166
3 289 155 163
3 190 97 121
3 199 190 121
3 265 240 199
3 373 267 265
3 368 373 265
3 375 380 368
3 362 377 375
3 352 362 375
3 329 352 375
3 308 329 375
3 130 304 308
3 148 130 308
3 121 81 148
3 199 121 148
3 265 199 148
3 368 265 148
3 375 368 148
3 308 375 148
3 122 121 97
3 98 122 97
3 98 97 190
3 191 98 190
3 200 191 190
3 200 190 199
3 200 199 240
3 241 200 240
3 266 241 240
3 266 240 265
3 266 265 267
3 268 266 267
3 374 268 267
3 374 267 373
3 369 374 373
3 369 373 368
3 381 369 368
3 381 368 380
3 376 381 380
3 376 380 375
3 378 376 375
3 378 375 377
3 363 378 377
3 363 377 362
3 363 362 352
3 353 363 352
3 330 353 352
3 330 352 329
3 330 329 308
3 309 330 308
3 305 309 308
3 305 308 304
3 305 304 130
3 131 305 130
3 131 130 148
3 149 131 148
3 149 148 81
3 82 149 81
3 82 81 121
3 122 82 121
3 191 98 122
3 200 191 122
3 266 241 200
3 374 268 266
3 369 374 266
3 376 381 369
3 363 378 376
3 353 363 376
3 330 353 376
3 309 330 376
3 131 305 309
3 149 131 309
3 122 82 149
3 200 122 149
3 266 200 149
3 369 266 149
3 376 369 149
3 309 376 149
3 336 335 347
3 348 336 347
3 839 831 841
3 845 847 839
3 849 852 845
3 843 849 845
3 839 841 843
3 845 839 843
3 837 833 850
3 853 837 850
3 769 760 767
3 822 769 767
3 820 822 767
3 828 820 767
3 824 828 767
3 782 824 767
3 762 782 767
3 861 855 863
3 867 869 861
3 871 874 867
3 865 871 867
3 861 863 865
3 867 861 865
3 859 857 872
3 875 859 872
3 896 888 898
3 911 913 896
3 915 918 911
3 900 915 911
3 896 898 900
3 911 896 900
3 892 890 916
3 919 892 916
3 927 921 929
3 933 935 927
3 937 940 933
3 931 937 933
3 927 929 931
3 933 927 931
3 925 923 938
3 941 925 938
3 949 943 951
3 955 957 949
3 959 962 955
3 953 959 955
3 949 951 953
3 955 949 953
3 947 945 960
3 963 947 960
3 971 969 965
3 973 971 965
3 1015 973 965
3 1022 1015 965
3 1019 1022 965
3 1013 1019 965
3 979 1013 965
3 877 904 909
3 883 879 877
3 906 885 883
3 902 906 883
3 877 909 902
3 883 877 902
3 881 894 907
3 886 881 907
3 749 773 780
3 755 751 749
3 775 757 755
3 771 775 755
3 749 780 771
3 755 749 771
3 753 765 776
3 758 753 776
3 705 720 725
3 711 707 705
3 722 713 711
3 718 722 711
3 705 725 718
3 711 705 718
3 709 716 723
3 714 709 723
3 674 690 678
3 605 674 678
3 607 605 678
3 596 607 678
3 599 596 678
3 654 599 678
3 684 654 678
3 747 734 727
3 741 745 747
3 738 741 747
3 729 738 747
3 732 729 747
3 727 732 747
3 778 763 783
3 829 778 783
3 825 829 783
3 974 967 1020
3 1016 974 1020
3 1023 1016 1020
3 597 662 685
3 600 597 685
3 655 600 685
3 445 453 460
3 447 445 460
3 439 447 460
3 449 442 439
3 460 451 449
3 439 460 449
3 440 455 458
3 443 440 458
3 468 476 482
3 470 468 482
3 462 470 482
3 472 465 462
3 482 474 472
3 462 482 472
3 463 478 480
3 466 463 480
3 490 504 512
3 492 490 512
3 484 492 512
3 500 487 484
3 512 502 500
3 484 512 500
3 485 508 510
3 488 485 510
3 551 561 570
3 553 551 570
3 528 553 570
3 555 539 528
3 570 557 555
3 528 570 555
3 529 563 565
3 540 529 565
3 580 588 594
3 582 580 594
3 574 582 594
3 584 577 574
3 594 586 584
3 574 594 584
3 575 590 592
3 578 575 592
3 674 690 678
3 605 674 678
3 607 605 678
3 596 607 678
3 599 596 678
3 654 599 678
3 684 654 678
3 396 435 437
3 391 396 437
3 394 391 437
3 596 661 684
3 599 596 684
3 654 599 684
3 739 743 736
3 730 739 736
3 699 701 670
3 695 699 670
3 692 695 670
3 672 667 692
3 670 659 672
3 692 670 672
3 693 697 681
3 668 693 681
3 520 521 498
3 517 520 498
3 514 517 498
3 499 495 514
3 498 494 499
3 514 498 499
3 515 518 506
3 496 515 506
3 648 432 786
3 977 648 786
3 537 522 542
3 572 537 542
3 567 572 542
3 349 354 366
3 341 349 366
3 344 341 366
3 601 392 397
3 650 601 397
3 1017 650 397
3 1024 1017 397
3 826 1024 397
3 784 826 397
3 434 388 431
3 457 434 431
3 364 358 531
3 526 364 531
3 535 526 531
3 611 609 545
3 547 611 545
3 537 547 545
3 535 531 537
3 545 535 537
3 371 342 350
3 386 371 350
3 681 389 386
3 665 681 386
3 688 665 386
3 568 688 386
3 543 568 386
3 350 543 386
3 366 358 366
3 370 344 366
3 385 370 366
3 680 388 385
3 664 680 385
3 687 664 385
3 676 687 385
3 603 676 385
3 535 603 385
3 535 385 366
3 537 535 366
3 366 358 366
3 370 344 366
3 385 370 366
3 680 388 385
3 664 680 385
3 687 664 385
3 676 687 385
3 603 676 385
3 535 603 385
3 535 385 366
3 537 535 366
3 361 358 366
3 367 361 366
3 367 366 344
3 345 367 344
3 345 344 370
3 371 345 370
3 386 371 370
3 386 370 385
3 386 385 388
3 389 386 388
3 681 389 388
3 681 388 680
3 665 681 680
3 665 680 664
3 688 665 664
3 688 664 687
3 677 688 687
3 677 687 676
3 677 676 603
3 604 677 603
3 536 604 603
3 536 603 535
3 538 536 535
3 538 535 537
3 538 537 537
3 538 538 537
3 538 537 366
3 367 538 366
3 361 367 366
3 361 366 358
3 367 361 367
3 371 345 367
3 386 371 367
3 681 389 386
3 665 681 386
3 688 665 386
3 677 688 386
3 604 677 386
3 536 604 386
3 536 386 367
3 538 536 367
3 371 342 350
3 386 371 350
3 681 389 386
3 665 681 386
3 688 665 386
3 568 688 386
3 543 568 386
3 350 543 386
3 343 342 371
3 372 343 371
3 387 372 371
3 387 371 386
3 387 386 389
3 390 387 389
3 682 390 389
3 682 389 681
3 666 682 681
3 666 681 665
3 689 666 665
3 689 665 688
3 569 689 688
3 569 688 568
3 569 568 543
3 544 569 543
3 544 543 350
3 351 544 350
3 351 350 342
3 343 351 342
3 372 343 351
3 387 372 351
3 682 390 387
3 666 682 387
3 689 666 387
3 569 689 387
3 544 569 387
3 351 544 387
3 349 354 366
3 341 349 366
3 344 341 366
3 355 354 349
3 350 355 349
3 350 349 341
3 342 350 341
3 342 341 344
3 345 342 344
3 367 345 344
3 367 344 366
3 355 367 366
3 355 366 354
3 350 355 367
3 342 350 367
3 345 342 367
3 537 522 542
3 572 537 542
3 567 572 542
3 523 522 537
3 538 523 537
3 573 538 537
3 573 537 572
3 568 573 572
3 568 572 567
3 568 567 542
3 543 568 542
3 543 542 522
3 523 543 522
3 538 523 543
3 573 538 543
3 568 573 543
3 524 532 359
3 356 524 359
3 524 532 359
3 356 524 359
3 525 533 532
3 525 532 524
3 525 524 356
3 357 525 356
3 357 356 359
3 360 357 359
3 533 360 359
3 533 359 532
3 525 533 360
3 357 525 360
3 549 559 652
3 612 549 652
3 560 559 549
3 550 560 549
3 550 549 612
3 613 550 612
3 653 613 612
3 653 612 652
3 560 653 652
3 560 652 559
3 550 560 653
3 613 550 653
3 839 831 841
3 845 847 839
3 849 852 845
3 843 849 845
3 839 841 843
3 845 839 843
3 832 831 839
3 840 832 839
3 848 840 839
3 848 839 847
3 846 848 847
3 846 847 845
3 853 846 845
3 853 845 852
3 850 853 852
3 850 852 849
3 850 849 843
3 844 850 843
3 842 844 843
3 842 843 841
3 842 841 831
3 832 842 831
3 840 832 842
3 846 848 840
3 850 853 846
3 844 850 846
3 840 842 844
3 846 840 844
3 769 760 767
3 822 769 767
3 820 822 767
3 828 820 767
3 824 828 767
3 782 824 767
3 762 782 767
3 761 760 769
3 770 761 769
3 823 770 769
3 823 769 822
3 821 823 822
3 821 822 820
3 829 821 820
3 829 820 828
3 825 829 828
3 825 828 824
3 825 824 782
3 783 825 782
3 783 782 762
3 763 783 762
3 763 762 767
3 768 763 767
3 768 767 760
3 761 768 760
3 770 761 768
3 823 770 768
3 821 823 768
3 829 821 768
3 825 829 768
3 783 825 768
3 763 783 768
3 861 855 863
3 867 869 861
3 871 874 867
3 865 871 867
3 861 863 865
3 867 861 865
3 856 855 861
3 862 856 861
3 870 862 861
3 870 861 869
3 868 870 869
3 868 869 867
3 875 868 867
3 875 867 874
3 872 875 874
3 872 874 871
3 872 871 865
3 866 872 865
3 864 866 865
3 864 865 863
3 864 863 855
3 856 864 855
3 862 856 864
3 868 870 862
3 872 875 868
3 866 872 868
3 862 864 866
3 868 862 866
3 747 734 727
3 741 745 747
3 738 741 747
3 729 738 747
3 732 729 747
3 727 732 747
3 748 735 734
3 748 734 747
3 746 748 747
3 746 747 745
3 746 745 741
3 742 746 741
3 739 742 741
3 739 741 738
3 739 738 729
3 730 739 729
3 730 729 732
3 733 730 732
3 733 732 727
3 728 733 727
3 728 727 734
3 735 728 734
3 748 735 728
3 742 746 748
3 739 742 748
3 730 739 748
3 733 730 748
3 728 733 748
3 699 701 670
3 695 699 670
3 692 695 670
3 672 667 692
3 670 659 672
3 692 670 672
3 700 702 701
3 700 701 699
3 700 699 695
3 696 700 695
3 693 696 695
3 693 695 692
3 693 692 667
3 668 693 667
3 668 667 672
3 673 668 672
3 673 672 659
3 660 673 659
3 660 659 670
3 671 660 670
3 702 671 670
3 702 670 701
3 700 702 671
3 696 700 671
3 693 696 671
3 673 668 693
3 671 660 673
3 693 671 673
3 896 888 898
3 911 913 896
3 915 918 911
3 900 915 911
3 896 898 900
3 911 896 900
3 889 888 896
3 897 889 896
3 914 897 896
3 914 896 913
3 912 914 913
3 912 913 911
3 919 912 911
3 919 911 918
3 916 919 918
3 916 918 915
3 916 915 900
3 901 916 900
3 899 901 900
3 899 900 898
3 899 898 888
3 889 899 888
3 897 889 899
3 912 914 897
3 916 919 912
3 901 916 912
3 897 899 901
3 912 897 901
3 927 921 929
3 933 935 927
3 937 940 933
3 931 937 933
3 927 929 931
3 933 927 931
3 922 921 927
3 928 922 927
3 936 928 927
3 936 927 935
3 934 936 935
3 934 935 933
3 941 934 933
3 941 933 940
3 938 941 940
3 938 940 937
3 938 937 931
3 932 938 931
3 930 932 931
3 930 931 929
3 930 929 921
3 922 930 921
3 928 922 930
3 934 936 928
3 938 941 934
3 932 938 934
3 928 930 932
3 934 928 932
3 949 943 951
3 955 957 949
3 959 962 955
3 953 959 955
3 949 951 953
3 955 949 953
3 944 943 949
3 950 944 949
3 958 950 949
3 958 949 957
3 956 958 957
3 956 957 955
3 963 956 955
3 963 955 962
3 960 963 962
3 960 962 959
3 960 959 953
3 954 960 953
3 952 954 953
3 952 953 951
3 952 951 943
3 944 952 943
3 950 944 952
3 956 958 950
3 960 963 956
3 954 960 956
3 950 952 954
3 956 950 954
3 971 969 965
3 973 971 965
3 1015 973 965
3 1022 1015 965
3 1019 1022 965
3 1013 1019 965
3 979 1013 965
3 972 970 969
3 972 969 971
3 972 971 973
3 974 972 973
3 1016 974 973
3 1016 973 1015
3 1023 1016 1015
3 1023 1015 1022
3 1020 1023 1022
3 1020 1022 1019
3 1020 1019 1013
3 1014 1020 1013
3 980 1014 1013
3 980 1013 979
3 980 979 965
3 966 980 965
3 966 965 969
3 970 966 969
3 972 970 966
3 974 972 966
3 1016 974 966
3 1023 1016 966
3 1020 1023 966
3 1014 1020 966
3 980 1014 966
3 877 904 909
3 883 879 877
3 906 885 883
3 902 906 883
3 877 909 902
3 883 877 902
3 905 904 877
3 878 905 877
3 878 877 879
3 880 878 879
3 884 880 879
3 884 879 883
3 884 883 885
3 886 884 885
3 907 886 885
3 907 885 906
3 903 907 906
3 903 906 902
3 910 903 902
3 910 902 909
3 905 910 909
3 905 909 904
3 878 905 910
3 884 880 878
3 907 886 884
3 903 907 884
3 878 910 903
3 884 878 903
3 749 773 780
3 755 751 749
3 775 757 755
3 771 775 755
3 749 780 771
3 755 749 771
3 774 773 749
3 750 774 749
3 750 749 751
3 752 750 751
3 756 752 751
3 756 751 755
3 756 755 757
3 758 756 757
3 776 758 757
3 776 757 775
3 772 776 775
3 772 775 771
3 781 772 771
3 781 771 780
3 774 781 780
3 774 780 773
3 750 774 781
3 756 752 750
3 776 758 756
3 772 776 756
3 750 781 772
3 756 750 772
3 705 720 725
3 711 707 705
3 722 713 711
3 718 722 711
3 705 725 718
3 711 705 718
3 721 720 705
3 706 721 705
3 706 705 707
3 708 706 707
3 712 708 707
3 712 707 711
3 712 711 713
3 714 712 713
3 723 714 713
3 723 713 722
3 719 723 722
3 719 722 718
3 726 719 718
3 726 718 725
3 721 726 725
3 721 725 720
3 706 721 726
3 712 708 706
3 723 714 712
3 719 723 712
3 706 726 719
3 712 706 719
3 674 690 678
3 605 674 678
3 607 605 678
3 596 607 678
3 599 596 678
3 654 599 678
3 684 654 678
3 675 691 690
3 675 690 674
3 675 674 605
3 606 675 605
3 606 605 607
3 608 606 607
3 608 607 596
3 597 608 596
3 597 596 599
3 600 597 599
3 655 600 599
3 655 599 654
3 685 655 654
3 685 654 684
3 679 685 684
3 679 684 678
3 691 679 678
3 691 678 690
3 675 691 679
3 606 675 679
3 608 606 679
3 597 608 679
3 600 597 679
3 655 600 679
3 685 655 679
3 580 588 594
3 582 580 594
3 574 582 594
3 584 577 574
3 594 586 584
3 574 594 584
3 589 588 580
3 581 589 580
3 581 580 582
3 583 581 582
3 583 582 574
3 575 583 574
3 575 574 577
3 578 575 577
3 585 578 577
3 585 577 584
3 585 584 586
3 587 585 586
3 595 587 586
3 595 586 594
3 589 595 594
3 589 594 588
3 581 589 595
3 583 581 595
3 575 583 595
3 585 578 575
3 595 587 585
3 575 595 585
3 551 561 570
3 553 551 570
3 528 553 570
3 555 539 528
3 570 557 555
3 528 570 555
3 562 561 551
3 552 562 551
3 552 551 553
3 554 552 553
3 554 553 528
3 529 554 528
3 529 528 539
3 540 529 539
3 556 540 539
3 556 539 555
3 556 555 557
3 558 556 557
3 571 558 557
3 571 557 570
3 562 571 570
3 562 570 561
3 552 562 571
3 554 552 571
3 529 554 571
3 556 540 529
3 571 558 556
3 529 571 556
3 490 504 512
3 492 490 512
3 484 492 512
3 500 487 484
3 512 502 500
3 484 512 500
3 505 504 490
3 491 505 490
3 491 490 492
3 493 491 492
3 493 492 484
3 485 493 484
3 485 484 487
3 488 485 487
3 501 488 487
3 501 487 500
3 501 500 502
3 503 501 502
3 513 503 502
3 513 502 512
3 505 513 512
3 505 512 504
3 491 505 513
3 493 491 513
3 485 493 513
3 501 488 485
3 513 503 501
3 485 513 501
3 468 476 482
3 470 468 482
3 462 470 482
3 472 465 462
3 482 474 472
3 462 482 472
3 477 476 468
3 469 477 468
3 469 468 470
3 471 469 470
3 471 470 462
3 463 471 462
3 463 462 465
3 466 463 465
3 473 466 465
3 473 465 472
3 473 472 474
3 475 473 474
3 483 475 474
3 483 474 482
3 477 483 482
3 477 482 476
3 469 477 483
3 471 469 483
3 463 471 483
3 473 466 463
3 483 475 473
3 463 483 473
3 445 453 460
3 447 445 460
3 439 447 460
3 449 442 439
3 460 451 449
3 439 460 449
3 454 453 445
3 446 454 445
3 446 445 447
3 448 446 447
3 448 447 439
3 440 448 439
3 440 439 442
3 443 440 442
3 450 443 442
3 450 442 449
3 450 449 451
3 452 450 451
3 461 452 451
3 461 451 460
3 454 461 460
3 454 460 453
3 446 454 461
3 448 446 461
3 440 448 461
3 450 443 440
3 461 452 450
3 440 461 450
3 396 435 437
3 391 396 437
3 394 391 437
3 436 435 396
3 397 436 396
3 397 396 391
3 392 397 391
3 392 391 394
3 395 392 394
3 438 395 394
3 438 394 437
3 436 438 437
3 436 437 435
3 397 436 438
3 392 397 438
3 395 392 438
3 616 400 789
3 982 616 789
3 616 400 789
3 982 616 789
3 399 400 789
3 788 399 789
3 981 788 789
3 981 789 982
3 615 981 982
3 615 982 616
3 615 616 400
3 399 615 400
3 615 399 788
3 981 615 788
3 974 967 1020
3 1016 974 1020
3 1023 1016 1020
3 968 967 974
3 975 968 974
3 1017 975 974
3 1017 974 1016
3 1024 1017 1016
3 1024 1016 1023
3 1021 1024 1023
3 1021 1023 1020
3 1021 1020 967
3 968 1021 967
3 975 968 1021
3 1017 975 1021
3 1024 1017 1021
3 947 945 960
3 963 947 960
3 946 945 947
3 948 946 947
3 964 948 947
3 964 947 963
3 961 964 963
3 961 963 960
3 961 960 945
3 946 961 945
3 948 946 961
3 964 948 961
3 925 923 938
3 941 925 938
3 924 923 925
3 926 924 925
3 942 926 925
3 942 925 941
3 939 942 941
3 939 941 938
3 939 938 923
3 924 939 923
3 926 924 939
3 942 926 939
3 892 890 916
3 919 892 916
3 891 890 892
3 893 891 892
3 920 893 892
3 920 892 919
3 917 920 919
3 917 919 916
3 917 916 890
3 891 917 890
3 893 891 917
3 920 893 917
3 859 857 872
3 875 859 872
3 858 857 859
3 860 858 859
3 876 860 859
3 876 859 875
3 873 876 875
3 873 875 872
3 873 872 857
3 858 873 857
3 860 858 873
3 876 860 873
3 837 833 850
3 853 837 850
3 834 833 837
3 838 834 837
3 854 838 837
3 854 837 853
3 851 854 853
3 851 853 850
3 851 850 833
3 834 851 833
3 838 834 851
3 854 838 851
3 778 763 783
3 829 778 783
3 825 829 783
3 764 763 778
3 779 764 778
3 830 779 778
3 830 778 829
3 826 830 829
3 826 829 825
3 826 825 783
3 784 826 783
3 784 783 763
3 764 784 763
3 779 764 784
3 830 779 784
3 826 830 784
3 739 743 736
3 730 739 736
3 740 744 743
3 740 743 739
3 740 739 730
3 731 740 730
3 731 730 736
3 737 731 736
3 744 737 736
3 744 736 743
3 740 744 737
3 731 740 737
3 693 697 681
3 668 693 681
3 694 698 697
3 694 697 693
3 694 693 668
3 669 694 668
3 669 668 681
3 683 669 681
3 698 683 681
3 698 681 697
3 694 698 683
3 669 694 683
3 515 518 506
3 496 515 506
3 516 519 518
3 516 518 515
3 516 515 496
3 497 516 496
3 497 496 506
3 507 497 506
3 519 507 506
3 519 506 518
3 516 519 507
3 497 516 507
3 440 455 458
3 443 440 458
3 456 455 440
3 441 456 440
3 441 440 443
3 444 441 443
3 459 444 443
3 459 443 458
3 456 459 458
3 456 458 455
3 441 456 459
3 444 441 459
3 463 478 480
3 466 463 480
3 479 478 463
3 464 479 463
3 464 463 466
3 467 464 466
3 481 467 466
3 481 466 480
3 479 481 480
3 479 480 478
3 464 479 481
3 467 464 481
3 485 508 510
3 488 485 510
3 509 508 485
3 486 509 485
3 486 485 488
3 489 486 488
3 511 489 488
3 511 488 510
3 509 511 510
3 509 510 508
3 486 509 511
3 489 486 511
3 529 563 565
3 540 529 565
3 564 563 529
3 530 564 529
3 530 529 540
3 541 530 540
3 566 541 540
3 566 540 565
3 564 566 565
3 564 565 563
3 530 564 566
3 541 530 566
3 575 590 592
3 578 575 592
3 591 590 575
3 576 591 575
3 576 575 578
3 579 576 578
3 593 579 578
3 593 578 592
3 591 593 592
3 591 592 590
3 576 591 593
3 579 576 593
3 597 662 685
3 600 597 685
3 655 600 685
3 663 662 597
3 598 663 597
3 598 597 600
3 601 598 600
3 656 601 600
3 656 600 655
3 686 656 655
3 686 655 685
3 663 686 685
3 663 685 662
3 598 663 686
3 601 598 686
3 656 601 686
3 709 716 723
3 714 709 723
3 717 716 709
3 710 717 709
3 710 709 714
3 715 710 714
3 724 715 714
3 724 714 723
3 717 724 723
3 717 723 716
3 710 717 724
3 715 710 724
3 753 765 776
3 758 753 776
3 766 765 753
3 754 766 753
3 754 753 758
3 759 754 758
3 777 759 758
3 777 758 776
3 766 777 776
3 766 776 765
3 754 766 777
3 759 754 777
3 881 894 907
3 886 881 907
3 895 894 881
3 882 895 881
3 882 881 886
3 887 882 886
3 908 887 886
3 908 886 907
3 895 908 907
3 895 907 894
3 882 895 908
3 887 882 908
3 601 392 397
3 650 601 397
3 1017 650 397
3 1024 1017 397
3 826 1024 397
3 784 826 397
3 393 392 601
3 602 393 601
3 651 602 601
3 651 601 650
3 1018 651 650
3 1018 650 1017
3 1025 1018 1017
3 1025 1017 1024
3 827 1025 1024
3 827 1024 826
3 827 826 784
3 785 827 784
3 785 784 397
3 398 785 397
3 398 397 392
3 393 398 392
3 602 393 398
3 651 602 398
3 1018 651 398
3 1025 1018 398
3 827 1025 398
3 785 827 398
3 647 431 657
3 835 976 647
3 703 835 647
3 657 703 647
3 647 431 657
3 835 976 647
3 703 835 647
3 657 703 647
3 432 431 647
3 648 432 647
3 977 648 647
3 977 647 976
3 836 977 976
3 836 976 835
3 836 835 703
3 704 836 703
3 658 704 703
3 658 703 657
3 658 657 431
3 432 658 431
3 648 432 658
3 836 977 648
3 704 836 648
3 658 704 648
3 648 432 786
3 977 648 786
3 433 432 648
3 649 433 648
3 978 649 648
3 978 648 977
3 787 978 977
3 787 977 786
3 787 786 432
3 433 787 432
3 649 433 787
3 978 649 787
3 617 401 790
3 983 617 790
3 617 401 790
3 983 617 790
3 402 401 617
3 618 402 617
3 984 618 617
3 984 617 983
3 791 984 983
3 791 983 790
3 791 790 401
3 402 791 401
3 618 402 791
3 984 618 791
3 619 403 792
3 985 619 792
3 619 403 792
3 985 619 792
3 404 403 619
3 620 404 619
3 986 620 619
3 986 619 985
3 793 986 985
3 793 985 792
3 793 792 403
3 404 793 403
3 620 404 793
3 986 620 793
3 621 405 794
3 987 621 794
3 621 405 794
3 987 621 794
3 406 405 621
3 622 406 621
3 988 622 621
3 988 621 987
3 795 988 987
3 795 987 794
3 795 794 405
3 406 795 405
3 622 406 795
3 988 622 795
3 623 407 796
3 989 623 796
3 623 407 796
3 989 623 796
3 408 407 623
3 624 408 623
3 990 624 623
3 990 623 989
3 797 990 989
3 797 989 796
3 797 796 407
3 408 797 407
3 624 408 797
3 990 624 797
3 625 409 798
3 991 625 798
3 625 409 798
3 991 625 798
3 410 409 625
3 626 410 625
3 992 626 625
3 992 625 991
3 799 992 991
3 799 991 798
3 799 798 409
3 410 799 409
3 626 410 799
3 992 626 799
3 627 411 800
3 993 627 800
3 627 411 800
3 993 627 800
3 412 411 627
3 628 412 627
3 994 628 627
3 994 627 993
3 801 994 993
3 801 993 800
3 801 800 411
3 412 801 411
3 628 412 801
3 994 628 801
3 629 413 802
3 995 629 802
3 629 413 802
3 995 629 802
3 414 413 629
3 630 414 629
3 996 630 629
3 996 629 995
3 803 996 995
3 803 995 802
3 803 802 413
3 414 803 413
3 630 414 803
3 996 630 803
3 631 415 804
3 997 631 804
3 631 415 804
3 997 631 804
3 416 415 631
3 632 416 631
3 998 632 631
3 998 631 997
3 805 998 997
3 805 997 804
3 805 804 415
3 416 805 415
3 632 416 805
3 998 632 805
3 633 417 806
3 999 633 806
3 633 417 806
3 999 633 806
3 418 417 633
3 634 418 633
3 1000 634 633
3 1000 633 999
3 807 1000 999
3 807 999 806
3 807 806 417
3 418 807 417
3 634 418 807
3 1000 634 807
3 635 419 808
3 1001 635 808
3 635 419 808
3 1001 635 808
3 420 419 635
3 636 420 635
3 1002 636 635
3 1002 635 1001
3 809 1002 1001
3 809 1001 808
3 809 808 419
3 420 809 419
3 636 420 809
3 1002 636 809
3 637 421 810
3 1003 637 810
3 637 421 810
3 1003 637 810
3 422 421 637
3 638 422 637
3 1004 638 637
3 1004 637 1003
3 811 1004 1003
3 811 1003 810
3 811 810 421
3 422 811 421
3 638 422 811
3 1004 638 811
3 639 423 812
3 1005 639 812
3 639 423 812
3 1005 639 812
3 424 423 639
3 640 424 639
3 1006 640 639
3 1006 639 1005
3 813 1006 1005
3 813 1005 812
3 813 812 423
3 424 813 423
3 640 424 813
3 1006 640 813
3 641 425 814
3 1007 641 814
3 641 425 814
3 1007 641 814
3 426 425 641
3 642 426 641
3 1008 642 641
3 1008 641 1007
3 815 1008 1007
3 815 1007 814
3 815 814 425
3 426 815 425
3 642 426 815
3 1008 642 815
3 643 427 816
3 1009 643 816
3 643 427 816
3 1009 643 816
3 428 427 643
3 644 428 643
3 1010 644 643
3 1010 643 1009
3 817 1010 1009
3 817 1009 816
3 817 816 427
3 428 817 427
3 644 428 817
3 1010 644 817
3 645 429 818
3 1011 645 818
3 645 429 818
3 1011 645 818
3 430 429 645
3 646 430 645
3 1012 646 645
3 1012 645 1011
3 819 1012 1011
3 819 1011 818
3 819 818 429
3 430 819 429
3 646 430 819
3 1012 646 819
3 364 358 531
3 526 364 531
3 535 526 531
3 611 609 545
3 547 611 545
3 537 547 545
3 535 531 537
3 545 535 537
3 365 361 358
3 365 358 364
3 527 365 364
3 527 364 526
3 527 526 535
3 536 527 535
3 546 536 535
3 546 535 545
3 546 545 609
3 610 546 609
3 614 610 609
3 614 609 611
3 548 614 611
3 548 611 547
3 548 547 537
3 538 548 537
3 534 538 537
3 534 537 531
3 534 531 358
3 361 534 358
3 365 361 534
3 527 365 534
3 536 527 534
3 614 610 546
3 548 614 546
3 538 548 546
3 536 534 538
3 546 536 538
3 26 25 27
3 28 26 27
3 28 27 23
3 24 28 23
3 22 24 23
3 22 23 21
3 26 22 21
3 26 21 25
3 40 39 41
3 42 40 41
3 42 41 31
3 32 42 31
3 30 32 31
3 30 31 29
3 40 30 29
3 40 29 39
3 18 17 19
3 20 18 19
3 20 19 13
3 14 20 13
3 12 14 13
3 12 13 11
3 18 12 11
3 18 11 17
3 8 7 9
3 10 8 9
3 10 9 3
3 4 10 3
3 1 4 3
3 1 3 0
3 8 1 0
3 8 0 7
3 69 68 218
3 219 69 218
3 219 218 47
3 48 219 47
3 16 48 47
3 16 47 15
3 69 16 15
3 69 15 68
3 46 45 32
3 33 46 32
3 2 33 32
3 2 32 1
3 70 2 1
3 70 1 69
3 70 69 219
3 220 70 219
3 220 219 48
3 49 220 48
3 46 49 48
3 46 48 45
3 53 51 5
3 6 53 5
3 6 5 34
3 35 6 34
3 44 35 34
3 44 34 43
3 37 44 43
3 37 43 36
3 85 37 36
3 85 36 83
3 53 85 83
3 53 83 51
3 59 55 54
3 59 54 58
3 59 58 64
3 65 59 64
3 65 64 56
3 57 65 56
3 55 57 56
3 55 56 54
3 87 75 74
3 87 74 86
3 87 86 90
3 91 87 90
3 91 90 76
3 77 91 76
3 75 77 76
3 75 76 74
3 100 94 93
3 100 93 99
3 100 99 113
3 114 100 113
3 114 113 95
3 96 114 95
3 94 96 95
3 94 95 93
3 127 120 119
3 127 119 126
3 127 126 128
3 129 127 128
3 129 128 123
3 124 129 123
3 120 124 123
3 120 123 119
3 154 147 146
3 154 146 153
3 154 153 157
3 158 154 157
3 158 157 151
3 152 158 151
3 147 152 151
3 147 151 146
3 60 59 158
3 159 60 158
3 159 158 84
3 85 159 84
3 53 85 84
3 53 84 52
3 60 53 52
3 60 52 59
3 162 161 220
3 221 162 220
3 221 220 49
3 50 221 49
3 38 50 49
3 38 49 36
3 162 38 36
3 162 36 161
