OFF
487 779 0
0.000 70.409 0.000
0.000 70.409 9.144
0.000 70.409 10.668
2.290 69.210 0.000
2.290 69.210 9.144
13.811 46.732 10.670
13.822 45.848 10.670
13.874 48.814 10.670
13.940 43.769 10.670
13.940 49.695 10.670
14.028 42.890 10.670
14.185 51.764 10.670
14.327 40.828 10.670
14.327 52.636 10.670
14.492 39.960 10.670
14.752 54.675 10.670
14.969 37.932 10.670
14.969 55.532 10.670
15.209 37.082 10.670
15.570 57.526 10.670
15.861 35.103 10.670
15.861 58.361 10.670
16.174 34.277 10.670
16.633 60.295 10.670
16.996 32.363 10.670
16.997 61.101 10.670
17.380 31.567 10.670
17.934 62.961 10.670
18.366 29.732 10.670
18.366 63.732 10.670
18.817 28.972 10.670
19.463 65.503 10.670
19.959 27.230 10.670
19.960 66.233 10.670
20.475 26.513 10.670
21.207 67.902 10.670
21.765 24.877 10.670
21.766 68.586 10.670
22.062 0.000 0.000
22.062 0.000 9.144
22.062 0.000 10.668
22.342 24.207 10.670
23.153 70.140 10.670
23.259 2.290 0.000
23.259 2.290 9.144
23.769 22.690 10.670
23.770 70.773 10.670
24.402 22.073 10.670
24.952 46.732 32.010
25.039 44.739 32.010
25.039 48.724 32.010
25.287 72.200 10.670
25.299 42.762 32.010
25.299 50.701 32.010
25.731 40.815 32.010
25.731 52.648 32.010
25.812 46.731 32.010
25.812 46.731 32.385
25.812 46.731 32.760
25.812 46.731 33.135
25.812 46.731 33.510
25.872 45.104 32.010
25.872 45.104 33.510
25.872 48.359 32.010
25.872 48.359 33.510
25.896 44.814 32.010
25.896 44.814 33.510
25.896 48.649 32.010
25.896 48.649 33.510
25.956 20.686 10.670
25.957 72.777 10.670
26.071 43.367 32.010
26.071 43.367 33.510
26.071 50.096 32.010
26.071 50.096 33.510
26.146 42.911 32.010
26.146 42.911 33.510
26.146 50.552 32.010
26.146 50.552 33.510
26.330 38.913 32.010
26.331 54.550 32.010
26.436 41.527 32.010
26.436 41.527 33.510
26.437 51.936 32.010
26.437 51.936 33.510
26.561 41.038 32.010
26.561 41.038 33.510
26.562 52.425 32.010
26.562 52.425 33.510
26.640 20.127 10.670
27.001 39.597 32.010
27.001 39.597 33.510
27.001 53.866 32.010
27.001 53.866 33.510
27.094 37.071 32.010
27.094 56.392 32.010
27.139 39.207 32.010
27.139 39.207 33.510
27.139 54.255 32.010
27.139 54.255 33.510
27.593 74.066 10.670
27.797 37.598 32.010
27.797 37.598 33.510
27.798 55.865 32.010
27.798 55.865 33.510
27.873 37.434 32.010
27.873 37.434 33.510
27.873 56.028 32.010
27.873 56.028 33.510
28.014 35.302 32.010
28.015 58.161 32.010
28.309 18.880 10.670
28.310 74.582 10.670
28.759 35.732 32.010
28.759 35.732 33.510
28.760 57.731 32.010
28.760 57.731 33.510
28.858 35.563 32.010
28.858 35.563 33.510
28.858 57.900 32.010
28.858 57.900 33.510
29.039 18.383 10.670
29.086 33.620 32.010
29.086 59.843 32.010
29.790 34.113 32.010
29.790 34.113 33.510
29.791 59.349 32.010
29.791 59.349 33.510
30.052 75.724 10.670
30.212 33.532 32.010
30.212 33.532 33.510
30.212 59.931 32.010
30.212 59.931 33.510
30.300 32.038 32.010
30.300 61.425 32.010
30.811 17.286 10.670
30.812 76.176 10.670
30.959 32.591 32.010
30.959 32.591 33.510
30.959 60.872 32.010
30.959 60.872 33.510
31.582 16.855 10.670
31.647 30.568 32.010
31.648 62.895 32.010
31.881 31.560 32.010
31.881 31.560 33.510
31.881 61.903 32.010
31.881 61.903 33.510
32.255 31.176 32.010
32.255 31.176 33.510
32.256 62.287 32.010
32.256 62.287 33.510
32.647 77.162 10.670
33.117 29.220 32.010
33.118 64.242 32.010
33.442 15.917 10.670
33.443 77.545 10.670
33.670 29.879 32.010
33.670 29.879 33.510
33.671 63.583 32.010
33.671 63.583 33.510
33.875 29.709 32.010
33.875 29.709 33.510
33.876 63.753 32.010
33.876 63.753 33.510
34.247 15.554 10.670
34.700 28.006 32.010
34.700 65.456 32.010
35.193 28.711 32.010
35.193 28.711 33.510
35.194 64.751 32.010
35.194 64.751 33.510
35.357 78.367 10.670
36.182 14.782 10.670
36.183 78.680 10.670
36.189 28.053 32.010
36.189 28.053 33.510
36.190 65.409 32.010
36.190 65.409 33.510
36.381 26.935 32.010
36.382 66.527 32.010
36.811 27.679 32.010
36.811 27.679 33.510
36.812 65.783 32.010
36.812 65.783 33.510
37.016 14.490 10.670
38.150 26.014 32.010
38.151 67.448 32.010
38.162 79.332 10.670
38.514 26.793 32.010
38.514 26.793 33.510
38.515 66.669 32.010
38.515 66.669 33.510
38.797 26.664 32.010
38.797 26.664 33.510
38.798 66.798 32.010
38.798 66.798 33.510
39.011 13.889 10.670
39.012 79.572 10.670
39.867 13.672 10.670
39.993 25.251 32.010
39.994 68.211 32.010
40.287 26.059 32.010
40.287 26.059 33.510
40.288 67.403 32.010
40.288 67.403 33.510
41.040 80.049 10.670
41.651 25.612 32.010
41.651 25.612 33.510
41.652 67.850 32.010
41.652 67.850 33.510
41.895 24.651 32.010
41.896 68.811 32.010
41.907 13.247 10.670
41.908 80.214 10.670
42.117 25.481 32.010
42.117 25.481 33.510
42.118 67.980 32.010
42.118 67.980 33.510
42.779 13.105 10.670
43.842 24.219 32.010
43.843 69.242 32.010
43.970 80.513 10.670
43.991 25.066 32.010
43.991 25.066 33.510
43.992 68.395 32.010
43.992 68.395 33.510
44.684 24.955 32.010
44.684 24.955 33.510
44.685 68.506 32.010
44.685 68.506 33.510
44.848 12.860 10.670
44.849 80.601 10.670
45.729 12.795 10.670
45.819 23.959 32.010
45.820 69.502 32.010
45.894 24.815 32.010
45.894 24.815 33.510
45.895 68.646 32.010
45.895 68.646 33.510
46.929 80.719 10.670
47.811 12.731 10.670
47.811 23.872 32.010
47.811 24.732 32.010
47.811 24.732 33.510
47.812 68.729 32.010
47.812 68.729 33.510
47.812 69.589 32.010
47.812 80.730 10.670
48.695 12.742 10.670
49.729 24.815 32.010
49.729 24.815 33.510
49.730 68.646 32.010
49.730 68.646 33.510
49.804 23.958 32.010
49.805 69.502 32.010
49.895 80.666 10.670
50.774 12.860 10.670
50.776 80.601 10.670
50.938 24.955 32.010
50.938 24.955 33.510
50.939 68.506 32.010
50.939 68.506 33.510
51.631 25.066 32.010
51.631 25.066 33.510
51.632 68.395 32.010
51.632 68.395 33.510
51.654 12.948 10.670
51.781 24.219 32.010
51.782 69.242 32.010
52.844 80.356 10.670
53.505 25.481 32.010
53.505 25.481 33.510
53.506 67.980 32.010
53.506 67.980 33.510
53.715 13.247 10.670
53.717 80.214 10.670
53.728 24.650 32.010
53.729 68.810 32.010
53.971 25.611 32.010
53.971 25.611 33.510
53.972 67.849 32.010
53.972 67.849 33.510
54.583 13.412 10.670
55.336 26.058 32.010
55.336 26.058 33.510
55.336 67.402 32.010
55.336 67.402 33.510
55.630 25.250 32.010
55.631 68.210 32.010
55.756 79.789 10.670
56.611 13.889 10.670
56.613 79.571 10.670
56.826 26.663 32.010
56.826 26.663 33.510
56.827 66.797 32.010
56.827 66.797 33.510
57.109 26.792 32.010
57.109 26.792 33.510
57.110 66.668 32.010
57.110 66.668 33.510
57.462 14.128 10.670
57.472 26.013 32.010
57.473 67.447 32.010
58.607 78.971 10.670
58.811 27.678 32.010
58.811 27.678 33.510
58.812 65.782 32.010
58.812 65.782 33.510
59.241 26.934 32.010
59.242 66.526 32.010
59.434 28.052 32.010
59.434 28.052 33.510
59.435 65.408 32.010
59.435 65.408 33.510
59.440 14.780 10.670
59.441 78.679 10.670
60.267 15.093 10.670
60.430 28.709 32.010
60.430 28.709 33.510
60.431 64.750 32.010
60.431 64.750 33.510
60.923 28.005 32.010
60.924 65.455 32.010
61.376 77.907 10.670
61.748 29.708 32.010
61.748 29.708 33.510
61.749 63.752 32.010
61.749 63.752 33.510
61.953 29.878 32.010
61.953 29.878 33.510
61.953 63.582 32.010
61.953 63.582 33.510
62.181 15.915 10.670
62.182 77.544 10.670
62.505 29.219 32.010
62.506 64.241 32.010
62.977 16.299 10.670
63.368 31.174 32.010
63.368 31.174 33.510
63.368 62.285 32.010
63.368 62.285 33.510
63.742 31.558 32.010
63.742 31.558 33.510
63.743 61.901 32.010
63.743 61.901 33.510
63.976 30.566 32.010
63.976 62.893 32.010
64.042 76.606 10.670
64.664 32.589 32.010
64.664 32.589 33.510
64.665 60.870 32.010
64.665 60.870 33.510
64.812 17.285 10.670
64.813 76.174 10.670
65.323 32.036 32.010
65.324 61.423 32.010
65.411 33.530 32.010
65.411 33.530 33.510
65.412 59.929 32.010
65.412 59.929 33.510
65.571 17.737 10.670
65.833 34.112 32.010
65.833 34.112 33.510
65.833 59.348 32.010
65.833 59.348 33.510
66.537 33.618 32.010
66.538 59.841 32.010
66.584 75.078 10.670
66.765 35.561 32.010
66.765 35.561 33.510
66.766 57.898 32.010
66.766 57.898 33.510
66.864 35.730 32.010
66.864 35.730 33.510
66.864 57.729 32.010
66.864 57.729 33.510
67.313 18.878 10.670
67.315 74.581 10.670
67.609 35.300 32.010
67.609 58.159 32.010
67.750 37.432 32.010
67.750 37.432 33.510
67.750 56.027 32.010
67.750 56.027 33.510
67.826 37.596 32.010
67.826 37.596 33.510
67.826 55.863 32.010
67.826 55.863 33.510
68.031 19.395 10.670
68.485 39.205 32.010
68.485 39.205 33.510
68.485 54.254 32.010
68.485 54.254 33.510
68.529 37.069 32.010
68.530 56.390 32.010
68.622 39.595 32.010
68.622 39.595 33.510
68.622 53.864 32.010
68.622 53.864 33.510
68.984 73.334 10.670
69.062 41.036 32.010
69.062 41.036 33.510
69.062 52.423 32.010
69.062 52.423 33.510
69.187 41.525 32.010
69.187 41.525 33.510
69.187 51.934 32.010
69.187 51.934 33.510
69.293 38.911 32.010
69.293 54.548 32.010
69.477 42.909 32.010
69.477 42.909 33.510
69.477 50.550 32.010
69.477 50.550 33.510
69.553 43.365 32.010
69.553 43.365 33.510
69.553 50.094 32.010
69.553 50.094 33.510
69.667 20.684 10.670
69.668 72.775 10.670
69.728 44.812 32.010
69.728 44.812 33.510
69.728 48.647 32.010
69.728 48.647 33.510
69.751 45.102 32.010
69.751 45.102 33.510
69.751 48.357 32.010
69.751 48.357 33.510
69.811 46.729 32.010
69.811 46.729 33.510
69.892 40.813 32.010
69.893 52.646 32.010
70.324 42.760 32.010
70.324 50.699 32.010
70.336 21.261 10.670
70.584 44.737 32.010
70.585 48.722 32.010
70.671 46.729 32.010
71.222 71.388 10.670
71.854 22.688 10.670
71.855 70.771 10.670
72.166 91.102 0.000
72.166 91.102 9.144
72.470 23.321 10.670
73.282 69.253 10.670
73.363 93.393 0.000
73.363 93.393 9.144
73.363 93.393 10.668
73.858 24.875 10.670
73.859 68.584 10.670
74.417 25.559 10.670
75.148 66.948 10.670
75.664 27.228 10.670
75.664 66.231 10.670
76.161 27.958 10.670
76.806 64.489 10.670
77.257 29.729 10.670
77.258 63.729 10.670
77.689 30.500 10.670
78.244 61.894 10.670
78.627 32.360 10.670
78.628 61.098 10.670
78.990 33.166 10.670
79.450 59.184 10.670
79.762 35.100 10.670
79.763 58.358 10.670
80.054 35.935 10.670
80.415 56.379 10.670
80.654 37.929 10.670
80.655 55.529 10.670
80.872 38.786 10.670
81.132 53.501 10.670
81.296 40.825 10.670
81.296 52.633 10.670
81.438 41.697 10.670
81.595 50.571 10.670
81.683 43.766 10.670
81.684 49.692 10.670
81.749 44.647 10.670
81.801 47.612 10.670
81.813 46.729 10.670
93.135 24.181 0.000
93.135 24.181 9.144
95.425 22.984 0.000
95.425 22.984 9.144
95.425 22.984 10.668
3 3 442 482
3 43 3 482
3 464 468 472
3 460 464 472
3 456 460 472
3 452 456 472
3 445 452 472
3 439 445 472
3 400 439 472
3 368 400 472
3 348 368 472
3 324 348 472
3 304 324 472
3 290 304 472
3 270 290 472
3 256 270 472
3 240 256 472
3 222 240 472
3 206 222 472
3 188 206 472
3 172 188 472
3 152 172 472
3 128 152 472
3 100 128 472
3 51 100 472
3 42 51 472
3 35 42 472
3 31 35 472
3 27 31 472
3 23 27 472
3 19 23 472
3 15 19 472
3 11 15 472
3 7 11 472
3 6 7 472
3 10 6 472
3 14 10 472
3 18 14 472
3 22 18 472
3 26 22 472
3 30 26 472
3 34 30 472
3 41 34 472
3 47 41 472
3 89 47 472
3 121 89 472
3 141 121 472
3 165 141 472
3 185 165 472
3 199 185 472
3 219 199 472
3 233 219 472
3 249 233 472
3 267 249 472
3 283 267 472
3 301 283 472
3 317 301 472
3 337 317 472
3 361 337 472
3 389 361 472
3 435 389 472
3 444 435 472
3 451 444 472
3 455 451 472
3 459 455 472
3 463 459 472
3 467 463 472
3 471 467 472
3 475 471 472
3 479 475 472
3 480 479 472
3 476 480 472
3 1 447 485
3 39 1 485
3 437 438 436
3 434 437 436
3 432 434 436
3 410 432 436
3 395 410 436
3 380 395 436
3 367 380 436
3 356 367 436
3 347 356 436
3 336 347 436
3 323 336 436
3 310 323 436
3 303 310 436
3 289 303 436
3 278 289 436
3 269 278 436
3 255 269 436
3 247 255 436
3 235 247 436
3 221 235 436
3 212 221 436
3 201 212 436
3 187 201 436
3 180 187 436
3 167 180 436
3 154 167 436
3 143 154 436
3 134 143 436
3 123 134 436
3 110 123 436
3 95 110 436
3 80 95 436
3 55 80 436
3 53 55 436
3 50 53 436
3 48 50 436
3 49 48 436
3 52 49 436
3 54 52 436
3 79 54 436
3 94 79 436
3 109 94 436
3 122 109 436
3 133 122 436
3 142 133 436
3 153 142 436
3 166 153 436
3 179 166 436
3 186 179 436
3 200 186 436
3 211 200 436
3 220 211 436
3 234 220 436
3 242 234 436
3 254 242 436
3 268 254 436
3 277 268 436
3 288 277 436
3 302 288 436
3 309 302 436
3 322 309 436
3 335 322 436
3 346 335 436
3 355 346 436
3 366 355 436
3 379 366 436
3 394 379 436
3 409 394 436
3 431 409 436
3 433 431 436
3 478 481 477
3 474 478 477
3 470 474 477
3 466 470 477
3 462 466 477
3 458 462 477
3 454 458 477
3 450 454 477
3 441 450 477
3 420 441 477
3 378 420 477
3 354 378 477
3 334 354 477
3 316 334 477
3 292 316 477
3 276 292 477
3 258 276 477
3 248 258 477
3 232 248 477
3 214 232 477
3 198 214 477
3 174 198 477
3 156 174 477
3 136 156 477
3 112 136 477
3 70 112 477
3 46 70 477
3 37 46 477
3 33 37 477
3 29 33 477
3 25 29 477
3 21 25 477
3 17 21 477
3 13 17 477
3 9 13 477
3 5 9 477
3 8 5 477
3 12 8 477
3 16 12 477
3 20 16 477
3 24 20 477
3 28 24 477
3 32 28 477
3 36 32 477
3 45 36 477
3 69 45 477
3 111 69 477
3 135 111 477
3 155 135 477
3 173 155 477
3 197 173 477
3 213 197 477
3 231 213 477
3 241 231 477
3 257 241 477
3 275 257 477
3 291 275 477
3 315 291 477
3 333 315 477
3 353 333 477
3 377 353 477
3 419 377 477
3 440 419 477
3 449 440 477
3 453 449 477
3 457 453 477
3 461 457 477
3 465 461 477
3 469 465 477
3 473 469 477
3 437 438 436
3 434 437 436
3 432 434 436
3 410 432 436
3 395 410 436
3 380 395 436
3 367 380 436
3 356 367 436
3 347 356 436
3 336 347 436
3 323 336 436
3 310 323 436
3 303 310 436
3 289 303 436
3 278 289 436
3 269 278 436
3 255 269 436
3 247 255 436
3 235 247 436
3 221 235 436
3 212 221 436
3 201 212 436
3 187 201 436
3 180 187 436
3 167 180 436
3 154 167 436
3 143 154 436
3 134 143 436
3 123 134 436
3 110 123 436
3 95 110 436
3 80 95 436
3 55 80 436
3 53 55 436
3 50 53 436
3 48 50 436
3 49 48 436
3 52 49 436
3 54 52 436
3 79 54 436
3 94 79 436
3 109 94 436
3 122 109 436
3 133 122 436
3 142 133 436
3 153 142 436
3 166 153 436
3 179 166 436
3 186 179 436
3 200 186 436
3 211 200 436
3 220 211 436
3 234 220 436
3 242 234 436
3 254 242 436
3 268 254 436
3 277 268 436
3 288 277 436
3 302 288 436
3 309 302 436
3 322 309 436
3 335 322 436
3 346 335 436
3 355 346 436
3 366 355 436
3 379 366 436
3 394 379 436
3 409 394 436
3 431 409 436
3 433 431 436
3 481 438 437
3 478 481 437
3 478 437 434
3 474 478 434
3 474 434 432
3 470 474 432
3 470 432 410
3 466 470 410
3 466 410 395
3 462 466 395
3 462 395 380
3 458 462 380
3 458 380 367
3 454 458 367
3 454 367 356
3 450 454 356
3 450 356 347
3 441 450 347
3 336 441 347
3 336 420 441
3 323 420 336
3 323 378 420
3 310 378 323
3 310 354 378
3 303 354 310
3 303 334 354
3 289 334 303
3 289 316 334
3 278 316 289
3 278 292 316
3 269 292 278
3 269 276 292
3 255 276 269
3 255 258 276
3 247 258 255
3 247 248 258
3 235 248 247
3 235 232 248
3 221 232 235
3 221 214 232
3 212 214 221
3 212 198 214
3 201 198 212
3 201 174 198
3 187 174 201
3 187 156 174
3 180 156 187
3 180 136 156
3 167 136 180
3 167 112 136
3 154 112 167
3 154 70 112
3 143 70 154
3 143 46 70
3 134 46 143
3 134 37 46
3 123 37 134
3 123 33 37
3 110 33 123
3 110 29 33
3 95 29 110
3 95 25 29
3 80 25 95
3 80 21 25
3 55 21 80
3 55 17 21
3 53 17 55
3 53 13 17
3 50 13 53
3 50 9 13
3 48 9 50
3 48 5 9
3 49 5 48
3 49 8 5
3 52 8 49
3 52 12 8
3 54 12 52
3 54 16 12
3 79 16 54
3 79 20 16
3 94 20 79
3 94 24 20
3 109 24 94
3 109 28 24
3 122 28 109
3 122 32 28
3 133 32 122
3 133 36 32
3 142 36 133
3 142 45 36
3 45 142 153
3 69 45 153
3 69 153 166
3 111 69 166
3 111 166 179
3 135 111 179
3 135 179 186
3 155 135 186
3 155 186 200
3 173 155 200
3 173 200 211
3 197 173 211
3 197 211 220
3 213 197 220
3 213 220 234
3 231 213 234
3 231 234 242
3 241 231 242
3 241 242 254
3 257 241 254
3 257 254 268
3 275 257 268
3 275 268 277
3 291 275 277
3 291 277 288
3 315 291 288
3 315 288 302
3 333 315 302
3 333 302 309
3 353 333 309
3 353 309 322
3 377 353 322
3 377 322 335
3 419 377 335
3 419 335 346
3 440 419 346
3 440 346 355
3 449 440 355
3 449 355 366
3 453 449 366
3 453 366 379
3 457 453 379
3 457 379 394
3 461 457 394
3 461 394 409
3 465 461 409
3 465 409 431
3 469 465 431
3 469 431 433
3 473 469 433
3 473 433 436
3 477 473 436
3 477 436 438
3 481 477 438
3 423 429 421
3 413 423 421
3 403 413 421
3 392 403 421
3 383 392 421
3 375 383 421
3 364 375 421
3 351 364 421
3 340 351 421
3 331 340 421
3 320 331 421
3 307 320 421
3 299 307 421
3 286 299 421
3 273 286 421
3 265 273 421
3 252 265 421
3 245 252 421
3 238 245 421
3 225 238 421
3 217 225 421
3 204 217 421
3 191 204 421
3 183 191 421
3 170 183 421
3 159 170 421
3 150 159 421
3 139 150 421
3 126 139 421
3 115 126 421
3 107 115 421
3 98 107 421
3 87 98 421
3 77 87 421
3 67 77 421
3 56 67 421
3 65 56 421
3 75 65 421
3 85 75 421
3 96 85 421
3 105 96 421
3 113 105 421
3 124 113 421
3 137 124 421
3 148 137 421
3 157 148 421
3 168 157 421
3 181 168 421
3 189 181 421
3 202 189 421
3 215 202 421
3 223 215 421
3 236 223 421
3 243 236 421
3 250 243 421
3 263 250 421
3 271 263 421
3 284 271 421
3 297 284 421
3 305 297 421
3 318 305 421
3 329 318 421
3 338 329 421
3 349 338 421
3 362 349 421
3 373 362 421
3 381 373 421
3 390 381 421
3 401 390 421
3 411 401 421
3 0 446 484
3 38 0 484
3 443 483 482
3 443 482 442
3 483 44 43
3 483 43 482
3 4 3 43
3 44 4 43
3 443 442 3
3 4 443 3
3 443 483 44
3 4 443 44
3 3 442 482
3 43 3 482
3 448 486 485
3 448 485 447
3 486 40 39
3 486 39 485
3 2 1 39
3 40 2 39
3 448 447 1
3 2 448 1
3 448 486 40
3 2 448 40
3 1 447 485
3 39 1 485
3 424 430 422
3 414 424 422
3 404 414 422
3 393 404 422
3 384 393 422
3 376 384 422
3 365 376 422
3 352 365 422
3 341 352 422
3 332 341 422
3 321 332 422
3 308 321 422
3 300 308 422
3 287 300 422
3 274 287 422
3 266 274 422
3 253 266 422
3 246 253 422
3 239 246 422
3 226 239 422
3 218 226 422
3 205 218 422
3 192 205 422
3 184 192 422
3 171 184 422
3 160 171 422
3 151 160 422
3 140 151 422
3 127 140 422
3 116 127 422
3 108 116 422
3 99 108 422
3 88 99 422
3 78 88 422
3 68 78 422
3 60 68 422
3 66 60 422
3 76 66 422
3 86 76 422
3 97 86 422
3 106 97 422
3 114 106 422
3 125 114 422
3 138 125 422
3 149 138 422
3 158 149 422
3 169 158 422
3 182 169 422
3 190 182 422
3 203 190 422
3 216 203 422
3 224 216 422
3 237 224 422
3 244 237 422
3 251 244 422
3 264 251 422
3 272 264 422
3 285 272 422
3 298 285 422
3 306 298 422
3 319 306 422
3 330 319 422
3 339 330 422
3 350 339 422
3 363 350 422
3 374 363 422
3 382 374 422
3 391 382 422
3 402 391 422
3 412 402 422
3 423 429 421
3 413 423 421
3 403 413 421
3 392 403 421
3 383 392 421
3 375 383 421
3 364 375 421
3 351 364 421
3 340 351 421
3 331 340 421
3 320 331 421
3 307 320 421
3 299 307 421
3 286 299 421
3 273 286 421
3 265 273 421
3 252 265 421
3 245 252 421
3 238 245 421
3 225 238 421
3 217 225 421
3 204 217 421
3 191 204 421
3 183 191 421
3 170 183 421
3 159 170 421
3 150 159 421
3 139 150 421
3 126 139 421
3 115 126 421
3 107 115 421
3 98 107 421
3 87 98 421
3 77 87 421
3 67 77 421
3 56 67 421
3 65 56 421
3 75 65 421
3 85 75 421
3 96 85 421
3 105 96 421
3 113 105 421
3 124 113 421
3 137 124 421
3 148 137 421
3 157 148 421
3 168 157 421
3 181 168 421
3 189 181 421
3 202 189 421
3 215 202 421
3 223 215 421
3 236 223 421
3 243 236 421
3 250 243 421
3 263 250 421
3 271 263 421
3 284 271 421
3 297 284 421
3 305 297 421
3 318 305 421
3 329 318 421
3 338 329 421
3 349 338 421
3 362 349 421
3 373 362 421
3 381 373 421
3 390 381 421
3 401 390 421
3 411 401 421
3 429 428 430
3 429 427 428
3 427 418 428
3 427 417 418
3 417 408 418
3 417 407 408
3 407 399 408
3 407 398 399
3 398 388 399
3 398 387 388
3 387 372 388
3 387 371 372
3 371 360 372
3 371 359 360
3 359 345 360
3 359 344 345
3 328 345 344
3 327 328 344
3 314 328 327
3 313 314 327
3 296 314 313
3 295 313 296
3 282 295 296
3 281 282 295
3 262 282 281
3 261 262 281
3 246 262 261
3 245 246 261
3 230 245 246
3 229 245 230
3 210 229 230
3 209 229 210
3 196 209 210
3 195 209 196
3 178 195 196
3 177 195 178
3 164 177 178
3 163 177 164
3 147 163 164
3 146 163 147
3 132 146 147
3 131 146 132
3 120 131 132
3 119 120 131
3 104 120 119
3 103 119 104
3 93 103 104
3 92 103 93
3 84 92 93
3 83 84 92
3 74 84 83
3 73 83 74
3 64 73 74
3 63 73 64
3 58 63 64
3 57 63 58
3 64 58 59
3 60 59 64
3 56 57 63
3 62 56 60
3 61 56 62
3 72 61 62
3 71 61 72
3 82 71 72
3 81 71 82
3 91 81 82
3 90 81 91
3 102 90 91
3 101 90 102
3 118 101 102
3 117 101 118
3 130 117 118
3 129 117 130
3 145 129 130
3 144 129 145
3 144 145 162
3 144 162 161
3 161 162 176
3 161 176 175
3 175 176 194
3 175 194 193
3 193 194 208
3 193 208 207
3 207 208 228
3 207 228 227
3 227 228 244
3 227 243 244
3 243 244 260
3 243 259 260
3 259 260 280
3 259 279 280
3 279 280 294
3 279 293 294
3 293 294 312
3 293 311 312
3 311 312 326
3 311 325 326
3 325 326 343
3 325 342 343
3 342 343 358
3 342 357 358
3 357 358 370
3 357 369 370
3 369 370 386
3 369 385 386
3 385 386 397
3 385 396 397
3 396 397 406
3 396 405 406
3 405 406 416
3 405 415 416
3 415 416 426
3 415 425 426
3 425 426 430
3 425 429 430
