OFF
723 1581 0
0.000 49.209 0.000
0.000 49.209 14.720
0.000 49.209 34.440
3.423 46.887 34.440
3.423 46.887 38.700
8.406 43.924 38.700
8.406 43.924 42.960
8.406 43.924 94.160
9.589 48.742 38.700
9.589 48.742 42.960
9.589 48.742 94.160
9.589 48.742 101.470
10.820 44.651 38.700
10.820 44.651 42.960
10.820 44.651 94.160
11.147 48.116 101.470
11.147 48.116 105.120
11.147 48.116 116.090
11.198 44.476 101.470
11.198 44.476 105.120
11.232 20.919 34.440
11.232 20.919 38.700
11.433 42.614 94.160
11.433 42.614 101.470
12.155 44.764 101.470
12.155 44.764 105.120
12.208 42.847 94.160
12.208 42.847 101.470
12.536 43.499 105.120
12.536 43.499 116.090
12.916 47.165 116.090
12.916 47.165 125.234
13.111 53.152 0.000
13.111 53.152 14.720
13.111 53.152 34.440
13.273 50.806 34.440
13.273 50.806 38.700
13.283 52.578 14.720
13.283 52.578 34.440
13.399 52.195 0.000
13.399 52.195 14.720
13.537 49.930 34.440
13.537 49.930 38.700
13.584 26.707 38.700
13.584 26.707 42.960
13.584 26.707 94.160
13.896 43.909 105.120
13.896 43.909 116.090
14.197 50.129 101.470
14.197 50.129 105.120
14.500 49.124 101.470
14.500 49.124 105.120
14.684 46.215 125.230
14.684 46.215 130.710
15.083 0.000 0.000
15.083 0.000 14.720
15.083 0.000 34.440
15.222 45.926 130.710
15.222 45.926 138.630
15.318 44.108 125.230
15.318 44.108 130.710
15.557 28.901 94.160
15.557 28.901 101.470
15.564 50.541 38.700
15.564 50.541 42.960
15.564 50.541 94.160
15.564 50.541 101.470
15.708 50.062 38.700
15.708 50.062 42.960
15.731 44.233 130.710
15.731 44.233 138.630
15.764 49.504 105.120
15.764 49.504 116.090
15.798 49.765 42.960
15.798 49.765 94.160
15.798 49.765 101.470
15.969 45.525 138.630
15.999 27.433 38.700
15.999 27.433 42.960
15.999 27.433 94.160
16.047 44.327 125.230
16.047 44.327 130.710
16.047 44.327 138.630
16.173 48.144 105.120
16.173 48.144 116.090
16.333 29.134 94.160
16.333 29.134 101.470
16.387 27.219 101.470
16.387 27.219 105.120
16.517 40.117 125.230
16.517 40.117 130.710
16.791 46.849 125.230
16.791 46.849 130.710
16.866 38.958 125.230
16.866 38.958 130.710
16.915 46.436 130.710
16.915 46.436 138.630
16.931 40.241 130.710
16.931 40.241 138.630
16.964 28.772 105.120
16.964 28.772 116.090
17.010 46.120 125.230
17.010 46.120 130.710
17.010 46.120 138.630
17.247 40.336 125.230
17.247 40.336 130.710
17.247 40.336 138.630
17.280 39.082 130.710
17.280 39.082 138.630
17.345 27.507 101.470
17.345 27.507 105.120
17.401 22.773 38.700
17.401 22.773 42.960
17.401 22.773 94.160
17.401 22.773 101.470
17.527 53.436 0.000
17.527 53.436 14.720
17.596 39.177 125.230
17.596 39.177 130.710
17.596 39.177 138.630
18.071 34.948 125.230
18.071 34.948 130.710
18.326 29.181 105.120
18.326 29.181 116.090
18.352 24.156 101.470
18.352 24.156 105.120
18.352 24.156 116.090
18.420 33.789 125.230
18.420 33.789 130.710
18.485 35.073 130.710
18.485 35.073 138.630
18.801 35.168 125.230
18.801 35.168 130.710
18.801 35.168 138.630
18.834 33.914 130.710
18.834 33.914 138.630
19.021 52.622 11.549
19.032 52.625 0.000
19.032 52.625 10.390
19.032 52.625 14.720
19.103 52.646 11.962
19.150 34.009 125.230
19.150 34.009 130.710
19.150 34.009 138.630
19.178 52.669 12.220
19.270 52.697 12.469
19.304 25.927 116.090
19.304 25.927 125.234
19.309 51.664 11.549
19.320 51.668 0.000
19.320 51.668 10.390
19.320 51.668 14.720
19.391 51.689 11.962
19.452 52.752 12.850
19.466 51.712 12.220
19.558 51.739 12.469
19.601 52.796 13.098
19.620 29.798 125.230
19.620 29.798 130.710
19.740 51.794 12.850
19.795 52.854 13.368
19.889 51.838 13.098
20.004 52.917 13.610
20.033 1.802 0.000
20.033 1.802 14.720
20.033 1.802 34.440
20.034 29.922 130.710
20.034 29.922 138.630
20.083 51.897 13.368
20.121 1.515 0.000
20.121 1.515 14.720
20.121 1.515 34.440
20.185 52.972 13.790
20.253 27.691 125.230
20.253 27.691 130.710
20.292 51.960 13.610
20.349 30.017 125.230
20.349 30.017 130.710
20.349 30.017 138.630
20.426 53.044 13.993
20.473 52.014 13.790
20.542 28.229 130.710
20.542 28.229 138.630
20.664 53.116 14.162
20.714 52.087 13.993
20.782 48.050 125.230
20.782 48.050 130.710
20.907 47.636 130.710
20.907 47.636 138.630
20.944 28.977 138.630
20.949 53.202 14.328
20.952 52.158 14.162
21.002 47.320 125.230
21.002 47.320 130.710
21.002 47.320 138.630
21.173 53.269 14.435
21.237 52.244 14.328
21.461 52.311 14.435
21.501 53.368 14.558
21.621 20.231 34.440
21.621 20.231 41.140
21.705 25.164 101.470
21.705 25.164 105.120
21.789 52.410 14.558
21.868 53.478 14.653
21.942 48.396 125.230
21.942 48.396 130.710
22.007 24.158 101.470
22.007 24.158 105.120
22.065 47.985 130.710
22.065 47.985 138.630
22.141 29.054 125.230
22.141 29.054 130.710
22.141 29.054 138.630
22.157 52.521 14.653
22.161 47.668 125.230
22.161 47.668 130.710
22.161 47.668 138.630
22.195 53.577 14.702
22.236 28.739 130.710
22.236 28.739 138.630
22.360 28.325 125.230
22.360 28.325 130.710
22.466 24.297 34.440
22.466 24.297 38.700
22.483 52.619 14.702
22.533 53.678 14.720
22.545 53.682 14.720
22.607 26.920 105.120
22.607 26.920 116.090
22.821 52.721 14.720
22.931 53.798 14.698
23.017 25.558 105.120
23.017 25.558 116.090
23.143 25.346 42.960
23.143 25.346 94.160
23.143 25.346 101.470
23.207 52.837 14.698
23.212 53.883 14.655
23.376 24.570 42.960
23.376 24.570 94.160
23.376 24.570 101.470
23.487 52.921 14.655
23.489 53.966 14.588
23.517 20.802 34.440
23.517 20.802 38.700
23.517 20.802 41.140
23.765 53.005 14.588
23.785 54.055 14.489
24.016 54.124 14.390
24.060 53.093 14.489
24.140 41.132 141.310
24.286 54.206 14.248
24.292 53.163 14.390
24.436 54.251 14.156
24.562 53.244 14.248
24.665 54.319 13.993
24.711 53.289 14.156
24.853 39.739 141.310
24.853 39.739 142.980
24.860 39.576 141.310
24.860 39.576 142.980
24.860 39.903 141.310
24.860 39.903 142.980
24.866 9.439 34.440
24.866 9.439 41.140
24.881 39.413 141.310
24.881 39.413 142.980
24.881 40.066 141.310
24.881 40.066 142.980
24.884 54.385 13.809
24.917 39.253 141.310
24.917 39.253 142.980
24.917 40.226 141.310
24.917 40.226 142.980
24.941 53.358 13.993
24.966 39.097 141.310
24.966 39.097 142.980
24.966 40.382 141.310
24.966 40.382 142.980
25.028 38.945 141.310
25.028 38.945 142.980
25.029 40.533 141.310
25.029 40.533 142.980
25.104 38.800 141.310
25.104 38.800 142.980
25.104 40.679 141.310
25.104 40.679 142.980
25.135 54.461 13.558
25.160 53.424 13.809
25.192 38.662 141.310
25.192 38.662 142.980
25.192 40.817 141.310
25.192 40.817 142.980
25.292 38.532 141.310
25.292 38.532 142.980
25.292 40.947 141.310
25.292 40.947 142.980
25.298 54.510 13.364
25.338 37.148 141.310
25.403 38.411 141.310
25.403 38.411 142.980
25.403 41.068 141.310
25.403 41.068 142.980
25.410 53.499 13.558
25.468 54.561 13.132
25.524 38.300 141.310
25.524 38.300 142.980
25.524 41.179 141.310
25.524 41.179 142.980
25.574 53.549 13.364
25.630 54.610 12.866
25.654 38.200 141.310
25.654 38.200 142.980
25.654 41.279 141.310
25.654 41.279 142.980
25.743 53.599 13.132
25.758 54.648 12.612
25.792 38.112 141.310
25.792 38.112 142.980
25.792 41.367 141.310
25.792 41.367 142.980
25.889 54.688 12.288
25.905 53.648 12.866
25.937 38.036 141.310
25.937 38.036 142.980
25.938 41.442 141.310
25.938 41.442 142.980
25.951 49.606 125.230
25.951 49.606 130.710
26.002 54.722 11.903
26.033 53.687 12.612
26.046 54.735 0.000
26.046 54.735 14.720
26.058 54.739 10.390
26.076 49.191 130.710
26.076 49.191 138.630
26.079 54.745 11.474
26.089 37.974 141.310
26.089 37.974 142.980
26.089 41.505 141.310
26.089 41.505 142.980
26.133 30.255 125.230
26.133 30.255 130.710
26.133 30.255 138.630
26.164 53.726 12.288
26.171 48.875 125.230
26.171 48.875 130.710
26.171 48.875 138.630
26.228 29.939 130.710
26.228 29.939 138.630
26.245 37.924 141.310
26.245 37.924 142.980
26.245 41.554 141.310
26.245 41.554 142.980
26.278 53.760 11.903
26.321 53.773 0.000
26.321 53.773 14.720
26.334 53.777 10.390
26.352 29.525 125.230
26.352 29.525 130.710
26.355 53.783 11.474
26.405 37.889 141.310
26.405 37.889 142.980
26.405 41.590 141.310
26.405 41.590 142.980
26.568 37.868 141.310
26.568 37.868 142.980
26.568 41.611 141.310
26.568 41.611 142.980
26.732 37.860 141.310
26.732 37.860 142.980
26.732 41.618 141.310
26.732 41.618 142.980
26.854 56.241 0.000
26.854 56.241 14.720
26.895 37.868 141.310
26.895 37.868 142.980
26.896 41.611 141.310
26.896 41.611 142.980
27.058 37.889 141.310
27.058 37.889 142.980
27.058 41.590 141.310
27.058 41.590 142.980
27.110 49.955 125.230
27.110 49.955 130.710
27.178 3.950 0.000
27.178 3.950 14.720
27.178 3.950 34.440
27.218 37.925 141.310
27.218 37.925 142.980
27.218 41.554 141.310
27.218 41.554 142.980
27.235 49.540 130.710
27.235 49.540 138.630
27.266 3.663 0.000
27.266 3.663 14.720
27.266 3.663 34.440
27.292 30.604 125.230
27.292 30.604 130.710
27.292 30.604 138.630
27.330 49.224 125.230
27.330 49.224 130.710
27.330 49.224 138.630
27.374 37.974 141.310
27.374 37.974 142.980
27.374 41.505 141.310
27.374 41.505 142.980
27.387 30.288 130.710
27.387 30.288 138.630
27.511 29.874 125.230
27.511 29.874 130.710
27.526 38.037 141.310
27.526 38.037 142.980
27.526 41.442 141.310
27.526 41.442 142.980
27.671 38.112 141.310
27.671 38.112 142.980
27.671 41.367 141.310
27.671 41.367 142.980
27.809 38.200 141.310
27.809 38.200 142.980
27.810 41.279 141.310
27.810 41.279 142.980
27.939 38.300 141.310
27.939 38.300 142.980
27.940 41.179 141.310
27.940 41.179 142.980
28.060 38.411 141.310
28.060 38.411 142.980
28.061 41.068 141.310
28.061 41.068 142.980
28.125 42.331 141.310
28.171 38.532 141.310
28.171 38.532 142.980
28.171 40.947 141.310
28.171 40.947 142.980
28.271 38.662 141.310
28.271 38.662 142.980
28.271 40.817 141.310
28.271 40.817 142.980
28.359 38.800 141.310
28.359 38.800 142.980
28.359 40.679 141.310
28.359 40.679 142.980
28.435 38.945 141.310
28.435 38.945 142.980
28.435 40.534 141.310
28.435 40.534 142.980
28.497 39.097 141.310
28.497 39.097 142.980
28.498 40.382 141.310
28.498 40.382 142.980
28.547 39.253 141.310
28.547 39.253 142.980
28.547 40.226 141.310
28.547 40.226 142.980
28.582 39.413 141.310
28.582 39.413 142.980
28.582 40.066 141.310
28.582 40.066 142.980
28.604 39.576 141.310
28.604 39.576 142.980
28.604 39.903 141.310
28.604 39.903 142.980
28.611 39.739 141.310
28.611 39.739 142.980
29.323 38.347 141.310
30.169 54.935 38.700
30.169 54.935 42.960
30.169 54.935 94.160
30.169 54.935 101.470
30.313 54.457 38.700
30.313 54.457 42.960
30.402 54.160 42.960
30.402 54.160 94.160
30.402 54.160 101.470
30.494 53.934 105.120
30.494 53.934 116.090
30.694 58.440 0.000
30.694 58.440 14.720
30.694 58.440 34.440
30.867 57.866 14.720
30.867 57.866 34.440
30.903 52.572 105.120
30.903 52.572 116.090
30.982 57.482 0.000
30.982 57.482 14.720
31.102 51.154 125.230
31.102 51.154 130.710
31.226 50.740 130.710
31.226 50.740 138.630
31.302 31.810 125.230
31.302 31.810 130.710
31.302 31.810 138.630
31.322 50.424 125.230
31.322 50.424 130.710
31.322 50.424 138.630
31.397 31.494 130.710
31.397 31.494 138.630
31.455 55.323 101.470
31.455 55.323 105.120
31.521 31.081 125.230
31.521 31.081 130.710
31.758 54.314 101.470
31.758 54.314 105.120
31.851 56.398 34.440
31.851 56.398 38.700
32.115 55.521 34.440
32.115 55.521 38.700
32.461 32.159 125.230
32.461 32.159 130.710
32.461 32.159 138.630
32.518 50.502 138.630
32.556 31.843 130.710
32.556 31.843 138.630
32.681 31.428 125.230
32.681 31.428 130.710
32.919 51.249 130.710
32.919 51.249 138.630
33.113 49.461 125.230
33.113 49.461 130.710
33.113 49.461 138.630
33.209 51.788 125.230
33.209 51.788 130.710
33.429 49.556 130.710
33.429 49.556 138.630
33.843 49.681 125.230
33.843 49.681 130.710
34.161 53.551 116.090
34.161 53.551 125.234
34.313 45.470 125.230
34.313 45.470 130.710
34.313 45.470 138.630
34.629 45.565 130.710
34.629 45.565 138.630
34.662 44.311 125.230
34.662 44.311 130.710
34.662 44.311 138.630
34.955 6.289 0.000
34.955 6.289 14.720
34.955 6.289 34.440
34.978 44.406 130.710
34.978 44.406 138.630
35.043 6.002 0.000
35.043 6.002 14.720
35.043 6.002 34.440
35.043 45.689 125.230
35.043 45.689 130.710
35.110 55.322 101.470
35.110 55.322 105.120
35.110 55.322 116.090
35.138 50.300 105.120
35.138 50.300 116.090
35.391 44.530 125.230
35.391 44.530 130.710
35.868 40.301 125.230
35.868 40.301 130.710
35.868 40.301 138.630
36.117 51.974 101.470
36.117 51.974 105.120
36.145 56.733 38.700
36.145 56.733 42.960
36.145 56.733 94.160
36.145 56.733 101.470
36.184 40.396 130.710
36.184 40.396 138.630
36.216 39.142 125.230
36.216 39.142 130.710
36.216 39.142 138.630
36.453 33.359 125.230
36.453 33.359 130.710
36.453 33.359 138.630
36.497 50.709 105.120
36.497 50.709 116.090
36.532 39.237 130.710
36.532 39.237 138.630
36.548 33.043 130.710
36.548 33.043 138.630
36.598 40.520 125.230
36.598 40.520 130.710
36.672 32.630 125.230
36.672 32.630 130.710
36.946 39.362 125.230
36.946 39.362 130.710
37.074 52.262 101.470
37.074 52.262 105.120
37.214 50.366 94.160
37.214 50.366 101.470
37.241 31.320 105.120
37.241 31.320 116.090
37.375 52.645 38.700
37.375 52.645 42.960
37.375 52.645 94.160
37.415 35.151 125.230
37.415 35.151 130.710
37.415 35.151 138.630
37.494 33.954 138.630
37.650 29.960 105.120
37.650 29.960 116.090
37.732 35.246 130.710
37.732 35.246 138.630
37.748 29.740 42.960
37.748 29.740 94.160
37.748 29.740 101.470
37.981 28.965 42.960
37.981 28.965 94.160
37.981 28.965 101.470
37.990 50.599 94.160
37.990 50.599 101.470
38.145 35.370 125.230
38.145 35.370 130.710
38.164 7.254 0.000
38.164 7.254 14.720
38.164 7.254 34.440
38.241 33.553 130.710
38.241 33.553 138.630
38.252 6.967 0.000
38.252 6.967 14.720
38.252 6.967 34.440
38.779 33.263 125.230
38.779 33.263 130.710
38.804 29.213 34.440
38.804 29.213 38.700
38.962 30.354 101.470
38.962 30.354 105.120
39.264 29.351 101.470
39.264 29.351 105.120
39.565 35.569 105.120
39.565 35.569 116.090
39.789 53.371 38.700
39.789 53.371 42.960
39.789 53.371 94.160
39.855 25.717 34.440
39.855 25.717 38.700
39.855 25.717 41.140
40.544 32.313 116.090
40.544 32.313 125.234
40.926 35.979 105.120
40.926 35.979 116.090
41.307 34.713 101.470
41.307 34.713 105.120
41.339 36.653 94.160
41.339 36.653 101.470
41.752 26.287 34.440
41.752 26.287 41.140
42.115 36.886 94.160
42.115 36.886 101.470
42.227 58.564 34.440
42.227 58.564 38.700
42.264 35.001 101.470
42.264 35.001 105.120
42.314 31.362 101.470
42.314 31.362 105.120
42.314 31.362 116.090
42.554 35.427 38.700
42.554 35.427 42.960
42.554 35.427 94.160
43.288 62.228 0.000
43.288 62.228 14.720
43.288 62.228 34.440
43.956 30.763 38.700
43.956 30.763 42.960
43.956 30.763 94.160
43.956 30.763 101.470
44.207 59.162 0.000
44.207 59.162 14.720
44.207 59.162 34.440
44.495 59.249 0.000
44.495 59.249 14.720
44.495 59.249 34.440
44.967 36.153 38.700
44.967 36.153 42.960
44.967 36.153 94.160
44.996 15.496 34.440
44.996 15.496 41.140
45.940 9.592 0.000
45.940 9.592 14.720
45.940 9.592 34.440
45.983 53.243 0.000
45.983 53.243 14.720
45.983 53.243 34.440
46.028 9.305 0.000
46.028 9.305 14.720
46.028 9.305 34.440
46.270 53.329 0.000
46.270 53.329 14.720
46.270 53.329 34.440
50.037 32.593 34.440
50.037 32.593 38.700
50.187 39.230 0.000
50.187 39.230 14.720
50.187 39.230 34.440
50.474 39.316 0.000
50.474 39.316 14.720
50.474 39.316 34.440
51.971 33.282 0.000
51.971 33.282 14.720
51.971 33.282 34.440
52.258 33.368 0.000
52.258 33.368 14.720
52.258 33.368 34.440
53.085 11.741 0.000
53.085 11.741 14.720
53.085 11.741 34.440
53.173 11.454 0.000
53.173 11.454 14.720
53.173 11.454 34.440
56.173 19.269 0.000
56.173 19.269 14.720
56.173 19.269 34.440
56.460 19.355 0.000
56.460 19.355 14.720
56.460 19.355 34.440
57.997 13.531 0.000
57.997 13.531 14.720
57.997 13.531 34.440
58.170 12.957 0.000
58.170 12.957 14.720
58.170 12.957 34.440
58.189 13.589 0.000
58.189 13.589 14.720
58.189 13.589 34.440
3 139 226 218
3 139 218 204
3 139 204 198
3 139 198 195
3 139 195 190
3 139 190 183
3 139 183 179
3 139 179 172
3 139 172 162
3 139 162 160
3 139 160 156
3 139 156 153
3 139 153 145
3 139 145 144
3 139 144 140
3 138 139 140
3 333 227 231
3 333 231 238
3 333 238 243
3 333 243 248
3 333 248 249
3 333 249 252
3 333 252 254
3 333 254 256
3 333 256 270
3 333 270 288
3 333 288 298
3 333 298 305
3 333 305 311
3 333 311 317
3 333 317 322
3 333 322 330
3 333 330 337
3 54 0 32
3 163 169 54
3 544 395 386
3 539 544 386
3 682 617 612
3 676 682 612
3 702 676 612
3 717 705 702
3 714 717 702
3 711 720 714
3 708 711 714
3 693 699 696
3 690 693 696
3 679 690 696
3 668 685 679
3 665 668 679
3 479 658 665
3 486 479 665
3 374 486 665
3 332 374 665
3 356 332 665
3 115 137 149
3 39 115 149
3 54 32 39
3 163 54 39
3 386 163 39
3 539 386 39
3 612 539 39
3 702 612 39
3 714 702 39
3 708 714 39
3 696 708 39
3 665 679 696
3 356 665 696
3 149 356 696
3 39 149 696
3 55 1 33
3 164 170 55
3 545 396 387
3 540 545 387
3 683 618 613
3 677 683 613
3 703 677 613
3 718 706 703
3 715 718 703
3 712 721 715
3 709 712 715
3 694 700 697
3 691 694 697
3 680 691 697
3 669 686 680
3 666 669 680
3 480 659 666
3 487 480 666
3 375 487 666
3 333 375 666
3 357 333 666
3 116 139 151
3 40 116 151
3 55 33 40
3 164 55 40
3 387 164 40
3 540 387 40
3 613 540 40
3 703 613 40
3 715 703 40
3 709 715 40
3 697 709 40
3 666 680 697
3 357 666 697
3 151 357 697
3 40 151 697
3 55 1 33
3 164 170 55
3 545 396 387
3 540 545 387
3 683 618 613
3 677 683 613
3 703 677 613
3 718 706 703
3 715 718 703
3 712 721 715
3 709 712 715
3 694 700 697
3 691 694 697
3 680 691 697
3 669 686 680
3 666 669 680
3 480 659 666
3 482 480 666
3 37 482 666
3 55 33 37
3 164 55 37
3 387 164 37
3 540 387 37
3 613 540 37
3 703 613 37
3 715 703 37
3 709 715 37
3 697 709 37
3 680 697 37
3 666 680 37
3 56 2 34
3 165 171 56
3 546 397 388
3 541 546 388
3 684 619 614
3 678 684 614
3 704 678 614
3 719 707 704
3 716 719 704
3 713 722 716
3 710 713 716
3 695 701 698
3 692 695 698
3 681 692 698
3 670 687 681
3 667 670 681
3 481 660 667
3 483 481 667
3 38 483 667
3 56 34 38
3 165 56 38
3 388 165 38
3 541 388 38
3 614 541 38
3 704 614 38
3 716 704 38
3 710 716 38
3 698 710 38
3 681 698 38
3 667 681 38
3 55 1 33
3 164 170 55
3 545 396 387
3 540 545 387
3 683 618 613
3 677 683 613
3 703 677 613
3 718 706 703
3 715 718 703
3 712 721 715
3 709 712 715
3 694 700 697
3 691 694 697
3 680 691 697
3 669 686 680
3 666 669 680
3 480 659 666
3 482 480 666
3 37 482 666
3 55 33 37
3 164 55 37
3 387 164 37
3 540 387 37
3 613 540 37
3 703 613 37
3 715 703 37
3 709 715 37
3 697 709 37
3 680 697 37
3 666 680 37
3 20 3 41
3 223 20 41
3 264 199 244
3 674 264 244
3 633 644 674
3 648 688 622
3 508 648 622
3 506 508 622
3 35 506 622
3 41 35 622
3 223 41 622
3 244 223 622
3 633 674 244
3 622 633 244
3 264 199 244
3 674 264 244
3 633 644 674
3 223 622 633
3 244 223 633
3 674 244 633
3 20 3 41
3 688 20 41
3 508 648 688
3 35 506 508
3 41 35 508
3 688 41 508
3 644 674 264
3 633 644 264
3 244 633 264
3 199 244 264
3 645 675 265
3 635 645 265
3 246 635 265
3 200 246 265
3 20 3 41
3 223 20 41
3 633 244 223
3 622 633 223
3 688 622 223
3 648 688 223
3 508 648 223
3 506 508 223
3 35 506 223
3 41 35 223
3 21 4 42
3 224 21 42
3 634 245 224
3 623 634 224
3 689 623 224
3 649 689 224
3 509 649 224
3 507 509 224
3 36 507 224
3 42 36 224
3 12 8 63
3 43 5 12
3 77 43 12
3 111 77 12
3 661 111 12
3 655 661 12
3 671 655 12
3 591 630 671
3 468 561 591
3 472 468 591
3 67 472 591
3 12 63 67
3 671 12 67
3 591 671 67
3 13 9 64
3 44 6 13
3 78 44 13
3 112 78 13
3 662 112 13
3 656 662 13
3 672 656 13
3 592 631 672
3 469 562 592
3 473 469 592
3 68 473 592
3 13 64 68
3 672 13 68
3 592 672 68
3 44 6 13
3 78 44 13
3 112 78 13
3 239 112 13
3 234 239 13
3 602 234 13
3 662 605 602
3 656 662 602
3 631 672 656
3 592 631 656
3 562 592 656
3 469 562 656
3 474 469 656
3 73 474 656
3 9 64 73
3 13 9 73
3 602 13 73
3 656 602 73
3 45 7 14
3 79 45 14
3 113 79 14
3 240 113 14
3 235 240 14
3 603 235 14
3 663 606 603
3 657 663 603
3 632 673 657
3 593 632 657
3 563 593 657
3 470 563 657
3 475 470 657
3 74 475 657
3 10 65 74
3 14 10 74
3 603 14 74
3 657 603 74
3 22 10 65
3 26 22 65
3 85 26 65
3 113 61 85
3 240 113 85
3 235 240 85
3 603 235 85
3 663 606 603
3 646 663 603
3 642 646 603
3 587 642 603
3 563 608 587
3 470 563 587
3 475 470 587
3 74 475 587
3 85 65 74
3 603 85 74
3 587 603 74
3 23 11 66
3 27 23 66
3 86 27 66
3 114 62 86
3 241 114 86
3 236 241 86
3 604 236 86
3 664 607 604
3 647 664 604
3 643 647 604
3 588 643 604
3 564 609 588
3 471 564 588
3 476 471 588
3 75 476 588
3 86 66 75
3 604 86 75
3 588 604 75
3 24 15 50
3 87 18 24
3 109 87 24
3 201 124 109
3 626 207 201
3 624 626 201
3 640 652 624
3 585 650 640
3 559 585 640
3 549 559 640
3 504 549 640
3 48 500 504
3 50 48 504
3 24 50 504
3 109 24 504
3 201 109 504
3 624 201 504
3 640 624 504
3 25 16 51
3 88 19 25
3 110 88 25
3 202 125 110
3 627 208 202
3 625 627 202
3 641 653 625
3 586 651 641
3 560 586 641
3 550 560 641
3 505 550 641
3 49 501 505
3 51 49 505
3 25 51 505
3 110 25 505
3 202 110 505
3 625 202 505
3 641 625 505
3 28 16 71
3 46 28 71
3 122 46 71
3 125 99 122
3 232 125 122
3 228 232 122
3 589 228 122
3 653 598 589
3 638 653 589
3 628 638 589
3 552 628 589
3 550 573 552
3 477 550 552
3 484 477 552
3 83 484 552
3 122 71 83
3 589 122 83
3 552 589 83
3 29 17 72
3 47 29 72
3 123 47 72
3 126 100 123
3 233 126 123
3 229 233 123
3 590 229 123
3 654 599 590
3 639 654 590
3 629 639 590
3 553 629 590
3 551 574 553
3 478 551 553
3 485 478 553
3 84 485 553
3 123 72 84
3 590 123 84
3 553 590 84
3 146 30 529
3 636 146 529
3 147 31 530
3 637 147 530
3 59 52 91
3 80 59 91
3 104 80 91
3 93 89 104
3 117 93 104
3 131 117 104
3 127 120 131
3 141 127 131
3 173 157 176
3 221 173 176
3 211 221 176
3 342 211 176
3 410 359 342
3 398 410 342
3 516 502 492
3 510 516 492
3 570 510 492
3 620 581 570
3 610 620 570
3 594 610 570
3 567 594 570
3 579 583 567
3 556 579 567
3 536 556 567
3 547 554 536
3 531 547 536
3 520 531 536
3 523 527 520
3 488 523 520
3 495 488 520
3 401 495 520
3 328 384 401
3 346 328 401
3 215 346 401
3 185 205 215
3 192 185 215
3 101 192 215
3 104 91 101
3 131 104 101
3 141 131 101
3 176 141 101
3 342 176 101
3 398 342 101
3 492 398 101
3 570 492 101
3 567 570 101
3 536 567 101
3 520 536 101
3 215 401 520
3 101 215 520
3 60 53 92
3 81 60 92
3 105 81 92
3 94 90 105
3 118 94 105
3 132 118 105
3 128 121 132
3 142 128 132
3 174 158 177
3 222 174 177
3 212 222 177
3 343 212 177
3 411 360 343
3 399 411 343
3 517 503 493
3 511 517 493
3 571 511 493
3 621 582 571
3 611 621 571
3 595 611 571
3 568 595 571
3 580 584 568
3 557 580 568
3 537 557 568
3 548 555 537
3 532 548 537
3 521 532 537
3 524 528 521
3 489 524 521
3 496 489 521
3 402 496 521
3 329 385 402
3 347 329 402
3 216 347 402
3 186 206 216
3 193 186 216
3 102 193 216
3 105 92 102
3 132 105 102
3 142 132 102
3 177 142 102
3 343 177 102
3 399 343 102
3 493 399 102
3 571 493 102
3 568 571 102
3 537 568 102
3 521 537 102
3 216 402 521
3 102 216 521
3 69 57 95
3 81 69 95
3 105 81 95
3 107 97 105
3 118 107 105
3 132 118 105
3 134 129 132
3 142 134 132
3 181 166 177
3 219 181 177
3 212 219 177
3 343 212 177
3 408 349 343
3 399 408 343
3 514 498 493
3 511 514 493
3 571 511 493
3 615 577 571
3 600 615 571
3 595 600 571
3 568 595 571
3 565 575 568
3 557 565 568
3 537 557 568
3 534 542 537
3 532 534 537
3 521 532 537
3 518 525 521
3 490 518 521
3 496 490 521
3 402 496 521
3 335 393 402
3 347 335 402
3 216 347 402
3 187 209 216
3 193 187 216
3 102 193 216
3 105 95 102
3 132 105 102
3 142 132 102
3 177 142 102
3 343 177 102
3 399 343 102
3 493 399 102
3 571 493 102
3 568 571 102
3 537 568 102
3 521 537 102
3 216 402 521
3 102 216 521
3 70 58 96
3 82 70 96
3 106 82 96
3 108 98 106
3 119 108 106
3 133 119 106
3 135 130 133
3 143 135 133
3 182 167 178
3 220 182 178
3 213 220 178
3 344 213 178
3 409 350 344
3 400 409 344
3 515 499 494
3 512 515 494
3 572 512 494
3 616 578 572
3 601 616 572
3 596 601 572
3 569 596 572
3 566 576 569
3 558 566 569
3 538 558 569
3 535 543 538
3 533 535 538
3 522 533 538
3 519 526 522
3 491 519 522
3 497 491 522
3 403 497 522
3 336 394 403
3 348 336 403
3 217 348 403
3 188 210 217
3 194 188 217
3 103 194 217
3 106 96 103
3 133 106 103
3 143 133 103
3 178 143 103
3 344 178 103
3 400 344 103
3 494 400 103
3 572 494 103
3 569 572 103
3 538 569 103
3 522 538 103
3 217 403 522
3 103 217 522
3 467 299 251
3 432 467 251
3 463 465 461
3 459 463 461
3 455 459 461
3 451 455 461
3 447 451 461
3 443 447 461
3 439 443 461
3 435 439 461
3 430 435 461
3 426 430 461
3 422 426 461
3 418 422 461
3 414 418 461
3 406 414 461
3 391 406 461
3 382 391 461
3 378 382 461
3 372 378 461
3 368 372 461
3 364 368 461
3 353 364 461
3 340 353 461
3 326 340 461
3 320 326 461
3 314 320 461
3 308 314 461
3 302 308 461
3 296 302 461
3 292 296 461
3 286 292 461
3 282 286 461
3 278 282 461
3 273 278 461
3 268 273 461
3 262 268 461
3 258 262 461
3 260 258 461
3 266 260 461
3 271 266 461
3 276 271 461
3 280 276 461
3 284 280 461
3 290 284 461
3 294 290 461
3 300 294 461
3 306 300 461
3 312 306 461
3 318 312 461
3 324 318 461
3 338 324 461
3 351 338 461
3 362 351 461
3 366 362 461
3 370 366 461
3 376 370 461
3 380 376 461
3 389 380 461
3 404 389 461
3 412 404 461
3 416 412 461
3 420 416 461
3 424 420 461
3 428 424 461
3 433 428 461
3 437 433 461
3 441 437 461
3 445 441 461
3 449 445 461
3 453 449 461
3 457 453 461
3 464 466 462
3 460 464 462
3 456 460 462
3 452 456 462
3 448 452 462
3 444 448 462
3 440 444 462
3 436 440 462
3 431 436 462
3 427 431 462
3 423 427 462
3 419 423 462
3 415 419 462
3 407 415 462
3 392 407 462
3 383 392 462
3 379 383 462
3 373 379 462
3 369 373 462
3 365 369 462
3 354 365 462
3 341 354 462
3 327 341 462
3 321 327 462
3 315 321 462
3 309 315 462
3 303 309 462
3 297 303 462
3 293 297 462
3 287 293 462
3 283 287 462
3 279 283 462
3 274 279 462
3 269 274 462
3 263 269 462
3 259 263 462
3 261 259 462
3 267 261 462
3 272 267 462
3 277 272 462
3 281 277 462
3 285 281 462
3 291 285 462
3 295 291 462
3 301 295 462
3 307 301 462
3 313 307 462
3 319 313 462
3 325 319 462
3 339 325 462
3 352 339 462
3 363 352 462
3 367 363 462
3 371 367 462
3 377 371 462
3 381 377 462
3 390 381 462
3 405 390 462
3 413 405 462
3 417 413 462
3 421 417 462
3 425 421 462
3 429 425 462
3 434 429 462
3 438 434 462
3 442 438 462
3 446 442 462
3 450 446 462
3 454 450 462
3 458 454 462
3 189 76 251
3 299 189 251
3 189 299 467
3 597 189 467
3 597 467 432
3 513 597 432
3 432 251 76
3 513 432 76
3 138 139 151
3 138 151 150
3 138 150 148
3 136 138 148
3 140 152 148
3 140 148 136
3 144 154 152
3 144 152 140
3 145 155 154
3 145 154 144
3 153 159 155
3 153 155 145
3 156 161 159
3 156 159 153
3 160 168 161
3 160 161 156
3 162 175 168
3 162 168 160
3 180 175 162
3 172 180 162
3 184 180 172
3 179 184 172
3 191 184 179
3 183 191 179
3 196 191 183
3 190 196 183
3 197 196 190
3 195 197 190
3 203 197 195
3 198 203 195
3 214 203 198
3 204 214 198
3 225 214 204
3 218 225 204
3 230 225 218
3 226 230 218
3 226 230 151
3 139 226 151
3 333 357 230
3 227 333 230
3 237 230 227
3 231 237 227
3 242 237 231
3 238 242 231
3 247 242 238
3 243 247 238
3 250 247 243
3 248 250 243
3 253 250 248
3 249 253 248
3 255 253 249
3 252 255 249
3 257 255 252
3 254 257 252
3 275 257 254
3 256 275 254
3 289 275 256
3 270 289 256
3 304 289 270
3 288 304 270
3 310 304 288
3 298 310 288
3 316 310 298
3 305 316 298
3 323 316 305
3 311 323 305
3 331 323 311
3 317 331 311
3 345 331 317
3 322 345 317
3 355 345 322
3 330 355 322
3 361 355 330
3 337 361 330
3 334 337 361
3 334 361 358
3 334 358 357
3 333 334 357
3 170 55 54
3 170 54 169
3 164 170 169
3 164 169 163
3 387 164 163
3 387 163 386
3 387 386 395
3 396 387 395
3 545 396 395
3 545 395 544
3 540 545 544
3 540 544 539
3 613 540 539
3 613 539 612
3 613 612 617
3 618 613 617
3 683 618 617
3 683 617 682
3 677 683 682
3 677 682 676
3 703 677 676
3 703 676 702
3 703 702 705
3 706 703 705
3 718 706 705
3 718 705 717
3 715 718 717
3 715 717 714
3 721 715 714
3 721 714 720
3 712 721 720
3 712 720 711
3 712 711 708
3 709 712 708
3 697 709 708
3 697 708 696
3 700 697 696
3 700 696 699
3 694 700 699
3 694 699 693
3 694 693 690
3 691 694 690
3 680 691 690
3 680 690 679
3 686 680 679
3 686 679 685
3 669 686 685
3 669 685 668
3 669 668 665
3 666 669 665
3 659 666 665
3 659 665 658
3 659 658 479
3 480 659 479
3 480 479 486
3 487 480 486
3 487 486 374
3 375 487 374
3 375 374 332
3 333 375 332
3 333 332 356
3 357 333 356
3 357 356 149
3 151 357 149
3 139 151 149
3 139 149 137
3 139 137 115
3 116 139 115
3 116 115 39
3 40 116 39
3 33 40 39
3 33 39 32
3 33 32 0
3 1 33 0
3 1 0 54
3 55 1 54
3 34 33 37
3 38 34 37
3 483 38 37
3 483 37 482
3 481 483 482
3 481 482 480
3 660 481 480
3 660 480 659
3 660 659 666
3 667 660 666
3 670 667 666
3 670 666 669
3 670 669 686
3 687 670 686
3 687 686 680
3 681 687 680
3 681 680 691
3 692 681 691
3 695 692 691
3 695 691 694
3 695 694 700
3 701 695 700
3 701 700 697
3 698 701 697
3 698 697 709
3 710 698 709
3 713 710 709
3 713 709 712
3 713 712 721
3 722 713 721
3 722 721 715
3 716 722 715
3 716 715 718
3 719 716 718
3 719 718 706
3 707 719 706
3 704 707 706
3 704 706 703
3 704 703 677
3 678 704 677
3 678 677 683
3 684 678 683
3 684 683 618
3 619 684 618
3 614 619 618
3 614 618 613
3 614 613 540
3 541 614 540
3 541 540 545
3 546 541 545
3 546 545 396
3 397 546 396
3 388 397 396
3 388 396 387
3 388 387 164
3 165 388 164
3 165 164 170
3 171 165 170
3 171 170 55
3 56 171 55
3 2 56 55
3 2 55 1
3 34 2 1
3 34 1 33
3 200 265 264
3 200 264 199
3 246 200 199
3 246 199 244
3 635 246 244
3 635 244 633
3 645 635 633
3 645 633 644
3 645 644 674
3 675 645 674
3 675 674 264
3 265 675 264
3 36 42 41
3 36 41 35
3 507 36 35
3 507 35 506
3 507 506 508
3 509 507 508
3 649 509 508
3 649 508 648
3 649 648 688
3 689 649 688
3 689 688 622
3 623 689 622
3 623 622 633
3 634 623 633
3 634 633 244
3 245 634 244
3 224 245 244
3 224 244 223
3 224 223 20
3 21 224 20
3 4 21 20
3 4 20 3
3 42 4 3
3 42 3 41
3 13 12 5
3 6 13 5
3 6 5 43
3 44 6 43
3 78 44 43
3 78 43 77
3 78 77 111
3 112 78 111
3 662 112 111
3 662 111 661
3 656 662 661
3 656 661 655
3 672 656 655
3 672 655 671
3 631 672 671
3 631 671 630
3 631 630 591
3 592 631 591
3 562 592 591
3 562 591 561
3 562 561 468
3 469 562 468
3 469 468 472
3 473 469 472
3 473 472 67
3 68 473 67
3 64 68 67
3 64 67 63
3 64 63 8
3 9 64 8
3 9 8 12
3 13 9 12
3 79 45 44
3 79 44 78
3 79 78 112
3 113 79 112
3 240 113 112
3 240 112 239
3 235 240 239
3 235 239 234
3 603 235 234
3 603 234 602
3 603 602 605
3 606 603 605
3 663 606 605
3 663 605 662
3 657 663 662
3 657 662 656
3 673 657 656
3 673 656 672
3 632 673 672
3 632 672 631
3 632 631 592
3 593 632 592
3 563 593 592
3 563 592 562
3 563 562 469
3 470 563 469
3 470 469 474
3 475 470 474
3 475 474 73
3 74 475 73
3 65 74 73
3 65 73 64
3 65 64 9
3 10 65 9
3 10 9 13
3 14 10 13
3 14 13 6
3 7 14 6
3 7 6 44
3 45 7 44
3 27 23 22
3 27 22 26
3 27 26 85
3 86 27 85
3 86 85 61
3 62 86 61
3 62 61 113
3 114 62 113
3 241 114 113
3 241 113 240
3 236 241 240
3 236 240 235
3 604 236 235
3 604 235 603
3 604 603 606
3 607 604 606
3 664 607 606
3 664 606 663
3 647 664 663
3 647 663 646
3 647 646 642
3 643 647 642
3 588 643 642
3 588 642 587
3 609 588 587
3 609 587 608
3 564 609 608
3 564 608 563
3 564 563 470
3 471 564 470
3 471 470 475
3 476 471 475
3 476 475 74
3 75 476 74
3 66 75 74
3 66 74 65
3 66 65 10
3 11 66 10
3 11 10 22
3 23 11 22
3 25 24 18
3 19 25 18
3 19 18 87
3 88 19 87
3 110 88 87
3 110 87 109
3 110 109 124
3 125 110 124
3 202 125 124
3 202 124 201
3 202 201 207
3 208 202 207
3 627 208 207
3 627 207 626
3 625 627 626
3 625 626 624
3 653 625 624
3 653 624 652
3 641 653 652
3 641 652 640
3 651 641 640
3 651 640 650
3 586 651 650
3 586 650 585
3 586 585 559
3 560 586 559
3 550 560 559
3 550 559 549
3 550 549 504
3 505 550 504
3 501 505 504
3 501 504 500
3 501 500 48
3 49 501 48
3 49 48 50
3 51 49 50
3 51 50 15
3 16 51 15
3 16 15 24
3 25 16 24
3 72 71 83
3 84 72 83
3 485 84 83
3 485 83 484
3 478 485 484
3 478 484 477
3 551 478 477
3 551 477 550
3 551 550 573
3 574 551 573
3 574 573 552
3 553 574 552
3 553 552 628
3 629 553 628
3 639 629 628
3 639 628 638
3 639 638 653
3 654 639 653
3 654 653 598
3 599 654 598
3 590 599 598
3 590 598 589
3 590 589 228
3 229 590 228
3 229 228 232
3 233 229 232
3 233 232 125
3 126 233 125
3 100 126 125
3 100 125 99
3 123 100 99
3 123 99 122
3 47 123 122
3 47 122 46
3 47 46 28
3 29 47 28
3 17 29 28
3 17 28 16
3 72 17 16
3 72 16 71
3 530 529 636
3 637 530 636
3 637 636 146
3 147 637 146
3 31 147 146
3 31 146 30
3 530 31 30
3 530 30 529
3 92 91 101
3 102 92 101
3 193 102 101
3 193 101 192
3 186 193 192
3 186 192 185
3 206 186 185
3 206 185 205
3 206 205 215
3 216 206 215
3 347 216 215
3 347 215 346
3 329 347 346
3 329 346 328
3 385 329 328
3 385 328 384
3 385 384 401
3 402 385 401
3 496 402 401
3 496 401 495
3 489 496 495
3 489 495 488
3 524 489 488
3 524 488 523
3 524 523 527
3 528 524 527
3 528 527 520
3 521 528 520
3 521 520 531
3 532 521 531
3 548 532 531
3 548 531 547
3 548 547 554
3 555 548 554
3 555 554 536
3 537 555 536
3 537 536 556
3 557 537 556
3 580 557 556
3 580 556 579
3 580 579 583
3 584 580 583
3 584 583 567
3 568 584 567
3 568 567 594
3 595 568 594
3 611 595 594
3 611 594 610
3 611 610 620
3 621 611 620
3 621 620 581
3 582 621 581
3 571 582 581
3 571 581 570
3 571 570 510
3 511 571 510
3 511 510 516
3 517 511 516
3 517 516 502
3 503 517 502
3 493 503 502
3 493 502 492
3 493 492 398
3 399 493 398
3 399 398 410
3 411 399 410
3 411 410 359
3 360 411 359
3 343 360 359
3 343 359 342
3 343 342 211
3 212 343 211
3 212 211 221
3 222 212 221
3 222 221 173
3 174 222 173
3 158 174 173
3 158 173 157
3 177 158 157
3 177 157 176
3 142 177 176
3 142 176 141
3 142 141 127
3 128 142 127
3 121 128 127
3 121 127 120
3 132 121 120
3 132 120 131
3 118 132 131
3 118 131 117
3 118 117 93
3 94 118 93
3 90 94 93
3 90 93 89
3 105 90 89
3 105 89 104
3 81 105 104
3 81 104 80
3 81 80 59
3 60 81 59
3 53 60 59
3 53 59 52
3 92 53 52
3 92 52 91
3 96 95 102
3 103 96 102
3 194 103 102
3 194 102 193
3 188 194 193
3 188 193 187
3 210 188 187
3 210 187 209
3 210 209 216
3 217 210 216
3 348 217 216
3 348 216 347
3 336 348 347
3 336 347 335
3 394 336 335
3 394 335 393
3 394 393 402
3 403 394 402
3 497 403 402
3 497 402 496
3 491 497 496
3 491 496 490
3 519 491 490
3 519 490 518
3 519 518 525
3 526 519 525
3 526 525 521
3 522 526 521
3 522 521 532
3 533 522 532
3 535 533 532
3 535 532 534
3 535 534 542
3 543 535 542
3 543 542 537
3 538 543 537
3 538 537 557
3 558 538 557
3 566 558 557
3 566 557 565
3 566 565 575
3 576 566 575
3 576 575 568
3 569 576 568
3 569 568 595
3 596 569 595
3 601 596 595
3 601 595 600
3 601 600 615
3 616 601 615
3 616 615 577
3 578 616 577
3 572 578 577
3 572 577 571
3 572 571 511
3 512 572 511
3 512 511 514
3 515 512 514
3 515 514 498
3 499 515 498
3 494 499 498
3 494 498 493
3 494 493 399
3 400 494 399
3 400 399 408
3 409 400 408
3 409 408 349
3 350 409 349
3 344 350 349
3 344 349 343
3 344 343 212
3 213 344 212
3 213 212 219
3 220 213 219
3 220 219 181
3 182 220 181
3 167 182 181
3 167 181 166
3 178 167 166
3 178 166 177
3 143 178 177
3 143 177 142
3 143 142 134
3 135 143 134
3 130 135 134
3 130 134 129
3 133 130 129
3 133 129 132
3 119 133 132
3 119 132 118
3 119 118 107
3 108 119 107
3 98 108 107
3 98 107 97
3 106 98 97
3 106 97 105
3 82 106 105
3 82 105 81
3 82 81 69
3 70 82 69
3 58 70 69
3 58 69 57
3 96 58 57
3 96 57 95
3 459 463 464
3 460 459 464
3 455 459 460
3 456 455 460
3 451 455 456
3 452 451 456
3 447 451 452
3 448 447 452
3 443 447 448
3 444 443 448
3 439 443 444
3 440 439 444
3 435 439 440
3 436 435 440
3 430 435 436
3 431 430 436
3 427 426 430
3 427 430 431
3 423 422 426
3 423 426 427
3 419 418 422
3 419 422 423
3 415 414 418
3 415 418 419
3 407 406 414
3 407 414 415
3 392 391 406
3 392 406 407
3 383 382 391
3 383 391 392
3 379 378 382
3 379 382 383
3 373 372 378
3 373 378 379
3 373 372 368
3 369 373 368
3 369 368 364
3 365 369 364
3 365 364 353
3 354 365 353
3 354 353 340
3 341 354 340
3 341 340 326
3 327 341 326
3 327 326 320
3 321 327 320
3 321 320 314
3 315 321 314
3 315 314 308
3 309 315 308
3 309 308 302
3 303 309 302
3 303 302 296
3 297 303 296
3 297 296 292
3 293 297 292
3 293 292 286
3 287 293 286
3 287 286 282
3 283 287 282
3 283 282 278
3 279 283 278
3 279 278 273
3 274 279 273
3 274 273 268
3 269 274 268
3 269 268 262
3 263 269 262
3 263 262 258
3 259 263 258
3 259 258 260
3 261 259 260
3 261 260 266
3 267 261 266
3 267 266 271
3 272 267 271
3 272 271 276
3 277 272 276
3 277 276 280
3 281 277 280
3 281 280 284
3 285 281 284
3 285 284 290
3 291 285 290
3 291 290 294
3 295 291 294
3 295 294 300
3 301 295 300
3 307 301 300
3 307 300 306
3 313 307 306
3 313 306 312
3 319 313 312
3 319 312 318
3 325 319 318
3 325 318 324
3 339 325 324
3 339 324 338
3 352 339 338
3 352 338 351
3 363 352 351
3 363 351 362
3 367 363 362
3 367 362 366
3 371 367 366
3 371 366 370
3 376 370 371
3 377 376 371
3 380 376 377
3 381 380 377
3 389 380 381
3 390 389 381
3 404 389 390
3 405 404 390
3 412 404 405
3 413 412 405
3 416 412 413
3 417 416 413
3 420 416 417
3 421 420 417
3 424 420 421
3 425 424 421
3 428 424 425
3 429 428 425
3 433 428 429
3 434 433 429
3 437 433 434
3 438 437 434
3 441 437 438
3 442 441 438
3 445 441 442
3 446 445 442
3 449 445 446
3 450 449 446
3 453 449 450
3 454 453 450
3 457 453 454
3 458 457 454
3 461 457 458
3 462 461 458
3 465 461 462
3 466 465 462
3 463 465 466
3 464 463 466
