OFF
301 590 0
0.000 60.497 0.000
0.000 60.497 73.100
9.047 30.517 0.000
9.047 30.517 73.100
9.997 27.256 0.000
9.997 27.256 4.300
9.997 27.256 7.300
9.997 27.256 36.000
14.010 30.561 0.000
14.010 30.561 4.300
14.010 30.561 7.300
14.010 30.561 36.000
14.591 28.647 0.000
14.591 28.647 4.300
14.591 28.647 7.300
14.591 28.647 36.000
14.968 30.851 36.000
14.968 30.851 39.700
15.548 28.937 36.000
15.548 28.937 39.700
16.573 5.551 36.000
17.182 3.541 0.000
17.182 3.541 4.300
17.295 50.642 73.100
17.295 50.642 78.280
17.559 2.297 4.300
17.559 2.297 7.300
18.255 0.000 7.300
18.255 0.000 36.000
19.317 43.940 73.100
19.317 43.940 78.280
20.865 1.731 0.000
20.865 1.731 7.300
21.126 0.870 0.000
21.126 0.870 7.300
21.631 1.963 0.000
21.631 1.963 7.300
21.892 1.102 0.000
21.892 1.102 7.300
22.124 7.232 36.000
22.124 7.232 39.700
23.847 34.982 0.000
23.847 34.982 7.600
23.847 34.982 73.100
24.157 33.634 0.000
24.157 33.634 4.300
24.157 33.634 7.300
24.157 33.634 36.000
24.157 33.634 39.700
25.763 35.556 73.100
25.763 35.556 83.460
26.764 46.228 73.100
26.764 46.228 88.300
26.764 46.228 88.340
28.763 7.049 0.000
28.763 7.049 4.300
28.931 39.048 73.100
28.931 39.048 88.300
28.931 39.048 88.340
29.139 5.805 4.300
29.139 5.805 7.300
29.835 3.508 0.000
29.835 3.508 4.300
29.835 3.508 7.300
31.312 10.015 36.000
31.312 10.015 39.700
32.044 11.815 0.000
32.044 11.815 7.600
32.994 4.465 0.000
32.994 4.465 4.300
32.994 4.465 7.300
32.994 4.465 7.600
32.994 4.465 36.000
32.994 4.465 73.100
34.144 4.809 0.000
34.144 4.809 7.600
34.334 6.960 73.100
34.334 6.960 83.460
37.827 7.830 0.000
37.827 7.830 7.600
38.268 7.962 0.000
38.268 7.962 7.600
38.355 6.084 0.000
38.355 6.084 7.600
38.796 6.216 0.000
38.796 6.216 7.600
43.188 9.450 0.000
43.188 9.450 7.600
43.629 9.582 0.000
43.629 9.582 7.600
43.716 7.703 0.000
43.716 7.703 7.600
44.157 7.835 0.000
44.157 7.835 7.600
47.318 52.542 73.100
47.318 52.542 88.300
47.318 52.542 88.340
48.549 11.069 0.000
48.549 11.069 7.600
48.990 11.201 0.000
48.990 11.201 7.600
49.077 9.322 0.000
49.077 9.322 7.600
49.275 42.658 73.100
49.275 42.658 83.460
49.484 45.362 73.100
49.484 45.362 88.300
49.484 45.362 88.340
49.518 9.454 0.000
49.518 9.454 7.600
51.191 43.232 0.000
51.191 43.232 7.600
51.191 43.232 19.530
51.191 43.232 73.100
52.665 61.508 73.100
52.665 61.508 78.280
53.910 12.688 0.000
53.910 12.688 7.600
54.351 12.820 0.000
54.351 12.820 7.600
54.439 10.942 0.000
54.439 10.942 7.600
54.688 54.807 73.100
54.688 54.807 78.280
54.880 11.074 0.000
54.880 11.074 7.600
57.179 23.254 0.000
57.179 23.254 16.760
57.179 23.254 19.530
57.840 14.082 73.100
57.840 14.082 83.460
58.209 19.742 0.000
58.209 19.742 7.600
58.209 19.742 16.760
59.301 78.715 0.000
59.301 78.715 46.320
59.301 78.715 73.100
59.360 14.361 0.000
59.360 14.361 7.600
59.801 14.493 0.000
59.801 14.493 7.600
59.888 12.614 0.000
59.888 12.614 7.600
60.329 12.746 0.000
60.329 12.746 7.600
60.329 12.746 73.100
63.586 64.517 0.000
63.586 64.517 7.300
63.586 64.517 11.880
63.586 64.517 15.230
63.586 64.517 18.580
63.586 64.517 21.930
63.586 64.517 35.960
63.586 64.517 46.320
67.984 81.383 0.000
67.984 81.383 46.320
68.439 48.436 0.000
68.439 48.436 19.530
68.439 48.436 73.100
68.540 79.579 0.000
68.540 79.579 46.320
70.978 40.019 0.000
70.978 40.019 7.300
70.978 40.019 11.880
70.978 40.019 15.230
70.978 40.019 18.580
70.978 40.019 21.930
70.978 40.019 35.960
71.773 40.251 0.000
71.773 40.251 4.200
72.469 60.941 35.960
72.469 60.941 46.930
73.807 33.543 0.000
73.807 33.543 4.200
73.807 33.543 51.900
73.807 33.543 55.900
74.458 28.489 0.000
74.458 28.489 16.760
74.458 28.489 19.530
75.515 24.985 0.000
75.515 24.985 16.760
76.300 48.309 35.960
76.300 48.309 46.930
77.533 21.255 51.900
77.533 21.255 55.900
78.450 18.231 0.000
78.450 18.231 51.900
80.050 22.018 51.900
80.050 22.018 55.900
80.967 18.994 51.900
80.967 18.994 55.900
82.590 85.870 0.000
82.590 85.870 46.320
83.141 84.080 0.000
83.141 84.080 46.320
83.342 70.508 21.930
83.342 70.508 35.960
84.213 67.637 21.930
84.213 67.637 35.960
85.631 51.138 35.960
85.631 51.138 46.930
86.214 71.378 18.580
86.214 71.378 21.930
87.039 44.879 0.000
87.039 44.879 4.200
87.039 44.879 51.900
87.039 44.879 55.900
87.084 68.507 18.580
87.084 68.507 21.930
87.084 68.507 35.960
87.485 45.023 35.960
87.485 45.023 46.930
87.955 65.637 21.930
87.955 65.637 35.960
89.073 38.171 0.000
89.073 38.171 4.200
89.073 38.171 51.900
89.073 38.171 55.900
89.085 72.248 15.230
89.085 72.248 18.580
89.364 36.483 55.900
89.364 36.483 57.700
89.955 69.378 15.230
89.955 69.378 18.580
89.955 69.378 21.930
90.488 88.297 0.000
90.488 88.297 46.320
90.697 39.154 55.900
90.697 39.154 57.700
90.826 66.507 18.580
90.826 66.507 21.930
90.826 66.507 35.960
90.826 66.507 46.930
91.259 30.234 55.900
91.259 30.234 57.700
91.327 37.078 55.900
91.327 37.078 57.700
91.696 63.636 21.930
91.696 63.636 35.960
91.696 63.636 46.930
91.956 73.119 11.880
91.956 73.119 15.230
92.826 70.248 11.880
92.826 70.248 15.230
92.826 70.248 18.580
93.697 67.378 15.230
93.697 67.378 18.580
93.697 67.378 21.930
94.567 64.507 18.580
94.567 64.507 21.930
94.567 64.507 35.960
94.567 64.507 46.930
94.827 73.989 0.000
94.827 73.989 7.300
94.827 73.989 11.880
94.827 73.989 46.320
95.438 61.636 21.930
95.438 61.636 35.960
95.438 61.636 46.930
95.697 71.119 11.880
95.697 71.119 15.230
96.568 68.248 15.230
96.568 68.248 18.580
97.004 41.067 55.900
97.004 41.067 57.700
97.439 65.377 18.580
97.439 65.377 21.930
97.558 50.304 0.000
97.558 50.304 7.300
98.176 48.265 0.000
98.176 48.265 7.300
98.309 62.506 21.930
98.309 62.506 35.960
98.309 62.506 46.930
99.529 32.741 55.900
99.529 32.741 57.700
99.739 48.729 51.900
99.739 48.729 55.900
100.399 55.616 0.000
100.399 55.616 7.300
100.655 45.705 51.900
100.655 45.705 55.900
102.253 49.501 7.300
102.253 49.501 11.880
102.253 49.501 15.230
102.253 49.501 18.580
102.253 49.501 21.930
102.253 49.501 35.960
102.253 49.501 46.930
102.256 49.493 0.000
102.256 49.493 51.900
103.172 46.469 51.900
103.172 46.469 55.900
105.499 29.733 51.900
105.499 29.733 55.900
106.415 26.709 51.900
106.415 26.709 55.900
108.016 30.496 51.900
108.016 30.496 55.900
108.933 27.472 0.000
108.933 27.472 51.900
3 37 33 31
3 35 37 31
3 21 4 12
3 54 21 12
3 68 61 54
3 44 68 54
3 8 44 54
3 12 8 54
3 59 25 5
3 69 62 59
3 45 69 59
3 9 45 59
3 13 9 59
3 5 13 59
3 70 27 6
3 10 46 70
3 14 10 70
3 6 14 70
3 39 16 47
3 64 39 47
3 22 5 13
3 55 22 13
3 69 62 55
3 45 69 55
3 9 45 55
3 13 9 55
3 60 26 6
3 70 63 60
3 46 70 60
3 10 46 60
3 14 10 60
3 6 14 60
3 38 34 32
3 36 38 32
3 72 28 7
3 11 47 72
3 15 11 72
3 7 15 72
3 40 17 48
3 65 40 48
3 20 7 19
3 40 20 19
3 20 39 40
3 7 18 19
3 269 161 146
3 267 269 146
3 278 267 146
3 252 278 146
3 162 147 253
3 282 162 253
3 284 164 149
3 245 261 284
3 222 243 245
3 149 218 222
3 284 149 222
3 245 284 222
3 285 165 150
3 248 265 285
3 229 246 248
3 207 223 229
3 150 201 207
3 285 150 207
3 229 248 285
3 207 229 285
3 286 166 151
3 256 271 286
3 237 249 256
3 212 230 237
3 197 208 212
3 151 195 197
3 286 151 197
3 256 286 197
3 237 256 197
3 212 237 197
3 270 162 147
3 268 270 147
3 279 268 147
3 253 279 147
3 283 163 148
3 242 259 283
3 148 240 242
3 283 148 242
3 284 164 149
3 243 260 284
3 149 241 243
3 284 149 243
3 163 148 254
3 283 163 254
3 285 165 150
3 246 262 285
3 223 244 246
3 150 219 223
3 285 150 223
3 246 285 223
3 286 166 151
3 249 266 286
3 230 247 249
3 208 224 230
3 151 202 208
3 286 151 208
3 230 249 286
3 208 230 286
3 287 167 152
3 257 272 287
3 238 250 257
3 213 231 238
3 198 209 213
3 152 196 198
3 287 152 198
3 257 287 198
3 238 257 198
3 213 238 198
3 272 287 210
3 257 272 210
3 250 257 210
3 238 250 210
3 231 238 210
3 181 170 231
3 199 181 231
3 210 199 231
3 273 288 211
3 258 273 211
3 251 258 211
3 239 251 211
3 232 239 211
3 182 171 232
3 200 182 232
3 211 200 232
3 146 134 154
3 225 252 146
3 193 191 225
3 146 154 159
3 193 225 146
3 159 193 146
3 153 135 155
3 226 255 153
3 194 192 226
3 153 155 160
3 194 226 153
3 160 194 153
3 84 82 78
3 80 84 78
3 92 90 86
3 88 92 86
3 108 101 97
3 99 108 97
3 124 120 116
3 118 124 116
3 29 23 114
3 122 29 114
3 56 51 94
3 105 56 94
3 76 49 103
3 129 76 103
3 2 0 134
3 156 2 134
3 2 0 134
3 156 2 134
3 126 110 156
3 176 126 156
3 131 126 176
3 179 131 176
3 131 126 176
3 179 131 176
3 85 83 79
3 81 85 79
3 93 91 87
3 89 93 87
3 109 102 98
3 100 109 98
3 125 121 117
3 119 125 117
3 144 142 138
3 140 144 138
3 74 68 41
3 66 74 41
3 131 66 41
3 110 131 41
3 75 71 42
3 67 75 42
3 132 67 42
3 111 132 42
3 71 42 111
3 144 71 111
3 73 43 113
3 145 73 113
3 77 50 104
3 130 77 104
3 133 127 177
3 180 133 177
3 128 112 157
3 178 128 157
3 3 1 136
3 158 3 136
3 30 24 115
3 123 30 115
3 57 52 95
3 106 57 95
3 214 172 168
3 203 214 168
3 299 185 172
3 203 289 299
3 214 203 299
3 172 214 299
3 187 183 174
3 295 189 187
3 293 295 187
3 297 293 187
3 291 297 187
3 280 291 187
3 276 280 187
3 216 205 276
3 187 174 216
3 276 187 216
3 274 233 220
3 227 263 274
3 235 227 274
3 220 235 274
3 215 173 169
3 204 215 169
3 300 186 174
3 205 290 300
3 216 205 300
3 174 216 300
3 188 184 175
3 296 190 188
3 294 296 188
3 298 294 188
3 292 298 188
3 281 292 188
3 277 281 188
3 217 206 277
3 188 175 217
3 277 188 217
3 275 234 221
3 228 264 275
3 236 228 275
3 221 236 275
3 9 13 12
3 9 12 8
3 45 9 8
3 45 8 44
3 45 44 68
3 69 45 68
3 69 68 61
3 62 69 61
3 55 62 61
3 55 61 54
3 55 54 21
3 22 55 21
3 5 22 21
3 5 21 4
3 13 5 4
3 13 4 12
3 60 59 62
3 63 60 62
3 70 63 62
3 70 62 69
3 46 70 69
3 46 69 45
3 46 45 9
3 10 46 9
3 10 9 13
3 14 10 13
3 14 13 5
3 6 14 5
3 6 5 25
3 26 6 25
3 60 26 25
3 60 25 59
3 36 32 31
3 36 31 35
3 36 35 37
3 38 36 37
3 38 37 33
3 34 38 33
3 32 34 33
3 32 33 31
3 47 72 70
3 47 70 46
3 47 46 10
3 11 47 10
3 11 10 14
3 15 11 14
3 15 14 6
3 7 15 6
3 7 6 27
3 28 7 27
3 72 28 27
3 72 27 70
3 65 40 39
3 65 39 64
3 48 65 64
3 48 64 47
3 48 47 16
3 17 48 16
3 17 16 39
3 40 17 39
3 268 270 269
3 268 269 267
3 279 268 267
3 279 267 278
3 253 279 278
3 253 278 252
3 253 252 146
3 147 253 146
3 147 146 161
3 162 147 161
3 270 162 161
3 270 161 269
3 260 284 283
3 260 283 259
3 260 259 242
3 243 260 242
3 241 243 242
3 241 242 240
3 241 240 148
3 149 241 148
3 149 148 163
3 164 149 163
3 284 164 163
3 284 163 283
3 254 253 282
3 283 254 282
3 283 282 162
3 163 283 162
3 148 163 162
3 148 162 147
3 254 148 147
3 254 147 253
3 262 285 284
3 262 284 261
3 262 261 245
3 246 262 245
3 244 246 245
3 244 245 243
3 244 243 222
3 223 244 222
3 219 223 222
3 219 222 218
3 219 218 149
3 150 219 149
3 150 149 164
3 165 150 164
3 285 165 164
3 285 164 284
3 266 286 285
3 266 285 265
3 266 265 248
3 249 266 248
3 247 249 248
3 247 248 246
3 247 246 229
3 230 247 229
3 224 230 229
3 224 229 223
3 224 223 207
3 208 224 207
3 202 208 207
3 202 207 201
3 202 201 150
3 151 202 150
3 151 150 165
3 166 151 165
3 286 166 165
3 286 165 285
3 272 287 286
3 272 286 271
3 272 271 256
3 257 272 256
3 250 257 256
3 250 256 249
3 250 249 237
3 238 250 237
3 231 238 237
3 231 237 230
3 231 230 212
3 213 231 212
3 209 213 212
3 209 212 208
3 209 208 197
3 198 209 197
3 196 198 197
3 196 197 195
3 196 195 151
3 152 196 151
3 152 151 166
3 167 152 166
3 287 167 166
3 287 166 286
3 273 272 257
3 258 273 257
3 251 258 257
3 251 257 250
3 251 250 238
3 239 251 238
3 232 239 238
3 232 238 231
3 232 231 170
3 171 232 170
3 171 170 181
3 182 171 181
3 200 182 181
3 200 181 199
3 200 199 210
3 211 200 210
3 288 211 210
3 288 210 287
3 273 288 287
3 273 287 272
3 255 153 146
3 255 146 252
3 226 255 252
3 226 252 225
3 226 225 191
3 192 226 191
3 192 191 193
3 194 192 193
3 194 193 159
3 160 194 159
3 155 160 159
3 155 159 154
3 155 154 134
3 135 155 134
3 135 134 146
3 153 135 146
3 75 71 68
3 75 68 74
3 67 75 74
3 67 74 66
3 132 67 66
3 132 66 131
3 111 132 131
3 111 131 110
3 111 110 41
3 42 111 41
3 42 41 68
3 71 42 68
3 81 79 78
3 81 78 80
3 81 80 84
3 85 81 84
3 85 84 82
3 83 85 82
3 79 83 82
3 79 82 78
3 89 87 86
3 89 86 88
3 89 88 92
3 93 89 92
3 93 92 90
3 91 93 90
3 87 91 90
3 87 90 86
3 100 98 97
3 100 97 99
3 100 99 108
3 109 100 108
3 109 108 101
3 102 109 101
3 98 102 101
3 98 101 97
3 119 117 116
3 119 116 118
3 119 118 124
3 125 119 124
3 125 124 120
3 121 125 120
3 117 121 120
3 117 120 116
3 140 138 137
3 140 137 139
3 140 139 143
3 144 140 143
3 144 143 141
3 142 144 141
3 138 142 141
3 138 141 137
3 145 73 71
3 145 71 144
3 113 145 144
3 113 144 111
3 113 111 42
3 43 113 42
3 43 42 71
3 73 43 71
3 130 77 76
3 130 76 129
3 104 130 129
3 104 129 103
3 104 103 49
3 50 104 49
3 50 49 76
3 77 50 76
3 136 134 156
3 158 136 156
3 158 156 2
3 3 158 2
3 1 3 2
3 1 2 0
3 136 1 0
3 136 0 134
3 123 30 29
3 123 29 122
3 115 123 122
3 115 122 114
3 115 114 23
3 24 115 23
3 24 23 29
3 30 24 29
3 107 58 56
3 107 56 105
3 96 107 105
3 96 105 94
3 96 94 51
3 53 96 51
3 53 51 56
3 58 53 56
3 177 176 179
3 180 177 179
3 180 179 131
3 133 180 131
3 127 133 131
3 127 131 126
3 177 127 126
3 177 126 176
3 178 128 126
3 178 126 176
3 157 178 176
3 157 176 156
3 157 156 110
3 112 157 110
3 112 110 126
3 128 112 126
3 204 215 214
3 204 214 203
3 204 203 168
3 169 204 168
3 169 168 172
3 173 169 172
3 215 173 172
3 215 172 214
3 216 174 172
3 216 172 214
3 205 216 214
3 205 214 203
3 290 205 203
3 290 203 289
3 290 289 299
3 300 290 299
3 300 299 185
3 186 300 185
3 174 186 185
3 174 185 172
3 188 187 189
3 190 188 189
3 296 190 189
3 296 189 295
3 294 296 295
3 294 295 293
3 298 294 293
3 298 293 297
3 292 298 297
3 292 297 291
3 292 291 280
3 281 292 280
3 277 281 280
3 277 280 276
3 277 276 205
3 206 277 205
3 206 205 216
3 217 206 216
3 217 216 174
3 175 217 174
3 175 174 183
3 184 175 183
3 188 184 183
3 188 183 187
3 236 221 220
3 236 220 235
3 228 236 235
3 228 235 227
3 264 228 227
3 264 227 263
3 264 263 274
3 275 264 274
3 275 274 233
3 234 275 233
3 221 234 233
3 221 233 220
