OFF
1582 3209 0
0.000 45.690 4.500
0.000 45.690 20.300
0.192 45.748 4.500
0.192 45.748 20.300
0.418 47.492 0.000
0.418 47.492 18.100
0.431 44.258 0.000
0.431 44.258 18.100
0.635 43.584 4.500
0.635 43.584 18.100
0.635 43.584 20.300
0.826 43.641 4.500
0.826 43.641 18.100
0.826 43.641 20.300
1.312 44.524 0.000
1.312 44.524 18.100
5.646 65.878 4.800
5.646 65.878 13.600
5.704 65.687 4.800
5.704 65.687 13.600
7.157 62.596 0.000
7.157 62.596 4.800
7.157 62.596 9.000
7.157 62.596 14.300
7.157 62.596 15.500
7.740 60.662 0.000
7.740 60.662 3.700
7.740 60.662 4.800
7.752 66.513 0.000
7.752 66.513 4.800
7.752 66.513 13.600
7.752 66.513 14.300
7.810 66.321 4.800
7.810 66.321 13.600
7.835 60.691 0.000
7.835 60.691 4.800
7.836 60.691 0.000
7.836 60.691 3.700
7.836 60.691 4.800
7.877 66.446 0.000
7.877 66.446 4.800
7.877 66.446 9.000
7.877 66.446 13.600
7.877 66.446 14.300
8.712 59.514 14.300
8.712 59.514 15.500
8.785 63.087 0.000
8.785 63.087 4.800
8.785 63.087 13.600
8.785 63.087 14.300
8.880 63.115 0.000
8.880 63.115 4.800
8.880 63.115 9.000
8.880 63.115 13.600
8.880 63.115 14.300
8.881 63.115 0.000
8.881 63.115 4.800
8.881 63.115 9.000
8.881 63.115 13.600
10.125 63.490 14.300
10.125 63.490 15.500
10.451 51.663 0.000
10.451 51.663 3.700
10.451 51.663 4.800
10.547 51.692 0.000
10.547 51.692 3.700
10.547 51.692 4.800
10.768 50.609 0.000
10.768 50.609 4.800
10.768 50.609 14.300
10.768 50.609 15.500
10.768 50.610 9.000
10.768 50.610 14.300
10.769 50.610 4.800
10.769 50.610 9.000
11.106 60.235 14.300
11.106 60.235 15.500
11.170 51.357 14.300
11.170 51.357 15.500
11.602 47.837 9.000
11.602 47.837 14.300
11.602 47.837 18.100
11.602 47.837 24.200
11.604 47.838 0.000
11.604 47.838 4.800
11.604 47.838 9.000
11.604 47.838 18.100
11.866 46.967 0.000
11.866 46.967 4.800
12.288 4.905 0.000
12.288 4.905 1.400
12.288 4.905 4.500
12.288 4.905 18.100
12.288 4.905 20.300
12.480 4.962 4.500
12.480 4.962 18.100
12.480 4.962 20.300
12.482 51.126 0.000
12.482 51.126 4.800
12.482 51.126 9.000
12.482 51.126 14.300
12.482 51.126 18.100
12.923 2.798 4.500
12.923 2.798 20.300
13.114 2.856 4.500
13.114 2.856 20.300
13.317 48.354 0.000
13.317 48.354 4.800
13.317 48.354 9.000
13.317 48.354 14.300
13.317 48.354 18.100
13.318 48.354 0.000
13.318 48.354 4.800
13.422 1.142 0.000
13.422 1.142 1.400
13.564 52.078 14.300
13.564 52.078 15.500
13.737 51.504 14.300
13.737 51.504 15.500
17.022 2.226 0.000
17.022 2.226 0.175
17.212 0.383 0.000
17.212 0.383 1.400
17.327 0.000 0.000
17.327 0.000 1.400
17.453 2.356 0.000
17.453 2.356 0.175
17.453 2.356 0.350
17.547 0.484 0.000
17.547 0.484 0.175
17.884 2.486 0.000
17.884 2.486 0.350
17.884 2.486 0.525
17.978 0.614 0.000
17.978 0.614 0.175
17.978 0.614 0.350
18.315 2.616 0.000
18.315 2.616 0.525
18.315 2.616 0.700
18.409 0.743 0.000
18.409 0.743 0.350
18.409 0.743 0.525
18.745 2.746 0.000
18.745 2.746 0.700
18.745 2.746 0.875
18.839 0.873 0.000
18.839 0.873 0.525
18.839 0.873 0.700
18.935 52.553 14.300
18.935 52.553 18.100
19.176 2.875 0.000
19.176 2.875 0.875
19.176 2.875 1.050
19.270 1.003 0.000
19.270 1.003 0.700
19.270 1.003 0.875
19.607 3.005 0.000
19.607 3.005 1.050
19.607 3.005 1.225
19.627 50.255 14.300
19.627 50.255 18.100
19.701 1.133 0.000
19.701 1.133 0.875
19.701 1.133 1.050
20.038 3.135 0.000
20.038 3.135 1.225
20.038 3.135 1.400
20.132 1.263 0.000
20.132 1.263 1.050
20.132 1.263 1.225
20.563 1.392 0.000
20.563 1.392 1.225
20.563 1.392 1.400
22.229 39.280 24.200
22.229 39.280 29.700
22.230 38.703 24.200
22.230 38.703 29.700
22.240 38.126 24.200
22.240 38.126 29.700
22.248 39.894 24.200
22.248 39.894 29.700
22.263 37.549 24.200
22.263 37.549 29.700
22.303 36.972 24.200
22.303 36.972 29.700
22.303 40.507 24.200
22.303 40.507 29.700
22.366 36.397 24.200
22.366 36.397 29.700
22.391 41.117 24.200
22.391 41.117 29.700
22.441 35.836 24.200
22.441 35.836 29.700
22.512 41.727 24.200
22.512 41.727 29.700
22.519 35.276 24.200
22.519 35.276 29.700
22.607 34.719 24.200
22.607 34.719 29.700
22.666 42.335 24.200
22.666 42.335 29.700
22.712 34.165 24.200
22.712 34.165 29.700
22.800 42.742 24.200
22.800 42.742 29.700
22.839 33.615 24.200
22.839 33.615 29.700
22.968 43.129 24.200
22.968 43.129 29.700
23.048 32.801 24.200
23.048 32.801 29.700
23.170 43.498 24.200
23.170 43.498 29.700
23.257 31.987 24.200
23.257 31.987 29.700
23.404 43.856 24.200
23.404 43.856 29.700
23.465 31.172 24.200
23.465 31.172 29.700
23.519 8.287 0.000
23.519 8.287 1.400
23.519 8.287 18.100
23.520 8.288 0.000
23.520 8.288 4.800
23.531 53.937 14.300
23.531 53.937 18.100
23.670 44.204 24.200
23.670 44.204 29.700
23.674 30.358 24.200
23.674 30.358 29.700
23.883 29.544 24.200
23.883 29.544 29.700
24.112 44.722 24.200
24.112 44.722 29.700
24.159 28.750 24.200
24.159 28.750 29.700
24.223 51.639 14.300
24.223 51.639 18.100
24.435 27.956 24.200
24.435 27.956 29.700
24.573 45.200 24.200
24.573 45.200 29.700
24.710 27.161 24.200
24.710 27.161 29.700
24.986 26.367 24.200
24.986 26.367 29.700
25.062 45.635 24.200
25.062 45.635 29.700
25.178 2.782 0.000
25.178 2.782 1.400
25.262 25.573 24.200
25.262 25.573 29.700
25.293 2.399 0.000
25.293 2.399 1.400
25.460 25.045 24.200
25.460 25.045 29.700
25.466 1.825 0.000
25.466 1.825 4.800
25.466 1.825 9.000
25.466 1.825 14.300
25.466 1.825 18.100
25.466 1.825 24.200
25.467 1.825 4.800
25.467 1.825 9.000
25.585 46.024 24.200
25.585 46.024 29.700
25.678 24.526 24.200
25.678 24.526 29.700
25.912 24.012 24.200
25.912 24.012 29.700
26.153 46.362 24.200
26.153 46.362 29.700
26.156 23.502 24.200
26.156 23.502 29.700
26.405 22.993 24.200
26.405 22.993 29.700
26.669 22.480 24.200
26.669 22.480 29.700
26.697 46.639 24.200
26.697 46.639 29.700
26.952 21.978 24.200
26.952 21.978 29.700
27.244 46.899 24.200
27.244 46.899 29.700
27.251 21.486 24.200
27.251 21.486 29.700
27.562 20.999 24.200
27.562 20.999 29.700
27.796 47.140 24.200
27.796 47.140 29.700
27.883 20.514 24.200
27.883 20.514 29.700
28.240 20.010 24.200
28.240 20.010 29.700
28.355 47.361 24.200
28.355 47.361 29.700
28.621 19.531 24.200
28.621 19.531 29.700
28.924 47.562 24.200
28.924 47.562 29.700
29.028 19.073 24.200
29.028 19.073 29.700
29.465 18.634 24.200
29.465 18.634 29.700
29.494 47.752 24.200
29.494 47.752 29.700
29.935 18.209 24.200
29.935 18.209 29.700
30.064 47.941 24.200
30.064 47.941 29.700
30.277 17.941 24.200
30.277 17.941 29.700
30.633 17.711 24.200
30.633 17.711 29.700
30.634 48.127 24.200
30.634 48.127 29.700
30.888 10.141 18.100
30.888 10.141 24.200
31.005 17.515 24.200
31.005 17.515 29.700
31.207 48.306 24.200
31.207 48.306 29.700
31.395 17.348 24.200
31.395 17.348 29.700
31.782 48.475 24.200
31.782 48.475 29.700
31.804 17.205 24.200
31.804 17.205 29.700
32.360 48.639 24.200
32.360 48.639 29.700
32.455 17.018 24.200
32.455 17.018 29.700
32.474 4.875 0.000
32.474 4.875 4.800
32.474 4.875 9.000
32.474 4.875 14.300
32.474 4.875 18.100
32.734 4.013 0.000
32.734 4.013 4.800
32.734 4.013 9.000
32.734 4.013 14.300
32.734 4.013 18.100
32.734 4.014 4.800
32.734 4.014 9.000
32.734 4.014 18.100
32.734 4.014 24.200
32.937 48.802 24.200
32.937 48.802 29.700
33.109 16.873 24.200
33.109 16.873 29.700
33.514 48.965 24.200
33.514 48.965 29.700
33.763 16.779 24.200
33.763 16.779 29.700
33.824 5.282 4.800
33.824 5.282 9.000
33.824 5.282 14.300
33.824 5.282 18.100
34.084 4.420 4.800
34.084 4.420 9.000
34.084 4.420 14.300
34.084 4.420 18.100
34.092 49.129 24.200
34.092 49.129 29.700
34.416 16.744 24.200
34.416 16.744 29.700
34.669 49.292 24.200
34.669 49.292 29.700
35.066 16.778 24.200
35.066 16.778 29.700
35.247 49.456 24.200
35.247 49.456 29.700
35.662 16.849 24.200
35.662 16.849 29.700
35.824 49.619 24.200
35.824 49.619 29.700
36.258 16.935 24.200
36.258 16.935 29.700
36.401 49.783 24.200
36.401 49.783 29.700
36.854 17.038 24.200
36.854 17.038 29.700
36.979 49.946 24.200
36.979 49.946 29.700
37.448 17.161 24.200
37.448 17.161 29.700
37.556 50.110 24.200
37.556 50.110 29.700
38.039 17.308 24.200
38.039 17.308 29.700
38.135 50.269 24.200
38.135 50.269 29.700
38.622 17.464 24.200
38.622 17.464 29.700
38.716 50.422 24.200
38.716 50.422 29.700
39.202 17.621 24.200
39.202 17.621 29.700
39.300 50.566 24.200
39.300 50.566 29.700
39.779 17.782 24.200
39.779 17.782 29.700
39.885 50.702 24.200
39.885 50.702 29.700
40.354 17.948 24.200
40.354 17.948 29.700
40.472 50.831 24.200
40.472 50.831 29.700
40.926 18.125 24.200
40.926 18.125 29.700
41.062 50.954 24.200
41.062 50.954 29.700
41.498 18.307 24.200
41.498 18.307 29.700
41.654 51.072 24.200
41.654 51.072 29.700
42.069 18.490 24.200
42.069 18.490 29.700
42.246 51.186 24.200
42.246 51.186 29.700
42.641 18.673 24.200
42.641 18.673 29.700
42.838 51.298 24.200
42.838 51.298 29.700
43.161 77.178 0.000
43.161 77.178 4.800
43.189 77.083 0.000
43.189 77.083 4.800
43.213 18.855 24.200
43.213 18.855 29.700
43.236 8.117 0.000
43.236 8.117 4.800
43.431 51.409 24.200
43.431 51.409 29.700
43.496 7.255 0.000
43.496 7.255 4.800
43.784 19.038 24.200
43.784 19.038 29.700
43.795 75.073 0.000
43.795 75.073 4.800
44.025 51.520 24.200
44.025 51.520 29.700
44.356 19.220 24.200
44.356 19.220 29.700
44.619 51.629 24.200
44.619 51.629 29.700
44.927 19.403 24.200
44.927 19.403 29.700
45.049 75.451 0.000
45.049 75.451 4.800
45.213 51.737 24.200
45.213 51.737 29.700
45.499 19.586 24.200
45.499 19.586 29.700
45.684 73.344 0.000
45.684 73.344 4.800
45.808 51.840 24.200
45.808 51.840 29.700
46.071 19.768 24.200
46.071 19.768 29.700
46.404 51.939 24.200
46.404 51.939 29.700
46.642 19.951 24.200
46.642 19.951 29.700
46.859 75.996 0.000
46.859 75.996 4.800
47.006 52.031 24.200
47.006 52.031 29.700
47.213 20.137 24.200
47.213 20.137 29.700
47.493 73.889 0.000
47.493 73.889 4.800
47.608 52.115 24.200
47.608 52.115 29.700
47.782 20.332 24.200
47.782 20.332 29.700
48.187 8.877 9.000
48.187 8.877 10.100
48.187 8.877 12.500
48.187 8.877 14.300
48.187 8.877 14.700
48.187 8.877 17.100
48.187 8.877 18.100
48.212 52.191 24.200
48.212 52.191 29.700
48.216 8.781 10.100
48.216 8.781 12.500
48.216 8.781 14.700
48.216 8.781 17.100
48.245 8.685 9.000
48.245 8.685 10.100
48.245 8.685 12.500
48.245 8.685 14.300
48.245 8.685 14.700
48.245 8.685 17.100
48.245 8.685 18.100
48.348 20.534 24.200
48.348 20.534 29.700
48.816 52.261 24.200
48.816 52.261 29.700
48.829 78.781 4.800
48.829 78.781 9.000
48.829 78.781 13.600
48.829 78.781 14.300
48.896 78.906 4.800
48.896 78.906 13.600
48.896 78.906 14.300
48.911 20.743 24.200
48.911 20.743 29.700
48.954 78.714 4.800
48.954 78.714 13.600
49.059 9.139 9.000
49.059 9.139 10.100
49.059 9.139 12.500
49.059 9.139 14.300
49.059 9.139 14.700
49.059 9.139 17.100
49.059 9.139 18.100
49.087 9.043 10.100
49.087 9.043 12.500
49.087 9.043 14.700
49.087 9.043 17.100
49.116 8.948 9.000
49.116 8.948 10.100
49.116 8.948 12.500
49.116 8.948 14.300
49.116 8.948 14.700
49.116 8.948 17.100
49.116 8.948 18.100
49.117 8.948 9.000
49.117 8.948 14.300
49.421 52.326 24.200
49.421 52.326 29.700
49.434 76.772 9.000
49.434 76.772 13.600
49.434 76.772 14.300
49.435 76.772 4.800
49.435 76.772 9.000
49.435 76.772 13.600
49.471 20.960 24.200
49.471 20.960 29.700
49.530 76.800 4.800
49.530 76.800 13.600
49.530 76.800 14.300
50.030 52.388 24.200
50.030 52.388 29.700
50.031 21.184 24.200
50.031 21.184 29.700
50.590 21.412 24.200
50.590 21.412 29.700
50.639 52.450 24.200
50.639 52.450 29.700
51.002 79.540 4.800
51.002 79.540 13.600
51.060 79.349 4.800
51.060 79.349 13.600
51.146 21.643 24.200
51.146 21.643 29.700
51.248 52.509 24.200
51.248 52.509 29.700
51.523 75.422 14.300
51.523 75.422 18.100
51.702 21.877 24.200
51.702 21.877 29.700
51.857 52.565 24.200
51.857 52.565 29.700
52.209 10.088 0.000
52.209 10.088 0.800
52.209 10.088 3.200
52.209 10.088 4.800
52.209 10.088 5.600
52.209 10.088 8.000
52.209 10.088 9.000
52.209 10.088 10.100
52.209 10.088 12.500
52.209 10.088 14.300
52.238 9.992 0.800
52.238 9.992 3.200
52.238 9.992 5.600
52.238 9.992 8.000
52.238 9.992 10.100
52.238 9.992 12.500
52.257 22.112 24.200
52.257 22.112 29.700
52.267 9.896 0.000
52.267 9.896 0.800
52.267 9.896 3.200
52.267 9.896 4.800
52.267 9.896 5.600
52.267 9.896 8.000
52.267 9.896 9.000
52.267 9.896 10.100
52.267 9.897 0.000
52.267 9.897 4.800
52.267 9.897 9.000
52.267 9.897 12.500
52.267 9.897 14.300
52.467 52.616 24.200
52.467 52.616 29.700
52.814 22.348 24.200
52.814 22.348 29.700
53.080 10.350 0.000
53.080 10.350 0.800
53.080 10.350 3.200
53.080 10.350 4.800
53.080 10.350 5.600
53.080 10.350 8.000
53.080 10.350 9.000
53.080 10.350 10.100
53.080 10.350 12.500
53.080 10.350 14.300
53.109 10.255 0.800
53.109 10.255 3.200
53.109 10.255 5.600
53.109 10.255 8.000
53.109 10.255 10.100
53.109 10.255 12.500
53.138 10.159 0.000
53.138 10.159 0.800
53.138 10.159 3.200
53.138 10.159 4.800
53.138 10.159 5.600
53.138 10.159 8.000
53.138 10.159 9.000
53.138 10.159 10.100
53.138 10.159 12.500
53.138 10.159 14.300
53.175 52.673 24.200
53.175 52.673 29.700
53.369 22.584 24.200
53.369 22.584 29.700
53.645 10.520 9.000
53.645 10.520 14.300
53.645 10.521 9.000
53.645 10.521 10.100
53.645 10.521 12.500
53.645 10.521 14.300
53.674 10.425 10.100
53.674 10.425 12.500
53.703 10.329 9.000
53.703 10.329 10.100
53.703 10.329 12.500
53.703 10.329 14.300
53.884 52.730 24.200
53.884 52.730 29.700
53.924 22.823 24.200
53.924 22.823 29.700
54.001 60.608 14.300
54.001 60.608 18.100
54.001 60.608 24.200
54.117 60.225 14.300
54.117 60.225 18.100
54.117 60.225 21.200
54.117 60.225 24.200
54.477 23.066 24.200
54.477 23.066 29.700
54.516 10.783 9.000
54.516 10.783 14.300
54.517 10.783 9.000
54.517 10.783 10.100
54.517 10.783 12.500
54.517 10.783 14.300
54.545 10.687 10.100
54.545 10.687 12.500
54.574 10.592 9.000
54.574 10.592 10.100
54.574 10.592 12.500
54.574 10.592 14.300
54.593 52.787 24.200
54.593 52.787 29.700
55.029 23.312 24.200
55.029 23.312 29.700
55.301 52.844 24.200
55.301 52.844 29.700
55.581 23.568 24.200
55.581 23.568 29.700
55.821 61.156 14.300
55.821 61.156 18.100
55.821 61.156 24.200
55.821 61.156 39.400
55.847 54.481 18.100
55.847 54.481 21.200
55.847 54.481 24.200
55.936 60.773 14.300
55.936 60.773 18.100
55.936 60.773 21.200
55.936 60.773 24.200
56.010 52.901 24.200
56.010 52.901 29.700
56.130 23.831 24.200
56.130 23.831 29.700
56.230 11.299 0.000
56.230 11.299 0.800
56.230 11.299 3.200
56.230 11.299 4.800
56.230 11.299 5.600
56.230 11.299 8.000
56.230 11.299 9.000
56.230 11.299 10.100
56.230 11.299 12.500
56.230 11.299 14.300
56.230 11.299 14.700
56.230 11.299 17.100
56.230 11.299 18.100
56.231 11.299 0.000
56.231 11.299 3.200
56.231 11.299 4.800
56.231 11.299 9.000
56.231 11.299 14.300
56.259 11.203 0.800
56.259 11.203 3.200
56.259 11.203 5.600
56.259 11.203 8.000
56.259 11.203 14.700
56.259 11.203 17.100
56.259 11.204 10.100
56.259 11.204 12.500
56.288 11.108 0.000
56.288 11.108 0.800
56.288 11.108 3.200
56.288 11.108 4.800
56.288 11.108 5.600
56.288 11.108 8.000
56.288 11.108 9.000
56.288 11.108 10.100
56.288 11.108 12.500
56.288 11.108 14.300
56.288 11.108 14.700
56.288 11.108 17.100
56.288 11.108 18.100
56.675 24.100 24.200
56.675 24.100 29.700
57.101 11.561 14.300
57.101 11.561 14.700
57.102 11.561 0.000
57.102 11.561 4.800
57.102 11.561 9.000
57.102 11.561 14.300
57.102 11.561 14.700
57.102 11.561 17.100
57.102 11.562 0.000
57.102 11.562 0.800
57.102 11.562 3.200
57.102 11.562 4.800
57.102 11.562 5.600
57.102 11.562 8.000
57.102 11.562 9.000
57.102 11.562 10.100
57.102 11.562 12.500
57.102 11.562 14.300
57.102 11.562 17.100
57.102 11.562 18.100
57.130 11.466 14.700
57.130 11.466 17.100
57.131 11.466 0.800
57.131 11.466 3.200
57.131 11.466 5.600
57.131 11.466 8.000
57.131 11.466 10.100
57.131 11.466 12.500
57.159 11.370 0.000
57.159 11.370 0.800
57.159 11.370 3.200
57.159 11.370 4.800
57.159 11.370 5.600
57.159 11.370 8.000
57.159 11.370 9.000
57.159 11.370 10.100
57.159 11.370 12.500
57.159 11.370 14.300
57.159 11.370 14.700
57.159 11.370 17.100
57.159 11.370 18.100
57.217 24.376 24.200
57.217 24.376 29.700
57.552 11.697 9.000
57.552 11.697 10.100
57.552 11.697 12.500
57.552 11.697 14.300
57.552 11.697 14.700
57.552 11.697 17.100
57.552 11.697 18.100
57.580 11.601 10.100
57.580 11.601 12.500
57.581 11.601 14.700
57.581 11.601 17.100
57.609 11.506 9.000
57.609 11.506 10.100
57.609 11.506 12.500
57.609 11.506 14.300
57.609 11.506 14.700
57.609 11.506 18.100
57.610 11.506 17.100
57.610 11.506 18.100
57.667 55.029 18.100
57.667 55.029 21.200
57.667 55.029 24.200
57.757 24.656 24.200
57.757 24.656 29.700
58.117 53.535 24.200
58.117 53.535 29.700
58.148 79.396 0.000
58.148 79.396 4.800
58.157 79.399 4.800
58.157 79.399 9.000
58.157 79.399 14.300
58.158 79.398 0.000
58.158 79.398 4.800
58.158 79.399 0.000
58.158 79.399 0.500
58.158 79.399 3.000
58.158 79.399 4.800
58.158 79.399 6.200
58.158 79.399 7.500
58.158 79.399 10.200
58.158 79.399 11.500
58.158 79.399 14.300
58.186 79.303 0.000
58.186 79.303 0.500
58.186 79.303 3.000
58.186 79.303 4.800
58.186 79.303 6.200
58.186 79.303 7.500
58.186 79.303 9.000
58.186 79.303 10.200
58.186 79.303 11.500
58.186 79.303 14.300
58.299 24.940 24.200
58.299 24.940 29.700
58.423 11.959 14.300
58.423 11.959 14.700
58.423 11.959 17.100
58.423 11.960 9.000
58.423 11.960 10.100
58.423 11.960 12.500
58.423 11.960 14.300
58.423 11.960 17.100
58.423 11.960 18.100
58.452 11.864 10.100
58.452 11.864 12.500
58.452 11.864 14.700
58.452 11.864 17.100
58.481 11.768 9.000
58.481 11.768 10.100
58.481 11.768 12.500
58.481 11.768 14.300
58.481 11.768 14.700
58.481 11.768 17.100
58.481 11.768 18.100
58.841 25.225 24.200
58.841 25.225 29.700
59.381 25.512 24.200
59.381 25.512 29.700
59.920 25.802 24.200
59.920 25.802 29.700
60.456 26.096 24.200
60.456 26.096 29.700
60.647 80.148 0.000
60.647 80.148 0.500
60.647 80.148 3.000
60.647 80.148 4.800
60.676 80.053 0.000
60.676 80.053 0.500
60.676 80.053 3.000
60.676 80.053 4.800
61.079 26.440 24.200
61.079 26.440 29.700
61.701 26.784 24.200
61.701 26.784 29.700
61.975 13.029 0.000
61.975 13.029 0.800
61.975 13.029 3.200
61.975 13.029 4.800
61.975 13.029 5.600
61.975 13.029 8.000
61.975 13.029 9.000
61.975 13.029 10.100
61.975 13.029 12.500
61.975 13.029 14.300
61.975 13.029 14.700
61.975 13.029 17.100
61.975 13.029 18.100
62.004 12.933 14.700
62.004 12.933 17.100
62.004 12.934 0.800
62.004 12.934 3.200
62.004 12.934 5.600
62.004 12.934 8.000
62.004 12.934 10.100
62.004 12.934 12.500
62.033 12.838 0.000
62.033 12.838 0.800
62.033 12.838 3.200
62.033 12.838 4.800
62.033 12.838 5.600
62.033 12.838 8.000
62.033 12.838 9.000
62.033 12.838 10.100
62.033 12.838 12.500
62.033 12.838 14.300
62.033 12.838 14.700
62.033 12.838 17.100
62.033 12.838 18.100
62.083 80.581 0.000
62.083 80.581 0.500
62.083 80.581 3.000
62.083 80.581 4.800
62.112 80.485 0.000
62.112 80.485 0.500
62.112 80.485 3.000
62.112 80.485 4.800
62.112 80.486 0.000
62.112 80.486 4.800
62.323 27.128 24.200
62.323 27.128 29.700
62.846 13.292 0.000
62.846 13.292 4.800
62.846 13.292 9.000
62.846 13.292 12.500
62.846 13.292 14.300
62.846 13.292 14.700
62.846 13.292 18.100
62.847 13.292 0.000
62.847 13.292 0.800
62.847 13.292 3.200
62.847 13.292 4.800
62.847 13.292 5.600
62.847 13.292 8.000
62.847 13.292 9.000
62.847 13.292 10.100
62.847 13.292 12.500
62.847 13.292 14.700
62.847 13.292 17.100
62.847 13.292 18.100
62.875 13.196 0.800
62.875 13.196 3.200
62.875 13.196 5.600
62.875 13.196 8.000
62.875 13.196 10.100
62.875 13.196 12.500
62.875 13.196 14.700
62.875 13.196 17.100
62.904 13.100 0.000
62.904 13.100 0.800
62.904 13.100 3.200
62.904 13.100 4.800
62.904 13.100 5.600
62.904 13.100 8.000
62.904 13.100 9.000
62.904 13.100 10.100
62.904 13.100 12.500
62.904 13.100 14.300
62.904 13.100 14.700
62.904 13.100 17.100
62.904 13.100 18.100
62.945 27.472 24.200
62.945 27.472 29.700
63.567 27.816 24.200
63.567 27.816 29.700
64.192 26.437 18.100
64.192 26.437 21.200
64.192 26.437 24.200
64.573 81.331 0.000
64.573 81.331 0.500
64.573 81.331 3.000
64.573 81.331 4.800
64.601 81.235 0.000
64.601 81.235 0.500
64.601 81.235 3.000
64.601 81.235 4.800
64.602 81.235 0.000
64.602 81.235 4.800
65.674 28.450 24.200
65.674 28.450 29.700
65.807 21.076 21.200
65.807 21.076 24.200
65.922 20.693 18.100
65.922 20.693 24.200
66.009 81.764 0.000
66.009 81.764 0.500
66.009 81.764 3.000
66.009 81.764 4.800
66.037 81.668 0.000
66.037 81.668 0.500
66.037 81.668 3.000
66.037 81.668 4.800
66.038 81.668 0.000
66.038 81.668 4.800
66.107 27.014 18.100
66.107 27.014 21.200
66.107 27.014 24.200
66.284 14.327 0.000
66.284 14.327 0.800
66.284 14.327 3.200
66.284 14.327 4.800
66.284 14.327 5.600
66.284 14.327 8.000
66.284 14.327 9.000
66.284 14.327 10.100
66.284 14.327 12.500
66.284 14.327 14.300
66.284 14.327 14.700
66.284 14.327 17.100
66.284 14.327 18.100
66.313 14.231 0.800
66.313 14.231 3.200
66.313 14.231 5.600
66.313 14.231 8.000
66.313 14.231 10.100
66.313 14.231 12.500
66.313 14.231 14.700
66.313 14.231 17.100
66.341 14.136 14.300
66.341 14.136 14.700
66.342 14.136 0.000
66.342 14.136 0.800
66.342 14.136 3.200
66.342 14.136 4.800
66.342 14.136 5.600
66.342 14.136 8.000
66.342 14.136 9.000
66.342 14.136 10.100
66.342 14.136 12.500
66.342 14.136 14.300
66.342 14.136 17.100
66.342 14.136 18.100
67.155 14.589 0.000
67.155 14.589 0.800
67.155 14.589 3.200
67.155 14.589 4.800
67.155 14.589 5.600
67.155 14.589 8.000
67.155 14.589 9.000
67.155 14.589 10.100
67.155 14.589 12.500
67.155 14.589 14.300
67.155 14.589 14.700
67.155 14.589 17.100
67.155 14.589 18.100
67.155 14.590 3.200
67.155 14.590 4.800
67.155 14.590 14.300
67.184 14.494 0.800
67.184 14.494 3.200
67.184 14.494 5.600
67.184 14.494 8.000
67.184 14.494 10.100
67.184 14.494 12.500
67.184 14.494 14.700
67.184 14.494 17.100
67.213 14.398 0.000
67.213 14.398 0.800
67.213 14.398 3.200
67.213 14.398 4.800
67.213 14.398 5.600
67.213 14.398 8.000
67.213 14.398 9.000
67.213 14.398 10.100
67.213 14.398 12.500
67.213 14.398 14.300
67.213 14.398 14.700
67.213 14.398 17.100
67.213 14.398 18.100
67.722 21.653 21.200
67.722 21.653 24.200
67.837 21.270 14.300
67.837 21.270 18.100
67.837 21.270 24.200
67.837 21.270 39.400
68.498 82.514 0.000
68.498 82.514 0.500
68.498 82.514 3.000
68.498 82.514 4.800
68.527 82.418 0.000
68.527 82.418 0.500
68.527 82.418 3.000
68.527 82.418 4.800
69.715 80.901 14.300
69.715 80.901 18.100
69.934 82.946 0.000
69.934 82.946 0.500
69.934 82.946 3.000
69.934 82.946 4.800
69.963 82.850 0.000
69.963 82.850 4.800
69.963 82.851 0.000
69.963 82.851 0.500
69.963 82.851 3.000
69.963 82.851 4.800
72.424 83.696 0.000
72.424 83.696 0.500
72.424 83.696 3.000
72.424 83.696 4.800
72.453 83.600 0.000
72.453 83.600 0.500
72.453 83.600 3.000
72.453 83.600 4.800
72.871 16.311 12.500
72.871 16.311 14.300
72.871 16.311 14.700
72.871 16.311 17.100
72.871 16.311 18.100
72.872 16.311 0.000
72.872 16.311 0.800
72.872 16.311 3.200
72.872 16.311 4.800
72.872 16.311 5.600
72.872 16.311 8.000
72.872 16.311 9.000
72.872 16.311 10.100
72.872 16.311 12.500
72.872 16.311 14.300
72.872 16.311 18.100
72.900 16.215 0.800
72.900 16.215 3.200
72.900 16.215 5.600
72.900 16.215 8.000
72.900 16.215 10.100
72.900 16.215 12.500
72.900 16.215 14.700
72.900 16.215 17.100
72.929 16.119 9.000
72.929 16.119 10.100
72.929 16.120 0.000
72.929 16.120 0.800
72.929 16.120 3.200
72.929 16.120 4.800
72.929 16.120 5.600
72.929 16.120 8.000
72.929 16.120 9.000
72.929 16.120 12.500
72.929 16.120 14.300
72.929 16.120 14.700
72.929 16.120 17.100
72.929 16.120 18.100
73.742 16.574 14.300
73.742 16.574 14.700
73.743 16.573 0.000
73.743 16.573 4.800
73.743 16.573 9.000
73.743 16.573 10.100
73.743 16.573 12.500
73.743 16.573 14.300
73.743 16.574 0.000
73.743 16.574 0.800
73.743 16.574 3.200
73.743 16.574 4.800
73.743 16.574 5.600
73.743 16.574 8.000
73.743 16.574 9.000
73.743 16.574 14.300
73.743 16.574 14.700
73.743 16.574 17.100
73.743 16.574 18.100
73.771 16.478 14.700
73.771 16.478 17.100
73.772 16.478 0.800
73.772 16.478 3.200
73.772 16.478 4.800
73.772 16.478 5.600
73.772 16.478 8.000
73.772 16.478 9.000
73.772 16.478 10.100
73.772 16.478 12.500
73.772 16.478 14.300
73.800 16.382 0.000
73.800 16.382 0.800
73.800 16.382 3.200
73.800 16.382 4.800
73.800 16.382 5.600
73.800 16.382 8.000
73.800 16.382 9.000
73.800 16.382 10.100
73.800 16.382 12.500
73.800 16.382 14.300
73.800 16.382 14.700
73.800 16.382 17.100
73.800 16.382 18.100
73.801 16.382 9.000
74.013 66.636 14.300
74.013 66.636 18.100
74.013 66.636 24.200
74.013 66.636 39.400
77.393 85.193 0.000
77.393 85.193 4.800
77.970 83.278 0.000
77.970 83.278 4.800
78.749 19.021 0.000
78.749 19.021 4.800
78.855 18.113 14.300
78.855 18.113 14.700
78.856 18.113 9.000
78.856 18.113 10.100
78.856 18.113 12.500
78.856 18.113 14.300
78.856 18.113 14.700
78.856 18.113 17.100
78.856 18.113 18.100
78.856 18.114 9.000
78.856 18.114 14.300
78.856 18.114 18.100
78.884 18.018 14.700
78.884 18.018 17.100
78.885 18.018 10.100
78.885 18.018 12.500
78.913 17.922 14.300
78.913 17.922 14.700
78.913 17.922 17.100
78.913 17.922 18.100
78.914 17.922 9.000
78.914 17.922 10.100
78.914 17.922 12.500
78.914 17.922 14.300
78.914 17.922 18.100
79.067 17.968 0.000
79.067 17.968 4.800
79.727 18.375 14.300
79.727 18.376 9.000
79.727 18.376 10.100
79.727 18.376 12.500
79.727 18.376 14.300
79.727 18.376 14.700
79.727 18.376 17.100
79.727 18.376 18.100
79.756 18.280 10.100
79.756 18.280 12.500
79.756 18.280 14.700
79.756 18.280 17.100
79.784 18.184 14.300
79.785 18.184 9.000
79.785 18.184 10.100
79.785 18.184 12.500
79.785 18.184 14.300
79.785 18.184 14.700
79.785 18.184 17.100
79.785 18.184 18.100
79.785 18.185 9.000
80.361 86.087 0.000
80.361 86.087 4.800
80.361 86.087 9.000
80.361 86.087 14.300
80.362 86.087 4.800
80.362 86.087 6.200
80.362 86.087 7.500
80.362 86.087 10.200
80.362 86.087 11.500
80.362 86.087 14.300
80.390 85.991 4.800
80.390 85.991 6.200
80.390 85.991 7.500
80.390 85.991 10.200
80.390 85.991 11.500
80.390 85.991 14.300
80.391 85.991 4.800
80.391 85.991 9.000
80.391 85.991 14.300
80.938 84.172 0.000
80.938 84.172 4.800
83.617 87.068 0.000
83.617 87.068 4.800
83.617 87.068 5.800
83.617 87.068 9.000
83.617 87.068 11.900
83.617 87.068 14.300
83.646 86.972 0.000
83.646 86.972 4.800
83.646 86.972 5.800
83.646 86.972 9.000
83.646 86.972 11.900
83.646 86.972 14.300
85.192 21.902 0.000
85.192 21.902 4.800
85.452 21.040 0.000
85.452 21.040 4.800
86.030 26.749 14.300
86.030 26.749 18.100
86.030 26.749 24.200
86.030 26.749 39.400
86.743 77.039 0.000
86.743 77.039 4.800
86.947 20.550 4.800
86.947 20.550 5.600
86.947 20.550 8.000
86.947 20.550 9.000
86.947 20.550 14.300
86.947 20.551 9.000
86.947 20.551 10.100
86.947 20.551 12.500
86.947 20.551 14.300
86.975 20.455 5.600
86.975 20.455 8.000
86.975 20.455 10.100
86.975 20.455 12.500
87.004 20.359 4.800
87.004 20.359 5.600
87.004 20.359 8.000
87.004 20.359 9.000
87.004 20.359 10.100
87.004 20.359 12.500
87.004 20.359 14.300
87.634 22.637 0.000
87.634 22.637 4.800
87.818 20.813 4.800
87.818 20.813 5.600
87.818 20.813 8.000
87.818 20.813 9.000
87.818 20.813 10.100
87.818 20.813 12.500
87.818 20.813 14.300
87.847 20.717 5.600
87.847 20.717 8.000
87.847 20.717 10.100
87.847 20.717 12.500
87.875 20.621 9.000
87.875 20.621 14.300
87.876 20.621 4.800
87.876 20.621 5.600
87.876 20.621 8.000
87.876 20.621 9.000
87.876 20.621 10.100
87.876 20.621 12.500
87.876 20.621 14.300
87.876 20.621 18.100
87.876 20.622 9.000
88.182 20.818 0.000
88.182 20.818 0.500
88.182 20.818 4.400
88.182 20.818 4.800
88.211 20.722 0.000
88.211 20.722 0.500
88.211 20.722 4.400
88.211 20.722 4.800
88.820 32.393 0.000
88.820 32.393 4.300
88.820 32.393 4.800
88.964 69.666 0.000
88.964 69.666 4.800
89.669 67.325 14.300
89.669 67.326 4.800
89.669 67.326 5.600
89.669 67.326 6.400
89.669 67.326 9.000
89.669 67.326 14.300
89.765 67.354 4.800
89.765 67.354 14.300
90.435 27.032 0.000
90.435 27.032 4.300
90.435 27.032 4.800
91.341 21.770 0.000
91.341 21.770 4.800
91.342 21.770 0.000
91.342 21.770 0.500
91.342 21.770 4.400
91.342 21.770 4.800
91.370 21.674 0.000
91.370 21.674 0.500
91.370 21.674 4.400
91.370 21.674 4.800
91.371 21.674 0.000
91.371 21.674 4.800
91.391 27.320 0.000
91.391 27.320 4.300
91.391 27.320 4.800
93.184 56.004 0.000
93.184 56.004 4.300
93.184 56.004 4.800
93.184 56.004 5.600
93.266 22.454 0.000
93.266 22.454 4.800
93.266 22.454 5.600
93.266 22.454 8.000
93.266 22.454 9.000
93.266 22.454 10.100
93.266 22.454 12.500
93.266 22.454 14.300
93.295 22.358 5.600
93.295 22.358 8.000
93.295 22.358 10.100
93.295 22.358 12.500
93.324 22.262 0.000
93.324 22.262 4.800
93.324 22.262 5.600
93.324 22.262 8.000
93.324 22.262 9.000
93.324 22.262 10.100
93.324 22.262 12.500
93.324 22.262 14.300
93.717 54.238 5.600
93.717 54.238 6.400
94.137 22.716 0.000
94.137 22.716 4.800
94.137 22.716 5.600
94.137 22.716 8.000
94.137 22.716 9.000
94.137 22.716 10.100
94.137 22.716 12.500
94.137 22.716 14.300
94.138 22.716 9.000
94.166 22.620 5.600
94.166 22.620 8.000
94.166 22.620 10.100
94.166 22.620 12.500
94.195 22.525 0.000
94.195 22.525 4.800
94.195 22.525 5.600
94.195 22.525 8.000
94.195 22.525 9.000
94.195 22.525 10.100
94.195 22.525 12.500
94.195 22.525 14.300
94.943 84.835 0.000
94.943 84.835 4.800
95.136 90.433 0.000
95.136 90.433 4.800
95.136 90.433 5.800
95.136 90.433 9.000
95.136 90.433 11.900
95.136 90.433 14.300
95.203 90.557 4.800
95.203 90.557 5.800
95.203 90.557 11.900
95.203 90.557 14.300
95.436 83.197 0.000
95.436 83.197 4.800
95.886 87.944 0.000
95.886 87.944 4.800
95.886 87.944 5.800
95.886 87.944 9.000
95.886 87.944 11.900
95.886 87.944 14.300
95.981 87.972 4.800
95.981 87.972 5.800
95.981 87.972 9.000
95.981 87.972 11.900
95.981 87.972 14.300
95.981 87.973 0.000
95.981 87.973 4.800
95.981 87.973 9.000
95.981 87.973 14.300
96.713 23.492 9.000
96.713 23.492 10.100
96.713 23.492 12.500
96.713 23.492 14.300
96.742 23.396 10.100
96.742 23.396 12.500
96.762 85.383 0.000
96.762 85.383 4.800
96.771 23.300 9.000
96.771 23.300 10.100
96.771 23.300 12.500
96.771 23.300 14.300
96.771 23.301 9.000
97.255 83.745 0.000
97.255 83.745 4.800
97.584 23.754 9.000
97.584 23.754 10.100
97.584 23.754 12.500
97.584 23.754 14.300
97.585 23.754 9.000
97.585 23.754 14.300
97.613 23.659 10.100
97.613 23.659 12.500
97.642 23.563 9.000
97.642 23.563 10.100
97.642 23.563 12.500
97.642 23.563 14.300
98.233 80.500 0.000
98.233 80.500 4.800
98.436 24.011 9.000
98.436 24.011 12.500
98.436 24.011 14.300
98.437 24.011 9.000
98.437 24.011 10.100
98.437 24.011 12.500
98.437 24.011 14.300
98.465 23.915 10.100
98.465 23.915 12.500
98.494 23.819 9.000
98.494 23.820 9.000
98.494 23.820 10.100
98.494 23.820 12.500
98.494 23.820 14.300
99.049 36.190 4.800
99.049 36.190 9.000
99.049 36.190 14.300
99.145 36.218 4.800
99.145 36.218 14.300
99.308 24.273 9.000
99.308 24.273 10.100
99.308 24.273 12.500
99.308 24.273 14.300
99.308 24.274 9.000
99.308 24.274 14.300
99.337 24.178 10.100
99.337 24.178 12.500
99.343 35.563 0.000
99.343 35.563 4.300
99.343 35.563 4.800
99.365 24.082 9.000
99.365 24.082 10.100
99.365 24.082 12.500
99.365 24.082 14.300
99.366 24.082 9.000
99.373 25.442 0.000
99.373 25.442 4.300
99.373 25.442 4.800
100.007 36.478 4.800
100.007 36.478 9.000
100.007 36.478 14.300
100.139 25.673 0.000
100.139 25.673 4.300
100.139 25.673 4.800
100.454 73.127 0.000
100.454 73.127 4.800
100.515 24.428 0.000
100.515 24.428 4.300
100.515 24.428 4.800
100.734 24.703 4.800
100.734 24.703 5.600
100.734 24.703 8.000
100.734 24.703 9.000
100.734 24.703 10.100
100.734 24.703 12.500
100.734 24.703 14.300
100.735 24.703 9.000
100.763 24.607 5.600
100.763 24.607 8.000
100.763 24.607 10.100
100.763 24.607 12.500
100.792 24.511 9.000
100.792 24.511 10.100
100.792 24.511 12.500
100.792 24.511 14.300
100.792 24.512 4.800
100.792 24.512 5.600
100.792 24.512 8.000
100.792 24.512 9.000
101.159 70.786 4.800
101.159 70.786 5.600
101.159 70.786 6.400
101.159 70.786 9.000
101.159 70.786 14.300
101.606 24.965 9.000
101.606 24.965 10.100
101.606 24.965 12.500
101.606 24.965 14.300
101.606 24.966 4.800
101.606 24.966 5.600
101.606 24.966 8.000
101.606 24.966 9.000
101.635 24.870 5.600
101.635 24.870 8.000
101.635 24.870 10.100
101.635 24.870 12.500
101.663 24.774 4.800
101.663 24.774 5.600
101.663 24.774 8.000
101.663 24.774 9.000
101.663 24.774 10.100
101.663 24.774 12.500
101.663 24.774 14.300
101.664 24.774 9.000
103.377 25.290 4.800
103.377 25.290 9.000
103.377 25.290 14.300
104.196 59.321 0.000
104.196 59.321 4.300
104.579 59.436 0.000
104.579 59.436 4.300
104.579 59.436 4.800
104.579 59.436 5.600
105.111 57.669 5.600
105.111 57.669 6.400
109.007 27.404 0.000
109.007 27.404 4.300
109.122 27.021 0.000
109.122 27.021 4.300
113.411 28.730 0.000
113.411 28.730 4.300
113.910 28.463 0.000
113.910 28.463 4.300
113.910 28.463 4.800
3 93 96 105
3 103 93 105
3 3 13 10
3 1 3 10
3 1343 1485 1482
3 1338 1343 1482
3 1419 1431 1426
3 1266 1260 1419
3 1414 1266 1419
3 1426 1414 1419
3 1242 1248 821
3 812 1242 821
3 40 56 47
3 541 536 500
3 504 541 500
3 29 504 500
3 40 47 29
3 500 40 29
3 262 84 107
3 342 262 107
3 333 342 107
3 354 333 107
3 587 358 354
3 569 587 354
3 604 569 354
3 720 620 604
3 694 720 604
3 743 694 604
3 893 763 743
3 872 893 743
3 1017 945 925
3 994 1017 925
3 1126 1053 1029
3 1105 1126 1029
3 1293 1168 1158
3 1280 1293 1158
3 1380 1315 1302
3 1368 1380 1302
3 1533 1403 1390
3 1517 1533 1390
3 1546 1517 1390
3 1562 1554 1546
3 1506 1562 1546
3 1482 1506 1546
3 1338 1482 1546
3 1430 1537 1338
3 1425 1430 1338
3 1413 1425 1338
3 1265 1413 1338
3 1238 1259 1265
3 1253 1238 1265
3 536 803 820
3 40 500 536
3 56 40 536
3 73 21 56
3 98 73 56
3 107 98 56
3 354 107 56
3 604 354 56
3 743 604 56
3 872 743 56
3 925 872 56
3 994 925 56
3 1029 994 56
3 1105 1029 56
3 1146 1105 56
3 1280 1158 1146
3 1368 1302 1280
3 1546 1390 1368
3 1338 1546 1368
3 1265 1338 1368
3 1253 1265 1368
3 820 1253 1368
3 536 820 1368
3 56 536 1368
3 1280 1146 56
3 1368 1280 56
3 1329 1325 1351
3 1355 1329 1351
3 121 248 252
3 123 121 252
3 133 128 119
3 125 133 119
3 139 133 125
3 130 139 125
3 145 139 130
3 136 145 130
3 153 145 136
3 142 153 136
3 161 153 142
3 150 161 142
3 167 161 150
3 156 167 150
3 170 167 156
3 164 170 156
3 113 89 219
3 164 113 219
3 170 164 219
3 248 170 219
3 1571 1387 1339
3 1538 1571 1339
3 1085 1079 1089
3 1093 1085 1089
3 982 978 1069
3 1073 982 1069
3 907 903 962
3 966 907 962
3 817 808 857
3 861 817 857
3 89 6 14
3 219 89 14
3 83 219 14
3 97 106 83
3 4 97 83
3 14 4 83
3 28 424 426
3 50 46 28
3 39 50 28
3 426 39 28
3 61 25 36
3 64 61 36
3 510 505 553
3 555 510 553
3 18 16 29
3 32 18 29
3 1514 1402 1389
3 1509 1514 1389
3 1503 1509 1389
3 1360 1503 1389
3 1345 1360 1389
3 1363 1495 1332
3 1512 1567 1363
3 1335 1512 1363
3 1452 1466 1278
3 1422 1452 1278
3 1410 1422 1278
3 1435 1445 1410
3 1424 1435 1410
3 1412 1424 1410
3 1264 1412 1410
3 1237 1258 1264
3 1256 1237 1264
3 1089 1183 1185
3 1093 1089 1185
3 1083 1093 1185
3 1069 1079 1083
3 1073 1069 1083
3 986 1073 1083
3 962 978 986
3 970 962 986
3 857 903 911
3 861 857 911
3 801 806 817
3 464 801 817
3 470 464 817
3 438 448 454
3 39 426 438
3 55 39 438
3 25 20 55
3 34 25 55
3 64 34 55
3 67 61 64
3 97 67 64
3 87 83 111
3 222 87 111
3 256 222 111
3 337 256 111
3 332 337 111
3 430 332 111
3 592 434 430
3 566 592 430
3 601 566 430
3 717 617 601
3 704 717 601
3 890 760 734
3 869 890 734
3 1014 942 915
3 991 1014 915
3 1026 991 915
3 1123 1050 1026
3 1102 1123 1026
3 1214 1165 1137
3 1187 1214 1137
3 1270 1272 1187
3 1348 1324 1300
3 1379 1358 1348
3 1367 1379 1348
3 1345 1389 1367
3 1335 1363 1332
3 1278 1335 1332
3 1264 1410 1278
3 1256 1264 1278
3 1185 1256 1278
3 1083 1185 1278
3 986 1083 1278
3 970 986 1278
3 911 970 1278
3 861 911 1278
3 817 861 1278
3 470 817 1278
3 454 470 1278
3 55 438 454
3 64 55 454
3 97 64 454
3 111 97 454
3 430 111 454
3 601 430 454
3 704 601 454
3 734 704 454
3 869 734 454
3 915 869 454
3 1026 915 454
3 1102 1026 454
3 1137 1102 454
3 1187 1137 454
3 1270 1187 454
3 1300 1270 454
3 1348 1300 454
3 1367 1348 454
3 1345 1367 454
3 1332 1345 454
3 1278 1332 454
3 60 76 45
3 24 60 45
3 70 24 45
3 116 118 70
3 78 116 70
3 45 78 70
3 160 149 225
3 237 160 225
3 990 1064 975
3 961 990 975
3 682 653 686
3 796 682 686
3 1067 678 1181
3 1276 1067 1181
3 687 799 972
3 672 687 972
3 668 672 972
3 643 668 972
3 627 643 972
3 597 627 972
3 564 597 972
3 558 564 972
3 550 558 972
3 544 550 972
3 531 544 972
3 498 531 972
3 483 498 972
3 472 483 972
3 466 472 972
3 460 466 972
3 456 460 972
3 450 456 972
3 444 450 972
3 440 444 972
3 432 440 972
3 422 432 972
3 418 422 972
3 414 418 972
3 410 414 972
3 406 410 972
3 402 406 972
3 398 402 972
3 394 398 972
3 390 394 972
3 386 390 972
3 382 386 972
3 378 382 972
3 374 378 972
3 370 374 972
3 366 370 972
3 362 366 972
3 350 362 972
3 346 350 972
3 328 346 972
3 324 328 972
3 320 324 972
3 314 320 972
3 308 314 972
3 304 308 972
3 298 304 972
3 294 298 972
3 288 294 972
3 282 288 972
3 278 282 972
3 270 278 972
3 264 270 972
3 246 264 972
3 240 246 972
3 232 240 972
3 226 232 972
3 215 226 972
3 211 215 972
3 207 211 972
3 203 207 972
3 199 203 972
3 193 199 972
3 189 193 972
3 185 189 972
3 179 185 972
3 173 179 972
3 175 173 972
3 177 175 972
3 181 177 972
3 183 181 972
3 187 183 972
3 191 187 972
3 195 191 972
3 197 195 972
3 201 197 972
3 205 201 972
3 209 205 972
3 213 209 972
3 217 213 972
3 228 217 972
3 230 228 972
3 234 230 972
3 238 234 972
3 242 238 972
3 244 242 972
3 250 244 972
3 254 250 972
3 266 254 972
3 268 266 972
3 272 268 972
3 274 272 972
3 276 274 972
3 280 276 972
3 284 280 972
3 286 284 972
3 290 286 972
3 292 290 972
3 296 292 972
3 300 296 972
3 302 300 972
3 306 302 972
3 310 306 972
3 318 312 310
3 322 318 310
3 326 322 310
3 330 326 310
3 348 330 310
3 352 348 310
3 364 352 310
3 368 364 310
3 372 368 310
3 376 372 310
3 380 376 310
3 384 380 310
3 388 384 310
3 392 388 310
3 396 392 310
3 400 396 310
3 404 400 310
3 408 404 310
3 412 408 310
3 416 412 310
3 420 416 310
3 428 420 310
3 436 428 310
3 442 436 310
3 446 442 310
3 452 446 310
3 458 452 310
3 462 458 310
3 468 462 310
3 474 468 310
3 496 474 310
3 507 496 310
3 539 507 310
3 546 539 310
3 548 546 310
3 556 548 310
3 562 556 310
3 582 562 310
3 599 582 310
3 629 599 310
3 645 629 310
3 654 645 310
3 670 654 310
3 674 670 310
3 689 674 310
3 730 689 310
3 773 730 310
3 797 773 310
3 827 797 310
3 849 827 310
3 851 849 310
3 853 851 310
3 855 853 310
3 865 855 310
3 867 865 310
3 913 867 310
3 955 913 310
3 957 955 310
3 972 957 310
3 1516 1403 1390
3 1511 1516 1390
3 1505 1511 1390
3 1362 1505 1390
3 1347 1362 1390
3 1365 1497 1334
3 1513 1569 1365
3 1336 1513 1365
3 1453 1467 1279
3 1423 1453 1279
3 1411 1423 1279
3 1436 1446 1411
3 1425 1436 1411
3 1413 1425 1411
3 1265 1413 1411
3 1238 1259 1265
3 1257 1238 1265
3 1092 1184 1186
3 1096 1092 1186
3 1084 1096 1186
3 1072 1082 1084
3 1076 1072 1084
3 987 1076 1084
3 965 981 987
3 971 965 987
3 860 906 912
3 864 860 912
3 802 807 820
3 465 802 820
3 471 465 820
3 439 449 455
3 40 427 439
3 56 40 439
3 27 21 56
3 35 27 56
3 66 35 56
3 68 63 66
3 98 68 66
3 88 84 112
3 223 88 112
3 257 223 112
3 338 257 112
3 333 338 112
3 431 333 112
3 593 435 431
3 569 593 431
3 604 569 431
3 720 620 604
3 706 720 604
3 893 763 735
3 872 893 735
3 1017 945 916
3 994 1017 916
3 1029 994 916
3 1126 1053 1029
3 1105 1126 1029
3 1215 1168 1138
3 1188 1215 1138
3 1271 1273 1188
3 1349 1327 1301
3 1380 1359 1349
3 1368 1380 1349
3 1347 1390 1368
3 1336 1365 1334
3 1279 1336 1334
3 1265 1411 1279
3 1257 1265 1279
3 1186 1257 1279
3 1084 1186 1279
3 987 1084 1279
3 971 987 1279
3 912 971 1279
3 864 912 1279
3 820 864 1279
3 471 820 1279
3 455 471 1279
3 56 439 455
3 66 56 455
3 98 66 455
3 112 98 455
3 431 112 455
3 604 431 455
3 706 604 455
3 735 706 455
3 872 735 455
3 916 872 455
3 1029 916 455
3 1105 1029 455
3 1138 1105 455
3 1188 1138 455
3 1271 1188 455
3 1301 1271 455
3 1349 1301 455
3 1368 1349 455
3 1347 1368 455
3 1334 1347 455
3 1279 1334 455
3 1328 1324 1350
3 1354 1328 1350
3 1331 1327 1353
3 1357 1331 1353
3 1577 1565 1567
3 1575 1573 1577
3 1579 1575 1577
3 1567 1579 1577
3 122 249 253
3 124 122 253
3 133 128 119
3 125 133 119
3 134 129 128
3 134 128 133
3 126 134 133
3 126 133 125
3 126 125 119
3 120 126 119
3 120 119 128
3 129 120 128
3 134 129 120
3 126 134 120
3 139 133 125
3 130 139 125
3 140 135 133
3 140 133 139
3 131 140 139
3 131 139 130
3 131 130 125
3 127 131 125
3 127 125 133
3 135 127 133
3 140 135 127
3 131 140 127
3 145 139 130
3 136 145 130
3 146 141 139
3 146 139 145
3 137 146 145
3 137 145 136
3 137 136 130
3 132 137 130
3 132 130 139
3 141 132 139
3 146 141 132
3 137 146 132
3 153 145 136
3 142 153 136
3 154 147 145
3 154 145 153
3 143 154 153
3 143 153 142
3 143 142 136
3 138 143 136
3 138 136 145
3 147 138 145
3 154 147 138
3 143 154 138
3 161 153 142
3 150 161 142
3 162 155 153
3 162 153 161
3 151 162 161
3 151 161 150
3 151 150 142
3 144 151 142
3 144 142 153
3 155 144 153
3 162 155 144
3 151 162 144
3 167 161 150
3 156 167 150
3 168 163 161
3 168 161 167
3 157 168 167
3 157 167 156
3 157 156 150
3 152 157 150
3 152 150 161
3 163 152 161
3 168 163 152
3 157 168 152
3 170 167 156
3 164 170 156
3 171 169 167
3 171 167 170
3 165 171 170
3 165 170 164
3 165 164 156
3 158 165 156
3 158 156 167
3 169 158 167
3 171 169 158
3 165 171 158
3 114 90 220
3 166 114 220
3 172 166 220
3 249 172 220
3 92 7 15
3 221 92 15
3 86 221 15
3 101 110 86
3 5 101 86
3 15 5 86
3 93 10 13
3 96 93 13
3 1086 1080 1090
3 1094 1086 1090
3 983 979 1070
3 1074 983 1070
3 908 904 963
3 967 908 963
3 818 809 858
3 862 818 858
3 1088 1082 1092
3 1096 1088 1092
3 985 981 1072
3 1076 985 1072
3 910 906 965
3 969 910 965
3 820 811 860
3 864 820 860
3 29 425 427
3 51 47 29
3 40 51 29
3 427 40 29
3 263 85 108
3 343 263 108
3 334 343 108
3 355 334 108
3 590 359 355
3 572 590 355
3 607 572 355
3 723 623 607
3 697 723 607
3 746 697 607
3 896 766 746
3 875 896 746
3 1020 948 928
3 997 1020 928
3 1129 1056 1032
3 1108 1129 1032
3 1296 1171 1161
3 1283 1296 1161
3 1383 1318 1305
3 1371 1383 1305
3 1536 1406 1393
3 1520 1536 1393
3 1549 1520 1393
3 1563 1557 1549
3 1507 1563 1549
3 1483 1507 1549
3 1341 1483 1549
3 1432 1540 1341
3 1427 1432 1341
3 1415 1427 1341
3 1267 1415 1341
3 1239 1261 1267
3 1254 1239 1267
3 537 804 823
3 41 501 537
3 57 41 537
3 74 22 57
3 99 74 57
3 108 99 57
3 355 108 57
3 607 355 57
3 746 607 57
3 875 746 57
3 928 875 57
3 997 928 57
3 1032 997 57
3 1108 1032 57
3 1149 1108 57
3 1283 1161 1149
3 1371 1305 1283
3 1549 1393 1371
3 1341 1549 1371
3 1267 1341 1371
3 1254 1267 1371
3 823 1254 1371
3 537 823 1371
3 57 537 1371
3 1283 1149 57
3 1371 1283 57
3 43 54 49
3 543 535 503
3 506 543 503
3 31 506 503
3 43 49 31
3 503 43 31
3 1241 1247 820
3 811 1241 820
3 1421 1434 1429
3 1269 1263 1421
3 1417 1269 1421
3 1429 1417 1421
3 19 17 30
3 33 19 30
3 1418 1430 1425
3 1265 1259 1418
3 1413 1265 1418
3 1425 1413 1418
3 578 570 605
3 613 578 605
3 588 570 605
3 621 588 605
3 591 573 608
3 624 591 608
3 1569 1581 1516
3 1497 1365 1569
3 1347 1334 1497
3 1362 1347 1497
3 1505 1362 1497
3 1511 1505 1497
3 1516 1511 1497
3 1569 1516 1497
3 1537 1569 1365
3 1338 1537 1365
3 1572 1388 1340
3 1539 1572 1340
3 1113 1103 1144
3 1156 1113 1144
3 1124 1103 1144
3 1166 1124 1144
3 1125 1104 1145
3 1167 1125 1145
3 1004 992 1027
3 1042 1004 1027
3 1015 992 1027
3 1051 1015 1027
3 1016 993 1028
3 1052 1016 1028
3 884 870 923
3 934 884 923
3 891 870 923
3 943 891 923
3 892 871 924
3 944 892 924
3 709 692 741
3 754 709 741
3 718 692 741
3 761 718 741
3 719 693 742
3 762 719 742
3 576 567 602
3 611 576 602
3 585 567 602
3 618 585 602
3 586 568 603
3 619 586 603
3 1016 993 1039
3 1052 1016 1039
3 892 871 924
3 944 892 924
3 892 871 924
3 944 892 924
3 719 705 742
3 762 719 742
3 719 693 742
3 762 719 742
3 719 693 742
3 762 719 742
3 711 695 744
3 756 711 744
3 721 695 744
3 764 721 744
3 886 873 926
3 936 886 926
3 894 873 926
3 946 894 926
3 896 875 928
3 948 896 928
3 1006 995 1030
3 1044 1006 1030
3 1018 995 1030
3 1054 1018 1030
3 1020 997 1032
3 1056 1020 1032
3 1115 1106 1147
3 1159 1115 1147
3 1127 1106 1147
3 1169 1127 1147
3 1129 1108 1149
3 1171 1129 1149
3 1289 1281 1303
3 1309 1289 1303
3 1294 1281 1303
3 1316 1294 1303
3 1296 1283 1305
3 1318 1296 1305
3 1375 1369 1391
3 1398 1375 1391
3 1381 1369 1391
3 1404 1381 1391
3 1383 1371 1393
3 1406 1383 1393
3 1525 1518 1547
3 1550 1525 1547
3 1534 1518 1547
3 1555 1534 1547
3 1536 1520 1549
3 1557 1536 1549
3 259 80 109
3 340 259 109
3 335 340 109
3 356 335 109
3 492 360 356
3 479 492 356
3 514 479 356
3 596 530 514
3 575 596 514
3 642 626 610
3 632 642 610
3 657 632 610
3 726 667 657
3 708 726 657
3 789 769 737
3 778 789 737
3 835 778 737
3 899 845 835
3 878 899 835
3 1023 951 919
3 1000 1023 919
3 1131 1059 1035
3 1111 1131 1035
3 1142 1111 1035
3 1174 1164 1142
3 1212 1174 1142
3 1199 1212 1142
3 1299 1232 1220
3 1284 1299 1220
3 1308 1284 1220
3 1386 1314 1308
3 1374 1386 1308
3 1450 1409 1396
3 1442 1450 1396
3 1481 1465 1459
3 1474 1481 1459
3 1532 1501 1492
3 1523 1532 1492
3 1545 1523 1492
3 1564 1560 1545
3 1508 1564 1545
3 1484 1508 1545
3 1342 1484 1545
3 1438 1541 1342
3 1429 1438 1342
3 1417 1429 1342
3 1269 1417 1342
3 1240 1263 1269
3 1255 1240 1269
3 535 805 826
3 43 503 535
3 54 43 535
3 72 23 54
3 100 72 54
3 109 100 54
3 356 109 54
3 514 356 54
3 575 514 54
3 610 575 54
3 657 610 54
3 708 657 54
3 737 708 54
3 835 737 54
3 878 835 54
3 919 878 54
3 1000 919 54
3 1035 1000 54
3 1142 1035 54
3 1199 1142 54
3 1220 1199 54
3 1308 1220 54
3 1374 1308 54
3 1396 1374 54
3 1442 1396 54
3 1459 1442 54
3 1474 1459 54
3 1492 1474 54
3 1545 1492 54
3 1342 1545 54
3 1269 1342 54
3 1255 1269 54
3 826 1255 54
3 535 826 54
3 1246 1252 826
3 816 1246 826
3 1244 1250 824
3 814 1244 824
3 1420 1433 1428
3 1268 1262 1420
3 1416 1268 1420
3 1428 1416 1420
3 63 27 38
3 66 63 38
3 596 575 610
3 626 596 610
3 590 572 607
3 623 590 607
3 490 477 512
3 523 490 512
3 493 480 515
3 526 493 515
3 489 476 511
3 522 489 511
3 640 634 659
3 665 640 659
3 642 636 661
3 667 642 661
3 639 633 658
3 664 639 658
3 724 698 747
3 767 724 747
3 723 697 746
3 766 723 746
3 787 776 833
3 843 787 833
3 789 778 835
3 845 789 835
3 786 775 832
3 842 786 832
3 897 876 929
3 949 897 929
3 899 878 919
3 951 899 919
3 896 875 928
3 948 896 928
3 1020 997 1032
3 1056 1020 1032
3 1021 998 1033
3 1057 1021 1033
3 1023 1000 1035
3 1059 1023 1035
3 1020 997 1032
3 1056 1020 1032
3 1129 1108 1139
3 1171 1129 1139
3 1129 1108 1139
3 1178 1129 1139
3 1122 1109 1140
3 1172 1122 1140
3 1131 1098 1142
3 1174 1131 1142
3 1121 1108 1139
3 1171 1121 1139
3 1209 1198 1217
3 1236 1209 1217
3 1209 1198 1217
3 1229 1209 1217
3 1209 1198 1217
3 1229 1209 1217
3 1210 1192 1218
3 1230 1210 1218
3 1212 1194 1220
3 1232 1212 1220
3 1209 1191 1217
3 1229 1209 1217
3 1296 1285 1305
3 1323 1296 1305
3 1296 1285 1305
3 1323 1296 1305
3 1296 1285 1305
3 1323 1296 1305
3 1297 1286 1306
3 1319 1297 1306
3 1299 1288 1308
3 1321 1299 1308
3 1296 1285 1305
3 1318 1296 1305
3 1383 1371 1393
3 1406 1383 1393
3 1383 1371 1393
3 1406 1383 1393
3 1383 1371 1393
3 1406 1383 1393
3 1383 1371 1397
3 1406 1383 1397
3 1384 1372 1394
3 1407 1384 1394
3 1386 1374 1396
3 1409 1386 1396
3 1383 1371 1393
3 1406 1383 1393
3 1447 1439 1454
3 1462 1447 1454
3 1447 1439 1454
3 1462 1447 1454
3 1451 1439 1454
3 1462 1451 1454
3 1451 1439 1454
3 1462 1451 1454
3 1451 1439 1454
3 1462 1451 1454
3 1448 1440 1455
3 1463 1448 1455
3 1450 1442 1457
3 1465 1450 1457
3 1447 1439 1454
3 1462 1447 1454
3 1478 1468 1487
3 1498 1478 1487
3 1477 1471 1487
3 1498 1477 1487
3 1478 1471 1491
3 1498 1478 1491
3 1478 1471 1491
3 1498 1478 1491
3 1478 1471 1491
3 1502 1478 1491
3 1479 1472 1488
3 1499 1479 1488
3 1481 1470 1490
3 1501 1481 1490
3 1478 1471 1487
3 1498 1478 1487
3 1529 1520 1542
3 1557 1529 1542
3 1529 1520 1542
3 1557 1529 1542
3 1536 1520 1542
3 1557 1536 1542
3 1536 1520 1542
3 1557 1536 1542
3 1536 1524 1542
3 1561 1536 1542
3 1530 1521 1543
3 1558 1530 1543
3 1532 1523 1545
3 1560 1532 1545
3 1529 1520 1542
3 1557 1529 1542
3 495 482 517
3 528 495 517
3 727 701 733
3 770 727 733
3 729 703 751
3 772 729 751
3 790 779 830
3 846 790 830
3 793 781 837
3 848 793 837
3 899 878 919
3 951 899 919
3 900 879 920
3 952 900 920
3 902 881 933
3 954 902 933
3 1023 1000 1035
3 1059 1023 1035
3 1012 1000 1041
3 1059 1012 1041
3 1013 1001 1036
3 1060 1013 1036
3 1025 1003 1038
3 1062 1025 1038
3 1131 1098 1150
3 1174 1131 1150
3 1131 1098 1150
3 1174 1131 1150
3 1131 1098 1135
3 1174 1131 1135
3 1132 1099 1136
3 1175 1132 1136
3 1134 1101 1153
3 1177 1134 1153
3 1212 1194 1216
3 1232 1212 1216
3 1205 1194 1220
3 1232 1205 1220
3 1205 1194 1220
3 1232 1205 1220
3 1205 1189 1220
3 1228 1205 1220
3 1206 1190 1221
3 1233 1206 1221
3 1208 1197 1223
3 1235 1208 1223
3 989 1063 974
3 960 989 974
3 681 652 685
3 795 681 685
3 688 800 973
3 673 688 973
3 669 673 973
3 644 669 973
3 628 644 973
3 598 628 973
3 565 598 973
3 559 565 973
3 551 559 973
3 545 551 973
3 532 545 973
3 499 532 973
3 484 499 973
3 473 484 973
3 467 473 973
3 461 467 973
3 457 461 973
3 451 457 973
3 445 451 973
3 441 445 973
3 433 441 973
3 423 433 973
3 419 423 973
3 415 419 973
3 411 415 973
3 407 411 973
3 403 407 973
3 399 403 973
3 395 399 973
3 391 395 973
3 387 391 973
3 383 387 973
3 379 383 973
3 375 379 973
3 371 375 973
3 367 371 973
3 363 367 973
3 351 363 973
3 347 351 973
3 329 347 973
3 325 329 973
3 321 325 973
3 315 321 973
3 309 315 973
3 305 309 973
3 299 305 973
3 295 299 973
3 289 295 973
3 283 289 973
3 279 283 973
3 271 279 973
3 265 271 973
3 247 265 973
3 241 247 973
3 233 241 973
3 227 233 973
3 216 227 973
3 212 216 973
3 208 212 973
3 204 208 973
3 200 204 973
3 194 200 973
3 190 194 973
3 186 190 973
3 180 186 973
3 174 180 973
3 176 174 973
3 178 176 973
3 182 178 973
3 184 182 973
3 188 184 973
3 192 188 973
3 196 192 973
3 198 196 973
3 202 198 973
3 206 202 973
3 210 206 973
3 214 210 973
3 218 214 973
3 229 218 973
3 231 229 973
3 235 231 973
3 239 235 973
3 243 239 973
3 245 243 973
3 251 245 973
3 255 251 973
3 267 255 973
3 269 267 973
3 273 269 973
3 275 273 973
3 277 275 973
3 281 277 973
3 285 281 973
3 287 285 973
3 291 287 973
3 293 291 973
3 297 293 973
3 301 297 973
3 303 301 973
3 307 303 973
3 311 307 973
3 319 313 311
3 323 319 311
3 327 323 311
3 331 327 311
3 349 331 311
3 353 349 311
3 365 353 311
3 369 365 311
3 373 369 311
3 377 373 311
3 381 377 311
3 385 381 311
3 389 385 311
3 393 389 311
3 397 393 311
3 401 397 311
3 405 401 311
3 409 405 311
3 413 409 311
3 417 413 311
3 421 417 311
3 429 421 311
3 437 429 311
3 443 437 311
3 447 443 311
3 453 447 311
3 459 453 311
3 463 459 311
3 469 463 311
3 475 469 311
3 497 475 311
3 508 497 311
3 540 508 311
3 547 540 311
3 549 547 311
3 557 549 311
3 563 557 311
3 583 563 311
3 600 583 311
3 630 600 311
3 646 630 311
3 655 646 311
3 671 655 311
3 675 671 311
3 690 675 311
3 731 690 311
3 774 731 311
3 798 774 311
3 828 798 311
3 850 828 311
3 852 850 311
3 854 852 311
3 856 854 311
3 866 856 311
3 868 866 311
3 914 868 311
3 956 914 311
3 958 956 311
3 973 958 311
3 1066 677 1180
3 1275 1066 1180
3 1068 679 1182
3 1277 1068 1182
3 1078 1180 677
3 561 1078 677
3 260 81 648
3 336 341 260
3 495 361 357
3 482 495 357
3 517 482 357
3 729 528 517
3 703 729 517
3 751 703 517
3 791 772 751
3 781 791 751
3 837 781 751
3 902 848 837
3 881 902 837
3 1025 954 921
3 1003 1025 921
3 1134 1062 1038
3 1112 1134 1038
3 1213 1177 1153
3 1200 1213 1153
3 1223 1200 1153
3 1322 1235 1223
3 1275 1322 1223
3 1066 1275 1223
3 651 684 1066
3 260 648 651
3 336 260 651
3 357 336 651
3 517 357 651
3 751 517 651
3 837 751 651
3 881 837 651
3 921 881 651
3 1003 921 651
3 1038 1003 651
3 1223 1153 1112
3 1066 1223 1112
3 1038 651 1066
3 1112 1038 1066
3 1344 1486 1484
3 1337 1344 1484
3 345 261 82
3 317 345 82
3 977 317 82
3 961 977 82
3 990 961 82
3 682 796 990
3 82 649 682
3 990 82 682
3 1511 1516 1514
3 1511 1514 1509
3 1511 1509 1503
3 1505 1511 1503
3 1505 1503 1360
3 1362 1505 1360
3 1362 1360 1345
3 1347 1362 1345
3 1334 1347 1345
3 1334 1345 1332
3 1497 1334 1332
3 1497 1332 1495
3 1365 1497 1495
3 1365 1495 1363
3 1569 1365 1363
3 1569 1363 1567
3 1513 1569 1567
3 1513 1567 1512
3 1513 1512 1335
3 1336 1513 1335
3 1279 1336 1335
3 1279 1335 1278
3 1467 1279 1278
3 1467 1278 1466
3 1453 1467 1466
3 1453 1466 1452
3 1453 1452 1422
3 1423 1453 1422
3 1411 1423 1422
3 1411 1422 1410
3 1446 1411 1410
3 1446 1410 1445
3 1436 1446 1445
3 1436 1445 1435
3 1436 1435 1424
3 1425 1436 1424
3 1413 1425 1424
3 1413 1424 1412
3 1413 1412 1264
3 1265 1413 1264
3 1259 1265 1264
3 1259 1264 1258
3 1259 1258 1237
3 1238 1259 1237
3 1238 1237 1256
3 1257 1238 1256
3 1257 1256 1185
3 1186 1257 1185
3 1184 1186 1185
3 1184 1185 1183
3 1184 1183 1089
3 1092 1184 1089
3 1092 1089 1093
3 1096 1092 1093
3 1096 1093 1083
3 1084 1096 1083
3 1082 1084 1083
3 1082 1083 1079
3 1082 1079 1069
3 1072 1082 1069
3 1072 1069 1073
3 1076 1072 1073
3 1076 1073 986
3 987 1076 986
3 981 987 986
3 981 986 978
3 981 978 962
3 965 981 962
3 965 962 970
3 971 965 970
3 971 970 911
3 912 971 911
3 906 912 911
3 906 911 903
3 906 903 857
3 860 906 857
3 860 857 861
3 864 860 861
3 864 861 817
3 820 864 817
3 807 820 817
3 807 817 806
3 807 806 464
3 465 807 464
3 465 464 470
3 471 465 470
3 471 470 454
3 455 471 454
3 449 455 454
3 449 454 448
3 449 448 438
3 439 449 438
3 427 439 438
3 427 438 426
3 427 426 39
3 40 427 39
3 40 39 55
3 56 40 55
3 56 55 20
3 21 56 20
3 21 20 25
3 27 21 25
3 35 27 25
3 35 25 34
3 35 34 64
3 66 35 64
3 66 64 61
3 63 66 61
3 63 61 67
3 68 63 67
3 98 68 67
3 98 67 97
3 98 97 111
3 112 98 111
3 112 111 83
3 84 112 83
3 84 83 87
3 88 84 87
3 88 87 222
3 223 88 222
3 223 222 256
3 257 223 256
3 338 257 256
3 338 256 337
3 333 338 337
3 333 337 332
3 431 333 332
3 431 332 430
3 431 430 434
3 435 431 434
3 593 435 434
3 593 434 592
3 569 593 592
3 569 592 566
3 604 569 566
3 604 566 601
3 604 601 617
3 620 604 617
3 720 620 617
3 720 617 717
3 706 720 717
3 706 717 704
3 735 706 704
3 735 704 734
3 735 734 760
3 763 735 760
3 893 763 760
3 893 760 890
3 872 893 890
3 872 890 869
3 916 872 869
3 916 869 915
3 916 915 942
3 945 916 942
3 1017 945 942
3 1017 942 1014
3 994 1017 1014
3 994 1014 991
3 1029 994 991
3 1029 991 1026
3 1029 1026 1050
3 1053 1029 1050
3 1126 1053 1050
3 1126 1050 1123
3 1105 1126 1123
3 1105 1123 1102
3 1138 1105 1102
3 1138 1102 1137
3 1138 1137 1165
3 1168 1138 1165
3 1215 1168 1165
3 1215 1165 1214
3 1188 1215 1214
3 1188 1214 1187
3 1273 1188 1187
3 1273 1187 1272
3 1271 1273 1272
3 1271 1272 1270
3 1301 1271 1270
3 1301 1270 1300
3 1301 1300 1324
3 1327 1301 1324
3 1349 1327 1324
3 1349 1324 1348
3 1349 1348 1358
3 1359 1349 1358
3 1380 1359 1358
3 1380 1358 1379
3 1368 1380 1379
3 1368 1379 1367
3 1390 1368 1367
3 1390 1367 1389
3 1390 1389 1402
3 1403 1390 1402
3 1516 1403 1402
3 1516 1402 1514
3 1352 1351 1355
3 1356 1352 1355
3 1356 1355 1329
3 1330 1356 1329
3 1326 1330 1329
3 1326 1329 1325
3 1352 1326 1325
3 1352 1325 1351
3 1356 1352 1353
3 1356 1353 1357
3 1330 1356 1357
3 1330 1357 1331
3 1330 1331 1327
3 1326 1330 1327
3 1326 1327 1353
3 1352 1326 1353
3 1351 1350 1354
3 1355 1351 1354
3 1355 1354 1328
3 1329 1355 1328
3 1325 1329 1328
3 1325 1328 1324
3 1351 1325 1324
3 1351 1324 1350
3 253 252 123
3 124 253 123
3 122 124 123
3 122 123 121
3 249 122 121
3 249 121 248
3 249 248 252
3 253 249 252
3 166 114 113
3 166 113 164
3 166 164 170
3 172 166 170
3 249 172 170
3 249 170 248
3 220 249 248
3 220 248 219
3 220 219 89
3 90 220 89
3 90 89 113
3 114 90 113
3 5 15 14
3 5 14 4
3 101 5 4
3 101 4 97
3 101 97 106
3 110 101 106
3 110 106 83
3 86 110 83
3 86 83 219
3 221 86 219
3 221 219 89
3 92 221 89
3 7 92 89
3 7 89 6
3 15 7 6
3 15 6 14
3 95 12 13
3 95 13 96
3 92 95 96
3 92 96 93
3 92 93 10
3 9 92 10
3 9 10 13
3 12 9 13
3 102 104 105
3 102 105 103
3 102 103 93
3 91 102 93
3 91 93 96
3 94 91 96
3 104 94 96
3 104 96 105
3 0 2 3
3 0 3 1
3 8 0 1
3 8 1 10
3 8 10 13
3 11 8 13
3 11 13 3
3 2 11 3
3 1075 984 983
3 1075 983 1074
3 1071 1075 1074
3 1071 1074 1070
3 1071 1070 979
3 980 1071 979
3 980 979 983
3 984 980 983
3 968 909 908
3 968 908 967
3 964 968 967
3 964 967 963
3 964 963 904
3 905 964 904
3 905 904 908
3 909 905 908
3 863 819 818
3 863 818 862
3 859 863 862
3 859 862 858
3 859 858 809
3 810 859 809
3 810 809 818
3 819 810 818
3 1095 1087 1086
3 1095 1086 1094
3 1091 1095 1094
3 1091 1094 1090
3 1091 1090 1080
3 1081 1091 1080
3 1081 1080 1086
3 1087 1081 1086
3 1087 1088 1096
3 1095 1087 1096
3 1095 1096 1092
3 1091 1095 1092
3 1081 1091 1092
3 1081 1092 1082
3 1087 1081 1082
3 1087 1082 1088
3 984 985 1076
3 1075 984 1076
3 1075 1076 1072
3 1071 1075 1072
3 980 1071 1072
3 980 1072 981
3 984 980 981
3 984 981 985
3 909 910 969
3 968 909 969
3 968 969 965
3 964 968 965
3 905 964 965
3 905 965 906
3 909 905 906
3 909 906 910
3 819 820 864
3 863 819 864
3 863 864 860
3 859 863 860
3 810 859 860
3 810 860 811
3 819 810 811
3 819 811 820
3 862 818 817
3 862 817 861
3 858 862 861
3 858 861 857
3 858 857 808
3 809 858 808
3 809 808 817
3 818 809 817
3 967 908 907
3 967 907 966
3 963 967 966
3 963 966 962
3 963 962 903
3 904 963 903
3 904 903 907
3 908 904 907
3 1074 983 982
3 1074 982 1073
3 1070 1074 1073
3 1070 1073 1069
3 1070 1069 978
3 979 1070 978
3 979 978 982
3 983 979 982
3 1094 1086 1085
3 1094 1085 1093
3 1090 1094 1093
3 1090 1093 1089
3 1090 1089 1079
3 1080 1090 1079
3 1080 1079 1085
3 1086 1080 1085
3 427 426 39
3 40 427 39
3 40 39 50
3 51 40 50
3 51 50 46
3 47 51 46
3 29 47 46
3 29 46 28
3 425 29 28
3 425 28 424
3 425 424 426
3 427 425 426
3 1243 1242 812
3 813 1243 812
3 813 812 821
3 822 813 821
3 1249 822 821
3 1249 821 1248
3 1243 1249 1248
3 1243 1248 1242
3 1242 1241 811
3 812 1242 811
3 812 811 820
3 821 812 820
3 1248 821 820
3 1248 820 1247
3 1242 1248 1247
3 1242 1247 1241
3 1414 1426 1425
3 1414 1425 1413
3 1414 1413 1265
3 1266 1414 1265
3 1260 1266 1265
3 1260 1265 1259
3 1419 1260 1259
3 1419 1259 1418
3 1419 1418 1430
3 1431 1419 1430
3 1431 1430 1425
3 1426 1431 1425
3 614 579 578
3 614 578 613
3 606 614 613
3 606 613 605
3 606 605 570
3 571 606 570
3 571 570 578
3 579 571 578
3 621 588 587
3 621 587 620
3 605 621 620
3 605 620 604
3 605 604 569
3 570 605 569
3 570 569 587
3 588 570 587
3 1339 1366 1365
3 1339 1365 1338
3 1538 1339 1338
3 1538 1338 1537
3 1538 1537 1569
3 1570 1538 1569
3 1570 1569 1365
3 1366 1570 1365
3 1539 1340 1339
3 1539 1339 1538
3 1539 1538 1571
3 1572 1539 1571
3 1572 1571 1387
3 1388 1572 1387
3 1340 1388 1387
3 1340 1387 1339
3 1157 1114 1113
3 1157 1113 1156
3 1145 1157 1156
3 1145 1156 1144
3 1145 1144 1103
3 1104 1145 1103
3 1104 1103 1113
3 1114 1104 1113
3 1166 1124 1123
3 1166 1123 1165
3 1144 1166 1165
3 1144 1165 1143
3 1144 1143 1102
3 1103 1144 1102
3 1103 1102 1123
3 1124 1103 1123
3 1043 1005 1004
3 1043 1004 1042
3 1028 1043 1042
3 1028 1042 1027
3 1028 1027 992
3 993 1028 992
3 993 992 1004
3 1005 993 1004
3 1051 1015 1014
3 1051 1014 1050
3 1027 1051 1050
3 1027 1050 1026
3 1027 1026 991
3 992 1027 991
3 992 991 1014
3 1015 992 1014
3 935 885 884
3 935 884 934
3 924 935 934
3 924 934 923
3 924 923 870
3 871 924 870
3 871 870 884
3 885 871 884
3 943 891 890
3 943 890 942
3 923 943 942
3 923 942 922
3 923 922 869
3 870 923 869
3 870 869 890
3 891 870 890
3 755 710 709
3 755 709 754
3 742 755 754
3 742 754 741
3 742 741 692
3 693 742 692
3 693 692 709
3 710 693 709
3 761 718 717
3 761 717 760
3 741 761 760
3 741 760 740
3 741 740 691
3 692 741 691
3 692 691 717
3 718 692 717
3 612 577 576
3 612 576 611
3 603 612 611
3 603 611 602
3 603 602 567
3 568 603 567
3 568 567 576
3 577 568 576
3 618 585 584
3 618 584 617
3 602 618 617
3 602 617 601
3 602 601 566
3 567 602 566
3 567 566 584
3 585 567 584
3 1168 1126 1125
3 1168 1125 1167
3 1146 1168 1167
3 1146 1167 1145
3 1146 1145 1104
3 1105 1146 1104
3 1105 1104 1125
3 1126 1105 1125
3 1053 1017 1016
3 1053 1016 1052
3 1040 1053 1052
3 1040 1052 1039
3 1040 1039 993
3 994 1040 993
3 994 993 1016
3 1017 994 1016
3 945 893 892
3 945 892 944
3 925 945 944
3 925 944 924
3 925 924 871
3 872 925 871
3 872 871 892
3 893 872 892
3 763 720 719
3 763 719 762
3 743 763 762
3 743 762 742
3 743 742 693
3 694 743 693
3 694 693 719
3 720 694 719
3 99 108 107
3 99 107 98
3 99 98 73
3 74 99 73
3 22 74 73
3 22 73 21
3 57 22 21
3 57 21 56
3 41 57 56
3 41 56 40
3 501 41 40
3 501 40 500
3 501 500 536
3 537 501 536
3 804 537 536
3 804 536 803
3 804 803 820
3 823 804 820
3 1254 823 820
3 1254 820 1253
3 1239 1254 1253
3 1239 1253 1238
3 1261 1239 1238
3 1261 1238 1259
3 1261 1259 1265
3 1267 1261 1265
3 1415 1267 1265
3 1415 1265 1413
3 1415 1413 1425
3 1427 1415 1425
3 1432 1427 1425
3 1432 1425 1430
3 1432 1430 1537
3 1540 1432 1537
3 1540 1537 1338
3 1341 1540 1338
3 1341 1338 1482
3 1483 1341 1482
3 1507 1483 1482
3 1507 1482 1506
3 1507 1506 1562
3 1563 1507 1562
3 1563 1562 1554
3 1557 1563 1554
3 1549 1557 1554
3 1549 1554 1546
3 1549 1546 1517
3 1520 1549 1517
3 1520 1517 1533
3 1536 1520 1533
3 1536 1533 1403
3 1406 1536 1403
3 1393 1406 1403
3 1393 1403 1390
3 1393 1390 1368
3 1371 1393 1368
3 1371 1368 1380
3 1383 1371 1380
3 1383 1380 1315
3 1318 1383 1315
3 1305 1318 1315
3 1305 1315 1302
3 1305 1302 1280
3 1283 1305 1280
3 1283 1280 1293
3 1296 1283 1293
3 1296 1293 1168
3 1171 1296 1168
3 1161 1171 1168
3 1161 1168 1158
3 1149 1161 1158
3 1149 1158 1146
3 1149 1146 1105
3 1108 1149 1105
3 1108 1105 1126
3 1129 1108 1126
3 1129 1126 1053
3 1056 1129 1053
3 1032 1056 1053
3 1032 1053 1029
3 1032 1029 994
3 997 1032 994
3 997 994 1017
3 1020 997 1017
3 1020 1017 945
3 948 1020 945
3 928 948 945
3 928 945 925
3 928 925 872
3 875 928 872
3 875 872 893
3 896 875 893
3 896 893 763
3 766 896 763
3 746 766 763
3 746 763 743
3 746 743 694
3 697 746 694
3 697 694 720
3 723 697 720
3 723 720 620
3 623 723 620
3 607 623 620
3 607 620 604
3 607 604 569
3 572 607 569
3 572 569 587
3 590 572 587
3 590 587 358
3 359 590 358
3 355 359 358
3 355 358 354
3 355 354 333
3 334 355 333
3 334 333 342
3 343 334 342
3 343 342 262
3 263 343 262
3 85 263 262
3 85 262 84
3 108 85 84
3 108 84 107
3 589 590 623
3 622 589 623
3 622 623 607
3 606 622 607
3 571 606 607
3 571 607 572
3 589 571 572
3 589 572 590
3 757 712 711
3 757 711 756
3 745 757 756
3 745 756 744
3 745 744 695
3 696 745 695
3 696 695 711
3 712 696 711
3 764 721 720
3 764 720 763
3 744 764 763
3 744 763 743
3 744 743 694
3 695 744 694
3 695 694 720
3 721 695 720
3 722 723 766
3 765 722 766
3 765 766 746
3 745 765 746
3 696 745 746
3 696 746 697
3 722 696 697
3 722 697 723
3 937 887 886
3 937 886 936
3 927 937 936
3 927 936 926
3 927 926 873
3 874 927 873
3 874 873 886
3 887 874 886
3 946 894 893
3 946 893 945
3 926 946 945
3 926 945 925
3 926 925 872
3 873 926 872
3 873 872 893
3 894 873 893
3 895 896 948
3 947 895 948
3 947 948 928
3 927 947 928
3 874 927 928
3 874 928 875
3 895 874 875
3 895 875 896
3 1045 1007 1006
3 1045 1006 1044
3 1031 1045 1044
3 1031 1044 1030
3 1031 1030 995
3 996 1031 995
3 996 995 1006
3 1007 996 1006
3 1054 1018 1017
3 1054 1017 1053
3 1030 1054 1053
3 1030 1053 1029
3 1030 1029 994
3 995 1030 994
3 995 994 1017
3 1018 995 1017
3 1019 1020 1056
3 1055 1019 1056
3 1055 1056 1032
3 1031 1055 1032
3 996 1031 1032
3 996 1032 997
3 1019 996 997
3 1019 997 1020
3 1160 1116 1115
3 1160 1115 1159
3 1148 1160 1159
3 1148 1159 1147
3 1148 1147 1106
3 1107 1148 1106
3 1107 1106 1115
3 1116 1107 1115
3 1169 1127 1126
3 1169 1126 1168
3 1147 1169 1168
3 1147 1168 1146
3 1147 1146 1105
3 1106 1147 1105
3 1106 1105 1126
3 1127 1106 1126
3 1128 1129 1171
3 1170 1128 1171
3 1170 1171 1149
3 1148 1170 1149
3 1107 1148 1149
3 1107 1149 1108
3 1128 1107 1108
3 1128 1108 1129
3 1310 1290 1289
3 1310 1289 1309
3 1304 1310 1309
3 1304 1309 1303
3 1304 1303 1281
3 1282 1304 1281
3 1282 1281 1289
3 1290 1282 1289
3 1316 1294 1293
3 1316 1293 1315
3 1303 1316 1315
3 1303 1315 1302
3 1303 1302 1280
3 1281 1303 1280
3 1281 1280 1293
3 1294 1281 1293
3 1295 1296 1318
3 1317 1295 1318
3 1317 1318 1305
3 1304 1317 1305
3 1282 1304 1305
3 1282 1305 1283
3 1295 1282 1283
3 1295 1283 1296
3 1399 1376 1375
3 1399 1375 1398
3 1392 1399 1398
3 1392 1398 1391
3 1392 1391 1369
3 1370 1392 1369
3 1370 1369 1375
3 1376 1370 1375
3 1404 1381 1380
3 1404 1380 1403
3 1391 1404 1403
3 1391 1403 1390
3 1391 1390 1368
3 1369 1391 1368
3 1369 1368 1380
3 1381 1369 1380
3 1382 1383 1406
3 1405 1382 1406
3 1405 1406 1393
3 1392 1405 1393
3 1370 1392 1393
3 1370 1393 1371
3 1382 1370 1371
3 1382 1371 1383
3 1551 1526 1525
3 1551 1525 1550
3 1548 1551 1550
3 1548 1550 1547
3 1548 1547 1518
3 1519 1548 1518
3 1519 1518 1525
3 1526 1519 1525
3 1555 1534 1533
3 1555 1533 1554
3 1547 1555 1554
3 1547 1554 1546
3 1547 1546 1517
3 1518 1547 1517
3 1518 1517 1533
3 1534 1518 1533
3 1535 1536 1557
3 1556 1535 1557
3 1556 1557 1549
3 1548 1556 1549
3 1519 1548 1549
3 1519 1549 1520
3 1535 1519 1520
3 1535 1520 1536
3 100 109 108
3 100 108 99
3 100 99 71
3 72 100 71
3 23 72 71
3 23 71 22
3 54 23 22
3 54 22 52
3 43 54 52
3 43 52 41
3 503 43 41
3 503 41 501
3 503 501 533
3 535 503 533
3 805 535 533
3 805 533 804
3 805 804 823
3 826 805 823
3 1255 826 823
3 1255 823 1254
3 1240 1255 1254
3 1240 1254 1239
3 1263 1240 1239
3 1263 1239 1261
3 1263 1261 1267
3 1269 1263 1267
3 1417 1269 1267
3 1417 1267 1415
3 1417 1415 1427
3 1429 1417 1427
3 1438 1429 1427
3 1438 1427 1437
3 1438 1437 1540
3 1541 1438 1540
3 1541 1540 1341
3 1342 1541 1341
3 1342 1341 1483
3 1484 1342 1483
3 1508 1484 1483
3 1508 1483 1507
3 1508 1507 1563
3 1564 1508 1563
3 1564 1563 1557
3 1560 1564 1557
3 1545 1560 1557
3 1545 1557 1542
3 1545 1542 1520
3 1523 1545 1520
3 1523 1520 1529
3 1532 1523 1529
3 1532 1529 1498
3 1501 1532 1498
3 1492 1501 1498
3 1492 1498 1491
3 1492 1491 1471
3 1474 1492 1471
3 1474 1471 1478
3 1481 1474 1478
3 1481 1478 1462
3 1465 1481 1462
3 1459 1465 1462
3 1459 1462 1458
3 1459 1458 1439
3 1442 1459 1439
3 1442 1439 1447
3 1450 1442 1447
3 1450 1447 1406
3 1409 1450 1406
3 1396 1409 1406
3 1396 1406 1393
3 1396 1393 1371
3 1374 1396 1371
3 1374 1371 1383
3 1386 1374 1383
3 1386 1383 1313
3 1314 1386 1313
3 1308 1314 1313
3 1308 1313 1305
3 1308 1305 1283
3 1284 1308 1283
3 1284 1283 1296
3 1299 1284 1296
3 1299 1296 1229
3 1232 1299 1229
3 1220 1232 1229
3 1220 1229 1217
3 1220 1217 1198
3 1199 1220 1198
3 1199 1198 1209
3 1212 1199 1209
3 1212 1209 1171
3 1174 1212 1171
3 1164 1174 1171
3 1164 1171 1161
3 1142 1164 1161
3 1142 1161 1139
3 1142 1139 1108
3 1111 1142 1108
3 1111 1108 1129
3 1131 1111 1129
3 1131 1129 1056
3 1059 1131 1056
3 1035 1059 1056
3 1035 1056 1032
3 1035 1032 997
3 1000 1035 997
3 1000 997 1020
3 1023 1000 1020
3 1023 1020 948
3 951 1023 948
3 919 951 948
3 919 948 917
3 919 917 875
3 878 919 875
3 878 875 896
3 899 878 896
3 899 896 842
3 845 899 842
3 835 845 842
3 835 842 832
3 835 832 775
3 778 835 775
3 778 775 786
3 789 778 786
3 789 786 766
3 769 789 766
3 737 769 766
3 737 766 736
3 737 736 707
3 708 737 707
3 708 707 723
3 726 708 723
3 726 723 664
3 667 726 664
3 657 667 664
3 657 664 656
3 657 656 631
3 632 657 631
3 632 631 639
3 642 632 639
3 642 639 623
3 626 642 623
3 610 626 623
3 610 623 607
3 610 607 572
3 575 610 572
3 575 572 594
3 596 575 594
3 596 594 529
3 530 596 529
3 514 530 529
3 514 529 511
3 514 511 476
3 479 514 476
3 479 476 489
3 492 479 489
3 492 489 359
3 360 492 359
3 356 360 359
3 356 359 355
3 356 355 334
3 335 356 334
3 335 334 339
3 340 335 339
3 340 339 258
3 259 340 258
3 80 259 258
3 80 258 79
3 109 80 79
3 109 79 108
3 30 48 47
3 30 47 29
3 505 30 29
3 505 29 504
3 505 504 541
3 542 505 541
3 542 541 536
3 538 542 536
3 502 538 536
3 502 536 500
3 502 500 40
3 42 502 40
3 42 40 56
3 58 42 56
3 58 56 47
3 48 58 47
3 30 29 32
3 33 30 32
3 33 32 18
3 19 33 18
3 17 19 18
3 17 18 16
3 30 17 16
3 30 16 29
3 554 552 553
3 554 553 555
3 509 554 555
3 509 555 510
3 509 510 505
3 504 509 505
3 504 505 553
3 552 504 553
3 48 49 31
3 30 48 31
3 30 31 506
3 505 30 506
3 542 505 506
3 542 506 543
3 534 542 543
3 534 543 535
3 534 535 503
3 502 534 503
3 42 502 503
3 42 503 43
3 53 42 43
3 53 43 54
3 48 53 54
3 48 54 49
3 1245 1244 814
3 815 1245 814
3 815 814 824
3 825 815 824
3 1251 825 824
3 1251 824 1250
3 1245 1251 1250
3 1245 1250 1244
3 815 1245 1246
3 815 1246 816
3 825 815 816
3 825 816 826
3 825 826 1252
3 1251 825 1252
3 1251 1252 1246
3 1245 1251 1246
3 813 1243 1244
3 813 1244 814
3 822 813 814
3 822 814 824
3 822 824 1250
3 1249 822 1250
3 1249 1250 1244
3 1243 1249 1244
3 1426 1428 1416
3 1414 1426 1416
3 1266 1414 1416
3 1266 1416 1268
3 1266 1268 1262
3 1260 1266 1262
3 1260 1262 1420
3 1419 1260 1420
3 1431 1419 1420
3 1431 1420 1433
3 1426 1431 1433
3 1426 1433 1428
3 1428 1429 1417
3 1416 1428 1417
3 1268 1416 1417
3 1268 1417 1269
3 1268 1269 1263
3 1262 1268 1263
3 1262 1263 1421
3 1420 1262 1421
3 1433 1420 1421
3 1433 1421 1434
3 1428 1433 1434
3 1428 1434 1429
3 37 36 64
3 65 37 64
3 65 64 61
3 62 65 61
3 26 62 61
3 26 61 25
3 37 26 25
3 37 25 36
3 65 37 38
3 65 38 66
3 62 65 66
3 62 66 63
3 62 63 27
3 26 62 27
3 26 27 38
3 37 26 38
3 616 581 580
3 616 580 615
3 609 616 615
3 609 615 608
3 609 608 573
3 574 609 573
3 574 573 580
3 581 574 580
3 595 596 626
3 625 595 626
3 625 626 610
3 609 625 610
3 574 609 610
3 574 610 575
3 595 574 575
3 595 575 596
3 624 591 590
3 624 590 623
3 608 624 623
3 608 623 607
3 608 607 572
3 573 608 572
3 573 572 590
3 591 573 590
3 519 486 485
3 519 485 518
3 513 519 518
3 513 518 512
3 513 512 477
3 478 513 477
3 478 477 485
3 486 478 485
3 491 492 525
3 524 491 525
3 524 525 514
3 513 524 514
3 478 513 514
3 478 514 479
3 491 478 479
3 491 479 492
3 523 490 489
3 523 489 522
3 512 523 522
3 512 522 511
3 512 511 476
3 477 512 476
3 477 476 489
3 490 477 489
3 663 638 637
3 663 637 662
3 660 663 662
3 660 662 659
3 660 659 634
3 635 660 634
3 635 634 637
3 638 635 637
3 641 642 667
3 666 641 667
3 666 667 661
3 660 666 661
3 635 660 661
3 635 661 636
3 641 635 636
3 641 636 642
3 665 640 639
3 665 639 664
3 659 665 664
3 659 664 658
3 659 658 633
3 634 659 633
3 634 633 639
3 640 634 639
3 759 716 715
3 759 715 758
3 748 759 758
3 748 758 747
3 748 747 698
3 699 748 698
3 699 698 715
3 716 699 715
3 725 726 769
3 768 725 769
3 768 769 749
3 748 768 749
3 699 748 749
3 699 749 700
3 725 699 700
3 725 700 726
3 767 724 723
3 767 723 766
3 747 767 766
3 747 766 746
3 747 746 697
3 698 747 697
3 698 697 723
3 724 698 723
3 839 783 782
3 839 782 838
3 834 839 838
3 834 838 833
3 834 833 776
3 777 834 776
3 777 776 782
3 783 777 782
3 788 789 845
3 844 788 845
3 844 845 835
3 834 844 835
3 777 834 835
3 777 835 778
3 788 777 778
3 788 778 789
3 843 787 786
3 843 786 842
3 833 843 842
3 833 842 832
3 833 832 775
3 776 833 775
3 776 775 786
3 787 776 786
3 939 889 888
3 939 888 938
3 930 939 938
3 930 938 929
3 930 929 876
3 877 930 876
3 877 876 888
3 889 877 888
3 898 899 951
3 950 898 951
3 950 951 919
3 918 950 919
3 877 918 919
3 877 919 878
3 898 877 878
3 898 878 899
3 949 897 896
3 949 896 948
3 929 949 948
3 929 948 928
3 929 928 875
3 876 929 875
3 876 875 896
3 897 876 896
3 1047 1009 1008
3 1047 1008 1046
3 1034 1047 1046
3 1034 1046 1033
3 1034 1033 998
3 999 1034 998
3 999 998 1008
3 1009 999 1008
3 1022 1023 1059
3 1058 1022 1059
3 1058 1059 1035
3 1034 1058 1035
3 999 1034 1035
3 999 1035 1000
3 1022 999 1000
3 1022 1000 1023
3 1057 1021 1020
3 1057 1020 1056
3 1033 1057 1056
3 1033 1056 1032
3 1033 1032 997
3 998 1033 997
3 998 997 1020
3 1021 998 1020
3 1163 1118 1117
3 1163 1117 1162
3 1141 1163 1162
3 1141 1162 1140
3 1141 1140 1109
3 1110 1141 1109
3 1110 1109 1117
3 1118 1110 1117
3 1130 1131 1174
3 1173 1130 1174
3 1173 1174 1142
3 1141 1173 1142
3 1097 1141 1142
3 1097 1142 1098
3 1130 1097 1098
3 1130 1098 1131
3 1172 1122 1121
3 1172 1121 1171
3 1140 1172 1171
3 1140 1171 1139
3 1140 1139 1108
3 1109 1140 1108
3 1109 1108 1121
3 1122 1109 1121
3 1225 1204 1203
3 1225 1203 1224
3 1219 1225 1224
3 1219 1224 1218
3 1219 1218 1192
3 1193 1219 1192
3 1193 1192 1203
3 1204 1193 1203
3 1211 1212 1232
3 1231 1211 1232
3 1231 1232 1220
3 1219 1231 1220
3 1193 1219 1220
3 1193 1220 1194
3 1211 1193 1194
3 1211 1194 1212
3 1230 1210 1209
3 1230 1209 1229
3 1218 1230 1229
3 1218 1229 1217
3 1218 1217 1191
3 1192 1218 1191
3 1192 1191 1209
3 1210 1192 1209
3 1312 1292 1291
3 1312 1291 1311
3 1307 1312 1311
3 1307 1311 1306
3 1307 1306 1286
3 1287 1307 1286
3 1287 1286 1291
3 1292 1287 1291
3 1298 1299 1321
3 1320 1298 1321
3 1320 1321 1308
3 1307 1320 1308
3 1287 1307 1308
3 1287 1308 1288
3 1298 1287 1288
3 1298 1288 1299
3 1319 1297 1296
3 1319 1296 1318
3 1306 1319 1318
3 1306 1318 1305
3 1306 1305 1285
3 1286 1306 1285
3 1286 1285 1296
3 1297 1286 1296
3 1401 1378 1377
3 1401 1377 1400
3 1395 1401 1400
3 1395 1400 1394
3 1395 1394 1372
3 1373 1395 1372
3 1373 1372 1377
3 1378 1373 1377
3 1385 1386 1409
3 1408 1385 1409
3 1408 1409 1396
3 1395 1408 1396
3 1373 1395 1396
3 1373 1396 1374
3 1385 1373 1374
3 1385 1374 1386
3 1407 1384 1383
3 1407 1383 1406
3 1394 1407 1406
3 1394 1406 1393
3 1394 1393 1371
3 1372 1394 1371
3 1372 1371 1383
3 1384 1372 1383
3 1461 1444 1443
3 1461 1443 1460
3 1456 1461 1460
3 1456 1460 1455
3 1456 1455 1440
3 1441 1456 1440
3 1441 1440 1443
3 1444 1441 1443
3 1449 1450 1465
3 1464 1449 1465
3 1464 1465 1457
3 1456 1464 1457
3 1441 1456 1457
3 1441 1457 1442
3 1449 1441 1442
3 1449 1442 1450
3 1463 1448 1447
3 1463 1447 1462
3 1455 1463 1462
3 1455 1462 1454
3 1455 1454 1439
3 1440 1455 1439
3 1440 1439 1447
3 1448 1440 1447
3 1494 1476 1475
3 1494 1475 1493
3 1489 1494 1493
3 1489 1493 1488
3 1489 1488 1472
3 1473 1489 1472
3 1473 1472 1475
3 1476 1473 1475
3 1480 1481 1501
3 1500 1480 1501
3 1500 1501 1490
3 1489 1500 1490
3 1469 1489 1490
3 1469 1490 1470
3 1480 1469 1470
3 1480 1470 1481
3 1499 1479 1478
3 1499 1478 1498
3 1488 1499 1498
3 1488 1498 1487
3 1488 1487 1471
3 1472 1488 1471
3 1472 1471 1478
3 1479 1472 1478
3 1553 1528 1527
3 1553 1527 1552
3 1544 1553 1552
3 1544 1552 1543
3 1544 1543 1521
3 1522 1544 1521
3 1522 1521 1527
3 1528 1522 1527
3 1531 1532 1560
3 1559 1531 1560
3 1559 1560 1545
3 1544 1559 1545
3 1522 1544 1545
3 1522 1545 1523
3 1531 1522 1523
3 1531 1523 1532
3 1558 1530 1529
3 1558 1529 1557
3 1543 1558 1557
3 1543 1557 1542
3 1543 1542 1520
3 1521 1543 1520
3 1521 1520 1529
3 1530 1521 1529
3 620 587 586
3 620 586 619
3 604 620 619
3 604 619 603
3 604 603 568
3 569 604 568
3 569 568 586
3 587 569 586
3 521 488 487
3 521 487 520
3 516 521 520
3 516 520 515
3 516 515 480
3 481 516 480
3 481 480 487
3 488 481 487
3 494 495 528
3 527 494 528
3 527 528 517
3 516 527 517
3 481 516 517
3 481 517 482
3 494 481 482
3 494 482 495
3 526 493 492
3 526 492 525
3 515 526 525
3 515 525 514
3 515 514 479
3 480 515 479
3 480 479 492
3 493 480 492
3 753 714 713
3 753 713 752
3 739 753 752
3 739 752 738
3 739 738 701
3 702 739 701
3 702 701 713
3 714 702 713
3 728 729 772
3 771 728 772
3 771 772 751
3 750 771 751
3 702 750 751
3 702 751 703
3 728 702 703
3 728 703 729
3 770 727 726
3 770 726 769
3 733 770 769
3 733 769 732
3 733 732 700
3 701 733 700
3 701 700 726
3 727 701 726
3 841 785 784
3 841 784 840
3 831 841 840
3 831 840 830
3 831 830 779
3 780 831 779
3 780 779 784
3 785 780 784
3 792 793 848
3 847 792 848
3 847 848 837
3 836 847 837
3 780 836 837
3 780 837 781
3 792 780 781
3 792 781 793
3 846 790 789
3 846 789 845
3 830 846 845
3 830 845 829
3 830 829 778
3 779 830 778
3 779 778 789
3 790 779 789
3 941 883 882
3 941 882 940
3 932 941 940
3 932 940 931
3 932 931 879
3 880 932 879
3 880 879 882
3 883 880 882
3 901 902 954
3 953 901 954
3 953 954 933
3 932 953 933
3 880 932 933
3 880 933 881
3 901 880 881
3 901 881 902
3 952 900 899
3 952 899 951
3 920 952 951
3 920 951 919
3 920 919 878
3 879 920 878
3 879 878 899
3 900 879 899
3 1049 1011 1010
3 1049 1010 1048
3 1037 1049 1048
3 1037 1048 1036
3 1037 1036 1001
3 1002 1037 1001
3 1002 1001 1010
3 1011 1002 1010
3 1024 1025 1062
3 1061 1024 1062
3 1061 1062 1038
3 1037 1061 1038
3 1002 1037 1038
3 1002 1038 1003
3 1024 1002 1003
3 1024 1003 1025
3 1060 1013 1012
3 1060 1012 1059
3 1036 1060 1059
3 1036 1059 1035
3 1036 1035 1000
3 1001 1036 1000
3 1001 1000 1012
3 1013 1001 1012
3 1155 1120 1119
3 1155 1119 1154
3 1152 1155 1154
3 1152 1154 1151
3 1152 1151 1099
3 1100 1152 1099
3 1100 1099 1119
3 1120 1100 1119
3 1133 1134 1177
3 1176 1133 1177
3 1176 1177 1153
3 1152 1176 1153
3 1100 1152 1153
3 1100 1153 1101
3 1133 1100 1101
3 1133 1101 1134
3 1175 1132 1131
3 1175 1131 1174
3 1136 1175 1174
3 1136 1174 1135
3 1136 1135 1098
3 1099 1136 1098
3 1099 1098 1131
3 1132 1099 1131
3 1227 1202 1201
3 1227 1201 1226
3 1222 1227 1226
3 1222 1226 1221
3 1222 1221 1195
3 1196 1222 1195
3 1196 1195 1201
3 1202 1196 1201
3 1207 1208 1235
3 1234 1207 1235
3 1234 1235 1223
3 1222 1234 1223
3 1196 1222 1223
3 1196 1223 1197
3 1207 1196 1197
3 1207 1197 1208
3 1233 1206 1205
3 1233 1205 1232
3 1221 1233 1232
3 1221 1232 1220
3 1221 1220 1189
3 1190 1221 1189
3 1190 1189 1205
3 1206 1190 1205
3 1515 1516 1511
3 1510 1515 1511
3 1504 1510 1511
3 1504 1511 1505
3 1361 1504 1505
3 1361 1505 1362
3 1346 1361 1362
3 1346 1362 1347
3 1346 1347 1334
3 1333 1346 1334
3 1333 1334 1497
3 1496 1333 1497
3 1496 1497 1365
3 1364 1496 1365
3 1364 1365 1569
3 1568 1364 1569
3 1580 1568 1569
3 1580 1569 1581
3 1515 1580 1581
3 1515 1581 1516
3 1568 1567 1579
3 1580 1568 1579
3 1580 1579 1575
3 1576 1580 1575
3 1574 1576 1575
3 1574 1575 1573
3 1578 1574 1573
3 1578 1573 1577
3 1566 1578 1577
3 1566 1577 1565
3 1568 1566 1565
3 1568 1565 1567
3 225 224 236
3 237 225 236
3 237 236 159
3 160 237 159
3 149 160 159
3 149 159 148
3 225 149 148
3 225 148 224
3 23 59 60
3 23 60 24
3 69 23 24
3 69 24 70
3 69 70 118
3 117 69 118
3 117 118 116
3 115 117 116
3 77 115 116
3 77 116 78
3 77 78 45
3 44 77 45
3 44 45 76
3 75 44 76
3 75 76 60
3 59 75 60
3 795 685 686
3 795 686 796
3 681 795 796
3 681 796 682
3 681 682 653
3 652 681 653
3 652 653 686
3 685 652 686
3 974 975 961
3 960 974 961
3 960 961 990
3 989 960 990
3 1063 989 990
3 1063 990 1064
3 974 1063 1064
3 974 1064 975
3 688 687 597
3 598 688 597
3 598 597 531
3 532 598 531
3 532 531 460
3 461 532 460
3 461 460 432
3 433 461 432
3 433 432 406
3 407 433 406
3 407 406 386
3 387 407 386
3 387 386 366
3 367 387 366
3 367 366 324
3 325 367 324
3 325 324 298
3 299 325 298
3 299 298 270
3 271 299 270
3 271 270 226
3 227 271 226
3 227 226 199
3 200 227 199
3 200 199 173
3 174 200 173
3 174 173 187
3 188 174 187
3 188 187 205
3 206 188 205
3 206 205 230
3 231 206 230
3 231 230 250
3 251 231 250
3 251 250 274
3 275 251 274
3 275 274 290
3 291 275 290
3 291 290 306
3 307 291 306
3 327 307 306
3 327 306 326
3 369 327 326
3 369 326 368
3 389 369 368
3 389 368 388
3 409 389 388
3 409 388 408
3 437 409 408
3 437 408 436
3 463 437 436
3 463 436 462
3 540 463 462
3 540 462 539
3 583 540 539
3 583 539 582
3 671 583 582
3 671 582 670
3 798 671 670
3 798 670 797
3 856 798 797
3 856 797 855
3 958 856 855
3 958 855 957
3 973 958 957
3 973 957 972
3 800 973 972
3 800 972 799
3 800 799 687
3 688 800 687
3 1274 1179 1182
3 1274 1182 1277
3 1065 1274 1277
3 1065 1277 1068
3 1065 1068 679
3 676 1065 679
3 676 679 1182
3 1179 676 1182
3 648 647 650
3 651 648 650
3 684 651 650
3 684 650 683
3 684 683 1065
3 1066 684 1065
3 1275 1066 1065
3 1275 1065 1274
3 1275 1274 1321
3 1322 1275 1321
3 1322 1321 1232
3 1235 1322 1232
3 1223 1235 1232
3 1223 1232 1220
3 1223 1220 1199
3 1200 1223 1199
3 1200 1199 1212
3 1213 1200 1212
3 1213 1212 1174
3 1177 1213 1174
3 1153 1177 1174
3 1153 1174 1150
3 1153 1150 1111
3 1112 1153 1111
3 1112 1111 1131
3 1134 1112 1131
3 1134 1131 1059
3 1062 1134 1059
3 1038 1062 1059
3 1038 1059 1035
3 1038 1035 1000
3 1003 1038 1000
3 1003 1000 1023
3 1025 1003 1023
3 1025 1023 951
3 954 1025 951
3 921 954 951
3 921 951 919
3 921 919 878
3 881 921 878
3 881 878 899
3 902 881 899
3 902 899 845
3 848 902 845
3 837 848 845
3 837 845 835
3 837 835 778
3 781 837 778
3 781 778 789
3 791 781 789
3 791 789 769
3 772 791 769
3 751 772 769
3 751 769 749
3 751 749 700
3 703 751 700
3 703 700 726
3 729 703 726
3 729 726 525
3 528 729 525
3 517 528 525
3 517 525 514
3 517 514 479
3 482 517 479
3 482 479 492
3 495 482 492
3 495 492 360
3 361 495 360
3 357 361 360
3 357 360 356
3 357 356 335
3 336 357 335
3 336 335 340
3 341 336 340
3 341 340 259
3 260 341 259
3 81 260 259
3 81 259 80
3 648 81 80
3 648 80 647
3 561 677 676
3 561 676 560
3 1078 561 560
3 1078 560 1077
3 1078 1077 1179
3 1180 1078 1179
3 1180 1179 676
3 677 1180 676
3 649 82 81
3 649 81 648
3 649 648 680
3 682 649 680
3 796 682 680
3 796 680 794
3 796 794 988
3 990 796 988
3 990 988 959
3 961 990 959
3 961 959 976
3 977 961 976
3 977 976 316
3 317 977 316
3 317 316 344
3 345 317 344
3 345 344 260
3 261 345 260
3 82 261 260
3 82 260 81
3 1342 1484 1482
3 1342 1482 1338
3 1344 1342 1338
3 1344 1338 1343
3 1344 1343 1485
3 1486 1344 1485
3 1486 1485 1482
3 1484 1486 1482
