OFF
417 688 0
0.000 21.294 5.800
0.000 21.294 40.800
0.000 21.294 44.300
0.000 21.294 44.320
0.376 25.272 12.800
0.376 25.272 40.800
0.376 25.272 40.820
0.628 19.125 5.800
0.628 19.125 40.800
0.628 19.125 44.300
0.628 19.125 44.320
0.887 26.204 12.800
0.887 26.204 40.800
0.887 26.204 40.820
1.001 23.110 5.800
1.001 23.110 12.800
1.001 23.110 40.800
1.001 23.110 40.820
1.001 23.110 44.300
1.001 23.110 49.900
1.001 23.110 49.920
1.044 17.684 5.800
1.044 17.684 40.800
1.044 17.684 44.300
1.044 17.684 44.320
1.044 17.684 49.900
1.044 17.684 49.920
1.554 18.621 5.800
1.554 18.621 40.800
1.554 18.621 44.300
1.554 18.621 44.320
2.041 19.516 44.300
2.041 19.516 49.900
2.041 19.516 49.920
2.055 19.227 0.000
2.055 19.227 5.800
2.295 13.361 5.800
2.295 13.361 40.800
2.295 13.361 44.300
2.295 13.361 44.320
2.295 13.361 49.900
2.295 13.361 49.920
2.300 18.382 0.000
2.300 18.382 5.800
2.711 11.920 5.800
2.711 11.920 40.800
2.711 11.920 44.300
2.711 11.920 44.320
2.711 11.920 49.900
2.711 11.920 49.920
2.899 19.477 0.000
2.899 19.477 5.800
3.037 26.839 44.300
3.037 26.839 49.900
3.037 26.839 49.920
3.043 26.850 5.800
3.043 26.850 12.800
3.043 26.850 40.800
3.043 26.850 40.820
3.144 18.631 0.000
3.144 18.631 5.800
3.164 23.749 5.800
3.164 23.749 12.800
3.164 23.749 40.800
3.164 23.749 40.820
3.221 12.857 5.800
3.221 12.857 40.800
3.221 12.857 44.300
3.221 12.857 44.320
3.221 12.857 49.900
3.221 12.857 49.920
3.670 24.680 5.800
3.670 24.680 12.800
3.670 24.680 40.800
3.670 24.680 40.820
3.722 13.464 0.000
3.722 13.464 5.800
3.908 23.977 0.000
3.908 23.977 5.800
3.934 7.693 5.800
3.934 7.693 40.800
3.934 7.693 44.300
3.934 7.693 44.320
3.934 7.693 49.900
3.934 7.693 49.920
3.966 12.619 0.000
3.966 12.619 5.800
4.067 28.708 5.800
4.067 28.708 40.800
4.073 28.718 40.800
4.073 28.718 44.300
4.073 28.718 44.320
4.351 6.252 5.800
4.351 6.252 40.800
4.351 6.252 44.300
4.351 6.252 44.320
4.566 13.713 0.000
4.566 13.713 5.800
4.810 12.868 0.000
4.810 12.868 5.800
4.860 7.189 5.800
4.860 7.189 40.800
4.860 7.189 44.300
4.860 7.189 44.320
4.968 4.114 5.800
4.968 4.114 40.800
4.968 4.114 44.300
4.968 4.114 44.320
5.361 7.796 0.000
5.361 7.796 5.800
5.606 6.951 0.000
5.606 6.951 5.800
5.745 6.708 44.300
5.745 6.708 49.900
5.745 6.708 49.920
6.205 8.045 0.000
6.205 8.045 5.800
6.225 29.344 5.800
6.225 29.344 40.800
6.225 29.344 44.300
6.225 29.344 44.320
6.422 4.366 44.300
6.422 4.366 49.900
6.422 4.366 49.920
6.450 7.200 0.000
6.450 7.200 5.800
6.633 27.901 44.300
6.633 27.901 49.900
6.633 27.901 49.920
6.826 3.091 5.800
6.826 3.091 12.800
6.826 3.091 40.800
6.826 3.091 40.820
6.907 28.086 0.000
6.907 28.086 5.800
7.148 28.835 5.800
7.148 28.835 40.800
7.148 28.835 44.300
7.148 28.835 44.320
7.151 27.241 0.000
7.151 27.241 5.800
7.451 0.929 12.800
7.451 0.929 40.800
7.451 0.929 40.820
7.669 29.780 5.800
7.669 29.780 40.800
7.669 29.780 44.300
7.669 29.780 44.320
7.669 29.780 49.900
7.669 29.780 49.920
7.751 28.335 0.000
7.751 28.335 5.800
7.995 27.490 0.000
7.995 27.490 5.800
8.380 0.413 12.800
8.380 0.413 40.800
8.380 0.413 40.820
8.995 3.705 5.800
8.995 3.705 12.800
8.995 3.705 40.800
8.995 3.705 40.820
9.921 3.188 5.800
9.921 3.188 12.800
9.921 3.188 40.800
9.921 3.188 40.820
10.537 1.024 12.800
10.537 1.024 40.800
10.537 1.024 40.820
10.548 1.018 0.000
10.548 1.018 5.800
10.548 1.018 40.800
11.441 5.849 44.300
11.441 5.849 49.900
11.441 5.849 49.920
12.395 0.000 0.000
12.395 0.000 5.800
12.395 0.000 40.800
12.395 0.000 44.300
12.395 0.000 44.320
13.073 0.200 44.300
13.073 0.200 49.900
13.073 0.200 49.920
14.817 31.891 5.800
14.817 31.891 40.800
14.817 31.891 44.300
14.817 31.891 44.320
14.817 31.891 49.900
14.817 31.891 49.920
15.515 30.638 0.000
15.515 30.638 5.800
15.757 31.387 40.800
15.757 31.387 44.300
15.757 31.387 44.320
15.757 31.387 49.900
15.757 31.387 49.920
15.759 29.792 0.000
15.759 29.792 5.800
16.255 32.316 40.800
16.255 32.316 44.300
16.255 32.316 44.320
16.255 32.316 49.900
16.255 32.316 49.920
16.359 30.887 0.000
16.359 30.887 5.800
16.603 30.042 0.000
16.603 30.042 5.800
17.236 27.914 0.000
17.236 27.914 5.800
18.352 29.994 0.000
18.352 29.994 5.800
18.352 29.994 40.800
19.574 17.864 49.900
19.574 17.864 54.100
22.027 9.726 49.900
22.027 9.726 54.100
23.012 31.370 0.000
23.012 31.370 5.800
23.012 31.370 40.800
23.449 34.440 40.800
23.449 34.440 44.300
23.449 34.440 44.320
23.449 34.440 49.900
23.449 34.440 49.920
24.147 33.187 0.000
24.147 33.187 5.800
24.389 33.936 40.800
24.389 33.936 44.300
24.389 33.936 44.320
24.389 33.936 49.900
24.389 33.936 49.920
24.391 32.341 0.000
24.391 32.341 5.800
24.887 34.865 5.800
24.887 34.865 40.800
24.887 34.865 44.300
24.887 34.865 44.320
24.887 34.865 49.900
24.887 34.865 49.920
24.991 33.436 0.000
24.991 33.436 5.800
25.115 30.241 0.000
25.115 30.241 5.800
25.235 32.591 0.000
25.235 32.591 5.800
30.315 21.036 49.900
30.315 21.036 54.100
31.953 23.397 0.000
31.953 23.397 5.800
32.085 36.990 5.800
32.085 36.990 40.800
32.085 36.990 44.300
32.085 36.990 44.320
32.085 36.990 49.900
32.085 36.990 49.920
32.769 12.898 49.900
32.769 12.898 54.100
32.783 35.737 0.000
32.783 35.737 5.800
33.025 36.486 5.800
33.025 36.486 40.800
33.025 36.486 44.300
33.025 36.486 44.320
33.027 34.892 0.000
33.027 34.892 5.800
33.523 37.415 5.800
33.523 37.415 40.800
33.523 37.415 44.300
33.523 37.415 44.320
33.627 35.986 0.000
33.627 35.986 5.800
33.872 35.141 0.000
33.872 35.141 5.800
33.953 35.988 44.300
33.953 35.988 49.900
33.953 35.988 49.920
34.103 32.895 0.000
34.103 32.895 5.800
34.985 13.344 0.000
34.985 13.344 5.800
35.681 38.053 5.800
35.681 38.053 40.800
35.681 38.053 44.300
35.681 38.053 44.320
36.557 24.756 0.000
36.557 24.756 5.800
37.550 37.049 5.800
37.550 37.049 12.800
37.550 37.049 40.800
37.550 37.049 40.850
38.202 34.887 5.800
38.202 34.887 12.800
38.202 34.887 40.800
38.202 34.887 40.850
39.133 34.380 5.800
39.133 34.380 12.800
39.133 34.380 40.800
39.133 34.380 40.850
39.367 18.034 44.300
39.367 18.034 49.900
39.367 18.034 49.920
39.711 37.679 12.800
39.711 37.679 40.800
39.711 37.679 40.850
40.646 37.173 12.800
40.646 37.173 40.800
40.646 37.173 40.850
41.070 30.749 0.000
41.070 30.749 5.800
41.296 35.019 5.800
41.296 35.019 12.800
41.296 35.019 40.800
41.296 35.019 40.850
41.324 29.906 0.000
41.324 29.906 5.800
41.833 15.366 0.000
41.833 15.366 5.800
41.914 30.998 0.000
41.914 30.998 5.800
42.168 30.156 0.000
42.168 30.156 5.800
42.802 25.005 0.000
42.802 25.005 5.800
43.057 24.162 0.000
43.057 24.162 5.800
43.165 34.015 5.800
43.165 34.015 40.800
43.165 34.015 44.300
43.165 34.015 44.320
43.313 30.927 5.800
43.313 30.927 40.800
43.313 30.927 44.300
43.313 30.927 44.320
43.646 25.254 0.000
43.646 25.254 5.800
43.681 9.239 0.000
43.681 9.239 5.800
43.817 31.853 5.800
43.817 31.853 40.800
43.817 31.853 44.300
43.817 31.853 44.320
43.901 24.411 0.000
43.901 24.411 5.800
44.250 30.417 5.800
44.250 30.417 40.800
44.250 30.417 44.300
44.250 30.417 44.320
44.346 9.435 5.800
44.346 9.435 40.800
44.346 9.435 44.300
44.346 9.435 44.320
44.346 9.435 49.900
44.346 9.435 49.920
44.506 19.356 0.000
44.506 19.356 5.800
44.674 13.425 5.800
44.674 13.425 12.800
44.674 13.425 40.800
44.674 13.425 40.820
44.760 18.513 0.000
44.760 18.513 5.800
45.045 25.182 5.800
45.045 25.182 40.800
45.045 25.182 44.300
45.045 25.182 44.320
45.170 14.362 5.800
45.170 14.362 12.800
45.170 14.362 40.800
45.170 14.362 40.820
45.326 11.262 5.800
45.326 11.262 40.800
45.332 11.273 12.800
45.332 11.273 40.800
45.332 11.273 40.820
45.350 19.604 0.000
45.350 19.604 5.800
45.549 26.108 5.800
45.549 26.108 40.800
45.549 26.108 44.300
45.549 26.108 44.320
45.604 18.762 0.000
45.604 18.762 5.800
45.820 20.018 44.300
45.820 20.018 49.900
45.820 20.018 49.920
45.982 24.673 5.800
45.982 24.673 40.800
45.982 24.673 44.300
45.982 24.673 44.320
46.749 19.533 5.800
46.749 19.533 40.800
46.749 19.533 44.300
46.749 19.533 44.320
47.253 20.459 5.800
47.253 20.459 40.800
47.253 20.459 44.300
47.253 20.459 44.320
47.326 15.025 5.800
47.326 15.025 12.800
47.326 15.025 40.800
47.326 15.025 40.820
47.326 15.025 44.300
47.326 15.025 49.900
47.326 15.025 49.920
47.475 11.932 12.800
47.475 11.932 40.800
47.475 11.932 40.820
47.686 19.024 5.800
47.686 19.024 40.800
47.686 19.024 44.300
47.686 19.024 44.320
47.975 12.870 12.800
47.975 12.870 40.800
47.975 12.870 40.820
48.328 16.893 5.800
48.328 16.893 40.800
48.328 16.893 44.300
48.328 16.893 44.320
3 62 15 4
3 72 62 4
3 56 72 4
3 11 56 4
3 154 141 130
3 165 154 130
3 162 165 130
3 158 162 130
3 296 292 288
3 311 296 288
3 305 311 288
3 302 305 288
3 370 355 365
3 403 370 365
3 410 403 365
3 397 410 365
3 347 176 105
3 414 347 105
3 407 414 105
3 389 407 105
3 393 389 105
3 385 393 105
3 361 385 105
3 376 361 105
3 343 376 105
3 329 343 105
3 337 329 105
3 325 337 105
3 280 325 105
3 259 265 280
3 233 249 259
3 225 233 259
3 197 218 225
3 190 197 225
3 145 183 190
3 136 145 190
3 89 118 136
3 1 89 136
3 8 1 136
3 28 8 136
3 22 28 136
3 37 22 136
3 66 37 136
3 80 45 66
3 101 80 66
3 105 93 101
3 280 105 101
3 259 280 101
3 225 259 101
3 190 225 101
3 136 190 101
3 66 136 101
3 368 346 175
3 354 368 175
3 364 354 175
3 413 396 364
3 406 413 364
3 388 406 364
3 384 392 388
3 360 384 388
3 342 375 360
3 328 342 360
3 324 336 328
3 308 324 328
3 293 308 328
3 289 293 328
3 279 285 289
3 264 279 289
3 258 264 289
3 232 248 258
3 216 232 258
3 144 182 209
3 135 144 209
3 87 117 135
3 55 87 135
3 71 55 135
3 61 71 135
3 0 14 61
3 7 0 61
3 27 7 61
3 36 21 27
3 65 36 27
3 79 44 65
3 100 79 65
3 104 92 100
3 129 104 100
3 157 129 100
3 161 157 100
3 175 169 161
3 364 175 161
3 388 364 161
3 360 388 161
3 328 360 161
3 289 328 161
3 258 289 161
3 216 258 161
3 209 216 161
3 135 209 161
3 61 135 161
3 27 61 161
3 65 27 161
3 100 65 161
3 110 108 115
3 124 110 115
3 85 75 96
3 98 85 96
3 42 34 50
3 59 42 50
3 139 133 150
3 152 139 150
3 195 188 202
3 204 195 202
3 230 223 238
3 242 230 238
3 262 256 268
3 270 262 268
3 352 373 379
3 358 352 379
3 320 332 340
3 322 320 340
3 306 316 318
3 312 306 318
3 334 174 168
3 314 334 168
3 277 314 168
3 246 277 168
3 275 283 246
3 240 275 246
3 215 240 246
3 208 215 246
3 206 208 246
3 77 206 246
3 168 77 246
3 348 179 171
3 400 348 171
3 381 400 171
3 297 381 171
3 272 297 171
3 250 272 171
3 234 250 171
3 226 234 171
3 219 226 171
3 198 219 171
3 191 198 171
3 184 191 171
3 146 184 171
3 126 146 171
3 52 126 171
3 18 52 171
3 31 18 171
3 23 31 171
3 67 38 23
3 81 46 67
3 112 81 67
3 171 121 112
3 67 23 171
3 112 67 171
3 213 211 244
3 254 213 244
3 335 175 169
3 315 335 169
3 278 315 169
3 247 278 169
3 276 284 247
3 241 276 247
3 216 241 247
3 209 216 247
3 207 209 247
3 78 207 247
3 169 78 247
3 369 347 176
3 356 369 176
3 366 356 176
3 414 398 366
3 407 414 366
3 389 407 366
3 385 393 389
3 361 385 389
3 343 376 361
3 329 343 361
3 325 337 329
3 310 325 329
3 295 310 329
3 291 295 329
3 280 287 291
3 265 280 291
3 259 265 291
3 233 249 259
3 217 233 259
3 145 183 210
3 136 145 210
3 88 118 136
3 57 88 136
3 73 57 136
3 63 73 136
3 1 16 63
3 8 1 63
3 28 8 63
3 37 22 28
3 66 37 28
3 80 45 66
3 101 80 66
3 105 93 101
3 131 105 101
3 159 131 101
3 163 159 101
3 176 170 163
3 366 176 163
3 389 366 163
3 361 389 163
3 329 361 163
3 291 329 163
3 259 291 163
3 217 259 163
3 210 217 163
3 136 210 163
3 63 136 163
3 28 63 163
3 66 28 163
3 101 66 163
3 156 143 132
3 167 156 132
3 164 167 132
3 160 164 132
3 372 357 367
3 405 372 367
3 412 405 367
3 399 412 367
3 64 17 6
3 74 64 6
3 58 74 6
3 13 58 6
3 349 178 107
3 416 349 107
3 409 416 107
3 391 409 107
3 395 391 107
3 387 395 107
3 363 387 107
3 378 363 107
3 345 378 107
3 331 345 107
3 339 331 107
3 327 339 107
3 282 327 107
3 261 267 282
3 235 251 261
3 227 235 261
3 199 220 227
3 192 199 227
3 147 185 192
3 138 147 192
3 91 120 138
3 3 91 138
3 10 3 138
3 30 10 138
3 24 30 138
3 39 24 138
3 68 39 138
3 82 47 68
3 103 82 68
3 107 95 103
3 282 107 103
3 261 282 103
3 227 261 103
3 192 227 103
3 138 192 103
3 68 138 103
3 351 181 173
3 402 351 173
3 383 402 173
3 299 383 173
3 274 299 173
3 253 274 173
3 237 253 173
3 229 237 173
3 222 229 173
3 201 222 173
3 194 201 173
3 187 194 173
3 149 187 173
3 128 149 173
3 54 128 173
3 20 54 173
3 33 20 173
3 26 33 173
3 70 41 26
3 84 49 70
3 114 84 70
3 173 123 114
3 70 26 173
3 114 70 173
3 214 212 245
3 255 214 245
3 78 169 168
3 78 168 77
3 207 78 77
3 207 77 206
3 209 207 206
3 209 206 208
3 216 209 208
3 216 208 215
3 241 216 215
3 241 215 240
3 276 241 240
3 276 240 275
3 276 275 283
3 284 276 283
3 284 283 246
3 247 284 246
3 247 246 277
3 278 247 277
3 315 278 277
3 315 277 314
3 315 314 334
3 335 315 334
3 335 334 174
3 175 335 174
3 175 174 168
3 169 175 168
3 356 369 368
3 356 368 354
3 366 356 354
3 366 354 364
3 398 366 364
3 398 364 396
3 414 398 396
3 414 396 413
3 407 414 413
3 407 413 406
3 407 406 388
3 389 407 388
3 393 389 388
3 393 388 392
3 385 393 392
3 385 392 384
3 385 384 360
3 361 385 360
3 376 361 360
3 376 360 375
3 343 376 375
3 343 375 342
3 343 342 328
3 329 343 328
3 337 329 328
3 337 328 336
3 325 337 336
3 325 336 324
3 325 324 308
3 310 325 308
3 310 308 293
3 295 310 293
3 295 293 289
3 291 295 289
3 287 291 289
3 287 289 285
3 287 285 279
3 280 287 279
3 280 279 264
3 265 280 264
3 265 264 258
3 259 265 258
3 259 258 248
3 249 259 248
3 249 248 232
3 233 249 232
3 233 232 216
3 217 233 216
3 217 216 209
3 210 217 209
3 210 209 182
3 183 210 182
3 183 182 144
3 145 183 144
3 145 144 135
3 136 145 135
3 136 135 117
3 118 136 117
3 118 117 87
3 88 118 87
3 88 87 55
3 57 88 55
3 57 55 71
3 73 57 71
3 73 71 61
3 63 73 61
3 63 61 14
3 16 63 14
3 16 14 0
3 1 16 0
3 1 0 7
3 8 1 7
3 28 8 7
3 28 7 27
3 28 27 21
3 22 28 21
3 22 21 36
3 37 22 36
3 66 37 36
3 66 36 65
3 66 65 44
3 45 66 44
3 45 44 79
3 80 45 79
3 101 80 79
3 101 79 100
3 101 100 92
3 93 101 92
3 93 92 104
3 105 93 104
3 131 105 104
3 131 104 129
3 159 131 129
3 159 129 157
3 163 159 157
3 163 157 161
3 163 161 169
3 170 163 169
3 176 170 169
3 176 169 175
3 347 176 175
3 347 175 346
3 369 347 346
3 369 346 368
3 159 131 130
3 159 130 158
3 163 159 158
3 163 158 162
3 163 162 165
3 166 163 165
3 166 165 154
3 155 166 154
3 155 154 141
3 142 155 141
3 131 142 141
3 131 141 130
3 398 366 365
3 398 365 397
3 398 397 410
3 411 398 410
3 411 410 403
3 404 411 403
3 404 403 370
3 371 404 370
3 356 371 370
3 356 370 355
3 366 356 355
3 366 355 365
3 12 5 4
3 12 4 11
3 57 12 11
3 57 11 56
3 57 56 72
3 73 57 72
3 73 72 62
3 63 73 62
3 63 62 15
3 16 63 15
3 5 16 15
3 5 15 4
3 301 287 286
3 301 286 300
3 304 301 300
3 304 300 303
3 304 303 309
3 310 304 309
3 310 309 294
3 295 310 294
3 295 294 290
3 291 295 290
3 287 291 290
3 287 290 286
3 94 106 105
3 94 105 93
3 102 94 93
3 102 93 101
3 102 101 80
3 81 102 80
3 46 81 80
3 46 80 45
3 67 46 45
3 67 45 66
3 67 66 37
3 38 67 37
3 23 38 37
3 23 37 22
3 29 23 22
3 29 22 28
3 29 28 8
3 9 29 8
3 2 9 8
3 2 8 1
3 90 2 1
3 90 1 89
3 119 90 89
3 119 89 118
3 137 119 118
3 137 118 136
3 146 137 136
3 146 136 145
3 184 146 145
3 184 145 183
3 191 184 183
3 191 183 190
3 198 191 190
3 198 190 197
3 219 198 197
3 219 197 218
3 226 219 218
3 226 218 225
3 234 226 225
3 234 225 233
3 250 234 233
3 250 233 249
3 260 250 249
3 260 249 259
3 266 260 259
3 266 259 265
3 281 266 265
3 281 265 280
3 326 281 280
3 326 280 325
3 326 325 337
3 338 326 337
3 338 337 329
3 330 338 329
3 344 330 329
3 344 329 343
3 344 343 376
3 377 344 376
3 377 376 361
3 362 377 361
3 386 362 361
3 386 361 385
3 386 385 393
3 394 386 393
3 394 393 389
3 390 394 389
3 408 390 389
3 408 389 407
3 408 407 414
3 415 408 414
3 415 414 347
3 348 415 347
3 348 347 176
3 177 348 176
3 177 176 105
3 106 177 105
3 172 171 121
3 122 172 121
3 113 122 121
3 113 121 112
3 113 112 81
3 83 113 81
3 48 83 81
3 48 81 46
3 69 48 46
3 69 46 67
3 69 67 38
3 40 69 38
3 25 40 38
3 25 38 23
3 32 25 23
3 32 23 31
3 19 32 31
3 19 31 18
3 53 19 18
3 53 18 52
3 127 53 52
3 127 52 126
3 148 127 126
3 148 126 146
3 186 148 146
3 186 146 184
3 193 186 184
3 193 184 191
3 200 193 191
3 200 191 198
3 221 200 198
3 221 198 219
3 228 221 219
3 228 219 226
3 236 228 226
3 236 226 234
3 252 236 234
3 252 234 250
3 273 252 250
3 273 250 272
3 273 272 297
3 298 273 297
3 382 298 297
3 382 297 381
3 382 381 400
3 401 382 400
3 401 400 348
3 350 401 348
3 350 348 179
3 180 350 179
3 172 180 179
3 172 179 171
3 245 244 254
3 255 245 254
3 255 254 213
3 214 255 213
3 212 214 213
3 212 213 211
3 245 212 211
3 245 211 244
3 51 50 59
3 60 51 59
3 60 59 42
3 43 60 42
3 35 43 42
3 35 42 34
3 51 35 34
3 51 34 50
3 97 96 98
3 99 97 98
3 99 98 85
3 86 99 85
3 76 86 85
3 76 85 75
3 97 76 75
3 97 75 96
3 116 115 124
3 125 116 124
3 125 124 110
3 111 125 110
3 109 111 110
3 109 110 108
3 116 109 108
3 116 108 115
3 321 320 322
3 323 321 322
3 341 323 322
3 341 322 340
3 333 341 340
3 333 340 332
3 333 332 320
3 321 333 320
3 353 352 358
3 359 353 358
3 380 359 358
3 380 358 379
3 374 380 379
3 374 379 373
3 374 373 352
3 353 374 352
3 307 306 312
3 313 307 312
3 319 313 312
3 319 312 318
3 317 319 318
3 317 318 316
3 317 316 306
3 307 317 306
3 203 202 204
3 205 203 204
3 205 204 195
3 196 205 195
3 189 196 195
3 189 195 188
3 203 189 188
3 203 188 202
3 151 150 152
3 153 151 152
3 153 152 139
3 140 153 139
3 134 140 139
3 134 139 133
3 151 134 133
3 151 133 150
3 239 238 242
3 243 239 242
3 243 242 230
3 231 243 230
3 224 231 230
3 224 230 223
3 239 224 223
3 239 223 238
3 269 268 270
3 271 269 270
3 271 270 262
3 263 271 262
3 257 263 262
3 257 262 256
3 269 257 256
3 269 256 268
