OFF
576 1208 0
0.000 30.676 0.000
0.000 30.676 4.267
0.000 30.676 14.351
0.389 30.792 0.000
0.389 30.792 4.176
0.389 30.792 4.267
0.446 30.601 4.176
0.446 30.601 4.267
0.802 29.405 0.000
0.802 29.405 2.286
0.802 29.405 4.267
0.830 29.309 0.000
0.830 29.309 2.286
0.830 29.309 4.267
0.852 30.930 4.267
0.852 30.930 5.182
0.852 30.930 6.553
0.852 30.930 8.611
0.852 30.930 9.982
0.852 30.930 11.709
0.852 30.930 13.081
0.852 30.930 14.351
0.881 30.834 5.182
0.881 30.834 6.553
0.881 30.834 8.611
0.881 30.834 9.982
0.881 30.834 11.709
0.881 30.834 13.081
0.909 30.738 4.267
0.909 30.738 5.182
0.909 30.738 6.553
0.909 30.738 8.611
0.909 30.738 9.982
0.909 30.738 11.709
0.909 30.738 13.081
0.909 30.738 14.351
2.410 31.393 0.000
2.410 31.393 4.176
2.410 31.393 4.267
2.410 31.393 5.182
2.410 31.393 6.553
2.410 31.393 8.611
2.410 31.393 9.982
2.410 31.393 11.709
2.410 31.393 13.081
2.410 31.393 14.351
2.439 31.297 5.182
2.439 31.297 6.553
2.439 31.297 8.611
2.439 31.297 9.982
2.439 31.297 11.709
2.439 31.297 13.081
2.467 31.201 4.176
2.467 31.201 4.267
2.467 31.201 5.182
2.467 31.201 6.553
2.467 31.201 8.611
2.467 31.201 9.982
2.467 31.201 11.709
2.467 31.201 13.081
2.467 31.201 14.351
2.556 31.436 0.000
2.556 31.436 0.457
2.556 31.436 3.200
2.556 31.436 4.267
2.585 31.340 0.457
2.585 31.340 3.200
2.613 31.244 0.000
2.613 31.244 0.457
2.613 31.244 3.200
2.613 31.244 4.267
2.799 31.508 4.267
2.799 31.508 5.182
2.799 31.508 6.553
2.799 31.508 8.611
2.799 31.508 9.982
2.799 31.508 11.709
2.799 31.508 13.081
2.799 31.508 14.351
2.823 30.005 0.000
2.823 30.005 2.286
2.823 30.005 4.267
2.828 31.413 5.182
2.828 31.413 6.553
2.828 31.413 8.611
2.828 31.413 9.982
2.828 31.413 11.709
2.828 31.413 13.081
2.851 29.909 0.000
2.851 29.909 2.286
2.851 29.909 4.267
2.856 31.317 4.267
2.856 31.317 5.182
2.856 31.317 6.553
2.856 31.317 8.611
2.856 31.317 9.982
2.856 31.317 11.709
2.856 31.317 13.081
2.856 31.317 14.351
3.141 31.610 0.000
3.141 31.610 0.457
3.141 31.610 3.200
3.141 31.610 4.267
3.169 31.514 0.457
3.169 31.514 3.200
3.198 31.418 0.000
3.198 31.418 0.457
3.198 31.418 3.200
3.198 31.418 4.267
3.287 31.653 0.000
3.287 31.653 0.457
3.287 31.653 3.200
3.287 31.653 4.267
3.315 31.557 0.457
3.315 31.557 3.200
3.344 31.462 0.000
3.344 31.462 0.457
3.344 31.462 3.200
3.344 31.462 4.267
4.358 31.971 4.267
4.358 31.971 5.182
4.358 31.971 6.553
4.358 31.971 8.611
4.358 31.971 9.982
4.358 31.971 11.709
4.358 31.971 13.081
4.358 31.971 14.351
4.386 31.876 5.182
4.386 31.876 6.553
4.386 31.876 8.611
4.386 31.876 9.982
4.386 31.876 11.709
4.386 31.876 13.081
4.415 31.780 4.267
4.415 31.780 5.182
4.415 31.780 6.553
4.415 31.780 8.611
4.415 31.780 9.982
4.415 31.780 11.709
4.415 31.780 13.081
4.415 31.780 14.351
4.991 32.160 0.000
4.991 32.160 0.457
4.991 32.160 3.200
4.991 32.160 4.267
5.020 32.064 0.457
5.020 32.064 3.200
5.048 31.968 0.000
5.048 31.968 0.457
5.048 31.968 3.200
5.048 31.968 4.267
5.162 32.210 0.000
5.162 32.210 3.658
5.162 32.210 4.267
5.162 32.210 12.802
5.162 32.210 14.351
5.207 32.058 3.658
5.207 32.058 12.802
5.566 30.848 0.000
5.566 30.848 3.658
5.746 32.384 0.000
5.746 32.384 3.658
5.746 32.384 12.802
5.768 32.311 3.658
5.768 32.311 12.802
6.001 29.386 14.507
6.001 29.386 14.824
6.122 31.118 0.000
6.122 31.118 3.658
6.151 31.022 0.000
6.151 31.022 3.658
6.330 32.557 3.658
6.330 32.557 12.802
6.352 32.484 3.658
6.352 32.484 12.802
6.403 32.579 3.658
6.403 32.579 5.134
6.403 32.579 7.669
6.403 32.579 8.907
6.403 32.579 11.443
6.403 32.579 12.802
6.449 32.427 3.658
6.449 32.427 5.134
6.449 32.427 7.669
6.449 32.427 8.907
6.449 32.427 11.443
6.449 32.427 12.802
6.477 32.331 3.658
6.477 32.331 12.802
6.942 26.221 12.802
6.942 26.221 14.507
6.942 26.221 14.824
6.942 26.221 15.807
6.985 26.075 12.802
6.985 26.075 15.807
7.523 32.912 3.658
7.523 32.912 5.134
7.523 32.912 7.669
7.523 32.912 8.907
7.523 32.912 11.443
7.523 32.912 12.802
7.568 32.760 3.658
7.568 32.760 5.134
7.568 32.760 7.669
7.568 32.760 8.907
7.568 32.760 11.443
7.568 32.760 12.802
7.596 32.933 3.658
7.596 32.933 12.802
7.618 32.860 3.658
7.618 32.860 12.802
7.654 32.785 0.000
7.654 32.785 3.658
7.778 32.718 0.000
7.778 32.718 3.658
7.985 31.671 0.000
7.985 31.671 3.658
8.109 31.604 0.000
8.109 31.604 3.658
8.111 26.568 12.802
8.111 26.568 14.507
8.111 26.568 15.807
8.154 26.422 12.802
8.154 26.422 14.507
8.154 26.422 15.807
8.182 26.326 12.802
8.182 26.326 14.507
8.182 26.326 15.807
8.210 33.116 3.658
8.210 33.116 12.802
8.231 33.043 3.658
8.231 33.043 12.802
8.283 33.137 3.658
8.283 33.137 5.134
8.283 33.137 7.669
8.283 33.137 8.907
8.283 33.137 11.443
8.283 33.137 12.802
8.328 32.985 3.658
8.328 32.985 5.134
8.328 32.985 7.669
8.328 32.985 8.907
8.328 32.985 11.443
8.328 32.985 12.802
9.118 0.000 0.000
9.118 0.000 4.267
9.118 0.000 14.351
9.376 26.944 12.802
9.376 26.944 15.807
9.403 33.470 3.658
9.403 33.470 5.134
9.403 33.470 7.669
9.403 33.470 8.907
9.403 33.470 11.443
9.403 33.470 12.802
9.419 26.798 12.802
9.419 26.798 15.807
9.448 33.318 3.658
9.448 33.318 5.134
9.448 33.318 7.669
9.448 33.318 8.907
9.448 33.318 11.443
9.448 33.318 12.802
9.476 33.492 3.658
9.476 33.492 12.802
9.497 33.419 3.658
9.497 33.419 12.802
9.960 27.118 12.802
9.960 27.118 15.807
10.003 26.972 12.802
10.003 26.972 15.807
10.089 33.674 3.658
10.089 33.674 12.802
10.111 33.601 3.658
10.111 33.601 12.802
10.162 33.696 3.658
10.162 33.696 5.134
10.162 33.696 7.669
10.162 33.696 8.907
10.162 33.696 11.443
10.162 33.696 12.802
10.208 33.544 3.658
10.208 33.544 5.134
10.208 33.544 7.669
10.208 33.544 8.907
10.208 33.544 11.443
10.208 33.544 12.802
11.225 27.494 12.802
11.225 27.494 15.807
11.268 27.347 12.802
11.268 27.347 15.807
11.273 34.026 3.658
11.273 34.026 5.134
11.273 34.026 7.669
11.273 34.026 8.907
11.273 34.026 11.443
11.273 34.026 12.802
11.318 33.874 3.658
11.318 33.874 5.134
11.318 33.874 7.669
11.318 33.874 8.907
11.318 33.874 11.443
11.318 33.874 12.802
11.346 34.048 3.658
11.346 34.048 12.802
11.368 33.975 3.658
11.368 33.975 12.802
11.809 27.667 12.802
11.809 27.667 15.807
11.853 27.521 12.802
11.853 27.521 15.807
11.930 34.221 0.000
11.930 34.221 3.658
11.930 34.221 12.802
11.952 34.148 3.658
11.952 34.148 12.802
11.975 34.069 0.000
11.975 34.069 3.658
12.004 33.973 0.000
12.004 33.973 3.658
12.342 32.835 0.000
12.342 32.835 3.658
12.500 7.522 3.658
12.500 7.522 10.464
12.500 7.522 12.802
12.500 7.522 15.807
12.514 34.395 0.000
12.514 34.395 3.658
12.514 34.395 12.802
12.536 34.322 3.658
12.536 34.322 12.802
12.898 33.105 0.000
12.898 33.105 3.658
12.927 33.009 0.000
12.927 33.009 3.658
13.051 28.036 12.802
13.051 28.036 15.807
13.094 27.890 12.802
13.094 27.890 15.807
13.099 34.569 3.658
13.099 34.569 12.802
13.121 34.496 3.658
13.121 34.496 12.802
13.172 34.590 3.658
13.172 34.590 5.134
13.172 34.590 7.669
13.172 34.590 8.907
13.172 34.590 11.443
13.172 34.590 12.802
13.217 34.438 3.658
13.217 34.438 5.134
13.217 34.438 7.669
13.217 34.438 8.907
13.217 34.438 11.443
13.217 34.438 12.802
14.194 34.894 3.658
14.194 34.894 5.134
14.194 34.894 7.669
14.194 34.894 8.907
14.194 34.894 11.443
14.194 34.894 12.802
14.240 34.742 3.658
14.240 34.742 5.134
14.240 34.742 7.669
14.240 34.742 8.907
14.240 34.742 11.443
14.240 34.742 12.802
14.265 1.582 0.000
14.265 1.582 3.658
14.265 1.582 10.464
14.267 34.916 3.658
14.267 34.916 12.802
14.280 1.534 0.000
14.280 1.534 4.267
14.280 1.534 14.351
14.289 34.843 3.658
14.289 34.843 12.802
14.293 28.405 12.802
14.293 28.405 15.807
14.336 28.259 12.802
14.336 28.259 15.807
14.852 35.090 0.000
14.852 35.090 3.658
14.852 35.090 12.802
14.874 35.017 3.658
14.874 35.017 12.802
15.235 33.799 0.000
15.235 33.799 3.658
15.264 33.703 0.000
15.264 33.703 3.658
15.436 35.263 0.000
15.436 35.263 3.658
15.436 35.263 12.802
15.458 35.190 3.658
15.458 35.190 12.802
15.481 35.111 0.000
15.481 35.111 0.506
15.481 35.111 3.658
15.510 35.015 0.000
15.510 35.015 0.506
15.510 35.015 3.658
15.848 33.877 0.000
15.848 33.877 3.658
16.020 35.437 3.658
16.020 35.437 12.802
16.042 35.364 3.658
16.042 35.364 12.802
16.094 35.459 3.658
16.094 35.459 5.134
16.094 35.459 7.669
16.094 35.459 8.907
16.094 35.459 11.443
16.094 35.459 12.802
16.139 35.306 3.658
16.139 35.306 5.134
16.139 35.306 7.669
16.139 35.306 8.907
16.139 35.306 11.443
16.139 35.306 12.802
16.484 29.056 12.802
16.484 29.056 15.807
16.527 28.910 12.802
16.527 28.910 15.807
17.223 35.794 3.658
17.223 35.794 5.134
17.223 35.794 7.669
17.223 35.794 8.907
17.223 35.794 11.443
17.223 35.794 12.802
17.268 35.642 3.658
17.268 35.642 5.134
17.268 35.642 7.669
17.268 35.642 8.907
17.268 35.642 11.443
17.268 35.642 12.802
17.296 35.816 3.658
17.296 35.816 12.802
17.318 35.743 3.658
17.318 35.743 12.802
17.726 29.425 12.802
17.726 29.425 15.807
17.769 29.279 12.802
17.769 29.279 15.807
17.910 35.998 3.658
17.910 35.998 12.802
17.931 35.925 3.658
17.931 35.925 12.802
17.983 36.020 3.658
17.983 36.020 5.134
17.983 36.020 7.669
17.983 36.020 8.907
17.983 36.020 11.443
17.983 36.020 12.802
18.028 35.868 3.658
18.028 35.868 5.134
18.028 35.868 7.669
18.028 35.868 8.907
18.028 35.868 11.443
18.028 35.868 12.802
18.967 29.794 12.802
18.967 29.794 15.807
19.011 29.648 12.802
19.011 29.648 15.807
19.102 36.353 3.658
19.102 36.353 5.134
19.102 36.353 7.669
19.102 36.353 8.907
19.102 36.353 11.443
19.102 36.353 12.802
19.148 36.200 3.658
19.148 36.200 5.134
19.148 36.200 7.669
19.148 36.200 8.907
19.148 36.200 11.443
19.148 36.200 12.802
19.175 36.374 3.658
19.175 36.374 12.802
19.197 36.301 3.658
19.197 36.301 12.802
19.366 9.562 12.802
19.366 9.562 15.807
19.552 29.968 12.802
19.552 29.968 15.807
19.595 29.822 12.802
19.595 29.822 15.807
19.789 36.557 3.658
19.789 36.557 12.802
19.811 36.484 3.658
19.811 36.484 12.802
19.862 36.578 3.658
19.862 36.578 5.134
19.862 36.578 7.669
19.862 36.578 8.907
19.862 36.578 11.443
19.862 36.578 12.802
19.907 36.426 3.658
19.907 36.426 5.134
19.907 36.426 7.669
19.907 36.426 8.907
19.907 36.426 11.443
19.907 36.426 12.802
19.945 7.613 12.802
19.945 7.613 15.807
20.817 30.344 12.802
20.817 30.344 15.807
20.860 30.198 12.802
20.860 30.198 15.807
20.982 36.911 3.658
20.982 36.911 5.134
20.982 36.911 7.669
20.982 36.911 8.907
20.982 36.911 11.443
20.982 36.911 12.802
21.027 36.759 3.658
21.027 36.759 5.134
21.027 36.759 7.669
21.027 36.759 8.907
21.027 36.759 11.443
21.027 36.759 12.802
21.055 36.933 3.658
21.055 36.933 12.802
21.056 36.663 3.658
21.056 36.663 12.802
21.077 36.860 3.658
21.077 36.860 12.802
21.401 30.518 12.802
21.401 30.518 15.807
21.445 30.371 12.802
21.445 30.371 15.807
21.572 37.086 0.000
21.572 37.086 3.658
21.572 37.086 12.802
21.593 37.013 3.658
21.593 37.013 12.802
21.617 36.934 0.000
21.617 36.934 0.506
21.617 36.934 3.658
21.645 36.838 0.000
21.645 36.838 0.506
21.645 36.838 3.658
22.117 10.380 12.802
22.117 10.380 15.807
22.156 37.260 0.000
22.156 37.260 3.658
22.156 37.260 12.802
22.201 37.108 3.658
22.201 37.108 12.802
22.230 37.012 0.000
22.230 37.012 3.658
22.230 37.012 12.802
22.666 30.894 12.802
22.666 30.894 14.507
22.666 30.894 15.807
22.696 8.431 12.802
22.696 8.431 15.807
22.710 30.747 12.802
22.710 30.747 14.507
22.710 30.747 15.807
22.738 30.652 12.802
22.738 30.652 14.507
22.738 30.652 15.807
22.969 34.428 14.507
22.969 34.428 14.824
23.876 31.253 12.802
23.876 31.253 14.507
23.876 31.253 14.824
23.876 31.253 15.807
23.918 31.107 12.802
23.918 31.107 15.807
29.240 12.496 3.658
29.240 12.496 10.464
29.240 12.496 12.802
29.240 12.496 15.807
30.943 6.538 0.000
30.943 6.538 3.658
30.943 6.538 10.464
3 29 22 46
3 54 29 46
3 245 1 14
3 153 373 245
3 133 119 153
3 38 71 91
3 53 38 91
3 28 53 91
3 245 14 28
3 133 153 245
3 91 133 245
3 28 91 245
3 244 0 3
3 151 372 244
3 147 141 151
3 99 109 115
3 105 99 115
3 36 61 67
3 88 36 67
3 244 3 11
3 147 151 244
3 115 147 244
3 105 115 244
3 67 105 244
3 88 67 244
3 11 88 244
3 246 2 155
3 374 246 155
3 28 14 38
3 53 28 38
3 15 14 28
3 29 15 28
3 54 29 28
3 54 28 53
3 39 54 53
3 39 53 38
3 39 38 14
3 15 39 14
3 29 15 39
3 54 29 39
3 30 16 40
3 55 30 40
3 30 16 40
3 55 30 40
3 17 16 30
3 31 17 30
3 56 31 30
3 56 30 55
3 41 56 55
3 41 55 40
3 41 40 16
3 17 41 16
3 31 17 41
3 56 31 41
3 32 18 42
3 57 32 42
3 32 18 42
3 57 32 42
3 19 18 32
3 33 19 32
3 58 33 32
3 58 32 57
3 43 58 57
3 43 57 42
3 43 42 18
3 19 43 18
3 33 19 43
3 58 33 43
3 92 82 127
3 134 92 127
3 91 71 119
3 133 91 119
3 72 71 91
3 92 72 91
3 134 92 91
3 134 91 133
3 120 134 133
3 120 133 119
3 120 119 71
3 72 120 71
3 92 72 120
3 134 92 120
3 93 73 121
3 135 93 121
3 93 73 121
3 135 93 121
3 74 73 93
3 94 74 93
3 136 94 93
3 136 93 135
3 122 136 135
3 122 135 121
3 122 121 73
3 74 122 73
3 94 74 122
3 136 94 122
3 95 75 123
3 137 95 123
3 95 75 123
3 137 95 123
3 76 75 95
3 96 76 95
3 138 96 95
3 138 95 137
3 124 138 137
3 124 137 123
3 124 123 75
3 76 124 75
3 96 76 124
3 138 96 124
3 115 109 141
3 147 115 141
3 115 109 141
3 147 115 141
3 110 109 115
3 116 110 115
3 148 116 115
3 148 115 147
3 142 148 147
3 142 147 141
3 142 141 109
3 110 142 109
3 116 110 142
3 148 116 142
3 67 61 99
3 105 67 99
3 67 61 99
3 105 67 99
3 62 61 67
3 68 62 67
3 106 68 67
3 106 67 105
3 100 106 105
3 100 105 99
3 100 99 61
3 62 100 61
3 68 62 100
3 106 68 100
3 5 38 53
3 7 5 53
3 5 38 53
3 7 5 53
3 52 37 38
3 52 38 53
3 6 52 53
3 6 53 7
3 6 7 5
3 4 6 5
3 4 5 38
3 37 4 38
3 4 37 52
3 6 4 52
3 169 167 215
3 217 169 215
3 213 217 215
3 316 318 213
3 211 316 213
3 215 211 213
3 388 333 331
3 386 388 331
3 537 398 395
3 534 537 395
3 367 158 217
3 573 367 217
3 398 547 573
3 401 398 573
3 320 401 573
3 213 318 320
3 217 213 320
3 573 217 320
3 228 232 238
3 230 228 238
3 209 230 238
3 195 207 209
3 201 195 209
3 238 201 209
3 171 175 181
3 173 171 181
3 163 173 181
3 152 161 163
3 156 152 163
3 181 156 163
3 271 275 281
3 273 271 281
3 265 273 281
3 249 263 265
3 257 249 265
3 281 257 265
3 297 291 303
3 339 343 349
3 341 339 349
3 329 341 349
3 312 327 329
3 314 312 329
3 297 303 305
3 349 297 305
3 314 329 349
3 305 314 349
3 485 489 495
3 487 485 495
3 477 487 495
3 463 475 477
3 469 463 477
3 495 469 477
3 513 507 519
3 543 545 513
3 532 530 543
3 513 519 523
3 532 543 513
3 523 532 513
3 443 447 453
3 445 443 453
3 437 445 453
3 423 435 437
3 429 423 437
3 453 429 437
3 403 407 413
3 405 403 413
3 393 405 413
3 382 391 393
3 384 382 393
3 355 370 375
3 361 355 375
3 413 361 375
3 384 393 413
3 375 384 413
3 522 188 186
3 518 522 186
3 193 189 219
3 222 193 219
3 255 247 267
3 269 255 267
3 289 287 307
3 309 289 307
3 337 335 377
3 379 337 377
3 503 525 527
3 505 503 527
3 459 481 483
3 461 459 483
3 419 439 441
3 421 419 441
3 368 156 181
3 548 574 368
3 545 548 368
3 521 513 545
3 368 181 187
3 521 545 368
3 187 521 368
3 550 563 567
3 555 550 567
3 558 225 222
3 555 558 222
3 571 324 193
3 555 567 571
3 558 555 571
3 225 558 571
3 193 222 225
3 571 193 225
3 501 479 540
3 553 501 540
3 190 165 561
3 564 190 561
3 368 159 218
3 574 368 218
3 400 548 574
3 402 400 574
3 321 402 574
3 214 319 321
3 218 214 321
3 574 218 321
3 538 399 396
3 535 538 396
3 388 381 390
3 401 388 390
3 382 381 388
3 389 382 388
3 402 389 388
3 402 388 401
3 391 402 401
3 391 401 390
3 391 390 381
3 382 391 381
3 389 382 391
3 402 389 391
3 537 529 542
3 547 537 542
3 530 529 537
3 539 530 537
3 548 539 537
3 548 537 547
3 543 548 547
3 543 547 542
3 543 542 529
3 530 543 529
3 539 530 543
3 548 539 543
3 320 311 326
3 333 320 326
3 312 311 320
3 321 312 320
3 334 321 320
3 334 320 333
3 327 334 333
3 327 333 326
3 327 326 311
3 312 327 311
3 321 312 327
3 334 321 327
3 158 151 160
3 169 158 160
3 152 151 158
3 159 152 158
3 170 159 158
3 170 158 169
3 161 170 169
3 161 169 160
3 161 160 151
3 152 161 151
3 159 152 161
3 170 159 161
3 324 157 186
3 549 571 324
3 546 549 324
3 522 518 546
3 324 186 188
3 522 546 324
3 188 522 324
3 229 237 243
3 231 229 243
3 210 231 243
3 200 208 210
3 206 200 210
3 243 206 210
3 172 180 186
3 174 172 186
3 164 174 186
3 154 162 164
3 157 154 164
3 186 157 164
3 272 280 286
3 274 272 286
3 266 274 286
3 254 264 266
3 262 254 266
3 286 262 266
3 302 296 304
3 340 348 354
3 342 340 354
3 330 342 354
3 313 328 330
3 315 313 330
3 302 304 306
3 354 302 306
3 315 330 354
3 306 315 354
3 486 494 500
3 488 486 500
3 478 488 500
3 468 476 478
3 474 468 478
3 500 474 478
3 518 512 520
3 544 546 518
3 533 531 544
3 518 520 524
3 533 544 518
3 524 533 518
3 444 452 458
3 446 444 458
3 438 446 458
3 428 436 438
3 434 428 438
3 458 434 438
3 404 412 418
3 406 404 418
3 394 406 418
3 383 392 394
3 385 383 394
3 360 371 376
3 366 360 376
3 418 366 376
3 385 394 418
3 376 385 418
3 495 489 507
3 513 495 507
3 453 447 463
3 469 453 463
3 413 407 423
3 429 413 423
3 349 343 355
3 361 349 355
3 281 275 291
3 297 281 291
3 238 232 249
3 257 238 249
3 181 175 195
3 201 181 195
3 495 489 507
3 513 495 507
3 490 489 495
3 496 490 495
3 514 496 495
3 514 495 513
3 507 513 514
3 508 507 514
3 490 489 507
3 490 507 508
3 496 490 508
3 514 496 508
3 453 447 463
3 469 453 463
3 448 447 453
3 454 448 453
3 470 454 453
3 470 453 469
3 463 469 470
3 464 463 470
3 448 447 463
3 448 463 464
3 454 448 464
3 470 454 464
3 413 407 423
3 429 413 423
3 408 407 413
3 414 408 413
3 430 414 413
3 430 413 429
3 423 429 430
3 424 423 430
3 408 407 423
3 408 423 424
3 414 408 424
3 430 414 424
3 349 343 355
3 361 349 355
3 344 343 349
3 350 344 349
3 362 350 349
3 362 349 361
3 355 361 362
3 356 355 362
3 344 343 355
3 344 355 356
3 350 344 356
3 362 350 356
3 281 275 291
3 297 281 291
3 276 275 281
3 282 276 281
3 298 282 281
3 298 281 297
3 291 297 298
3 292 291 298
3 276 275 291
3 276 291 292
3 282 276 292
3 298 282 292
3 238 232 249
3 257 238 249
3 239 238 232
3 239 232 233
3 258 239 238
3 258 238 257
3 250 258 257
3 250 257 249
3 233 232 249
3 233 249 250
3 239 233 250
3 258 239 250
3 181 175 195
3 201 181 195
3 182 181 175
3 182 175 176
3 202 182 181
3 202 181 201
3 196 202 201
3 196 201 195
3 176 175 195
3 176 195 196
3 182 176 196
3 202 182 196
3 497 491 509
3 515 497 509
3 492 491 497
3 498 492 497
3 516 498 497
3 516 497 515
3 509 515 516
3 510 509 516
3 492 491 509
3 492 509 510
3 498 492 510
3 516 498 510
3 455 449 465
3 471 455 465
3 450 449 455
3 456 450 455
3 472 456 455
3 472 455 471
3 465 471 472
3 466 465 472
3 450 449 465
3 450 465 466
3 456 450 466
3 472 456 466
3 415 409 425
3 431 415 425
3 410 409 415
3 416 410 415
3 432 416 415
3 432 415 431
3 425 431 432
3 426 425 432
3 410 409 425
3 410 425 426
3 416 410 426
3 432 416 426
3 351 345 357
3 363 351 357
3 346 345 351
3 352 346 351
3 364 352 351
3 364 351 363
3 357 363 364
3 358 357 364
3 346 345 357
3 346 357 358
3 352 346 358
3 364 352 358
3 283 277 293
3 299 283 293
3 278 277 283
3 284 278 283
3 300 284 283
3 300 283 299
3 293 299 300
3 294 293 300
3 278 277 293
3 278 293 294
3 284 278 294
3 300 284 294
3 240 234 251
3 259 240 251
3 241 240 234
3 241 234 235
3 260 241 240
3 260 240 259
3 252 260 259
3 252 259 251
3 235 234 251
3 235 251 252
3 241 235 252
3 260 241 252
3 183 177 197
3 203 183 197
3 184 183 177
3 184 177 178
3 204 184 183
3 204 183 203
3 198 204 203
3 198 203 197
3 178 177 197
3 178 197 198
3 184 178 198
3 204 184 198
3 500 494 512
3 518 500 512
3 458 452 468
3 474 458 468
3 418 412 428
3 434 418 428
3 354 348 360
3 366 354 360
3 286 280 296
3 302 286 296
3 243 237 254
3 262 243 254
3 186 180 200
3 206 186 200
3 572 325 194
3 557 568 572
3 560 557 572
3 227 560 572
3 194 224 227
3 572 194 227
3 190 165 561
3 564 190 561
3 166 165 190
3 191 166 190
3 565 191 190
3 565 190 564
3 562 565 564
3 562 564 561
3 562 561 165
3 166 562 165
3 191 166 562
3 565 191 562
3 558 225 222
3 555 558 222
3 559 226 225
3 559 225 558
3 556 559 558
3 556 558 555
3 556 555 222
3 223 556 222
3 223 222 225
3 226 223 225
3 559 226 223
3 556 559 223
3 560 227 221
3 552 560 221
3 193 189 219
3 222 193 219
3 192 189 193
3 194 192 193
3 224 194 193
3 224 193 222
3 221 224 222
3 221 222 219
3 221 219 189
3 192 221 189
3 194 192 221
3 224 194 221
3 255 247 267
3 269 255 267
3 248 247 255
3 256 248 255
3 270 256 255
3 270 255 269
3 268 270 269
3 268 269 267
3 268 267 247
3 248 268 247
3 256 248 268
3 270 256 268
3 289 287 307
3 309 289 307
3 288 287 289
3 290 288 289
3 310 290 289
3 310 289 309
3 308 310 309
3 308 309 307
3 308 307 287
3 288 308 287
3 290 288 308
3 310 290 308
3 337 335 377
3 379 337 377
3 336 335 337
3 338 336 337
3 380 338 337
3 380 337 379
3 378 380 379
3 378 379 377
3 378 377 335
3 336 378 335
3 338 336 378
3 380 338 378
3 503 525 527
3 505 503 527
3 526 525 503
3 504 526 503
3 504 503 505
3 506 504 505
3 528 506 505
3 528 505 527
3 526 528 527
3 526 527 525
3 504 526 528
3 506 504 528
3 459 481 483
3 461 459 483
3 482 481 459
3 460 482 459
3 460 459 461
3 462 460 461
3 484 462 461
3 484 461 483
3 482 484 483
3 482 483 481
3 460 482 484
3 462 460 484
3 419 439 441
3 421 419 441
3 440 439 419
3 420 440 419
3 420 419 421
3 422 420 421
3 442 422 421
3 442 421 441
3 440 442 441
3 440 441 439
3 420 440 442
3 422 420 442
3 550 563 567
3 555 550 567
3 566 563 550
3 552 566 550
3 552 550 555
3 557 552 555
3 568 557 555
3 568 555 567
3 566 568 567
3 566 567 563
3 552 566 568
3 557 552 568
3 575 572 570
3 323 325 369
3 369 325 572
3 575 369 572
3 574 575 369
3 574 369 368
3 574 569 570
3 574 570 575
3 323 369 368
3 323 368 322
3 501 479 540
3 553 501 540
3 480 479 501
3 502 480 501
3 554 502 501
3 554 501 553
3 541 554 553
3 541 553 540
3 541 540 479
3 480 541 479
3 502 480 541
3 554 502 541
3 21 14 28
3 35 21 28
3 60 35 28
3 60 28 53
3 45 60 53
3 45 53 38
3 78 45 38
3 78 38 71
3 78 71 91
3 98 78 91
3 140 98 91
3 140 91 133
3 126 140 133
3 126 133 119
3 155 126 119
3 155 119 153
3 155 153 373
3 374 155 373
3 374 373 245
3 246 374 245
3 2 246 245
3 2 245 1
3 21 2 1
3 21 1 14
3 55 30 29
3 55 29 54
3 47 55 54
3 47 54 46
3 47 46 22
3 23 47 22
3 23 22 29
3 30 23 29
3 57 32 31
3 57 31 56
3 49 57 56
3 49 56 48
3 49 48 24
3 25 49 24
3 25 24 31
3 32 25 31
3 59 34 33
3 59 33 58
3 51 59 58
3 51 58 50
3 51 50 26
3 27 51 26
3 27 26 33
3 34 27 33
3 59 44 45
3 59 45 60
3 34 59 60
3 34 60 35
3 34 35 21
3 20 34 21
3 20 21 45
3 44 20 45
3 135 93 92
3 135 92 134
3 128 135 134
3 128 134 127
3 128 127 82
3 83 128 82
3 83 82 92
3 93 83 92
3 137 95 94
3 137 94 136
3 130 137 136
3 130 136 129
3 130 129 84
3 85 130 84
3 85 84 94
3 95 85 94
3 139 97 96
3 139 96 138
3 132 139 138
3 132 138 131
3 132 131 86
3 87 132 86
3 87 86 96
3 97 87 96
3 139 125 126
3 139 126 140
3 97 139 140
3 97 140 98
3 97 98 78
3 77 97 78
3 77 78 126
3 125 77 126
3 5 3 11
3 13 5 11
3 90 13 11
3 90 11 88
3 38 90 88
3 38 88 36
3 64 38 36
3 64 36 61
3 64 61 67
3 70 64 67
3 108 70 67
3 108 67 105
3 102 108 105
3 102 105 99
3 112 102 99
3 112 99 109
3 112 109 115
3 118 112 115
3 150 118 115
3 150 115 147
3 144 150 147
3 144 147 141
3 153 144 141
3 153 141 151
3 153 151 372
3 373 153 372
3 373 372 244
3 245 373 244
3 1 245 244
3 1 244 0
3 5 1 0
3 5 0 3
3 89 12 11
3 89 11 88
3 80 89 88
3 80 88 79
3 80 79 8
3 9 80 8
3 9 8 11
3 12 9 11
3 90 13 12
3 90 12 89
3 81 90 89
3 81 89 80
3 81 80 9
3 10 81 9
3 10 9 12
3 13 10 12
3 107 69 68
3 107 68 106
3 104 107 106
3 104 106 103
3 104 103 65
3 66 104 65
3 66 65 68
3 69 66 68
3 149 117 116
3 149 116 148
3 146 149 148
3 146 148 145
3 146 145 113
3 114 146 113
3 114 113 116
3 117 114 116
3 149 143 144
3 149 144 150
3 117 149 150
3 117 150 118
3 117 118 112
3 111 117 112
3 111 112 144
3 143 111 144
3 107 101 102
3 107 102 108
3 69 107 108
3 69 108 70
3 69 70 64
3 63 69 64
3 63 64 102
3 101 63 102
3 214 218 217
3 214 217 213
3 319 214 213
3 319 213 318
3 319 318 320
3 321 319 320
3 402 321 320
3 402 320 401
3 400 402 401
3 400 401 398
3 548 400 398
3 548 398 547
3 548 547 573
3 574 548 573
3 574 573 367
3 368 574 367
3 159 368 367
3 159 367 158
3 218 159 158
3 218 158 217
3 387 332 331
3 387 331 386
3 387 386 388
3 389 387 388
3 389 388 333
3 334 389 333
3 332 334 333
3 332 333 331
3 218 170 169
3 218 169 217
3 214 218 217
3 214 217 213
3 319 214 213
3 319 213 318
3 317 319 318
3 317 318 316
3 317 316 211
3 212 317 211
3 212 211 215
3 216 212 215
3 216 215 167
3 168 216 167
3 168 167 169
3 170 168 169
3 535 396 395
3 535 395 534
3 535 534 537
3 538 535 537
3 538 537 398
3 399 538 398
3 396 399 398
3 396 398 395
3 536 397 396
3 536 396 535
3 536 535 538
3 539 536 538
3 539 538 399
3 400 539 399
3 397 400 399
3 397 399 396
3 518 186 181
3 518 181 513
3 518 513 521
3 522 518 521
3 522 521 187
3 188 522 187
3 186 188 187
3 186 187 181
3 208 200 195
3 208 195 207
3 208 207 209
3 210 208 209
3 231 210 209
3 231 209 230
3 229 231 230
3 229 230 228
3 237 229 228
3 237 228 232
3 237 232 238
3 243 237 238
3 243 238 201
3 206 243 201
3 200 206 201
3 200 201 195
3 186 181 156
3 157 186 156
3 154 157 156
3 154 156 152
3 162 154 152
3 162 152 161
3 162 161 163
3 164 162 163
3 174 164 163
3 174 163 173
3 172 174 173
3 172 173 171
3 180 172 171
3 180 171 175
3 180 175 181
3 186 180 181
3 264 254 249
3 264 249 263
3 264 263 265
3 266 264 265
3 274 266 265
3 274 265 273
3 272 274 273
3 272 273 271
3 280 272 271
3 280 271 275
3 280 275 281
3 286 280 281
3 286 281 257
3 262 286 257
3 254 262 257
3 254 257 249
3 354 302 297
3 354 297 349
3 348 354 349
3 348 349 343
3 348 343 339
3 340 348 339
3 340 339 341
3 342 340 341
3 342 341 329
3 330 342 329
3 328 330 329
3 328 329 327
3 328 327 312
3 313 328 312
3 313 312 314
3 315 313 314
3 315 314 305
3 306 315 305
3 304 306 305
3 304 305 303
3 304 303 291
3 296 304 291
3 296 291 297
3 302 296 297
3 494 489 485
3 486 494 485
3 486 485 487
3 488 486 487
3 488 487 477
3 478 488 477
3 476 478 477
3 476 477 475
3 476 475 463
3 468 476 463
3 468 463 469
3 474 468 469
3 500 474 469
3 500 469 495
3 494 500 495
3 494 495 489
3 546 518 513
3 546 513 545
3 544 546 545
3 544 545 543
3 544 543 530
3 531 544 530
3 531 530 532
3 533 531 532
3 533 532 523
3 524 533 523
3 520 524 523
3 520 523 519
3 520 519 507
3 512 520 507
3 512 507 513
3 518 512 513
3 452 447 443
3 444 452 443
3 444 443 445
3 446 444 445
3 446 445 437
3 438 446 437
3 436 438 437
3 436 437 435
3 436 435 423
3 428 436 423
3 428 423 429
3 434 428 429
3 458 434 429
3 458 429 453
3 452 458 453
3 452 453 447
3 418 413 361
3 366 418 361
3 360 366 361
3 360 361 355
3 371 360 355
3 371 355 370
3 371 370 375
3 376 371 375
3 385 376 375
3 385 375 384
3 383 385 384
3 383 384 382
3 392 383 382
3 392 382 391
3 392 391 393
3 394 392 393
3 406 394 393
3 406 393 405
3 404 406 405
3 404 405 403
3 412 404 403
3 412 403 407
3 412 407 413
3 418 412 413
3 517 511 512
3 517 512 518
3 499 517 518
3 499 518 500
3 493 494 500
3 493 500 499
3 511 512 494
3 511 494 493
3 473 467 468
3 473 468 474
3 457 473 474
3 457 474 458
3 451 452 458
3 451 458 457
3 467 468 452
3 467 452 451
3 433 427 428
3 433 428 434
3 417 433 434
3 417 434 418
3 411 412 418
3 411 418 417
3 427 428 412
3 427 412 411
3 365 359 360
3 365 360 366
3 353 365 366
3 353 366 354
3 347 348 354
3 347 354 353
3 359 360 348
3 359 348 347
3 301 295 296
3 301 296 302
3 285 301 302
3 285 302 286
3 279 280 286
3 279 286 285
3 295 296 280
3 295 280 279
3 262 254 253
3 261 262 253
3 242 261 262
3 242 262 243
3 242 243 237
3 236 242 237
3 253 254 237
3 253 237 236
3 205 199 200
3 205 200 206
3 185 205 206
3 185 206 186
3 179 180 186
3 179 186 185
3 199 200 180
3 199 180 179
3 224 194 193
3 224 193 222
3 224 222 225
3 227 224 225
3 560 227 225
3 560 225 558
3 557 560 558
3 557 558 555
3 568 557 555
3 568 555 567
3 568 567 571
3 572 568 571
3 572 571 324
3 325 572 324
3 194 325 324
3 194 324 193
3 220 221 552
3 551 220 552
3 559 551 552
3 559 552 560
3 226 559 560
3 226 560 227
3 226 227 221
3 220 226 221
3 187 181 186
3 187 186 188
3 187 188 522
3 521 187 522
3 521 522 518
3 513 521 518
3 513 518 546
3 545 513 546
3 548 545 546
3 548 546 549
3 569 548 549
3 569 549 571
3 322 569 571
3 322 571 324
3 322 324 157
3 156 322 157
3 156 157 186
3 181 156 186
