OFF
324 506 0
0.000 27.063 26.800
0.000 27.063 27.000
0.622 26.727 0.000
0.622 26.727 27.000
0.622 26.727 27.900
0.871 26.593 0.000
0.871 26.593 4.935
0.871 26.593 6.200
0.871 26.593 8.435
0.871 26.593 9.700
0.871 26.593 11.935
0.871 26.593 13.200
0.871 26.593 15.435
0.871 26.593 16.700
0.871 26.593 18.935
0.871 26.593 20.200
0.871 26.593 22.435
0.871 26.593 23.700
0.871 26.593 25.935
0.871 26.593 27.000
0.871 26.593 27.200
0.936 25.677 0.000
0.936 25.677 27.000
0.996 26.525 0.000
0.996 26.525 4.935
0.996 26.525 6.200
0.996 26.525 8.435
0.996 26.525 9.700
0.996 26.525 11.935
0.996 26.525 13.200
0.996 26.525 15.435
0.996 26.525 16.700
0.996 26.525 18.935
0.996 26.525 20.200
0.996 26.525 22.435
0.996 26.525 23.700
0.996 26.525 25.935
0.996 26.525 27.000
0.996 26.525 27.200
1.128 25.734 0.000
1.128 25.734 0.200
1.128 25.734 1.450
1.128 25.734 2.700
1.128 25.734 27.000
1.224 25.763 0.000
1.224 25.763 0.200
1.224 25.763 1.450
1.224 25.763 2.700
1.450 23.957 0.000
1.450 23.957 27.000
1.642 24.014 0.000
1.642 24.014 27.000
1.764 22.907 0.000
1.764 22.907 27.000
1.955 22.964 0.000
1.955 22.964 27.000
2.059 27.156 0.000
2.059 27.156 27.000
2.117 26.965 0.000
2.117 26.965 0.200
2.117 26.965 1.450
2.117 26.965 2.700
2.117 26.965 27.000
2.145 26.869 0.000
2.145 26.869 0.200
2.145 26.869 1.450
2.145 26.869 2.700
2.400 20.777 0.000
2.400 20.777 27.000
2.461 25.596 0.000
2.461 25.596 27.000
2.592 20.835 0.000
2.592 20.835 27.000
2.714 19.727 0.000
2.714 19.727 27.000
2.906 19.784 0.000
2.906 19.784 27.000
3.351 17.597 0.000
3.351 17.597 27.000
3.542 17.655 0.000
3.542 17.655 27.000
3.664 16.547 0.000
3.664 16.547 27.000
3.856 16.605 0.000
3.856 16.605 27.000
4.294 27.824 0.000
4.294 27.824 27.000
4.301 14.418 0.000
4.301 14.418 27.000
4.351 27.632 0.000
4.351 27.632 27.000
4.492 14.475 0.000
4.492 14.475 27.000
4.615 13.367 0.000
4.615 13.367 27.000
4.806 13.425 0.000
4.806 13.425 27.000
5.259 11.212 0.000
5.259 11.212 27.000
5.344 28.137 0.000
5.344 28.137 27.000
5.401 27.946 0.000
5.401 27.946 27.000
5.450 11.269 0.000
5.450 11.269 27.000
5.573 10.162 0.000
5.573 10.162 27.000
5.764 10.219 0.000
5.764 10.219 27.000
6.209 8.032 0.000
6.209 8.032 27.000
6.401 8.089 0.000
6.401 8.089 27.000
6.523 6.982 0.000
6.523 6.982 27.000
6.714 7.039 0.000
6.714 7.039 27.000
7.159 4.852 0.000
7.159 4.852 27.000
7.351 4.909 0.000
7.351 4.909 27.000
7.473 3.802 0.000
7.473 3.802 27.000
7.474 28.774 0.000
7.474 28.774 27.000
7.531 28.582 0.000
7.531 28.582 27.000
7.665 3.859 0.000
7.665 3.859 27.000
8.087 0.000 26.800
8.087 0.000 27.000
8.110 1.672 0.000
8.110 1.672 27.000
8.301 1.729 0.000
8.301 1.729 27.000
8.423 0.622 0.000
8.423 0.622 27.000
8.423 0.622 27.900
8.524 29.087 0.000
8.524 29.087 27.000
8.529 0.967 0.000
8.529 0.967 0.200
8.529 0.967 1.450
8.529 0.967 2.700
8.529 0.967 27.000
8.581 28.896 0.000
8.581 28.896 27.000
8.615 0.679 0.000
8.615 0.679 4.935
8.615 0.679 6.200
8.615 0.679 8.435
8.615 0.679 9.700
8.615 0.679 11.935
8.615 0.679 13.200
8.615 0.679 15.435
8.615 0.679 16.700
8.615 0.679 18.935
8.615 0.679 20.200
8.615 0.679 22.435
8.615 0.679 23.700
8.615 0.679 25.935
8.615 0.679 27.000
8.615 0.679 27.200
8.625 0.995 0.000
8.625 0.995 0.200
8.625 0.995 1.450
8.625 0.995 2.700
8.625 0.995 27.000
8.711 0.708 4.935
8.711 0.708 6.200
8.711 0.708 8.435
8.711 0.708 9.700
8.711 0.708 11.935
8.711 0.708 13.200
8.711 0.708 15.435
8.711 0.708 16.700
8.711 0.708 18.935
8.711 0.708 20.200
8.711 0.708 22.435
8.711 0.708 23.700
8.711 0.708 25.935
8.711 0.708 27.200
9.715 1.321 0.000
9.715 1.321 27.000
9.801 1.034 0.000
9.801 1.034 27.000
10.654 29.724 0.000
10.654 29.724 27.000
10.711 29.532 0.000
10.711 29.532 27.000
11.704 30.038 0.000
11.704 30.038 27.000
11.761 29.846 0.000
11.761 29.846 27.000
13.834 30.674 0.000
13.834 30.674 27.000
13.891 30.482 0.000
13.891 30.482 0.200
13.891 30.482 1.450
13.891 30.482 2.700
13.891 30.482 27.000
13.920 30.386 0.000
13.920 30.386 0.200
13.920 30.386 1.450
13.920 30.386 2.700
14.884 30.988 0.000
14.884 30.988 3.000
14.884 30.988 4.935
14.884 30.988 27.000
14.941 30.796 0.000
14.941 30.796 3.000
14.941 30.796 4.935
14.941 30.796 27.000
17.040 31.632 0.000
17.040 31.632 3.000
17.040 31.632 4.935
17.040 31.632 27.000
17.097 31.440 0.000
17.097 31.440 3.000
17.097 31.440 4.935
17.097 31.440 27.000
18.090 31.945 0.000
18.090 31.945 27.000
18.147 31.754 0.000
18.147 31.754 0.200
18.147 31.754 1.450
18.147 31.754 2.700
18.147 31.754 27.000
18.176 31.658 0.000
18.176 31.658 0.200
18.176 31.658 1.450
18.176 31.658 2.700
20.220 32.582 0.000
20.220 32.582 27.000
20.277 32.390 0.000
20.277 32.390 27.000
21.270 32.895 0.000
21.270 32.895 27.000
21.327 32.704 0.000
21.327 32.704 27.000
23.400 33.532 0.000
23.400 33.532 27.000
23.457 33.340 0.000
23.457 33.340 27.000
24.450 33.845 0.000
24.450 33.845 27.000
24.507 33.654 0.000
24.507 33.654 27.000
26.580 34.482 0.000
26.580 34.482 27.000
26.637 34.290 0.000
26.637 34.290 27.000
27.630 34.795 0.000
27.630 34.795 27.000
27.687 34.604 0.000
27.687 34.604 27.000
29.864 35.463 0.000
29.864 35.463 27.000
29.922 35.271 0.000
29.922 35.271 27.000
31.071 35.615 0.000
31.071 35.615 0.200
31.071 35.615 1.450
31.071 35.615 2.700
31.071 35.615 27.000
31.100 35.519 0.000
31.100 35.519 0.200
31.100 35.519 1.450
31.100 35.519 2.700
31.100 35.519 27.000
31.302 35.892 0.000
31.302 35.892 27.000
31.302 35.892 27.900
31.359 35.701 0.000
31.359 35.701 4.935
31.359 35.701 6.200
31.359 35.701 8.435
31.359 35.701 9.700
31.359 35.701 11.935
31.359 35.701 13.200
31.359 35.701 15.435
31.359 35.701 16.700
31.359 35.701 18.935
31.359 35.701 20.200
31.359 35.701 22.435
31.359 35.701 23.700
31.359 35.701 25.935
31.359 35.701 27.000
31.359 35.701 27.200
31.388 35.605 4.935
31.388 35.605 6.200
31.388 35.605 8.435
31.388 35.605 9.700
31.388 35.605 11.935
31.388 35.605 13.200
31.388 35.605 15.435
31.388 35.605 16.700
31.388 35.605 18.935
31.388 35.605 20.200
31.388 35.605 22.435
31.388 35.605 23.700
31.388 35.605 25.935
31.388 35.605 27.200
31.475 34.264 0.000
31.475 34.264 27.000
31.638 36.514 26.800
31.638 36.514 27.000
31.763 34.350 0.000
31.763 34.350 27.000
32.455 27.598 0.000
32.455 27.598 27.000
32.455 27.598 27.900
33.077 27.262 26.800
33.077 27.262 27.000
33.672 27.961 0.000
33.672 27.961 27.000
33.672 27.961 27.900
34.294 27.625 26.800
34.294 27.625 27.000
37.886 9.424 0.000
37.886 9.424 27.000
37.886 9.424 27.900
38.508 9.088 26.800
38.508 9.088 27.000
3 182 163 23
3 69 182 23
3 303 69 23
3 265 303 23
3 137 4 272
3 311 321 137
3 272 316 311
3 137 272 311
3 196 194 205
3 209 196 205
3 188 186 190
3 192 188 190
3 125 123 138
3 145 125 138
3 89 85 99
3 101 89 99
3 213 221 223
3 217 213 223
3 232 236 238
3 234 232 238
3 240 244 246
3 242 240 246
3 248 252 254
3 250 248 254
3 256 270 273
3 258 256 273
3 87 91 95
3 93 87 95
3 77 79 83
3 81 77 83
3 67 71 75
3 73 67 75
3 103 107 105
3 97 103 105
3 111 115 113
3 109 111 113
3 119 127 121
3 117 119 121
3 133 147 135
3 131 133 135
3 48 50 54
3 52 48 54
3 39 21 2
3 5 39 2
3 58 5 2
3 56 58 2
3 168 148 6
3 24 168 6
3 289 24 6
3 274 289 6
3 169 149 148
3 169 148 168
3 25 169 168
3 25 168 24
3 290 25 24
3 290 24 289
3 275 290 289
3 275 289 274
3 275 274 6
3 7 275 6
3 7 6 148
3 149 7 148
3 169 149 7
3 25 169 7
3 290 25 7
3 275 290 7
3 170 150 8
3 26 170 8
3 291 26 8
3 276 291 8
3 171 151 150
3 171 150 170
3 27 171 170
3 27 170 26
3 292 27 26
3 292 26 291
3 277 292 291
3 277 291 276
3 277 276 8
3 9 277 8
3 9 8 150
3 151 9 150
3 171 151 9
3 27 171 9
3 292 27 9
3 277 292 9
3 172 152 10
3 28 172 10
3 293 28 10
3 278 293 10
3 173 153 152
3 173 152 172
3 29 173 172
3 29 172 28
3 294 29 28
3 294 28 293
3 279 294 293
3 279 293 278
3 279 278 10
3 11 279 10
3 11 10 152
3 153 11 152
3 173 153 11
3 29 173 11
3 294 29 11
3 279 294 11
3 174 154 12
3 30 174 12
3 295 30 12
3 280 295 12
3 175 155 154
3 175 154 174
3 31 175 174
3 31 174 30
3 296 31 30
3 296 30 295
3 281 296 295
3 281 295 280
3 281 280 12
3 13 281 12
3 13 12 154
3 155 13 154
3 175 155 13
3 31 175 13
3 296 31 13
3 281 296 13
3 176 156 14
3 32 176 14
3 297 32 14
3 282 297 14
3 177 157 156
3 177 156 176
3 33 177 176
3 33 176 32
3 298 33 32
3 298 32 297
3 283 298 297
3 283 297 282
3 283 282 14
3 15 283 14
3 15 14 156
3 157 15 156
3 177 157 15
3 33 177 15
3 298 33 15
3 283 298 15
3 178 158 16
3 34 178 16
3 299 34 16
3 284 299 16
3 179 159 158
3 179 158 178
3 35 179 178
3 35 178 34
3 300 35 34
3 300 34 299
3 285 300 299
3 285 299 284
3 285 284 16
3 17 285 16
3 17 16 158
3 159 17 158
3 179 159 17
3 35 179 17
3 300 35 17
3 285 300 17
3 180 160 18
3 36 180 18
3 301 36 18
3 286 301 18
3 181 162 160
3 181 160 180
3 38 181 180
3 38 180 36
3 302 38 36
3 302 36 301
3 288 302 301
3 288 301 286
3 288 286 18
3 20 288 18
3 20 18 160
3 162 20 160
3 181 162 20
3 38 181 20
3 302 38 20
3 288 302 20
3 130 1 306
3 313 323 130
3 306 318 313
3 130 306 313
3 309 319 184
3 307 314 309
3 69 307 309
3 184 69 309
3 184 147 140
3 182 184 140
3 273 307 303
3 260 273 303
3 223 260 265
3 228 223 265
3 225 262 267
3 230 225 267
3 58 196 201
3 63 58 201
3 58 196 201
3 63 58 201
3 197 196 58
3 59 197 58
3 59 58 63
3 64 59 63
3 202 64 63
3 202 63 201
3 197 202 201
3 197 201 196
3 59 197 202
3 64 59 202
3 60 198 203
3 65 60 203
3 60 198 203
3 65 60 203
3 199 198 60
3 61 199 60
3 61 60 65
3 66 61 65
3 204 66 65
3 204 65 203
3 199 204 203
3 199 203 198
3 61 199 204
3 66 61 204
3 225 262 267
3 230 225 267
3 263 262 225
3 226 263 225
3 226 225 230
3 231 226 230
3 268 231 230
3 268 230 267
3 263 268 267
3 263 267 262
3 226 263 268
3 231 226 268
3 223 260 265
3 228 223 265
3 261 260 223
3 224 261 223
3 224 223 228
3 229 224 228
3 266 229 228
3 266 228 265
3 261 266 265
3 261 265 260
3 224 261 266
3 229 224 266
3 206 214 218
3 210 206 218
3 206 214 218
3 210 206 218
3 215 214 206
3 207 215 206
3 207 206 210
3 211 207 210
3 219 211 210
3 219 210 218
3 215 219 218
3 215 218 214
3 207 215 219
3 211 207 219
3 46 165 142
3 41 46 142
3 44 163 140
3 39 44 140
3 45 164 163
3 45 163 44
3 45 44 39
3 40 45 39
3 40 39 140
3 141 40 140
3 164 141 140
3 164 140 163
3 45 164 141
3 40 45 141
3 46 165 142
3 41 46 142
3 47 166 165
3 47 165 46
3 47 46 41
3 42 47 41
3 42 41 142
3 143 42 142
3 166 143 142
3 166 142 165
3 47 166 143
3 42 47 143
3 269 265 303
3 304 269 303
3 304 303 69
3 70 304 69
3 70 69 182
3 183 70 182
3 183 182 163
3 167 183 163
3 37 167 163
3 37 163 23
3 269 37 23
3 269 23 265
3 315 271 272
3 315 272 316
3 310 315 316
3 310 316 311
3 320 310 311
3 320 311 321
3 136 320 321
3 136 321 137
3 136 137 4
3 3 136 4
3 3 4 272
3 271 3 272
3 257 256 258
3 259 257 258
3 287 259 258
3 287 258 273
3 271 287 273
3 271 273 270
3 271 270 256
3 257 271 256
3 249 248 250
3 251 249 250
3 255 251 250
3 255 250 254
3 253 255 254
3 253 254 252
3 253 252 248
3 249 253 248
3 241 240 242
3 243 241 242
3 247 243 242
3 247 242 246
3 245 247 246
3 245 246 244
3 245 244 240
3 241 245 240
3 233 232 234
3 235 233 234
3 239 235 234
3 239 234 238
3 237 239 238
3 237 238 236
3 237 236 232
3 233 237 232
3 216 213 217
3 220 216 217
3 227 220 217
3 227 217 223
3 222 227 223
3 222 223 221
3 222 221 213
3 216 222 213
3 208 205 209
3 212 208 209
3 212 209 196
3 200 212 196
3 195 200 196
3 195 196 194
3 208 195 194
3 208 194 205
3 191 190 192
3 193 191 192
3 193 192 188
3 189 193 188
3 187 189 188
3 187 188 186
3 191 187 186
3 191 186 190
3 139 138 145
3 146 139 145
3 146 145 125
3 126 146 125
3 124 126 125
3 124 125 123
3 139 124 123
3 139 123 138
3 100 99 101
3 102 100 101
3 102 101 89
3 90 102 89
3 86 90 89
3 86 89 85
3 100 86 85
3 100 85 99
3 57 3 2
3 57 2 56
3 57 56 58
3 62 57 58
3 62 58 5
3 19 62 5
3 19 5 39
3 43 19 39
3 43 39 21
3 22 43 21
3 3 22 21
3 3 21 2
3 55 54 52
3 53 55 52
3 49 53 52
3 49 52 48
3 51 49 48
3 51 48 50
3 51 50 54
3 55 51 54
3 76 75 73
3 74 76 73
3 68 74 73
3 68 73 67
3 72 68 67
3 72 67 71
3 72 71 75
3 76 72 75
3 84 83 81
3 82 84 81
3 78 82 81
3 78 81 77
3 80 78 77
3 80 77 79
3 80 79 83
3 84 80 83
3 96 95 93
3 94 96 93
3 88 94 93
3 88 93 87
3 92 88 87
3 92 87 91
3 92 91 95
3 96 92 95
3 104 103 97
3 98 104 97
3 98 97 105
3 106 98 105
3 108 106 105
3 108 105 107
3 104 108 107
3 104 107 103
3 112 111 109
3 110 112 109
3 110 109 113
3 114 110 113
3 116 114 113
3 116 113 115
3 112 116 115
3 112 115 111
3 120 119 117
3 118 120 117
3 118 117 121
3 122 118 121
3 128 122 121
3 128 121 127
3 120 128 127
3 120 127 119
3 134 133 131
3 132 134 131
3 132 131 135
3 136 132 135
3 161 136 135
3 161 135 147
3 134 161 147
3 134 147 133
3 317 305 306
3 317 306 318
3 312 317 318
3 312 318 313
3 322 312 313
3 322 313 323
3 129 322 323
3 129 323 130
3 129 130 1
3 0 129 1
3 0 1 306
3 305 0 306
3 315 310 309
3 315 309 314
3 308 315 314
3 308 314 307
3 308 307 69
3 70 308 69
3 70 69 184
3 185 70 184
3 320 185 184
3 320 184 319
3 310 320 319
3 310 319 309
3 183 185 184
3 183 184 182
3 183 182 140
3 144 183 140
3 144 140 147
3 161 144 147
3 185 161 147
3 185 147 184
3 287 273 260
3 264 287 260
3 264 260 303
3 304 264 303
3 308 304 303
3 308 303 307
3 287 308 307
3 287 307 273
