OFF
617 1094 0
0.000 47.986 0.000
0.000 47.986 31.100
0.000 47.986 43.900
0.000 47.986 52.500
0.000 47.986 55.200
4.344 49.328 52.500
4.344 49.328 55.200
4.400 33.741 52.500
4.400 33.741 55.200
5.159 31.284 52.500
5.159 31.284 56.300
6.395 48.245 52.500
6.395 48.245 55.200
8.186 21.484 52.500
8.186 21.484 56.300
8.555 32.334 52.500
8.555 32.334 56.300
9.259 18.010 52.499
9.259 18.010 52.500
9.778 36.701 52.500
9.778 36.701 55.200
10.515 13.941 43.900
10.515 13.941 50.100
10.909 49.640 52.500
10.909 49.640 55.200
12.999 30.849 52.500
12.999 30.849 55.200
13.024 5.818 31.100
13.053 24.163 52.500
13.053 24.163 56.300
14.743 0.252 0.000
14.743 0.252 5.300
14.743 0.252 5.700
14.743 0.252 30.000
14.743 0.252 30.800
14.743 0.252 31.100
14.906 0.000 5.300
14.906 0.000 5.700
14.906 0.000 30.000
14.906 0.000 30.800
15.380 52.737 0.000
15.380 52.737 31.100
15.380 52.737 43.900
15.380 52.737 52.500
15.894 1.353 6.117
15.898 1.356 5.908
15.905 1.360 6.326
15.918 1.368 0.000
15.918 1.368 4.700
15.918 1.368 5.700
15.918 1.368 10.000
15.918 1.368 11.900
15.918 1.368 13.400
15.918 1.368 15.300
15.918 1.368 16.800
15.918 1.368 18.700
15.918 1.368 20.100
15.918 1.368 22.000
15.918 1.368 23.400
15.918 1.368 25.300
15.918 1.368 26.700
15.918 1.368 28.600
15.931 1.377 6.533
15.972 1.403 6.737
16.027 1.439 6.936
16.057 1.101 6.117
16.061 1.104 5.908
16.068 1.108 6.326
16.080 1.116 0.000
16.080 1.116 4.700
16.080 1.116 5.700
16.080 1.116 10.000
16.080 1.116 11.900
16.080 1.116 13.400
16.080 1.116 15.300
16.080 1.116 16.800
16.080 1.116 18.700
16.080 1.116 20.100
16.080 1.116 22.000
16.080 1.116 23.400
16.080 1.116 25.300
16.080 1.116 26.700
16.080 1.116 28.600
16.094 1.125 6.533
16.097 1.484 7.128
16.134 1.151 6.737
16.180 1.538 7.312
16.190 1.187 6.936
16.260 1.232 7.128
16.276 1.600 7.487
16.343 1.286 7.312
16.385 1.670 7.652
16.439 1.348 7.487
16.505 1.747 7.805
16.548 1.418 7.652
16.636 1.832 7.945
16.668 1.495 7.805
16.776 1.923 8.071
16.798 1.580 7.945
16.925 2.019 8.182
16.939 1.671 8.071
17.081 2.120 8.278
17.088 1.767 8.182
17.171 52.014 0.000
17.171 52.014 31.100
17.171 52.014 43.900
17.171 52.014 52.500
17.244 1.868 8.278
17.244 2.225 8.357
17.407 1.973 8.357
17.412 2.333 8.419
17.575 2.081 8.419
17.584 2.444 8.464
17.747 2.192 8.464
17.758 2.557 8.491
17.921 2.305 8.491
17.934 2.670 8.500
18.097 2.418 8.500
18.109 2.784 8.491
18.272 2.532 8.491
18.284 2.896 8.464
18.447 2.644 8.464
18.456 3.007 8.419
18.618 2.755 8.419
18.623 3.116 8.357
18.786 2.864 8.357
18.786 3.221 8.278
18.943 3.322 8.182
18.949 2.969 8.278
19.092 3.418 8.071
19.105 3.070 8.182
19.232 3.509 7.945
19.254 3.166 8.071
19.333 34.335 52.500
19.333 34.335 55.200
19.363 3.593 7.805
19.395 3.257 7.945
19.483 3.671 7.652
19.525 3.341 7.805
19.591 3.741 7.487
19.645 3.419 7.652
19.688 3.803 7.312
19.754 3.489 7.487
19.771 3.857 7.128
19.840 3.902 6.936
19.850 3.551 7.312
19.896 3.938 6.737
19.934 3.605 7.128
19.937 3.964 6.533
19.950 3.973 0.000
19.950 3.973 4.700
19.950 3.973 5.700
19.950 3.973 10.000
19.950 3.973 11.900
19.950 3.973 13.400
19.950 3.973 15.300
19.950 3.973 16.800
19.950 3.973 18.700
19.950 3.973 20.100
19.950 3.973 22.000
19.950 3.973 23.400
19.950 3.973 25.300
19.950 3.973 26.700
19.950 3.973 28.600
19.963 3.981 6.326
19.969 3.985 5.908
19.973 3.988 6.117
20.003 3.650 6.936
20.059 3.686 6.737
20.099 3.712 6.533
20.113 3.721 0.000
20.113 3.721 4.700
20.113 3.721 5.700
20.113 3.721 10.000
20.113 3.721 11.900
20.113 3.721 13.400
20.113 3.721 15.300
20.113 3.721 16.800
20.113 3.721 18.700
20.113 3.721 20.100
20.113 3.721 22.000
20.113 3.721 23.400
20.113 3.721 25.300
20.113 3.721 26.700
20.113 3.721 28.600
20.125 3.729 6.326
20.132 3.733 5.908
20.136 3.736 6.117
21.262 4.820 6.117
21.266 4.823 5.908
21.273 4.827 6.326
21.285 4.835 0.000
21.285 4.835 4.700
21.285 4.835 5.700
21.285 4.835 10.000
21.285 4.835 11.900
21.285 4.835 13.400
21.285 4.835 15.300
21.285 4.835 16.800
21.285 4.835 18.700
21.285 4.835 20.100
21.285 4.835 22.000
21.285 4.835 23.400
21.285 4.835 25.300
21.285 4.835 26.700
21.285 4.835 28.600
21.299 4.844 6.533
21.340 4.870 6.737
21.395 4.906 6.936
21.425 4.568 6.117
21.429 4.571 5.908
21.436 4.575 6.326
21.448 4.583 0.000
21.448 4.583 4.700
21.448 4.583 5.700
21.448 4.583 10.000
21.448 4.583 11.900
21.448 4.583 13.400
21.448 4.583 15.300
21.448 4.583 16.800
21.448 4.583 18.700
21.448 4.583 20.100
21.448 4.583 22.000
21.448 4.583 23.400
21.448 4.583 25.300
21.448 4.583 26.700
21.448 4.583 28.600
21.462 4.592 6.533
21.465 4.951 7.128
21.502 4.618 6.737
21.548 5.005 7.312
21.558 4.654 6.936
21.627 4.699 7.128
21.644 5.067 7.487
21.711 4.753 7.312
21.753 5.137 7.652
21.807 4.815 7.487
21.873 5.214 7.805
21.915 4.885 7.652
22.003 5.299 7.945
22.036 4.962 7.805
22.144 5.390 8.071
22.166 5.047 7.945
22.293 5.486 8.182
22.307 5.138 8.071
22.449 5.587 8.278
22.456 5.234 8.182
22.612 5.335 8.278
22.612 5.692 8.357
22.775 5.440 8.357
22.780 5.800 8.419
22.943 5.548 8.419
22.952 5.911 8.464
23.114 5.659 8.464
23.126 6.024 8.491
23.289 5.772 8.491
23.302 6.137 8.500
23.464 5.885 8.500
23.477 6.251 8.491
23.640 5.999 8.491
23.652 6.363 8.464
23.814 6.111 8.464
23.823 6.474 8.419
23.986 6.222 8.419
23.991 6.583 8.357
24.154 6.331 8.357
24.154 6.688 8.278
24.311 6.789 8.182
24.317 6.436 8.278
24.459 6.885 8.071
24.473 6.537 8.182
24.600 6.976 7.945
24.622 6.633 8.071
24.730 7.060 7.805
24.763 6.724 7.945
24.851 7.138 7.652
24.893 6.808 7.805
24.959 7.208 7.487
25.013 6.886 7.652
25.055 7.270 7.312
25.122 6.956 7.487
25.139 7.324 7.128
25.208 7.369 6.936
25.218 7.018 7.312
25.264 7.405 6.737
25.301 7.072 7.128
25.304 7.431 6.533
25.318 7.440 0.000
25.318 7.440 4.700
25.318 7.440 5.700
25.318 7.440 10.000
25.318 7.440 11.900
25.318 7.440 13.400
25.318 7.440 15.300
25.318 7.440 16.800
25.318 7.440 18.700
25.318 7.440 20.100
25.318 7.440 22.000
25.318 7.440 23.400
25.318 7.440 25.300
25.318 7.440 26.700
25.318 7.440 28.600
25.330 7.448 6.326
25.337 7.452 5.908
25.341 7.455 6.117
25.371 7.117 6.936
25.426 7.153 6.737
25.467 7.179 6.533
25.480 7.188 0.000
25.480 7.188 4.700
25.480 7.188 5.700
25.480 7.188 10.000
25.480 7.188 11.900
25.480 7.188 13.400
25.480 7.188 15.300
25.480 7.188 16.800
25.480 7.188 18.700
25.480 7.188 20.100
25.480 7.188 22.000
25.480 7.188 23.400
25.480 7.188 25.300
25.480 7.188 26.700
25.480 7.188 28.600
25.493 7.196 6.326
25.500 7.200 5.908
25.504 7.203 6.117
26.630 8.287 6.117
26.634 8.290 5.908
26.641 8.294 6.326
26.653 8.302 0.000
26.653 8.302 4.700
26.653 8.302 5.700
26.653 8.302 10.000
26.653 8.302 11.900
26.653 8.302 13.400
26.653 8.302 15.300
26.653 8.302 16.800
26.653 8.302 18.700
26.653 8.302 20.100
26.653 8.302 22.000
26.653 8.302 23.400
26.653 8.302 25.300
26.653 8.302 26.700
26.653 8.302 28.600
26.667 8.311 6.533
26.707 8.337 6.737
26.763 8.373 6.936
26.792 8.035 6.117
26.797 8.038 5.908
26.803 8.042 6.326
26.816 8.050 0.000
26.816 8.050 4.700
26.816 8.050 5.700
26.816 8.050 10.000
26.816 8.050 11.900
26.816 8.050 13.400
26.816 8.050 15.300
26.816 8.050 16.800
26.816 8.050 18.700
26.816 8.050 20.100
26.816 8.050 22.000
26.816 8.050 23.400
26.816 8.050 25.300
26.816 8.050 26.700
26.816 8.050 28.600
26.829 8.059 6.533
26.832 8.418 7.128
26.870 8.085 6.737
26.916 8.472 7.312
26.926 8.121 6.936
26.995 8.166 7.128
27.012 8.534 7.487
27.078 8.220 7.312
27.121 8.604 7.652
27.175 8.282 7.487
27.241 8.681 7.805
27.283 8.352 7.652
27.371 8.766 7.945
27.403 8.429 7.805
27.512 8.857 8.071
27.534 8.514 7.945
27.661 8.953 8.182
27.674 8.604 8.071
27.817 9.054 8.278
27.823 8.701 8.182
27.980 8.802 8.278
27.980 9.159 8.357
28.143 8.907 8.357
28.148 9.267 8.419
28.311 9.015 8.419
28.319 9.378 8.464
28.482 9.126 8.464
28.494 9.491 8.491
28.657 9.239 8.491
28.670 9.604 8.500
28.832 9.352 8.500
28.845 9.718 8.491
29.008 9.466 8.491
29.020 9.830 8.464
29.182 9.578 8.464
29.191 9.941 8.419
29.354 9.689 8.419
29.359 10.050 8.357
29.522 9.798 8.357
29.522 10.155 8.278
29.678 10.256 8.182
29.685 9.903 8.278
29.695 29.259 52.500
29.827 10.352 8.071
29.841 10.004 8.182
29.968 10.443 7.945
29.990 10.100 8.071
30.098 10.527 7.805
30.130 10.191 7.945
30.218 10.605 7.652
30.261 10.275 7.805
30.327 10.675 7.487
30.381 10.353 7.652
30.423 10.737 7.312
30.490 10.423 7.487
30.506 10.791 7.128
30.576 10.836 6.936
30.586 10.485 7.312
30.632 10.872 6.737
30.669 10.539 7.128
30.672 10.898 6.533
30.686 10.907 0.000
30.686 10.907 4.700
30.686 10.907 5.700
30.686 10.907 10.000
30.686 10.907 11.900
30.686 10.907 13.400
30.686 10.907 15.300
30.686 10.907 16.800
30.686 10.907 18.700
30.686 10.907 20.100
30.686 10.907 22.000
30.686 10.907 23.400
30.686 10.907 25.300
30.686 10.907 26.700
30.686 10.907 28.600
30.698 10.915 6.326
30.705 10.919 5.908
30.709 10.922 6.117
30.739 10.584 6.936
30.794 10.620 6.737
30.835 10.646 6.533
30.848 10.655 0.000
30.848 10.655 4.700
30.848 10.655 5.700
30.848 10.655 10.000
30.848 10.655 11.900
30.848 10.655 13.400
30.848 10.655 15.300
30.848 10.655 16.800
30.848 10.655 18.700
30.848 10.655 20.100
30.848 10.655 22.000
30.848 10.655 23.400
30.848 10.655 25.300
30.848 10.655 26.700
30.848 10.655 28.600
30.861 10.663 6.326
30.868 10.667 5.908
30.872 10.670 6.117
31.707 25.604 43.900
31.707 25.604 50.100
31.707 25.605 43.900
31.998 11.754 6.117
32.002 11.757 5.908
32.008 11.761 6.326
32.021 11.769 0.000
32.021 11.769 4.700
32.021 11.769 5.700
32.021 11.769 10.000
32.021 11.769 11.900
32.021 11.769 13.400
32.021 11.769 15.300
32.021 11.769 16.800
32.021 11.769 18.700
32.021 11.769 20.100
32.021 11.769 22.000
32.021 11.769 23.400
32.021 11.769 25.300
32.021 11.769 26.700
32.021 11.769 28.600
32.034 11.778 6.533
32.075 11.804 6.737
32.131 11.840 6.936
32.160 11.502 6.117
32.165 11.505 5.908
32.171 11.509 6.326
32.184 11.517 0.000
32.184 11.517 4.700
32.184 11.517 5.700
32.184 11.517 10.000
32.184 11.517 11.900
32.184 11.517 13.400
32.184 11.517 15.300
32.184 11.517 16.800
32.184 11.517 18.700
32.184 11.517 20.100
32.184 11.517 22.000
32.184 11.517 23.400
32.184 11.517 25.300
32.184 11.517 26.700
32.184 11.517 28.600
32.197 11.526 6.533
32.200 11.885 7.128
32.238 11.552 6.737
32.284 11.939 7.312
32.293 11.588 6.936
32.363 11.633 7.128
32.380 12.001 7.487
32.446 11.687 7.312
32.488 12.071 7.652
32.543 11.749 7.487
32.608 12.148 7.805
32.651 11.819 7.652
32.739 12.233 7.945
32.771 11.896 7.805
32.879 12.324 8.071
32.902 11.981 7.945
33.028 12.420 8.182
33.042 12.072 8.071
33.185 12.521 8.278
33.191 12.168 8.182
33.348 12.269 8.278
33.348 12.626 8.357
33.510 12.374 8.357
33.516 12.734 8.419
33.678 12.482 8.419
33.687 12.845 8.464
33.850 12.593 8.464
33.862 12.958 8.491
34.024 12.706 8.491
34.037 13.071 8.500
34.200 12.819 8.500
34.213 13.185 8.491
34.376 12.933 8.491
34.387 13.297 8.464
34.550 13.045 8.464
34.559 13.408 8.419
34.722 13.156 8.419
34.727 13.517 8.357
34.890 13.265 8.357
34.890 13.622 8.278
35.046 13.723 8.182
35.053 13.370 8.278
35.195 13.819 8.071
35.209 13.471 8.182
35.336 13.910 7.945
35.358 13.567 8.071
35.466 13.994 7.805
35.498 13.658 7.945
35.586 14.072 7.652
35.629 13.742 7.805
35.695 14.142 7.487
35.722 18.310 31.100
35.749 13.820 7.652
35.791 14.204 7.312
35.858 13.890 7.487
35.874 14.258 7.128
35.944 14.303 6.936
35.954 13.952 7.312
35.999 14.339 6.737
36.037 14.006 7.128
36.040 14.365 6.533
36.053 14.374 0.000
36.053 14.374 4.700
36.053 14.374 5.700
36.053 14.374 10.000
36.053 14.374 11.900
36.053 14.374 13.400
36.053 14.374 15.300
36.053 14.374 16.800
36.053 14.374 18.700
36.053 14.374 20.100
36.053 14.374 22.000
36.053 14.374 23.400
36.053 14.374 25.300
36.053 14.374 26.700
36.053 14.374 28.600
36.066 14.382 6.326
36.073 14.386 5.908
36.077 14.389 6.117
36.107 14.051 6.936
36.162 14.087 6.737
36.203 14.113 6.533
36.216 14.122 0.000
36.216 14.122 4.700
36.216 14.122 5.700
36.216 14.122 10.000
36.216 14.122 11.900
36.216 14.122 13.400
36.216 14.122 15.300
36.216 14.122 16.800
36.216 14.122 18.700
36.216 14.122 20.100
36.216 14.122 22.000
36.216 14.122 23.400
36.216 14.122 25.300
36.216 14.122 26.700
36.216 14.122 28.600
36.229 14.130 6.326
36.236 14.134 5.908
36.240 14.137 6.117
37.552 14.984 0.000
37.552 14.984 5.300
37.552 14.984 5.700
37.552 14.984 30.000
37.552 14.984 30.800
37.552 14.984 31.100
37.715 14.732 5.300
37.715 14.732 5.700
37.715 14.732 30.000
37.715 14.732 30.800
3 60 162 163
3 60 163 61
3 204 300 301
3 204 301 205
3 342 439 440
3 342 440 343
3 484 581 582
3 484 582 485
3 58 160 161
3 58 161 59
3 202 298 299
3 202 299 203
3 340 437 438
3 340 438 341
3 482 579 580
3 482 580 483
3 56 158 159
3 56 159 57
3 200 296 297
3 200 297 201
3 338 435 436
3 338 436 339
3 480 577 578
3 480 578 481
3 54 156 157
3 54 157 55
3 198 294 295
3 198 295 199
3 336 433 434
3 336 434 337
3 478 575 576
3 478 576 479
3 52 154 155
3 52 155 53
3 196 292 293
3 196 293 197
3 334 431 432
3 334 432 335
3 476 573 574
3 476 574 477
3 50 152 153
3 50 153 51
3 194 290 291
3 194 291 195
3 332 429 430
3 332 430 333
3 474 571 572
3 474 572 475
3 151 165 166
3 151 166 164
3 151 164 148
3 151 148 146
3 151 146 144
3 151 144 143
3 151 143 141
3 151 141 139
3 151 139 137
3 151 137 135
3 151 135 131
3 151 131 129
3 151 129 127
3 151 127 126
3 151 126 124
3 151 124 122
3 151 122 120
3 151 120 118
3 151 118 116
3 151 116 114
3 151 114 112
3 151 112 110
3 151 110 108
3 151 108 101
3 151 101 99
3 151 99 97
3 151 97 95
3 151 95 93
3 151 93 91
3 151 91 89
3 151 89 86
3 151 86 84
3 151 84 64
3 151 64 63
3 151 63 62
3 151 62 46
3 151 46 44
3 151 44 45
3 45 49 151
3 289 303 304
3 289 304 302
3 289 302 286
3 289 286 284
3 289 284 282
3 289 282 281
3 289 281 279
3 289 279 277
3 289 277 275
3 289 275 273
3 289 273 271
3 289 271 269
3 289 269 267
3 289 267 266
3 289 266 264
3 289 264 262
3 289 262 260
3 289 260 258
3 289 258 256
3 289 256 254
3 289 254 252
3 289 252 250
3 289 250 248
3 289 248 245
3 289 245 243
3 289 243 241
3 289 241 239
3 289 239 237
3 289 237 235
3 289 235 233
3 289 233 230
3 289 230 228
3 289 228 208
3 289 208 207
3 289 207 206
3 289 206 190
3 289 190 188
3 289 188 189
3 189 193 289
3 428 442 443
3 428 443 441
3 428 441 425
3 428 425 423
3 428 423 421
3 428 421 420
3 428 420 418
3 428 418 416
3 428 416 414
3 428 414 412
3 428 412 410
3 428 410 408
3 428 408 405
3 428 405 404
3 428 404 402
3 428 402 400
3 428 400 398
3 428 398 396
3 428 396 394
3 428 394 392
3 428 392 390
3 428 390 388
3 428 388 386
3 428 386 383
3 428 383 381
3 428 381 379
3 428 379 377
3 428 377 375
3 428 375 373
3 428 373 371
3 428 371 368
3 428 368 366
3 428 366 346
3 428 346 345
3 428 345 344
3 428 344 328
3 428 328 326
3 428 326 327
3 327 331 428
3 570 584 585
3 570 585 583
3 570 583 567
3 570 567 565
3 570 565 563
3 570 563 562
3 570 562 560
3 570 560 557
3 570 557 555
3 570 555 553
3 570 553 551
3 570 551 549
3 570 549 547
3 570 547 546
3 570 546 544
3 570 544 542
3 570 542 540
3 570 540 538
3 570 538 536
3 570 536 534
3 570 534 532
3 570 532 530
3 570 530 528
3 570 528 525
3 570 525 523
3 570 523 521
3 570 521 519
3 570 519 517
3 570 517 515
3 570 515 513
3 570 513 510
3 570 510 508
3 570 508 488
3 570 488 487
3 570 487 486
3 570 486 470
3 570 470 468
3 570 468 469
3 469 473 570
3 150 48 47
3 150 47 149
3 288 192 191
3 288 191 287
3 427 330 329
3 427 329 426
3 569 472 471
3 569 471 568
3 310 324 325
3 310 325 323
3 310 323 307
3 310 307 306
3 310 306 305
3 310 305 285
3 310 285 283
3 310 283 280
3 310 280 278
3 310 278 276
3 310 276 274
3 310 274 272
3 310 272 270
3 310 270 268
3 310 268 265
3 310 265 263
3 310 263 261
3 310 261 259
3 310 259 257
3 310 257 255
3 310 255 253
3 310 253 251
3 310 251 249
3 310 249 247
3 310 247 246
3 310 246 244
3 310 244 242
3 310 242 240
3 310 240 238
3 310 238 236
3 310 236 234
3 310 234 232
3 310 232 231
3 310 231 229
3 310 229 227
3 310 227 211
3 310 211 209
3 310 209 210
3 210 214 310
3 224 320 319
3 223 224 319
3 172 186 187
3 172 187 185
3 172 185 169
3 172 169 168
3 172 168 167
3 172 167 147
3 172 147 145
3 172 145 142
3 172 142 140
3 172 140 138
3 172 138 136
3 172 136 132
3 172 132 130
3 172 130 128
3 172 128 125
3 172 125 123
3 172 123 121
3 172 121 119
3 172 119 117
3 172 117 115
3 172 115 113
3 172 113 111
3 172 111 109
3 172 109 107
3 172 107 102
3 172 102 100
3 172 100 98
3 172 98 96
3 172 96 94
3 172 94 92
3 172 92 90
3 172 90 88
3 172 88 87
3 172 87 85
3 172 85 83
3 172 83 67
3 172 67 65
3 172 65 66
3 66 70 172
3 80 182 181
3 79 80 181
3 591 605 606
3 591 606 604
3 591 604 588
3 591 588 587
3 591 587 586
3 591 586 566
3 591 566 564
3 591 564 561
3 591 561 559
3 591 559 556
3 591 556 554
3 591 554 552
3 591 552 550
3 591 550 548
3 591 548 545
3 591 545 543
3 591 543 541
3 591 541 539
3 591 539 537
3 591 537 535
3 591 535 533
3 591 533 531
3 591 531 529
3 591 529 527
3 591 527 526
3 591 526 524
3 591 524 522
3 591 522 520
3 591 520 518
3 591 518 516
3 591 516 514
3 591 514 512
3 591 512 511
3 591 511 509
3 591 509 507
3 591 507 491
3 591 491 489
3 591 489 490
3 490 494 591
3 506 603 602
3 505 506 602
3 449 463 464
3 449 464 462
3 449 462 446
3 449 446 445
3 449 445 444
3 449 444 424
3 449 424 422
3 449 422 419
3 449 419 417
3 449 417 415
3 449 415 413
3 449 413 411
3 449 411 409
3 449 409 406
3 449 406 403
3 449 403 401
3 449 401 399
3 449 399 397
3 449 397 395
3 449 395 393
3 449 393 391
3 449 391 389
3 449 389 387
3 449 387 385
3 449 385 384
3 449 384 382
3 449 382 380
3 449 380 378
3 449 378 376
3 449 376 374
3 449 374 372
3 449 372 370
3 449 370 369
3 449 369 367
3 449 367 365
3 449 365 349
3 449 349 347
3 449 347 348
3 348 352 449
3 362 459 458
3 361 362 458
3 503 600 601
3 503 601 504
3 502 599 598
3 501 502 598
3 77 179 180
3 77 180 78
3 76 178 177
3 75 76 177
3 221 317 318
3 221 318 222
3 220 316 315
3 219 220 315
3 359 456 457
3 359 457 360
3 358 455 454
3 357 358 454
3 499 596 597
3 499 597 500
3 498 595 594
3 497 498 594
3 73 175 176
3 73 176 74
3 72 174 173
3 71 72 173
3 217 313 314
3 217 314 218
3 216 312 311
3 215 216 311
3 355 452 453
3 355 453 356
3 354 451 450
3 353 354 450
3 495 592 593
3 495 593 496
3 589 492 493
3 590 589 493
3 607 30 35
3 612 607 35
3 81 183 184
3 81 184 82
3 170 68 69
3 171 170 69
3 225 321 322
3 225 322 226
3 308 212 213
3 309 308 213
3 363 460 461
3 363 461 364
3 447 350 351
3 448 447 351
3 1 0 30
3 35 1 30
3 0 40 41
3 0 41 1
3 41 40 103
3 41 103 104
3 612 607 103
3 612 103 104
3 35 1 41
3 612 35 41
3 104 612 41
3 613 36 31
3 608 613 31
3 614 37 32
3 609 614 32
3 36 37 32
3 31 36 32
3 31 32 609
3 608 31 609
3 613 608 609
3 613 609 614
3 36 613 614
3 36 614 37
3 613 36 31
3 608 613 31
3 616 39 34
3 611 616 34
3 38 39 34
3 33 38 34
3 33 34 611
3 610 33 611
3 615 610 611
3 615 611 616
3 38 615 616
3 38 616 39
3 615 38 33
3 610 615 33
3 27 21 2
3 1 27 2
3 27 21 465
3 558 27 465
3 21 2 42
3 465 21 42
3 105 465 42
3 8 4 6
3 20 8 6
3 26 20 6
3 134 26 6
3 12 24 134
3 6 12 134
3 10 16 29
3 14 10 29
3 7 3 5
3 19 7 5
3 25 19 5
3 133 25 5
3 11 23 133
3 5 11 133
3 4 3 7
3 8 4 7
3 20 8 7
3 20 7 19
3 20 19 25
3 26 20 25
3 134 26 25
3 134 25 133
3 24 134 133
3 24 133 23
3 24 23 11
3 12 24 11
3 12 11 5
3 6 12 5
3 6 5 3
3 4 6 3
3 8 4 6
3 20 8 6
3 26 20 6
3 134 26 6
3 12 24 134
3 6 12 134
3 9 15 28
3 13 9 28
3 16 15 9
3 10 16 9
3 10 9 13
3 14 10 13
3 29 14 13
3 29 13 28
3 16 29 28
3 16 28 15
3 10 16 29
3 14 10 29
3 22 466 465
3 21 22 465
3 13 17 22
3 13 22 21
3 13 21 2
3 13 2 3
3 106 407 18
3 43 106 18
3 3 43 18
3 17 407 466
3 22 17 466
3 43 3 2
3 43 2 42
3 42 43 106
3 105 42 106
3 407 106 105
3 466 407 105
3 467 466 105
3 105 467 558
3 105 558 104
3 41 104 105
3 41 105 42
3 41 1 2
3 42 41 2
3 82 61 60
3 81 82 60
3 81 60 162
3 183 81 162
3 184 183 162
3 184 162 163
3 61 163 184
3 82 61 184
3 226 205 204
3 225 226 204
3 225 204 300
3 321 225 300
3 322 321 300
3 322 300 301
3 205 301 322
3 226 205 322
3 364 343 342
3 363 364 342
3 363 342 439
3 460 363 439
3 461 460 439
3 461 439 440
3 343 440 461
3 364 343 461
3 506 485 484
3 505 506 484
3 505 484 581
3 602 505 581
3 603 602 581
3 603 581 582
3 485 582 603
3 506 485 603
3 80 59 58
3 79 80 58
3 79 58 160
3 181 79 160
3 182 181 160
3 182 160 161
3 59 161 182
3 80 59 182
3 224 203 202
3 223 224 202
3 223 202 298
3 319 223 298
3 320 319 298
3 320 298 299
3 203 299 320
3 224 203 320
3 362 341 340
3 361 362 340
3 361 340 437
3 458 361 437
3 459 458 437
3 459 437 438
3 341 438 459
3 362 341 459
3 504 483 482
3 503 504 482
3 503 482 579
3 600 503 579
3 601 600 579
3 601 579 580
3 483 580 601
3 504 483 601
3 78 57 56
3 77 78 56
3 77 56 158
3 179 77 158
3 180 179 158
3 180 158 159
3 57 159 180
3 78 57 180
3 222 201 200
3 221 222 200
3 221 200 296
3 317 221 296
3 318 317 296
3 318 296 297
3 201 297 318
3 222 201 318
3 360 339 338
3 359 360 338
3 359 338 435
3 456 359 435
3 457 456 435
3 457 435 436
3 339 436 457
3 360 339 457
3 502 481 480
3 501 502 480
3 501 480 577
3 598 501 577
3 599 598 577
3 599 577 578
3 481 578 599
3 502 481 599
3 76 55 54
3 75 76 54
3 75 54 156
3 177 75 156
3 178 177 156
3 178 156 157
3 55 157 178
3 76 55 178
3 220 199 198
3 219 220 198
3 219 198 294
3 315 219 294
3 316 315 294
3 316 294 295
3 199 295 316
3 220 199 316
3 358 337 336
3 357 358 336
3 357 336 433
3 454 357 433
3 455 454 433
3 455 433 434
3 337 434 455
3 358 337 455
3 500 479 478
3 499 500 478
3 499 478 575
3 596 499 575
3 597 596 575
3 597 575 576
3 479 576 597
3 500 479 597
3 74 53 52
3 73 74 52
3 73 52 154
3 175 73 154
3 176 175 154
3 176 154 155
3 53 155 176
3 74 53 176
3 218 197 196
3 217 218 196
3 217 196 292
3 313 217 292
3 314 313 292
3 314 292 293
3 197 293 314
3 218 197 314
3 356 335 334
3 355 356 334
3 355 334 431
3 452 355 431
3 453 452 431
3 453 431 432
3 335 432 453
3 356 335 453
3 498 477 476
3 497 498 476
3 497 476 573
3 594 497 573
3 595 594 573
3 595 573 574
3 477 574 595
3 498 477 595
3 72 51 50
3 71 72 50
3 71 50 152
3 173 71 152
3 174 173 152
3 174 152 153
3 51 153 174
3 72 51 174
3 216 195 194
3 215 216 194
3 215 194 290
3 311 215 290
3 312 311 290
3 312 290 291
3 195 291 312
3 216 195 312
3 354 333 332
3 353 354 332
3 353 332 429
3 450 353 429
3 451 450 429
3 451 429 430
3 333 430 451
3 354 333 451
3 496 475 474
3 495 496 474
3 495 474 571
3 592 495 571
3 593 592 571
3 593 571 572
3 475 572 593
3 496 475 593
3 45 49 70
3 66 45 70
3 44 45 66
3 65 44 66
3 67 65 44
3 67 44 46
3 83 67 46
3 83 46 62
3 85 83 62
3 85 62 63
3 87 85 63
3 87 63 64
3 88 87 64
3 88 64 84
3 90 88 84
3 90 84 86
3 92 90 86
3 92 86 89
3 94 92 89
3 94 89 91
3 94 91 93
3 96 94 93
3 96 93 95
3 98 96 95
3 98 95 97
3 100 98 97
3 100 97 99
3 102 100 99
3 102 99 101
3 107 102 101
3 107 101 108
3 109 107 108
3 109 108 110
3 111 109 110
3 111 110 112
3 113 111 112
3 113 112 114
3 115 113 114
3 115 114 116
3 117 115 116
3 117 116 118
3 119 117 118
3 119 118 120
3 121 119 120
3 121 120 122
3 123 121 122
3 123 122 124
3 125 123 124
3 125 124 126
3 128 125 126
3 128 126 127
3 130 128 127
3 130 127 129
3 132 130 129
3 132 129 131
3 136 132 131
3 136 131 135
3 138 136 135
3 138 135 137
3 140 138 137
3 140 137 139
3 142 140 139
3 142 139 141
3 145 142 141
3 145 141 143
3 147 145 143
3 147 143 144
3 167 147 144
3 167 144 146
3 168 167 146
3 168 146 148
3 169 168 148
3 169 148 164
3 185 169 164
3 185 164 166
3 187 185 166
3 186 165 166
3 186 166 187
3 172 151 165
3 172 165 186
3 49 151 172
3 70 49 172
3 189 193 214
3 210 189 214
3 188 189 210
3 209 188 210
3 211 209 188
3 211 188 190
3 227 211 190
3 227 190 206
3 229 227 206
3 229 206 207
3 231 229 207
3 231 207 208
3 232 231 208
3 232 208 228
3 234 232 228
3 234 228 230
3 236 234 230
3 236 230 233
3 238 236 233
3 238 233 235
3 238 235 237
3 240 238 237
3 240 237 239
3 242 240 239
3 242 239 241
3 244 242 241
3 244 241 243
3 246 244 243
3 246 243 245
3 247 246 245
3 247 245 248
3 249 247 248
3 249 248 250
3 251 249 250
3 251 250 252
3 253 251 252
3 253 252 254
3 255 253 254
3 255 254 256
3 257 255 256
3 257 256 258
3 259 257 258
3 259 258 260
3 261 259 260
3 261 260 262
3 263 261 262
3 263 262 264
3 265 263 264
3 265 264 266
3 268 265 266
3 268 266 267
3 270 268 267
3 270 267 269
3 272 270 269
3 272 269 271
3 274 272 271
3 274 271 273
3 276 274 273
3 276 273 275
3 278 276 275
3 278 275 277
3 280 278 277
3 280 277 279
3 283 280 279
3 283 279 281
3 285 283 281
3 285 281 282
3 305 285 282
3 305 282 284
3 306 305 284
3 306 284 286
3 307 306 286
3 307 286 302
3 323 307 302
3 323 302 304
3 325 323 304
3 324 303 304
3 324 304 325
3 310 289 303
3 310 303 324
3 193 289 310
3 214 193 310
3 327 331 352
3 348 327 352
3 326 327 348
3 347 326 348
3 349 347 326
3 349 326 328
3 365 349 328
3 365 328 344
3 367 365 344
3 367 344 345
3 369 367 345
3 369 345 346
3 370 369 346
3 370 346 366
3 372 370 366
3 372 366 368
3 374 372 368
3 374 368 371
3 376 374 371
3 376 371 373
3 376 373 375
3 378 376 375
3 378 375 377
3 380 378 377
3 380 377 379
3 382 380 379
3 382 379 381
3 384 382 381
3 384 381 383
3 385 384 383
3 385 383 386
3 387 385 386
3 387 386 388
3 389 387 388
3 389 388 390
3 391 389 390
3 391 390 392
3 393 391 392
3 393 392 394
3 395 393 394
3 395 394 396
3 397 395 396
3 397 396 398
3 399 397 398
3 399 398 400
3 401 399 400
3 401 400 402
3 403 401 402
3 403 402 404
3 406 403 404
3 406 404 405
3 409 406 405
3 409 405 408
3 411 409 408
3 411 408 410
3 413 411 410
3 413 410 412
3 415 413 412
3 415 412 414
3 417 415 414
3 417 414 416
3 419 417 416
3 419 416 418
3 422 419 418
3 422 418 420
3 424 422 420
3 424 420 421
3 444 424 421
3 444 421 423
3 445 444 423
3 445 423 425
3 446 445 425
3 446 425 441
3 462 446 441
3 462 441 443
3 464 462 443
3 463 442 443
3 463 443 464
3 449 428 442
3 449 442 463
3 331 428 449
3 352 331 449
3 469 473 494
3 490 469 494
3 468 469 490
3 489 468 490
3 491 489 468
3 491 468 470
3 507 491 470
3 507 470 486
3 509 507 486
3 509 486 487
3 511 509 487
3 511 487 488
3 512 511 488
3 512 488 508
3 514 512 508
3 514 508 510
3 516 514 510
3 516 510 513
3 518 516 513
3 518 513 515
3 518 515 517
3 520 518 517
3 520 517 519
3 522 520 519
3 522 519 521
3 524 522 521
3 524 521 523
3 526 524 523
3 526 523 525
3 527 526 525
3 527 525 528
3 529 527 528
3 529 528 530
3 531 529 530
3 531 530 532
3 533 531 532
3 533 532 534
3 535 533 534
3 535 534 536
3 537 535 536
3 537 536 538
3 539 537 538
3 539 538 540
3 541 539 540
3 541 540 542
3 543 541 542
3 543 542 544
3 545 543 544
3 545 544 546
3 548 545 546
3 548 546 547
3 550 548 547
3 550 547 549
3 552 550 549
3 552 549 551
3 554 552 551
3 554 551 553
3 556 554 553
3 556 553 555
3 559 556 555
3 559 555 557
3 561 559 557
3 561 557 560
3 564 561 560
3 564 560 562
3 566 564 562
3 566 562 563
3 586 566 563
3 586 563 565
3 587 586 565
3 587 565 567
3 588 587 567
3 588 567 583
3 604 588 583
3 604 583 585
3 606 604 585
3 605 584 585
3 605 585 606
3 591 570 584
3 591 584 605
3 473 570 591
3 494 473 591
3 171 170 149
3 171 149 150
3 48 150 171
3 69 48 171
3 69 48 47
3 68 69 47
3 68 47 149
3 170 68 149
3 309 308 287
3 309 287 288
3 192 288 309
3 213 192 309
3 213 192 191
3 212 213 191
3 212 191 287
3 308 212 287
3 448 447 426
3 448 426 427
3 330 427 448
3 351 330 448
3 351 330 329
3 350 351 329
3 350 329 426
3 447 350 426
3 590 589 568
3 590 568 569
3 472 569 590
3 493 472 590
3 493 472 471
3 492 493 471
3 492 471 568
3 589 492 568
