OFF
1793 3709 0
0.000 65.356 125.500
0.000 65.356 134.000
0.686 63.052 0.000
0.686 63.052 123.600
0.686 63.052 125.500
0.811 62.985 0.000
0.811 62.985 7.800
0.811 62.985 19.900
0.811 62.985 125.500
1.233 43.798 6.400
1.233 43.798 18.900
1.259 65.437 19.900
1.259 65.437 21.538
1.259 65.437 23.108
1.259 65.437 24.187
1.259 65.437 25.757
1.259 65.437 26.836
1.259 65.437 28.406
1.259 65.437 29.485
1.259 65.437 31.055
1.259 65.437 32.134
1.259 65.437 33.704
1.259 65.437 34.783
1.259 65.437 36.353
1.259 65.437 37.432
1.259 65.437 39.002
1.259 65.437 40.081
1.259 65.437 41.651
1.259 65.437 42.730
1.259 65.437 44.300
1.259 65.437 45.379
1.259 65.437 46.949
1.259 65.437 48.028
1.259 65.437 49.598
1.259 65.437 50.677
1.259 65.437 52.247
1.259 65.437 53.326
1.259 65.437 54.896
1.259 65.437 55.975
1.259 65.437 57.545
1.259 65.437 58.624
1.259 65.437 60.194
1.259 65.437 61.273
1.259 65.437 62.843
1.259 65.437 63.922
1.259 65.437 65.492
1.259 65.437 66.571
1.259 65.437 68.141
1.259 65.437 69.220
1.259 65.437 70.790
1.259 65.437 71.869
1.259 65.437 73.439
1.259 65.437 74.518
1.259 65.437 76.088
1.259 65.437 77.167
1.259 65.437 78.737
1.259 65.437 79.816
1.259 65.437 81.386
1.259 65.437 82.465
1.259 65.437 84.035
1.259 65.437 85.114
1.259 65.437 86.684
1.259 65.437 87.763
1.259 65.437 89.333
1.259 65.437 90.412
1.259 65.437 91.982
1.259 65.437 93.061
1.259 65.437 94.631
1.259 65.437 95.710
1.259 65.437 97.280
1.259 65.437 98.359
1.259 65.437 99.929
1.259 65.437 101.008
1.259 65.437 102.578
1.259 65.437 103.657
1.259 65.437 105.227
1.259 65.437 106.306
1.259 65.437 107.876
1.259 65.437 108.955
1.259 65.437 110.525
1.259 65.437 111.604
1.259 65.437 113.174
1.259 65.437 114.253
1.259 65.437 115.823
1.259 65.437 116.902
1.259 65.437 118.472
1.259 65.437 119.551
1.259 65.437 121.121
1.259 65.437 122.200
1.399 64.967 10.200
1.399 64.967 16.900
1.460 65.791 125.500
1.625 65.239 19.900
1.625 65.239 21.538
1.625 65.239 23.108
1.625 65.239 24.187
1.625 65.239 25.757
1.625 65.239 26.836
1.625 65.239 28.406
1.625 65.239 29.485
1.625 65.239 31.055
1.625 65.239 32.134
1.625 65.239 33.704
1.625 65.239 34.783
1.625 65.239 36.353
1.625 65.239 37.432
1.625 65.239 39.002
1.625 65.239 40.081
1.625 65.239 41.651
1.625 65.239 42.730
1.625 65.239 44.300
1.625 65.239 45.379
1.625 65.239 46.949
1.625 65.239 48.028
1.625 65.239 49.598
1.625 65.239 50.677
1.625 65.239 52.247
1.625 65.239 53.326
1.625 65.239 54.896
1.625 65.239 55.975
1.625 65.239 57.545
1.625 65.239 58.624
1.625 65.239 60.194
1.625 65.239 61.273
1.625 65.239 62.843
1.625 65.239 63.922
1.625 65.239 65.492
1.625 65.239 66.571
1.625 65.239 68.141
1.625 65.239 69.220
1.625 65.239 70.790
1.625 65.239 71.869
1.625 65.239 73.439
1.625 65.239 74.518
1.625 65.239 76.088
1.625 65.239 77.167
1.625 65.239 78.737
1.625 65.239 79.816
1.625 65.239 81.386
1.625 65.239 82.465
1.625 65.239 84.035
1.625 65.239 85.114
1.625 65.239 86.684
1.625 65.239 87.763
1.625 65.239 89.333
1.625 65.239 90.412
1.625 65.239 91.982
1.625 65.239 93.061
1.625 65.239 94.631
1.625 65.239 95.710
1.625 65.239 97.280
1.625 65.239 98.359
1.625 65.239 99.929
1.625 65.239 101.008
1.625 65.239 102.578
1.625 65.239 103.657
1.625 65.239 105.227
1.625 65.239 106.306
1.625 65.239 107.876
1.625 65.239 108.955
1.625 65.239 110.525
1.625 65.239 111.604
1.625 65.239 113.174
1.625 65.239 114.253
1.625 65.239 115.823
1.625 65.239 116.902
1.625 65.239 118.472
1.625 65.239 119.551
1.625 65.239 121.121
1.625 65.239 122.200
1.625 65.239 125.500
1.765 64.769 7.800
1.765 64.769 10.200
1.765 64.769 16.900
1.765 64.769 19.900
1.865 63.404 19.900
1.865 63.404 21.538
1.865 63.404 23.108
1.865 63.404 24.187
1.865 63.404 25.757
1.865 63.404 26.836
1.865 63.404 28.406
1.865 63.404 29.485
1.865 63.404 31.055
1.865 63.404 32.134
1.865 63.404 33.704
1.865 63.404 34.783
1.865 63.404 36.353
1.865 63.404 37.432
1.865 63.404 39.002
1.865 63.404 40.081
1.865 63.404 41.651
1.865 63.404 42.730
1.865 63.404 44.300
1.865 63.404 45.379
1.865 63.404 46.949
1.865 63.404 48.028
1.865 63.404 49.598
1.865 63.404 50.677
1.865 63.404 52.247
1.865 63.404 53.326
1.865 63.404 54.896
1.865 63.404 55.975
1.865 63.404 57.545
1.865 63.404 58.624
1.865 63.404 60.194
1.865 63.404 61.273
1.865 63.404 62.843
1.865 63.404 63.922
1.865 63.404 65.492
1.865 63.404 66.571
1.865 63.404 68.141
1.865 63.404 69.220
1.865 63.404 70.790
1.865 63.404 71.869
1.865 63.404 73.439
1.865 63.404 74.518
1.865 63.404 76.088
1.865 63.404 77.167
1.865 63.404 78.737
1.865 63.404 79.816
1.865 63.404 81.386
1.865 63.404 82.465
1.865 63.404 84.035
1.865 63.404 85.114
1.865 63.404 86.684
1.865 63.404 87.763
1.865 63.404 89.333
1.865 63.404 90.412
1.865 63.404 91.982
1.865 63.404 93.061
1.865 63.404 94.631
1.865 63.404 95.710
1.865 63.404 97.280
1.865 63.404 98.359
1.865 63.404 99.929
1.865 63.404 101.008
1.865 63.404 102.578
1.865 63.404 103.657
1.865 63.404 105.227
1.865 63.404 106.306
1.865 63.404 107.876
1.865 63.404 108.955
1.865 63.404 110.525
1.865 63.404 111.604
1.865 63.404 113.174
1.865 63.404 114.253
1.865 63.404 115.823
1.865 63.404 116.902
1.865 63.404 118.472
1.865 63.404 119.551
1.865 63.404 121.121
1.865 63.404 122.200
1.966 64.093 0.000
1.966 64.093 7.800
2.005 62.933 10.200
2.005 62.933 16.900
2.147 63.488 0.000
2.147 63.488 19.900
2.147 63.488 21.538
2.147 63.488 23.108
2.147 63.488 24.187
2.147 63.488 25.757
2.147 63.488 26.836
2.147 63.488 28.406
2.147 63.488 29.485
2.147 63.488 31.055
2.147 63.488 32.134
2.147 63.488 33.704
2.147 63.488 34.783
2.147 63.488 36.353
2.147 63.488 37.432
2.147 63.488 39.002
2.147 63.488 40.081
2.147 63.488 41.651
2.147 63.488 42.730
2.147 63.488 44.300
2.147 63.488 45.379
2.147 63.488 46.949
2.147 63.488 48.028
2.147 63.488 49.598
2.147 63.488 50.677
2.147 63.488 52.247
2.147 63.488 53.326
2.147 63.488 54.896
2.147 63.488 55.975
2.147 63.488 57.545
2.147 63.488 58.624
2.147 63.488 60.194
2.147 63.488 61.273
2.147 63.488 62.843
2.147 63.488 63.922
2.147 63.488 65.492
2.147 63.488 66.571
2.147 63.488 68.141
2.147 63.488 69.220
2.147 63.488 70.790
2.147 63.488 71.869
2.147 63.488 73.439
2.147 63.488 74.518
2.147 63.488 76.088
2.147 63.488 77.167
2.147 63.488 78.737
2.147 63.488 79.816
2.147 63.488 81.386
2.147 63.488 82.465
2.147 63.488 84.035
2.147 63.488 85.114
2.147 63.488 86.684
2.147 63.488 87.763
2.147 63.488 89.333
2.147 63.488 90.412
2.147 63.488 91.982
2.147 63.488 93.061
2.147 63.488 94.631
2.147 63.488 95.710
2.147 63.488 97.280
2.147 63.488 98.359
2.147 63.488 99.929
2.147 63.488 101.008
2.147 63.488 102.578
2.147 63.488 103.657
2.147 63.488 105.227
2.147 63.488 106.306
2.147 63.488 107.876
2.147 63.488 108.955
2.147 63.488 110.525
2.147 63.488 111.604
2.147 63.488 113.174
2.147 63.488 114.253
2.147 63.488 115.823
2.147 63.488 116.902
2.147 63.488 118.472
2.147 63.488 119.551
2.147 63.488 121.121
2.147 63.488 122.200
2.147 63.488 123.600
2.147 63.488 125.500
2.175 63.392 0.000
2.175 63.392 7.800
2.175 63.392 19.900
2.175 63.392 125.500
2.287 63.017 10.200
2.287 63.017 16.900
3.722 35.496 0.000
3.722 35.496 6.400
3.894 34.921 0.000
3.894 34.921 6.400
4.445 64.831 0.000
4.445 64.831 7.800
4.591 64.339 0.000
4.591 64.339 7.800
4.948 49.100 0.000
4.948 49.100 7.800
4.951 48.738 0.000
4.951 48.738 125.500
4.952 48.737 123.600
4.952 48.737 125.500
5.018 48.862 0.000
5.018 48.862 7.800
5.018 48.862 19.900
5.018 48.862 125.500
5.441 36.010 0.000
5.441 36.010 6.400
5.613 35.435 0.000
5.613 35.435 6.400
5.635 46.443 125.500
5.635 46.443 134.000
5.639 46.433 125.500
6.131 49.088 15.170
6.131 49.088 16.250
6.131 49.088 17.819
6.131 49.088 18.898
6.131 49.088 20.468
6.131 49.088 21.547
6.131 49.088 23.108
6.131 49.088 24.187
6.131 49.088 25.757
6.131 49.088 26.836
6.131 49.088 28.406
6.131 49.088 29.485
6.131 49.088 31.055
6.131 49.088 32.134
6.131 49.088 33.704
6.131 49.088 34.783
6.131 49.088 36.353
6.131 49.088 37.432
6.131 49.088 39.002
6.131 49.088 40.081
6.131 49.088 41.651
6.131 49.088 42.730
6.131 49.088 44.300
6.131 49.088 45.379
6.131 49.088 46.949
6.131 49.088 48.028
6.131 49.088 49.598
6.131 49.088 50.677
6.131 49.088 52.247
6.131 49.088 53.326
6.131 49.088 54.896
6.131 49.088 55.975
6.131 49.088 57.545
6.131 49.088 58.624
6.131 49.088 60.194
6.131 49.088 61.273
6.131 49.088 62.843
6.131 49.088 63.922
6.131 49.088 65.492
6.131 49.088 66.571
6.131 49.088 68.141
6.131 49.088 69.220
6.131 49.088 70.790
6.131 49.088 71.869
6.131 49.088 73.439
6.131 49.088 74.518
6.131 49.088 76.088
6.131 49.088 77.167
6.131 49.088 78.737
6.131 49.088 79.816
6.131 49.088 81.386
6.131 49.088 82.465
6.131 49.088 84.035
6.131 49.088 85.114
6.131 49.088 86.684
6.131 49.088 87.763
6.131 49.088 89.333
6.131 49.088 90.412
6.131 49.088 91.982
6.131 49.088 93.061
6.131 49.088 94.631
6.131 49.088 95.710
6.131 49.088 97.280
6.131 49.088 98.359
6.131 49.088 99.929
6.131 49.088 101.008
6.131 49.088 102.578
6.131 49.088 103.657
6.131 49.088 105.227
6.131 49.088 106.306
6.131 49.088 107.876
6.131 49.088 108.955
6.131 49.088 110.525
6.131 49.088 111.604
6.131 49.088 113.174
6.131 49.088 114.253
6.131 49.088 115.823
6.131 49.088 116.902
6.131 49.088 118.472
6.131 49.088 119.551
6.131 49.088 121.121
6.131 49.088 122.200
6.300 26.874 0.000
6.300 26.874 6.400
6.383 49.269 0.000
6.383 49.269 7.800
6.383 49.269 19.900
6.383 49.269 125.500
6.411 49.173 0.000
6.411 49.173 125.500
6.413 49.172 15.170
6.413 49.172 16.250
6.413 49.172 17.819
6.413 49.172 18.898
6.413 49.172 20.468
6.413 49.172 21.547
6.413 49.172 23.108
6.413 49.172 24.187
6.413 49.172 25.757
6.413 49.172 26.836
6.413 49.172 28.406
6.413 49.172 29.485
6.413 49.172 31.055
6.413 49.172 32.134
6.413 49.172 33.704
6.413 49.172 34.783
6.413 49.172 36.353
6.413 49.172 37.432
6.413 49.172 39.002
6.413 49.172 40.081
6.413 49.172 41.651
6.413 49.172 42.730
6.413 49.172 44.300
6.413 49.172 45.379
6.413 49.172 46.949
6.413 49.172 48.028
6.413 49.172 49.598
6.413 49.172 50.677
6.413 49.172 52.247
6.413 49.172 53.326
6.413 49.172 54.896
6.413 49.172 55.975
6.413 49.172 57.545
6.413 49.172 58.624
6.413 49.172 60.194
6.413 49.172 61.273
6.413 49.172 62.843
6.413 49.172 63.922
6.413 49.172 65.492
6.413 49.172 66.571
6.413 49.172 68.141
6.413 49.172 69.220
6.413 49.172 70.790
6.413 49.172 71.869
6.413 49.172 73.439
6.413 49.172 74.518
6.413 49.172 76.088
6.413 49.172 77.167
6.413 49.172 78.737
6.413 49.172 79.816
6.413 49.172 81.386
6.413 49.172 82.465
6.413 49.172 84.035
6.413 49.172 85.114
6.413 49.172 86.684
6.413 49.172 87.763
6.413 49.172 89.333
6.413 49.172 90.412
6.413 49.172 91.982
6.413 49.172 93.061
6.413 49.172 94.631
6.413 49.172 95.710
6.413 49.172 97.280
6.413 49.172 98.359
6.413 49.172 99.929
6.413 49.172 101.008
6.413 49.172 102.578
6.413 49.172 103.657
6.413 49.172 105.227
6.413 49.172 106.306
6.413 49.172 107.876
6.413 49.172 108.955
6.413 49.172 110.525
6.413 49.172 111.604
6.413 49.172 113.174
6.413 49.172 114.253
6.413 49.172 115.823
6.413 49.172 116.902
6.413 49.172 118.472
6.413 49.172 119.551
6.413 49.172 121.121
6.413 49.172 122.200
6.413 49.172 123.600
6.413 49.172 125.500
6.472 26.299 0.000
6.472 26.299 6.400
6.737 47.054 15.170
6.737 47.054 16.250
6.737 47.054 17.819
6.737 47.054 18.898
6.737 47.054 20.468
6.737 47.054 21.547
6.737 47.054 23.108
6.737 47.054 24.187
6.737 47.054 25.757
6.737 47.054 26.836
6.737 47.054 28.406
6.737 47.054 29.485
6.737 47.054 31.055
6.737 47.054 32.134
6.737 47.054 33.704
6.737 47.054 34.783
6.737 47.054 36.353
6.737 47.054 37.432
6.737 47.054 39.002
6.737 47.054 40.081
6.737 47.054 41.651
6.737 47.054 42.730
6.737 47.054 44.300
6.737 47.054 45.379
6.737 47.054 46.949
6.737 47.054 48.028
6.737 47.054 49.598
6.737 47.054 50.677
6.737 47.054 52.247
6.737 47.054 53.326
6.737 47.054 54.896
6.737 47.054 55.975
6.737 47.054 57.545
6.737 47.054 58.624
6.737 47.054 60.194
6.737 47.054 61.273
6.737 47.054 62.843
6.737 47.054 63.922
6.737 47.054 65.492
6.737 47.054 66.571
6.737 47.054 68.141
6.737 47.054 69.220
6.737 47.054 70.790
6.737 47.054 71.869
6.737 47.054 73.439
6.737 47.054 74.518
6.737 47.054 76.088
6.737 47.054 77.167
6.737 47.054 78.737
6.737 47.054 79.816
6.737 47.054 81.386
6.737 47.054 82.465
6.737 47.054 84.035
6.737 47.054 85.114
6.737 47.054 86.684
6.737 47.054 87.763
6.737 47.054 89.333
6.737 47.054 90.412
6.737 47.054 91.982
6.737 47.054 93.061
6.737 47.054 94.631
6.737 47.054 95.710
6.737 47.054 97.280
6.737 47.054 98.359
6.737 47.054 99.929
6.737 47.054 101.008
6.737 47.054 102.578
6.737 47.054 103.657
6.737 47.054 105.227
6.737 47.054 106.306
6.737 47.054 107.876
6.737 47.054 108.955
6.737 47.054 110.525
6.737 47.054 111.604
6.737 47.054 113.174
6.737 47.054 114.253
6.737 47.054 115.823
6.737 47.054 116.902
6.737 47.054 118.472
6.737 47.054 119.551
6.737 47.054 121.121
6.737 47.054 122.200
6.790 47.900 7.800
6.790 47.900 19.900
6.933 47.421 19.900
6.933 47.421 125.500
6.935 47.420 15.170
6.935 47.420 16.250
6.935 47.420 17.819
6.935 47.420 18.898
6.935 47.420 20.468
6.935 47.420 21.547
6.935 47.420 23.108
6.935 47.420 24.187
6.935 47.420 25.757
6.935 47.420 26.836
6.935 47.420 28.406
6.935 47.420 29.485
6.935 47.420 31.055
6.935 47.420 32.134
6.935 47.420 33.704
6.935 47.420 34.783
6.935 47.420 36.353
6.935 47.420 37.432
6.935 47.420 39.002
6.935 47.420 40.081
6.935 47.420 41.651
6.935 47.420 42.730
6.935 47.420 44.300
6.935 47.420 45.379
6.935 47.420 46.949
6.935 47.420 48.028
6.935 47.420 49.598
6.935 47.420 50.677
6.935 47.420 52.247
6.935 47.420 53.326
6.935 47.420 54.896
6.935 47.420 55.975
6.935 47.420 57.545
6.935 47.420 58.624
6.935 47.420 60.194
6.935 47.420 61.273
6.935 47.420 62.843
6.935 47.420 63.922
6.935 47.420 65.492
6.935 47.420 66.571
6.935 47.420 68.141
6.935 47.420 69.220
6.935 47.420 70.790
6.935 47.420 71.869
6.935 47.420 73.439
6.935 47.420 74.518
6.935 47.420 76.088
6.935 47.420 77.167
6.935 47.420 78.737
6.935 47.420 79.816
6.935 47.420 81.386
6.935 47.420 82.465
6.935 47.420 84.035
6.935 47.420 85.114
6.935 47.420 86.684
6.935 47.420 87.763
6.935 47.420 89.333
6.935 47.420 90.412
6.935 47.420 91.982
6.935 47.420 93.061
6.935 47.420 94.631
6.935 47.420 95.710
6.935 47.420 97.280
6.935 47.420 98.359
6.935 47.420 99.929
6.935 47.420 101.008
6.935 47.420 102.578
6.935 47.420 103.657
6.935 47.420 105.227
6.935 47.420 106.306
6.935 47.420 107.876
6.935 47.420 108.955
6.935 47.420 110.525
6.935 47.420 111.604
6.935 47.420 113.174
6.935 47.420 114.253
6.935 47.420 115.823
6.935 47.420 116.902
6.935 47.420 118.472
6.935 47.420 119.551
6.935 47.420 121.121
6.935 47.420 122.200
7.099 46.868 125.500
8.019 27.388 0.000
8.019 27.388 6.400
8.162 65.404 0.000
8.162 65.404 7.800
8.191 26.813 0.000
8.191 26.813 6.400
8.644 50.735 0.000
8.644 50.735 7.800
8.790 50.245 0.000
8.790 50.245 7.800
8.877 18.251 0.000
8.877 18.251 6.400
8.908 68.012 0.000
8.908 68.012 125.500
9.049 17.676 0.000
9.049 17.676 6.400
9.299 66.704 0.000
9.299 66.704 125.500
9.433 47.598 6.400
9.433 47.598 18.900
9.784 68.274 0.000
9.784 68.274 125.500
9.833 46.398 6.400
9.833 46.398 18.900
10.174 66.965 0.000
10.174 66.965 125.500
10.597 18.765 0.000
10.597 18.765 6.400
10.769 18.190 0.000
10.769 18.190 6.400
11.455 9.629 0.000
11.455 9.629 6.400
11.627 9.054 0.000
11.627 9.054 6.400
12.215 51.800 0.000
12.215 51.800 7.800
12.844 4.982 0.000
12.844 4.982 6.400
13.175 10.143 0.000
13.175 10.143 6.400
13.347 9.568 0.000
13.347 9.568 6.400
14.159 50.395 0.000
14.159 50.395 125.500
14.283 49.021 6.400
14.283 49.021 14.300
14.283 49.021 18.900
14.333 0.000 0.000
14.333 0.000 6.400
14.333 0.000 18.900
14.548 49.086 0.000
14.548 49.086 125.500
15.034 50.655 0.000
15.034 50.655 125.500
15.424 49.347 0.000
15.424 49.347 125.500
16.795 70.362 0.000
16.795 70.362 125.500
17.186 69.053 0.000
17.186 69.053 125.500
17.671 70.623 0.000
17.671 70.623 125.500
18.061 69.315 0.000
18.061 69.315 125.500
21.179 7.473 0.000
21.179 7.473 6.400
22.046 52.744 0.000
22.046 52.744 125.500
22.435 51.435 0.000
22.435 51.435 125.500
22.669 2.492 0.000
22.669 2.492 6.400
22.921 53.005 0.000
22.921 53.005 125.500
23.311 51.696 0.000
23.311 51.696 125.500
24.682 72.711 0.000
24.682 72.711 125.500
25.073 71.403 0.000
25.073 71.403 125.500
25.407 70.852 3.000
25.407 70.852 4.080
25.407 70.852 5.900
25.407 70.852 7.800
25.558 72.972 0.000
25.558 72.972 125.500
25.772 70.655 0.000
25.772 70.655 3.000
25.772 70.655 4.080
25.772 70.655 5.900
25.772 70.655 7.800
25.948 71.664 0.000
25.948 71.664 125.500
25.978 68.937 3.000
25.978 68.937 4.080
25.978 68.937 5.900
25.978 68.937 7.800
26.259 69.021 3.000
26.259 69.021 4.080
26.259 69.021 5.900
26.259 69.021 7.800
27.595 5.839 0.000
27.595 5.839 6.400
27.746 4.008 6.400
27.746 4.008 14.300
27.746 4.008 18.900
28.110 4.117 0.000
28.110 4.117 6.400
28.170 6.011 0.000
28.170 6.011 6.400
28.685 4.289 0.000
28.685 4.289 6.400
29.932 55.094 0.000
29.932 55.094 125.500
30.322 53.786 0.000
30.322 53.786 125.500
30.808 55.355 0.000
30.808 55.355 125.500
31.198 54.046 0.000
31.198 54.046 125.500
31.796 50.434 0.000
31.796 50.434 7.800
32.569 75.061 0.000
32.569 75.061 125.500
32.960 73.752 0.000
32.960 73.752 125.500
33.445 75.322 0.000
33.445 75.322 125.500
33.835 74.013 0.000
33.835 74.013 125.500
35.479 8.199 0.000
35.479 8.199 6.400
35.994 6.476 0.000
35.994 6.476 6.400
36.054 8.371 0.000
36.054 8.371 6.400
36.569 6.648 0.000
36.569 6.648 6.400
37.819 57.444 0.000
37.819 57.444 125.500
38.209 56.135 0.000
38.209 56.135 125.500
38.695 57.705 0.000
38.695 57.705 125.500
39.085 56.396 0.000
39.085 56.396 125.500
40.456 77.410 0.000
40.456 77.410 125.500
40.847 76.102 0.000
40.847 76.102 125.500
41.116 76.799 10.200
41.116 76.799 10.700
41.116 76.799 16.900
41.197 76.526 10.200
41.197 76.526 10.700
41.197 76.526 16.900
41.332 77.672 0.000
41.332 77.672 125.500
41.722 76.363 0.000
41.722 76.363 125.500
43.075 10.471 0.000
43.075 10.471 6.400
43.591 8.749 0.000
43.591 8.749 6.400
43.651 10.643 0.000
43.651 10.643 6.400
44.166 8.921 0.000
44.166 8.921 6.400
45.706 59.794 0.000
45.706 59.794 125.500
46.096 58.485 0.000
46.096 58.485 125.500
46.582 60.055 0.000
46.582 60.055 125.500
46.972 58.746 0.000
46.972 58.746 125.500
47.819 55.211 0.000
47.819 55.211 7.800
48.344 79.760 0.000
48.344 79.760 125.500
48.734 78.451 0.000
48.734 78.451 125.500
49.220 80.021 0.000
49.220 80.021 125.500
49.610 78.712 0.000
49.610 78.712 125.500
51.247 12.916 0.000
51.247 12.916 6.400
51.762 11.194 0.000
51.762 11.194 6.400
51.822 13.088 0.000
51.822 13.088 6.400
52.337 11.366 0.000
52.337 11.366 6.400
53.593 62.144 0.000
53.593 62.144 125.500
53.983 60.836 0.000
53.983 60.836 125.500
54.469 62.405 0.000
54.469 62.405 125.500
54.859 61.096 0.000
54.859 61.096 125.500
56.230 82.109 0.000
56.230 82.109 125.500
56.621 80.800 0.000
56.621 80.800 125.500
57.106 82.370 0.000
57.106 82.370 125.500
57.229 115.967 6.750
57.229 115.967 7.800
57.229 115.967 8.850
57.325 115.995 7.800
57.325 115.995 8.850
57.496 81.061 0.000
57.496 81.061 125.500
59.083 17.398 0.000
59.083 17.398 7.800
59.134 15.265 0.000
59.134 15.265 6.400
59.649 13.543 0.000
59.649 13.543 6.400
59.709 15.437 0.000
59.709 15.437 6.400
60.063 116.803 7.800
60.063 116.803 8.850
60.159 116.831 6.750
60.159 116.831 7.800
60.159 116.831 8.850
60.224 13.715 0.000
60.224 13.715 6.400
61.480 64.494 0.000
61.480 64.494 125.500
61.869 63.185 0.000
61.869 63.185 125.500
62.356 64.755 0.000
62.356 64.755 125.500
62.746 63.446 0.000
62.746 63.446 125.500
64.118 84.458 0.000
64.118 84.458 125.500
64.508 83.149 0.000
64.508 83.149 125.500
64.993 84.719 0.000
64.993 84.719 125.500
65.383 83.410 0.000
65.383 83.410 125.500
66.896 83.222 6.750
66.896 83.222 7.800
66.896 83.222 8.850
66.922 19.735 0.000
66.922 19.735 7.800
66.994 83.243 7.800
66.994 83.243 8.850
67.021 17.615 0.000
67.021 17.615 6.400
67.293 18.490 0.000
67.293 18.490 7.800
67.536 15.892 0.000
67.536 15.892 6.400
67.596 17.787 0.000
67.596 17.787 6.400
68.111 16.064 0.000
68.111 16.064 6.400
69.366 66.845 0.000
69.366 66.845 125.500
69.730 84.058 7.800
69.730 84.058 8.850
69.756 65.536 0.000
69.756 65.536 125.500
69.826 84.086 6.750
69.826 84.086 7.800
69.826 84.086 8.850
70.242 67.105 0.000
70.242 67.105 125.500
70.632 65.797 0.000
70.632 65.797 125.500
72.438 86.954 125.500
72.607 86.385 19.900
72.607 86.385 125.500
72.607 86.386 19.900
72.607 86.386 21.538
72.607 86.386 23.108
72.607 86.386 24.187
72.607 86.386 25.757
72.607 86.386 26.836
72.607 86.386 28.406
72.607 86.386 29.485
72.607 86.386 31.055
72.607 86.386 32.134
72.607 86.386 33.704
72.607 86.386 34.783
72.607 86.386 36.353
72.607 86.386 37.432
72.607 86.386 39.002
72.607 86.386 40.081
72.607 86.386 41.651
72.607 86.386 42.730
72.607 86.386 44.300
72.607 86.386 45.379
72.607 86.386 46.949
72.607 86.386 48.028
72.607 86.386 49.598
72.607 86.386 50.677
72.607 86.386 52.247
72.607 86.386 53.326
72.607 86.386 54.896
72.607 86.386 55.975
72.607 86.386 57.545
72.607 86.386 58.624
72.607 86.386 60.194
72.607 86.386 61.273
72.607 86.386 62.843
72.607 86.386 63.922
72.607 86.386 65.492
72.607 86.386 66.571
72.607 86.386 68.141
72.607 86.386 69.220
72.607 86.386 70.790
72.607 86.386 71.869
72.607 86.386 73.439
72.607 86.386 74.518
72.607 86.386 76.088
72.607 86.386 77.167
72.607 86.386 78.737
72.607 86.386 79.816
72.607 86.386 81.386
72.607 86.386 82.465
72.607 86.386 84.035
72.607 86.386 85.114
72.607 86.386 86.684
72.607 86.386 87.763
72.607 86.386 89.333
72.607 86.386 90.412
72.607 86.386 91.982
72.607 86.386 93.061
72.607 86.386 94.631
72.607 86.386 95.710
72.607 86.386 97.280
72.607 86.386 98.359
72.607 86.386 99.929
72.607 86.386 101.008
72.607 86.386 102.578
72.607 86.386 103.657
72.607 86.386 105.227
72.607 86.386 106.306
72.607 86.386 107.876
72.607 86.386 108.955
72.607 86.386 110.525
72.607 86.386 111.604
72.607 86.386 113.174
72.607 86.386 114.253
72.607 86.386 115.823
72.607 86.386 116.902
72.607 86.386 118.472
72.607 86.386 119.551
72.607 86.386 121.121
72.607 86.386 122.200
72.742 85.931 7.800
72.742 85.931 10.700
72.742 85.931 16.900
72.742 85.931 19.900
72.805 86.751 19.900
72.805 86.751 21.538
72.805 86.751 23.108
72.805 86.751 24.187
72.805 86.751 25.757
72.805 86.751 26.836
72.805 86.751 28.406
72.805 86.751 29.485
72.805 86.751 31.055
72.805 86.751 32.134
72.805 86.751 33.704
72.805 86.751 34.783
72.805 86.751 36.353
72.805 86.751 37.432
72.805 86.751 39.002
72.805 86.751 40.081
72.805 86.751 41.651
72.805 86.751 42.730
72.805 86.751 44.300
72.805 86.751 45.379
72.805 86.751 46.949
72.805 86.751 48.028
72.805 86.751 49.598
72.805 86.751 50.677
72.805 86.751 52.247
72.805 86.751 53.326
72.805 86.751 54.896
72.805 86.751 55.975
72.805 86.751 57.545
72.805 86.751 58.624
72.805 86.751 60.194
72.805 86.751 61.273
72.805 86.751 62.843
72.805 86.751 63.922
72.805 86.751 65.492
72.805 86.751 66.571
72.805 86.751 68.141
72.805 86.751 69.220
72.805 86.751 70.790
72.805 86.751 71.869
72.805 86.751 73.439
72.805 86.751 74.518
72.805 86.751 76.088
72.805 86.751 77.167
72.805 86.751 78.737
72.805 86.751 79.816
72.805 86.751 81.386
72.805 86.751 82.465
72.805 86.751 84.035
72.805 86.751 85.114
72.805 86.751 86.684
72.805 86.751 87.763
72.805 86.751 89.333
72.805 86.751 90.412
72.805 86.751 91.982
72.805 86.751 93.061
72.805 86.751 94.631
72.805 86.751 95.710
72.805 86.751 97.280
72.805 86.751 98.359
72.805 86.751 99.929
72.805 86.751 101.008
72.805 86.751 102.578
72.805 86.751 103.657
72.805 86.751 105.227
72.805 86.751 106.306
72.805 86.751 107.876
72.805 86.751 108.955
72.805 86.751 110.525
72.805 86.751 111.604
72.805 86.751 113.174
72.805 86.751 114.253
72.805 86.751 115.823
72.805 86.751 116.902
72.805 86.751 118.472
72.805 86.751 119.551
72.805 86.751 121.121
72.805 86.751 122.200
72.945 86.281 10.700
72.945 86.281 16.900
73.091 84.763 0.000
73.091 84.763 7.800
73.094 84.752 3.000
73.094 84.752 4.080
73.094 84.752 5.900
73.094 84.752 7.800
73.124 84.650 123.600
73.124 84.650 125.500
73.129 84.634 19.900
73.129 84.634 21.538
73.129 84.634 23.108
73.129 84.634 24.187
73.129 84.634 25.757
73.129 84.634 26.836
73.129 84.634 28.406
73.129 84.634 29.485
73.129 84.634 31.055
73.129 84.634 32.134
73.129 84.634 33.704
73.129 84.634 34.783
73.129 84.634 36.353
73.129 84.634 37.432
73.129 84.634 39.002
73.129 84.634 40.081
73.129 84.634 41.651
73.129 84.634 42.730
73.129 84.634 44.300
73.129 84.634 45.379
73.129 84.634 46.949
73.129 84.634 48.028
73.129 84.634 49.598
73.129 84.634 50.677
73.129 84.634 52.247
73.129 84.634 53.326
73.129 84.634 54.896
73.129 84.634 55.975
73.129 84.634 57.545
73.129 84.634 58.624
73.129 84.634 60.194
73.129 84.634 61.273
73.129 84.634 62.843
73.129 84.634 63.922
73.129 84.634 65.492
73.129 84.634 66.571
73.129 84.634 68.141
73.129 84.634 69.220
73.129 84.634 70.790
73.129 84.634 71.869
73.129 84.634 73.439
73.129 84.634 74.518
73.129 84.634 76.088
73.129 84.634 77.167
73.129 84.634 78.737
73.129 84.634 79.816
73.129 84.634 81.386
73.129 84.634 82.465
73.129 84.634 84.035
73.129 84.634 85.114
73.129 84.634 86.684
73.129 84.634 87.763
73.129 84.634 89.333
73.129 84.634 90.412
73.129 84.634 91.982
73.129 84.634 93.061
73.129 84.634 94.631
73.129 84.634 95.710
73.129 84.634 97.280
73.129 84.634 98.359
73.129 84.634 99.929
73.129 84.634 101.008
73.129 84.634 102.578
73.129 84.634 103.657
73.129 84.634 105.227
73.129 84.634 106.306
73.129 84.634 107.876
73.129 84.634 108.955
73.129 84.634 110.525
73.129 84.634 111.604
73.129 84.634 113.174
73.129 84.634 114.253
73.129 84.634 115.823
73.129 84.634 116.902
73.129 84.634 118.472
73.129 84.634 119.551
73.129 84.634 121.121
73.129 84.634 122.200
73.130 84.631 0.000
73.130 84.631 7.800
73.130 84.631 125.500
73.159 84.535 0.000
73.159 84.535 7.800
73.159 84.535 19.900
73.159 84.535 125.500
73.269 84.163 10.700
73.269 84.163 16.900
73.291 85.119 3.000
73.291 85.119 4.080
73.291 85.119 5.900
73.291 85.119 7.800
73.411 84.718 19.900
73.411 84.718 21.538
73.411 84.718 23.108
73.411 84.718 24.187
73.411 84.718 25.757
73.411 84.718 26.836
73.411 84.718 28.406
73.411 84.718 29.485
73.411 84.718 31.055
73.411 84.718 32.134
73.411 84.718 33.704
73.411 84.718 34.783
73.411 84.718 36.353
73.411 84.718 37.432
73.411 84.718 39.002
73.411 84.718 40.081
73.411 84.718 41.651
73.411 84.718 42.730
73.411 84.718 44.300
73.411 84.718 45.379
73.411 84.718 46.949
73.411 84.718 48.028
73.411 84.718 49.598
73.411 84.718 50.677
73.411 84.718 52.247
73.411 84.718 53.326
73.411 84.718 54.896
73.411 84.718 55.975
73.411 84.718 57.545
73.411 84.718 58.624
73.411 84.718 60.194
73.411 84.718 61.273
73.411 84.718 62.843
73.411 84.718 63.922
73.411 84.718 65.492
73.411 84.718 66.571
73.411 84.718 68.141
73.411 84.718 69.220
73.411 84.718 70.790
73.411 84.718 71.869
73.411 84.718 73.439
73.411 84.718 74.518
73.411 84.718 76.088
73.411 84.718 77.167
73.411 84.718 78.737
73.411 84.718 79.816
73.411 84.718 81.386
73.411 84.718 82.465
73.411 84.718 84.035
73.411 84.718 85.114
73.411 84.718 86.684
73.411 84.718 87.763
73.411 84.718 89.333
73.411 84.718 90.412
73.411 84.718 91.982
73.411 84.718 93.061
73.411 84.718 94.631
73.411 84.718 95.710
73.411 84.718 97.280
73.411 84.718 98.359
73.411 84.718 99.929
73.411 84.718 101.008
73.411 84.718 102.578
73.411 84.718 103.657
73.411 84.718 105.227
73.411 84.718 106.306
73.411 84.718 107.876
73.411 84.718 108.955
73.411 84.718 110.525
73.411 84.718 111.604
73.411 84.718 113.174
73.411 84.718 114.253
73.411 84.718 115.823
73.411 84.718 116.902
73.411 84.718 118.472
73.411 84.718 119.551
73.411 84.718 121.121
73.411 84.718 122.200
73.551 84.247 10.700
73.551 84.247 16.900
73.616 83.000 3.000
73.616 83.000 4.080
73.616 83.000 5.900
73.616 83.000 7.800
73.898 83.084 3.000
73.898 83.084 4.080
73.898 83.084 5.900
73.898 83.084 7.800
73.898 87.389 125.500
73.898 87.389 134.000
74.523 84.942 0.000
74.523 84.942 7.800
74.523 84.942 19.900
74.523 84.942 125.500
74.585 85.085 123.600
74.585 85.085 125.500
74.590 85.066 0.000
74.590 85.066 7.800
74.590 85.066 125.500
74.639 84.839 6.400
74.639 84.839 14.300
74.908 19.964 0.000
74.908 19.964 6.400
75.288 22.230 0.000
75.288 22.230 7.800
75.423 18.242 0.000
75.423 18.242 6.400
75.483 20.136 0.000
75.483 20.136 6.400
75.659 20.984 0.000
75.659 20.984 7.800
75.998 18.414 0.000
75.998 18.414 6.400
76.364 85.356 6.400
76.364 85.356 14.300
76.633 84.293 6.400
76.633 84.293 14.300
77.366 70.412 0.000
77.366 70.412 7.800
77.366 70.412 19.900
77.366 70.412 125.500
77.394 70.321 15.170
77.394 70.321 16.250
77.394 70.321 17.819
77.394 70.321 18.898
77.394 70.321 20.468
77.394 70.321 21.547
77.394 70.321 23.108
77.394 70.321 24.187
77.394 70.321 25.757
77.394 70.321 26.836
77.394 70.321 28.406
77.394 70.321 29.485
77.394 70.321 31.055
77.394 70.321 32.134
77.394 70.321 33.704
77.394 70.321 34.783
77.394 70.321 36.353
77.394 70.321 37.432
77.394 70.321 39.002
77.394 70.321 40.081
77.394 70.321 41.651
77.394 70.321 42.730
77.394 70.321 44.300
77.394 70.321 45.379
77.394 70.321 46.949
77.394 70.321 48.028
77.394 70.321 49.598
77.394 70.321 50.677
77.394 70.321 52.247
77.394 70.321 53.326
77.394 70.321 54.896
77.394 70.321 55.975
77.394 70.321 57.545
77.394 70.321 58.624
77.394 70.321 60.194
77.394 70.321 61.273
77.394 70.321 62.843
77.394 70.321 63.922
77.394 70.321 65.492
77.394 70.321 66.571
77.394 70.321 68.141
77.394 70.321 69.220
77.394 70.321 70.790
77.394 70.321 71.869
77.394 70.321 73.439
77.394 70.321 74.518
77.394 70.321 76.088
77.394 70.321 77.167
77.394 70.321 78.737
77.394 70.321 79.816
77.394 70.321 81.386
77.394 70.321 82.465
77.394 70.321 84.035
77.394 70.321 85.114
77.394 70.321 86.684
77.394 70.321 87.763
77.394 70.321 89.333
77.394 70.321 90.412
77.394 70.321 91.982
77.394 70.321 93.061
77.394 70.321 94.631
77.394 70.321 95.710
77.394 70.321 97.280
77.394 70.321 98.359
77.394 70.321 99.929
77.394 70.321 101.008
77.394 70.321 102.578
77.394 70.321 103.657
77.394 70.321 105.227
77.394 70.321 106.306
77.394 70.321 107.876
77.394 70.321 108.955
77.394 70.321 110.525
77.394 70.321 111.604
77.394 70.321 113.174
77.394 70.321 114.253
77.394 70.321 115.823
77.394 70.321 116.902
77.394 70.321 118.472
77.394 70.321 119.551
77.394 70.321 121.121
77.394 70.321 122.200
77.395 70.316 0.000
77.395 70.316 125.500
77.399 70.304 123.600
77.399 70.304 125.500
77.676 70.404 15.170
77.676 70.404 16.250
77.676 70.404 17.819
77.676 70.404 18.898
77.676 70.404 20.468
77.676 70.404 21.547
77.676 70.404 23.108
77.676 70.404 24.187
77.676 70.404 25.757
77.676 70.404 26.836
77.676 70.404 28.406
77.676 70.404 29.485
77.676 70.404 31.055
77.676 70.404 32.134
77.676 70.404 33.704
77.676 70.404 34.783
77.676 70.404 36.353
77.676 70.404 37.432
77.676 70.404 39.002
77.676 70.404 40.081
77.676 70.404 41.651
77.676 70.404 42.730
77.676 70.404 44.300
77.676 70.404 45.379
77.676 70.404 46.949
77.676 70.404 48.028
77.676 70.404 49.598
77.676 70.404 50.677
77.676 70.404 52.247
77.676 70.404 53.326
77.676 70.404 54.896
77.676 70.404 55.975
77.676 70.404 57.545
77.676 70.404 58.624
77.676 70.404 60.194
77.676 70.404 61.273
77.676 70.404 62.843
77.676 70.404 63.922
77.676 70.404 65.492
77.676 70.404 66.571
77.676 70.404 68.141
77.676 70.404 69.220
77.676 70.404 70.790
77.676 70.404 71.869
77.676 70.404 73.439
77.676 70.404 74.518
77.676 70.404 76.088
77.676 70.404 77.167
77.676 70.404 78.737
77.676 70.404 79.816
77.676 70.404 81.386
77.676 70.404 82.465
77.676 70.404 84.035
77.676 70.404 85.114
77.676 70.404 86.684
77.676 70.404 87.763
77.676 70.404 89.333
77.676 70.404 90.412
77.676 70.404 91.982
77.676 70.404 93.061
77.676 70.404 94.631
77.676 70.404 95.710
77.676 70.404 97.280
77.676 70.404 98.359
77.676 70.404 99.929
77.676 70.404 101.008
77.676 70.404 102.578
77.676 70.404 103.657
77.676 70.404 105.227
77.676 70.404 106.306
77.676 70.404 107.876
77.676 70.404 108.955
77.676 70.404 110.525
77.676 70.404 111.604
77.676 70.404 113.174
77.676 70.404 114.253
77.676 70.404 115.823
77.676 70.404 116.902
77.676 70.404 118.472
77.676 70.404 119.551
77.676 70.404 121.121
77.676 70.404 122.200
77.778 69.031 7.800
77.778 69.031 19.900
77.915 68.571 19.900
77.915 68.571 125.500
77.916 68.569 15.170
77.916 68.569 16.250
77.916 68.569 17.819
77.916 68.569 18.898
77.916 68.569 20.468
77.916 68.569 21.547
77.916 68.569 23.108
77.916 68.569 24.187
77.916 68.569 25.757
77.916 68.569 26.836
77.916 68.569 28.406
77.916 68.569 29.485
77.916 68.569 31.055
77.916 68.569 32.134
77.916 68.569 33.704
77.916 68.569 34.783
77.916 68.569 36.353
77.916 68.569 37.432
77.916 68.569 39.002
77.916 68.569 40.081
77.916 68.569 41.651
77.916 68.569 42.730
77.916 68.569 44.300
77.916 68.569 45.379
77.916 68.569 46.949
77.916 68.569 48.028
77.916 68.569 49.598
77.916 68.569 50.677
77.916 68.569 52.247
77.916 68.569 53.326
77.916 68.569 54.896
77.916 68.569 55.975
77.916 68.569 57.545
77.916 68.569 58.624
77.916 68.569 60.194
77.916 68.569 61.273
77.916 68.569 62.843
77.916 68.569 63.922
77.916 68.569 65.492
77.916 68.569 66.571
77.916 68.569 68.141
77.916 68.569 69.220
77.916 68.569 70.790
77.916 68.569 71.869
77.916 68.569 73.439
77.916 68.569 74.518
77.916 68.569 76.088
77.916 68.569 77.167
77.916 68.569 78.737
77.916 68.569 79.816
77.916 68.569 81.386
77.916 68.569 82.465
77.916 68.569 84.035
77.916 68.569 85.114
77.916 68.569 86.684
77.916 68.569 87.763
77.916 68.569 89.333
77.916 68.569 90.412
77.916 68.569 91.982
77.916 68.569 93.061
77.916 68.569 94.631
77.916 68.569 95.710
77.916 68.569 97.280
77.916 68.569 98.359
77.916 68.569 99.929
77.916 68.569 101.008
77.916 68.569 102.578
77.916 68.569 103.657
77.916 68.569 105.227
77.916 68.569 106.306
77.916 68.569 107.876
77.916 68.569 108.955
77.916 68.569 110.525
77.916 68.569 111.604
77.916 68.569 113.174
77.916 68.569 114.253
77.916 68.569 115.823
77.916 68.569 116.902
77.916 68.569 118.472
77.916 68.569 119.551
77.916 68.569 121.121
77.916 68.569 122.200
78.086 68.000 125.500
78.282 68.371 15.170
78.282 68.371 16.250
78.282 68.371 17.819
78.282 68.371 18.898
78.282 68.371 20.468
78.282 68.371 21.547
78.282 68.371 23.108
78.282 68.371 24.187
78.282 68.371 25.757
78.282 68.371 26.836
78.282 68.371 28.406
78.282 68.371 29.485
78.282 68.371 31.055
78.282 68.371 32.134
78.282 68.371 33.704
78.282 68.371 34.783
78.282 68.371 36.353
78.282 68.371 37.432
78.282 68.371 39.002
78.282 68.371 40.081
78.282 68.371 41.651
78.282 68.371 42.730
78.282 68.371 44.300
78.282 68.371 45.379
78.282 68.371 46.949
78.282 68.371 48.028
78.282 68.371 49.598
78.282 68.371 50.677
78.282 68.371 52.247
78.282 68.371 53.326
78.282 68.371 54.896
78.282 68.371 55.975
78.282 68.371 57.545
78.282 68.371 58.624
78.282 68.371 60.194
78.282 68.371 61.273
78.282 68.371 62.843
78.282 68.371 63.922
78.282 68.371 65.492
78.282 68.371 66.571
78.282 68.371 68.141
78.282 68.371 69.220
78.282 68.371 70.790
78.282 68.371 71.869
78.282 68.371 73.439
78.282 68.371 74.518
78.282 68.371 76.088
78.282 68.371 77.167
78.282 68.371 78.737
78.282 68.371 79.816
78.282 68.371 81.386
78.282 68.371 82.465
78.282 68.371 84.035
78.282 68.371 85.114
78.282 68.371 86.684
78.282 68.371 87.763
78.282 68.371 89.333
78.282 68.371 90.412
78.282 68.371 91.982
78.282 68.371 93.061
78.282 68.371 94.631
78.282 68.371 95.710
78.282 68.371 97.280
78.282 68.371 98.359
78.282 68.371 99.929
78.282 68.371 101.008
78.282 68.371 102.578
78.282 68.371 103.657
78.282 68.371 105.227
78.282 68.371 106.306
78.282 68.371 107.876
78.282 68.371 108.955
78.282 68.371 110.525
78.282 68.371 111.604
78.282 68.371 113.174
78.282 68.371 114.253
78.282 68.371 115.823
78.282 68.371 116.902
78.282 68.371 118.472
78.282 68.371 119.551
78.282 68.371 121.121
78.282 68.371 122.200
78.731 70.818 0.000
78.731 70.818 125.500
78.732 70.819 7.800
78.732 70.819 19.900
78.732 70.819 125.500
78.855 70.751 0.000
78.855 70.751 125.500
78.860 70.739 123.600
78.860 70.739 125.500
79.543 68.443 6.400
79.543 68.443 14.300
79.543 68.443 125.500
79.543 68.443 134.000
79.546 68.435 125.500
79.685 39.147 14.300
79.685 39.147 44.000
82.795 22.313 0.000
82.795 22.313 6.400
83.127 24.567 0.000
83.127 24.567 7.800
83.310 20.591 0.000
83.310 20.591 6.400
83.370 22.485 0.000
83.370 22.485 6.400
83.498 23.321 0.000
83.498 23.321 7.800
83.633 89.293 0.000
83.633 89.293 6.400
83.633 89.293 14.300
83.885 20.763 0.000
83.885 20.763 6.400
84.355 75.777 0.000
84.355 75.777 6.400
84.355 75.777 7.800
84.433 86.593 6.400
84.433 86.593 14.300
85.157 21.167 14.300
85.157 21.167 44.000
87.390 76.681 0.000
87.390 76.681 6.400
90.682 24.663 0.000
90.682 24.663 6.400
91.197 22.940 0.000
91.197 22.940 6.400
91.257 24.835 0.000
91.257 24.835 6.400
91.493 27.061 0.000
91.493 27.061 7.800
91.772 23.112 0.000
91.772 23.112 6.400
91.864 25.815 0.000
91.864 25.815 7.800
98.267 29.081 0.000
98.267 29.081 7.800
98.551 27.067 0.000
98.551 27.067 6.400
99.067 25.345 0.000
99.067 25.345 6.400
99.127 27.239 0.000
99.127 27.239 6.400
99.354 25.431 0.000
99.354 25.431 6.400
99.642 25.517 0.000
99.642 25.517 6.400
160.896 112.400 0.000
160.896 112.400 6.400
160.896 112.400 14.300
167.535 90.591 0.000
167.535 90.591 6.400
167.535 90.591 14.300
175.115 67.671 14.300
175.115 67.671 44.000
180.575 49.735 14.300
180.575 49.735 44.000
185.836 83.591 0.000
185.836 83.591 6.400
185.836 83.591 14.300
194.704 53.945 0.000
194.704 53.945 6.400
195.137 54.092 6.400
195.137 54.092 14.300
3 543 451 714
3 718 543 714
3 728 724 740
3 742 728 740
3 746 744 752
3 754 746 752
3 820 815 822
3 824 820 822
3 762 751 779
3 785 762 779
3 747 745 753
3 755 747 753
3 729 725 741
3 743 729 741
3 544 452 715
3 719 544 715
3 347 345 363
3 365 347 363
3 762 9 736
3 817 762 736
3 758 817 736
3 732 758 736
3 763 10 737
3 819 763 737
3 760 819 737
3 733 760 737
3 1748 1726 1782
3 1784 1748 1782
3 1749 1727 1783
3 1785 1749 1783
3 92 991 1246
3 340 92 1246
3 7 340 1246
3 360 7 1246
3 455 360 1246
3 629 455 1246
3 1373 1545 629
3 1346 1715 1373
3 1246 1346 1373
3 629 1246 1373
3 335 252 88
3 169 335 88
3 1070 169 88
3 1331 1240 1070
3 1152 1331 1070
3 88 1152 1070
3 335 252 88
3 169 335 88
3 1070 169 88
3 1331 1240 1070
3 1152 1331 1070
3 88 1152 1070
3 251 252 88
3 87 251 88
3 87 88 1152
3 1151 87 1152
3 1330 1151 1152
3 1330 1152 1331
3 1239 1330 1331
3 1239 1331 1240
3 1239 1240 1070
3 1069 1239 1070
3 168 1069 1070
3 168 1070 169
3 334 168 169
3 334 169 335
3 251 334 335
3 251 335 252
3 334 251 87
3 168 334 87
3 1069 168 87
3 1330 1239 1069
3 1151 1330 1069
3 87 1151 1069
3 333 250 86
3 167 333 86
3 1068 167 86
3 1329 1238 1068
3 1150 1329 1068
3 86 1150 1068
3 333 250 86
3 167 333 86
3 1068 167 86
3 1329 1238 1068
3 1150 1329 1068
3 86 1150 1068
3 249 250 86
3 85 249 86
3 85 86 1150
3 1149 85 1150
3 1328 1149 1150
3 1328 1150 1329
3 1237 1328 1329
3 1237 1329 1238
3 1237 1238 1068
3 1067 1237 1068
3 166 1067 1068
3 166 1068 167
3 332 166 167
3 332 167 333
3 249 332 333
3 249 333 250
3 332 249 85
3 166 332 85
3 1067 166 85
3 1328 1237 1067
3 1149 1328 1067
3 85 1149 1067
3 331 248 84
3 165 331 84
3 1066 165 84
3 1327 1236 1066
3 1148 1327 1066
3 84 1148 1066
3 331 248 84
3 165 331 84
3 1066 165 84
3 1327 1236 1066
3 1148 1327 1066
3 84 1148 1066
3 247 248 84
3 83 247 84
3 83 84 1148
3 1147 83 1148
3 1326 1147 1148
3 1326 1148 1327
3 1235 1326 1327
3 1235 1327 1236
3 1235 1236 1066
3 1065 1235 1066
3 164 1065 1066
3 164 1066 165
3 330 164 165
3 330 165 331
3 247 330 331
3 247 331 248
3 330 247 83
3 164 330 83
3 1065 164 83
3 1326 1235 1065
3 1147 1326 1065
3 83 1147 1065
3 329 246 82
3 163 329 82
3 1064 163 82
3 1325 1234 1064
3 1146 1325 1064
3 82 1146 1064
3 329 246 82
3 163 329 82
3 1064 163 82
3 1325 1234 1064
3 1146 1325 1064
3 82 1146 1064
3 245 246 82
3 81 245 82
3 81 82 1146
3 1145 81 1146
3 1324 1145 1146
3 1324 1146 1325
3 1233 1324 1325
3 1233 1325 1234
3 1233 1234 1064
3 1063 1233 1064
3 162 1063 1064
3 162 1064 163
3 328 162 163
3 328 163 329
3 245 328 329
3 245 329 246
3 328 245 81
3 162 328 81
3 1063 162 81
3 1324 1233 1063
3 1145 1324 1063
3 81 1145 1063
3 327 244 80
3 161 327 80
3 1062 161 80
3 1323 1232 1062
3 1144 1323 1062
3 80 1144 1062
3 327 244 80
3 161 327 80
3 1062 161 80
3 1323 1232 1062
3 1144 1323 1062
3 80 1144 1062
3 243 244 80
3 79 243 80
3 79 80 1144
3 1143 79 1144
3 1322 1143 1144
3 1322 1144 1323
3 1231 1322 1323
3 1231 1323 1232
3 1231 1232 1062
3 1061 1231 1062
3 160 1061 1062
3 160 1062 161
3 326 160 161
3 326 161 327
3 243 326 327
3 243 327 244
3 326 243 79
3 160 326 79
3 1061 160 79
3 1322 1231 1061
3 1143 1322 1061
3 79 1143 1061
3 325 242 78
3 159 325 78
3 1060 159 78
3 1321 1230 1060
3 1142 1321 1060
3 78 1142 1060
3 325 242 78
3 159 325 78
3 1060 159 78
3 1321 1230 1060
3 1142 1321 1060
3 78 1142 1060
3 241 242 78
3 77 241 78
3 77 78 1142
3 1141 77 1142
3 1320 1141 1142
3 1320 1142 1321
3 1229 1320 1321
3 1229 1321 1230
3 1229 1230 1060
3 1059 1229 1060
3 158 1059 1060
3 158 1060 159
3 324 158 159
3 324 159 325
3 241 324 325
3 241 325 242
3 324 241 77
3 158 324 77
3 1059 158 77
3 1320 1229 1059
3 1141 1320 1059
3 77 1141 1059
3 323 240 76
3 157 323 76
3 1058 157 76
3 1319 1228 1058
3 1140 1319 1058
3 76 1140 1058
3 323 240 76
3 157 323 76
3 1058 157 76
3 1319 1228 1058
3 1140 1319 1058
3 76 1140 1058
3 239 240 76
3 75 239 76
3 75 76 1140
3 1139 75 1140
3 1318 1139 1140
3 1318 1140 1319
3 1227 1318 1319
3 1227 1319 1228
3 1227 1228 1058
3 1057 1227 1058
3 156 1057 1058
3 156 1058 157
3 322 156 157
3 322 157 323
3 239 322 323
3 239 323 240
3 322 239 75
3 156 322 75
3 1057 156 75
3 1318 1227 1057
3 1139 1318 1057
3 75 1139 1057
3 321 238 74
3 155 321 74
3 1056 155 74
3 1317 1226 1056
3 1138 1317 1056
3 74 1138 1056
3 321 238 74
3 155 321 74
3 1056 155 74
3 1317 1226 1056
3 1138 1317 1056
3 74 1138 1056
3 237 238 74
3 73 237 74
3 73 74 1138
3 1137 73 1138
3 1316 1137 1138
3 1316 1138 1317
3 1225 1316 1317
3 1225 1317 1226
3 1225 1226 1056
3 1055 1225 1056
3 154 1055 1056
3 154 1056 155
3 320 154 155
3 320 155 321
3 237 320 321
3 237 321 238
3 320 237 73
3 154 320 73
3 1055 154 73
3 1316 1225 1055
3 1137 1316 1055
3 73 1137 1055
3 319 236 72
3 153 319 72
3 1054 153 72
3 1315 1224 1054
3 1136 1315 1054
3 72 1136 1054
3 319 236 72
3 153 319 72
3 1054 153 72
3 1315 1224 1054
3 1136 1315 1054
3 72 1136 1054
3 235 236 72
3 71 235 72
3 71 72 1136
3 1135 71 1136
3 1314 1135 1136
3 1314 1136 1315
3 1223 1314 1315
3 1223 1315 1224
3 1223 1224 1054
3 1053 1223 1054
3 152 1053 1054
3 152 1054 153
3 318 152 153
3 318 153 319
3 235 318 319
3 235 319 236
3 318 235 71
3 152 318 71
3 1053 152 71
3 1314 1223 1053
3 1135 1314 1053
3 71 1135 1053
3 317 234 70
3 151 317 70
3 1052 151 70
3 1313 1222 1052
3 1134 1313 1052
3 70 1134 1052
3 317 234 70
3 151 317 70
3 1052 151 70
3 1313 1222 1052
3 1134 1313 1052
3 70 1134 1052
3 233 234 70
3 69 233 70
3 69 70 1134
3 1133 69 1134
3 1312 1133 1134
3 1312 1134 1313
3 1221 1312 1313
3 1221 1313 1222
3 1221 1222 1052
3 1051 1221 1052
3 150 1051 1052
3 150 1052 151
3 316 150 151
3 316 151 317
3 233 316 317
3 233 317 234
3 316 233 69
3 150 316 69
3 1051 150 69
3 1312 1221 1051
3 1133 1312 1051
3 69 1133 1051
3 315 232 68
3 149 315 68
3 1050 149 68
3 1311 1220 1050
3 1132 1311 1050
3 68 1132 1050
3 315 232 68
3 149 315 68
3 1050 149 68
3 1311 1220 1050
3 1132 1311 1050
3 68 1132 1050
3 231 232 68
3 67 231 68
3 67 68 1132
3 1131 67 1132
3 1310 1131 1132
3 1310 1132 1311
3 1219 1310 1311
3 1219 1311 1220
3 1219 1220 1050
3 1049 1219 1050
3 148 1049 1050
3 148 1050 149
3 314 148 149
3 314 149 315
3 231 314 315
3 231 315 232
3 314 231 67
3 148 314 67
3 1049 148 67
3 1310 1219 1049
3 1131 1310 1049
3 67 1131 1049
3 313 230 66
3 147 313 66
3 1048 147 66
3 1309 1218 1048
3 1130 1309 1048
3 66 1130 1048
3 313 230 66
3 147 313 66
3 1048 147 66
3 1309 1218 1048
3 1130 1309 1048
3 66 1130 1048
3 229 230 66
3 65 229 66
3 65 66 1130
3 1129 65 1130
3 1308 1129 1130
3 1308 1130 1309
3 1217 1308 1309
3 1217 1309 1218
3 1217 1218 1048
3 1047 1217 1048
3 146 1047 1048
3 146 1048 147
3 312 146 147
3 312 147 313
3 229 312 313
3 229 313 230
3 312 229 65
3 146 312 65
3 1047 146 65
3 1308 1217 1047
3 1129 1308 1047
3 65 1129 1047
3 311 228 64
3 145 311 64
3 1046 145 64
3 1307 1216 1046
3 1128 1307 1046
3 64 1128 1046
3 311 228 64
3 145 311 64
3 1046 145 64
3 1307 1216 1046
3 1128 1307 1046
3 64 1128 1046
3 227 228 64
3 63 227 64
3 63 64 1128
3 1127 63 1128
3 1306 1127 1128
3 1306 1128 1307
3 1215 1306 1307
3 1215 1307 1216
3 1215 1216 1046
3 1045 1215 1046
3 144 1045 1046
3 144 1046 145
3 310 144 145
3 310 145 311
3 227 310 311
3 227 311 228
3 310 227 63
3 144 310 63
3 1045 144 63
3 1306 1215 1045
3 1127 1306 1045
3 63 1127 1045
3 309 226 62
3 143 309 62
3 1044 143 62
3 1305 1214 1044
3 1126 1305 1044
3 62 1126 1044
3 309 226 62
3 143 309 62
3 1044 143 62
3 1305 1214 1044
3 1126 1305 1044
3 62 1126 1044
3 225 226 62
3 61 225 62
3 61 62 1126
3 1125 61 1126
3 1304 1125 1126
3 1304 1126 1305
3 1213 1304 1305
3 1213 1305 1214
3 1213 1214 1044
3 1043 1213 1044
3 142 1043 1044
3 142 1044 143
3 308 142 143
3 308 143 309
3 225 308 309
3 225 309 226
3 308 225 61
3 142 308 61
3 1043 142 61
3 1304 1213 1043
3 1125 1304 1043
3 61 1125 1043
3 307 224 60
3 141 307 60
3 1042 141 60
3 1303 1212 1042
3 1124 1303 1042
3 60 1124 1042
3 307 224 60
3 141 307 60
3 1042 141 60
3 1303 1212 1042
3 1124 1303 1042
3 60 1124 1042
3 223 224 60
3 59 223 60
3 59 60 1124
3 1123 59 1124
3 1302 1123 1124
3 1302 1124 1303
3 1211 1302 1303
3 1211 1303 1212
3 1211 1212 1042
3 1041 1211 1042
3 140 1041 1042
3 140 1042 141
3 306 140 141
3 306 141 307
3 223 306 307
3 223 307 224
3 306 223 59
3 140 306 59
3 1041 140 59
3 1302 1211 1041
3 1123 1302 1041
3 59 1123 1041
3 305 222 58
3 139 305 58
3 1040 139 58
3 1301 1210 1040
3 1122 1301 1040
3 58 1122 1040
3 305 222 58
3 139 305 58
3 1040 139 58
3 1301 1210 1040
3 1122 1301 1040
3 58 1122 1040
3 221 222 58
3 57 221 58
3 57 58 1122
3 1121 57 1122
3 1300 1121 1122
3 1300 1122 1301
3 1209 1300 1301
3 1209 1301 1210
3 1209 1210 1040
3 1039 1209 1040
3 138 1039 1040
3 138 1040 139
3 304 138 139
3 304 139 305
3 221 304 305
3 221 305 222
3 304 221 57
3 138 304 57
3 1039 138 57
3 1300 1209 1039
3 1121 1300 1039
3 57 1121 1039
3 303 220 56
3 137 303 56
3 1038 137 56
3 1299 1208 1038
3 1120 1299 1038
3 56 1120 1038
3 303 220 56
3 137 303 56
3 1038 137 56
3 1299 1208 1038
3 1120 1299 1038
3 56 1120 1038
3 219 220 56
3 55 219 56
3 55 56 1120
3 1119 55 1120
3 1298 1119 1120
3 1298 1120 1299
3 1207 1298 1299
3 1207 1299 1208
3 1207 1208 1038
3 1037 1207 1038
3 136 1037 1038
3 136 1038 137
3 302 136 137
3 302 137 303
3 219 302 303
3 219 303 220
3 302 219 55
3 136 302 55
3 1037 136 55
3 1298 1207 1037
3 1119 1298 1037
3 55 1119 1037
3 301 218 54
3 135 301 54
3 1036 135 54
3 1297 1206 1036
3 1118 1297 1036
3 54 1118 1036
3 301 218 54
3 135 301 54
3 1036 135 54
3 1297 1206 1036
3 1118 1297 1036
3 54 1118 1036
3 217 218 54
3 53 217 54
3 53 54 1118
3 1117 53 1118
3 1296 1117 1118
3 1296 1118 1297
3 1205 1296 1297
3 1205 1297 1206
3 1205 1206 1036
3 1035 1205 1036
3 134 1035 1036
3 134 1036 135
3 300 134 135
3 300 135 301
3 217 300 301
3 217 301 218
3 300 217 53
3 134 300 53
3 1035 134 53
3 1296 1205 1035
3 1117 1296 1035
3 53 1117 1035
3 299 216 52
3 133 299 52
3 1034 133 52
3 1295 1204 1034
3 1116 1295 1034
3 52 1116 1034
3 299 216 52
3 133 299 52
3 1034 133 52
3 1295 1204 1034
3 1116 1295 1034
3 52 1116 1034
3 215 216 52
3 51 215 52
3 51 52 1116
3 1115 51 1116
3 1294 1115 1116
3 1294 1116 1295
3 1203 1294 1295
3 1203 1295 1204
3 1203 1204 1034
3 1033 1203 1034
3 132 1033 1034
3 132 1034 133
3 298 132 133
3 298 133 299
3 215 298 299
3 215 299 216
3 298 215 51
3 132 298 51
3 1033 132 51
3 1294 1203 1033
3 1115 1294 1033
3 51 1115 1033
3 297 214 50
3 131 297 50
3 1032 131 50
3 1293 1202 1032
3 1114 1293 1032
3 50 1114 1032
3 297 214 50
3 131 297 50
3 1032 131 50
3 1293 1202 1032
3 1114 1293 1032
3 50 1114 1032
3 213 214 50
3 49 213 50
3 49 50 1114
3 1113 49 1114
3 1292 1113 1114
3 1292 1114 1293
3 1201 1292 1293
3 1201 1293 1202
3 1201 1202 1032
3 1031 1201 1032
3 130 1031 1032
3 130 1032 131
3 296 130 131
3 296 131 297
3 213 296 297
3 213 297 214
3 296 213 49
3 130 296 49
3 1031 130 49
3 1292 1201 1031
3 1113 1292 1031
3 49 1113 1031
3 295 212 48
3 129 295 48
3 1030 129 48
3 1291 1200 1030
3 1112 1291 1030
3 48 1112 1030
3 295 212 48
3 129 295 48
3 1030 129 48
3 1291 1200 1030
3 1112 1291 1030
3 48 1112 1030
3 211 212 48
3 47 211 48
3 47 48 1112
3 1111 47 1112
3 1290 1111 1112
3 1290 1112 1291
3 1199 1290 1291
3 1199 1291 1200
3 1199 1200 1030
3 1029 1199 1030
3 128 1029 1030
3 128 1030 129
3 294 128 129
3 294 129 295
3 211 294 295
3 211 295 212
3 294 211 47
3 128 294 47
3 1029 128 47
3 1290 1199 1029
3 1111 1290 1029
3 47 1111 1029
3 293 210 46
3 127 293 46
3 1028 127 46
3 1289 1198 1028
3 1110 1289 1028
3 46 1110 1028
3 293 210 46
3 127 293 46
3 1028 127 46
3 1289 1198 1028
3 1110 1289 1028
3 46 1110 1028
3 209 210 46
3 45 209 46
3 45 46 1110
3 1109 45 1110
3 1288 1109 1110
3 1288 1110 1289
3 1197 1288 1289
3 1197 1289 1198
3 1197 1198 1028
3 1027 1197 1028
3 126 1027 1028
3 126 1028 127
3 292 126 127
3 292 127 293
3 209 292 293
3 209 293 210
3 292 209 45
3 126 292 45
3 1027 126 45
3 1288 1197 1027
3 1109 1288 1027
3 45 1109 1027
3 291 208 44
3 125 291 44
3 1026 125 44
3 1287 1196 1026
3 1108 1287 1026
3 44 1108 1026
3 291 208 44
3 125 291 44
3 1026 125 44
3 1287 1196 1026
3 1108 1287 1026
3 44 1108 1026
3 207 208 44
3 43 207 44
3 43 44 1108
3 1107 43 1108
3 1286 1107 1108
3 1286 1108 1287
3 1195 1286 1287
3 1195 1287 1196
3 1195 1196 1026
3 1025 1195 1026
3 124 1025 1026
3 124 1026 125
3 290 124 125
3 290 125 291
3 207 290 291
3 207 291 208
3 290 207 43
3 124 290 43
3 1025 124 43
3 1286 1195 1025
3 1107 1286 1025
3 43 1107 1025
3 289 206 42
3 123 289 42
3 1024 123 42
3 1285 1194 1024
3 1106 1285 1024
3 42 1106 1024
3 289 206 42
3 123 289 42
3 1024 123 42
3 1285 1194 1024
3 1106 1285 1024
3 42 1106 1024
3 205 206 42
3 41 205 42
3 41 42 1106
3 1105 41 1106
3 1284 1105 1106
3 1284 1106 1285
3 1193 1284 1285
3 1193 1285 1194
3 1193 1194 1024
3 1023 1193 1024
3 122 1023 1024
3 122 1024 123
3 288 122 123
3 288 123 289
3 205 288 289
3 205 289 206
3 288 205 41
3 122 288 41
3 1023 122 41
3 1284 1193 1023
3 1105 1284 1023
3 41 1105 1023
3 287 204 40
3 121 287 40
3 1022 121 40
3 1283 1192 1022
3 1104 1283 1022
3 40 1104 1022
3 287 204 40
3 121 287 40
3 1022 121 40
3 1283 1192 1022
3 1104 1283 1022
3 40 1104 1022
3 203 204 40
3 39 203 40
3 39 40 1104
3 1103 39 1104
3 1282 1103 1104
3 1282 1104 1283
3 1191 1282 1283
3 1191 1283 1192
3 1191 1192 1022
3 1021 1191 1022
3 120 1021 1022
3 120 1022 121
3 286 120 121
3 286 121 287
3 203 286 287
3 203 287 204
3 286 203 39
3 120 286 39
3 1021 120 39
3 1282 1191 1021
3 1103 1282 1021
3 39 1103 1021
3 285 202 38
3 119 285 38
3 1020 119 38
3 1281 1190 1020
3 1102 1281 1020
3 38 1102 1020
3 285 202 38
3 119 285 38
3 1020 119 38
3 1281 1190 1020
3 1102 1281 1020
3 38 1102 1020
3 201 202 38
3 37 201 38
3 37 38 1102
3 1101 37 1102
3 1280 1101 1102
3 1280 1102 1281
3 1189 1280 1281
3 1189 1281 1190
3 1189 1190 1020
3 1019 1189 1020
3 118 1019 1020
3 118 1020 119
3 284 118 119
3 284 119 285
3 201 284 285
3 201 285 202
3 284 201 37
3 118 284 37
3 1019 118 37
3 1280 1189 1019
3 1101 1280 1019
3 37 1101 1019
3 283 200 36
3 117 283 36
3 1018 117 36
3 1279 1188 1018
3 1100 1279 1018
3 36 1100 1018
3 283 200 36
3 117 283 36
3 1018 117 36
3 1279 1188 1018
3 1100 1279 1018
3 36 1100 1018
3 199 200 36
3 35 199 36
3 35 36 1100
3 1099 35 1100
3 1278 1099 1100
3 1278 1100 1279
3 1187 1278 1279
3 1187 1279 1188
3 1187 1188 1018
3 1017 1187 1018
3 116 1017 1018
3 116 1018 117
3 282 116 117
3 282 117 283
3 199 282 283
3 199 283 200
3 282 199 35
3 116 282 35
3 1017 116 35
3 1278 1187 1017
3 1099 1278 1017
3 35 1099 1017
3 281 198 34
3 115 281 34
3 1016 115 34
3 1277 1186 1016
3 1098 1277 1016
3 34 1098 1016
3 281 198 34
3 115 281 34
3 1016 115 34
3 1277 1186 1016
3 1098 1277 1016
3 34 1098 1016
3 197 198 34
3 33 197 34
3 33 34 1098
3 1097 33 1098
3 1276 1097 1098
3 1276 1098 1277
3 1185 1276 1277
3 1185 1277 1186
3 1185 1186 1016
3 1015 1185 1016
3 114 1015 1016
3 114 1016 115
3 280 114 115
3 280 115 281
3 197 280 281
3 197 281 198
3 280 197 33
3 114 280 33
3 1015 114 33
3 1276 1185 1015
3 1097 1276 1015
3 33 1097 1015
3 279 196 32
3 113 279 32
3 1014 113 32
3 1275 1184 1014
3 1096 1275 1014
3 32 1096 1014
3 279 196 32
3 113 279 32
3 1014 113 32
3 1275 1184 1014
3 1096 1275 1014
3 32 1096 1014
3 195 196 32
3 31 195 32
3 31 32 1096
3 1095 31 1096
3 1274 1095 1096
3 1274 1096 1275
3 1183 1274 1275
3 1183 1275 1184
3 1183 1184 1014
3 1013 1183 1014
3 112 1013 1014
3 112 1014 113
3 278 112 113
3 278 113 279
3 195 278 279
3 195 279 196
3 278 195 31
3 112 278 31
3 1013 112 31
3 1274 1183 1013
3 1095 1274 1013
3 31 1095 1013
3 277 194 30
3 111 277 30
3 1012 111 30
3 1273 1182 1012
3 1094 1273 1012
3 30 1094 1012
3 277 194 30
3 111 277 30
3 1012 111 30
3 1273 1182 1012
3 1094 1273 1012
3 30 1094 1012
3 193 194 30
3 29 193 30
3 29 30 1094
3 1093 29 1094
3 1272 1093 1094
3 1272 1094 1273
3 1181 1272 1273
3 1181 1273 1182
3 1181 1182 1012
3 1011 1181 1012
3 110 1011 1012
3 110 1012 111
3 276 110 111
3 276 111 277
3 193 276 277
3 193 277 194
3 276 193 29
3 110 276 29
3 1011 110 29
3 1272 1181 1011
3 1093 1272 1011
3 29 1093 1011
3 275 192 28
3 109 275 28
3 1010 109 28
3 1271 1180 1010
3 1092 1271 1010
3 28 1092 1010
3 275 192 28
3 109 275 28
3 1010 109 28
3 1271 1180 1010
3 1092 1271 1010
3 28 1092 1010
3 191 192 28
3 27 191 28
3 27 28 1092
3 1091 27 1092
3 1270 1091 1092
3 1270 1092 1271
3 1179 1270 1271
3 1179 1271 1180
3 1179 1180 1010
3 1009 1179 1010
3 108 1009 1010
3 108 1010 109
3 274 108 109
3 274 109 275
3 191 274 275
3 191 275 192
3 274 191 27
3 108 274 27
3 1009 108 27
3 1270 1179 1009
3 1091 1270 1009
3 27 1091 1009
3 273 190 26
3 107 273 26
3 1008 107 26
3 1269 1178 1008
3 1090 1269 1008
3 26 1090 1008
3 273 190 26
3 107 273 26
3 1008 107 26
3 1269 1178 1008
3 1090 1269 1008
3 26 1090 1008
3 189 190 26
3 25 189 26
3 25 26 1090
3 1089 25 1090
3 1268 1089 1090
3 1268 1090 1269
3 1177 1268 1269
3 1177 1269 1178
3 1177 1178 1008
3 1007 1177 1008
3 106 1007 1008
3 106 1008 107
3 272 106 107
3 272 107 273
3 189 272 273
3 189 273 190
3 272 189 25
3 106 272 25
3 1007 106 25
3 1268 1177 1007
3 1089 1268 1007
3 25 1089 1007
3 271 188 24
3 105 271 24
3 1006 105 24
3 1267 1176 1006
3 1088 1267 1006
3 24 1088 1006
3 271 188 24
3 105 271 24
3 1006 105 24
3 1267 1176 1006
3 1088 1267 1006
3 24 1088 1006
3 187 188 24
3 23 187 24
3 23 24 1088
3 1087 23 1088
3 1266 1087 1088
3 1266 1088 1267
3 1175 1266 1267
3 1175 1267 1176
3 1175 1176 1006
3 1005 1175 1006
3 104 1005 1006
3 104 1006 105
3 270 104 105
3 270 105 271
3 187 270 271
3 187 271 188
3 270 187 23
3 104 270 23
3 1005 104 23
3 1266 1175 1005
3 1087 1266 1005
3 23 1087 1005
3 269 186 22
3 103 269 22
3 1004 103 22
3 1265 1174 1004
3 1086 1265 1004
3 22 1086 1004
3 269 186 22
3 103 269 22
3 1004 103 22
3 1265 1174 1004
3 1086 1265 1004
3 22 1086 1004
3 185 186 22
3 21 185 22
3 21 22 1086
3 1085 21 1086
3 1264 1085 1086
3 1264 1086 1265
3 1173 1264 1265
3 1173 1265 1174
3 1173 1174 1004
3 1003 1173 1004
3 102 1003 1004
3 102 1004 103
3 268 102 103
3 268 103 269
3 185 268 269
3 185 269 186
3 268 185 21
3 102 268 21
3 1003 102 21
3 1264 1173 1003
3 1085 1264 1003
3 21 1085 1003
3 267 184 20
3 101 267 20
3 1002 101 20
3 1263 1172 1002
3 1084 1263 1002
3 20 1084 1002
3 267 184 20
3 101 267 20
3 1002 101 20
3 1263 1172 1002
3 1084 1263 1002
3 20 1084 1002
3 183 184 20
3 19 183 20
3 19 20 1084
3 1083 19 1084
3 1262 1083 1084
3 1262 1084 1263
3 1171 1262 1263
3 1171 1263 1172
3 1171 1172 1002
3 1001 1171 1002
3 100 1001 1002
3 100 1002 101
3 266 100 101
3 266 101 267
3 183 266 267
3 183 267 184
3 266 183 19
3 100 266 19
3 1001 100 19
3 1262 1171 1001
3 1083 1262 1001
3 19 1083 1001
3 265 182 18
3 99 265 18
3 1000 99 18
3 1261 1170 1000
3 1082 1261 1000
3 18 1082 1000
3 265 182 18
3 99 265 18
3 1000 99 18
3 1261 1170 1000
3 1082 1261 1000
3 18 1082 1000
3 181 182 18
3 17 181 18
3 17 18 1082
3 1081 17 1082
3 1260 1081 1082
3 1260 1082 1261
3 1169 1260 1261
3 1169 1261 1170
3 1169 1170 1000
3 999 1169 1000
3 98 999 1000
3 98 1000 99
3 264 98 99
3 264 99 265
3 181 264 265
3 181 265 182
3 264 181 17
3 98 264 17
3 999 98 17
3 1260 1169 999
3 1081 1260 999
3 17 1081 999
3 263 180 16
3 97 263 16
3 998 97 16
3 1259 1168 998
3 1080 1259 998
3 16 1080 998
3 263 180 16
3 97 263 16
3 998 97 16
3 1259 1168 998
3 1080 1259 998
3 16 1080 998
3 179 180 16
3 15 179 16
3 15 16 1080
3 1079 15 1080
3 1258 1079 1080
3 1258 1080 1259
3 1167 1258 1259
3 1167 1259 1168
3 1167 1168 998
3 997 1167 998
3 96 997 998
3 96 998 97
3 262 96 97
3 262 97 263
3 179 262 263
3 179 263 180
3 262 179 15
3 96 262 15
3 997 96 15
3 1258 1167 997
3 1079 1258 997
3 15 1079 997
3 261 178 14
3 95 261 14
3 996 95 14
3 1257 1166 996
3 1078 1257 996
3 14 1078 996
3 261 178 14
3 95 261 14
3 996 95 14
3 1257 1166 996
3 1078 1257 996
3 14 1078 996
3 177 178 14
3 13 177 14
3 13 14 1078
3 1077 13 1078
3 1256 1077 1078
3 1256 1078 1257
3 1165 1256 1257
3 1165 1257 1166
3 1165 1166 996
3 995 1165 996
3 94 995 996
3 94 996 95
3 260 94 95
3 260 95 261
3 177 260 261
3 177 261 178
3 260 177 13
3 94 260 13
3 995 94 13
3 1256 1165 995
3 1077 1256 995
3 13 1077 995
3 358 453 457
3 257 338 5
3 2 257 5
3 354 2 5
3 358 457 354
3 5 358 354
3 1457 1371 1712
3 1717 1457 1712
3 1350 1717 1712
3 1244 1241 1350
3 1344 1244 1350
3 1712 1344 1350
3 358 453 457
3 257 338 5
3 2 257 5
3 354 2 5
3 358 457 354
3 5 358 354
3 456 453 358
3 361 456 358
3 8 361 358
3 8 358 5
3 341 8 5
3 341 5 338
3 337 341 338
3 337 338 257
3 337 257 2
3 4 337 2
3 4 2 354
3 355 4 354
3 458 355 354
3 458 354 457
3 456 458 457
3 456 457 453
3 361 456 458
3 337 341 8
3 4 337 8
3 355 4 8
3 361 458 355
3 8 361 355
3 1457 1371 1712
3 1717 1457 1712
3 1350 1717 1712
3 1244 1241 1350
3 1344 1244 1350
3 1712 1344 1350
3 1374 1371 1457
3 1458 1374 1457
3 1718 1458 1457
3 1718 1457 1717
3 1352 1718 1717
3 1352 1717 1350
3 1352 1350 1241
3 1243 1352 1241
3 1243 1241 1244
3 1247 1243 1244
3 1347 1247 1244
3 1347 1244 1344
3 1347 1344 1712
3 1713 1347 1712
3 1713 1712 1371
3 1374 1713 1371
3 1458 1374 1713
3 1718 1458 1713
3 1352 1718 1713
3 1247 1243 1352
3 1347 1247 1352
3 1713 1347 1352
3 92 991 1246
3 340 92 1246
3 7 340 1246
3 360 7 1246
3 455 360 1246
3 629 455 1246
3 1373 1545 629
3 1346 1715 1373
3 1246 1346 1373
3 629 1246 1373
3 992 991 92
3 170 992 92
3 170 92 340
3 341 170 340
3 341 340 7
3 8 341 7
3 8 7 360
3 361 8 360
3 456 361 360
3 456 360 455
3 456 455 629
3 630 456 629
3 1546 630 629
3 1546 629 1545
3 1374 1546 1545
3 1374 1545 1373
3 1716 1374 1373
3 1716 1373 1715
3 1347 1716 1715
3 1347 1715 1346
3 1347 1346 1246
3 1247 1347 1246
3 992 1247 1246
3 992 1246 991
3 170 992 1247
3 341 170 1247
3 8 341 1247
3 361 8 1247
3 456 361 1247
3 630 456 1247
3 1374 1546 630
3 1347 1716 1374
3 1247 1347 1374
3 630 1247 1374
3 366 0 1342
3 1723 366 1342
3 366 0 1342
3 1723 366 1342
3 1 0 366
3 367 1 366
3 1724 367 366
3 1724 366 1723
3 1343 1724 1723
3 1343 1723 1342
3 1343 1342 0
3 1 1343 0
3 367 1 1343
3 1724 367 1343
3 3 0 4
3 3 4 0
3 336 337 4
3 336 4 3
3 336 3 0
3 91 336 0
3 4 0 91
3 337 4 91
3 336 91 337
3 1348 1342 1349
3 1348 1342 1349
3 1342 1349 1162
3 990 1342 1162
3 990 1342 1348
3 1161 990 1348
3 1162 1161 1348
3 1162 1348 1349
3 1161 1162 990
3 1725 1720 1719
3 1725 1719 1720
3 1460 1720 1719
3 1459 1460 1719
3 1459 1719 1725
3 1629 1459 1725
3 1720 1725 1629
3 1460 1720 1629
3 1629 1460 1459
3 368 357 356
3 368 357 356
3 368 357 542
3 713 368 542
3 713 368 356
3 541 713 356
3 541 356 357
3 542 541 357
3 713 541 542
3 258 175 11
3 92 258 11
3 993 92 11
3 1254 1163 993
3 1075 1254 993
3 11 1075 993
3 260 177 13
3 94 260 13
3 995 94 13
3 1256 1165 995
3 1077 1256 995
3 13 1077 995
3 259 176 12
3 93 259 12
3 994 93 12
3 1255 1164 994
3 1076 1255 994
3 12 1076 994
3 258 175 11
3 92 258 11
3 993 92 11
3 1254 1163 993
3 1075 1254 993
3 11 1075 993
3 259 176 175
3 259 175 258
3 93 259 258
3 93 258 92
3 994 93 92
3 994 92 993
3 994 993 1163
3 1164 994 1163
3 1255 1164 1163
3 1255 1163 1254
3 1076 1255 1254
3 1076 1254 1075
3 1076 1075 11
3 12 1076 11
3 12 11 175
3 176 12 175
3 259 176 12
3 93 259 12
3 994 93 12
3 1255 1164 994
3 1076 1255 994
3 12 1076 994
3 730 726 734
3 738 730 734
3 730 726 734
3 738 730 734
3 727 726 730
3 731 727 730
3 739 731 730
3 739 730 738
3 735 739 738
3 735 738 734
3 735 734 726
3 727 735 726
3 731 727 735
3 739 731 735
3 772 770 774
3 776 772 774
3 772 770 774
3 776 772 774
3 771 770 772
3 773 771 772
3 777 773 772
3 777 772 776
3 775 777 776
3 775 776 774
3 775 774 770
3 771 775 770
3 773 771 775
3 777 773 775
3 792 790 798
3 805 792 798
3 792 790 798
3 805 792 798
3 791 790 792
3 793 791 792
3 806 793 792
3 806 792 805
3 799 806 805
3 799 805 798
3 799 798 790
3 791 799 790
3 793 791 799
3 806 793 799
3 838 836 840
3 842 838 840
3 838 836 840
3 842 838 840
3 837 836 838
3 839 837 838
3 843 839 838
3 843 838 842
3 841 843 842
3 841 842 840
3 841 840 836
3 837 841 836
3 839 837 841
3 843 839 841
3 862 860 870
3 872 862 870
3 862 860 870
3 872 862 870
3 861 860 862
3 863 861 862
3 873 863 862
3 873 862 872
3 871 873 872
3 871 872 870
3 871 870 860
3 861 871 860
3 863 861 871
3 873 863 871
3 894 892 896
3 898 894 896
3 894 892 896
3 898 894 896
3 893 892 894
3 895 893 894
3 899 895 894
3 899 894 898
3 897 899 898
3 897 898 896
3 897 896 892
3 893 897 892
3 895 893 897
3 899 895 897
3 918 916 920
3 927 918 920
3 918 916 920
3 927 918 920
3 917 916 918
3 919 917 918
3 928 919 918
3 928 918 927
3 921 928 927
3 921 927 920
3 921 920 916
3 917 921 916
3 919 917 921
3 928 919 921
3 954 952 956
3 958 954 956
3 954 952 956
3 958 954 956
3 953 952 954
3 955 953 954
3 959 955 954
3 959 954 958
3 957 959 958
3 957 958 956
3 957 956 952
3 953 957 952
3 955 953 957
3 959 955 957
3 768 764 756
3 766 768 756
3 768 764 756
3 766 768 756
3 769 765 764
3 769 764 768
3 767 769 768
3 767 768 766
3 767 766 756
3 757 767 756
3 757 756 764
3 765 757 764
3 769 765 757
3 767 769 757
3 788 782 780
3 786 788 780
3 788 782 780
3 786 788 780
3 789 783 782
3 789 782 788
3 787 789 788
3 787 788 786
3 787 786 780
3 781 787 780
3 781 780 782
3 783 781 782
3 789 783 781
3 787 789 781
3 832 828 826
3 830 832 826
3 832 828 826
3 830 832 826
3 833 829 828
3 833 828 832
3 831 833 832
3 831 832 830
3 831 830 826
3 827 831 826
3 827 826 828
3 829 827 828
3 833 829 827
3 831 833 827
3 858 854 852
3 856 858 852
3 858 854 852
3 856 858 852
3 859 855 854
3 859 854 858
3 857 859 858
3 857 858 856
3 857 856 852
3 853 857 852
3 853 852 854
3 855 853 854
3 859 855 853
3 857 859 853
3 888 884 882
3 886 888 882
3 888 884 882
3 886 888 882
3 889 885 884
3 889 884 888
3 887 889 888
3 887 888 886
3 887 886 882
3 883 887 882
3 883 882 884
3 885 883 884
3 889 885 883
3 887 889 883
3 914 910 908
3 912 914 908
3 914 910 908
3 912 914 908
3 915 911 910
3 915 910 914
3 913 915 914
3 913 914 912
3 913 912 908
3 909 913 908
3 909 908 910
3 911 909 910
3 915 911 909
3 913 915 909
3 950 946 944
3 948 950 944
3 950 946 944
3 948 950 944
3 951 947 946
3 951 946 950
3 949 951 950
3 949 950 948
3 949 948 944
3 945 949 944
3 945 944 946
3 947 945 946
3 951 947 945
3 949 951 945
3 988 981 977
3 986 988 977
3 988 981 977
3 986 988 977
3 989 982 981
3 989 981 988
3 987 989 988
3 987 988 986
3 987 986 977
3 978 987 977
3 978 977 981
3 982 978 981
3 989 982 978
3 987 989 978
3 1789 1772 1743
3 1786 1789 1743
3 1779 1786 1743
3 1738 1776 1779
3 1750 1738 1779
3 1743 1750 1779
3 890 834 800
3 963 929 890
3 1363 969 963
3 1357 1363 963
3 1730 1357 963
3 1762 1736 1730
3 1758 1762 1730
3 1764 1758 1730
3 1743 1764 1730
3 1350 1743 1730
3 1241 1350 1730
3 1155 1241 1730
3 890 800 1155
3 963 890 1155
3 1730 963 1155
3 890 834 800
3 963 929 890
3 1363 969 963
3 1357 1363 963
3 1730 1357 963
3 1762 1736 1730
3 1758 1762 1730
3 1764 1758 1730
3 1743 1764 1730
3 1350 1743 1730
3 1241 1350 1730
3 1155 1241 1730
3 890 800 1155
3 963 890 1155
3 1730 963 1155
3 891 835 834
3 891 834 890
3 891 890 929
3 930 891 929
3 964 930 929
3 964 929 963
3 964 963 969
3 970 964 969
3 1364 970 969
3 1364 969 1363
3 1358 1364 1363
3 1358 1363 1357
3 1731 1358 1357
3 1731 1357 1730
3 1731 1730 1736
3 1737 1731 1736
3 1763 1737 1736
3 1763 1736 1762
3 1759 1763 1762
3 1759 1762 1758
3 1765 1759 1758
3 1765 1758 1764
3 1745 1765 1764
3 1745 1764 1743
3 1745 1743 1350
3 1351 1745 1350
3 1351 1350 1241
3 1242 1351 1241
3 1156 1242 1241
3 1156 1241 1155
3 1156 1155 800
3 804 1156 800
3 804 800 834
3 835 804 834
3 891 835 804
3 964 930 891
3 1364 970 964
3 1358 1364 964
3 1731 1358 964
3 1763 1737 1731
3 1759 1763 1731
3 1765 1759 1731
3 1745 1765 1731
3 1351 1745 1731
3 1242 1351 1731
3 1156 1242 1731
3 891 804 1156
3 964 891 1156
3 1731 964 1156
3 813 809 796
3 803 813 796
3 1159 803 796
3 1340 1336 1159
3 1252 1340 1159
3 796 1252 1159
3 811 807 794
3 801 811 794
3 1157 801 794
3 1338 1334 1157
3 1250 1338 1157
3 794 1250 1157
3 812 808 807
3 812 807 811
3 802 812 811
3 802 811 801
3 1158 802 801
3 1158 801 1157
3 1158 1157 1334
3 1335 1158 1334
3 1339 1335 1334
3 1339 1334 1338
3 1251 1339 1338
3 1251 1338 1250
3 1251 1250 794
3 795 1251 794
3 795 794 807
3 808 795 807
3 812 808 795
3 802 812 795
3 1158 802 795
3 1339 1335 1158
3 1251 1339 1158
3 795 1251 1158
3 813 809 796
3 803 813 796
3 1159 803 796
3 1340 1336 1159
3 1252 1340 1159
3 796 1252 1159
3 814 810 809
3 814 809 813
3 804 814 813
3 804 813 803
3 1160 804 803
3 1160 803 1159
3 1160 1159 1336
3 1337 1160 1336
3 1341 1337 1336
3 1341 1336 1340
3 1253 1341 1340
3 1253 1340 1252
3 1253 1252 796
3 797 1253 796
3 797 796 809
3 810 797 809
3 814 810 797
3 804 814 797
3 1160 804 797
3 1341 1337 1160
3 1253 1341 1160
3 797 1253 1160
3 1789 1772 1743
3 1786 1789 1743
3 1779 1786 1743
3 1738 1776 1779
3 1750 1738 1779
3 1743 1750 1779
3 1790 1773 1772
3 1790 1772 1789
3 1787 1790 1789
3 1787 1789 1786
3 1787 1786 1779
3 1780 1787 1779
3 1777 1780 1779
3 1777 1779 1776
3 1777 1776 1738
3 1739 1777 1738
3 1739 1738 1750
3 1751 1739 1750
3 1751 1750 1743
3 1744 1751 1743
3 1744 1743 1772
3 1773 1744 1772
3 1790 1773 1744
3 1787 1790 1744
3 1780 1787 1744
3 1739 1777 1780
3 1751 1739 1780
3 1744 1751 1780
3 171 1071 1245
3 339 171 1245
3 6 339 1245
3 359 6 1245
3 454 359 1245
3 627 454 1245
3 1372 1543 627
3 1345 1714 1372
3 1245 1345 1372
3 627 1245 1372
3 171 1071 1245
3 339 171 1245
3 6 339 1245
3 359 6 1245
3 454 359 1245
3 627 454 1245
3 1372 1543 627
3 1345 1714 1372
3 1245 1345 1372
3 627 1245 1372
3 1074 1071 171
3 174 1074 171
3 174 171 339
3 340 174 339
3 340 339 6
3 7 340 6
3 7 6 359
3 360 7 359
3 455 360 359
3 455 359 454
3 455 454 627
3 628 455 627
3 1544 628 627
3 1544 627 1543
3 1373 1544 1543
3 1373 1543 1372
3 1715 1373 1372
3 1715 1372 1714
3 1346 1715 1714
3 1346 1714 1345
3 1346 1345 1245
3 1246 1346 1245
3 1074 1246 1245
3 1074 1245 1071
3 174 1074 1246
3 340 174 1246
3 7 340 1246
3 360 7 1246
3 455 360 1246
3 628 455 1246
3 1373 1544 628
3 1346 1715 1373
3 1246 1346 1373
3 628 1246 1373
3 1153 1332 1248
3 868 865 1153
3 1072 868 1153
3 1248 1072 1153
3 864 867 172
3 89 864 172
3 255 89 172
3 342 255 172
3 1153 1332 1248
3 868 865 1153
3 1072 868 1153
3 1248 1072 1153
3 1154 1333 1332
3 1154 1332 1153
3 1154 1153 865
3 866 1154 865
3 866 865 868
3 869 866 868
3 1073 869 868
3 1073 868 1072
3 1073 1072 1248
3 1249 1073 1248
3 1333 1249 1248
3 1333 1248 1332
3 1154 1333 1249
3 869 866 1154
3 1073 869 1154
3 1249 1073 1154
3 864 867 172
3 89 864 172
3 255 89 172
3 342 255 172
3 866 869 867
3 866 867 864
3 866 864 89
3 90 866 89
3 90 89 255
3 256 90 255
3 343 256 255
3 343 255 342
3 173 343 342
3 173 342 172
3 869 173 172
3 869 172 867
3 866 869 173
3 90 866 173
3 256 90 173
3 343 256 173
3 626 450 540
3 1456 1542 1711
3 1628 1456 1711
3 712 1628 1711
3 626 540 712
3 1711 626 712
3 626 450 540
3 1456 1542 1711
3 1628 1456 1711
3 712 1628 1711
3 626 540 712
3 1711 626 712
3 449 450 540
3 539 449 540
3 711 539 540
3 711 540 712
3 711 712 1628
3 1627 711 1628
3 1627 1628 1456
3 1455 1627 1456
3 1455 1456 1542
3 1541 1455 1542
3 1710 1541 1542
3 1710 1542 1711
3 625 1710 1711
3 625 1711 626
3 625 626 450
3 449 625 450
3 625 449 539
3 1455 1541 1710
3 1627 1455 1710
3 711 1627 1710
3 625 539 711
3 1710 625 711
3 624 448 538
3 1454 1540 1709
3 1626 1454 1709
3 710 1626 1709
3 624 538 710
3 1709 624 710
3 624 448 538
3 1454 1540 1709
3 1626 1454 1709
3 710 1626 1709
3 624 538 710
3 1709 624 710
3 447 448 538
3 537 447 538
3 709 537 538
3 709 538 710
3 709 710 1626
3 1625 709 1626
3 1625 1626 1454
3 1453 1625 1454
3 1453 1454 1540
3 1539 1453 1540
3 1708 1539 1540
3 1708 1540 1709
3 623 1708 1709
3 623 1709 624
3 623 624 448
3 447 623 448
3 623 447 537
3 1453 1539 1708
3 1625 1453 1708
3 709 1625 1708
3 623 537 709
3 1708 623 709
3 622 446 536
3 1452 1538 1707
3 1624 1452 1707
3 708 1624 1707
3 622 536 708
3 1707 622 708
3 622 446 536
3 1452 1538 1707
3 1624 1452 1707
3 708 1624 1707
3 622 536 708
3 1707 622 708
3 445 446 536
3 535 445 536
3 707 535 536
3 707 536 708
3 707 708 1624
3 1623 707 1624
3 1623 1624 1452
3 1451 1623 1452
3 1451 1452 1538
3 1537 1451 1538
3 1706 1537 1538
3 1706 1538 1707
3 621 1706 1707
3 621 1707 622
3 621 622 446
3 445 621 446
3 621 445 535
3 1451 1537 1706
3 1623 1451 1706
3 707 1623 1706
3 621 535 707
3 1706 621 707
3 620 444 534
3 1450 1536 1705
3 1622 1450 1705
3 706 1622 1705
3 620 534 706
3 1705 620 706
3 620 444 534
3 1450 1536 1705
3 1622 1450 1705
3 706 1622 1705
3 620 534 706
3 1705 620 706
3 443 444 534
3 533 443 534
3 705 533 534
3 705 534 706
3 705 706 1622
3 1621 705 1622
3 1621 1622 1450
3 1449 1621 1450
3 1449 1450 1536
3 1535 1449 1536
3 1704 1535 1536
3 1704 1536 1705
3 619 1704 1705
3 619 1705 620
3 619 620 444
3 443 619 444
3 619 443 533
3 1449 1535 1704
3 1621 1449 1704
3 705 1621 1704
3 619 533 705
3 1704 619 705
3 618 442 532
3 1448 1534 1703
3 1620 1448 1703
3 704 1620 1703
3 618 532 704
3 1703 618 704
3 618 442 532
3 1448 1534 1703
3 1620 1448 1703
3 704 1620 1703
3 618 532 704
3 1703 618 704
3 441 442 532
3 531 441 532
3 703 531 532
3 703 532 704
3 703 704 1620
3 1619 703 1620
3 1619 1620 1448
3 1447 1619 1448
3 1447 1448 1534
3 1533 1447 1534
3 1702 1533 1534
3 1702 1534 1703
3 617 1702 1703
3 617 1703 618
3 617 618 442
3 441 617 442
3 617 441 531
3 1447 1533 1702
3 1619 1447 1702
3 703 1619 1702
3 617 531 703
3 1702 617 703
3 616 440 530
3 1446 1532 1701
3 1618 1446 1701
3 702 1618 1701
3 616 530 702
3 1701 616 702
3 616 440 530
3 1446 1532 1701
3 1618 1446 1701
3 702 1618 1701
3 616 530 702
3 1701 616 702
3 439 440 530
3 529 439 530
3 701 529 530
3 701 530 702
3 701 702 1618
3 1617 701 1618
3 1617 1618 1446
3 1445 1617 1446
3 1445 1446 1532
3 1531 1445 1532
3 1700 1531 1532
3 1700 1532 1701
3 615 1700 1701
3 615 1701 616
3 615 616 440
3 439 615 440
3 615 439 529
3 1445 1531 1700
3 1617 1445 1700
3 701 1617 1700
3 615 529 701
3 1700 615 701
3 614 438 528
3 1444 1530 1699
3 1616 1444 1699
3 700 1616 1699
3 614 528 700
3 1699 614 700
3 614 438 528
3 1444 1530 1699
3 1616 1444 1699
3 700 1616 1699
3 614 528 700
3 1699 614 700
3 437 438 528
3 527 437 528
3 699 527 528
3 699 528 700
3 699 700 1616
3 1615 699 1616
3 1615 1616 1444
3 1443 1615 1444
3 1443 1444 1530
3 1529 1443 1530
3 1698 1529 1530
3 1698 1530 1699
3 613 1698 1699
3 613 1699 614
3 613 614 438
3 437 613 438
3 613 437 527
3 1443 1529 1698
3 1615 1443 1698
3 699 1615 1698
3 613 527 699
3 1698 613 699
3 612 436 526
3 1442 1528 1697
3 1614 1442 1697
3 698 1614 1697
3 612 526 698
3 1697 612 698
3 612 436 526
3 1442 1528 1697
3 1614 1442 1697
3 698 1614 1697
3 612 526 698
3 1697 612 698
3 435 436 526
3 525 435 526
3 697 525 526
3 697 526 698
3 697 698 1614
3 1613 697 1614
3 1613 1614 1442
3 1441 1613 1442
3 1441 1442 1528
3 1527 1441 1528
3 1696 1527 1528
3 1696 1528 1697
3 611 1696 1697
3 611 1697 612
3 611 612 436
3 435 611 436
3 611 435 525
3 1441 1527 1696
3 1613 1441 1696
3 697 1613 1696
3 611 525 697
3 1696 611 697
3 610 434 524
3 1440 1526 1695
3 1612 1440 1695
3 696 1612 1695
3 610 524 696
3 1695 610 696
3 610 434 524
3 1440 1526 1695
3 1612 1440 1695
3 696 1612 1695
3 610 524 696
3 1695 610 696
3 433 434 524
3 523 433 524
3 695 523 524
3 695 524 696
3 695 696 1612
3 1611 695 1612
3 1611 1612 1440
3 1439 1611 1440
3 1439 1440 1526
3 1525 1439 1526
3 1694 1525 1526
3 1694 1526 1695
3 609 1694 1695
3 609 1695 610
3 609 610 434
3 433 609 434
3 609 433 523
3 1439 1525 1694
3 1611 1439 1694
3 695 1611 1694
3 609 523 695
3 1694 609 695
3 608 432 522
3 1438 1524 1693
3 1610 1438 1693
3 694 1610 1693
3 608 522 694
3 1693 608 694
3 608 432 522
3 1438 1524 1693
3 1610 1438 1693
3 694 1610 1693
3 608 522 694
3 1693 608 694
3 431 432 522
3 521 431 522
3 693 521 522
3 693 522 694
3 693 694 1610
3 1609 693 1610
3 1609 1610 1438
3 1437 1609 1438
3 1437 1438 1524
3 1523 1437 1524
3 1692 1523 1524
3 1692 1524 1693
3 607 1692 1693
3 607 1693 608
3 607 608 432
3 431 607 432
3 607 431 521
3 1437 1523 1692
3 1609 1437 1692
3 693 1609 1692
3 607 521 693
3 1692 607 693
3 606 430 520
3 1436 1522 1691
3 1608 1436 1691
3 692 1608 1691
3 606 520 692
3 1691 606 692
3 606 430 520
3 1436 1522 1691
3 1608 1436 1691
3 692 1608 1691
3 606 520 692
3 1691 606 692
3 429 430 520
3 519 429 520
3 691 519 520
3 691 520 692
3 691 692 1608
3 1607 691 1608
3 1607 1608 1436
3 1435 1607 1436
3 1435 1436 1522
3 1521 1435 1522
3 1690 1521 1522
3 1690 1522 1691
3 605 1690 1691
3 605 1691 606
3 605 606 430
3 429 605 430
3 605 429 519
3 1435 1521 1690
3 1607 1435 1690
3 691 1607 1690
3 605 519 691
3 1690 605 691
3 604 428 518
3 1434 1520 1689
3 1606 1434 1689
3 690 1606 1689
3 604 518 690
3 1689 604 690
3 604 428 518
3 1434 1520 1689
3 1606 1434 1689
3 690 1606 1689
3 604 518 690
3 1689 604 690
3 427 428 518
3 517 427 518
3 689 517 518
3 689 518 690
3 689 690 1606
3 1605 689 1606
3 1605 1606 1434
3 1433 1605 1434
3 1433 1434 1520
3 1519 1433 1520
3 1688 1519 1520
3 1688 1520 1689
3 603 1688 1689
3 603 1689 604
3 603 604 428
3 427 603 428
3 603 427 517
3 1433 1519 1688
3 1605 1433 1688
3 689 1605 1688
3 603 517 689
3 1688 603 689
3 602 426 516
3 1432 1518 1687
3 1604 1432 1687
3 688 1604 1687
3 602 516 688
3 1687 602 688
3 602 426 516
3 1432 1518 1687
3 1604 1432 1687
3 688 1604 1687
3 602 516 688
3 1687 602 688
3 425 426 516
3 515 425 516
3 687 515 516
3 687 516 688
3 687 688 1604
3 1603 687 1604
3 1603 1604 1432
3 1431 1603 1432
3 1431 1432 1518
3 1517 1431 1518
3 1686 1517 1518
3 1686 1518 1687
3 601 1686 1687
3 601 1687 602
3 601 602 426
3 425 601 426
3 601 425 515
3 1431 1517 1686
3 1603 1431 1686
3 687 1603 1686
3 601 515 687
3 1686 601 687
3 600 424 514
3 1430 1516 1685
3 1602 1430 1685
3 686 1602 1685
3 600 514 686
3 1685 600 686
3 600 424 514
3 1430 1516 1685
3 1602 1430 1685
3 686 1602 1685
3 600 514 686
3 1685 600 686
3 423 424 514
3 513 423 514
3 685 513 514
3 685 514 686
3 685 686 1602
3 1601 685 1602
3 1601 1602 1430
3 1429 1601 1430
3 1429 1430 1516
3 1515 1429 1516
3 1684 1515 1516
3 1684 1516 1685
3 599 1684 1685
3 599 1685 600
3 599 600 424
3 423 599 424
3 599 423 513
3 1429 1515 1684
3 1601 1429 1684
3 685 1601 1684
3 599 513 685
3 1684 599 685
3 598 422 512
3 1428 1514 1683
3 1600 1428 1683
3 684 1600 1683
3 598 512 684
3 1683 598 684
3 598 422 512
3 1428 1514 1683
3 1600 1428 1683
3 684 1600 1683
3 598 512 684
3 1683 598 684
3 421 422 512
3 511 421 512
3 683 511 512
3 683 512 684
3 683 684 1600
3 1599 683 1600
3 1599 1600 1428
3 1427 1599 1428
3 1427 1428 1514
3 1513 1427 1514
3 1682 1513 1514
3 1682 1514 1683
3 597 1682 1683
3 597 1683 598
3 597 598 422
3 421 597 422
3 597 421 511
3 1427 1513 1682
3 1599 1427 1682
3 683 1599 1682
3 597 511 683
3 1682 597 683
3 596 420 510
3 1426 1512 1681
3 1598 1426 1681
3 682 1598 1681
3 596 510 682
3 1681 596 682
3 596 420 510
3 1426 1512 1681
3 1598 1426 1681
3 682 1598 1681
3 596 510 682
3 1681 596 682
3 419 420 510
3 509 419 510
3 681 509 510
3 681 510 682
3 681 682 1598
3 1597 681 1598
3 1597 1598 1426
3 1425 1597 1426
3 1425 1426 1512
3 1511 1425 1512
3 1680 1511 1512
3 1680 1512 1681
3 595 1680 1681
3 595 1681 596
3 595 596 420
3 419 595 420
3 595 419 509
3 1425 1511 1680
3 1597 1425 1680
3 681 1597 1680
3 595 509 681
3 1680 595 681
3 594 418 508
3 1424 1510 1679
3 1596 1424 1679
3 680 1596 1679
3 594 508 680
3 1679 594 680
3 594 418 508
3 1424 1510 1679
3 1596 1424 1679
3 680 1596 1679
3 594 508 680
3 1679 594 680
3 417 418 508
3 507 417 508
3 679 507 508
3 679 508 680
3 679 680 1596
3 1595 679 1596
3 1595 1596 1424
3 1423 1595 1424
3 1423 1424 1510
3 1509 1423 1510
3 1678 1509 1510
3 1678 1510 1679
3 593 1678 1679
3 593 1679 594
3 593 594 418
3 417 593 418
3 593 417 507
3 1423 1509 1678
3 1595 1423 1678
3 679 1595 1678
3 593 507 679
3 1678 593 679
3 592 416 506
3 1422 1508 1677
3 1594 1422 1677
3 678 1594 1677
3 592 506 678
3 1677 592 678
3 592 416 506
3 1422 1508 1677
3 1594 1422 1677
3 678 1594 1677
3 592 506 678
3 1677 592 678
3 415 416 506
3 505 415 506
3 677 505 506
3 677 506 678
3 677 678 1594
3 1593 677 1594
3 1593 1594 1422
3 1421 1593 1422
3 1421 1422 1508
3 1507 1421 1508
3 1676 1507 1508
3 1676 1508 1677
3 591 1676 1677
3 591 1677 592
3 591 592 416
3 415 591 416
3 591 415 505
3 1421 1507 1676
3 1593 1421 1676
3 677 1593 1676
3 591 505 677
3 1676 591 677
3 590 414 504
3 1420 1506 1675
3 1592 1420 1675
3 676 1592 1675
3 590 504 676
3 1675 590 676
3 590 414 504
3 1420 1506 1675
3 1592 1420 1675
3 676 1592 1675
3 590 504 676
3 1675 590 676
3 413 414 504
3 503 413 504
3 675 503 504
3 675 504 676
3 675 676 1592
3 1591 675 1592
3 1591 1592 1420
3 1419 1591 1420
3 1419 1420 1506
3 1505 1419 1506
3 1674 1505 1506
3 1674 1506 1675
3 589 1674 1675
3 589 1675 590
3 589 590 414
3 413 589 414
3 589 413 503
3 1419 1505 1674
3 1591 1419 1674
3 675 1591 1674
3 589 503 675
3 1674 589 675
3 588 412 502
3 1418 1504 1673
3 1590 1418 1673
3 674 1590 1673
3 588 502 674
3 1673 588 674
3 588 412 502
3 1418 1504 1673
3 1590 1418 1673
3 674 1590 1673
3 588 502 674
3 1673 588 674
3 411 412 502
3 501 411 502
3 673 501 502
3 673 502 674
3 673 674 1590
3 1589 673 1590
3 1589 1590 1418
3 1417 1589 1418
3 1417 1418 1504
3 1503 1417 1504
3 1672 1503 1504
3 1672 1504 1673
3 587 1672 1673
3 587 1673 588
3 587 588 412
3 411 587 412
3 587 411 501
3 1417 1503 1672
3 1589 1417 1672
3 673 1589 1672
3 587 501 673
3 1672 587 673
3 586 410 500
3 1416 1502 1671
3 1588 1416 1671
3 672 1588 1671
3 586 500 672
3 1671 586 672
3 586 410 500
3 1416 1502 1671
3 1588 1416 1671
3 672 1588 1671
3 586 500 672
3 1671 586 672
3 409 410 500
3 499 409 500
3 671 499 500
3 671 500 672
3 671 672 1588
3 1587 671 1588
3 1587 1588 1416
3 1415 1587 1416
3 1415 1416 1502
3 1501 1415 1502
3 1670 1501 1502
3 1670 1502 1671
3 585 1670 1671
3 585 1671 586
3 585 586 410
3 409 585 410
3 585 409 499
3 1415 1501 1670
3 1587 1415 1670
3 671 1587 1670
3 585 499 671
3 1670 585 671
3 584 408 498
3 1414 1500 1669
3 1586 1414 1669
3 670 1586 1669
3 584 498 670
3 1669 584 670
3 584 408 498
3 1414 1500 1669
3 1586 1414 1669
3 670 1586 1669
3 584 498 670
3 1669 584 670
3 407 408 498
3 497 407 498
3 669 497 498
3 669 498 670
3 669 670 1586
3 1585 669 1586
3 1585 1586 1414
3 1413 1585 1414
3 1413 1414 1500
3 1499 1413 1500
3 1668 1499 1500
3 1668 1500 1669
3 583 1668 1669
3 583 1669 584
3 583 584 408
3 407 583 408
3 583 407 497
3 1413 1499 1668
3 1585 1413 1668
3 669 1585 1668
3 583 497 669
3 1668 583 669
3 582 406 496
3 1412 1498 1667
3 1584 1412 1667
3 668 1584 1667
3 582 496 668
3 1667 582 668
3 582 406 496
3 1412 1498 1667
3 1584 1412 1667
3 668 1584 1667
3 582 496 668
3 1667 582 668
3 405 406 496
3 495 405 496
3 667 495 496
3 667 496 668
3 667 668 1584
3 1583 667 1584
3 1583 1584 1412
3 1411 1583 1412
3 1411 1412 1498
3 1497 1411 1498
3 1666 1497 1498
3 1666 1498 1667
3 581 1666 1667
3 581 1667 582
3 581 582 406
3 405 581 406
3 581 405 495
3 1411 1497 1666
3 1583 1411 1666
3 667 1583 1666
3 581 495 667
3 1666 581 667
3 580 404 494
3 1410 1496 1665
3 1582 1410 1665
3 666 1582 1665
3 580 494 666
3 1665 580 666
3 580 404 494
3 1410 1496 1665
3 1582 1410 1665
3 666 1582 1665
3 580 494 666
3 1665 580 666
3 403 404 494
3 493 403 494
3 665 493 494
3 665 494 666
3 665 666 1582
3 1581 665 1582
3 1581 1582 1410
3 1409 1581 1410
3 1409 1410 1496
3 1495 1409 1496
3 1664 1495 1496
3 1664 1496 1665
3 579 1664 1665
3 579 1665 580
3 579 580 404
3 403 579 404
3 579 403 493
3 1409 1495 1664
3 1581 1409 1664
3 665 1581 1664
3 579 493 665
3 1664 579 665
3 578 402 492
3 1408 1494 1663
3 1580 1408 1663
3 664 1580 1663
3 578 492 664
3 1663 578 664
3 578 402 492
3 1408 1494 1663
3 1580 1408 1663
3 664 1580 1663
3 578 492 664
3 1663 578 664
3 401 402 492
3 491 401 492
3 663 491 492
3 663 492 664
3 663 664 1580
3 1579 663 1580
3 1579 1580 1408
3 1407 1579 1408
3 1407 1408 1494
3 1493 1407 1494
3 1662 1493 1494
3 1662 1494 1663
3 577 1662 1663
3 577 1663 578
3 577 578 402
3 401 577 402
3 577 401 491
3 1407 1493 1662
3 1579 1407 1662
3 663 1579 1662
3 577 491 663
3 1662 577 663
3 576 400 490
3 1406 1492 1661
3 1578 1406 1661
3 662 1578 1661
3 576 490 662
3 1661 576 662
3 576 400 490
3 1406 1492 1661
3 1578 1406 1661
3 662 1578 1661
3 576 490 662
3 1661 576 662
3 399 400 490
3 489 399 490
3 661 489 490
3 661 490 662
3 661 662 1578
3 1577 661 1578
3 1577 1578 1406
3 1405 1577 1406
3 1405 1406 1492
3 1491 1405 1492
3 1660 1491 1492
3 1660 1492 1661
3 575 1660 1661
3 575 1661 576
3 575 576 400
3 399 575 400
3 575 399 489
3 1405 1491 1660
3 1577 1405 1660
3 661 1577 1660
3 575 489 661
3 1660 575 661
3 574 398 488
3 1404 1490 1659
3 1576 1404 1659
3 660 1576 1659
3 574 488 660
3 1659 574 660
3 574 398 488
3 1404 1490 1659
3 1576 1404 1659
3 660 1576 1659
3 574 488 660
3 1659 574 660
3 397 398 488
3 487 397 488
3 659 487 488
3 659 488 660
3 659 660 1576
3 1575 659 1576
3 1575 1576 1404
3 1403 1575 1404
3 1403 1404 1490
3 1489 1403 1490
3 1658 1489 1490
3 1658 1490 1659
3 573 1658 1659
3 573 1659 574
3 573 574 398
3 397 573 398
3 573 397 487
3 1403 1489 1658
3 1575 1403 1658
3 659 1575 1658
3 573 487 659
3 1658 573 659
3 572 396 486
3 1402 1488 1657
3 1574 1402 1657
3 658 1574 1657
3 572 486 658
3 1657 572 658
3 572 396 486
3 1402 1488 1657
3 1574 1402 1657
3 658 1574 1657
3 572 486 658
3 1657 572 658
3 395 396 486
3 485 395 486
3 657 485 486
3 657 486 658
3 657 658 1574
3 1573 657 1574
3 1573 1574 1402
3 1401 1573 1402
3 1401 1402 1488
3 1487 1401 1488
3 1656 1487 1488
3 1656 1488 1657
3 571 1656 1657
3 571 1657 572
3 571 572 396
3 395 571 396
3 571 395 485
3 1401 1487 1656
3 1573 1401 1656
3 657 1573 1656
3 571 485 657
3 1656 571 657
3 570 394 484
3 1400 1486 1655
3 1572 1400 1655
3 656 1572 1655
3 570 484 656
3 1655 570 656
3 570 394 484
3 1400 1486 1655
3 1572 1400 1655
3 656 1572 1655
3 570 484 656
3 1655 570 656
3 393 394 484
3 483 393 484
3 655 483 484
3 655 484 656
3 655 656 1572
3 1571 655 1572
3 1571 1572 1400
3 1399 1571 1400
3 1399 1400 1486
3 1485 1399 1486
3 1654 1485 1486
3 1654 1486 1655
3 569 1654 1655
3 569 1655 570
3 569 570 394
3 393 569 394
3 569 393 483
3 1399 1485 1654
3 1571 1399 1654
3 655 1571 1654
3 569 483 655
3 1654 569 655
3 568 392 482
3 1398 1484 1653
3 1570 1398 1653
3 654 1570 1653
3 568 482 654
3 1653 568 654
3 568 392 482
3 1398 1484 1653
3 1570 1398 1653
3 654 1570 1653
3 568 482 654
3 1653 568 654
3 391 392 482
3 481 391 482
3 653 481 482
3 653 482 654
3 653 654 1570
3 1569 653 1570
3 1569 1570 1398
3 1397 1569 1398
3 1397 1398 1484
3 1483 1397 1484
3 1652 1483 1484
3 1652 1484 1653
3 567 1652 1653
3 567 1653 568
3 567 568 392
3 391 567 392
3 567 391 481
3 1397 1483 1652
3 1569 1397 1652
3 653 1569 1652
3 567 481 653
3 1652 567 653
3 566 390 480
3 1396 1482 1651
3 1568 1396 1651
3 652 1568 1651
3 566 480 652
3 1651 566 652
3 566 390 480
3 1396 1482 1651
3 1568 1396 1651
3 652 1568 1651
3 566 480 652
3 1651 566 652
3 389 390 480
3 479 389 480
3 651 479 480
3 651 480 652
3 651 652 1568
3 1567 651 1568
3 1567 1568 1396
3 1395 1567 1396
3 1395 1396 1482
3 1481 1395 1482
3 1650 1481 1482
3 1650 1482 1651
3 565 1650 1651
3 565 1651 566
3 565 566 390
3 389 565 390
3 565 389 479
3 1395 1481 1650
3 1567 1395 1650
3 651 1567 1650
3 565 479 651
3 1650 565 651
3 564 388 478
3 1394 1480 1649
3 1566 1394 1649
3 650 1566 1649
3 564 478 650
3 1649 564 650
3 564 388 478
3 1394 1480 1649
3 1566 1394 1649
3 650 1566 1649
3 564 478 650
3 1649 564 650
3 387 388 478
3 477 387 478
3 649 477 478
3 649 478 650
3 649 650 1566
3 1565 649 1566
3 1565 1566 1394
3 1393 1565 1394
3 1393 1394 1480
3 1479 1393 1480
3 1648 1479 1480
3 1648 1480 1649
3 563 1648 1649
3 563 1649 564
3 563 564 388
3 387 563 388
3 563 387 477
3 1393 1479 1648
3 1565 1393 1648
3 649 1565 1648
3 563 477 649
3 1648 563 649
3 562 386 476
3 1392 1478 1647
3 1564 1392 1647
3 648 1564 1647
3 562 476 648
3 1647 562 648
3 562 386 476
3 1392 1478 1647
3 1564 1392 1647
3 648 1564 1647
3 562 476 648
3 1647 562 648
3 385 386 476
3 475 385 476
3 647 475 476
3 647 476 648
3 647 648 1564
3 1563 647 1564
3 1563 1564 1392
3 1391 1563 1392
3 1391 1392 1478
3 1477 1391 1478
3 1646 1477 1478
3 1646 1478 1647
3 561 1646 1647
3 561 1647 562
3 561 562 386
3 385 561 386
3 561 385 475
3 1391 1477 1646
3 1563 1391 1646
3 647 1563 1646
3 561 475 647
3 1646 561 647
3 560 384 474
3 1390 1476 1645
3 1562 1390 1645
3 646 1562 1645
3 560 474 646
3 1645 560 646
3 560 384 474
3 1390 1476 1645
3 1562 1390 1645
3 646 1562 1645
3 560 474 646
3 1645 560 646
3 383 384 474
3 473 383 474
3 645 473 474
3 645 474 646
3 645 646 1562
3 1561 645 1562
3 1561 1562 1390
3 1389 1561 1390
3 1389 1390 1476
3 1475 1389 1476
3 1644 1475 1476
3 1644 1476 1645
3 559 1644 1645
3 559 1645 560
3 559 560 384
3 383 559 384
3 559 383 473
3 1389 1475 1644
3 1561 1389 1644
3 645 1561 1644
3 559 473 645
3 1644 559 645
3 558 382 472
3 1388 1474 1643
3 1560 1388 1643
3 644 1560 1643
3 558 472 644
3 1643 558 644
3 558 382 472
3 1388 1474 1643
3 1560 1388 1643
3 644 1560 1643
3 558 472 644
3 1643 558 644
3 381 382 472
3 471 381 472
3 643 471 472
3 643 472 644
3 643 644 1560
3 1559 643 1560
3 1559 1560 1388
3 1387 1559 1388
3 1387 1388 1474
3 1473 1387 1474
3 1642 1473 1474
3 1642 1474 1643
3 557 1642 1643
3 557 1643 558
3 557 558 382
3 381 557 382
3 557 381 471
3 1387 1473 1642
3 1559 1387 1642
3 643 1559 1642
3 557 471 643
3 1642 557 643
3 556 380 470
3 1386 1472 1641
3 1558 1386 1641
3 642 1558 1641
3 556 470 642
3 1641 556 642
3 556 380 470
3 1386 1472 1641
3 1558 1386 1641
3 642 1558 1641
3 556 470 642
3 1641 556 642
3 379 380 470
3 469 379 470
3 641 469 470
3 641 470 642
3 641 642 1558
3 1557 641 1558
3 1557 1558 1386
3 1385 1557 1386
3 1385 1386 1472
3 1471 1385 1472
3 1640 1471 1472
3 1640 1472 1641
3 555 1640 1641
3 555 1641 556
3 555 556 380
3 379 555 380
3 555 379 469
3 1385 1471 1640
3 1557 1385 1640
3 641 1557 1640
3 555 469 641
3 1640 555 641
3 554 378 468
3 1384 1470 1639
3 1556 1384 1639
3 640 1556 1639
3 554 468 640
3 1639 554 640
3 554 378 468
3 1384 1470 1639
3 1556 1384 1639
3 640 1556 1639
3 554 468 640
3 1639 554 640
3 377 378 468
3 467 377 468
3 639 467 468
3 639 468 640
3 639 640 1556
3 1555 639 1556
3 1555 1556 1384
3 1383 1555 1384
3 1383 1384 1470
3 1469 1383 1470
3 1638 1469 1470
3 1638 1470 1639
3 553 1638 1639
3 553 1639 554
3 553 554 378
3 377 553 378
3 553 377 467
3 1383 1469 1638
3 1555 1383 1638
3 639 1555 1638
3 553 467 639
3 1638 553 639
3 552 376 466
3 1382 1468 1637
3 1554 1382 1637
3 638 1554 1637
3 552 466 638
3 1637 552 638
3 552 376 466
3 1382 1468 1637
3 1554 1382 1637
3 638 1554 1637
3 552 466 638
3 1637 552 638
3 375 376 466
3 465 375 466
3 637 465 466
3 637 466 638
3 637 638 1554
3 1553 637 1554
3 1553 1554 1382
3 1381 1553 1382
3 1381 1382 1468
3 1467 1381 1468
3 1636 1467 1468
3 1636 1468 1637
3 551 1636 1637
3 551 1637 552
3 551 552 376
3 375 551 376
3 551 375 465
3 1381 1467 1636
3 1553 1381 1636
3 637 1553 1636
3 551 465 637
3 1636 551 637
3 551 375 465
3 1381 1467 1636
3 1553 1381 1636
3 637 1553 1636
3 551 465 637
3 1636 551 637
3 550 374 464
3 1380 1466 1635
3 1552 1380 1635
3 636 1552 1635
3 550 464 636
3 1635 550 636
3 373 374 464
3 463 373 464
3 635 463 464
3 635 464 636
3 635 636 1552
3 1551 635 1552
3 1551 1552 1380
3 1379 1551 1380
3 1379 1380 1466
3 1465 1379 1466
3 1634 1465 1466
3 1634 1466 1635
3 549 1634 1635
3 549 1635 550
3 549 550 374
3 373 549 374
3 549 373 463
3 1379 1465 1634
3 1551 1379 1634
3 635 1551 1634
3 549 463 635
3 1634 549 635
3 548 372 462
3 1378 1464 1633
3 1550 1378 1633
3 634 1550 1633
3 548 462 634
3 1633 548 634
3 371 372 462
3 461 371 462
3 633 461 462
3 633 462 634
3 633 634 1550
3 1549 633 1550
3 1549 1550 1378
3 1377 1549 1378
3 1377 1378 1464
3 1463 1377 1464
3 1632 1463 1464
3 1632 1464 1633
3 547 1632 1633
3 547 1633 548
3 547 548 372
3 371 547 372
3 547 371 461
3 1377 1463 1632
3 1549 1377 1632
3 633 1549 1632
3 547 461 633
3 1632 547 633
3 546 370 460
3 1376 1462 1631
3 1548 1376 1631
3 632 1548 1631
3 546 460 632
3 1631 546 632
3 369 370 460
3 459 369 460
3 631 459 460
3 631 460 632
3 631 632 1548
3 1547 631 1548
3 1547 1548 1376
3 1375 1547 1376
3 1375 1376 1462
3 1461 1375 1462
3 1630 1461 1462
3 1630 1462 1631
3 545 1630 1631
3 545 1631 546
3 545 546 370
3 369 545 370
3 545 369 459
3 1375 1461 1630
3 1547 1375 1630
3 631 1547 1630
3 545 459 631
3 1630 545 631
3 352 5 338
3 722 352 338
3 720 722 338
3 748 720 338
3 716 748 338
3 350 716 338
3 348 350 338
3 253 348 338
3 352 5 338
3 722 352 338
3 720 722 338
3 748 720 338
3 716 748 338
3 350 716 338
3 348 350 338
3 253 348 338
3 6 5 352
3 353 6 352
3 723 353 352
3 723 352 722
3 721 723 722
3 721 722 720
3 749 721 720
3 749 720 748
3 717 749 748
3 717 748 716
3 717 716 350
3 351 717 350
3 349 351 350
3 349 350 348
3 349 348 253
3 254 349 253
3 254 253 338
3 339 254 338
3 339 338 5
3 6 339 5
3 353 6 339
3 723 353 339
3 721 723 339
3 749 721 339
3 717 749 339
3 351 717 339
3 349 351 339
3 254 349 339
3 1739 1777 1780
3 1746 1739 1780
3 1369 1746 1780
3 1353 1367 1369
3 1721 1353 1369
3 817 758 1721
3 1791 817 1721
3 1787 1791 1721
3 1780 1787 1721
3 1369 1780 1721
3 1739 1777 1780
3 1746 1739 1780
3 1369 1746 1780
3 1353 1367 1369
3 1721 1353 1369
3 817 758 1721
3 1791 817 1721
3 1787 1791 1721
3 1780 1787 1721
3 1369 1780 1721
3 1778 1777 1739
3 1740 1778 1739
3 1740 1739 1746
3 1747 1740 1746
3 1747 1746 1369
3 1370 1747 1369
3 1368 1370 1369
3 1368 1369 1367
3 1368 1367 1353
3 1354 1368 1353
3 1354 1353 1721
3 1722 1354 1721
3 1722 1721 758
3 759 1722 758
3 759 758 817
3 818 759 817
3 1792 818 817
3 1792 817 1791
3 1788 1792 1791
3 1788 1791 1787
3 1788 1787 1780
3 1781 1788 1780
3 1778 1781 1780
3 1778 1780 1777
3 1740 1778 1781
3 1747 1740 1781
3 1370 1747 1781
3 1354 1368 1370
3 1722 1354 1370
3 818 759 1722
3 1792 818 1722
3 1788 1792 1722
3 1781 1788 1722
3 1370 1781 1722
3 846 844 848
3 850 846 848
3 876 874 878
3 880 876 878
3 902 900 904
3 906 902 904
3 933 931 935
3 942 933 935
3 971 967 973
3 975 971 973
3 1359 1355 1361
3 1365 1359 1361
3 1732 1728 1734
3 1741 1732 1734
3 1754 1752 1756
3 1760 1754 1756
3 1768 1766 1770
3 1774 1768 1770
3 961 923 940
3 984 961 940
3 926 966 962
3 924 926 962
3 980 938 941
3 985 980 941
3 779 778 784
3 785 779 784
3 785 784 761
3 762 785 761
3 751 762 761
3 751 761 750
3 779 751 750
3 779 750 778
3 753 752 754
3 755 753 754
3 755 754 746
3 747 755 746
3 745 747 746
3 745 746 744
3 753 745 744
3 753 744 752
3 741 740 742
3 743 741 742
3 743 742 728
3 729 743 728
3 725 729 728
3 725 728 724
3 741 725 724
3 741 724 740
3 715 714 718
3 719 715 718
3 719 718 543
3 544 719 543
3 452 544 543
3 452 543 451
3 715 452 451
3 715 451 714
3 363 362 364
3 365 363 364
3 365 364 346
3 347 365 346
3 345 347 346
3 345 346 344
3 363 345 344
3 363 344 362
3 823 822 824
3 825 823 824
3 825 824 820
3 821 825 820
3 816 821 820
3 816 820 815
3 823 816 815
3 823 815 822
3 733 737 736
3 733 736 732
3 760 733 732
3 760 732 758
3 760 758 817
3 819 760 817
3 819 817 762
3 763 819 762
3 10 763 762
3 10 762 9
3 737 10 9
3 737 9 736
3 1783 1782 1784
3 1785 1783 1784
3 1785 1784 1748
3 1749 1785 1748
3 1727 1749 1748
3 1727 1748 1726
3 1783 1727 1726
3 1783 1726 1782
3 849 848 850
3 851 849 850
3 851 850 846
3 847 851 846
3 845 847 846
3 845 846 844
3 849 845 844
3 849 844 848
3 879 878 880
3 881 879 880
3 881 880 876
3 877 881 876
3 875 877 876
3 875 876 874
3 879 875 874
3 879 874 878
3 905 904 906
3 907 905 906
3 907 906 902
3 903 907 902
3 901 903 902
3 901 902 900
3 905 901 900
3 905 900 904
3 936 935 942
3 943 936 942
3 943 942 933
3 934 943 933
3 932 934 933
3 932 933 931
3 936 932 931
3 936 931 935
3 974 973 975
3 976 974 975
3 976 975 971
3 972 976 971
3 968 972 971
3 968 971 967
3 974 968 967
3 974 967 973
3 1362 1361 1365
3 1366 1362 1365
3 1366 1365 1359
3 1360 1366 1359
3 1356 1360 1359
3 1356 1359 1355
3 1362 1356 1355
3 1362 1355 1361
3 1735 1734 1741
3 1742 1735 1741
3 1742 1741 1732
3 1733 1742 1732
3 1729 1733 1732
3 1729 1732 1728
3 1735 1729 1728
3 1735 1728 1734
3 1757 1756 1760
3 1761 1757 1760
3 1761 1760 1754
3 1755 1761 1754
3 1753 1755 1754
3 1753 1754 1752
3 1757 1753 1752
3 1757 1752 1756
3 1771 1770 1774
3 1775 1771 1774
3 1775 1774 1768
3 1769 1775 1768
3 1767 1769 1768
3 1767 1768 1766
3 1771 1767 1766
3 1771 1766 1770
3 983 939 940
3 983 940 984
3 960 983 984
3 960 984 961
3 960 961 923
3 922 960 923
3 922 923 940
3 939 922 940
3 924 962 961
3 924 961 923
3 926 924 923
3 926 923 925
3 966 965 925
3 966 925 926
3 962 961 965
3 962 965 966
3 941 940 984
3 985 941 984
3 985 984 979
3 980 985 979
3 937 979 980
3 938 937 980
3 940 937 938
3 941 940 938
