OFF
315 440 0
0.000 24.063 0.000
0.000 24.063 8.300
0.000 24.063 8.700
0.000 24.063 10.400
0.000 24.063 12.430
0.000 24.063 14.130
0.000 24.063 16.160
0.000 24.063 17.860
0.000 24.063 19.890
0.000 24.063 21.590
0.000 24.063 23.620
0.000 24.063 25.320
0.000 24.063 27.350
0.000 24.063 29.050
0.000 24.063 31.080
0.000 24.063 32.780
0.000 24.063 34.810
0.000 24.063 36.510
0.000 24.063 40.400
0.062 24.029 8.300
0.062 24.029 31.100
0.062 24.029 40.400
6.131 25.898 40.400
6.131 25.898 48.200
6.961 0.991 0.000
6.961 0.991 4.600
7.107 0.513 0.000
7.107 0.513 4.600
7.107 0.513 8.300
7.250 0.034 0.000
7.250 0.034 4.600
7.250 0.034 8.300
7.250 0.034 8.700
7.250 0.034 10.400
7.250 0.034 10.433
7.250 0.034 12.430
7.250 0.034 14.130
7.250 0.034 14.163
7.250 0.034 16.160
7.250 0.034 17.860
7.250 0.034 17.893
7.250 0.034 19.890
7.250 0.034 21.590
7.250 0.034 21.623
7.250 0.034 23.620
7.250 0.034 25.320
7.250 0.034 25.353
7.250 0.034 27.350
7.250 0.034 29.050
7.250 0.034 29.083
7.250 0.034 31.080
7.250 0.034 32.780
7.250 0.034 34.810
7.250 0.034 36.510
7.250 0.034 40.400
7.284 0.096 8.300
7.284 0.096 31.100
7.284 0.096 40.400
7.313 0.000 31.100
7.313 0.000 32.833
7.313 0.000 34.830
7.313 0.000 36.563
7.919 1.280 0.000
7.919 1.280 4.600
8.207 0.322 0.000
8.207 0.322 4.600
9.713 14.027 40.400
9.713 14.027 48.200
12.422 2.624 0.000
12.422 2.624 4.600
12.711 1.666 0.000
12.711 1.666 4.600
13.379 2.912 0.000
13.379 2.912 4.600
13.668 1.955 0.000
13.668 1.955 4.600
18.011 29.453 40.400
18.011 29.453 48.200
18.362 4.401 0.000
18.362 4.401 4.600
18.650 3.444 0.000
18.650 3.444 4.600
19.319 4.690 0.000
19.319 4.690 4.600
19.608 3.732 0.000
19.608 3.732 4.600
21.592 17.582 40.400
21.592 17.582 48.200
24.302 6.178 0.000
24.302 6.178 4.600
24.590 5.221 0.000
24.590 5.221 4.600
25.259 6.467 0.000
25.259 6.467 4.600
25.548 5.510 0.000
25.548 5.510 4.600
26.889 5.910 4.600
26.889 5.910 8.300
27.223 6.532 0.000
27.223 6.532 4.600
27.223 6.532 8.300
27.499 32.115 0.000
27.499 32.115 4.600
27.920 31.267 0.000
27.920 31.267 4.600
27.993 32.383 0.000
27.993 32.383 4.600
27.993 32.383 8.300
28.276 8.496 0.000
28.276 8.496 8.300
28.425 32.517 8.300
28.425 32.517 31.100
28.425 32.517 40.400
28.453 32.577 0.000
28.453 32.577 4.600
28.453 32.577 8.300
28.453 32.577 8.700
28.453 32.577 10.400
28.453 32.577 10.433
28.453 32.577 12.430
28.453 32.577 14.130
28.453 32.577 14.163
28.453 32.577 16.160
28.453 32.577 17.860
28.453 32.577 17.893
28.453 32.577 19.890
28.453 32.577 21.590
28.453 32.577 21.623
28.453 32.577 23.620
28.453 32.577 25.320
28.453 32.577 25.353
28.453 32.577 27.350
28.453 32.577 29.050
28.453 32.577 29.083
28.453 32.577 31.080
28.453 32.577 32.780
28.453 32.577 34.810
28.453 32.577 36.510
28.453 32.577 36.543
28.453 32.577 40.400
28.516 32.544 31.100
28.516 32.544 32.833
28.807 8.318 0.000
28.807 8.318 8.300
28.842 31.656 0.000
28.842 31.656 4.600
29.739 26.802 0.000
29.739 26.802 4.600
29.763 7.812 0.000
29.763 7.812 8.300
29.819 8.151 0.000
29.819 8.151 8.300
30.052 6.854 0.000
30.052 6.854 8.300
30.160 25.954 0.000
30.160 25.954 4.600
30.375 9.635 40.400
30.375 9.635 44.300
30.442 10.597 40.400
30.442 10.597 44.300
30.617 11.404 40.400
30.617 11.404 44.300
30.658 8.134 31.100
30.658 8.134 40.400
30.658 8.134 44.300
30.693 27.263 0.000
30.693 27.263 4.600
30.720 8.100 0.000
30.720 8.100 8.300
30.720 8.100 40.400
30.946 7.177 31.100
30.946 7.177 40.400
30.975 7.081 31.100
30.975 7.081 32.833
30.975 7.081 34.830
30.975 7.081 36.563
30.985 12.291 40.400
30.985 12.291 44.300
31.009 7.143 0.000
31.009 7.143 8.300
31.009 7.143 40.400
31.082 26.342 0.000
31.082 26.342 4.600
31.650 13.245 40.400
31.650 13.245 44.300
32.121 8.572 31.100
32.121 8.572 40.400
32.121 8.572 44.300
32.142 8.526 0.000
32.142 8.526 8.300
32.142 8.526 40.400
32.173 21.027 0.000
32.173 21.027 4.600
32.426 7.619 8.300
32.426 7.619 31.100
32.446 7.573 8.700
32.446 7.573 10.433
32.446 7.573 12.430
32.446 7.573 14.163
32.446 7.573 16.160
32.446 7.573 17.893
32.446 7.573 19.890
32.446 7.573 21.623
32.446 7.573 23.620
32.446 7.573 25.353
32.446 7.573 27.350
32.446 7.573 29.083
32.508 7.539 31.100
32.544 14.035 40.400
32.544 14.035 44.300
32.594 20.179 0.000
32.594 20.179 4.600
32.945 9.073 31.100
32.945 9.073 40.400
32.945 9.073 44.300
32.974 9.032 0.000
32.974 9.032 8.300
32.974 9.032 40.400
33.127 21.489 0.000
33.127 21.489 4.600
33.173 8.031 8.300
33.173 8.031 31.100
33.262 7.955 31.100
33.516 20.568 0.000
33.516 20.568 4.600
33.582 9.598 31.100
33.582 9.598 40.400
33.582 9.598 44.300
33.617 9.563 0.000
33.617 9.563 8.300
33.617 9.563 40.400
33.693 14.623 40.400
33.693 14.623 44.300
33.992 8.620 8.300
33.992 8.620 31.100
34.087 8.548 31.100
34.201 10.332 31.100
34.201 10.332 40.400
34.201 10.332 44.300
34.242 10.304 0.000
34.242 10.304 8.300
34.242 10.304 40.400
34.413 15.713 0.000
34.413 15.713 8.300
34.645 9.272 8.300
34.645 9.272 31.100
34.662 15.242 0.000
34.662 15.242 8.300
34.743 11.361 31.100
34.743 11.361 40.400
34.743 11.361 44.300
34.746 9.206 31.100
34.752 16.346 0.000
34.752 16.346 4.600
34.752 16.346 8.300
34.775 14.895 31.100
34.775 14.895 40.400
34.775 14.895 44.300
34.790 11.343 0.000
34.790 11.343 8.300
34.790 11.343 40.400
34.834 14.865 0.000
34.834 14.865 8.300
34.834 14.865 40.400
35.030 13.809 31.100
35.030 13.809 40.400
35.030 13.809 44.300
35.035 12.517 31.100
35.035 12.517 40.400
35.035 12.517 44.300
35.056 16.912 4.600
35.056 16.912 8.300
35.080 13.815 0.000
35.080 13.815 8.300
35.080 13.815 40.400
35.085 12.511 0.000
35.085 12.511 8.300
35.085 12.511 40.400
35.139 9.938 8.300
35.139 9.938 31.100
35.244 9.878 31.100
35.367 16.175 0.000
35.367 16.175 8.300
35.690 15.280 31.100
35.690 15.280 40.400
35.695 11.049 8.300
35.695 11.049 31.100
35.708 15.238 8.300
35.708 15.238 31.100
35.755 15.254 0.000
35.755 15.254 8.300
35.755 15.254 8.700
35.755 15.254 10.433
35.755 15.254 12.430
35.755 15.254 14.163
35.755 15.254 16.160
35.755 15.254 17.893
35.755 15.254 19.890
35.755 15.254 21.623
35.755 15.254 23.620
35.755 15.254 25.353
35.755 15.254 27.350
35.755 15.254 29.083
35.755 15.254 34.810
35.755 15.254 36.543
35.755 15.254 40.400
35.804 10.997 31.100
35.818 15.220 31.100
35.818 15.220 32.833
36.008 12.253 8.300
36.008 12.253 31.100
36.015 13.981 8.300
36.015 13.981 31.100
36.120 12.213 31.100
36.128 13.953 31.100
3 66 22 76
3 86 66 76
3 152 148 167
3 178 152 167
3 289 261 242
3 281 289 242
3 67 23 77
3 87 67 77
3 291 292 118
3 116 291 118
3 32 195 196
3 32 196 34
3 293 294 121
3 119 293 121
3 35 197 198
3 35 198 37
3 295 296 124
3 122 295 124
3 38 199 200
3 38 200 40
3 297 298 127
3 125 297 127
3 41 201 202
3 41 202 43
3 299 300 130
3 128 299 130
3 44 203 204
3 44 204 46
3 301 302 133
3 131 301 133
3 47 205 206
3 47 206 49
3 307 308 141
3 140 307 141
3 58 172 173
3 58 173 59
3 303 304 138
3 136 303 138
3 58 20 140
3 207 58 140
3 222 207 140
3 235 222 140
3 251 235 140
3 280 251 140
3 306 280 140
3 313 306 140
3 314 313 140
3 307 314 140
3 180 54 18
3 169 180 18
3 190 169 18
3 217 190 18
3 230 217 18
3 241 230 18
3 260 241 18
3 277 260 18
3 274 277 18
3 263 274 18
3 305 263 18
3 139 305 18
3 60 174 175
3 60 175 61
3 231 256 265
3 208 231 265
3 183 208 265
3 176 183 265
3 160 176 265
3 158 160 265
3 156 158 265
3 163 156 265
3 186 163 265
3 213 186 265
3 226 213 265
3 237 226 265
3 249 237 265
3 268 249 265
3 231 256 265
3 208 231 265
3 183 208 265
3 176 183 265
3 160 176 265
3 158 160 265
3 156 158 265
3 213 186 163
3 226 213 163
3 237 226 163
3 249 237 163
3 268 249 163
3 265 268 163
3 156 265 163
3 257 256 231
3 232 257 231
3 232 231 208
3 209 232 208
3 209 208 183
3 184 209 183
3 184 183 176
3 177 184 176
3 177 176 160
3 161 177 160
3 161 160 158
3 159 161 158
3 159 158 156
3 157 159 156
3 157 156 163
3 164 157 163
3 187 164 163
3 187 163 186
3 214 187 186
3 214 186 213
3 227 214 213
3 227 213 226
3 238 227 226
3 238 226 237
3 250 238 237
3 250 237 249
3 269 250 249
3 269 249 268
3 266 269 268
3 266 268 265
3 257 266 265
3 257 265 256
3 232 257 266
3 209 232 266
3 184 209 266
3 177 184 266
3 161 177 266
3 159 161 266
3 157 159 266
3 214 187 164
3 227 214 164
3 238 227 164
3 250 238 164
3 269 250 164
3 266 269 164
3 157 266 164
3 26 0 105
3 98 26 105
3 108 98 105
3 142 108 105
3 150 142 105
3 167 150 105
3 188 167 105
3 215 188 105
3 228 215 105
3 239 228 105
3 258 239 105
3 275 258 105
3 272 275 105
3 246 261 272
3 242 246 272
3 105 252 242
3 272 105 242
3 1 0 26
3 28 1 26
3 100 28 26
3 100 26 98
3 109 100 98
3 109 98 108
3 143 109 108
3 143 108 142
3 151 143 142
3 151 142 150
3 168 151 150
3 168 150 167
3 189 168 167
3 189 167 188
3 216 189 188
3 216 188 215
3 229 216 215
3 229 215 228
3 240 229 228
3 240 228 239
3 259 240 239
3 259 239 258
3 276 259 258
3 276 258 275
3 273 276 275
3 273 275 272
3 262 273 272
3 262 272 261
3 247 262 261
3 247 261 246
3 243 247 246
3 243 246 242
3 254 243 242
3 254 242 252
3 107 254 252
3 107 252 105
3 107 105 0
3 1 107 0
3 28 1 107
3 100 28 107
3 109 100 107
3 143 109 107
3 151 143 107
3 168 151 107
3 189 168 107
3 216 189 107
3 229 216 107
3 240 229 107
3 259 240 107
3 276 259 107
3 273 276 107
3 247 262 273
3 243 247 273
3 107 254 243
3 273 107 243
3 114 270 253
3 106 114 253
3 114 270 253
3 106 114 253
3 115 271 270
3 115 270 114
3 115 114 106
3 107 115 106
3 107 106 253
3 254 107 253
3 271 254 253
3 271 253 270
3 115 271 254
3 107 115 254
3 289 261 242
3 281 289 242
3 290 262 261
3 290 261 289
3 282 290 289
3 282 289 281
3 282 281 242
3 243 282 242
3 243 242 261
3 262 243 261
3 290 262 243
3 282 290 243
3 223 210 191
3 218 223 191
3 223 210 191
3 218 223 191
3 224 211 210
3 224 210 223
3 219 224 223
3 219 223 218
3 219 218 191
3 192 219 191
3 192 191 210
3 211 192 210
3 224 211 192
3 219 224 192
3 181 154 146
3 165 181 146
3 182 155 154
3 182 154 181
3 166 182 181
3 166 181 165
3 166 165 146
3 147 166 146
3 147 146 154
3 155 147 154
3 182 155 147
3 166 182 147
3 144 103 101
3 113 144 101
3 145 104 103
3 145 103 144
3 114 145 144
3 114 144 113
3 114 113 101
3 102 114 101
3 102 101 103
3 104 102 103
3 145 104 102
3 114 145 102
3 30 27 99
3 96 30 99
3 30 27 99
3 96 30 99
3 28 27 30
3 31 28 30
3 97 31 30
3 97 30 96
3 100 97 96
3 100 96 99
3 100 99 27
3 28 100 27
3 31 28 100
3 97 31 100
3 152 148 167
3 178 152 167
3 149 148 152
3 153 149 152
3 179 153 152
3 179 152 178
3 168 179 178
3 168 178 167
3 168 167 148
3 149 168 148
3 153 149 168
3 179 153 168
3 90 88 92
3 94 90 92
3 90 88 92
3 94 90 92
3 89 88 90
3 91 89 90
3 95 91 90
3 95 90 94
3 93 95 94
3 93 94 92
3 93 92 88
3 89 93 88
3 91 89 93
3 95 91 93
3 80 78 82
3 84 80 82
3 79 78 80
3 81 79 80
3 85 81 80
3 85 80 84
3 83 85 84
3 83 84 82
3 83 82 78
3 79 83 78
3 81 79 83
3 85 81 83
3 70 68 72
3 74 70 72
3 69 68 70
3 71 69 70
3 75 71 70
3 75 70 74
3 73 75 74
3 73 74 72
3 73 72 68
3 69 73 68
3 71 69 73
3 75 71 73
3 29 24 62
3 64 29 62
3 25 24 29
3 30 25 29
3 65 30 29
3 65 29 64
3 63 65 64
3 63 64 62
3 63 62 24
3 25 63 24
3 30 25 63
3 65 30 63
3 117 3 2
3 117 2 116
3 32 2 3
3 32 3 33
3 120 5 4
3 120 4 119
3 35 4 5
3 35 5 36
3 123 7 6
3 123 6 122
3 38 6 7
3 38 7 39
3 126 9 8
3 126 8 125
3 41 8 9
3 41 9 42
3 129 11 10
3 129 10 128
3 44 10 11
3 44 11 45
3 132 13 12
3 132 12 131
3 47 12 13
3 47 13 48
3 135 15 14
3 135 14 134
3 50 14 15
3 50 15 51
3 137 17 16
3 137 16 136
3 52 16 17
3 52 17 53
3 87 67 66
3 87 66 86
3 77 87 86
3 77 86 76
3 77 76 22
3 23 77 22
3 23 22 66
3 67 23 66
3 111 110 287
3 288 111 287
3 288 287 311
3 312 288 311
3 312 311 309
3 310 312 309
3 310 309 285
3 286 310 285
3 286 285 278
3 279 286 278
3 279 278 244
3 245 279 244
3 245 244 233
3 234 245 233
3 234 233 220
3 221 234 220
3 221 220 193
3 194 221 193
3 194 193 55
3 56 194 55
3 20 56 55
3 20 55 19
3 111 20 19
3 111 19 110
3 112 21 20
3 112 20 111
3 112 111 283
3 284 112 283
3 284 283 255
3 256 284 255
3 256 255 264
3 265 256 264
3 265 264 267
3 268 265 267
3 268 267 248
3 249 268 248
3 249 248 236
3 237 249 236
3 237 236 225
3 226 237 225
3 226 225 212
3 213 226 212
3 213 212 185
3 186 213 185
3 186 185 162
3 163 186 162
3 163 162 170
3 171 163 170
3 171 170 56
3 57 171 56
3 21 57 56
3 21 56 20
