OFF
838 1059 0
0.000 11.274 0.000
0.001 11.275 0.000
0.027 11.192 8.300
1.465 6.544 11.000
1.956 4.959 11.000
3.430 0.191 0.000
3.430 0.191 8.300
3.489 0.000 0.000
3.489 0.000 8.300
4.897 15.541 0.000
4.897 15.541 3.300
4.977 0.671 1.800
4.977 0.671 2.350
4.977 0.671 2.450
4.977 0.671 3.000
4.977 0.671 3.100
4.977 0.671 3.650
4.977 0.671 3.750
4.977 0.671 4.300
4.977 0.671 5.400
4.977 0.671 5.950
4.977 0.671 6.050
4.977 0.671 6.600
4.977 0.671 6.700
4.977 0.671 7.250
4.977 0.671 7.350
4.977 0.671 7.900
5.007 0.576 2.350
5.007 0.576 2.450
5.007 0.576 3.000
5.007 0.576 3.100
5.007 0.576 3.650
5.007 0.576 3.750
5.007 0.576 5.950
5.007 0.576 6.050
5.007 0.576 6.600
5.007 0.576 6.700
5.007 0.576 7.250
5.007 0.576 7.350
5.036 0.480 1.800
5.036 0.480 4.300
5.036 0.480 5.400
5.036 0.480 7.900
5.454 0.820 1.800
5.454 0.820 4.300
5.454 0.820 5.400
5.454 0.820 7.900
5.484 0.724 1.800
5.484 0.724 4.300
5.484 0.724 5.400
5.484 0.724 7.900
5.550 0.849 1.800
5.550 0.849 4.300
5.550 0.849 5.400
5.550 0.849 7.900
5.579 0.754 1.800
5.579 0.754 4.300
5.579 0.754 5.400
5.579 0.754 7.900
5.672 13.036 0.000
5.672 13.036 3.300
5.674 13.037 3.298
6.027 0.998 1.800
6.027 0.998 2.350
6.027 0.998 2.450
6.027 0.998 3.000
6.027 0.998 3.100
6.027 0.998 3.650
6.027 0.998 3.750
6.027 0.998 4.300
6.027 0.998 5.400
6.027 0.998 5.950
6.027 0.998 6.050
6.027 0.998 6.600
6.027 0.998 6.700
6.027 0.998 7.250
6.027 0.998 7.350
6.027 0.998 7.900
6.057 0.902 2.350
6.057 0.902 2.450
6.057 0.902 3.000
6.057 0.902 3.100
6.057 0.902 3.650
6.057 0.902 3.750
6.057 0.902 5.950
6.057 0.902 6.050
6.057 0.902 6.600
6.057 0.902 6.700
6.057 0.902 7.250
6.057 0.902 7.350
6.075 1.012 8.300
6.087 0.807 1.800
6.087 0.807 4.300
6.087 0.807 5.400
6.087 0.807 7.900
6.134 0.821 8.300
6.716 16.106 4.800
7.506 13.562 4.800
7.555 1.472 1.800
7.555 1.472 2.350
7.555 1.472 2.450
7.555 1.472 3.000
7.555 1.472 3.100
7.555 1.472 3.650
7.555 1.472 3.750
7.555 1.472 4.300
7.555 1.472 5.400
7.555 1.472 5.950
7.555 1.472 6.050
7.555 1.472 6.600
7.555 1.472 6.700
7.555 1.472 7.250
7.555 1.472 7.350
7.555 1.472 7.900
7.585 1.377 2.350
7.585 1.377 2.450
7.585 1.377 3.000
7.585 1.377 3.100
7.585 1.377 3.650
7.585 1.377 3.750
7.585 1.377 5.950
7.585 1.377 6.050
7.585 1.377 6.600
7.585 1.377 6.700
7.585 1.377 7.250
7.585 1.377 7.350
7.615 1.281 1.800
7.615 1.281 4.300
7.615 1.281 5.400
7.615 1.281 7.900
8.033 1.620 1.800
8.033 1.620 4.300
8.033 1.620 5.400
8.033 1.620 7.900
8.062 1.525 1.800
8.062 1.525 4.300
8.062 1.525 5.400
8.062 1.525 7.900
8.128 1.650 1.800
8.128 1.650 4.300
8.128 1.650 5.400
8.128 1.650 7.900
8.158 1.555 1.800
8.158 1.555 4.300
8.158 1.555 5.400
8.158 1.555 7.900
8.606 1.798 1.800
8.606 1.798 2.350
8.606 1.798 2.450
8.606 1.798 3.000
8.606 1.798 3.100
8.606 1.798 3.650
8.606 1.798 3.750
8.606 1.798 4.300
8.606 1.798 5.400
8.606 1.798 5.950
8.606 1.798 6.050
8.606 1.798 6.600
8.606 1.798 6.700
8.606 1.798 7.250
8.606 1.798 7.350
8.606 1.798 7.900
8.635 1.703 2.350
8.635 1.703 2.450
8.635 1.703 3.000
8.635 1.703 3.100
8.635 1.703 3.650
8.635 1.703 3.750
8.635 1.703 5.950
8.635 1.703 6.050
8.635 1.703 6.600
8.635 1.703 6.700
8.635 1.703 7.250
8.635 1.703 7.350
8.665 1.607 1.800
8.665 1.607 4.300
8.665 1.607 5.400
8.665 1.607 7.900
8.678 16.716 0.000
8.678 16.716 3.300
9.482 14.129 0.000
9.482 14.129 3.300
9.692 7.442 11.000
10.086 2.258 9.500
10.090 2.259 9.465
10.090 2.259 9.535
10.101 2.262 9.431
10.101 2.262 9.569
10.119 2.268 9.397
10.119 2.268 9.603
10.144 2.276 9.363
10.144 2.276 9.637
10.145 2.067 9.500
10.149 2.068 9.465
10.149 2.068 9.535
10.160 2.072 9.431
10.160 2.072 9.569
10.176 2.286 9.331
10.176 2.286 9.669
10.178 2.077 9.397
10.178 2.077 9.603
10.203 2.085 9.363
10.203 2.085 9.637
10.214 2.298 9.300
10.214 2.298 9.700
10.235 2.095 9.331
10.235 2.095 9.669
10.259 2.312 9.271
10.259 2.312 9.729
10.273 2.107 9.300
10.273 2.107 9.700
10.309 2.327 9.243
10.309 2.327 9.757
10.318 2.121 9.271
10.318 2.121 9.729
10.323 2.332 3.465
10.324 2.332 3.466
10.325 2.332 1.000
10.325 2.332 3.400
10.327 2.333 3.529
10.328 2.333 3.533
10.337 2.336 3.593
10.338 2.336 3.598
10.351 2.340 3.656
10.353 2.341 3.663
10.366 2.345 9.217
10.366 2.345 9.783
10.369 2.136 9.243
10.369 2.136 9.757
10.371 2.346 3.717
10.374 2.347 3.725
10.383 2.141 3.465
10.383 2.141 3.466
10.384 2.141 1.000
10.384 2.141 3.400
10.387 2.142 3.529
10.387 2.142 3.533
10.395 2.354 3.777
10.396 2.145 3.593
10.397 2.145 3.598
10.400 2.355 3.786
10.410 2.149 3.656
10.412 2.150 3.663
10.425 2.154 9.217
10.425 2.154 9.783
10.425 2.363 3.833
10.427 2.364 9.194
10.427 2.364 9.806
10.430 2.155 3.717
10.431 2.365 3.844
10.433 2.156 3.725
10.455 2.163 3.777
10.459 2.164 3.786
10.459 2.374 3.888
10.466 2.376 3.899
10.475 2.379 8.890
10.476 2.379 8.950
10.478 2.380 8.835
10.481 2.381 9.014
10.484 2.172 3.833
10.486 2.173 9.194
10.486 2.173 9.806
10.486 2.382 8.784
10.490 2.174 3.844
10.491 2.384 9.082
10.493 2.384 9.172
10.493 2.384 9.828
10.497 2.385 3.938
10.498 2.386 8.740
10.505 2.388 9.152
10.507 2.389 3.950
10.514 2.391 8.701
10.516 2.391 5.400
10.516 2.391 5.950
10.516 2.391 6.050
10.516 2.391 6.600
10.516 2.391 6.700
10.516 2.391 7.250
10.516 2.391 7.350
10.516 2.391 7.900
10.518 2.183 3.888
10.522 2.393 9.226
10.526 2.185 3.899
10.534 2.188 8.890
10.534 2.397 8.668
10.535 2.188 8.950
10.538 2.189 8.835
10.539 2.399 3.986
10.541 2.190 9.014
10.544 2.400 9.302
10.545 2.191 8.784
10.545 2.296 5.950
10.545 2.296 6.050
10.545 2.296 6.600
10.545 2.296 6.700
10.545 2.296 7.250
10.545 2.296 7.350
10.550 2.193 9.082
10.551 2.402 3.998
10.553 2.193 9.172
10.553 2.193 9.828
10.556 2.195 3.938
10.557 2.195 8.740
10.557 2.404 8.641
10.564 2.197 9.152
10.564 2.406 9.154
10.564 2.406 9.846
10.566 2.198 3.950
10.570 2.408 9.379
10.573 2.200 8.701
10.575 2.200 5.400
10.575 2.200 7.900
10.582 2.202 9.226
10.585 2.413 4.029
10.585 2.413 8.621
10.593 2.206 8.668
10.598 2.208 3.986
10.599 2.417 4.041
10.599 2.417 9.457
10.603 2.209 9.302
10.610 2.211 3.998
10.616 2.423 8.608
10.617 2.213 8.641
10.623 2.215 9.154
10.623 2.215 9.846
10.629 2.217 9.379
10.631 2.427 9.535
10.634 2.428 4.068
10.637 2.429 9.137
10.637 2.429 9.863
10.644 2.222 4.029
10.644 2.222 8.621
10.650 2.433 8.602
10.651 2.433 4.079
10.658 2.226 9.457
10.659 2.226 4.041
10.667 2.438 9.614
10.675 2.232 8.608
10.687 2.444 4.102
10.687 2.445 8.602
10.691 2.236 9.535
10.694 2.237 4.068
10.697 2.238 9.137
10.697 2.238 9.863
10.705 2.450 9.691
10.706 2.450 4.113
10.710 2.242 4.079
10.710 2.242 8.602
10.714 2.453 9.124
10.714 2.453 9.876
10.726 2.247 9.614
10.727 2.457 8.609
10.742 2.462 4.132
10.746 2.254 4.102
10.746 2.463 9.767
10.747 2.254 8.602
10.763 2.468 4.141
10.765 2.259 4.113
10.765 2.259 9.691
10.770 2.470 8.623
10.774 2.262 9.124
10.774 2.262 9.876
10.787 2.266 8.609
10.790 2.477 9.841
10.794 2.478 9.114
10.794 2.478 9.886
10.799 2.479 4.156
10.801 2.271 4.132
10.806 2.272 9.767
10.814 2.484 8.644
10.822 2.277 4.141
10.823 2.487 4.164
10.829 2.279 8.623
10.835 2.491 9.912
10.849 2.286 9.841
10.853 2.287 9.114
10.853 2.287 9.886
10.858 2.288 4.156
10.858 2.498 4.175
10.860 2.498 8.671
10.873 2.293 8.644
10.875 2.503 9.106
10.875 2.503 9.894
10.882 2.296 4.164
10.882 2.505 9.980
10.884 2.506 4.182
10.894 2.300 9.912
10.907 2.513 8.704
10.917 2.307 4.175
10.918 2.516 4.189
10.919 2.307 8.671
10.930 2.520 10.044
10.934 2.312 9.106
10.934 2.312 9.894
10.941 2.314 9.980
10.943 2.315 4.182
10.946 2.525 4.193
10.956 2.528 8.744
10.958 2.529 9.102
10.958 2.529 9.898
10.967 2.322 8.704
10.977 2.325 4.189
10.978 2.535 10.105
10.979 2.535 4.197
10.989 2.329 10.044
10.993 2.540 5.400
10.993 2.540 7.900
11.005 2.334 4.193
11.005 2.543 8.789
11.009 2.545 4.199
11.015 2.337 8.744
11.017 2.338 9.102
11.017 2.338 9.898
11.023 2.444 5.400
11.023 2.444 7.900
11.028 2.550 10.160
11.038 2.344 10.105
11.039 2.344 4.197
11.041 2.555 4.200
11.041 2.555 9.100
11.041 2.555 9.900
11.054 2.559 8.840
11.064 2.352 8.789
11.069 2.354 4.199
11.073 2.564 4.199
11.077 2.566 10.211
11.087 2.359 10.160
11.089 2.569 5.400
11.089 2.569 7.900
11.100 2.364 4.200
11.100 2.364 9.100
11.100 2.364 9.900
11.103 2.574 4.197
11.104 2.574 8.895
11.114 2.368 8.840
11.118 2.474 5.400
11.118 2.474 7.900
11.124 2.580 9.102
11.124 2.580 9.898
11.126 2.581 10.256
11.132 2.373 4.199
11.136 2.375 10.211
11.136 2.584 4.193
11.153 2.589 8.956
11.162 2.383 4.197
11.163 2.383 8.895
11.164 2.593 4.189
11.175 2.596 10.296
11.184 2.389 9.102
11.184 2.389 9.898
11.185 2.390 10.256
11.190 2.601 11.000
11.195 2.393 4.193
11.198 2.603 4.182
11.200 2.604 9.020
11.207 2.606 9.106
11.207 2.606 9.894
11.212 2.398 8.956
11.222 2.611 10.329
11.223 2.402 4.189
11.224 2.611 4.175
11.234 2.405 10.296
11.247 2.619 9.088
11.249 2.410 11.000
11.258 2.412 4.182
11.260 2.413 9.020
11.260 2.622 4.164
11.266 2.415 9.106
11.266 2.415 9.894
11.268 2.625 10.356
11.281 2.420 10.329
11.283 2.630 4.156
11.284 2.421 4.175
11.288 2.631 9.114
11.288 2.631 9.886
11.292 2.633 9.159
11.307 2.428 9.088
11.312 2.639 10.377
11.319 2.431 4.164
11.319 2.641 4.141
11.327 2.434 10.356
11.336 2.646 9.233
11.340 2.648 4.132
11.343 2.439 4.156
11.348 2.440 9.114
11.348 2.440 9.886
11.352 2.442 9.159
11.355 2.652 10.391
11.368 2.656 9.124
11.368 2.656 9.876
11.372 2.448 10.377
11.376 2.659 4.113
11.377 2.659 9.309
11.378 2.450 4.141
11.395 2.455 9.233
11.395 2.664 10.398
11.395 2.665 4.102
11.400 2.457 4.132
11.414 2.461 10.391
11.415 2.671 9.386
11.427 2.465 9.124
11.427 2.465 9.876
11.431 2.676 4.079
11.432 2.676 10.398
11.436 2.468 4.113
11.436 2.468 9.309
11.445 2.680 9.137
11.445 2.680 9.863
11.448 2.681 4.068
11.451 2.682 9.465
11.454 2.473 10.398
11.455 2.474 4.102
11.466 2.687 10.392
11.474 2.480 9.386
11.483 2.692 4.041
11.483 2.692 9.543
11.490 2.485 4.079
11.491 2.485 10.398
11.497 2.696 4.029
11.497 2.696 10.379
11.504 2.489 9.137
11.504 2.489 9.863
11.507 2.490 4.068
11.510 2.491 9.465
11.512 2.701 9.621
11.519 2.703 9.154
11.519 2.703 9.846
11.525 2.496 10.392
11.525 2.705 10.359
11.531 2.707 3.998
11.538 2.709 9.698
11.542 2.501 4.041
11.543 2.501 9.543
11.543 2.710 3.986
11.548 2.712 10.332
11.556 2.505 4.029
11.556 2.505 10.379
11.560 2.716 9.774
11.566 2.718 5.400
11.566 2.718 5.950
11.566 2.718 6.050
11.566 2.718 6.600
11.566 2.718 6.700
11.566 2.718 7.250
11.566 2.718 7.350
11.566 2.718 7.900
11.568 2.718 10.299
11.572 2.510 9.621
11.575 2.720 3.950
11.577 2.721 9.848
11.578 2.512 9.154
11.578 2.512 9.846
11.584 2.514 10.359
11.584 2.723 10.260
11.585 2.724 3.938
11.589 2.725 9.172
11.589 2.725 9.828
11.590 2.516 3.998
11.591 2.725 9.918
11.596 2.622 5.950
11.596 2.622 6.050
11.596 2.622 6.600
11.596 2.622 6.700
11.596 2.622 7.250
11.596 2.622 7.350
11.596 2.727 10.216
11.597 2.518 9.698
11.601 2.728 9.986
11.602 2.520 3.986
11.604 2.729 10.165
11.606 2.730 10.050
11.607 2.730 10.110
11.608 2.521 10.332
11.616 2.733 3.899
11.619 2.525 9.774
11.623 2.735 3.888
11.626 2.527 5.400
11.626 2.527 7.900
11.628 2.527 10.299
11.635 2.530 3.950
11.637 2.530 9.848
11.644 2.532 10.260
11.645 2.533 3.938
11.648 2.534 9.172
11.648 2.534 9.828
11.651 2.534 9.918
11.651 2.744 3.844
11.655 2.536 10.216
11.655 2.745 9.194
11.655 2.745 9.806
11.657 2.746 3.833
11.660 2.537 9.986
11.663 2.538 10.165
11.665 2.539 10.050
11.666 2.539 10.110
11.675 2.542 3.899
11.682 2.754 3.786
11.683 2.544 3.888
11.687 2.755 3.777
11.708 2.762 3.725
11.711 2.553 3.844
11.711 2.763 3.717
11.714 2.554 9.194
11.714 2.554 9.806
11.716 2.764 9.217
11.716 2.764 9.783
11.717 2.555 3.833
11.729 2.768 3.663
11.731 2.769 3.656
11.742 2.563 3.786
11.744 2.773 3.598
11.745 2.773 3.593
11.746 2.564 3.777
11.754 2.776 3.533
11.755 2.776 3.529
11.757 2.777 1.000
11.757 2.777 3.400
11.759 2.777 3.465
11.759 2.777 3.466
11.768 2.571 3.725
11.771 2.572 3.717
11.773 2.782 9.243
11.773 2.782 9.757
11.776 2.573 9.217
11.776 2.573 9.783
11.788 2.577 3.663
11.790 2.578 3.656
11.804 2.582 3.598
11.805 2.582 3.593
11.814 2.585 3.529
11.814 2.585 3.533
11.817 2.586 1.000
11.817 2.586 3.400
11.818 2.586 3.465
11.818 2.586 3.466
11.823 2.798 9.271
11.823 2.798 9.729
11.832 2.591 9.243
11.832 2.591 9.757
11.868 2.811 9.300
11.868 2.811 9.700
11.883 2.607 9.271
11.883 2.607 9.729
11.907 2.823 9.331
11.907 2.823 9.669
11.927 2.620 9.300
11.927 2.620 9.700
11.938 2.833 9.363
11.938 2.833 9.637
11.963 2.841 9.397
11.963 2.841 9.603
11.966 2.632 9.331
11.966 2.632 9.669
11.982 2.847 9.431
11.982 2.847 9.569
11.992 2.850 9.465
11.992 2.850 9.535
11.996 2.851 9.500
11.998 2.642 9.363
11.998 2.642 9.637
12.023 2.650 9.397
12.023 2.650 9.603
12.041 2.656 9.431
12.041 2.656 9.569
12.052 2.659 9.465
12.052 2.659 9.535
12.055 2.660 9.500
13.476 3.311 1.800
13.476 3.311 2.350
13.476 3.311 2.450
13.476 3.311 3.000
13.476 3.311 3.100
13.476 3.311 3.650
13.476 3.311 3.750
13.476 3.311 4.300
13.476 3.311 5.400
13.476 3.311 5.950
13.476 3.311 6.050
13.476 3.311 6.600
13.476 3.311 6.700
13.476 3.311 7.250
13.476 3.311 7.350
13.476 3.311 7.900
13.506 3.215 2.350
13.506 3.215 2.450
13.506 3.215 3.000
13.506 3.215 3.100
13.506 3.215 3.650
13.506 3.215 3.750
13.506 3.215 5.950
13.506 3.215 6.050
13.506 3.215 6.600
13.506 3.215 6.700
13.506 3.215 7.250
13.506 3.215 7.350
13.536 3.120 1.800
13.536 3.120 4.300
13.536 3.120 5.400
13.536 3.120 7.900
13.954 3.459 1.800
13.954 3.459 4.300
13.954 3.459 5.400
13.954 3.459 7.900
13.983 3.364 1.800
13.983 3.364 4.300
13.983 3.364 5.400
13.983 3.364 7.900
14.049 3.489 1.800
14.049 3.489 4.300
14.049 3.489 5.400
14.049 3.489 7.900
14.079 3.393 1.800
14.079 3.393 4.300
14.079 3.393 5.400
14.079 3.393 7.900
14.527 3.637 1.800
14.527 3.637 2.350
14.527 3.637 2.450
14.527 3.637 3.000
14.527 3.637 3.100
14.527 3.637 3.650
14.527 3.637 3.750
14.527 3.637 4.300
14.527 3.637 5.400
14.527 3.637 5.950
14.527 3.637 6.050
14.527 3.637 6.600
14.527 3.637 6.700
14.527 3.637 7.250
14.527 3.637 7.350
14.527 3.637 7.900
14.556 3.542 2.350
14.556 3.542 2.450
14.556 3.542 3.000
14.556 3.542 3.100
14.556 3.542 3.650
14.556 3.542 3.750
14.556 3.542 5.950
14.556 3.542 6.050
14.556 3.542 6.600
14.556 3.542 6.700
14.556 3.542 7.250
14.556 3.542 7.350
14.586 3.446 1.800
14.586 3.446 4.300
14.586 3.446 5.400
14.586 3.446 7.900
15.248 15.919 0.000
15.248 15.919 8.300
16.007 4.097 8.300
16.055 4.112 1.800
16.055 4.112 2.350
16.055 4.112 2.450
16.055 4.112 3.000
16.055 4.112 3.100
16.055 4.112 3.650
16.055 4.112 3.750
16.055 4.112 4.300
16.055 4.112 5.400
16.055 4.112 5.950
16.055 4.112 6.050
16.055 4.112 6.600
16.055 4.112 6.700
16.055 4.112 7.250
16.055 4.112 7.350
16.055 4.112 7.900
16.066 3.906 8.300
16.084 4.016 2.350
16.084 4.016 2.450
16.084 4.016 3.000
16.084 4.016 3.100
16.084 4.016 3.650
16.084 4.016 3.750
16.084 4.016 5.950
16.084 4.016 6.050
16.084 4.016 6.600
16.084 4.016 6.700
16.084 4.016 7.250
16.084 4.016 7.350
16.114 3.921 1.800
16.114 3.921 4.300
16.114 3.921 5.400
16.114 3.921 7.900
16.532 4.260 1.800
16.532 4.260 4.300
16.532 4.260 5.400
16.532 4.260 7.900
16.562 4.164 1.800
16.562 4.164 4.300
16.562 4.164 5.400
16.562 4.164 7.900
16.628 4.290 1.800
16.628 4.290 4.300
16.628 4.290 5.400
16.628 4.290 7.900
16.657 4.194 1.800
16.657 4.194 4.300
16.657 4.194 5.400
16.657 4.194 7.900
16.686 11.271 11.000
17.105 4.438 1.800
17.105 4.438 2.350
17.105 4.438 2.450
17.105 4.438 3.000
17.105 4.438 3.100
17.105 4.438 3.650
17.105 4.438 3.750
17.105 4.438 4.300
17.105 4.438 5.400
17.105 4.438 5.950
17.105 4.438 6.050
17.105 4.438 6.600
17.105 4.438 6.700
17.105 4.438 7.250
17.105 4.438 7.350
17.105 4.438 7.900
17.135 4.342 2.350
17.135 4.342 2.450
17.135 4.342 3.000
17.135 4.342 3.100
17.135 4.342 3.650
17.135 4.342 3.750
17.135 4.342 5.950
17.135 4.342 6.050
17.135 4.342 6.600
17.135 4.342 6.700
17.135 4.342 7.250
17.135 4.342 7.350
17.165 4.247 1.800
17.165 4.247 4.300
17.165 4.247 5.400
17.165 4.247 7.900
17.177 9.685 11.000
18.652 4.918 0.000
18.652 4.918 8.300
18.710 4.727 8.300
18.712 4.727 0.000
18.712 4.727 8.300
3 59 9 178
3 180 59 178
3 836 7 0
3 747 836 0
3 60 10 179
3 181 60 179
3 832 835 748
3 832 748 799
3 181 97 96
3 179 181 96
3 96 97 61
3 10 96 61
3 96 179 10
3 538 272 279
3 545 538 279
3 715 667 674
3 722 715 674
3 800 750 757
3 807 800 757
3 791 783 784
3 792 791 784
3 723 675 682
3 730 723 682
3 808 758 765
3 815 808 765
3 105 98 146
3 105 146 153
3 18 11 62
3 18 62 69
3 113 106 154
3 113 154 161
3 26 19 70
3 26 70 77
3 615 616 218
3 615 218 217
3 218 616 618
3 218 618 613
3 218 613 610
3 218 610 607
3 218 607 599
3 218 599 596
3 218 596 586
3 218 586 573
3 218 573 548
3 218 548 529
3 218 529 514
3 218 514 502
3 218 502 491
3 218 491 479
3 218 479 466
3 218 466 453
3 218 453 442
3 218 442 424
3 218 424 409
3 218 409 396
3 218 396 385
3 218 385 371
3 218 371 356
3 218 356 345
3 218 345 333
3 218 333 317
3 218 317 298
3 218 298 270
3 218 270 254
3 218 254 249
3 218 249 240
3 218 240 230
3 218 230 224
3 218 224 222
3 218 222 220
3 218 220 216
3 234 632 634
3 234 634 630
3 234 630 627
3 234 627 625
3 234 625 619
3 234 619 609
3 234 609 600
3 234 600 595
3 234 595 579
3 234 579 557
3 234 557 531
3 234 531 516
3 234 516 504
3 234 504 493
3 234 493 478
3 234 478 464
3 234 464 452
3 234 452 440
3 234 440 423
3 234 423 407
3 234 407 395
3 234 395 383
3 234 383 370
3 234 370 357
3 234 357 346
3 234 346 335
3 234 335 320
3 234 320 307
3 234 307 282
3 234 282 263
3 234 263 252
3 234 252 250
3 234 250 242
3 234 242 239
3 234 239 236
3 234 236 232
3 234 232 234
3 836 837 8
3 836 8 7
3 40 39 91
3 40 91 92
3 94 93 41
3 42 94 41
3 127 126 174
3 127 174 175
3 177 176 128
3 129 177 128
3 631 632 234
3 631 234 233
3 743 695 696
3 744 743 696
3 746 698 697
3 746 697 745
3 828 779 780
3 829 828 780
3 831 782 781
3 831 781 830
3 576 310 311
3 577 576 311
3 805 755 756
3 806 805 756
3 771 755 805
3 820 771 805
3 821 820 805
3 821 805 806
3 756 806 821
3 772 756 821
3 772 756 755
3 771 772 755
3 821 772 771
3 821 771 820
3 803 753 754
3 804 803 754
3 769 753 803
3 818 769 803
3 819 818 803
3 819 803 804
3 754 804 819
3 770 754 819
3 770 754 753
3 769 770 753
3 819 770 769
3 819 769 818
3 801 751 752
3 802 801 752
3 767 751 801
3 816 767 801
3 817 816 801
3 817 801 802
3 752 802 817
3 768 752 817
3 768 752 751
3 767 768 751
3 817 768 767
3 817 767 816
3 791 783 784
3 792 791 784
3 787 783 791
3 795 787 791
3 796 795 791
3 796 791 792
3 784 792 796
3 788 784 796
3 788 784 783
3 787 788 783
3 796 788 787
3 796 787 795
3 793 785 786
3 794 793 786
3 813 763 764
3 814 813 764
3 777 763 813
3 826 777 813
3 827 826 813
3 827 813 814
3 764 814 827
3 778 764 827
3 778 764 763
3 777 778 763
3 827 778 777
3 827 777 826
3 811 761 762
3 812 811 762
3 775 761 811
3 824 775 811
3 825 824 811
3 825 811 812
3 762 812 825
3 776 762 825
3 776 762 761
3 775 776 761
3 825 776 775
3 825 775 824
3 809 759 760
3 810 809 760
3 773 759 809
3 822 773 809
3 823 822 809
3 823 809 810
3 760 810 823
3 774 760 823
3 774 760 759
3 773 774 759
3 823 774 773
3 823 773 822
3 793 785 786
3 794 793 786
3 789 785 793
3 797 789 793
3 798 797 793
3 798 793 794
3 786 794 798
3 790 786 798
3 790 786 785
3 789 790 785
3 798 790 789
3 798 789 797
3 709 701 702
3 710 709 702
3 728 680 681
3 729 728 681
3 693 680 728
3 741 693 728
3 742 741 728
3 742 728 729
3 681 729 742
3 694 681 742
3 694 681 680
3 693 694 680
3 742 694 693
3 742 693 741
3 726 678 679
3 727 726 679
3 691 678 726
3 739 691 726
3 740 739 726
3 740 726 727
3 679 727 740
3 692 679 740
3 692 679 678
3 691 692 678
3 740 692 691
3 740 691 739
3 724 676 677
3 725 724 677
3 689 676 724
3 737 689 724
3 738 737 724
3 738 724 725
3 677 725 738
3 690 677 738
3 690 677 676
3 689 690 676
3 738 690 689
3 738 689 737
3 709 701 702
3 710 709 702
3 705 701 709
3 713 705 709
3 714 713 709
3 714 709 710
3 702 710 714
3 706 702 714
3 706 702 701
3 705 706 701
3 714 706 705
3 714 705 713
3 707 699 700
3 708 707 700
3 720 672 673
3 721 720 673
3 687 672 720
3 735 687 720
3 736 735 720
3 736 720 721
3 673 721 736
3 688 673 736
3 688 673 672
3 687 688 672
3 736 688 687
3 736 687 735
3 718 670 671
3 719 718 671
3 685 670 718
3 733 685 718
3 734 733 718
3 734 718 719
3 671 719 734
3 686 671 734
3 686 671 670
3 685 686 670
3 734 686 685
3 734 685 733
3 716 668 669
3 717 716 669
3 683 668 716
3 731 683 716
3 732 731 716
3 732 716 717
3 669 717 732
3 684 669 732
3 684 669 668
3 683 684 668
3 732 684 683
3 732 683 731
3 707 699 700
3 708 707 700
3 703 699 707
3 711 703 707
3 712 711 707
3 712 707 708
3 700 708 712
3 704 700 712
3 704 700 699
3 703 704 699
3 712 704 703
3 712 703 711
3 427 405 406
3 428 427 406
3 543 277 278
3 544 543 278
3 295 277 543
3 563 295 543
3 564 563 543
3 564 543 544
3 278 544 564
3 296 278 564
3 296 278 277
3 295 296 277
3 564 296 295
3 564 295 563
3 541 275 276
3 542 541 276
3 293 275 541
3 561 293 541
3 562 561 541
3 562 541 542
3 276 542 562
3 294 276 562
3 294 276 275
3 293 294 275
3 562 294 293
3 562 293 561
3 539 273 274
3 540 539 274
3 291 273 539
3 559 291 539
3 560 559 539
3 560 539 540
3 274 540 560
3 292 274 560
3 292 274 273
3 291 292 273
3 560 292 291
3 560 291 559
3 427 405 406
3 428 427 406
3 413 405 427
3 435 413 427
3 436 435 427
3 436 427 428
3 406 428 436
3 414 406 436
3 414 406 405
3 413 414 405
3 436 414 413
3 436 413 435
3 140 132 133
3 141 140 133
3 159 111 112
3 160 159 112
3 124 111 159
3 172 124 159
3 173 172 159
3 173 159 160
3 112 160 173
3 125 112 173
3 125 112 111
3 124 125 111
3 173 125 124
3 173 124 172
3 157 109 110
3 158 157 110
3 122 109 157
3 170 122 157
3 171 170 157
3 171 157 158
3 110 158 171
3 123 110 171
3 123 110 109
3 122 123 109
3 171 123 122
3 171 122 170
3 155 107 108
3 156 155 108
3 120 107 155
3 168 120 155
3 169 168 155
3 169 155 156
3 108 156 169
3 121 108 169
3 121 108 107
3 120 121 107
3 169 121 120
3 169 120 168
3 140 132 133
3 141 140 133
3 136 132 140
3 144 136 140
3 145 144 140
3 145 140 141
3 133 141 145
3 137 133 145
3 137 133 132
3 136 137 132
3 145 137 136
3 145 136 144
3 53 45 46
3 54 53 46
3 75 24 25
3 76 75 25
3 37 24 75
3 88 37 75
3 89 88 75
3 89 75 76
3 25 76 89
3 38 25 89
3 38 25 24
3 37 38 24
3 89 38 37
3 89 37 88
3 73 22 23
3 74 73 23
3 35 22 73
3 86 35 73
3 87 86 73
3 87 73 74
3 23 74 87
3 36 23 87
3 36 23 22
3 35 36 22
3 87 36 35
3 87 35 86
3 71 20 21
3 72 71 21
3 33 20 71
3 84 33 71
3 85 84 71
3 85 71 72
3 21 72 85
3 34 21 85
3 34 21 20
3 33 34 20
3 85 34 33
3 85 33 84
3 53 45 46
3 54 53 46
3 49 45 53
3 57 49 53
3 58 57 53
3 58 53 54
3 46 54 58
3 50 46 58
3 50 46 45
3 49 50 45
3 58 50 49
3 58 49 57
3 51 43 44
3 52 51 44
3 67 16 17
3 68 67 17
3 31 16 67
3 82 31 67
3 83 82 67
3 83 67 68
3 17 68 83
3 32 17 83
3 32 17 16
3 31 32 16
3 83 32 31
3 83 31 82
3 65 14 15
3 66 65 15
3 29 14 65
3 80 29 65
3 81 80 65
3 81 65 66
3 15 66 81
3 30 15 81
3 30 15 14
3 29 30 14
3 81 30 29
3 81 29 80
3 63 12 13
3 64 63 13
3 27 12 63
3 78 27 63
3 79 78 63
3 79 63 64
3 13 64 79
3 28 13 79
3 28 13 12
3 27 28 12
3 79 28 27
3 79 27 78
3 51 43 44
3 52 51 44
3 47 43 51
3 55 47 51
3 56 55 51
3 56 51 52
3 44 52 56
3 48 44 56
3 48 44 43
3 47 48 43
3 56 48 47
3 56 47 55
3 138 130 131
3 139 138 131
3 151 103 104
3 152 151 104
3 118 103 151
3 166 118 151
3 167 166 151
3 167 151 152
3 104 152 167
3 119 104 167
3 119 104 103
3 118 119 103
3 167 119 118
3 167 118 166
3 149 101 102
3 150 149 102
3 116 101 149
3 164 116 149
3 165 164 149
3 165 149 150
3 102 150 165
3 117 102 165
3 117 102 101
3 116 117 101
3 165 117 116
3 165 116 164
3 147 99 100
3 148 147 100
3 114 99 147
3 162 114 147
3 163 162 147
3 163 147 148
3 100 148 163
3 115 100 163
3 115 100 99
3 114 115 99
3 163 115 114
3 163 114 162
3 138 130 131
3 139 138 131
3 134 130 138
3 142 134 138
3 143 142 138
3 143 138 139
3 131 139 143
3 135 131 143
3 135 131 130
3 134 135 130
3 143 135 134
3 143 134 142
3 182 766 463
3 463 95 182
3 4 8 2
3 4 2 3
3 837 8 4
3 832 837 4
3 832 4 3
3 799 832 3
3 799 3 2
3 748 799 2
3 747 748 837
3 747 837 836
3 1 7 8
3 2 1 8
3 0 747 748
3 0 748 2
3 512 519 528
3 503 512 528
3 495 503 528
3 487 495 528
3 477 487 528
3 469 477 528
3 458 469 528
3 447 458 528
3 439 447 528
3 425 439 528
3 415 425 528
3 402 415 528
3 391 402 528
3 384 391 528
3 373 384 528
3 363 373 528
3 354 363 528
3 344 354 528
3 336 344 528
3 326 336 528
3 318 326 528
3 308 318 528
3 289 308 528
3 281 289 528
3 269 281 528
3 264 269 528
3 258 264 528
3 256 258 528
3 255 256 528
3 257 255 528
3 262 257 528
3 268 262 528
3 271 268 528
3 284 271 528
3 303 284 528
3 314 303 528
3 321 314 528
3 332 321 528
3 339 332 528
3 351 339 528
3 359 351 528
3 369 359 528
3 379 369 528
3 387 379 528
3 397 387 528
3 408 397 528
3 421 408 528
3 433 421 528
3 443 433 528
3 454 443 528
3 462 454 528
3 475 462 528
3 481 475 528
3 492 481 528
3 499 492 528
3 509 499 528
3 515 509 528
3 524 515 528
3 530 524 528
3 537 530 528
3 549 537 528
3 558 549 528
3 567 558 528
3 570 567 528
3 571 570 528
3 569 571 528
3 565 569 528
3 553 565 528
3 546 553 528
3 534 546 528
3 766 95 463
3 527 536 552
3 517 527 552
3 510 517 552
3 498 510 552
3 490 498 552
3 480 490 552
3 470 480 552
3 461 470 552
3 450 461 552
3 441 450 552
3 426 441 552
3 416 426 552
3 404 416 552
3 394 404 552
3 386 394 552
3 374 386 552
3 368 374 552
3 358 368 552
3 350 358 552
3 340 350 552
3 334 340 552
3 325 334 552
3 319 325 552
3 312 319 552
3 304 312 552
3 297 304 552
3 288 297 552
3 285 288 552
3 283 285 552
3 286 283 552
3 290 286 552
3 302 290 552
3 309 302 552
3 315 309 552
3 322 315 552
3 331 322 552
3 337 331 552
3 347 337 552
3 355 347 552
3 362 355 552
3 372 362 552
3 380 372 552
3 390 380 552
3 400 390 552
3 410 400 552
3 422 410 552
3 434 422 552
3 445 434 552
3 457 445 552
3 465 457 552
3 476 465 552
3 486 476 552
3 494 486 552
3 505 494 552
3 513 505 552
3 523 513 552
3 532 523 552
3 547 532 552
3 566 547 552
3 574 566 552
3 580 574 552
3 585 580 552
3 591 585 552
3 593 591 552
3 594 593 552
3 592 594 552
3 587 592 552
3 581 587 552
3 578 581 552
3 572 578 552
3 179 178 180
3 181 179 180
3 181 180 59
3 60 181 59
3 10 60 59
3 10 59 9
3 179 10 9
3 179 9 178
3 77 94 42
3 26 77 42
3 19 26 42
3 19 42 41
3 93 41 19
3 70 93 19
3 154 176 177
3 161 154 177
3 161 177 129
3 113 161 129
3 106 113 129
3 106 129 128
3 176 128 106
3 154 176 106
3 576 310 272
3 538 576 272
3 538 576 577
3 545 538 577
3 545 577 311
3 279 545 311
3 272 279 311
3 272 311 310
3 745 697 675
3 723 745 675
3 723 745 746
3 730 723 746
3 730 746 698
3 682 730 698
3 675 682 698
3 675 698 697
3 830 781 758
3 808 830 758
3 808 830 831
3 815 808 831
3 815 831 782
3 765 815 782
3 758 765 782
3 758 782 781
3 828 779 750
3 800 828 750
3 800 828 829
3 807 800 829
3 807 829 780
3 757 807 780
3 750 757 780
3 750 780 779
3 743 695 667
3 715 743 667
3 715 743 744
3 722 715 744
3 722 744 696
3 674 722 696
3 667 674 696
3 667 696 695
3 632 234 218
3 616 632 218
3 617 633 632
3 617 632 616
3 617 633 629
3 614 617 629
3 614 629 628
3 611 614 628
3 611 628 626
3 608 611 626
3 608 626 620
3 601 608 620
3 601 620 612
3 598 601 612
3 598 612 606
3 590 598 606
3 590 606 597
3 575 590 597
3 575 597 582
3 554 575 582
3 554 582 568
3 533 554 568
3 533 568 535
3 518 533 535
3 518 535 522
3 508 518 522
3 508 522 511
3 496 508 511
3 496 511 497
3 482 496 497
3 482 497 483
3 471 482 483
3 471 483 472
3 460 471 472
3 460 472 459
3 446 460 459
3 446 459 444
3 432 446 444
3 432 444 429
3 418 432 429
3 418 429 417
3 403 418 417
3 403 417 401
3 389 403 401
3 389 401 388
3 378 389 388
3 378 388 377
3 366 378 377
3 366 377 367
3 352 366 367
3 352 367 353
3 338 352 353
3 338 353 341
3 327 338 341
3 327 341 330
3 313 327 330
3 313 330 316
3 287 313 316
3 267 287 316
3 267 316 301
3 253 267 301
3 253 301 280
3 245 253 280
3 245 280 259
3 237 245 259
3 237 259 251
3 229 237 251
3 229 251 248
3 223 229 248
3 223 248 241
3 221 223 241
3 221 241 238
3 219 221 238
3 219 238 235
3 215 219 235
3 215 235 231
3 234 231 215
3 218 234 215
3 217 218 234
3 217 234 233
3 631 233 217
3 615 631 217
3 616 632 631
3 616 631 615
3 616 632 234
3 218 616 234
3 146 174 175
3 153 146 175
3 153 175 127
3 105 153 127
3 98 105 127
3 98 127 126
3 174 126 98
3 146 174 98
3 62 91 92
3 69 62 92
3 69 92 40
3 18 69 40
3 11 18 40
3 11 40 39
3 91 39 11
3 62 91 11
3 837 8 6
3 834 837 6
3 833 834 837
3 833 837 836
3 833 836 7
3 5 833 7
3 5 7 8
3 6 5 8
3 70 93 94
3 77 70 94
3 653 655 664
3 653 664 662
3 649 653 662
3 649 662 660
3 647 649 660
3 647 660 658
3 647 658 651
3 643 647 651
3 643 651 645
3 639 643 645
3 639 645 641
3 635 639 641
3 635 641 637
3 621 635 637
3 621 637 623
3 604 621 623
3 604 623 602
3 588 604 602
3 588 602 583
3 555 588 583
3 555 583 550
3 525 555 550
3 525 550 520
3 506 525 520
3 506 520 500
3 488 506 500
3 488 500 484
3 473 488 484
3 473 484 467
3 455 473 467
3 455 467 448
3 437 455 448
3 437 448 430
3 419 437 430
3 419 430 411
3 398 419 411
3 398 411 392
3 381 398 392
3 381 392 375
3 364 381 375
3 364 375 360
3 348 364 360
3 348 360 342
3 328 348 342
3 328 342 323
3 305 328 323
3 305 323 299
3 265 305 299
3 265 299 260
3 246 265 260
3 246 260 243
3 225 246 243
3 225 243 227
3 211 225 227
3 211 227 213
3 207 211 213
3 207 213 209
3 203 207 209
3 203 209 205
3 197 203 205
3 197 205 201
3 190 197 201
3 190 201 199
3 188 190 199
3 188 199 195
3 186 188 195
3 186 195 193
3 184 186 193
3 184 193 192
3 183 184 192
3 185 194 192
3 185 192 183
3 187 196 194
3 187 194 185
3 189 200 196
3 189 196 187
3 191 202 200
3 191 200 189
3 206 202 191
3 198 206 191
3 210 206 198
3 204 210 198
3 214 210 204
3 208 214 204
3 228 214 208
3 212 228 208
3 244 228 212
3 226 244 212
3 261 244 226
3 247 261 226
3 300 261 247
3 266 300 247
3 324 300 266
3 306 324 266
3 343 324 306
3 329 343 306
3 361 343 329
3 349 361 329
3 376 361 349
3 365 376 349
3 393 376 365
3 382 393 365
3 412 393 382
3 399 412 382
3 431 412 399
3 420 431 399
3 449 431 420
3 438 449 420
3 468 449 438
3 456 468 438
3 485 468 456
3 474 485 456
3 501 485 474
3 489 501 474
3 521 501 489
3 507 521 489
3 551 521 507
3 526 551 507
3 584 551 526
3 556 584 526
3 603 584 556
3 589 603 556
3 624 603 589
3 605 624 589
3 638 624 605
3 622 638 605
3 642 638 622
3 636 642 622
3 646 642 636
3 640 646 636
3 652 646 640
3 644 652 640
3 659 652 644
3 648 659 644
3 661 659 648
3 650 661 648
3 663 661 650
3 654 663 650
3 665 663 654
3 656 665 654
3 666 665 656
3 657 666 656
3 766 95 90
3 749 766 90
3 749 766 463
3 451 749 463
3 451 463 95
3 90 451 95
3 655 657 666
3 655 666 664
