OFF
237 522 0
0.000 19.231 0.000
0.000 19.231 7.500
1.671 13.375 0.000
1.671 13.375 3.900
1.671 13.375 7.500
3.763 17.139 9.600
4.140 20.413 7.500
4.307 4.141 0.000
4.307 4.141 3.900
4.307 4.141 10.100
5.036 15.833 7.500
5.036 15.833 9.400
5.344 2.832 10.100
5.344 2.832 11.100
5.431 14.448 0.000
5.431 14.448 3.900
5.431 14.448 7.500
5.489 0.000 0.000
5.489 0.000 10.100
5.700 1.632 10.100
5.700 1.632 11.100
5.839 2.661 11.100
5.839 2.661 12.500
5.843 2.562 11.100
5.843 2.562 12.500
5.843 2.759 11.100
5.843 2.759 12.500
5.856 2.465 11.100
5.856 2.465 12.500
5.856 2.857 11.100
5.856 2.857 12.500
5.877 2.368 11.100
5.877 2.368 12.500
5.877 2.953 11.100
5.877 2.953 12.500
5.882 2.350 12.500
5.882 2.351 12.612
5.892 2.353 12.723
5.907 2.274 11.100
5.907 2.274 12.500
5.907 3.047 11.100
5.907 3.047 12.500
5.911 2.359 12.833
5.940 2.367 12.941
5.941 3.931 10.100
5.941 3.931 11.100
5.944 2.183 11.100
5.944 2.183 12.500
5.944 3.138 11.100
5.944 3.138 12.500
5.977 2.378 13.045
5.990 2.096 11.100
5.990 2.096 12.500
5.990 3.226 11.100
5.990 3.226 12.500
6.024 2.391 13.146
6.043 2.013 11.100
6.043 2.013 12.500
6.043 3.309 11.100
6.043 3.309 12.500
6.079 2.407 13.242
6.103 1.934 11.100
6.103 1.934 12.500
6.103 3.387 11.100
6.103 3.387 12.500
6.142 2.425 13.333
6.169 1.862 11.100
6.169 1.862 12.500
6.169 3.460 11.100
6.169 3.460 12.500
6.212 2.445 13.417
6.242 1.795 11.100
6.242 1.795 12.500
6.242 3.527 11.100
6.242 3.527 12.500
6.274 11.496 14.200
6.289 2.467 13.494
6.320 1.735 11.100
6.320 1.735 12.500
6.320 3.587 11.100
6.320 3.587 12.500
6.373 2.491 13.564
6.391 16.220 7.500
6.403 1.682 11.100
6.403 1.682 12.500
6.403 3.640 11.100
6.403 3.640 12.500
6.463 2.516 13.626
6.491 1.637 11.100
6.491 1.637 12.500
6.491 3.685 11.100
6.491 3.685 12.500
6.557 2.543 13.679
6.582 1.599 11.100
6.582 1.599 12.500
6.582 3.723 11.100
6.582 3.723 12.500
6.656 2.572 13.724
6.676 1.569 11.100
6.676 1.569 12.500
6.676 3.752 11.100
6.676 3.752 12.500
6.758 2.601 13.759
6.772 1.548 11.100
6.772 1.548 12.500
6.772 3.774 11.100
6.772 3.774 12.500
6.799 1.034 10.100
6.799 1.034 11.100
6.862 2.631 13.784
6.870 1.535 11.100
6.870 1.535 12.500
6.870 3.787 11.100
6.870 3.787 12.500
6.962 21.218 0.000
6.962 21.218 7.500
6.968 1.531 11.100
6.968 1.531 12.500
6.968 2.661 12.500
6.968 2.661 13.800
6.969 3.791 11.100
6.969 3.791 12.500
7.067 1.535 11.100
7.067 1.535 12.500
7.067 3.787 11.100
7.067 3.787 12.500
7.141 4.286 10.100
7.141 4.286 11.100
7.165 1.548 11.100
7.165 1.548 12.500
7.165 3.774 11.100
7.165 3.774 12.500
7.261 1.569 11.100
7.261 1.569 12.500
7.261 3.752 11.100
7.261 3.752 12.500
7.355 1.599 11.100
7.355 1.599 12.500
7.355 3.723 11.100
7.355 3.723 12.500
7.446 1.637 11.100
7.446 1.637 12.500
7.446 3.685 11.100
7.446 3.685 12.500
7.512 7.159 7.500
7.512 7.159 9.400
7.533 1.682 11.100
7.533 1.682 12.500
7.534 3.639 11.100
7.534 3.639 12.500
7.617 1.735 11.100
7.617 1.735 12.500
7.617 3.586 11.100
7.617 3.586 12.500
7.695 1.795 11.100
7.695 1.795 12.500
7.695 3.526 11.100
7.695 3.526 12.500
7.768 1.862 11.100
7.768 1.862 12.500
7.768 3.460 11.100
7.768 3.460 12.500
7.798 18.290 9.600
7.834 1.934 11.100
7.834 1.934 12.500
7.834 3.387 11.100
7.834 3.387 12.500
7.894 2.013 11.100
7.894 2.013 12.500
7.894 3.309 11.100
7.894 3.309 12.500
7.947 2.096 11.100
7.947 2.096 12.500
7.947 3.226 11.100
7.947 3.226 12.500
7.993 2.183 11.100
7.993 2.183 12.500
7.993 3.138 11.100
7.993 3.138 12.500
7.999 1.390 10.100
7.999 1.390 11.100
8.030 2.274 11.100
8.030 2.274 12.500
8.030 3.047 11.100
8.030 3.047 12.500
8.060 2.368 11.100
8.060 2.368 12.500
8.060 2.953 11.100
8.060 2.953 12.500
8.067 5.214 0.000
8.067 5.214 3.900
8.067 5.214 7.500
8.081 2.465 11.100
8.081 2.465 12.500
8.081 2.857 11.100
8.081 2.857 12.500
8.094 2.562 11.100
8.094 2.562 12.500
8.094 2.759 11.100
8.094 2.759 12.500
8.099 2.661 11.100
8.099 2.661 12.500
8.241 3.689 10.100
8.241 3.689 11.100
8.448 5.322 0.000
8.448 5.322 7.500
8.448 5.322 10.100
8.596 2.489 10.100
8.596 2.489 11.100
8.633 15.362 0.000
8.633 15.362 7.500
8.867 7.546 7.500
9.630 1.182 0.000
9.630 1.182 7.500
9.630 1.182 10.100
13.198 13.472 14.200
15.458 4.311 7.500
15.845 2.956 7.500
15.845 2.956 9.400
16.152 13.442 16.000
18.205 11.117 14.200
18.961 12.477 14.200
20.182 4.193 14.200
22.674 25.702 0.000
22.674 25.702 7.500
23.292 18.403 7.500
24.132 6.786 7.500
24.519 5.431 7.500
24.519 5.431 9.400
24.647 18.790 7.500
24.647 18.790 9.400
25.767 9.729 7.500
25.885 14.453 14.200
27.123 10.116 7.500
27.123 10.116 9.400
28.163 6.471 0.000
28.163 6.471 7.500
3 7 2 14
3 189 7 14
3 212 17 7
3 204 212 7
3 189 14 209
3 204 189 209
3 212 204 209
3 235 212 209
3 223 235 209
3 114 223 209
3 198 200 196
3 194 198 196
3 187 194 196
3 183 187 196
3 177 183 196
3 173 177 196
3 169 173 196
3 165 169 196
3 160 165 196
3 156 160 196
3 152 156 196
3 148 152 196
3 142 148 196
3 138 142 196
3 134 138 196
3 130 134 196
3 124 130 196
3 120 124 196
3 112 120 196
3 105 112 196
3 100 105 196
3 95 100 196
3 90 95 196
3 85 90 196
3 79 85 196
3 73 79 196
3 68 73 196
3 63 68 196
3 58 63 196
3 53 58 196
3 48 53 196
3 40 48 196
3 33 40 196
3 29 33 196
3 25 29 196
3 21 25 196
3 23 21 196
3 27 23 196
3 31 27 196
3 38 31 196
3 46 38 196
3 51 46 196
3 56 51 196
3 61 56 196
3 66 61 196
3 71 66 196
3 77 71 196
3 83 77 196
3 88 83 196
3 93 88 196
3 98 93 196
3 103 98 196
3 110 103 196
3 116 110 196
3 122 116 196
3 128 122 196
3 132 128 196
3 136 132 196
3 140 136 196
3 146 140 196
3 150 146 196
3 154 150 196
3 158 154 196
3 163 158 196
3 167 163 196
3 171 167 196
3 175 171 196
3 181 175 196
3 185 181 196
3 192 185 196
3 202 207 179
3 126 202 179
3 44 126 179
3 12 44 179
3 19 12 179
3 107 19 179
3 14 2 0
3 209 14 0
3 114 209 0
3 212 17 7
3 204 212 7
3 214 18 17
3 214 17 212
3 206 214 212
3 206 212 204
3 206 204 7
3 9 206 7
3 9 7 17
3 18 9 17
3 214 18 9
3 206 214 9
3 202 207 179
3 126 202 179
3 44 126 179
3 12 44 179
3 19 12 179
3 107 19 179
3 203 208 207
3 203 207 202
3 203 202 126
3 127 203 126
3 127 126 44
3 45 127 44
3 45 44 12
3 13 45 12
3 13 12 19
3 20 13 19
3 108 20 19
3 108 19 107
3 180 108 107
3 180 107 179
3 208 180 179
3 208 179 207
3 203 208 180
3 127 203 180
3 45 127 180
3 13 45 180
3 20 13 180
3 108 20 180
3 198 200 196
3 194 198 196
3 187 194 196
3 183 187 196
3 177 183 196
3 173 177 196
3 169 173 196
3 165 169 196
3 160 165 196
3 156 160 196
3 152 156 196
3 148 152 196
3 142 148 196
3 138 142 196
3 134 138 196
3 130 134 196
3 124 130 196
3 120 124 196
3 112 120 196
3 105 112 196
3 100 105 196
3 95 100 196
3 90 95 196
3 85 90 196
3 79 85 196
3 73 79 196
3 68 73 196
3 63 68 196
3 58 63 196
3 53 58 196
3 48 53 196
3 40 48 196
3 33 40 196
3 29 33 196
3 25 29 196
3 21 25 196
3 23 21 196
3 27 23 196
3 31 27 196
3 38 31 196
3 46 38 196
3 51 46 196
3 56 51 196
3 61 56 196
3 66 61 196
3 71 66 196
3 77 71 196
3 83 77 196
3 88 83 196
3 93 88 196
3 98 93 196
3 103 98 196
3 110 103 196
3 116 110 196
3 122 116 196
3 128 122 196
3 132 128 196
3 136 132 196
3 140 136 196
3 146 140 196
3 150 146 196
3 154 150 196
3 158 154 196
3 163 158 196
3 167 163 196
3 171 167 196
3 175 171 196
3 181 175 196
3 185 181 196
3 192 185 196
3 199 201 200
3 199 200 198
3 195 199 198
3 195 198 194
3 188 195 194
3 188 194 187
3 184 188 187
3 184 187 183
3 178 184 183
3 178 183 177
3 174 178 177
3 174 177 173
3 170 174 173
3 170 173 169
3 166 170 169
3 166 169 165
3 161 166 165
3 161 165 160
3 161 160 156
3 157 161 156
3 157 156 152
3 153 157 152
3 153 152 148
3 149 153 148
3 149 148 142
3 143 149 142
3 143 142 138
3 139 143 138
3 139 138 134
3 135 139 134
3 135 134 130
3 131 135 130
3 131 130 124
3 125 131 124
3 125 124 120
3 121 125 120
3 121 120 112
3 113 121 112
3 113 112 105
3 106 113 105
3 106 105 100
3 101 106 100
3 101 100 95
3 96 101 95
3 96 95 90
3 91 96 90
3 91 90 85
3 86 91 85
3 86 85 79
3 80 86 79
3 80 79 73
3 74 80 73
3 74 73 68
3 69 74 68
3 69 68 63
3 64 69 63
3 64 63 58
3 59 64 58
3 59 58 53
3 54 59 53
3 54 53 48
3 49 54 48
3 49 48 40
3 41 49 40
3 41 40 33
3 34 41 33
3 34 33 29
3 30 34 29
3 30 29 25
3 26 30 25
3 26 25 21
3 22 26 21
3 22 21 23
3 24 22 23
3 24 23 27
3 28 24 27
3 28 27 31
3 32 28 31
3 32 31 38
3 39 32 38
3 39 38 46
3 47 39 46
3 47 46 51
3 52 47 51
3 52 51 56
3 57 52 56
3 57 56 61
3 62 57 61
3 62 61 66
3 67 62 66
3 72 67 66
3 72 66 71
3 78 72 71
3 78 71 77
3 84 78 77
3 84 77 83
3 89 84 83
3 89 83 88
3 94 89 88
3 94 88 93
3 99 94 93
3 99 93 98
3 104 99 98
3 104 98 103
3 111 104 103
3 111 103 110
3 117 111 110
3 117 110 116
3 123 117 116
3 123 116 122
3 129 123 122
3 129 122 128
3 133 129 128
3 133 128 132
3 137 133 132
3 137 132 136
3 141 137 136
3 141 136 140
3 147 141 140
3 147 140 146
3 151 147 146
3 151 146 150
3 155 151 150
3 155 150 154
3 159 155 154
3 159 154 158
3 164 159 158
3 164 158 163
3 168 164 163
3 168 163 167
3 172 168 167
3 172 167 171
3 176 172 171
3 176 171 175
3 182 176 175
3 182 175 181
3 186 182 181
3 186 181 185
3 193 186 185
3 193 185 192
3 197 193 192
3 197 192 196
3 201 197 196
3 201 196 200
3 199 201 197
3 195 199 197
3 188 195 197
3 184 188 197
3 178 184 197
3 174 178 197
3 170 174 197
3 166 170 197
3 161 166 197
3 157 161 197
3 153 157 197
3 149 153 197
3 143 149 197
3 139 143 197
3 135 139 197
3 131 135 197
3 125 131 197
3 121 125 197
3 113 121 197
3 106 113 197
3 101 106 197
3 96 101 197
3 91 96 197
3 86 91 197
3 80 86 197
3 74 80 197
3 69 74 197
3 64 69 197
3 59 64 197
3 54 59 197
3 49 54 197
3 41 49 197
3 34 41 197
3 30 34 197
3 26 30 197
3 22 26 197
3 24 22 197
3 28 24 197
3 32 28 197
3 39 32 197
3 47 39 197
3 52 47 197
3 57 52 197
3 62 57 197
3 67 62 197
3 72 67 197
3 78 72 197
3 84 78 197
3 89 84 197
3 94 89 197
3 99 94 197
3 104 99 197
3 111 104 197
3 117 111 197
3 123 117 197
3 129 123 197
3 133 129 197
3 137 133 197
3 141 137 197
3 147 141 197
3 151 147 197
3 155 151 197
3 159 155 197
3 164 159 197
3 168 164 197
3 172 168 197
3 176 172 197
3 182 176 197
3 186 182 197
3 193 186 197
3 102 109 119
3 97 102 119
3 92 97 119
3 87 92 119
3 81 87 119
3 76 81 119
3 70 76 119
3 65 70 119
3 60 65 119
3 55 60 119
3 50 55 119
3 43 50 119
3 42 43 119
3 37 42 119
3 36 37 119
3 119 118 35
3 36 119 35
3 189 14 209
3 204 189 209
3 212 204 209
3 235 212 209
3 223 235 209
3 114 223 209
3 210 209 14
3 16 210 14
3 16 14 189
3 191 16 189
3 205 191 189
3 205 189 204
3 205 204 212
3 213 205 212
3 236 213 212
3 236 212 235
3 224 236 235
3 224 235 223
3 224 223 114
3 115 224 114
3 115 114 209
3 210 115 209
3 191 16 210
3 205 191 210
3 213 205 210
3 236 213 210
3 224 236 210
3 115 224 210
3 222 218 217
3 222 217 227
3 222 227 228
3 236 213 219
3 213 6 219
3 219 6 224
3 219 224 236
3 7 2 14
3 189 7 14
3 3 2 7
3 8 3 7
3 190 8 7
3 190 7 189
3 15 190 189
3 15 189 14
3 15 14 2
3 3 15 2
3 8 3 15
3 190 8 15
3 14 2 0
3 209 14 0
3 114 209 0
3 16 4 2
3 16 2 14
3 210 16 14
3 210 14 209
3 115 210 209
3 115 209 114
3 115 114 0
3 1 115 0
3 1 0 2
3 4 1 2
3 16 4 1
3 210 16 1
3 115 210 1
3 5 4 1
3 210 4 5
3 162 210 5
3 5 1 115
3 162 5 115
3 220 222 218
3 222 220 228
3 217 216 220
3 217 220 218
3 228 220 226
3 227 228 226
3 229 233 234
3 230 229 234
3 232 230 234
3 232 234 221
3 230 232 221
3 231 221 234
3 233 231 234
3 229 230 221
3 229 221 225
3 145 144 10
3 145 10 11
3 145 11 75
3 215 75 11
3 75 215 145
3 10 82 215
3 10 215 11
3 145 215 211
3 144 145 211
