OFF
1702 2861 0
0.000 19.912 0.000
0.000 19.912 3.200
0.000 19.912 14.100
0.000 19.912 14.120
0.098 19.938 14.120
0.098 19.938 16.700
0.098 19.938 20.170
0.164 19.693 14.120
0.164 19.693 15.320
0.164 19.693 16.700
0.164 19.693 18.600
0.164 19.693 20.170
0.193 19.964 0.000
0.193 19.964 3.200
0.193 19.964 14.100
0.237 19.712 14.120
0.237 19.712 15.320
0.237 19.712 16.700
0.237 19.712 18.600
0.237 19.712 20.170
0.245 19.771 0.000
0.245 19.771 14.100
0.309 19.732 14.120
0.309 19.732 15.320
0.309 19.732 16.700
0.309 19.732 18.600
0.309 19.732 20.170
0.343 20.004 14.120
0.343 20.004 15.320
0.343 20.004 16.700
0.343 20.004 20.170
0.358 18.587 1.700
0.358 18.587 3.200
0.358 18.587 4.700
0.358 18.587 6.120
0.358 18.587 8.053
0.358 18.587 9.473
0.358 18.587 11.406
0.358 18.587 12.826
0.363 19.932 14.120
0.363 19.932 15.320
0.363 19.932 16.700
0.382 19.859 14.120
0.382 19.859 15.320
0.382 19.859 16.700
0.382 19.859 20.170
0.551 18.640 1.700
0.551 18.640 3.200
0.551 18.640 4.700
0.551 18.640 6.120
0.551 18.640 8.053
0.551 18.640 9.473
0.551 18.640 11.406
0.551 18.640 12.826
0.569 17.803 1.700
0.569 17.803 3.200
0.569 17.803 4.700
0.569 17.803 6.120
0.569 17.803 8.053
0.569 17.803 9.473
0.569 17.803 11.406
0.569 17.803 12.826
0.747 17.536 14.120
0.747 17.536 15.320
0.747 17.536 16.700
0.747 17.536 18.600
0.747 17.536 20.170
0.762 17.855 1.700
0.762 17.855 3.200
0.762 17.855 4.700
0.762 17.855 6.120
0.762 17.855 8.053
0.762 17.855 9.473
0.762 17.855 11.406
0.762 17.855 12.826
0.819 17.556 14.120
0.819 17.556 15.320
0.819 17.556 16.700
0.819 17.556 18.600
0.819 17.556 20.170
0.891 17.575 14.120
0.891 17.575 15.320
0.891 17.575 16.700
0.891 17.575 18.600
0.891 17.575 20.170
0.985 16.653 14.120
0.985 16.653 15.420
0.985 16.653 16.030
0.985 16.653 16.700
1.057 16.673 14.120
1.057 16.673 15.420
1.057 16.673 16.030
1.057 16.673 16.700
1.079 20.203 0.000
1.079 20.203 3.200
1.079 20.203 14.100
1.093 15.866 1.700
1.093 15.866 3.200
1.093 15.866 4.700
1.093 15.866 6.120
1.093 15.866 8.053
1.093 15.866 9.473
1.093 15.866 11.406
1.093 15.866 12.826
1.130 16.692 14.120
1.130 16.692 15.420
1.130 16.692 16.030
1.130 16.692 16.700
1.286 15.918 1.700
1.286 15.918 3.200
1.286 15.918 4.700
1.286 15.918 6.120
1.286 15.918 8.053
1.286 15.918 9.473
1.286 15.918 11.406
1.286 15.918 12.826
1.304 15.081 1.700
1.304 15.081 3.200
1.304 15.081 4.700
1.304 15.081 6.120
1.304 15.081 8.053
1.304 15.081 9.473
1.304 15.081 11.406
1.304 15.081 12.826
1.323 15.403 16.700
1.323 15.403 20.170
1.339 19.238 0.000
1.339 19.238 14.100
1.395 15.422 16.700
1.395 15.422 20.170
1.462 14.888 14.120
1.462 14.888 15.420
1.462 14.888 16.030
1.462 14.888 16.700
1.462 14.888 20.170
1.468 15.442 16.700
1.468 15.442 20.170
1.498 15.133 1.700
1.498 15.133 3.200
1.498 15.133 4.700
1.498 15.133 6.120
1.498 15.133 8.053
1.498 15.133 9.473
1.498 15.133 11.406
1.498 15.133 12.826
1.534 14.907 14.120
1.534 14.907 15.420
1.534 14.907 16.030
1.534 14.907 16.700
1.534 14.907 20.170
1.568 20.335 1.700
1.568 20.335 3.200
1.568 20.335 4.700
1.568 20.335 6.200
1.568 20.335 8.053
1.568 20.335 9.553
1.568 20.335 11.406
1.568 20.335 12.906
1.607 14.927 14.120
1.607 14.927 15.420
1.607 14.927 16.030
1.607 14.927 16.700
1.607 14.927 20.170
1.616 13.928 0.000
1.616 13.928 3.200
1.620 20.142 1.700
1.620 20.142 3.200
1.620 20.142 4.700
1.620 20.142 6.200
1.620 20.142 8.053
1.620 20.142 9.553
1.620 20.142 11.406
1.620 20.142 12.906
1.687 14.053 14.120
1.687 14.053 16.700
1.687 14.053 20.170
1.809 13.981 0.000
1.809 13.981 3.200
1.828 13.144 4.700
1.828 13.144 6.120
1.828 13.144 8.053
1.828 13.144 9.473
1.828 13.144 11.406
1.828 13.144 12.826
2.021 13.196 4.700
2.021 13.196 6.120
2.021 13.196 8.053
2.021 13.196 9.473
2.021 13.196 11.406
2.021 13.196 12.826
2.040 12.359 4.700
2.040 12.359 6.120
2.040 12.359 8.053
2.040 12.359 9.473
2.040 12.359 11.406
2.040 12.359 12.826
2.233 12.411 4.700
2.233 12.411 6.120
2.233 12.411 8.053
2.233 12.411 9.473
2.233 12.411 11.406
2.233 12.411 12.826
2.353 20.547 1.700
2.353 20.547 3.200
2.353 20.547 4.700
2.353 20.547 6.200
2.353 20.547 8.053
2.353 20.547 9.553
2.353 20.547 11.406
2.353 20.547 12.906
2.405 20.354 1.700
2.405 20.354 3.200
2.405 20.354 4.700
2.405 20.354 6.200
2.405 20.354 8.053
2.405 20.354 9.553
2.405 20.354 11.406
2.405 20.354 12.906
2.563 10.422 4.700
2.563 10.422 6.120
2.563 10.422 8.053
2.563 10.422 9.473
2.563 10.422 11.406
2.563 10.422 12.826
2.624 20.620 14.120
2.624 20.620 15.320
2.624 20.620 16.700
2.624 20.620 20.170
2.643 20.548 14.120
2.643 20.548 15.320
2.643 20.548 16.700
2.663 20.475 14.120
2.663 20.475 15.320
2.663 20.475 16.700
2.663 20.475 20.170
2.694 14.220 0.000
2.694 14.220 3.200
2.756 10.474 4.700
2.756 10.474 6.120
2.756 10.474 8.053
2.756 10.474 9.473
2.756 10.474 11.406
2.756 10.474 12.826
2.775 9.637 4.700
2.775 9.637 6.120
2.775 9.637 8.053
2.775 9.637 9.473
2.775 9.637 11.406
2.775 9.637 12.826
2.968 9.689 4.700
2.968 9.689 6.120
2.968 9.689 8.053
2.968 9.689 9.473
2.968 9.689 11.406
2.968 9.689 12.826
3.298 7.700 4.700
3.298 7.700 6.120
3.298 7.700 8.053
3.298 7.700 9.473
3.298 7.700 11.406
3.298 7.700 12.826
3.491 7.752 4.700
3.491 7.752 6.120
3.491 7.752 8.053
3.491 7.752 9.473
3.491 7.752 11.406
3.491 7.752 12.826
3.510 6.915 4.700
3.510 6.915 6.120
3.510 6.915 8.053
3.510 6.915 9.473
3.510 6.915 11.406
3.510 6.915 12.826
3.703 6.967 4.700
3.703 6.967 6.120
3.703 6.967 8.053
3.703 6.967 9.473
3.703 6.967 11.406
3.703 6.967 12.826
3.761 5.983 0.000
3.761 5.983 3.200
3.886 5.912 14.120
3.886 5.912 16.700
3.886 5.912 20.400
3.922 20.971 1.700
3.922 20.971 3.200
3.922 20.971 4.700
3.922 20.971 6.200
3.922 20.971 8.053
3.922 20.971 9.553
3.922 20.971 11.406
3.922 20.971 12.906
3.955 6.035 0.000
3.955 6.035 3.200
3.974 20.778 1.700
3.974 20.778 3.200
3.974 20.778 4.700
3.974 20.778 6.200
3.974 20.778 8.053
3.974 20.778 9.553
3.974 20.778 11.406
3.974 20.778 12.906
4.033 4.978 4.700
4.033 4.978 6.120
4.033 4.978 8.053
4.033 4.978 9.473
4.033 4.978 11.406
4.033 4.978 12.826
4.119 4.659 1.700
4.119 4.659 3.200
4.171 4.857 14.120
4.171 4.857 16.700
4.171 4.857 18.600
4.171 4.857 20.400
4.226 5.030 4.700
4.226 5.030 6.120
4.226 5.030 8.053
4.226 5.030 9.473
4.226 5.030 11.406
4.226 5.030 12.826
4.243 4.877 14.120
4.243 4.877 16.700
4.243 4.877 18.600
4.243 4.877 20.400
4.245 4.193 4.700
4.245 4.193 6.120
4.245 4.193 8.053
4.245 4.193 9.473
4.245 4.193 11.406
4.245 4.193 12.826
4.310 4.342 14.120
4.310 4.342 16.700
4.310 4.342 18.600
4.310 4.342 20.400
4.312 4.711 1.700
4.312 4.711 3.200
4.315 4.896 14.120
4.315 4.896 16.700
4.315 4.896 18.600
4.315 4.896 20.400
4.331 3.875 1.700
4.331 3.875 3.200
4.382 4.362 14.120
4.382 4.362 16.700
4.382 4.362 18.600
4.382 4.362 20.400
4.438 4.246 4.700
4.438 4.246 6.120
4.438 4.246 8.053
4.438 4.246 9.473
4.438 4.246 11.406
4.438 4.246 12.826
4.455 4.381 14.120
4.455 4.381 16.700
4.455 4.381 18.600
4.455 4.381 20.400
4.524 3.927 1.700
4.524 3.927 3.200
4.641 3.116 16.700
4.641 3.116 18.600
4.641 3.116 20.400
4.707 21.183 1.700
4.707 21.183 3.200
4.707 21.183 4.700
4.707 21.183 6.200
4.707 21.183 8.053
4.707 21.183 9.553
4.707 21.183 11.406
4.707 21.183 12.906
4.713 3.136 16.700
4.713 3.136 18.600
4.713 3.136 20.400
4.759 20.990 1.700
4.759 20.990 3.200
4.759 20.990 4.700
4.759 20.990 6.200
4.759 20.990 8.053
4.759 20.990 9.553
4.759 20.990 11.406
4.759 20.990 12.906
4.768 2.256 4.700
4.768 2.256 6.120
4.768 2.256 8.053
4.768 2.256 9.473
4.768 2.256 11.406
4.768 2.256 12.826
4.786 3.155 16.700
4.786 3.155 18.600
4.786 3.155 20.400
4.830 21.216 14.120
4.830 21.216 15.420
4.830 21.216 16.030
4.830 21.216 16.700
4.830 21.216 20.170
4.840 6.275 0.000
4.840 6.275 3.200
4.850 21.144 14.120
4.850 21.144 15.420
4.850 21.144 16.030
4.850 21.144 16.700
4.854 1.937 1.700
4.854 1.937 3.200
4.870 21.071 14.120
4.870 21.071 15.420
4.870 21.071 16.030
4.870 21.071 16.700
4.870 21.071 20.170
4.961 2.308 4.700
4.961 2.308 6.120
4.961 2.308 8.053
4.961 2.308 9.473
4.961 2.308 11.406
4.961 2.308 12.826
4.980 1.472 4.700
4.980 1.472 6.120
4.980 1.472 8.053
4.980 1.472 9.473
4.980 1.472 11.406
4.980 1.472 12.826
5.012 1.743 14.120
5.012 1.743 16.700
5.047 1.989 1.700
5.047 1.989 3.200
5.066 1.153 1.700
5.066 1.153 3.200
5.084 1.763 14.120
5.084 1.763 16.700
5.156 1.782 14.120
5.156 1.782 16.700
5.157 1.203 14.120
5.157 1.203 16.700
5.173 1.524 4.700
5.173 1.524 6.120
5.173 1.524 8.053
5.173 1.524 9.473
5.173 1.524 11.406
5.173 1.524 12.826
5.230 1.223 14.120
5.230 1.223 16.700
5.259 1.205 1.700
5.259 1.205 3.200
5.277 0.762 16.700
5.277 0.762 18.600
5.277 0.762 20.400
5.302 1.243 14.120
5.302 1.243 16.700
5.349 0.782 16.700
5.349 0.782 18.600
5.349 0.782 20.400
5.377 0.000 0.000
5.377 0.000 3.200
5.377 0.000 14.100
5.377 0.000 14.120
5.421 0.801 16.700
5.421 0.801 18.600
5.421 0.801 20.400
5.475 0.026 14.120
5.475 0.026 16.700
5.475 0.026 20.400
5.518 0.245 0.000
5.518 0.245 14.100
5.570 0.052 0.000
5.570 0.052 3.200
5.570 0.052 14.100
5.681 0.238 14.120
5.681 0.238 15.320
5.681 0.238 16.700
5.681 0.238 17.100
5.681 0.238 20.000
5.681 0.238 20.400
5.701 0.165 14.120
5.701 0.165 15.320
5.701 0.165 16.700
5.701 0.165 17.100
5.701 0.165 20.000
5.701 0.165 20.400
5.720 0.093 14.120
5.720 0.093 15.320
5.720 0.093 16.700
5.720 0.093 17.100
5.720 0.093 20.000
5.720 0.093 20.400
6.195 1.257 0.000
6.195 1.257 14.100
6.276 21.607 1.700
6.276 21.607 3.200
6.276 21.607 4.700
6.276 21.607 6.200
6.276 21.607 8.053
6.276 21.607 9.553
6.276 21.607 11.406
6.276 21.607 12.906
6.329 21.414 1.700
6.329 21.414 3.200
6.329 21.414 4.700
6.329 21.414 6.200
6.329 21.414 8.053
6.329 21.414 9.553
6.329 21.414 11.406
6.329 21.414 12.906
6.388 12.428 14.120
6.388 12.428 16.700
6.388 12.428 20.400
6.456 0.291 0.000
6.456 0.291 3.200
6.456 0.291 14.100
6.893 0.617 1.700
6.893 0.617 3.200
6.893 0.617 4.700
6.893 0.617 6.200
6.893 0.617 8.053
6.893 0.617 9.553
6.893 0.617 11.406
6.893 0.617 12.906
6.946 0.424 1.700
6.946 0.424 3.200
6.946 0.424 4.700
6.946 0.424 6.200
6.946 0.424 8.053
6.946 0.424 9.553
6.946 0.424 11.406
6.946 0.424 12.906
7.061 21.818 1.700
7.061 21.818 3.200
7.061 21.818 4.700
7.061 21.818 6.200
7.061 21.818 8.053
7.061 21.818 9.553
7.061 21.818 11.406
7.061 21.818 12.906
7.111 21.832 14.120
7.111 21.832 15.420
7.111 21.832 16.030
7.111 21.832 16.700
7.111 21.832 20.170
7.113 21.625 1.700
7.113 21.625 3.200
7.113 21.625 4.700
7.113 21.625 6.200
7.113 21.625 8.053
7.113 21.625 9.553
7.113 21.625 11.406
7.113 21.625 12.906
7.130 9.682 14.120
7.130 9.682 16.700
7.130 9.682 20.400
7.130 21.760 14.120
7.130 21.760 15.420
7.130 21.760 16.030
7.130 21.760 16.700
7.150 21.687 14.120
7.150 21.687 15.420
7.150 21.687 16.030
7.150 21.687 16.700
7.150 21.687 20.170
7.502 21.938 14.120
7.502 21.938 15.320
7.502 21.938 16.700
7.502 21.938 20.170
7.522 21.865 14.120
7.522 21.865 15.320
7.522 21.865 16.700
7.541 21.793 14.120
7.541 21.793 15.320
7.541 21.793 16.700
7.541 21.793 20.170
7.678 0.829 1.700
7.678 0.829 3.200
7.678 0.829 4.700
7.678 0.829 6.200
7.678 0.829 8.053
7.678 0.829 9.553
7.678 0.829 11.406
7.678 0.829 12.906
7.730 0.635 1.700
7.730 0.635 3.200
7.730 0.635 4.700
7.730 0.635 6.200
7.730 0.635 8.053
7.730 0.635 9.553
7.730 0.635 11.406
7.730 0.635 12.906
7.962 0.853 14.120
7.962 0.853 15.320
7.962 0.853 16.700
7.962 0.853 17.100
7.962 0.853 20.000
7.962 0.853 20.400
7.981 0.781 14.120
7.981 0.781 15.320
7.981 0.781 16.700
7.981 0.781 17.100
7.981 0.781 20.000
7.981 0.781 20.400
8.001 0.709 14.120
8.001 0.709 15.320
8.001 0.709 16.700
8.001 0.709 17.100
8.001 0.709 20.000
8.001 0.709 20.400
8.042 22.083 1.700
8.042 22.083 3.200
8.042 22.083 4.700
8.042 22.083 6.200
8.042 22.083 8.053
8.042 22.083 9.553
8.042 22.083 11.406
8.042 22.083 12.906
8.094 21.890 1.700
8.094 21.890 3.200
8.094 21.890 4.700
8.094 21.890 6.200
8.094 21.890 8.053
8.094 21.890 9.553
8.094 21.890 11.406
8.094 21.890 12.906
8.826 22.295 1.700
8.826 22.295 3.200
8.826 22.295 4.700
8.826 22.295 6.200
8.826 22.295 8.053
8.826 22.295 9.553
8.826 22.295 11.406
8.826 22.295 12.906
8.878 22.102 1.700
8.878 22.102 3.200
8.878 22.102 4.700
8.878 22.102 6.200
8.878 22.102 8.053
8.878 22.102 9.553
8.878 22.102 11.406
8.878 22.102 12.906
9.247 1.252 1.700
9.247 1.252 3.200
9.247 1.252 4.700
9.247 1.252 6.200
9.247 1.252 8.053
9.247 1.252 9.553
9.247 1.252 11.406
9.247 1.252 12.906
9.300 1.059 1.700
9.300 1.059 3.200
9.300 1.059 4.700
9.300 1.059 6.200
9.300 1.059 8.053
9.300 1.059 9.553
9.300 1.059 11.406
9.300 1.059 12.906
9.783 22.554 14.120
9.783 22.554 15.320
9.783 22.554 16.700
9.783 22.554 20.170
9.802 22.481 14.120
9.802 22.481 15.320
9.802 22.481 16.700
9.807 22.560 1.700
9.807 22.560 3.200
9.807 22.560 4.700
9.807 22.560 6.200
9.807 22.560 8.053
9.807 22.560 9.553
9.807 22.560 11.406
9.807 22.560 12.906
9.822 22.409 14.120
9.822 22.409 15.320
9.822 22.409 16.700
9.822 22.409 20.170
9.860 22.367 1.700
9.860 22.367 3.200
9.860 22.367 4.700
9.860 22.367 6.200
9.860 22.367 8.053
9.860 22.367 9.553
9.860 22.367 11.406
9.860 22.367 12.906
10.032 1.464 1.700
10.032 1.464 3.200
10.032 1.464 4.700
10.032 1.464 6.200
10.032 1.464 8.053
10.032 1.464 9.553
10.032 1.464 11.406
10.032 1.464 12.906
10.084 1.271 1.700
10.084 1.271 3.200
10.084 1.271 4.700
10.084 1.271 6.200
10.084 1.271 8.053
10.084 1.271 9.553
10.084 1.271 11.406
10.084 1.271 12.906
10.165 13.448 14.120
10.165 13.448 16.700
10.165 13.448 20.170
10.165 13.448 20.400
10.169 1.449 14.120
10.169 1.449 15.420
10.169 1.449 16.030
10.169 1.449 16.700
10.169 1.449 18.000
10.169 1.449 18.610
10.169 1.449 20.400
10.188 1.377 14.120
10.188 1.377 15.420
10.188 1.377 16.030
10.188 1.377 16.700
10.188 1.377 18.000
10.188 1.377 18.610
10.208 1.305 14.120
10.208 1.305 15.420
10.208 1.305 16.030
10.208 1.305 16.700
10.208 1.305 18.000
10.208 1.305 18.610
10.208 1.305 20.400
10.592 22.772 1.700
10.592 22.772 3.200
10.592 22.772 4.700
10.592 22.772 6.200
10.592 22.772 8.053
10.592 22.772 9.553
10.592 22.772 11.406
10.592 22.772 12.906
10.644 22.579 1.700
10.644 22.579 3.200
10.644 22.579 4.700
10.644 22.579 6.200
10.644 22.579 8.053
10.644 22.579 9.553
10.644 22.579 11.406
10.644 22.579 12.906
10.906 10.702 14.120
10.906 10.702 16.700
10.906 10.702 20.170
10.906 10.702 20.400
11.573 23.037 1.700
11.573 23.037 3.200
11.573 23.037 4.700
11.573 23.037 6.200
11.573 23.037 8.053
11.573 23.037 9.553
11.573 23.037 11.406
11.573 23.037 12.906
11.601 1.888 1.700
11.601 1.888 3.200
11.601 1.888 4.700
11.601 1.888 6.200
11.601 1.888 8.053
11.601 1.888 9.553
11.601 1.888 11.406
11.601 1.888 12.906
11.625 22.844 1.700
11.625 22.844 3.200
11.625 22.844 4.700
11.625 22.844 6.200
11.625 22.844 8.053
11.625 22.844 9.553
11.625 22.844 11.406
11.625 22.844 12.906
11.654 1.695 1.700
11.654 1.695 3.200
11.654 1.695 4.700
11.654 1.695 6.200
11.654 1.695 8.053
11.654 1.695 9.553
11.654 1.695 11.406
11.654 1.695 12.906
11.990 23.150 14.120
11.990 23.150 15.420
11.990 23.150 16.030
11.990 23.150 16.700
11.990 23.150 20.170
12.009 23.077 14.120
12.009 23.077 15.420
12.009 23.077 16.030
12.009 23.077 16.700
12.029 23.005 14.120
12.029 23.005 15.420
12.029 23.005 16.030
12.029 23.005 16.700
12.029 23.005 20.170
12.357 23.249 1.700
12.357 23.249 3.200
12.357 23.249 4.700
12.357 23.249 6.200
12.357 23.249 8.053
12.357 23.249 9.553
12.357 23.249 11.406
12.357 23.249 12.906
12.386 2.100 1.700
12.386 2.100 3.200
12.386 2.100 4.700
12.386 2.100 6.200
12.386 2.100 8.053
12.386 2.100 9.553
12.386 2.100 11.406
12.386 2.100 12.906
12.409 23.056 1.700
12.409 23.056 3.200
12.409 23.056 4.700
12.409 23.056 6.200
12.409 23.056 8.053
12.409 23.056 9.553
12.409 23.056 11.406
12.409 23.056 12.906
12.438 1.907 1.700
12.438 1.907 3.200
12.438 1.907 4.700
12.438 1.907 6.200
12.438 1.907 8.053
12.438 1.907 9.553
12.438 1.907 11.406
12.438 1.907 12.906
12.449 2.065 14.120
12.449 2.065 15.420
12.449 2.065 16.030
12.449 2.065 16.700
12.449 2.065 18.000
12.449 2.065 18.610
12.449 2.065 20.400
12.469 1.993 14.120
12.469 1.993 15.420
12.469 1.993 16.030
12.469 1.993 16.700
12.469 1.993 18.000
12.469 1.993 18.610
12.488 1.920 14.120
12.488 1.920 15.420
12.488 1.920 16.030
12.488 1.920 16.700
12.488 1.920 18.000
12.488 1.920 18.610
12.488 1.920 20.400
12.666 14.123 14.120
12.666 14.123 16.700
12.666 14.123 20.170
12.840 2.171 14.120
12.840 2.171 15.320
12.840 2.171 16.700
12.840 2.171 18.620
12.840 2.171 20.000
12.840 2.171 20.400
12.860 2.099 14.120
12.860 2.099 15.320
12.860 2.099 16.700
12.860 2.099 17.420
12.860 2.099 18.620
12.860 2.099 20.000
12.860 2.099 20.400
12.880 2.026 14.120
12.880 2.026 15.320
12.880 2.026 16.700
12.880 2.026 17.420
12.880 2.026 18.620
12.880 2.026 20.000
12.880 2.026 20.400
13.338 23.514 1.700
13.338 23.514 3.200
13.338 23.514 4.700
13.338 23.514 6.200
13.338 23.514 8.053
13.338 23.514 9.553
13.338 23.514 11.406
13.338 23.514 12.906
13.367 2.365 1.700
13.367 2.365 3.200
13.367 2.365 4.700
13.367 2.365 6.200
13.367 2.365 8.053
13.367 2.365 9.553
13.367 2.365 11.406
13.367 2.365 12.906
13.391 23.321 1.700
13.391 23.321 3.200
13.391 23.321 4.700
13.391 23.321 6.200
13.391 23.321 8.053
13.391 23.321 9.553
13.391 23.321 11.406
13.391 23.321 12.906
13.407 11.377 14.120
13.407 11.377 16.700
13.407 11.377 20.170
13.419 2.172 1.700
13.419 2.172 3.200
13.419 2.172 4.700
13.419 2.172 6.200
13.419 2.172 8.053
13.419 2.172 9.553
13.419 2.172 11.406
13.419 2.172 12.906
14.123 23.726 1.700
14.123 23.726 3.200
14.123 23.726 4.700
14.123 23.726 6.200
14.123 23.726 8.053
14.123 23.726 9.553
14.123 23.726 11.406
14.123 23.726 12.906
14.151 2.577 1.700
14.151 2.577 3.200
14.151 2.577 4.700
14.151 2.577 6.200
14.151 2.577 8.053
14.151 2.577 9.553
14.151 2.577 11.406
14.151 2.577 12.906
14.175 23.533 1.700
14.175 23.533 3.200
14.175 23.533 4.700
14.175 23.533 6.200
14.175 23.533 8.053
14.175 23.533 9.553
14.175 23.533 11.406
14.175 23.533 12.906
14.204 2.384 1.700
14.204 2.384 3.200
14.204 2.384 4.700
14.204 2.384 6.200
14.204 2.384 8.053
14.204 2.384 9.553
14.204 2.384 11.406
14.204 2.384 12.906
14.235 14.547 16.700
14.235 14.547 24.400
14.270 23.765 14.120
14.270 23.765 15.420
14.270 23.765 16.030
14.270 23.765 16.700
14.270 23.765 20.170
14.290 23.693 14.120
14.290 23.693 15.420
14.290 23.693 16.030
14.290 23.693 16.700
14.309 23.621 14.120
14.309 23.621 15.420
14.309 23.621 16.030
14.309 23.621 16.700
14.309 23.621 20.170
14.661 23.871 14.120
14.661 23.871 15.320
14.661 23.871 16.700
14.661 23.871 20.170
14.681 23.799 14.120
14.681 23.799 15.320
14.681 23.799 16.700
14.698 16.146 14.120
14.698 16.146 16.920
14.701 23.726 14.120
14.701 23.726 15.320
14.701 23.726 16.700
14.701 23.726 20.170
14.977 11.801 16.700
14.977 11.801 24.400
15.069 14.772 14.120
15.069 14.772 16.920
15.104 23.991 1.700
15.104 23.991 3.200
15.104 23.991 4.700
15.104 23.991 6.200
15.104 23.991 8.053
15.104 23.991 9.553
15.104 23.991 11.406
15.104 23.991 12.906
15.121 2.787 14.120
15.121 2.787 15.320
15.121 2.787 16.700
15.121 2.787 18.620
15.121 2.787 20.000
15.121 2.787 20.400
15.132 2.842 1.700
15.132 2.842 3.200
15.132 2.842 4.700
15.132 2.842 6.200
15.132 2.842 8.053
15.132 2.842 9.553
15.132 2.842 11.406
15.132 2.842 12.906
15.140 2.714 14.120
15.140 2.714 15.320
15.140 2.714 16.700
15.140 2.714 17.420
15.140 2.714 18.620
15.140 2.714 20.000
15.140 2.714 20.400
15.156 23.798 1.700
15.156 23.798 3.200
15.156 23.798 4.700
15.156 23.798 6.200
15.156 23.798 8.053
15.156 23.798 9.553
15.156 23.798 11.406
15.156 23.798 12.906
15.160 2.642 14.120
15.160 2.642 15.320
15.160 2.642 16.700
15.160 2.642 17.420
15.160 2.642 18.620
15.160 2.642 20.000
15.160 2.642 20.400
15.185 2.649 1.700
15.185 2.649 3.200
15.185 2.649 4.700
15.185 2.649 6.200
15.185 2.649 8.053
15.185 2.649 9.553
15.185 2.649 11.406
15.185 2.649 12.906
15.888 24.202 1.700
15.888 24.202 3.200
15.888 24.202 4.700
15.888 24.202 6.200
15.888 24.202 8.053
15.888 24.202 9.553
15.888 24.202 11.406
15.888 24.202 12.906
15.917 3.054 1.700
15.917 3.054 3.200
15.917 3.054 4.700
15.917 3.054 6.200
15.917 3.054 8.053
15.917 3.054 9.553
15.917 3.054 11.406
15.917 3.054 12.906
15.941 24.009 1.700
15.941 24.009 3.200
15.941 24.009 4.700
15.941 24.009 6.200
15.941 24.009 8.053
15.941 24.009 9.553
15.941 24.009 11.406
15.941 24.009 12.906
15.969 2.861 1.700
15.969 2.861 3.200
15.969 2.861 4.700
15.969 2.861 6.200
15.969 2.861 8.053
15.969 2.861 9.553
15.969 2.861 11.406
15.969 2.861 12.906
16.869 24.467 1.700
16.869 24.467 3.200
16.869 24.467 4.700
16.869 24.467 6.200
16.869 24.467 8.053
16.869 24.467 9.553
16.869 24.467 11.406
16.869 24.467 12.906
16.898 3.319 1.700
16.898 3.319 3.200
16.898 3.319 4.700
16.898 3.319 6.200
16.898 3.319 8.053
16.898 3.319 9.553
16.898 3.319 11.406
16.898 3.319 12.906
16.922 24.274 1.700
16.922 24.274 3.200
16.922 24.274 4.700
16.922 24.274 6.200
16.922 24.274 8.053
16.922 24.274 9.553
16.922 24.274 11.406
16.922 24.274 12.906
16.942 24.487 14.120
16.942 24.487 15.320
16.942 24.487 16.700
16.942 24.487 20.170
16.950 3.125 1.700
16.950 3.125 3.200
16.950 3.125 4.700
16.950 3.125 6.200
16.950 3.125 8.053
16.950 3.125 9.553
16.950 3.125 11.406
16.950 3.125 12.906
16.961 24.415 14.120
16.961 24.415 15.320
16.961 24.415 16.700
16.981 24.342 14.120
16.981 24.342 15.320
16.981 24.342 16.700
16.981 24.342 20.170
17.125 16.802 14.120
17.125 16.802 16.920
17.328 3.383 14.120
17.328 3.383 15.420
17.328 3.383 16.030
17.328 3.383 16.700
17.328 3.383 18.000
17.328 3.383 18.610
17.328 3.383 19.103
17.328 3.383 19.713
17.328 3.383 20.400
17.347 3.310 14.120
17.347 3.310 15.420
17.347 3.310 16.030
17.347 3.310 16.700
17.347 3.310 18.000
17.347 3.310 18.610
17.347 3.310 19.103
17.347 3.310 19.713
17.347 3.310 20.400
17.367 3.238 14.120
17.367 3.238 15.420
17.367 3.238 16.030
17.367 3.238 16.700
17.367 3.238 18.000
17.367 3.238 18.610
17.367 3.238 20.400
17.496 15.428 14.120
17.496 15.428 16.920
17.654 24.679 1.700
17.654 24.679 3.200
17.654 24.679 4.700
17.654 24.679 6.200
17.654 24.679 8.053
17.654 24.679 9.553
17.654 24.679 11.406
17.654 24.679 12.906
17.683 3.530 1.700
17.683 3.530 3.200
17.683 3.530 4.700
17.683 3.530 6.200
17.683 3.530 8.053
17.683 3.530 9.553
17.683 3.530 11.406
17.683 3.530 12.906
17.706 24.486 1.700
17.706 24.486 3.200
17.706 24.486 4.700
17.706 24.486 6.200
17.706 24.486 8.053
17.706 24.486 9.553
17.706 24.486 11.406
17.706 24.486 12.906
17.725 3.490 18.610
17.725 3.490 19.103
17.725 3.490 19.713
17.725 3.490 20.400
17.735 3.337 1.700
17.735 3.337 3.200
17.735 3.337 4.700
17.735 3.337 6.200
17.735 3.337 8.053
17.735 3.337 9.553
17.735 3.337 11.406
17.735 3.337 12.906
17.744 3.418 18.610
17.744 3.418 20.400
17.764 3.345 18.610
17.764 3.345 19.103
17.764 3.345 19.713
17.764 3.345 20.400
18.502 15.699 16.700
18.502 15.699 24.400
18.635 24.944 1.700
18.635 24.944 3.200
18.635 24.944 4.700
18.635 24.944 6.200
18.635 24.944 8.053
18.635 24.944 9.553
18.635 24.944 11.406
18.635 24.944 12.906
18.664 3.795 1.700
18.664 3.795 3.200
18.664 3.795 4.700
18.664 3.795 6.200
18.664 3.795 8.053
18.664 3.795 9.553
18.664 3.795 11.406
18.664 3.795 12.906
18.687 24.751 1.700
18.687 24.751 3.200
18.687 24.751 4.700
18.687 24.751 6.200
18.687 24.751 8.053
18.687 24.751 9.553
18.687 24.751 11.406
18.687 24.751 12.906
18.716 3.602 1.700
18.716 3.602 3.200
18.716 3.602 4.700
18.716 3.602 6.200
18.716 3.602 8.053
18.716 3.602 9.553
18.716 3.602 11.406
18.716 3.602 12.906
19.149 25.083 14.120
19.149 25.083 15.420
19.149 25.083 16.030
19.149 25.083 16.700
19.149 25.083 20.170
19.168 25.011 14.120
19.168 25.011 15.420
19.168 25.011 16.030
19.168 25.011 16.700
19.188 24.938 14.120
19.188 24.938 15.420
19.188 24.938 16.030
19.188 24.938 16.700
19.243 12.953 16.700
19.243 12.953 24.400
19.419 25.156 1.700
19.419 25.156 3.200
19.419 25.156 4.700
19.419 25.156 6.200
19.419 25.156 8.053
19.419 25.156 9.553
19.419 25.156 11.406
19.419 25.156 12.906
19.448 4.007 1.700
19.448 4.007 3.200
19.448 4.007 4.700
19.448 4.007 6.200
19.448 4.007 8.053
19.448 4.007 9.553
19.448 4.007 11.406
19.448 4.007 12.906
19.472 24.963 1.700
19.472 24.963 3.200
19.472 24.963 4.700
19.472 24.963 6.200
19.472 24.963 8.053
19.472 24.963 9.553
19.472 24.963 11.406
19.472 24.963 12.906
19.500 3.814 1.700
19.500 3.814 3.200
19.500 3.814 4.700
19.500 3.814 6.200
19.500 3.814 8.053
19.500 3.814 9.553
19.500 3.814 11.406
19.500 3.814 12.906
19.608 3.999 14.120
19.608 3.999 15.420
19.608 3.999 16.030
19.608 3.999 16.700
19.608 3.999 18.000
19.608 3.999 18.610
19.608 3.999 19.103
19.608 3.999 19.713
19.608 3.999 20.400
19.628 3.926 14.120
19.628 3.926 15.420
19.628 3.926 16.030
19.628 3.926 16.700
19.628 3.926 18.000
19.628 3.926 19.103
19.628 3.926 19.713
19.647 3.854 14.120
19.647 3.854 15.420
19.647 3.854 16.030
19.647 3.854 16.700
19.647 3.854 18.000
19.647 3.854 18.610
19.647 3.854 19.103
19.647 3.854 19.713
19.647 3.854 20.400
20.000 4.104 14.120
20.000 4.104 15.320
20.000 4.104 16.700
20.000 4.104 18.620
20.000 4.104 20.000
20.000 4.104 20.400
20.019 4.032 14.120
20.019 4.032 15.320
20.019 4.032 16.700
20.019 4.032 17.420
20.019 4.032 18.620
20.019 4.032 20.000
20.019 4.032 20.400
20.039 3.960 14.120
20.039 3.960 15.320
20.039 3.960 16.700
20.039 3.960 17.420
20.039 3.960 18.620
20.039 3.960 20.000
20.039 3.960 20.400
20.429 4.272 1.700
20.429 4.272 3.200
20.429 4.272 4.700
20.429 4.272 6.200
20.429 4.272 8.053
20.429 4.272 9.553
20.429 4.272 11.406
20.429 4.272 12.906
20.481 4.079 1.700
20.481 4.079 3.200
20.481 4.079 4.700
20.481 4.079 6.200
20.481 4.079 8.053
20.481 4.079 9.553
20.481 4.079 11.406
20.481 4.079 12.906
20.599 25.475 1.700
20.599 25.475 3.200
20.599 25.475 4.700
20.599 25.475 6.200
20.599 25.475 8.053
20.599 25.475 9.553
20.599 25.475 11.406
20.599 25.475 12.906
20.651 25.281 1.700
20.651 25.281 3.200
20.651 25.281 4.700
20.651 25.281 6.200
20.651 25.281 8.053
20.651 25.281 9.553
20.651 25.281 11.406
20.651 25.281 12.906
20.867 25.547 16.700
20.867 25.547 20.170
21.101 16.401 16.700
21.214 4.484 1.700
21.214 4.484 3.200
21.214 4.484 4.700
21.214 4.484 6.200
21.214 4.484 8.053
21.214 4.484 9.553
21.214 4.484 11.406
21.214 4.484 12.906
21.266 4.291 1.700
21.266 4.291 3.200
21.266 4.291 4.700
21.266 4.291 6.200
21.266 4.291 8.053
21.266 4.291 9.553
21.266 4.291 11.406
21.266 4.291 12.906
21.383 25.686 1.700
21.383 25.686 3.200
21.383 25.686 4.700
21.383 25.686 6.200
21.383 25.686 8.053
21.383 25.686 9.553
21.383 25.686 11.406
21.383 25.686 12.906
21.429 25.699 14.120
21.429 25.699 15.420
21.429 25.699 16.030
21.429 25.699 16.700
21.435 25.493 1.700
21.435 25.493 3.200
21.435 25.493 4.700
21.435 25.493 6.200
21.435 25.493 8.053
21.435 25.493 9.553
21.435 25.493 11.406
21.435 25.493 12.906
21.449 25.626 14.120
21.449 25.626 15.420
21.449 25.626 16.030
21.449 25.626 16.700
21.468 25.554 14.120
21.468 25.554 15.420
21.468 25.554 16.030
21.468 25.554 16.700
21.843 13.655 16.700
21.873 25.819 14.120
21.873 25.819 15.320
21.873 25.819 16.700
21.892 25.746 14.120
21.892 25.746 15.320
21.892 25.746 16.700
21.912 25.674 14.120
21.912 25.674 15.320
21.912 25.674 16.700
22.195 4.749 1.700
22.195 4.749 3.200
22.195 4.749 4.700
22.195 4.749 6.200
22.195 4.749 8.053
22.195 4.749 9.553
22.195 4.749 11.406
22.195 4.749 12.906
22.247 4.556 1.700
22.247 4.556 3.200
22.247 4.556 4.700
22.247 4.556 6.200
22.247 4.556 8.053
22.247 4.556 9.553
22.247 4.556 11.406
22.247 4.556 12.906
22.280 4.720 14.120
22.280 4.720 15.320
22.280 4.720 16.700
22.280 4.720 18.620
22.280 4.720 20.000
22.280 4.720 20.400
22.300 4.648 14.120
22.300 4.648 15.320
22.300 4.648 16.700
22.300 4.648 17.420
22.300 4.648 18.620
22.300 4.648 20.000
22.300 4.648 20.400
22.319 4.575 14.120
22.319 4.575 15.320
22.319 4.575 16.700
22.319 4.575 17.420
22.319 4.575 18.620
22.319 4.575 20.000
22.319 4.575 20.400
22.457 19.662 16.700
22.457 19.662 20.170
22.953 26.110 1.700
22.953 26.110 3.200
22.953 26.110 4.700
22.953 26.110 6.200
22.953 26.110 8.053
22.953 26.110 9.553
22.953 26.110 11.406
22.953 26.110 12.906
22.979 4.961 1.700
22.979 4.961 3.200
22.979 4.961 4.700
22.979 4.961 6.200
22.979 4.961 8.053
22.979 4.961 9.553
22.979 4.961 11.406
22.979 4.961 12.906
23.005 25.917 1.700
23.005 25.917 3.200
23.005 25.917 4.700
23.005 25.917 6.200
23.005 25.917 8.053
23.005 25.917 9.553
23.005 25.917 11.406
23.005 25.917 12.906
23.031 4.768 1.700
23.031 4.768 3.200
23.031 4.768 4.700
23.031 4.768 6.200
23.031 4.768 8.053
23.031 4.768 9.553
23.031 4.768 11.406
23.031 4.768 12.906
23.737 26.322 1.700
23.737 26.322 3.200
23.737 26.322 4.700
23.737 26.322 6.200
23.737 26.322 8.053
23.737 26.322 9.553
23.737 26.322 11.406
23.737 26.322 12.906
23.789 26.129 1.700
23.789 26.129 3.200
23.789 26.129 4.700
23.789 26.129 6.200
23.789 26.129 8.053
23.789 26.129 9.553
23.789 26.129 11.406
23.789 26.129 12.906
23.960 5.226 1.700
23.960 5.226 3.200
23.960 5.226 4.700
23.960 5.226 6.200
23.960 5.226 8.053
23.960 5.226 9.553
23.960 5.226 11.406
23.960 5.226 12.906
24.012 5.033 1.700
24.012 5.033 3.200
24.012 5.033 4.700
24.012 5.033 6.200
24.012 5.033 8.053
24.012 5.033 9.553
24.012 5.033 11.406
24.012 5.033 12.906
24.153 26.434 14.120
24.153 26.434 15.320
24.153 26.434 16.700
24.173 26.362 14.120
24.173 26.362 15.320
24.173 26.362 16.700
24.192 26.290 14.120
24.192 26.290 15.320
24.192 26.290 16.700
24.398 26.501 14.120
24.398 26.501 16.700
24.487 5.316 14.120
24.487 5.316 15.420
24.487 5.316 16.030
24.487 5.316 16.700
24.507 5.244 14.120
24.507 5.244 15.420
24.507 5.244 16.030
24.507 5.244 16.700
24.526 5.171 14.120
24.526 5.171 15.420
24.526 5.171 16.030
24.526 5.171 16.700
24.655 11.521 16.700
24.655 11.521 20.400
24.745 5.438 1.700
24.745 5.438 3.200
24.745 5.438 4.700
24.745 5.438 6.200
24.745 5.438 8.053
24.745 5.438 9.553
24.745 5.438 11.406
24.745 5.438 12.906
24.797 5.245 1.700
24.797 5.245 3.200
24.797 5.245 4.700
24.797 5.245 6.200
24.797 5.245 8.053
24.797 5.245 9.553
24.797 5.245 11.406
24.797 5.245 12.906
25.307 26.746 1.700
25.307 26.746 3.200
25.307 26.746 4.700
25.307 26.746 6.200
25.307 26.746 8.053
25.307 26.746 9.553
25.307 26.746 11.406
25.307 26.746 12.906
25.359 26.553 1.700
25.359 26.553 3.200
25.359 26.553 4.700
25.359 26.553 6.200
25.359 26.553 8.053
25.359 26.553 9.553
25.359 26.553 11.406
25.359 26.553 12.906
25.815 25.847 0.000
25.815 25.847 14.100
25.924 5.756 1.700
25.924 5.756 3.200
25.924 5.756 4.700
25.924 5.756 6.200
25.924 5.756 8.053
25.924 5.756 9.553
25.924 5.756 11.406
25.924 5.756 12.906
25.956 17.713 14.120
25.956 17.713 16.700
25.956 17.713 20.170
25.976 5.563 1.700
25.976 5.563 3.200
25.976 5.563 4.700
25.976 5.563 6.200
25.976 5.563 8.053
25.976 5.563 9.553
25.976 5.563 11.406
25.976 5.563 12.906
25.988 20.615 14.120
25.988 20.615 16.700
26.091 26.958 1.700
26.091 26.958 3.200
26.091 26.958 4.700
26.091 26.958 6.200
26.091 26.958 8.053
26.091 26.958 9.553
26.091 26.958 11.406
26.091 26.958 12.906
26.143 26.765 1.700
26.143 26.765 3.200
26.143 26.765 4.700
26.143 26.765 6.200
26.143 26.765 8.053
26.143 26.765 9.553
26.143 26.765 11.406
26.143 26.765 12.906
26.245 5.636 16.700
26.245 5.636 20.400
26.698 14.967 14.120
26.698 14.967 16.700
26.698 14.967 20.170
26.708 5.968 1.700
26.708 5.968 3.200
26.708 5.968 4.700
26.708 5.968 6.200
26.708 5.968 8.053
26.708 5.968 9.553
26.708 5.968 11.406
26.708 5.968 12.906
26.761 5.775 1.700
26.761 5.775 3.200
26.761 5.775 4.700
26.761 5.775 6.200
26.761 5.775 8.053
26.761 5.775 9.553
26.761 5.775 11.406
26.761 5.775 12.906
26.767 5.932 14.120
26.767 5.932 15.420
26.767 5.932 16.030
26.767 5.932 16.700
26.787 5.860 14.120
26.787 5.860 15.420
26.787 5.860 16.030
26.787 5.860 16.700
26.807 5.787 14.120
26.807 5.787 15.420
26.807 5.787 16.030
26.807 5.787 16.700
27.211 6.052 14.120
27.211 6.052 15.320
27.211 6.052 16.700
27.230 5.979 14.120
27.230 5.979 15.320
27.230 5.979 16.700
27.250 5.907 14.120
27.250 5.907 15.320
27.250 5.907 16.700
27.660 27.381 0.000
27.660 27.381 14.100
27.660 27.381 14.120
27.712 27.188 0.000
27.712 27.188 14.100
27.920 26.416 0.000
27.920 26.416 14.100
28.186 12.474 14.120
28.186 12.474 16.700
28.278 6.392 1.700
28.278 6.392 3.200
28.278 6.392 4.700
28.278 6.392 6.200
28.278 6.392 8.053
28.278 6.392 9.553
28.278 6.392 11.406
28.278 6.392 12.906
28.330 6.199 1.700
28.330 6.199 3.200
28.330 6.199 4.700
28.330 6.199 6.200
28.330 6.199 8.053
28.330 6.199 9.553
28.330 6.199 11.406
28.330 6.199 12.906
29.062 6.604 1.700
29.062 6.604 3.200
29.062 6.604 4.700
29.062 6.604 6.200
29.062 6.604 8.053
29.062 6.604 9.553
29.062 6.604 11.406
29.062 6.604 12.906
29.115 6.411 1.700
29.115 6.411 3.200
29.115 6.411 4.700
29.115 6.411 6.200
29.115 6.411 8.053
29.115 6.411 9.553
29.115 6.411 11.406
29.115 6.411 12.906
29.491 6.668 14.120
29.491 6.668 15.320
29.491 6.668 16.700
29.511 6.595 14.120
29.511 6.595 15.320
29.511 6.595 16.700
29.530 6.523 14.120
29.530 6.523 15.320
29.530 6.523 16.700
29.776 6.589 14.120
29.776 6.589 16.700
30.632 7.028 1.700
30.632 7.028 3.200
30.632 7.028 4.700
30.632 7.028 6.200
30.632 7.028 8.053
30.632 7.028 9.553
30.632 7.028 11.406
30.632 7.028 12.906
30.671 7.867 0.000
30.671 7.867 14.100
30.684 6.835 1.700
30.684 6.835 3.200
30.684 6.835 4.700
30.684 6.835 6.200
30.684 6.835 8.053
30.684 6.835 9.553
30.684 6.835 11.406
30.684 6.835 12.906
31.416 7.239 1.700
31.416 7.239 3.200
31.416 7.239 4.700
31.416 7.239 6.200
31.416 7.239 8.053
31.416 7.239 9.553
31.416 7.239 11.406
31.416 7.239 12.906
31.469 7.046 1.700
31.469 7.046 3.200
31.469 7.046 4.700
31.469 7.046 6.200
31.469 7.046 8.053
31.469 7.046 9.553
31.469 7.046 11.406
31.469 7.046 12.906
32.776 8.435 0.000
32.776 8.435 14.100
32.985 7.663 0.000
32.985 7.663 14.100
33.037 7.470 0.000
33.037 7.470 14.100
33.037 7.470 14.120
3 437 425 427
3 444 437 427
3 342 320 336
3 352 342 336
3 821 703 696
3 814 821 696
3 310 281 1616
3 336 310 1616
3 352 336 1616
3 419 330 352
3 427 419 352
3 444 427 352
3 456 429 444
3 476 456 444
3 464 476 444
3 582 464 444
3 708 594 582
3 695 708 582
3 849 826 813
3 836 849 813
3 1103 993 964
3 1085 1103 964
3 1273 1251 1235
3 1260 1273 1235
3 1490 1398 1385
3 1482 1490 1385
3 1588 1482 1385
3 1606 1596 1588
3 1600 1606 1588
3 1659 1656 1650
3 1616 1659 1650
3 352 1616 1650
3 444 352 1650
3 695 582 444
3 813 695 444
3 836 813 444
3 964 836 444
3 1085 964 444
3 1235 1085 444
3 1260 1235 444
3 1385 1260 444
3 1588 1385 444
3 1600 1588 444
3 1650 1600 444
3 83 78 18
3 25 83 18
3 77 64 9
3 17 77 9
3 159 146 90
3 105 159 90
3 145 130 85
3 89 145 85
3 1549 173 130
3 1471 1480 1549
3 1477 1471 1549
3 1366 1477 1549
3 1339 1360 1366
3 1355 1339 1366
3 1197 1355 1366
3 1064 1188 1197
3 1079 1064 1197
3 925 939 948
3 934 925 948
3 648 767 776
3 663 648 776
3 562 663 776
3 530 555 562
3 550 530 562
3 402 550 562
3 224 389 402
3 231 224 402
3 42 231 402
3 4 27 42
3 7 4 42
3 22 7 42
3 80 22 42
3 85 62 80
3 104 85 80
3 1549 130 158
3 1366 1549 158
3 1197 1366 158
3 1079 1197 158
3 948 1079 158
3 934 948 158
3 776 934 158
3 562 776 158
3 402 562 158
3 42 402 158
3 104 80 42
3 158 104 42
3 1571 733 693
3 1540 1571 693
3 544 501 692
3 732 544 692
3 955 947 1084
3 1111 955 1084
3 1528 1669 482
3 126 1528 482
3 503 482 1695
3 1699 503 1695
3 1359 1314 1539
3 1570 1359 1539
3 311 282 1494
3 337 311 1494
3 353 337 1494
3 358 331 353
3 386 358 353
3 453 386 353
3 457 441 453
3 478 457 453
3 466 478 453
3 584 466 453
3 711 596 584
3 698 711 584
3 851 829 816
3 838 851 816
3 1106 995 966
3 1088 1106 966
3 1275 1254 1238
3 1262 1275 1238
3 1567 1400 1387
3 1494 1567 1387
3 353 1494 1387
3 453 353 1387
3 698 584 453
3 816 698 453
3 838 816 453
3 966 838 453
3 1088 966 453
3 1238 1088 453
3 1262 1238 453
3 1387 1262 453
3 447 370 387
3 454 447 387
3 441 358 369
3 446 441 369
3 1405 174 133
3 1191 1312 1405
3 1066 1191 1405
3 1081 1066 1405
3 950 1081 1405
3 928 941 950
3 937 928 950
3 650 770 779
3 665 650 779
3 564 665 779
3 533 557 564
3 553 533 564
3 405 553 564
3 226 392 405
3 233 226 405
3 44 233 405
3 5 29 44
3 9 5 44
3 24 9 44
3 82 24 44
3 124 64 82
3 135 124 82
3 1405 133 161
3 950 1405 161
3 937 950 161
3 779 937 161
3 564 779 161
3 405 564 161
3 44 405 161
3 135 82 44
3 161 135 44
3 148 128 135
3 161 148 135
3 163 164 236
3 235 163 236
3 0 1 94
3 93 0 94
3 2 95 505
3 451 2 505
3 505 483 1696
3 1700 505 1696
3 138 137 108
3 138 108 109
3 68 67 46
3 68 46 47
3 164 163 0
3 164 0 1
3 117 116 96
3 117 96 97
3 55 54 31
3 55 31 32
3 70 69 48
3 70 48 49
3 140 139 110
3 140 110 111
3 197 196 184
3 197 184 185
3 250 249 237
3 250 237 238
3 274 273 261
3 274 261 262
3 347 346 314
3 347 314 315
3 432 431 407
3 432 407 408
3 72 71 50
3 72 50 51
3 142 141 112
3 142 112 113
3 199 198 186
3 199 186 187
3 252 251 239
3 252 239 240
3 276 275 263
3 276 263 264
3 349 348 316
3 349 316 317
3 434 433 409
3 434 409 410
3 74 73 52
3 74 52 53
3 144 143 114
3 144 114 115
3 201 200 188
3 201 188 189
3 254 253 241
3 254 241 242
3 278 277 265
3 278 265 266
3 351 350 318
3 351 318 319
3 436 435 411
3 436 411 412
3 450 1 2
3 450 2 451
3 61 60 37
3 61 37 38
3 36 35 58
3 59 36 58
3 123 122 102
3 123 102 103
3 101 100 120
3 121 101 120
3 195 194 182
3 195 182 183
3 181 180 192
3 193 181 192
3 248 247 222
3 248 222 223
3 221 220 245
3 246 221 245
3 272 271 259
3 272 259 260
3 258 257 269
3 270 258 269
3 329 328 306
3 329 306 307
3 305 304 326
3 327 305 326
3 418 417 384
3 418 384 385
3 383 382 415
3 416 383 415
3 57 56 33
3 57 33 34
3 119 118 98
3 119 98 99
3 191 190 178
3 191 178 179
3 244 243 218
3 244 218 219
3 268 267 255
3 268 255 256
3 325 324 302
3 325 302 303
3 414 413 380
3 414 380 381
3 449 450 504
3 503 449 504
3 279 280 395
3 394 279 395
3 440 439 421
3 440 421 422
3 357 356 334
3 357 334 335
3 450 449 279
3 450 279 280
3 424 423 400
3 424 400 401
3 341 340 308
3 341 308 309
3 1669 1528 1614
3 1695 1669 1614
3 567 566 506
3 507 567 506
3 569 568 508
3 509 569 508
3 571 570 510
3 511 571 510
3 573 572 512
3 513 573 512
3 676 675 632
3 633 676 632
3 678 677 634
3 635 678 634
3 680 679 636
3 637 680 636
3 682 681 638
3 639 682 638
3 790 789 743
3 744 790 743
3 792 791 745
3 746 792 745
3 794 793 747
3 748 794 747
3 796 795 749
3 750 796 749
3 900 899 864
3 865 900 864
3 902 901 866
3 867 902 866
3 904 903 868
3 869 904 868
3 906 905 870
3 871 906 870
3 1017 1016 970
3 971 1017 970
3 1019 1018 972
3 973 1019 972
3 1021 1020 974
3 975 1021 974
3 1023 1022 976
3 977 1023 976
3 1121 1120 1048
3 1049 1121 1048
3 1123 1122 1050
3 1051 1123 1050
3 1125 1124 1052
3 1053 1125 1052
3 1127 1126 1054
3 1055 1127 1054
3 1212 1211 1164
3 1165 1212 1164
3 1214 1213 1166
3 1167 1214 1166
3 1216 1215 1168
3 1169 1216 1168
3 1218 1217 1170
3 1171 1218 1170
3 1316 1315 1280
3 1281 1316 1280
3 1318 1317 1282
3 1283 1318 1282
3 1320 1319 1284
3 1285 1320 1284
3 1322 1321 1286
3 1287 1322 1286
3 1416 1415 1369
3 1370 1416 1369
3 1418 1417 1371
3 1372 1418 1371
3 1420 1419 1373
3 1374 1420 1373
3 1422 1421 1375
3 1376 1422 1375
3 1497 1496 1455
3 1456 1497 1455
3 1499 1498 1457
3 1458 1499 1457
3 1501 1500 1459
3 1460 1501 1459
3 1503 1502 1461
3 1462 1503 1461
3 1573 1572 1530
3 1531 1573 1530
3 1575 1574 1532
3 1533 1575 1532
3 1577 1576 1534
3 1535 1577 1534
3 1579 1578 1536
3 1537 1579 1536
3 1635 1634 1618
3 1619 1635 1618
3 1637 1636 1620
3 1621 1637 1620
3 1639 1638 1622
3 1623 1639 1622
3 1641 1640 1624
3 1625 1641 1624
3 1680 1679 1661
3 1662 1680 1661
3 1682 1681 1663
3 1664 1682 1663
3 1684 1683 1665
3 1666 1684 1665
3 1686 1685 1667
3 1668 1686 1667
3 1699 1700 463
3 1699 463 461
3 1694 1693 1677
3 1678 1694 1677
3 1676 1675 1691
3 1676 1691 1692
3 1649 1648 1632
3 1633 1649 1632
3 1631 1630 1646
3 1631 1646 1647
3 1587 1586 1547
3 1548 1587 1547
3 1546 1545 1584
3 1546 1584 1585
3 1511 1510 1469
3 1470 1511 1469
3 1468 1467 1508
3 1468 1508 1509
3 1438 1437 1383
3 1384 1438 1383
3 1382 1381 1435
3 1382 1435 1436
3 1330 1329 1294
3 1295 1330 1294
3 1293 1292 1327
3 1293 1327 1328
3 1234 1233 1186
3 1187 1234 1186
3 1185 1184 1231
3 1185 1231 1232
3 1147 1146 1074
3 1075 1147 1074
3 1073 1072 1144
3 1073 1144 1145
3 1039 1038 1006
3 1007 1039 1006
3 1005 1004 1036
3 1005 1036 1037
3 922 921 889
3 890 922 889
3 888 887 919
3 888 919 920
3 812 811 765
3 766 812 765
3 764 763 809
3 764 809 810
3 690 689 646
3 647 690 646
3 645 644 687
3 645 687 688
3 581 580 520
3 521 581 520
3 519 518 578
3 519 578 579
3 1690 1689 1673
3 1674 1690 1673
3 1672 1671 1687
3 1672 1687 1688
3 1645 1644 1628
3 1629 1645 1628
3 1627 1626 1642
3 1627 1642 1643
3 1583 1582 1543
3 1544 1583 1543
3 1542 1541 1580
3 1542 1580 1581
3 1507 1506 1465
3 1466 1507 1465
3 1464 1463 1504
3 1464 1504 1505
3 1434 1433 1379
3 1380 1434 1379
3 1378 1377 1431
3 1378 1431 1432
3 1326 1325 1290
3 1291 1326 1290
3 1289 1288 1323
3 1289 1323 1324
3 1230 1229 1182
3 1183 1230 1182
3 1181 1180 1227
3 1181 1227 1228
3 1143 1142 1070
3 1071 1143 1070
3 1069 1068 1140
3 1069 1140 1141
3 1035 1034 1002
3 1003 1035 1002
3 1001 1000 1032
3 1001 1032 1033
3 918 917 885
3 886 918 885
3 884 883 915
3 884 915 916
3 808 807 761
3 762 808 761
3 760 759 805
3 760 805 806
3 686 685 642
3 643 686 642
3 641 640 683
3 641 683 684
3 577 576 516
3 517 577 516
3 515 514 574
3 515 574 575
3 452 3 1611
3 1701 452 1611
3 1614 126 93
3 1609 1614 93
3 1615 127 95
3 1610 1615 95
3 0 1 94
3 93 0 94
3 211 210 165
3 166 211 165
3 213 212 167
3 168 213 167
3 215 214 169
3 170 215 169
3 217 216 171
3 172 217 171
3 373 372 294
3 295 373 294
3 375 374 296
3 297 375 296
3 377 376 298
3 299 377 298
3 379 378 300
3 301 379 300
3 536 535 492
3 493 536 492
3 538 537 494
3 495 538 494
3 540 539 496
3 497 540 496
3 542 541 498
3 499 542 498
3 625 624 608
3 609 625 608
3 627 626 610
3 611 627 610
3 629 628 612
3 613 629 612
3 631 630 614
3 615 631 614
3 724 723 667
3 668 724 667
3 726 725 669
3 670 726 669
3 728 727 671
3 672 728 671
3 730 729 673
3 674 730 673
3 798 797 751
3 752 798 751
3 800 799 753
3 754 800 753
3 802 801 755
3 756 802 755
3 804 803 757
3 758 804 757
3 908 907 872
3 873 908 872
3 910 909 874
3 875 910 874
3 912 911 876
3 877 912 876
3 914 913 878
3 879 914 878
3 1025 1024 985
3 986 1025 985
3 1027 1026 987
3 988 1027 987
3 1029 1028 989
3 990 1029 989
3 1031 1030 991
3 992 1031 991
3 1129 1128 1056
3 1057 1129 1056
3 1131 1130 1058
3 1059 1131 1058
3 1133 1132 1060
3 1061 1133 1060
3 1135 1134 1062
3 1063 1135 1062
3 1220 1219 1172
3 1173 1220 1172
3 1222 1221 1174
3 1175 1222 1174
3 1224 1223 1176
3 1177 1224 1176
3 1226 1225 1178
3 1179 1226 1178
3 1344 1343 1304
3 1305 1344 1304
3 1346 1345 1306
3 1307 1346 1306
3 1348 1347 1308
3 1309 1348 1308
3 1350 1349 1310
3 1311 1350 1310
3 1448 1447 1423
3 1424 1448 1423
3 1450 1449 1425
3 1426 1450 1425
3 1452 1451 1427
3 1428 1452 1427
3 1454 1453 1429
3 1430 1454 1429
3 1560 1559 1520
3 1521 1560 1520
3 1562 1561 1522
3 1523 1562 1522
3 1564 1563 1524
3 1525 1564 1524
3 1566 1565 1526
3 1527 1566 1526
3 1609 1610 14
3 1609 14 12
3 1558 1557 1518
3 1519 1558 1518
3 1517 1516 1555
3 1517 1555 1556
3 1446 1445 1413
3 1414 1446 1413
3 1412 1411 1443
3 1412 1443 1444
3 1338 1337 1302
3 1303 1338 1302
3 1301 1300 1335
3 1301 1335 1336
3 1210 1209 1162
3 1163 1210 1162
3 1161 1160 1207
3 1161 1207 1208
3 1119 1118 1046
3 1047 1119 1046
3 1045 1044 1116
3 1045 1116 1117
3 1015 1014 962
3 963 1015 962
3 961 960 1012
3 961 1012 1013
3 898 897 862
3 863 898 862
3 861 860 895
3 861 895 896
3 788 787 741
3 742 788 741
3 740 739 785
3 740 785 786
3 722 721 661
3 662 722 661
3 660 659 719
3 660 719 720
3 623 622 606
3 607 623 606
3 605 604 620
3 605 620 621
3 529 528 490
3 491 529 490
3 489 488 526
3 489 526 527
3 368 367 290
3 291 368 290
3 289 288 365
3 289 365 366
3 209 208 156
3 157 209 156
3 155 154 206
3 155 206 207
3 1554 1553 1514
3 1515 1554 1514
3 1513 1512 1551
3 1513 1551 1552
3 1442 1441 1409
3 1410 1442 1409
3 1408 1407 1439
3 1408 1439 1440
3 1334 1333 1298
3 1299 1334 1298
3 1297 1296 1331
3 1297 1331 1332
3 1206 1205 1158
3 1159 1206 1158
3 1157 1156 1203
3 1157 1203 1204
3 1115 1114 1042
3 1043 1115 1042
3 1041 1040 1112
3 1041 1112 1113
3 1011 1010 958
3 959 1011 958
3 957 956 1008
3 957 1008 1009
3 894 893 858
3 859 894 858
3 857 856 891
3 857 891 892
3 784 783 737
3 738 784 737
3 736 735 781
3 736 781 782
3 718 717 657
3 658 718 657
3 656 655 715
3 656 715 716
3 619 618 602
3 603 619 602
3 601 600 616
3 601 616 617
3 525 524 486
3 487 525 486
3 485 484 522
3 485 522 523
3 364 363 286
3 287 364 286
3 285 284 361
3 285 361 362
3 205 204 152
3 153 205 152
3 151 150 202
3 151 202 203
3 457 282 1617
3 1660 457 1617
3 1550 174 5
3 1481 1550 5
3 145 130 85
3 89 145 85
3 146 131 130
3 146 130 145
3 90 146 145
3 90 145 89
3 90 89 85
3 86 90 85
3 86 85 130
3 131 86 130
3 146 131 86
3 90 146 86
3 148 133 88
3 92 148 88
3 75 62 7
3 15 75 7
3 76 63 62
3 76 62 75
3 16 76 75
3 16 75 15
3 16 15 7
3 8 16 7
3 8 7 62
3 63 8 62
3 76 63 8
3 16 76 8
3 594 476 470
3 588 594 470
3 594 476 470
3 588 594 470
3 595 477 476
3 595 476 594
3 589 595 594
3 589 594 588
3 589 588 470
3 471 589 470
3 471 470 476
3 477 471 476
3 595 477 471
3 589 595 471
3 993 849 842
3 978 993 842
3 993 849 842
3 978 993 842
3 994 850 849
3 994 849 993
3 979 994 993
3 979 993 978
3 979 978 842
3 843 979 842
3 843 842 849
3 850 843 849
3 994 850 843
3 979 994 843
3 1398 1273 1266
3 1391 1398 1266
3 1399 1274 1273
3 1399 1273 1398
3 1392 1399 1398
3 1392 1398 1391
3 1392 1391 1266
3 1267 1392 1266
3 1267 1266 1273
3 1274 1267 1273
3 1399 1274 1267
3 1392 1399 1267
3 1656 1606 1603
3 1653 1656 1603
3 1657 1607 1606
3 1657 1606 1656
3 1654 1657 1656
3 1654 1656 1653
3 1654 1653 1603
3 1604 1654 1603
3 1604 1603 1606
3 1607 1604 1606
3 1657 1607 1604
3 1654 1657 1604
3 826 708 702
3 820 826 702
3 827 709 708
3 827 708 826
3 821 827 826
3 821 826 820
3 821 820 702
3 703 821 702
3 703 702 708
3 709 703 708
3 827 709 703
3 821 827 703
3 1245 1095 1086
3 1236 1245 1086
3 1251 1103 1094
3 1244 1251 1094
3 1252 1104 1103
3 1252 1103 1251
3 1245 1252 1251
3 1245 1251 1244
3 1245 1244 1094
3 1095 1245 1094
3 1095 1094 1103
3 1104 1095 1103
3 1252 1104 1095
3 1245 1252 1095
3 1593 1487 1483
3 1589 1593 1483
3 1596 1490 1486
3 1592 1596 1486
3 1597 1491 1490
3 1597 1490 1596
3 1593 1597 1596
3 1593 1596 1592
3 1593 1592 1486
3 1487 1593 1486
3 1487 1486 1490
3 1491 1487 1490
3 1597 1491 1487
3 1593 1597 1487
3 403 397 547
3 551 403 547
3 39 27 224
3 228 39 224
3 39 27 224
3 228 39 224
3 28 27 39
3 40 28 39
3 229 40 39
3 229 39 228
3 225 229 228
3 225 228 224
3 225 224 27
3 28 225 27
3 40 28 225
3 229 40 225
3 559 555 648
3 652 559 648
3 559 555 648
3 652 559 648
3 556 555 559
3 560 556 559
3 653 560 559
3 653 559 652
3 649 653 652
3 649 652 648
3 649 648 555
3 556 649 555
3 560 556 649
3 653 560 649
3 943 939 1064
3 1076 943 1064
3 940 939 943
3 944 940 943
3 1077 944 943
3 1077 943 1076
3 1065 1077 1076
3 1065 1076 1064
3 1065 1064 939
3 940 1065 939
3 944 940 1065
3 1077 944 1065
3 1363 1360 1471
3 1474 1363 1471
3 1361 1360 1363
3 1364 1361 1363
3 1475 1364 1363
3 1475 1363 1474
3 1472 1475 1474
3 1472 1474 1471
3 1472 1471 1360
3 1361 1472 1360
3 1364 1361 1472
3 1475 1364 1472
3 396 389 530
3 546 396 530
3 390 389 396
3 397 390 396
3 547 397 396
3 547 396 546
3 531 547 546
3 531 546 530
3 531 530 389
3 390 531 389
3 397 390 531
3 547 397 531
3 777 773 931
3 935 777 931
3 772 767 925
3 930 772 925
3 768 767 772
3 773 768 772
3 931 773 772
3 931 772 930
3 926 931 930
3 926 930 925
3 926 925 767
3 768 926 767
3 773 768 926
3 931 773 926
3 1198 1194 1352
3 1356 1198 1352
3 1193 1188 1339
3 1351 1193 1339
3 1189 1188 1193
3 1194 1189 1193
3 1352 1194 1193
3 1352 1193 1351
3 1340 1352 1351
3 1340 1351 1339
3 1340 1339 1188
3 1189 1340 1188
3 1194 1189 1340
3 1352 1194 1340
3 283 1495 1568
3 458 283 1568
3 6 1313 1406
3 175 6 1406
3 441 358 369
3 446 441 369
3 359 358 441
3 442 359 441
3 447 442 441
3 447 441 446
3 370 447 446
3 370 446 369
3 370 369 358
3 359 370 358
3 442 359 370
3 447 442 370
3 344 322 338
3 354 344 338
3 311 337 353
3 331 311 353
3 311 337 353
3 331 311 353
3 338 337 311
3 312 338 311
3 312 311 331
3 332 312 331
3 354 332 331
3 354 331 353
3 338 354 353
3 338 353 337
3 312 338 354
3 332 312 354
3 77 64 9
3 17 77 9
3 78 65 64
3 78 64 77
3 18 78 77
3 18 77 17
3 18 17 9
3 10 18 9
3 10 9 64
3 65 10 64
3 78 65 10
3 18 78 10
3 467 585 591
3 473 467 591
3 468 586 592
3 474 468 592
3 596 478 472
3 590 596 472
3 596 478 472
3 590 596 472
3 597 479 478
3 597 478 596
3 591 597 596
3 591 596 590
3 591 590 472
3 473 591 472
3 473 472 478
3 479 473 478
3 597 479 473
3 591 597 473
3 599 481 475
3 593 599 475
3 996 852 845
3 981 996 845
3 996 852 845
3 981 996 845
3 997 853 852
3 997 852 996
3 982 997 996
3 982 996 981
3 982 981 845
3 846 982 845
3 846 845 852
3 853 846 852
3 997 853 846
3 982 997 846
3 824 706 699
3 817 824 699
3 829 711 705
3 823 829 705
3 830 712 711
3 830 711 829
3 824 830 829
3 824 829 823
3 824 823 705
3 706 824 705
3 706 705 711
3 712 706 711
3 830 712 706
3 824 830 706
3 832 714 701
3 819 832 701
3 1401 1276 1269
3 1394 1401 1269
3 1401 1276 1269
3 1394 1401 1269
3 1402 1277 1276
3 1402 1276 1401
3 1395 1402 1401
3 1395 1401 1394
3 1395 1394 1269
3 1270 1395 1269
3 1270 1269 1276
3 1277 1270 1276
3 1402 1277 1270
3 1395 1402 1270
3 1248 1098 1089
3 1239 1248 1089
3 1254 1106 1097
3 1247 1254 1097
3 1255 1107 1106
3 1255 1106 1254
3 1248 1255 1254
3 1248 1254 1247
3 1248 1247 1097
3 1098 1248 1097
3 1098 1097 1106
3 1107 1098 1106
3 1255 1107 1098
3 1248 1255 1098
3 1255 1107 1089
3 1239 1255 1089
3 1148 1099 1090
3 1136 1148 1090
3 1136 1240 1256
3 1150 1136 1256
3 1255 1107 1089
3 1239 1255 1089
3 1256 1108 1107
3 1256 1107 1255
3 1240 1256 1255
3 1240 1255 1239
3 1240 1239 1089
3 1090 1240 1089
3 1090 1089 1107
3 1108 1090 1107
3 1256 1108 1090
3 1240 1256 1090
3 1136 1240 1256
3 1150 1136 1256
3 1241 1240 1136
3 1137 1241 1136
3 1137 1136 1150
3 1151 1137 1150
3 1257 1151 1150
3 1257 1150 1256
3 1241 1257 1256
3 1241 1256 1240
3 1137 1241 1257
3 1151 1137 1257
3 953 924 1155
3 1202 953 1155
3 544 501 692
3 732 544 692
3 502 501 544
3 545 502 544
3 734 545 544
3 734 544 732
3 694 734 732
3 694 732 692
3 694 692 501
3 502 694 501
3 545 502 694
3 734 545 694
3 1570 881 834
3 1539 1570 834
3 1571 882 881
3 1571 881 1570
3 1540 1571 1570
3 1540 1570 1539
3 1540 1539 834
3 835 1540 834
3 835 834 881
3 882 835 881
3 1571 882 835
3 1540 1571 835
3 13 1 0
3 13 0 12
3 0 1 13
3 12 0 13
3 163 0 12
3 176 163 12
3 177 164 163
3 177 163 176
3 177 164 0
3 12 177 0
3 47 32 31
3 47 31 46
3 55 32 47
3 68 55 47
3 54 55 68
3 67 54 68
3 67 54 31
3 46 67 31
3 109 97 96
3 109 96 108
3 117 97 109
3 138 117 109
3 116 117 138
3 137 116 138
3 137 116 96
3 108 137 96
3 414 381 408
3 432 414 408
3 431 432 414
3 431 414 413
3 431 413 380
3 407 431 380
3 315 303 302
3 315 302 314
3 325 303 315
3 347 325 315
3 346 347 325
3 346 325 324
3 346 324 302
3 314 346 302
3 262 256 255
3 262 255 261
3 268 256 262
3 274 268 262
3 273 274 268
3 273 268 267
3 273 267 255
3 261 273 255
3 238 219 218
3 238 218 237
3 244 219 238
3 250 244 238
3 249 250 244
3 249 244 243
3 249 243 218
3 237 249 218
3 185 179 178
3 185 178 184
3 191 179 185
3 197 191 185
3 190 191 197
3 196 190 197
3 196 190 178
3 184 196 178
3 111 99 98
3 111 98 110
3 119 99 111
3 140 119 111
3 118 119 140
3 139 118 140
3 139 118 98
3 110 139 98
3 49 34 33
3 49 33 48
3 57 34 49
3 70 57 49
3 56 57 70
3 69 56 70
3 69 56 33
3 48 69 33
3 50 35 36
3 51 50 36
3 59 36 51
3 72 59 51
3 58 59 72
3 71 58 72
3 71 58 35
3 50 71 35
3 112 100 101
3 113 112 101
3 121 101 113
3 142 121 113
3 120 121 142
3 141 120 142
3 141 120 100
3 112 141 100
3 186 180 181
3 187 186 181
3 193 181 187
3 199 193 187
3 192 193 199
3 198 192 199
3 198 192 180
3 186 198 180
3 239 220 221
3 240 239 221
3 246 221 240
3 252 246 240
3 245 246 252
3 251 245 252
3 251 245 220
3 239 251 220
3 263 257 258
3 264 263 258
3 270 258 264
3 276 270 264
3 269 270 276
3 275 269 276
3 275 269 257
3 263 275 257
3 317 305 304
3 317 304 316
3 327 305 317
3 349 327 317
3 326 327 349
3 348 326 349
3 348 326 304
3 316 348 304
3 409 382 383
3 410 409 383
3 416 383 410
3 434 416 410
3 415 416 434
3 433 415 434
3 433 415 382
3 409 433 382
3 412 385 384
3 412 384 411
3 418 385 412
3 436 418 412
3 417 418 436
3 435 417 436
3 435 417 384
3 411 435 384
3 319 307 306
3 319 306 318
3 329 307 319
3 351 329 319
3 328 329 351
3 350 328 351
3 350 328 306
3 318 350 306
3 266 260 259
3 266 259 265
3 272 260 266
3 278 272 266
3 277 278 272
3 277 272 271
3 277 271 259
3 265 277 259
3 242 223 222
3 242 222 241
3 248 223 242
3 254 248 242
3 247 248 254
3 253 247 254
3 253 247 222
3 241 253 222
3 189 183 182
3 189 182 188
3 195 183 189
3 201 195 189
3 194 195 201
3 200 194 201
3 200 194 182
3 188 200 182
3 115 103 102
3 115 102 114
3 123 103 115
3 144 123 115
3 143 144 123
3 143 123 122
3 143 122 102
3 114 143 102
3 53 38 37
3 53 37 52
3 61 38 53
3 74 61 53
3 60 61 74
3 73 60 74
3 73 60 37
3 52 73 37
3 13 14 2
3 13 2 1
3 450 1 13
3 462 450 13
3 463 451 450
3 463 450 462
3 463 451 2
3 14 463 2
3 408 381 380
3 408 380 407
3 293 280 279
3 293 279 292
3 279 280 293
3 292 279 293
3 449 279 292
3 461 449 292
3 462 450 449
3 462 449 461
3 462 450 279
3 292 462 279
3 335 309 308
3 335 308 334
3 341 309 335
3 357 341 335
3 340 341 357
3 356 340 357
3 356 340 308
3 334 356 308
3 422 401 400
3 422 400 421
3 424 401 422
3 440 424 422
3 423 424 440
3 439 423 440
3 439 423 400
3 421 439 400
3 1615 1614 1695
3 1696 1615 1695
3 1696 1695 1669
3 1670 1696 1669
3 1529 1670 1669
3 1529 1669 1528
3 1615 1529 1528
3 1615 1528 1614
3 127 483 482
3 127 482 126
3 1529 127 126
3 1529 126 1528
3 1529 1528 1669
3 1670 1529 1669
3 1670 1669 482
3 483 1670 482
3 1680 1688 1672
3 1662 1680 1672
3 1661 1662 1672
3 1661 1672 1671
3 1687 1671 1661
3 1679 1687 1661
3 1634 1642 1643
3 1635 1634 1643
3 1635 1643 1627
3 1619 1635 1627
3 1618 1619 1627
3 1618 1627 1626
3 1642 1626 1618
3 1634 1642 1618
3 1572 1580 1581
3 1573 1572 1581
3 1573 1581 1542
3 1531 1573 1542
3 1530 1531 1542
3 1530 1542 1541
3 1580 1541 1530
3 1572 1580 1530
3 1496 1504 1505
3 1497 1496 1505
3 1497 1505 1464
3 1456 1497 1464
3 1455 1456 1464
3 1455 1464 1463
3 1504 1463 1455
3 1496 1504 1455
3 1415 1431 1432
3 1416 1415 1432
3 1416 1432 1378
3 1370 1416 1378
3 1369 1370 1378
3 1369 1378 1377
3 1431 1377 1369
3 1415 1431 1369
3 1315 1323 1324
3 1316 1315 1324
3 1316 1324 1289
3 1281 1316 1289
3 1280 1281 1289
3 1280 1289 1288
3 1323 1288 1280
3 1315 1323 1280
3 1211 1227 1228
3 1212 1211 1228
3 1212 1228 1181
3 1165 1212 1181
3 1164 1165 1181
3 1164 1181 1180
3 1227 1180 1164
3 1211 1227 1164
3 1120 1140 1141
3 1121 1120 1141
3 1121 1141 1069
3 1049 1121 1069
3 1048 1049 1069
3 1048 1069 1068
3 1140 1068 1048
3 1120 1140 1048
3 1016 1032 1033
3 1017 1016 1033
3 1017 1033 1001
3 971 1017 1001
3 970 971 1001
3 970 1001 1000
3 1032 1000 970
3 1016 1032 970
3 899 915 916
3 900 899 916
3 900 916 884
3 865 900 884
3 864 865 884
3 864 884 883
3 915 883 864
3 899 915 864
3 789 805 806
3 790 789 806
3 790 806 760
3 744 790 760
3 743 744 760
3 743 760 759
3 805 759 743
3 789 805 743
3 675 683 684
3 676 675 684
3 676 684 641
3 633 676 641
3 632 633 641
3 632 641 640
3 683 640 632
3 675 683 632
3 566 574 575
3 567 566 575
3 567 575 515
3 507 567 515
3 506 507 515
3 506 515 514
3 574 514 506
3 566 574 506
3 568 576 577
3 569 568 577
3 569 577 517
3 509 569 517
3 508 509 517
3 508 517 516
3 576 516 508
3 568 576 508
3 677 685 686
3 678 677 686
3 678 686 643
3 635 678 643
3 634 635 643
3 634 643 642
3 685 642 634
3 677 685 634
3 791 807 808
3 792 791 808
3 792 808 762
3 746 792 762
3 745 746 762
3 745 762 761
3 807 761 745
3 791 807 745
3 901 917 918
3 902 901 918
3 902 918 886
3 867 902 886
3 866 867 886
3 866 886 885
3 917 885 866
3 901 917 866
3 1018 1034 1035
3 1019 1018 1035
3 1019 1035 1003
3 973 1019 1003
3 972 973 1003
3 972 1003 1002
3 1034 1002 972
3 1018 1034 972
3 1122 1142 1143
3 1123 1122 1143
3 1123 1143 1071
3 1051 1123 1071
3 1050 1051 1071
3 1050 1071 1070
3 1142 1070 1050
3 1122 1142 1050
3 1213 1229 1230
3 1214 1213 1230
3 1214 1230 1183
3 1167 1214 1183
3 1166 1167 1183
3 1166 1183 1182
3 1229 1182 1166
3 1213 1229 1166
3 1317 1325 1326
3 1318 1317 1326
3 1318 1326 1291
3 1283 1318 1291
3 1282 1283 1291
3 1282 1291 1290
3 1325 1290 1282
3 1317 1325 1282
3 1417 1433 1434
3 1418 1417 1434
3 1418 1434 1380
3 1372 1418 1380
3 1371 1372 1380
3 1371 1380 1379
3 1433 1379 1371
3 1417 1433 1371
3 1498 1506 1507
3 1499 1498 1507
3 1499 1507 1466
3 1458 1499 1466
3 1457 1458 1466
3 1457 1466 1465
3 1506 1465 1457
3 1498 1506 1457
3 1574 1582 1583
3 1575 1574 1583
3 1575 1583 1544
3 1533 1575 1544
3 1532 1533 1544
3 1532 1544 1543
3 1582 1543 1532
3 1574 1582 1532
3 1636 1644 1645
3 1637 1636 1645
3 1637 1645 1629
3 1621 1637 1629
3 1620 1621 1629
3 1620 1629 1628
3 1644 1628 1620
3 1636 1644 1620
3 1681 1689 1690
3 1682 1681 1690
3 1682 1690 1674
3 1664 1682 1674
3 1663 1664 1674
3 1663 1674 1673
3 1689 1673 1663
3 1681 1689 1663
3 1683 1691 1692
3 1684 1683 1692
3 1684 1692 1676
3 1666 1684 1676
3 1665 1666 1676
3 1665 1676 1675
3 1691 1675 1665
3 1683 1691 1665
3 1638 1646 1647
3 1639 1638 1647
3 1639 1647 1631
3 1623 1639 1631
3 1622 1623 1631
3 1622 1631 1630
3 1646 1630 1622
3 1638 1646 1622
3 1576 1584 1585
3 1577 1576 1585
3 1577 1585 1546
3 1535 1577 1546
3 1534 1535 1546
3 1534 1546 1545
3 1584 1545 1534
3 1576 1584 1534
3 1500 1508 1509
3 1501 1500 1509
3 1501 1509 1468
3 1460 1501 1468
3 1459 1460 1468
3 1459 1468 1467
3 1508 1467 1459
3 1500 1508 1459
3 1419 1435 1436
3 1420 1419 1436
3 1420 1436 1382
3 1374 1420 1382
3 1373 1374 1382
3 1373 1382 1381
3 1435 1381 1373
3 1419 1435 1373
3 1319 1327 1328
3 1320 1319 1328
3 1320 1328 1293
3 1285 1320 1293
3 1284 1285 1293
3 1284 1293 1292
3 1327 1292 1284
3 1319 1327 1284
3 1215 1231 1232
3 1216 1215 1232
3 1216 1232 1185
3 1169 1216 1185
3 1168 1169 1185
3 1168 1185 1184
3 1231 1184 1168
3 1215 1231 1168
3 1124 1144 1145
3 1125 1124 1145
3 1125 1145 1073
3 1053 1125 1073
3 1052 1053 1073
3 1052 1073 1072
3 1144 1072 1052
3 1124 1144 1052
3 1020 1036 1037
3 1021 1020 1037
3 1021 1037 1005
3 975 1021 1005
3 974 975 1005
3 974 1005 1004
3 1036 1004 974
3 1020 1036 974
3 903 919 920
3 904 903 920
3 904 920 888
3 869 904 888
3 868 869 888
3 868 888 887
3 919 887 868
3 903 919 868
3 793 809 810
3 794 793 810
3 794 810 764
3 748 794 764
3 747 748 764
3 747 764 763
3 809 763 747
3 793 809 747
3 679 687 688
3 680 679 688
3 680 688 645
3 637 680 645
3 636 637 645
3 636 645 644
3 687 644 636
3 679 687 636
3 570 578 579
3 571 570 579
3 571 579 519
3 511 571 519
3 510 511 519
3 510 519 518
3 578 518 510
3 570 578 510
3 572 580 581
3 573 572 581
3 573 581 521
3 513 573 521
3 512 513 521
3 512 521 520
3 580 520 512
3 572 580 512
3 681 689 690
3 682 681 690
3 682 690 647
3 639 682 647
3 638 639 647
3 638 647 646
3 689 646 638
3 681 689 638
3 795 811 812
3 796 795 812
3 796 812 766
3 750 796 766
3 749 750 766
3 749 766 765
3 811 765 749
3 795 811 749
3 905 921 922
3 906 905 922
3 906 922 890
3 871 906 890
3 870 871 890
3 870 890 889
3 921 889 870
3 905 921 870
3 1022 1038 1039
3 1023 1022 1039
3 1023 1039 1007
3 977 1023 1007
3 976 977 1007
3 976 1007 1006
3 1038 1006 976
3 1022 1038 976
3 1126 1146 1147
3 1127 1126 1147
3 1127 1147 1075
3 1055 1127 1075
3 1054 1055 1075
3 1054 1075 1074
3 1146 1074 1054
3 1126 1146 1054
3 1217 1233 1234
3 1218 1217 1234
3 1218 1234 1187
3 1171 1218 1187
3 1170 1171 1187
3 1170 1187 1186
3 1233 1186 1170
3 1217 1233 1170
3 1321 1329 1330
3 1322 1321 1330
3 1322 1330 1295
3 1287 1322 1295
3 1286 1287 1295
3 1286 1295 1294
3 1329 1294 1286
3 1321 1329 1286
3 1421 1437 1438
3 1422 1421 1438
3 1422 1438 1384
3 1376 1422 1384
3 1375 1376 1384
3 1375 1384 1383
3 1437 1383 1375
3 1421 1437 1375
3 1502 1510 1511
3 1503 1502 1511
3 1503 1511 1470
3 1462 1503 1470
3 1461 1462 1470
3 1461 1470 1469
3 1510 1469 1461
3 1502 1510 1461
3 1578 1586 1587
3 1579 1578 1587
3 1579 1587 1548
3 1537 1579 1548
3 1536 1537 1548
3 1536 1548 1547
3 1586 1547 1536
3 1578 1586 1536
3 1640 1648 1649
3 1641 1640 1649
3 1641 1649 1633
3 1625 1641 1633
3 1624 1625 1633
3 1624 1633 1632
3 1648 1632 1624
3 1640 1648 1624
3 1685 1693 1694
3 1686 1685 1694
3 1686 1694 1678
3 1668 1686 1678
3 1667 1668 1678
3 1667 1678 1677
3 1693 1677 1667
3 1685 1693 1667
3 1700 463 460
3 1698 1700 460
3 1697 1698 1700
3 1697 1700 1699
3 1697 1699 461
3 459 1697 461
3 459 461 463
3 460 459 463
3 1679 1687 1688
3 1680 1679 1688
3 1513 1552 1560
3 1521 1513 1560
3 1520 1512 1513
3 1520 1513 1521
3 1520 1512 1551
3 1559 1520 1551
3 1440 1439 1447
3 1448 1440 1447
3 1408 1440 1448
3 1424 1408 1448
3 1423 1407 1408
3 1423 1408 1424
3 1423 1407 1439
3 1447 1423 1439
3 1332 1331 1343
3 1344 1332 1343
3 1297 1332 1344
3 1305 1297 1344
3 1304 1296 1297
3 1304 1297 1305
3 1304 1296 1331
3 1343 1304 1331
3 1204 1203 1219
3 1220 1204 1219
3 1157 1204 1220
3 1173 1157 1220
3 1172 1156 1157
3 1172 1157 1173
3 1172 1156 1203
3 1219 1172 1203
3 1113 1112 1128
3 1129 1113 1128
3 1041 1113 1129
3 1057 1041 1129
3 1056 1040 1041
3 1056 1041 1057
3 1056 1040 1112
3 1128 1056 1112
3 1009 1008 1024
3 1025 1009 1024
3 957 1009 1025
3 986 957 1025
3 985 956 957
3 985 957 986
3 985 956 1008
3 1024 985 1008
3 892 891 907
3 908 892 907
3 857 892 908
3 873 857 908
3 872 856 857
3 872 857 873
3 872 856 891
3 907 872 891
3 782 781 797
3 798 782 797
3 736 782 798
3 752 736 798
3 751 735 736
3 751 736 752
3 751 735 781
3 797 751 781
3 716 715 723
3 724 716 723
3 656 716 724
3 668 656 724
3 667 655 656
3 667 656 668
3 667 655 715
3 723 667 715
3 617 616 624
3 625 617 624
3 601 617 625
3 609 601 625
3 608 600 601
3 608 601 609
3 608 600 616
3 624 608 616
3 523 522 535
3 536 523 535
3 485 523 536
3 493 485 536
3 492 484 485
3 492 485 493
3 492 484 522
3 535 492 522
3 362 361 372
3 373 362 372
3 285 362 373
3 295 285 373
3 294 284 285
3 294 285 295
3 294 284 361
3 372 294 361
3 203 202 210
3 211 203 210
3 151 203 211
3 166 151 211
3 165 150 151
3 165 151 166
3 165 150 202
3 210 165 202
3 205 204 212
3 213 205 212
3 153 205 213
3 168 153 213
3 167 152 153
3 167 153 168
3 167 152 204
3 212 167 204
3 364 363 374
3 375 364 374
3 287 364 375
3 297 287 375
3 296 286 287
3 296 287 297
3 296 286 363
3 374 296 363
3 525 524 537
3 538 525 537
3 487 525 538
3 495 487 538
3 494 486 487
3 494 487 495
3 494 486 524
3 537 494 524
3 619 618 626
3 627 619 626
3 603 619 627
3 611 603 627
3 610 602 603
3 610 603 611
3 610 602 618
3 626 610 618
3 718 717 725
3 726 718 725
3 658 718 726
3 670 658 726
3 669 657 658
3 669 658 670
3 669 657 717
3 725 669 717
3 784 783 799
3 800 784 799
3 738 784 800
3 754 738 800
3 753 737 738
3 753 738 754
3 753 737 783
3 799 753 783
3 894 893 909
3 910 894 909
3 859 894 910
3 875 859 910
3 874 858 859
3 874 859 875
3 874 858 893
3 909 874 893
3 1011 1010 1026
3 1027 1011 1026
3 959 1011 1027
3 988 959 1027
3 987 958 959
3 987 959 988
3 987 958 1010
3 1026 987 1010
3 1115 1114 1130
3 1131 1115 1130
3 1043 1115 1131
3 1059 1043 1131
3 1058 1042 1043
3 1058 1043 1059
3 1058 1042 1114
3 1130 1058 1114
3 1206 1205 1221
3 1222 1206 1221
3 1159 1206 1222
3 1175 1159 1222
3 1174 1158 1159
3 1174 1159 1175
3 1174 1158 1205
3 1221 1174 1205
3 1334 1333 1345
3 1346 1334 1345
3 1299 1334 1346
3 1307 1299 1346
3 1306 1298 1299
3 1306 1299 1307
3 1306 1298 1333
3 1345 1306 1333
3 1442 1441 1449
3 1450 1442 1449
3 1410 1442 1450
3 1426 1410 1450
3 1425 1409 1410
3 1425 1410 1426
3 1425 1409 1441
3 1449 1425 1441
3 1554 1553 1561
3 1562 1554 1561
3 1515 1554 1562
3 1523 1515 1562
3 1522 1514 1515
3 1522 1515 1523
3 1522 1514 1553
3 1561 1522 1553
3 1556 1555 1563
3 1564 1556 1563
3 1517 1556 1564
3 1525 1517 1564
3 1524 1516 1517
3 1524 1517 1525
3 1524 1516 1555
3 1563 1524 1555
3 1444 1443 1451
3 1452 1444 1451
3 1412 1444 1452
3 1428 1412 1452
3 1427 1411 1412
3 1427 1412 1428
3 1427 1411 1443
3 1451 1427 1443
3 1336 1335 1347
3 1348 1336 1347
3 1301 1336 1348
3 1309 1301 1348
3 1308 1300 1301
3 1308 1301 1309
3 1308 1300 1335
3 1347 1308 1335
3 1208 1207 1223
3 1224 1208 1223
3 1161 1208 1224
3 1177 1161 1224
3 1176 1160 1161
3 1176 1161 1177
3 1176 1160 1207
3 1223 1176 1207
3 1117 1116 1132
3 1133 1117 1132
3 1045 1117 1133
3 1061 1045 1133
3 1060 1044 1045
3 1060 1045 1061
3 1060 1044 1116
3 1132 1060 1116
3 1013 1012 1028
3 1029 1013 1028
3 961 1013 1029
3 990 961 1029
3 989 960 961
3 989 961 990
3 989 960 1012
3 1028 989 1012
3 896 895 911
3 912 896 911
3 861 896 912
3 877 861 912
3 876 860 861
3 876 861 877
3 876 860 895
3 911 876 895
3 786 785 801
3 802 786 801
3 740 786 802
3 756 740 802
3 755 739 740
3 755 740 756
3 755 739 785
3 801 755 785
3 720 719 727
3 728 720 727
3 660 720 728
3 672 660 728
3 671 659 660
3 671 660 672
3 671 659 719
3 727 671 719
3 621 620 628
3 629 621 628
3 605 621 629
3 613 605 629
3 612 604 605
3 612 605 613
3 612 604 620
3 628 612 620
3 527 526 539
3 540 527 539
3 489 527 540
3 497 489 540
3 496 488 489
3 496 489 497
3 496 488 526
3 539 496 526
3 366 365 376
3 377 366 376
3 289 366 377
3 299 289 377
3 298 288 289
3 298 289 299
3 298 288 365
3 376 298 365
3 207 206 214
3 215 207 214
3 155 207 215
3 170 155 215
3 169 154 155
3 169 155 170
3 169 154 206
3 214 169 206
3 209 208 216
3 217 209 216
3 157 209 217
3 172 157 217
3 171 156 157
3 171 157 172
3 171 156 208
3 216 171 208
3 368 367 378
3 379 368 378
3 291 368 379
3 301 291 379
3 300 290 291
3 300 291 301
3 300 290 367
3 378 300 367
3 529 528 541
3 542 529 541
3 491 529 542
3 499 491 542
3 498 490 491
3 498 491 499
3 498 490 528
3 541 498 528
3 623 622 630
3 631 623 630
3 607 623 631
3 615 607 631
3 614 606 607
3 614 607 615
3 614 606 622
3 630 614 622
3 722 721 729
3 730 722 729
3 662 722 730
3 674 662 730
3 673 661 662
3 673 662 674
3 673 661 721
3 729 673 721
3 788 787 803
3 804 788 803
3 742 788 804
3 758 742 804
3 757 741 742
3 757 742 758
3 757 741 787
3 803 757 787
3 898 897 913
3 914 898 913
3 863 898 914
3 879 863 914
3 878 862 863
3 878 863 879
3 878 862 897
3 913 878 897
3 1015 1014 1030
3 1031 1015 1030
3 963 1015 1031
3 992 963 1031
3 991 962 963
3 991 963 992
3 991 962 1014
3 1030 991 1014
3 1119 1118 1134
3 1135 1119 1134
3 1047 1119 1135
3 1063 1047 1135
3 1062 1046 1047
3 1062 1047 1063
3 1062 1046 1118
3 1134 1062 1118
3 1210 1209 1225
3 1226 1210 1225
3 1163 1210 1226
3 1179 1163 1226
3 1178 1162 1163
3 1178 1163 1179
3 1178 1162 1209
3 1225 1178 1209
3 1338 1337 1349
3 1350 1338 1349
3 1303 1338 1350
3 1311 1303 1350
3 1310 1302 1303
3 1310 1303 1311
3 1310 1302 1337
3 1349 1310 1337
3 1446 1445 1453
3 1454 1446 1453
3 1414 1446 1454
3 1430 1414 1454
3 1429 1413 1414
3 1429 1414 1430
3 1429 1413 1445
3 1453 1429 1445
3 1558 1557 1565
3 1566 1558 1565
3 1519 1558 1566
3 1527 1519 1566
3 1526 1518 1519
3 1526 1519 1527
3 1526 1518 1557
3 1565 1526 1557
3 21 14 1610
3 1613 21 1610
3 1612 1609 1610
3 1612 1610 1613
3 12 1609 1612
3 20 12 1612
3 14 12 20
3 21 14 20
3 1552 1551 1559
3 1560 1552 1559
3 1617 1616 1659
3 1660 1617 1659
3 1660 1659 1656
3 1658 1660 1656
3 1652 1658 1656
3 1652 1656 1650
3 1652 1650 1600
3 1602 1652 1600
3 1602 1600 1606
3 1608 1602 1606
3 1608 1606 1596
3 1599 1608 1596
3 1591 1599 1596
3 1591 1596 1588
3 1591 1588 1482
3 1485 1591 1482
3 1485 1482 1490
3 1493 1485 1490
3 1493 1490 1398
3 1400 1493 1398
3 1387 1400 1398
3 1387 1398 1385
3 1387 1385 1260
3 1262 1387 1260
3 1262 1260 1273
3 1275 1262 1273
3 1275 1273 1251
3 1254 1275 1251
3 1238 1254 1251
3 1238 1251 1235
3 1238 1235 1085
3 1088 1238 1085
3 1088 1085 1103
3 1106 1088 1103
3 1106 1103 993
3 995 1106 993
3 966 995 993
3 966 993 964
3 966 964 836
3 838 966 836
3 838 836 849
3 851 838 849
3 851 849 826
3 829 851 826
3 816 829 826
3 816 826 813
3 816 813 695
3 698 816 695
3 698 695 708
3 711 698 708
3 711 708 594
3 596 711 594
3 584 596 594
3 584 594 582
3 584 582 464
3 466 584 464
3 466 464 476
3 478 466 476
3 478 476 456
3 457 478 456
3 430 457 456
3 430 456 429
3 445 430 429
3 445 429 444
3 428 445 444
3 428 444 427
3 428 427 419
3 420 428 419
3 331 420 419
3 331 419 330
3 353 331 330
3 353 330 352
3 337 353 352
3 337 352 336
3 337 336 310
3 311 337 310
3 282 311 310
3 282 310 281
3 1617 282 281
3 1617 281 1616
3 692 691 731
3 732 692 731
3 732 731 543
3 544 732 543
3 501 544 543
3 501 543 500
3 692 501 500
3 692 500 691
3 1539 834 833
3 1539 833 1538
3 1539 1538 1569
3 1570 1539 1569
3 1570 1569 880
3 881 1570 880
3 834 881 880
3 834 880 833
3 1084 1083 1110
3 1111 1084 1110
3 1111 1110 954
3 955 1111 954
3 947 955 954
3 947 954 946
3 1084 947 946
3 1084 946 1083
3 428 427 444
3 445 428 444
3 445 444 437
3 438 445 437
3 426 438 437
3 426 437 425
3 428 426 425
3 428 425 427
3 337 336 352
3 353 337 352
3 353 352 342
3 343 353 342
3 321 343 342
3 321 342 320
3 337 321 320
3 337 320 336
3 106 160 159
3 106 159 105
3 106 105 90
3 91 106 90
3 91 90 146
3 147 91 146
3 160 147 146
3 160 146 159
3 815 697 696
3 815 696 814
3 815 814 821
3 822 815 821
3 822 821 703
3 704 822 703
3 697 704 703
3 697 703 696
3 584 466 465
3 584 465 583
3 584 583 589
3 590 584 589
3 590 589 471
3 472 590 471
3 466 472 471
3 466 471 465
3 966 838 837
3 966 837 965
3 966 965 979
3 980 966 979
3 980 979 843
3 844 980 843
3 838 844 843
3 838 843 837
3 1387 1262 1261
3 1387 1261 1386
3 1387 1386 1392
3 1393 1387 1392
3 1393 1392 1267
3 1268 1393 1267
3 1262 1268 1267
3 1262 1267 1261
3 1652 1602 1601
3 1652 1601 1651
3 1652 1651 1654
3 1655 1652 1654
3 1655 1654 1604
3 1605 1655 1604
3 1602 1605 1604
3 1602 1604 1601
3 704 705 823
3 822 704 823
3 828 822 823
3 828 823 829
3 710 828 829
3 710 829 711
3 710 711 705
3 704 710 705
3 1237 1087 1086
3 1237 1086 1236
3 1237 1236 1245
3 1246 1237 1245
3 1246 1245 1095
3 1096 1246 1095
3 1087 1096 1095
3 1087 1095 1086
3 1096 1097 1247
3 1246 1096 1247
3 1253 1246 1247
3 1253 1247 1254
3 1105 1253 1254
3 1105 1254 1106
3 1105 1106 1097
3 1096 1105 1097
3 1590 1484 1483
3 1590 1483 1589
3 1590 1589 1593
3 1594 1590 1593
3 1594 1593 1487
3 1488 1594 1487
3 1484 1488 1487
3 1484 1487 1483
3 1488 1489 1595
3 1594 1488 1595
3 1598 1594 1595
3 1598 1595 1599
3 1492 1598 1599
3 1492 1599 1493
3 1492 1493 1489
3 1488 1492 1489
3 147 148 92
3 91 147 92
3 87 91 92
3 87 92 88
3 132 87 88
3 132 88 133
3 132 133 148
3 147 132 148
3 24 82 81
3 24 81 23
3 24 23 16
3 17 24 16
3 17 16 76
3 77 17 76
3 82 77 76
3 82 76 81
3 1481 1550 1549
3 1481 1549 1480
3 1481 1480 1471
3 1473 1481 1471
3 1473 1471 1477
3 1479 1473 1477
3 1479 1477 1366
3 1368 1479 1366
3 1362 1368 1366
3 1362 1366 1360
3 1362 1360 1339
3 1342 1362 1339
3 1342 1339 1355
3 1358 1342 1355
3 1358 1355 1197
3 1200 1358 1197
3 1191 1200 1197
3 1191 1197 1188
3 1191 1188 1064
3 1066 1191 1064
3 1066 1064 1079
3 1081 1066 1079
3 1081 1079 948
3 950 1081 948
3 941 950 948
3 941 948 939
3 941 939 925
3 928 941 925
3 928 925 934
3 937 928 934
3 937 934 776
3 779 937 776
3 770 779 776
3 770 776 767
3 770 767 648
3 650 770 648
3 650 648 663
3 665 650 663
3 665 663 562
3 564 665 562
3 557 564 562
3 557 562 555
3 557 555 530
3 533 557 530
3 533 530 550
3 553 533 550
3 553 550 402
3 405 553 402
3 392 405 402
3 392 402 389
3 392 389 224
3 226 392 224
3 226 224 231
3 233 226 231
3 233 231 42
3 44 233 42
3 29 44 42
3 29 42 27
3 29 27 4
3 5 29 4
3 5 4 7
3 9 5 7
3 24 9 7
3 24 7 22
3 24 22 80
3 82 24 80
3 82 80 62
3 64 82 62
3 64 62 85
3 88 64 85
3 107 88 85
3 107 85 104
3 107 104 158
3 161 107 158
3 161 158 130
3 133 161 130
3 133 130 173
3 174 133 173
3 1550 174 173
3 1550 173 1549
3 552 404 403
3 552 403 551
3 548 552 551
3 548 551 547
3 548 547 397
3 398 548 397
3 398 397 403
3 404 398 403
3 233 44 43
3 233 43 232
3 230 233 232
3 230 232 229
3 230 229 40
3 41 230 40
3 41 40 43
3 44 41 43
3 665 564 563
3 665 563 664
3 654 665 664
3 654 664 653
3 654 653 560
3 561 654 560
3 561 560 563
3 564 561 563
3 1081 950 949
3 1081 949 1080
3 1078 1081 1080
3 1078 1080 1077
3 1078 1077 944
3 945 1078 944
3 945 944 949
3 950 945 949
3 1479 1368 1367
3 1479 1367 1478
3 1476 1479 1478
3 1476 1478 1475
3 1476 1475 1364
3 1365 1476 1364
3 1365 1364 1367
3 1368 1365 1367
3 398 399 549
3 548 398 549
3 548 549 533
3 532 548 533
3 391 532 533
3 391 533 392
3 398 391 392
3 398 392 399
3 936 778 777
3 936 777 935
3 932 936 935
3 932 935 931
3 932 931 773
3 774 932 773
3 774 773 777
3 778 774 777
3 774 775 933
3 932 774 933
3 932 933 928
3 927 932 928
3 769 927 928
3 769 928 770
3 774 769 770
3 774 770 775
3 1357 1199 1198
3 1357 1198 1356
3 1353 1357 1356
3 1353 1356 1352
3 1353 1352 1194
3 1195 1353 1194
3 1195 1194 1198
3 1199 1195 1198
3 1195 1196 1354
3 1353 1195 1354
3 1353 1354 1342
3 1341 1353 1342
3 1190 1341 1342
3 1190 1342 1191
3 1195 1190 1191
3 1195 1191 1196
3 1495 1494 1567
3 1568 1495 1567
3 1568 1567 1400
3 1404 1568 1400
3 1390 1404 1400
3 1390 1400 1387
3 1390 1387 1262
3 1265 1390 1262
3 1265 1262 1275
3 1279 1265 1275
3 1279 1275 1254
3 1259 1279 1254
3 1243 1259 1254
3 1243 1254 1238
3 1243 1238 1088
3 1093 1243 1088
3 1093 1088 1106
3 1109 1093 1106
3 1109 1106 995
3 999 1109 995
3 969 999 995
3 969 995 966
3 969 966 838
3 841 969 838
3 841 838 851
3 855 841 851
3 855 851 829
3 832 855 829
3 819 832 829
3 819 829 816
3 819 816 698
3 701 819 698
3 701 698 711
3 714 701 711
3 714 711 596
3 599 714 596
3 587 599 596
3 587 596 584
3 587 584 466
3 469 587 466
3 469 466 478
3 481 469 478
3 481 478 457
3 458 481 457
3 443 458 457
3 443 457 441
3 455 443 441
3 455 441 453
3 388 455 453
3 388 453 386
3 388 386 358
3 360 388 358
3 333 360 358
3 333 358 331
3 355 333 331
3 355 331 353
3 339 355 353
3 339 353 337
3 339 337 311
3 313 339 311
3 283 313 311
3 283 311 282
3 1495 283 282
3 1495 282 1494
3 1313 1406 1405
3 1313 1405 1312
3 1313 1312 1191
3 1192 1313 1191
3 1192 1191 1066
3 1067 1192 1066
3 1067 1066 1081
3 1082 1067 1081
3 1082 1081 950
3 951 1082 950
3 942 951 950
3 942 950 941
3 942 941 928
3 929 942 928
3 929 928 937
3 938 929 937
3 938 937 779
3 780 938 779
3 771 780 779
3 771 779 770
3 771 770 650
3 651 771 650
3 651 650 665
3 666 651 665
3 666 665 564
3 565 666 564
3 558 565 564
3 558 564 557
3 558 557 533
3 534 558 533
3 534 533 553
3 554 534 553
3 554 553 405
3 406 554 405
3 393 406 405
3 393 405 392
3 393 392 226
3 227 393 226
3 227 226 233
3 234 227 233
3 234 233 44
3 45 234 44
3 30 45 44
3 30 44 29
3 30 29 5
3 6 30 5
3 6 5 9
3 11 6 9
3 26 11 9
3 26 9 24
3 26 24 82
3 84 26 82
3 84 82 64
3 66 84 64
3 66 64 124
3 125 66 124
3 136 125 124
3 136 124 135
3 136 135 161
3 162 136 161
3 162 161 133
3 134 162 133
3 134 133 174
3 175 134 174
3 1406 175 174
3 1406 174 1405
3 136 135 161
3 162 136 161
3 162 161 148
3 149 162 148
3 129 149 148
3 129 148 128
3 136 129 128
3 136 128 135
3 388 387 454
3 455 388 454
3 455 454 447
3 448 455 447
3 371 448 447
3 371 447 370
3 388 371 370
3 388 370 387
3 339 338 354
3 355 339 354
3 355 354 344
3 345 355 344
3 323 345 344
3 323 344 322
3 339 323 322
3 339 322 338
3 26 84 83
3 26 83 25
3 26 25 18
3 19 26 18
3 19 18 78
3 79 19 78
3 84 79 78
3 84 78 83
3 473 591 592
3 473 592 474
3 473 474 468
3 467 473 468
3 467 468 586
3 585 467 586
3 591 585 586
3 591 586 592
3 474 475 593
3 592 474 593
3 598 592 593
3 598 593 599
3 480 598 599
3 480 599 481
3 480 481 475
3 474 480 475
3 968 840 839
3 968 839 967
3 968 967 982
3 983 968 982
3 983 982 846
3 847 983 846
3 840 847 846
3 840 846 839
3 847 848 984
3 983 847 984
3 998 983 984
3 998 984 999
3 854 998 999
3 854 999 855
3 854 855 848
3 847 854 848
3 818 700 699
3 818 699 817
3 818 817 824
3 825 818 824
3 825 824 706
3 707 825 706
3 700 707 706
3 700 706 699
3 700 701 819
3 818 700 819
3 831 818 819
3 831 819 832
3 713 831 832
3 713 832 714
3 713 714 701
3 700 713 701
3 844 845 981
3 980 844 981
3 995 980 981
3 995 981 996
3 851 995 996
3 851 996 852
3 851 852 845
3 844 851 845
3 1389 1264 1263
3 1389 1263 1388
3 1389 1388 1395
3 1396 1389 1395
3 1396 1395 1270
3 1271 1396 1270
3 1264 1271 1270
3 1264 1270 1263
3 1271 1272 1397
3 1396 1271 1397
3 1403 1396 1397
3 1403 1397 1404
3 1278 1403 1404
3 1278 1404 1279
3 1278 1279 1272
3 1271 1278 1272
3 1242 1092 1091
3 1242 1091 1241
3 1242 1241 1249
3 1250 1242 1249
3 1250 1249 1100
3 1101 1250 1100
3 1092 1101 1100
3 1092 1100 1091
3 1268 1269 1394
3 1393 1268 1394
3 1400 1393 1394
3 1400 1394 1401
3 1275 1400 1401
3 1275 1401 1276
3 1275 1276 1269
3 1268 1275 1269
3 1139 1149 1148
3 1139 1148 1136
3 1139 1136 1090
3 1093 1139 1090
3 1093 1090 1099
3 1102 1093 1099
3 1149 1102 1099
3 1149 1099 1148
3 1152 1138 1139
3 1152 1139 1153
3 1152 1153 1259
3 1258 1152 1259
3 1258 1259 1243
3 1242 1258 1243
3 1138 1242 1243
3 1138 1243 1139
3 1201 1154 1155
3 1201 1155 1202
3 952 1201 1202
3 952 1202 953
3 952 953 924
3 923 952 924
3 923 924 1155
3 1154 923 1155
