OFF
193 413 0
0.000 35.459 0.000
0.000 35.459 8.000
1.529 30.190 11.000
3.058 24.921 0.000
3.058 24.921 8.000
7.754 23.305 0.000
7.754 23.305 2.500
7.754 23.305 5.500
7.865 22.921 0.000
7.865 22.921 2.500
8.139 23.416 0.000
8.139 23.416 2.500
8.250 23.032 0.000
8.250 23.032 2.500
8.351 21.240 0.000
8.351 21.240 2.500
8.462 20.856 0.000
8.462 20.856 2.500
8.539 26.511 0.000
8.539 26.511 8.000
8.736 21.351 0.000
8.736 21.351 2.500
8.847 20.967 0.000
8.847 20.967 2.500
8.892 19.366 7.400
9.002 24.915 0.000
9.002 24.915 8.000
9.249 24.986 0.000
9.249 24.986 2.500
9.249 24.986 5.500
9.322 17.878 0.000
9.322 17.878 2.500
9.434 17.494 0.000
9.434 17.494 2.500
9.581 23.833 2.500
9.581 23.833 5.500
9.707 17.989 0.000
9.707 17.989 2.500
9.818 17.605 0.000
9.818 17.605 2.500
9.919 15.812 0.000
9.919 15.812 2.500
10.030 15.428 0.000
10.030 15.428 2.500
10.030 15.428 5.500
10.304 15.923 0.000
10.304 15.923 2.500
10.415 15.540 0.000
10.415 15.540 2.500
11.361 33.042 11.000
11.412 17.491 0.000
11.412 17.491 2.500
13.355 26.172 11.000
13.762 16.922 0.000
13.762 16.922 2.500
13.873 16.538 0.000
13.873 16.538 2.500
14.146 17.033 0.000
14.146 17.033 2.500
14.183 39.575 8.000
14.257 16.649 0.000
14.257 16.649 2.500
15.158 36.218 0.000
15.158 36.218 8.000
15.182 19.933 0.000
15.182 19.933 2.500
15.543 18.684 0.000
15.543 18.684 2.500
17.256 27.298 0.000
17.256 27.298 2.500
17.256 27.298 5.500
17.589 26.146 2.500
17.589 26.146 5.500
17.604 18.032 0.000
17.604 18.032 2.500
17.709 27.429 0.000
17.709 27.429 8.000
17.716 17.648 0.000
17.716 17.648 2.500
17.989 18.143 0.000
17.989 18.143 2.500
18.075 24.465 0.000
18.075 24.465 2.500
18.100 17.759 0.000
18.100 17.759 2.500
20.753 21.543 0.000
20.753 21.543 2.500
21.114 20.294 0.000
21.114 20.294 2.500
21.447 19.141 0.000
21.447 19.141 2.500
21.464 41.687 0.000
21.464 41.687 8.000
21.558 18.757 0.000
21.558 18.757 2.500
21.558 18.757 5.500
21.831 19.252 0.000
21.831 19.252 2.500
21.943 18.868 0.000
21.943 18.868 2.500
22.418 15.779 0.000
22.418 15.779 2.500
22.438 38.330 0.000
22.438 38.330 8.000
22.530 15.395 0.000
22.530 15.395 2.500
22.639 20.735 0.000
22.639 20.735 2.500
22.803 15.890 0.000
22.803 15.890 2.500
22.914 15.506 0.000
22.914 15.506 2.500
23.390 12.417 0.000
23.390 12.417 2.500
23.501 12.033 0.000
23.501 12.033 2.500
23.774 12.528 0.000
23.774 12.528 2.500
23.886 12.144 0.000
23.886 12.144 2.500
24.362 9.054 0.000
24.362 9.054 2.500
24.473 8.671 0.000
24.473 8.671 2.500
24.527 23.880 7.400
24.527 23.880 7.401
24.746 9.166 0.000
24.746 9.166 2.500
24.857 8.782 0.000
24.857 8.782 2.500
25.340 5.669 0.000
25.340 5.669 2.500
25.451 5.285 0.000
25.451 5.285 2.500
25.451 5.285 5.500
25.724 5.780 0.000
25.724 5.780 2.500
25.835 5.396 0.000
25.835 5.396 2.500
26.582 1.370 0.000
26.582 1.370 2.500
26.693 0.986 0.000
26.693 0.986 2.500
26.966 1.481 0.000
26.966 1.481 2.500
26.977 5.725 0.000
26.977 5.725 2.500
27.077 1.097 0.000
27.077 1.097 2.500
27.496 29.008 2.500
27.496 29.008 5.500
27.982 27.325 0.000
27.982 27.325 2.500
28.514 6.169 0.000
28.514 6.169 2.500
29.558 6.471 7.400
29.756 1.870 0.000
29.756 1.870 2.500
30.445 18.800 0.000
30.445 18.800 2.500
32.160 12.909 5.200
32.201 12.771 0.000
32.201 12.771 2.500
32.201 12.771 5.200
33.664 7.656 2.500
33.664 7.656 3.900
33.664 7.656 5.500
34.033 6.454 9.200
34.906 3.358 0.000
34.906 3.358 2.500
35.907 0.000 5.200
35.907 0.001 0.000
35.907 0.001 5.200
36.209 20.465 0.000
36.209 20.465 2.500
36.694 18.783 0.000
36.694 18.783 2.500
37.926 20.208 0.000
37.926 20.208 5.200
38.212 19.222 0.000
38.212 19.222 2.500
39.472 14.880 0.000
39.472 14.880 2.500
39.472 14.880 5.200
49.290 23.505 0.000
49.290 23.505 5.200
50.796 18.318 0.000
50.796 18.318 5.200
56.362 19.933 0.000
56.362 19.933 5.200
58.236 13.478 9.200
60.111 7.024 0.000
60.111 7.024 5.200
3 18 3 0
3 75 25 18
3 62 75 18
3 91 102 62
3 0 91 62
3 18 0 62
3 191 171 161
3 186 188 191
3 177 184 186
3 181 177 186
3 191 161 181
3 186 191 181
3 192 172 163
3 187 189 192
3 178 185 187
3 183 178 187
3 192 163 183
3 187 192 183
3 66 50 27
3 64 66 27
3 85 64 27
3 106 87 85
3 153 145 106
3 168 156 153
3 161 168 153
3 179 181 161
3 175 179 161
3 173 175 161
3 158 173 161
3 81 151 158
3 27 68 81
3 85 27 81
3 106 85 81
3 161 153 106
3 158 161 106
3 81 158 106
3 94 43 6
3 164 133 94
3 149 164 94
3 71 149 94
3 28 69 71
3 34 28 71
3 6 34 71
3 94 6 71
3 169 142 133
3 164 169 133
3 132 130 135
3 137 132 135
3 122 120 126
3 128 122 126
3 114 112 116
3 118 114 116
3 104 100 108
3 110 104 108
3 93 89 96
3 98 93 96
3 77 73 79
3 83 77 79
3 55 53 57
3 60 55 57
3 42 40 45
3 47 42 45
3 32 30 36
3 38 32 36
3 16 14 20
3 22 16 20
3 8 5 10
3 12 8 10
3 141 139 143
3 147 141 143
3 18 3 0
3 75 25 18
3 62 75 18
3 91 102 62
3 0 91 62
3 18 0 62
3 1 0 3
3 4 1 3
3 19 4 3
3 19 3 18
3 19 18 25
3 26 19 25
3 76 26 25
3 76 25 75
3 63 76 75
3 63 75 62
3 103 63 62
3 103 62 102
3 92 103 102
3 92 102 91
3 92 91 0
3 1 92 0
3 19 4 1
3 76 26 19
3 63 76 19
3 92 103 63
3 1 92 63
3 19 1 63
3 4 2 49
3 19 4 49
3 2 4 1
3 2 1 59
3 49 2 59
3 66 50 27
3 64 66 27
3 85 64 27
3 106 87 85
3 153 145 106
3 168 156 153
3 161 168 153
3 179 181 161
3 175 179 161
3 173 175 161
3 158 173 161
3 81 151 158
3 27 68 81
3 85 27 81
3 106 85 81
3 161 153 106
3 158 161 106
3 81 158 106
3 67 51 50
3 67 50 66
3 65 67 66
3 65 66 64
3 86 65 64
3 86 64 85
3 86 85 87
3 88 86 87
3 107 88 87
3 107 87 106
3 107 106 145
3 146 107 145
3 154 146 145
3 154 145 153
3 154 153 156
3 157 154 156
3 169 157 156
3 169 156 168
3 162 169 168
3 162 168 161
3 182 162 161
3 182 161 181
3 180 182 181
3 180 181 179
3 180 179 175
3 176 180 175
3 174 176 175
3 174 175 173
3 174 173 158
3 159 174 158
3 152 159 158
3 152 158 151
3 152 151 81
3 82 152 81
3 69 82 81
3 69 81 68
3 69 68 27
3 28 69 27
3 28 27 50
3 51 28 50
3 67 51 28
3 65 67 28
3 86 65 28
3 107 88 86
3 154 146 107
3 169 157 154
3 162 169 154
3 180 182 162
3 176 180 162
3 174 176 162
3 159 174 162
3 82 152 159
3 28 69 82
3 86 28 82
3 107 86 82
3 162 154 107
3 159 162 107
3 82 159 107
3 42 40 45
3 47 42 45
3 41 40 42
3 43 41 42
3 48 43 42
3 48 42 47
3 46 48 47
3 46 47 45
3 46 45 40
3 41 46 40
3 43 41 46
3 48 43 46
3 55 53 57
3 60 55 57
3 54 53 55
3 56 54 55
3 61 56 55
3 61 55 60
3 58 61 60
3 58 60 57
3 58 57 53
3 54 58 53
3 56 54 58
3 61 56 58
3 94 43 6
3 164 133 94
3 149 164 94
3 71 149 94
3 28 69 71
3 34 28 71
3 6 34 71
3 94 6 71
3 95 44 43
3 95 43 94
3 95 94 133
3 134 95 133
3 166 134 133
3 166 133 164
3 150 166 164
3 150 164 149
3 150 149 71
3 72 150 71
3 70 72 71
3 70 71 69
3 70 69 28
3 29 70 28
3 29 28 34
3 35 29 34
3 35 34 6
3 7 35 6
3 7 6 43
3 44 7 43
3 95 44 7
3 166 134 95
3 150 166 95
3 72 150 95
3 29 70 72
3 35 29 72
3 7 35 72
3 95 7 72
3 32 30 36
3 38 32 36
3 31 30 32
3 33 31 32
3 39 33 32
3 39 32 38
3 37 39 38
3 37 38 36
3 37 36 30
3 31 37 30
3 33 31 37
3 39 33 37
3 16 14 20
3 22 16 20
3 15 14 16
3 17 15 16
3 23 17 16
3 23 16 22
3 21 23 22
3 21 22 20
3 21 20 14
3 15 21 14
3 17 15 21
3 23 17 21
3 8 5 10
3 12 8 10
3 6 5 8
3 9 6 8
3 13 9 8
3 13 8 12
3 11 13 12
3 11 12 10
3 11 10 5
3 6 11 5
3 9 6 11
3 13 9 11
3 77 73 79
3 83 77 79
3 74 73 77
3 78 74 77
3 84 78 77
3 84 77 83
3 80 84 83
3 80 83 79
3 80 79 73
3 74 80 73
3 78 74 80
3 84 78 80
3 93 89 96
3 98 93 96
3 90 89 93
3 94 90 93
3 99 94 93
3 99 93 98
3 97 99 98
3 97 98 96
3 97 96 89
3 90 97 89
3 94 90 97
3 99 94 97
3 104 100 108
3 110 104 108
3 101 100 104
3 105 101 104
3 111 105 104
3 111 104 110
3 109 111 110
3 109 110 108
3 109 108 100
3 101 109 100
3 105 101 109
3 111 105 109
3 114 112 116
3 118 114 116
3 113 112 114
3 115 113 114
3 119 115 114
3 119 114 118
3 117 119 118
3 117 118 116
3 117 116 112
3 113 117 112
3 115 113 117
3 119 115 117
3 122 120 126
3 128 122 126
3 121 120 122
3 123 121 122
3 129 123 122
3 129 122 128
3 127 129 128
3 127 128 126
3 127 126 120
3 121 127 120
3 123 121 127
3 129 123 127
3 132 130 135
3 137 132 135
3 131 130 132
3 133 131 132
3 138 133 132
3 138 132 137
3 136 138 137
3 136 137 135
3 136 135 130
3 131 136 130
3 133 131 136
3 138 133 136
3 141 139 143
3 147 141 143
3 140 139 141
3 142 140 141
3 148 142 141
3 148 141 147
3 144 148 147
3 144 147 143
3 144 143 139
3 140 144 139
3 142 140 144
3 148 142 144
3 142 165 169
3 165 142 133
3 24 7 44
3 44 24 124
3 95 44 124
3 95 124 155
3 134 95 155
3 155 134 166
3 155 124 150
3 166 155 150
3 7 150 125
3 24 7 125
3 26 76 52
3 19 49 52
3 26 19 52
3 49 59 76
3 52 49 76
3 191 171 161
3 186 188 191
3 177 184 186
3 181 177 186
3 191 161 181
3 186 191 181
3 192 172 171
3 192 171 191
3 189 192 191
3 189 191 188
3 189 188 186
3 187 189 186
3 185 187 186
3 185 186 184
3 185 184 177
3 178 185 177
3 178 177 181
3 183 178 181
3 183 181 161
3 163 183 161
3 163 161 171
3 172 163 171
3 192 172 163
3 187 189 192
3 178 185 187
3 183 178 187
3 192 163 183
3 187 192 183
3 190 189 192
3 190 189 192
3 160 189 192
3 170 160 192
3 190 192 170
3 167 190 170
3 189 190 167
3 160 189 167
3 167 160 170
