OFF
288 708 0
0.000 33.017 0.000
0.000 33.017 10.700
4.675 43.626 0.000
4.675 43.626 10.700
7.190 35.151 0.000
7.190 35.151 10.700
9.319 45.004 0.000
9.319 45.004 7.800
9.319 45.004 10.700
9.797 0.000 0.000
9.797 0.000 10.700
12.459 45.936 0.000
12.459 45.936 7.800
14.974 37.461 0.000
14.974 37.461 7.800
15.873 6.208 0.000
15.880 6.417 0.000
15.880 6.417 10.700
15.884 5.942 0.000
15.884 6.474 0.000
15.919 5.678 0.000
15.919 6.737 0.000
15.951 5.522 0.000
15.951 5.522 10.700
15.977 5.418 0.000
15.977 6.997 0.000
16.048 7.228 0.000
16.048 7.228 10.700
16.057 5.165 0.000
16.057 7.251 0.000
16.158 4.919 0.000
16.158 7.497 0.000
16.191 4.851 0.000
16.191 4.851 10.700
16.281 4.683 0.000
16.281 7.733 0.000
16.390 7.907 0.000
16.390 7.907 10.700
16.424 4.458 0.000
16.424 7.957 0.000
16.586 4.247 0.000
16.586 8.168 0.000
16.657 4.166 0.000
16.657 4.166 10.700
16.766 4.051 0.000
16.766 8.364 0.000
16.795 2.077 0.000
16.795 2.077 10.700
16.962 3.871 0.000
16.962 8.544 0.000
16.965 8.547 0.000
16.965 8.547 10.700
16.993 6.208 81.200
16.993 6.208 86.100
17.000 6.040 81.200
17.000 6.040 86.100
17.000 6.376 81.200
17.000 6.376 86.100
17.022 5.873 81.200
17.022 5.873 86.100
17.022 6.543 81.200
17.022 6.543 86.100
17.058 5.708 81.200
17.058 5.708 86.100
17.058 6.707 81.200
17.058 6.707 86.100
17.070 3.785 0.000
17.070 3.785 10.700
17.109 5.548 81.200
17.109 5.548 86.100
17.109 6.868 81.200
17.109 6.868 86.100
17.173 3.709 0.000
17.173 5.392 81.200
17.173 5.392 86.100
17.173 7.023 81.200
17.173 7.023 86.100
17.173 8.706 0.000
17.251 5.243 81.200
17.251 5.243 86.100
17.251 7.173 81.200
17.251 7.173 86.100
17.342 5.101 81.200
17.342 5.101 86.100
17.342 7.315 81.200
17.342 7.315 86.100
17.398 3.566 0.000
17.398 8.849 0.000
17.444 4.967 81.200
17.444 4.967 86.100
17.444 7.448 81.200
17.444 7.448 86.100
17.556 3.481 0.000
17.556 3.481 10.700
17.558 4.843 81.200
17.558 4.843 86.100
17.558 7.572 81.200
17.558 7.572 86.100
17.634 3.443 0.000
17.634 8.972 0.000
17.682 4.729 81.200
17.682 4.729 86.100
17.682 7.686 81.200
17.682 7.686 86.100
17.724 9.013 0.000
17.724 9.013 10.700
17.816 4.627 81.200
17.816 4.627 86.100
17.816 7.789 81.200
17.816 7.789 86.100
17.879 3.342 0.000
17.879 9.074 0.000
17.958 4.536 81.200
17.958 4.536 86.100
17.958 7.879 81.200
17.958 7.879 86.100
18.107 4.459 81.200
18.107 4.459 86.100
18.107 7.957 81.200
18.107 7.957 86.100
18.133 3.262 0.000
18.133 9.154 0.000
18.263 4.394 81.200
18.263 4.394 86.100
18.263 8.021 81.200
18.263 8.021 86.100
18.393 3.204 0.000
18.393 9.211 0.000
18.423 4.343 81.200
18.423 4.343 86.100
18.423 8.072 81.200
18.423 8.072 86.100
18.434 9.219 0.000
18.434 9.219 10.700
18.587 4.307 81.200
18.587 4.307 86.100
18.587 8.108 81.200
18.587 8.108 86.100
18.657 3.169 0.000
18.657 9.246 0.000
18.754 4.285 81.200
18.754 4.285 86.100
18.754 8.130 81.200
18.754 8.130 86.100
18.923 3.158 0.000
18.923 4.278 81.200
18.923 4.278 86.100
18.923 8.138 81.200
18.923 8.138 86.100
18.923 9.258 0.000
19.091 4.285 81.200
19.091 4.285 86.100
19.091 8.130 81.200
19.091 8.130 86.100
19.188 3.169 0.000
19.188 9.246 0.000
19.194 9.246 0.000
19.194 9.246 10.700
19.258 4.307 81.200
19.258 4.307 86.100
19.258 8.108 81.200
19.258 8.108 86.100
19.422 4.343 81.200
19.422 4.343 86.100
19.422 8.072 81.200
19.422 8.072 86.100
19.452 3.204 0.000
19.452 9.211 0.000
19.583 4.394 81.200
19.583 4.394 86.100
19.583 8.021 81.200
19.583 8.021 86.100
19.712 3.262 0.000
19.712 9.154 0.000
19.738 4.459 81.200
19.738 4.459 86.100
19.738 7.957 81.200
19.738 7.957 86.100
19.888 4.536 81.200
19.888 4.536 86.100
19.888 7.879 81.200
19.888 7.879 86.100
19.966 3.342 0.000
19.966 9.074 0.000
19.983 9.068 0.000
19.983 9.068 7.800
19.983 9.068 10.700
20.030 4.627 81.200
20.030 4.627 86.100
20.030 7.789 81.200
20.030 7.789 86.100
20.161 39.000 0.000
20.161 39.000 7.800
20.163 4.729 81.200
20.163 4.729 86.100
20.163 7.686 81.200
20.163 7.686 86.100
20.212 3.444 0.000
20.212 8.972 0.000
20.281 8.939 0.000
20.281 8.939 7.800
20.287 4.843 81.200
20.287 4.843 86.100
20.287 7.573 81.200
20.287 7.573 86.100
20.401 4.967 81.200
20.401 4.967 86.100
20.401 7.448 81.200
20.401 7.448 86.100
20.448 3.566 0.000
20.448 8.849 0.000
20.504 5.101 81.200
20.504 5.101 86.100
20.504 7.315 81.200
20.504 7.315 86.100
20.586 8.765 0.000
20.586 8.765 7.800
20.594 5.243 81.200
20.594 5.243 86.100
20.594 7.173 81.200
20.594 7.173 86.100
20.672 3.709 0.000
20.672 5.392 81.200
20.672 5.392 86.100
20.672 7.023 81.200
20.672 7.023 86.100
20.672 8.706 0.000
20.736 5.548 81.200
20.736 5.548 86.100
20.736 6.868 81.200
20.736 6.868 86.100
20.787 5.708 81.200
20.787 5.708 86.100
20.787 6.707 81.200
20.787 6.707 86.100
20.823 5.873 81.200
20.823 5.873 86.100
20.823 6.543 81.200
20.823 6.543 86.100
20.845 6.040 81.200
20.845 6.040 86.100
20.845 6.376 81.200
20.845 6.376 86.100
20.853 6.208 81.200
20.853 6.208 86.100
20.883 3.871 0.000
20.883 8.544 0.000
20.960 8.477 0.000
20.960 8.477 7.800
21.079 4.051 0.000
21.079 8.365 0.000
21.259 4.247 0.000
21.259 8.168 0.000
21.298 8.121 0.000
21.298 8.121 7.800
21.421 4.458 0.000
21.421 7.957 0.000
21.551 7.755 0.000
21.551 7.755 7.800
21.555 4.667 0.000
21.555 4.667 7.800
21.564 4.683 0.000
21.564 7.733 0.000
21.687 4.919 0.000
21.687 7.497 0.000
21.723 5.001 0.000
21.723 5.001 7.800
21.773 7.292 0.000
21.773 7.292 7.800
21.789 5.165 0.000
21.789 7.251 0.000
21.869 5.418 0.000
21.869 6.997 0.000
21.906 5.573 0.000
21.906 5.573 7.800
21.926 5.678 0.000
21.926 6.737 0.000
21.939 6.659 0.000
21.939 6.659 7.800
21.961 5.942 0.000
21.961 6.474 0.000
21.970 6.086 0.000
21.970 6.086 7.800
21.973 6.208 0.000
22.959 3.906 0.000
22.959 3.906 7.800
29.957 5.983 0.000
29.957 5.983 7.800
3 280 283 279
3 276 280 279
3 272 276 279
3 270 272 279
3 264 270 279
3 262 264 279
3 256 262 279
3 252 256 279
3 250 252 279
3 246 250 279
3 226 246 279
3 210 226 279
3 198 210 279
3 183 198 279
3 173 183 279
3 167 173 279
3 155 167 279
3 149 155 279
3 139 149 279
3 127 139 279
3 121 127 279
3 111 121 279
3 99 111 279
3 87 99 279
3 77 87 279
3 49 77 279
3 45 49 279
3 41 45 279
3 39 41 279
3 35 39 279
3 31 35 279
3 29 31 279
3 25 29 279
3 21 25 279
3 19 21 279
3 15 19 279
3 18 15 279
3 20 18 279
3 24 20 279
3 28 24 279
3 30 28 279
3 34 30 279
3 38 34 279
3 40 38 279
3 44 40 279
3 48 44 279
3 72 48 279
3 86 72 279
3 98 86 279
3 110 98 279
3 120 110 279
3 126 120 279
3 138 126 279
3 144 138 279
3 154 144 279
3 166 154 279
3 172 166 279
3 182 172 279
3 197 182 279
3 209 197 279
3 221 209 279
3 245 221 279
3 249 245 279
3 251 249 279
3 255 251 279
3 261 255 279
3 263 261 279
3 269 263 279
3 271 269 279
3 275 271 279
3 241 243 239
3 237 241 239
3 233 237 239
3 229 233 239
3 224 229 239
3 219 224 239
3 213 219 239
3 207 213 239
3 203 207 239
3 195 203 239
3 189 195 239
3 180 189 239
3 176 180 239
3 170 176 239
3 164 170 239
3 160 164 239
3 152 160 239
3 147 152 239
3 142 147 239
3 136 142 239
3 130 136 239
3 124 130 239
3 118 124 239
3 114 118 239
3 108 114 239
3 102 108 239
3 96 102 239
3 90 96 239
3 84 90 239
3 80 84 239
3 75 80 239
3 70 75 239
3 64 70 239
3 60 64 239
3 56 60 239
3 52 56 239
3 54 52 239
3 58 54 239
3 62 58 239
3 68 62 239
3 73 68 239
3 78 73 239
3 82 78 239
3 88 82 239
3 94 88 239
3 100 94 239
3 106 100 239
3 112 106 239
3 116 112 239
3 122 116 239
3 128 122 239
3 134 128 239
3 140 134 239
3 145 140 239
3 150 145 239
3 158 150 239
3 162 158 239
3 168 162 239
3 174 168 239
3 178 174 239
3 187 178 239
3 193 187 239
3 201 193 239
3 205 201 239
3 211 205 239
3 217 211 239
3 222 217 239
3 227 222 239
3 231 227 239
3 235 231 239
3 280 283 279
3 276 280 279
3 272 276 279
3 270 272 279
3 264 270 279
3 262 264 279
3 256 262 279
3 252 256 279
3 250 252 279
3 246 250 279
3 226 246 279
3 210 226 279
3 198 210 279
3 183 198 279
3 173 183 279
3 167 173 279
3 155 167 279
3 149 155 279
3 139 149 279
3 127 139 279
3 121 127 279
3 111 121 279
3 99 111 279
3 87 99 279
3 77 87 279
3 49 77 279
3 45 49 279
3 41 45 279
3 39 41 279
3 35 39 279
3 31 35 279
3 29 31 279
3 25 29 279
3 21 25 279
3 19 21 279
3 15 19 279
3 18 15 279
3 20 18 279
3 24 20 279
3 28 24 279
3 30 28 279
3 34 30 279
3 38 34 279
3 40 38 279
3 44 40 279
3 48 44 279
3 72 48 279
3 86 72 279
3 98 86 279
3 110 98 279
3 120 110 279
3 126 120 279
3 138 126 279
3 144 138 279
3 154 144 279
3 166 154 279
3 172 166 279
3 182 172 279
3 197 182 279
3 209 197 279
3 221 209 279
3 245 221 279
3 249 245 279
3 251 249 279
3 255 251 279
3 261 255 279
3 263 261 279
3 269 263 279
3 271 269 279
3 275 271 279
3 241 243 239
3 237 241 239
3 233 237 239
3 229 233 239
3 224 229 239
3 219 224 239
3 213 219 239
3 207 213 239
3 203 207 239
3 195 203 239
3 189 195 239
3 180 189 239
3 176 180 239
3 170 176 239
3 164 170 239
3 160 164 239
3 152 160 239
3 147 152 239
3 142 147 239
3 136 142 239
3 130 136 239
3 124 130 239
3 118 124 239
3 114 118 239
3 108 114 239
3 102 108 239
3 96 102 239
3 90 96 239
3 84 90 239
3 80 84 239
3 75 80 239
3 70 75 239
3 64 70 239
3 60 64 239
3 56 60 239
3 52 56 239
3 54 52 239
3 58 54 239
3 62 58 239
3 68 62 239
3 73 68 239
3 78 73 239
3 82 78 239
3 88 82 239
3 94 88 239
3 100 94 239
3 106 100 239
3 112 106 239
3 116 112 239
3 122 116 239
3 128 122 239
3 134 128 239
3 140 134 239
3 145 140 239
3 150 145 239
3 158 150 239
3 162 158 239
3 168 162 239
3 174 168 239
3 178 174 239
3 187 178 239
3 193 187 239
3 201 193 239
3 205 201 239
3 211 205 239
3 217 211 239
3 222 217 239
3 227 222 239
3 231 227 239
3 235 231 239
3 283 243 241
3 280 283 241
3 280 241 237
3 276 280 237
3 276 237 233
3 272 276 233
3 272 233 229
3 270 272 229
3 270 229 224
3 264 270 224
3 264 224 219
3 262 264 219
3 262 219 213
3 256 262 213
3 256 213 207
3 252 256 207
3 252 207 203
3 250 252 203
3 195 250 203
3 195 246 250
3 189 246 195
3 189 226 246
3 180 226 189
3 180 210 226
3 176 210 180
3 176 198 210
3 170 198 176
3 170 183 198
3 164 183 170
3 164 173 183
3 160 173 164
3 160 167 173
3 152 167 160
3 152 155 167
3 147 155 152
3 147 149 155
3 142 149 147
3 142 139 149
3 136 139 142
3 136 127 139
3 130 127 136
3 130 121 127
3 124 121 130
3 124 111 121
3 118 111 124
3 118 99 111
3 114 99 118
3 114 87 99
3 108 87 114
3 108 77 87
3 102 77 108
3 102 49 77
3 96 49 102
3 96 45 49
3 90 45 96
3 90 41 45
3 84 41 90
3 84 39 41
3 80 39 84
3 80 35 39
3 75 35 80
3 75 31 35
3 70 31 75
3 70 29 31
3 64 29 70
3 64 25 29
3 60 25 64
3 60 21 25
3 56 21 60
3 56 19 21
3 52 19 56
3 52 15 19
3 54 15 52
3 54 18 15
3 58 18 54
3 58 20 18
3 62 20 58
3 62 24 20
3 68 24 62
3 68 28 24
3 73 28 68
3 73 30 28
3 78 30 73
3 78 34 30
3 82 34 78
3 82 38 34
3 88 38 82
3 88 40 38
3 94 40 88
3 94 44 40
3 44 94 100
3 48 44 100
3 48 100 106
3 72 48 106
3 72 106 112
3 86 72 112
3 86 112 116
3 98 86 116
3 98 116 122
3 110 98 122
3 110 122 128
3 120 110 128
3 120 128 134
3 126 120 134
3 126 134 140
3 138 126 140
3 138 140 145
3 144 138 145
3 144 145 150
3 154 144 150
3 154 150 158
3 166 154 158
3 166 158 162
3 172 166 162
3 172 162 168
3 182 172 168
3 182 168 174
3 197 182 174
3 197 174 178
3 209 197 178
3 209 178 187
3 221 209 187
3 221 187 193
3 245 221 193
3 245 193 201
3 249 245 201
3 249 201 205
3 251 249 205
3 251 205 211
3 255 251 211
3 255 211 217
3 261 255 217
3 261 217 222
3 263 261 222
3 263 222 227
3 269 263 227
3 269 227 231
3 271 269 231
3 271 231 235
3 275 271 235
3 275 235 239
3 279 275 239
3 279 239 243
3 283 279 243
3 191 286 284
3 13 191 284
3 11 13 284
3 6 11 284
3 199 184 6
3 215 199 6
3 247 215 6
3 253 247 6
3 257 253 6
3 267 257 6
3 284 259 265
3 267 6 284
3 277 267 284
3 281 277 284
3 273 281 284
3 265 273 284
3 46 9 0
3 66 92 46
3 42 66 46
3 32 42 46
3 22 32 46
3 6 184 156
3 2 6 156
3 4 2 156
3 0 4 156
3 22 46 0
3 16 22 0
3 26 16 0
3 36 26 0
3 50 36 0
3 104 50 0
3 132 104 0
3 156 132 0
3 47 10 1
3 67 93 47
3 43 67 47
3 33 43 47
3 23 33 47
3 8 186 157
3 3 8 157
3 5 3 157
3 1 5 157
3 23 47 1
3 17 23 1
3 27 17 1
3 37 27 1
3 51 37 1
3 105 51 1
3 133 105 1
3 157 133 1
3 192 287 285
3 14 192 285
3 12 14 285
3 7 12 285
3 200 185 7
3 216 200 7
3 248 216 7
3 254 248 7
3 258 254 7
3 268 258 7
3 285 260 266
3 268 7 285
3 278 268 285
3 282 278 285
3 274 282 285
3 266 274 285
3 238 242 241
3 238 241 237
3 234 238 237
3 234 237 233
3 230 234 233
3 230 233 229
3 225 230 229
3 225 229 224
3 220 225 224
3 220 224 219
3 214 220 219
3 214 219 213
3 208 214 213
3 208 213 207
3 204 208 207
3 204 207 203
3 204 203 195
3 196 204 195
3 196 195 189
3 190 196 189
3 190 189 180
3 181 190 180
3 181 180 176
3 177 181 176
3 177 176 170
3 171 177 170
3 171 170 164
3 165 171 164
3 165 164 160
3 161 165 160
3 161 160 152
3 153 161 152
3 153 152 147
3 148 153 147
3 148 147 142
3 143 148 142
3 143 142 136
3 137 143 136
3 137 136 130
3 131 137 130
3 131 130 124
3 125 131 124
3 125 124 118
3 119 125 118
3 119 118 114
3 115 119 114
3 115 114 108
3 109 115 108
3 109 108 102
3 103 109 102
3 103 102 96
3 97 103 96
3 97 96 90
3 91 97 90
3 91 90 84
3 85 91 84
3 85 84 80
3 81 85 80
3 81 80 75
3 76 81 75
3 76 75 70
3 71 76 70
3 71 70 64
3 65 71 64
3 65 64 60
3 61 65 60
3 61 60 56
3 57 61 56
3 57 56 52
3 53 57 52
3 53 52 54
3 55 53 54
3 55 54 58
3 59 55 58
3 59 58 62
3 63 59 62
3 63 62 68
3 69 63 68
3 69 68 73
3 74 69 73
3 74 73 78
3 79 74 78
3 79 78 82
3 83 79 82
3 83 82 88
3 89 83 88
3 89 88 94
3 95 89 94
3 101 95 94
3 101 94 100
3 107 101 100
3 107 100 106
3 113 107 106
3 113 106 112
3 117 113 112
3 117 112 116
3 123 117 116
3 123 116 122
3 129 123 122
3 129 122 128
3 135 129 128
3 135 128 134
3 141 135 134
3 141 134 140
3 146 141 140
3 146 140 145
3 151 146 145
3 151 145 150
3 159 151 150
3 159 150 158
3 163 159 158
3 163 158 162
3 169 163 162
3 169 162 168
3 175 169 168
3 175 168 174
3 179 175 174
3 179 174 178
3 188 179 178
3 188 178 187
3 194 188 187
3 194 187 193
3 202 194 193
3 202 193 201
3 206 202 201
3 206 201 205
3 212 206 205
3 212 205 211
3 218 212 211
3 218 211 217
3 223 218 217
3 223 217 222
3 228 223 222
3 228 222 227
3 232 228 227
3 232 227 231
3 236 232 231
3 236 231 235
3 240 236 235
3 240 235 239
3 244 240 239
3 244 239 243
3 242 244 243
3 242 243 241
3 93 47 46
3 93 46 92
3 93 92 66
3 67 93 66
3 67 66 42
3 43 67 42
3 33 43 42
3 33 42 32
3 23 33 32
3 23 32 22
3 17 23 22
3 17 22 16
3 27 17 16
3 27 16 26
3 37 27 26
3 37 26 36
3 51 37 36
3 51 36 50
3 105 51 50
3 105 50 104
3 133 105 104
3 133 104 132
3 157 133 132
3 157 132 156
3 186 157 156
3 186 156 184
3 8 186 184
3 8 184 6
3 8 6 2
3 3 8 2
3 3 2 4
3 5 3 4
3 5 4 0
3 1 5 0
3 1 0 9
3 10 1 9
3 47 10 9
3 47 9 46
3 285 284 259
3 260 285 259
3 266 260 259
3 266 259 265
3 274 266 265
3 274 265 273
3 282 274 273
3 282 273 281
3 278 282 281
3 278 281 277
3 268 278 277
3 268 277 267
3 258 268 267
3 258 267 257
3 254 258 257
3 254 257 253
3 248 254 253
3 248 253 247
3 248 247 215
3 216 248 215
3 216 215 199
3 200 216 199
3 200 199 184
3 185 200 184
3 7 185 184
3 7 184 6
3 12 7 6
3 12 6 11
3 12 11 13
3 14 12 13
3 192 14 13
3 192 13 191
3 192 191 286
3 287 192 286
3 287 286 284
3 285 287 284
