OFF
268 640 0
0.000 27.778 0.000
0.000 27.778 3.700
0.000 27.778 7.500
0.000 27.778 13.000
0.085 27.491 0.000
0.085 27.491 3.700
0.085 27.491 7.500
0.373 27.576 0.000
0.373 27.576 3.700
1.723 21.979 0.000
1.723 21.979 3.700
1.723 21.980 0.000
1.723 21.980 3.700
1.723 21.980 7.500
1.808 21.693 0.000
1.808 21.693 7.500
1.915 22.036 3.700
1.915 22.036 7.500
1.915 22.037 0.000
1.915 22.037 7.500
2.000 21.750 0.000
2.000 21.750 3.700
2.000 21.750 7.500
2.011 22.065 0.000
2.011 22.065 3.700
2.096 21.778 3.700
2.096 21.778 7.500
2.780 28.604 16.000
2.780 28.604 16.200
3.273 16.765 0.000
3.273 16.765 3.700
3.643 28.861 13.000
3.643 28.861 16.000
3.643 28.861 16.200
3.806 15.672 0.000
3.806 15.672 3.700
4.136 17.021 0.000
4.136 17.021 3.700
4.265 13.424 0.000
4.265 13.424 7.500
4.351 13.137 0.000
4.351 13.137 7.500
4.447 13.165 3.700
4.447 13.165 4.700
4.457 13.481 0.000
4.457 13.481 3.700
4.457 13.481 7.500
4.477 15.871 0.000
4.477 15.871 3.700
4.543 13.194 0.000
4.543 13.194 3.700
4.543 13.194 7.500
4.553 13.510 3.700
4.553 13.510 7.500
4.639 13.222 0.000
4.639 13.222 3.700
4.639 13.222 7.500
6.808 4.869 0.000
6.808 4.869 7.500
6.893 4.582 0.000
6.893 4.582 7.500
6.893 4.582 13.000
6.904 4.898 3.700
6.904 4.898 4.700
6.999 4.926 0.000
6.999 4.926 3.700
6.999 4.926 7.500
7.085 4.639 0.000
7.085 4.639 7.500
7.095 4.955 0.000
7.095 4.955 3.700
7.095 4.955 7.500
7.137 4.437 0.000
7.137 4.437 3.700
7.137 4.437 4.700
7.137 4.437 12.700
7.142 4.446 0.000
7.142 4.446 3.700
7.142 4.446 7.500
8.935 7.892 16.000
8.935 7.892 16.200
9.601 3.071 0.000
9.601 3.071 12.700
9.619 3.105 0.000
9.619 3.105 12.700
9.691 8.506 13.000
9.691 8.506 16.000
9.691 8.506 16.200
9.776 2.976 0.000
9.776 2.976 12.700
9.795 3.010 0.000
9.795 3.010 12.700
12.057 21.834 16.200
12.057 21.834 18.800
12.227 31.411 7.500
12.227 31.411 9.800
12.227 31.411 13.000
12.227 31.411 16.200
12.414 1.546 0.000
12.414 1.546 12.700
12.433 1.580 0.000
12.433 1.580 12.700
12.454 30.644 7.500
12.454 30.644 9.800
12.590 1.451 0.000
12.590 1.451 12.700
12.608 1.485 0.000
12.608 1.485 12.700
13.508 27.097 7.500
13.508 27.097 13.000
13.508 27.097 13.400
13.736 26.331 13.000
13.736 26.331 13.400
13.859 15.772 16.200
13.859 15.772 18.800
14.369 24.203 13.000
14.369 24.203 18.800
14.828 22.658 16.200
14.828 22.658 18.800
15.018 22.017 13.000
15.018 22.017 16.200
15.018 22.017 18.800
15.094 0.126 0.000
15.094 0.126 3.700
15.094 0.126 4.700
15.094 0.126 12.700
15.099 0.135 0.000
15.099 0.135 3.700
15.099 0.135 7.500
15.290 0.192 0.000
15.290 0.192 7.500
15.347 0.000 0.000
15.347 0.000 7.500
15.347 0.000 13.000
15.550 0.373 0.000
15.550 0.373 3.700
15.550 0.373 7.500
15.578 0.277 0.000
15.578 0.277 3.700
15.578 0.277 7.500
15.607 0.181 3.700
15.607 0.181 4.700
15.635 0.085 0.000
15.635 0.085 7.500
17.007 3.518 16.000
17.007 3.518 16.200
17.108 4.487 13.000
17.108 4.487 16.000
17.108 4.487 16.200
18.887 25.545 13.000
18.887 25.545 18.800
19.537 23.360 13.000
19.537 23.360 16.200
19.537 23.360 18.800
21.148 17.937 16.200
21.148 17.937 18.800
22.700 2.497 0.000
22.700 2.497 3.700
22.700 2.497 7.500
22.728 2.401 0.000
22.728 2.401 3.700
22.728 2.401 7.500
22.757 2.305 3.700
22.757 2.305 4.700
22.785 2.210 0.000
22.785 2.210 7.500
22.987 2.583 0.000
22.987 2.583 3.700
22.987 2.583 7.500
23.016 2.487 0.000
23.016 2.487 3.700
23.016 2.487 7.500
23.044 2.391 3.700
23.044 2.391 4.700
23.073 2.295 0.000
23.073 2.295 7.500
30.137 4.707 0.000
30.137 4.707 3.700
30.137 4.707 7.500
30.166 4.611 0.000
30.166 4.611 3.700
30.166 4.611 7.500
30.194 4.515 3.700
30.194 4.515 4.700
30.223 4.419 0.000
30.223 4.419 7.500
30.425 4.792 0.000
30.425 4.792 3.700
30.425 4.792 7.500
30.453 4.696 0.000
30.453 4.696 3.700
30.453 4.696 7.500
30.482 4.601 3.700
30.482 4.601 4.700
30.510 4.505 0.000
30.510 4.505 7.500
33.213 36.811 7.500
33.213 36.811 9.800
33.742 37.803 0.000
33.742 37.803 3.700
33.742 37.803 7.500
33.742 37.803 9.800
34.312 33.278 7.500
34.312 33.278 9.800
34.550 32.514 13.000
34.550 32.514 13.400
35.079 33.506 7.500
35.079 33.506 9.800
35.079 33.506 13.000
35.079 33.506 13.400
35.260 7.303 0.000
35.260 7.303 3.700
35.553 6.316 0.000
35.553 6.316 3.700
35.553 6.316 7.500
35.582 6.220 0.000
35.582 6.220 7.500
35.888 28.217 13.000
35.888 28.217 13.400
36.589 28.426 13.000
36.589 28.426 13.400
36.654 28.445 13.000
36.654 28.445 16.200
37.273 7.901 0.000
37.273 7.901 3.700
37.560 7.987 0.000
37.560 7.987 3.700
37.566 6.914 3.700
37.566 6.914 7.500
37.603 6.821 3.700
37.603 6.821 7.500
37.632 6.725 3.700
37.632 6.725 4.700
37.652 6.626 0.000
37.652 6.626 3.700
37.660 6.629 3.700
37.660 6.629 7.500
37.854 6.999 3.700
37.854 6.999 7.500
37.882 6.903 3.700
37.882 6.903 7.500
37.891 6.906 3.700
37.891 6.906 7.500
37.911 6.808 3.700
37.911 6.808 4.700
37.939 6.712 0.000
37.939 6.712 3.700
37.948 6.714 3.700
37.948 6.714 7.500
39.621 8.599 0.000
39.621 8.599 3.700
40.000 7.324 0.000
40.000 7.324 3.700
41.826 11.831 13.000
41.826 11.831 16.000
41.826 11.831 16.200
42.093 10.971 16.000
42.093 10.971 16.200
42.866 8.489 3.700
42.866 8.489 7.500
42.896 8.393 3.700
42.896 8.393 7.500
42.927 8.298 3.700
42.927 8.298 4.700
42.955 8.202 0.000
42.955 8.202 3.700
42.955 8.202 7.500
42.955 8.202 13.000
3 129 137 142
3 131 129 142
3 64 67 59
3 57 64 59
3 159 169 174
3 164 159 174
3 179 189 194
3 184 179 194
3 223 225 245
3 233 223 245
3 44 49 40
3 38 44 40
3 126 76 64
3 137 126 64
3 134 137 64
3 156 134 64
3 169 159 156
3 166 169 156
3 189 179 176
3 186 189 176
3 210 212 186
3 264 251 249
3 198 264 249
3 0 198 249
3 7 4 0
3 29 9 23
3 36 29 23
3 49 34 47
3 54 49 47
3 69 54 47
3 156 64 69
3 166 156 69
3 176 166 69
3 186 176 69
3 210 186 69
3 249 210 69
3 7 0 249
3 23 7 249
3 36 23 249
3 47 36 249
3 69 47 249
3 229 241 247
3 235 229 247
3 18 20 14
3 11 18 14
3 127 77 65
3 138 127 65
3 135 138 65
3 157 135 65
3 170 160 157
3 167 170 157
3 190 180 177
3 187 190 177
3 227 213 187
3 241 229 227
3 237 241 227
3 199 258 237
3 1 199 237
3 5 1 237
3 16 12 5
3 25 21 16
3 50 45 52
3 55 50 52
3 70 55 52
3 157 65 70
3 167 157 70
3 177 167 70
3 187 177 70
3 227 187 70
3 237 227 70
3 16 5 237
3 25 16 237
3 52 25 237
3 70 52 237
3 196 102 94
3 206 202 196
3 200 206 196
3 94 200 196
3 221 253 146
3 119 221 146
3 96 119 146
3 31 96 146
3 85 31 146
3 119 115 149
3 151 119 149
3 204 111 109
3 219 217 204
3 208 219 204
3 109 208 204
3 206 266 132
3 108 206 132
3 94 108 132
3 2 94 132
3 60 2 132
3 92 117 120
3 113 92 120
3 154 113 120
3 152 154 120
3 126 76 64
3 137 126 64
3 134 137 64
3 156 134 64
3 169 159 156
3 166 169 156
3 189 179 176
3 186 189 176
3 210 212 186
3 264 251 249
3 198 264 249
3 0 198 249
3 7 4 0
3 29 9 23
3 36 29 23
3 49 34 47
3 54 49 47
3 69 54 47
3 156 64 69
3 166 156 69
3 176 166 69
3 186 176 69
3 210 186 69
3 249 210 69
3 7 0 249
3 23 7 249
3 36 23 249
3 47 36 249
3 69 47 249
3 127 77 76
3 127 76 126
3 138 127 126
3 138 126 137
3 135 138 137
3 135 137 134
3 157 135 134
3 157 134 156
3 157 156 159
3 160 157 159
3 170 160 159
3 170 159 169
3 167 170 169
3 167 169 166
3 177 167 166
3 177 166 176
3 177 176 179
3 180 177 179
3 190 180 179
3 190 179 189
3 187 190 189
3 187 189 186
3 213 187 186
3 213 186 212
3 211 213 212
3 211 212 210
3 250 211 210
3 250 210 249
3 250 249 251
3 252 250 251
3 265 252 251
3 265 251 264
3 199 265 264
3 199 264 198
3 199 198 0
3 1 199 0
3 1 0 4
3 5 1 4
3 8 5 4
3 8 4 7
3 8 7 23
3 24 8 23
3 24 23 9
3 10 24 9
3 10 9 29
3 30 10 29
3 37 30 29
3 37 29 36
3 37 36 47
3 48 37 47
3 48 47 34
3 35 48 34
3 35 34 49
3 50 35 49
3 55 50 49
3 55 49 54
3 55 54 69
3 70 55 69
3 70 69 64
3 65 70 64
3 65 64 76
3 77 65 76
3 127 77 65
3 138 127 65
3 135 138 65
3 157 135 65
3 170 160 157
3 167 170 157
3 190 180 177
3 187 190 177
3 211 213 187
3 265 252 250
3 199 265 250
3 1 199 250
3 8 5 1
3 30 10 24
3 37 30 24
3 50 35 48
3 55 50 48
3 70 55 48
3 157 65 70
3 167 157 70
3 177 167 70
3 187 177 70
3 211 187 70
3 250 211 70
3 8 1 250
3 24 8 250
3 37 24 250
3 48 37 250
3 70 48 250
3 127 77 65
3 138 127 65
3 135 138 65
3 157 135 65
3 170 160 157
3 167 170 157
3 190 180 177
3 187 190 177
3 227 213 187
3 241 229 227
3 237 241 227
3 199 258 237
3 1 199 237
3 5 1 237
3 16 12 5
3 25 21 16
3 50 45 52
3 55 50 52
3 70 55 52
3 157 65 70
3 167 157 70
3 177 167 70
3 187 177 70
3 227 187 70
3 237 227 70
3 16 5 237
3 25 16 237
3 52 25 237
3 70 52 237
3 128 78 77
3 128 77 127
3 139 128 127
3 139 127 138
3 136 139 138
3 136 138 135
3 158 136 135
3 158 135 157
3 158 157 160
3 161 158 160
3 171 161 160
3 171 160 170
3 168 171 170
3 168 170 167
3 178 168 167
3 178 167 177
3 178 177 180
3 181 178 180
3 191 181 180
3 191 180 190
3 188 191 190
3 188 190 187
3 214 188 187
3 214 187 213
3 228 214 213
3 228 213 227
3 228 227 229
3 230 228 229
3 242 230 229
3 242 229 241
3 238 242 241
3 238 241 237
3 259 238 237
3 259 237 258
3 200 259 258
3 200 258 199
3 200 199 1
3 2 200 1
3 2 1 5
3 6 2 5
3 6 5 12
3 13 6 12
3 17 13 12
3 17 12 16
3 17 16 21
3 22 17 21
3 26 22 21
3 26 21 25
3 26 25 52
3 53 26 52
3 53 52 45
3 46 53 45
3 46 45 50
3 51 46 50
3 56 51 50
3 56 50 55
3 56 55 70
3 71 56 70
3 71 70 65
3 66 71 65
3 66 65 77
3 78 66 77
3 128 78 66
3 139 128 66
3 136 139 66
3 158 136 66
3 171 161 158
3 168 171 158
3 191 181 178
3 188 191 178
3 228 214 188
3 242 230 228
3 238 242 228
3 200 259 238
3 2 200 238
3 6 2 238
3 17 13 6
3 26 22 17
3 51 46 53
3 56 51 53
3 71 56 53
3 158 66 71
3 168 158 71
3 178 168 71
3 188 178 71
3 228 188 71
3 238 228 71
3 17 6 238
3 26 17 238
3 53 26 238
3 71 53 238
3 206 266 132
3 108 206 132
3 94 108 132
3 2 94 132
3 60 2 132
3 208 267 266
3 208 266 206
3 208 206 108
3 109 208 108
3 96 109 108
3 96 108 94
3 96 94 2
3 3 96 2
3 3 2 60
3 61 3 60
3 133 61 60
3 133 60 132
3 267 133 132
3 267 132 266
3 208 267 133
3 109 208 133
3 96 109 133
3 3 96 133
3 61 3 133
3 196 102 94
3 206 202 196
3 200 206 196
3 94 200 196
3 197 103 102
3 197 102 196
3 197 196 202
3 203 197 202
3 207 203 202
3 207 202 206
3 201 207 206
3 201 206 200
3 201 200 94
3 95 201 94
3 95 94 102
3 103 95 102
3 197 103 95
3 207 203 197
3 201 207 197
3 95 201 197
3 221 253 146
3 119 221 146
3 96 119 146
3 31 96 146
3 85 31 146
3 222 221 119
3 120 222 119
3 97 120 119
3 97 119 96
3 97 96 31
3 33 97 31
3 33 31 85
3 87 33 85
3 148 87 85
3 148 85 146
3 255 148 146
3 255 146 253
3 222 255 148
3 120 222 148
3 97 120 148
3 33 97 148
3 87 33 148
3 204 111 109
3 219 217 204
3 208 219 204
3 109 208 204
3 205 112 111
3 205 111 204
3 205 204 217
3 218 205 217
3 220 218 217
3 220 217 219
3 209 220 219
3 209 219 208
3 209 208 109
3 110 209 109
3 110 109 111
3 112 110 111
3 205 112 110
3 220 218 205
3 209 220 205
3 110 209 205
3 92 117 120
3 113 92 120
3 154 113 120
3 152 154 120
3 118 117 92
3 93 118 92
3 93 92 113
3 114 93 113
3 155 114 113
3 155 113 154
3 153 155 154
3 153 154 152
3 153 152 120
3 121 153 120
3 118 121 120
3 118 120 117
3 93 118 121
3 114 93 121
3 155 114 121
3 153 155 121
3 119 115 149
3 151 119 149
3 116 115 119
3 121 116 119
3 153 121 119
3 153 119 151
3 150 153 151
3 150 151 149
3 150 149 115
3 116 150 115
3 121 116 150
3 153 121 150
3 46 45 21
3 46 21 22
3 18 20 14
3 11 18 14
3 19 22 20
3 19 20 18
3 19 18 11
3 13 19 11
3 13 11 14
3 15 13 14
3 22 15 14
3 22 14 20
3 19 22 15
3 13 19 15
3 44 49 40
3 38 44 40
3 46 51 49
3 46 49 44
3 46 44 38
3 39 46 38
3 39 38 40
3 41 39 40
3 51 41 40
3 51 40 49
3 46 51 41
3 39 46 41
3 64 49 51
3 64 51 66
3 64 67 59
3 57 64 59
3 66 68 67
3 66 67 64
3 66 64 57
3 58 66 57
3 58 57 59
3 60 58 59
3 68 60 59
3 68 59 67
3 66 68 60
3 58 66 60
3 129 137 142
3 131 129 142
3 139 137 129
3 130 139 129
3 130 129 131
3 132 130 131
3 143 132 131
3 143 131 142
3 139 143 142
3 139 142 137
3 130 139 143
3 132 130 143
3 159 169 174
3 164 159 174
3 171 169 159
3 161 171 159
3 161 159 164
3 165 161 164
3 175 165 164
3 175 164 174
3 171 175 174
3 171 174 169
3 161 171 175
3 165 161 175
3 179 189 194
3 184 179 194
3 191 189 179
3 181 191 179
3 181 179 184
3 185 181 184
3 195 185 184
3 195 184 194
3 191 195 194
3 191 194 189
3 181 191 195
3 185 181 195
3 223 225 245
3 233 223 245
3 226 225 223
3 224 226 223
3 224 223 233
3 234 224 233
3 246 234 233
3 246 233 245
3 226 246 245
3 226 245 225
3 224 226 246
3 234 224 246
3 229 241 247
3 235 229 247
3 242 241 229
3 230 242 229
3 230 229 235
3 236 230 235
3 248 236 235
3 248 235 247
3 242 248 247
3 242 247 241
3 230 242 248
3 236 230 248
3 159 137 139
3 161 159 139
3 179 169 171
3 181 179 171
3 215 189 191
3 216 215 191
3 261 260 239
3 240 261 239
3 80 28 33
3 255 257 145
3 148 255 145
3 87 148 145
3 80 33 87
3 145 80 87
3 80 28 33
3 255 257 145
3 148 255 145
3 87 148 145
3 80 33 87
3 145 80 87
3 27 28 33
3 32 27 33
3 86 32 33
3 86 33 87
3 86 87 148
3 147 86 148
3 147 148 255
3 254 147 255
3 144 256 257
3 144 257 145
3 79 144 145
3 79 145 80
3 79 80 28
3 27 79 28
3 79 27 32
3 254 256 144
3 147 254 144
3 86 147 144
3 79 32 86
3 144 79 86
3 162 140 141
3 163 162 141
3 182 172 173
3 183 182 173
3 231 192 193
3 232 231 193
3 262 243 244
3 263 262 244
3 124 74 75
3 125 124 75
3 122 72 73
3 123 122 73
3 123 73 74
3 124 123 74
3 81 83 90
3 88 81 90
3 98 100 106
3 104 98 106
3 81 83 90
3 88 81 90
3 84 83 81
3 82 84 81
3 89 82 81
3 89 81 88
3 91 89 88
3 91 88 90
3 91 90 83
3 84 91 83
3 82 84 91
3 89 82 91
3 98 100 106
3 104 98 106
3 101 100 98
3 99 101 98
3 105 99 98
3 105 98 104
3 107 105 104
3 107 104 106
3 107 106 100
3 101 107 100
3 99 101 107
3 105 99 107
3 62 42 43
3 62 43 63
