OFF
740 1286 0
0.000 41.766 21.700
0.000 41.766 22.700
0.539 41.480 21.700
0.539 41.480 22.700
0.541 41.474 0.000
0.541 41.474 23.700
0.627 41.186 0.000
0.627 41.186 23.700
2.195 41.967 2.500
2.195 41.967 4.500
2.195 41.967 6.240
2.195 41.967 8.240
2.195 41.967 9.980
2.195 41.967 11.980
2.195 41.967 13.720
2.195 41.967 15.720
2.195 41.967 17.460
2.195 41.967 19.460
2.195 41.967 20.460
2.195 41.967 20.960
2.238 41.823 3.898
2.238 41.823 3.958
2.281 41.679 2.500
2.281 41.679 3.898
2.281 41.679 3.958
2.281 41.679 4.500
2.281 41.679 6.240
2.281 41.679 8.240
2.281 41.679 9.980
2.281 41.679 11.980
2.281 41.679 13.720
2.281 41.679 15.720
2.281 41.679 17.460
2.281 41.679 19.460
2.281 41.679 20.460
2.281 41.679 20.960
2.448 41.886 3.958
2.448 41.886 4.500
2.491 41.742 3.958
2.491 41.742 4.500
2.506 41.903 3.958
2.506 41.903 4.500
2.549 41.759 3.958
2.549 41.759 4.500
2.688 41.957 3.958
2.688 41.957 4.500
2.731 41.813 3.958
2.731 41.813 4.500
2.746 41.974 3.958
2.746 41.974 4.500
2.788 41.831 3.958
2.788 41.831 4.500
2.866 42.166 2.500
2.866 42.166 4.500
2.866 42.166 6.240
2.866 42.166 8.240
2.866 42.166 9.980
2.866 42.166 11.980
2.866 42.166 13.720
2.866 42.166 15.720
2.866 42.166 17.460
2.866 42.166 19.460
2.866 42.166 20.460
2.866 42.166 20.960
2.908 42.023 3.898
2.908 42.023 3.958
2.951 41.879 2.500
2.951 41.879 3.898
2.951 41.879 3.958
2.951 41.879 4.500
2.951 41.879 6.240
2.951 41.879 8.240
2.951 41.879 9.980
2.951 41.879 11.980
2.951 41.879 13.720
2.951 41.879 15.720
2.951 41.879 17.460
2.951 41.879 19.460
2.951 41.879 20.460
2.951 41.879 20.960
3.345 42.309 2.500
3.345 42.309 4.500
3.345 42.309 6.240
3.345 42.309 8.240
3.345 42.309 9.980
3.345 42.309 11.980
3.345 42.309 13.720
3.345 42.309 15.720
3.345 42.309 17.460
3.345 42.309 19.460
3.345 42.309 20.460
3.345 42.309 20.960
3.388 42.166 3.898
3.388 42.166 3.958
3.426 30.250 21.700
3.426 30.250 22.700
3.430 42.022 2.500
3.430 42.022 3.898
3.430 42.022 3.958
3.430 42.022 4.500
3.430 42.022 6.240
3.430 42.022 8.240
3.430 42.022 9.980
3.430 42.022 11.980
3.430 42.022 13.720
3.430 42.022 15.720
3.430 42.022 17.460
3.430 42.022 19.460
3.430 42.022 20.460
3.430 42.022 20.960
3.431 42.022 2.500
3.431 42.022 4.500
3.431 42.022 6.240
3.431 42.022 8.240
3.431 42.022 9.980
3.431 42.022 11.980
3.431 42.022 13.720
3.431 42.022 15.720
3.431 42.022 17.460
3.431 42.022 19.460
3.431 42.022 20.460
3.431 42.022 20.960
3.598 42.228 3.958
3.598 42.228 4.530
3.641 42.085 3.958
3.641 42.085 4.530
3.656 42.246 3.958
3.656 42.246 4.530
3.699 42.102 3.958
3.699 42.102 4.530
3.838 42.300 3.958
3.838 42.300 4.530
3.845 30.375 21.700
3.845 30.375 22.700
3.849 30.377 0.000
3.849 30.377 18.800
3.849 30.377 23.700
3.881 42.156 3.958
3.881 42.156 4.530
3.896 42.317 3.958
3.896 42.317 4.530
3.938 42.173 3.958
3.938 42.173 4.530
4.078 42.371 3.958
4.078 42.371 4.530
4.120 42.228 3.958
4.120 42.228 4.530
4.135 42.388 3.958
4.135 42.388 4.530
4.178 42.245 3.958
4.178 42.245 4.530
4.303 42.595 2.500
4.303 42.595 4.500
4.303 42.595 6.240
4.303 42.595 8.240
4.303 42.595 9.980
4.303 42.595 11.980
4.303 42.595 13.720
4.303 42.595 15.720
4.303 42.595 17.460
4.303 42.595 19.460
4.303 42.595 20.460
4.303 42.595 20.960
4.346 42.451 3.898
4.346 42.451 3.958
4.389 42.307 2.500
4.389 42.307 4.500
4.389 42.307 6.240
4.389 42.307 8.240
4.389 42.307 9.980
4.389 42.307 11.980
4.389 42.307 13.720
4.389 42.307 15.720
4.389 42.307 17.460
4.389 42.307 19.460
4.389 42.307 20.460
4.389 42.307 20.960
4.389 42.308 2.500
4.389 42.308 3.898
4.389 42.308 3.958
4.389 42.308 4.500
4.389 42.308 6.240
4.389 42.308 8.240
4.389 42.308 9.980
4.389 42.308 11.980
4.389 42.308 13.720
4.389 42.308 15.720
4.389 42.308 17.460
4.389 42.308 19.460
4.389 42.308 20.460
4.389 42.308 20.960
4.782 42.738 2.500
4.782 42.738 4.500
4.782 42.738 6.240
4.782 42.738 8.240
4.782 42.738 9.980
4.782 42.738 11.980
4.782 42.738 13.720
4.782 42.738 15.720
4.782 42.738 17.460
4.782 42.738 19.460
4.782 42.738 20.460
4.782 42.738 20.960
4.825 42.594 3.898
4.825 42.594 3.958
4.868 42.450 2.500
4.868 42.450 3.898
4.868 42.450 3.958
4.868 42.450 4.500
4.868 42.450 6.240
4.868 42.450 8.240
4.868 42.450 9.980
4.868 42.450 11.980
4.868 42.450 13.720
4.868 42.450 15.720
4.868 42.450 17.460
4.868 42.450 19.460
4.868 42.450 20.460
4.868 42.450 20.960
5.036 42.657 3.958
5.036 42.657 4.500
5.079 42.513 3.958
5.079 42.513 4.500
5.093 42.674 3.958
5.093 42.674 4.500
5.136 42.530 3.958
5.136 42.530 4.500
5.275 42.728 3.958
5.275 42.728 4.500
5.318 42.585 3.958
5.318 42.585 4.500
5.333 42.745 3.958
5.333 42.745 4.500
5.376 42.602 3.958
5.376 42.602 4.500
5.453 42.938 2.500
5.453 42.938 4.500
5.453 42.938 6.240
5.453 42.938 8.240
5.453 42.938 9.980
5.453 42.938 11.980
5.453 42.938 13.720
5.453 42.938 15.720
5.453 42.938 17.460
5.453 42.938 19.460
5.453 42.938 20.460
5.453 42.938 20.960
5.496 42.794 3.898
5.496 42.794 3.958
5.539 42.650 2.500
5.539 42.650 3.898
5.539 42.650 3.958
5.539 42.650 4.500
5.539 42.650 6.240
5.539 42.650 8.240
5.539 42.650 9.980
5.539 42.650 11.980
5.539 42.650 13.720
5.539 42.650 15.720
5.539 42.650 17.460
5.539 42.650 19.460
5.539 42.650 20.460
5.539 42.650 20.960
6.421 45.730 0.000
6.421 45.730 2.000
6.421 45.730 4.700
6.421 45.730 5.900
6.672 45.567 2.000
6.672 45.567 4.700
6.787 45.184 2.000
6.787 45.184 4.700
7.106 43.430 0.000
7.106 43.430 2.000
7.106 43.430 4.700
7.106 43.430 5.900
7.200 45.724 2.000
7.200 45.724 4.700
7.314 45.341 2.000
7.314 45.341 4.700
7.411 45.777 2.000
7.411 45.777 4.700
7.526 45.394 2.000
7.526 45.394 4.700
7.938 45.934 2.000
7.938 45.934 4.700
7.983 46.196 0.000
7.983 46.196 0.200
7.983 46.196 2.000
8.053 45.551 2.000
8.053 45.551 4.700
8.088 43.723 6.240
8.088 43.723 8.240
8.088 43.723 9.980
8.088 43.723 11.980
8.088 43.723 13.720
8.088 43.723 15.720
8.088 43.723 17.460
8.088 43.723 19.460
8.088 43.723 20.460
8.088 43.723 20.960
8.090 45.836 0.000
8.090 45.836 0.200
8.090 45.836 0.400
8.174 43.436 6.240
8.174 43.436 8.240
8.174 43.436 9.980
8.174 43.436 11.980
8.174 43.436 13.720
8.174 43.436 15.720
8.174 43.436 17.460
8.174 43.436 19.460
8.174 43.436 20.460
8.174 43.436 20.960
8.197 45.477 0.200
8.197 45.477 0.400
8.197 45.477 0.600
8.304 45.117 0.400
8.304 45.117 0.600
8.304 45.117 0.800
8.412 44.758 0.600
8.412 44.758 0.800
8.412 44.758 1.000
8.519 44.398 0.800
8.519 44.398 1.000
8.519 44.398 1.200
8.626 44.039 1.000
8.626 44.039 1.200
8.626 44.039 1.400
8.668 43.896 0.000
8.668 43.896 2.000
8.733 43.679 1.200
8.733 43.679 1.400
8.759 43.923 6.240
8.759 43.923 8.240
8.759 43.923 9.980
8.759 43.923 11.980
8.759 43.923 13.720
8.759 43.923 15.720
8.759 43.923 17.460
8.759 43.923 19.460
8.759 43.923 20.460
8.759 43.923 20.960
8.844 43.636 6.240
8.844 43.636 8.240
8.844 43.636 9.980
8.844 43.636 11.980
8.844 43.636 13.720
8.844 43.636 15.720
8.844 43.636 17.460
8.844 43.636 19.460
8.844 43.636 20.460
8.844 43.636 20.960
8.854 43.952 1.400
8.854 43.952 4.500
8.940 43.664 1.400
8.940 43.664 4.500
9.238 44.066 6.240
9.238 44.066 8.240
9.238 44.066 9.980
9.238 44.066 11.980
9.238 44.066 13.720
9.238 44.066 15.720
9.238 44.066 17.460
9.238 44.066 19.460
9.238 44.066 20.460
9.238 44.066 20.960
9.323 43.778 6.240
9.323 43.778 8.240
9.323 43.778 9.980
9.323 43.778 11.980
9.323 43.778 13.720
9.323 43.778 15.720
9.323 43.778 17.460
9.323 43.778 19.460
9.323 43.778 20.460
9.323 43.778 20.960
10.080 46.821 0.000
10.080 46.821 0.200
10.080 46.821 2.000
10.187 46.461 0.000
10.187 46.461 0.200
10.187 46.461 0.400
10.196 44.351 6.240
10.196 44.351 8.240
10.196 44.351 9.980
10.196 44.351 11.980
10.196 44.351 13.720
10.196 44.351 15.720
10.196 44.351 17.460
10.196 44.351 19.460
10.196 44.351 20.460
10.196 44.351 20.960
10.260 46.626 2.000
10.260 46.626 4.700
10.282 44.064 6.240
10.282 44.064 8.240
10.282 44.064 9.980
10.282 44.064 11.980
10.282 44.064 13.720
10.282 44.064 15.720
10.282 44.064 17.460
10.282 44.064 19.460
10.282 44.064 20.460
10.282 44.064 20.960
10.294 46.102 0.200
10.294 46.102 0.400
10.294 46.102 0.600
10.374 46.243 2.000
10.374 46.243 4.700
10.401 45.742 0.400
10.401 45.742 0.600
10.401 45.742 0.800
10.508 45.383 0.600
10.508 45.383 0.800
10.508 45.383 1.000
10.579 44.466 1.400
10.579 44.466 4.500
10.616 45.023 0.800
10.616 45.023 1.000
10.616 45.023 1.200
10.665 44.178 1.400
10.665 44.178 4.500
10.675 44.494 6.240
10.675 44.494 8.240
10.675 44.494 9.980
10.675 44.494 11.980
10.675 44.494 13.720
10.675 44.494 15.720
10.675 44.494 17.460
10.675 44.494 19.460
10.675 44.494 20.460
10.675 44.494 20.960
10.723 44.664 1.000
10.723 44.664 1.200
10.723 44.664 1.400
10.761 44.207 6.240
10.761 44.207 8.240
10.761 44.207 9.980
10.761 44.207 11.980
10.761 44.207 13.720
10.761 44.207 15.720
10.761 44.207 17.460
10.761 44.207 19.460
10.761 44.207 20.460
10.761 44.207 20.960
10.765 44.521 0.000
10.765 44.521 2.000
10.787 46.783 2.000
10.787 46.783 4.700
10.830 44.304 1.200
10.830 44.304 1.400
10.902 46.400 2.000
10.902 46.400 4.700
10.993 46.855 2.000
10.993 46.855 4.700
11.107 46.472 2.000
11.107 46.472 4.700
11.346 44.694 6.240
11.346 44.694 8.240
11.346 44.694 9.980
11.346 44.694 11.980
11.346 44.694 13.720
11.346 44.694 15.720
11.346 44.694 17.460
11.346 44.694 19.460
11.346 44.694 20.460
11.346 44.694 20.960
11.432 44.407 6.240
11.432 44.407 8.240
11.432 44.407 9.980
11.432 44.407 11.980
11.432 44.407 13.720
11.432 44.407 15.720
11.432 44.407 17.460
11.432 44.407 19.460
11.432 44.407 20.460
11.432 44.407 20.960
11.520 47.012 2.000
11.520 47.012 4.700
11.634 46.629 2.000
11.634 46.629 4.700
11.642 47.286 0.000
11.642 47.286 2.000
11.642 47.286 4.700
11.642 47.286 5.900
11.925 3.285 0.000
11.925 3.285 18.800
12.327 44.987 0.000
12.327 44.987 2.000
12.327 44.987 4.700
12.327 44.987 5.900
13.981 45.480 2.500
13.981 45.480 4.500
13.981 45.480 6.240
13.981 45.480 8.240
13.981 45.480 9.980
13.981 45.480 11.980
13.981 45.480 13.720
13.981 45.480 15.720
13.981 45.480 17.460
13.981 45.480 19.460
13.981 45.480 20.460
13.981 45.480 20.960
14.024 45.336 3.898
14.024 45.336 3.958
14.067 45.192 2.500
14.067 45.192 3.898
14.067 45.192 3.958
14.067 45.192 4.500
14.067 45.192 6.240
14.067 45.192 8.240
14.067 45.192 9.980
14.067 45.192 11.980
14.067 45.192 13.720
14.067 45.192 15.720
14.067 45.192 17.460
14.067 45.192 19.460
14.067 45.192 20.460
14.067 45.192 20.960
14.234 45.399 3.958
14.234 45.399 4.500
14.277 45.255 3.958
14.277 45.255 4.500
14.292 45.416 3.958
14.292 45.416 4.500
14.335 45.272 3.958
14.335 45.272 4.500
14.474 45.470 3.958
14.474 45.470 4.500
14.517 45.326 3.958
14.517 45.326 4.500
14.532 45.487 3.958
14.532 45.487 4.500
14.574 45.344 3.958
14.574 45.344 4.500
14.652 45.680 2.500
14.652 45.680 4.500
14.652 45.680 6.240
14.652 45.680 8.240
14.652 45.680 9.980
14.652 45.680 11.980
14.652 45.680 13.720
14.652 45.680 15.720
14.652 45.680 17.460
14.652 45.680 19.460
14.652 45.680 20.460
14.652 45.680 20.960
14.694 45.536 3.898
14.694 45.536 3.958
14.737 45.392 2.500
14.737 45.392 3.898
14.737 45.392 3.958
14.737 45.392 4.500
14.737 45.392 6.240
14.737 45.392 8.240
14.737 45.392 9.980
14.737 45.392 11.980
14.737 45.392 13.720
14.737 45.392 15.720
14.737 45.392 17.460
14.737 45.392 19.460
14.737 45.392 20.460
14.737 45.392 20.960
15.131 45.822 2.500
15.131 45.822 4.500
15.131 45.822 6.240
15.131 45.822 8.240
15.131 45.822 9.980
15.131 45.822 11.980
15.131 45.822 13.720
15.131 45.822 15.720
15.131 45.822 17.460
15.131 45.822 19.460
15.131 45.822 20.460
15.131 45.822 20.960
15.174 45.679 3.898
15.174 45.679 3.958
15.216 45.535 2.500
15.216 45.535 3.898
15.216 45.535 3.958
15.216 45.535 4.500
15.216 45.535 6.240
15.216 45.535 8.240
15.216 45.535 9.980
15.216 45.535 11.980
15.216 45.535 13.720
15.216 45.535 15.720
15.216 45.535 17.460
15.216 45.535 19.460
15.216 45.535 20.460
15.216 45.535 20.960
15.384 45.742 3.958
15.384 45.742 4.530
15.427 45.598 3.958
15.427 45.598 4.530
15.442 45.759 3.958
15.442 45.759 4.530
15.485 45.615 3.958
15.485 45.615 4.530
15.624 45.813 3.958
15.624 45.813 4.530
15.667 45.669 3.958
15.667 45.669 4.530
15.681 45.830 3.958
15.681 45.830 4.530
15.724 45.686 3.958
15.724 45.686 4.530
15.864 45.884 3.958
15.864 45.884 4.530
15.906 45.741 3.958
15.906 45.741 4.530
15.921 45.902 3.958
15.921 45.902 4.530
15.964 45.758 3.958
15.964 45.758 4.530
16.089 46.108 2.500
16.089 46.108 4.500
16.089 46.108 6.240
16.089 46.108 8.240
16.089 46.108 9.980
16.089 46.108 11.980
16.089 46.108 13.720
16.089 46.108 15.720
16.089 46.108 17.460
16.089 46.108 19.460
16.089 46.108 20.460
16.089 46.108 20.960
16.132 45.964 3.898
16.132 45.964 3.958
16.175 45.821 2.500
16.175 45.821 3.898
16.175 45.821 3.958
16.175 45.821 4.500
16.175 45.821 6.240
16.175 45.821 8.240
16.175 45.821 9.980
16.175 45.821 11.980
16.175 45.821 13.720
16.175 45.821 15.720
16.175 45.821 17.460
16.175 45.821 19.460
16.175 45.821 20.460
16.175 45.821 20.960
16.568 46.251 2.500
16.568 46.251 4.500
16.568 46.251 6.240
16.568 46.251 8.240
16.568 46.251 9.980
16.568 46.251 11.980
16.568 46.251 13.720
16.568 46.251 15.720
16.568 46.251 17.460
16.568 46.251 19.460
16.568 46.251 20.460
16.568 46.251 20.960
16.611 46.107 3.898
16.611 46.107 3.958
16.654 45.963 2.500
16.654 45.963 3.898
16.654 45.963 3.958
16.654 45.963 4.500
16.654 45.963 6.240
16.654 45.963 8.240
16.654 45.963 9.980
16.654 45.963 11.980
16.654 45.963 13.720
16.654 45.963 15.720
16.654 45.963 17.460
16.654 45.963 19.460
16.654 45.963 20.460
16.654 45.963 20.960
16.822 46.170 3.958
16.822 46.170 4.500
16.865 46.026 3.958
16.865 46.026 4.500
16.879 46.187 3.958
16.879 46.187 4.500
16.922 46.043 3.958
16.922 46.043 4.500
17.061 46.242 3.958
17.061 46.242 4.500
17.104 46.098 3.958
17.104 46.098 4.500
17.119 46.259 3.958
17.119 46.259 4.500
17.162 46.115 3.958
17.162 46.115 4.500
17.239 46.451 2.500
17.239 46.451 4.500
17.239 46.451 6.240
17.239 46.451 8.240
17.239 46.451 9.980
17.239 46.451 11.980
17.239 46.451 13.720
17.239 46.451 15.720
17.239 46.451 17.460
17.239 46.451 19.460
17.239 46.451 20.460
17.239 46.451 20.960
17.282 46.307 3.898
17.282 46.307 3.958
17.325 46.163 2.500
17.325 46.163 3.898
17.325 46.163 3.958
17.325 46.163 4.500
17.325 46.163 6.240
17.325 46.163 8.240
17.325 46.163 9.980
17.325 46.163 11.980
17.325 46.163 13.720
17.325 46.163 15.720
17.325 46.163 17.460
17.325 46.163 19.460
17.325 46.163 20.460
17.325 46.163 20.960
18.893 46.944 0.000
18.893 46.944 23.700
18.897 46.945 21.700
18.897 46.945 22.700
18.978 46.656 0.000
18.978 46.656 23.700
19.185 47.485 21.700
19.185 47.485 22.700
20.307 5.821 0.000
20.307 5.821 16.000
22.020 0.000 0.000
22.020 0.000 16.000
22.201 35.847 0.000
22.201 35.847 18.800
22.201 35.847 21.700
22.201 35.847 22.700
22.201 35.847 23.700
22.617 35.971 21.700
22.617 35.971 22.700
22.701 6.525 0.000
22.701 6.525 16.000
24.414 0.705 0.000
24.414 0.705 16.000
30.277 8.755 0.000
30.277 8.755 18.800
3 273 265 483
3 489 273 483
3 269 267 275
3 277 269 275
3 281 279 283
3 288 281 283
3 453 477 479
3 455 453 479
3 392 447 451
3 407 392 451
3 271 263 285
3 328 271 285
3 487 445 376
3 481 487 376
3 727 134 4
3 715 727 4
3 485 134 727
3 738 485 727
3 271 263 285
3 328 271 285
3 264 263 271
3 272 264 271
3 329 272 271
3 329 271 328
3 287 329 328
3 287 328 285
3 287 285 263
3 264 287 263
3 272 264 287
3 329 272 287
3 487 445 376
3 481 487 376
3 488 446 445
3 488 445 487
3 482 488 487
3 482 487 481
3 482 481 376
3 378 482 376
3 378 376 445
3 446 378 445
3 488 446 378
3 482 488 378
3 453 477 479
3 455 453 479
3 478 477 453
3 454 478 453
3 454 453 455
3 456 454 455
3 480 456 455
3 480 455 479
3 478 480 479
3 478 479 477
3 454 478 480
3 456 454 480
3 392 447 451
3 407 392 451
3 448 447 392
3 393 448 392
3 393 392 407
3 408 393 407
3 452 408 407
3 452 407 451
3 448 452 451
3 448 451 447
3 393 448 452
3 408 393 452
3 281 279 283
3 288 281 283
3 280 279 281
3 282 280 281
3 289 282 281
3 289 281 288
3 284 289 288
3 284 288 283
3 284 283 279
3 280 284 279
3 282 280 284
3 289 282 284
3 269 267 275
3 277 269 275
3 268 267 269
3 270 268 269
3 278 270 269
3 278 269 277
3 276 278 277
3 276 277 275
3 276 275 267
3 268 276 267
3 270 268 276
3 278 270 276
3 273 265 483
3 489 273 483
3 266 265 273
3 274 266 273
3 490 274 273
3 490 273 489
3 484 490 489
3 484 489 483
3 484 483 265
3 266 484 265
3 274 266 484
3 490 274 484
3 132 94 0
3 2 132 0
3 717 2 0
3 732 729 717
3 721 732 717
3 0 721 717
3 132 94 0
3 2 132 0
3 717 2 0
3 732 729 717
3 721 732 717
3 0 721 717
3 1 0 94
3 95 1 94
3 133 95 94
3 133 94 132
3 3 133 132
3 3 132 2
3 718 3 2
3 718 2 717
3 718 717 729
3 730 718 729
3 733 730 729
3 733 729 732
3 722 733 732
3 722 732 721
3 722 721 0
3 1 722 0
3 133 95 1
3 3 133 1
3 718 3 1
3 733 730 718
3 722 733 718
3 1 722 718
3 735 737 726
3 724 735 726
3 208 205 249
3 208 249 252
3 69 66 22
3 25 69 22
3 180 177 96
3 99 180 96
3 210 209 253
3 210 253 254
3 71 70 26
3 27 71 26
3 182 181 100
3 101 182 100
3 212 211 255
3 212 255 256
3 73 72 28
3 29 73 28
3 184 183 102
3 103 184 102
3 214 213 257
3 214 257 258
3 75 74 30
3 31 75 30
3 186 185 104
3 105 186 104
3 216 215 259
3 216 259 260
3 77 76 32
3 33 77 32
3 188 187 106
3 107 188 106
3 218 217 261
3 218 261 262
3 35 34 78
3 35 78 79
3 109 108 189
3 109 189 190
3 134 136 5
3 4 134 5
3 727 731 716
3 715 727 716
3 5 716 731
3 136 5 731
3 728 739 486
3 135 728 486
3 36 21 20
3 36 20 64
3 64 65 48
3 48 49 45
3 48 45 44
3 40 41 37
3 40 37 36
3 40 36 64
3 64 48 44
3 64 44 40
3 65 64 67
3 68 65 67
3 48 65 68
3 50 48 68
3 51 50 48
3 51 48 49
3 45 49 51
3 47 45 51
3 47 45 44
3 46 47 44
3 40 44 46
3 42 40 46
3 43 42 40
3 43 40 41
3 37 41 43
3 39 37 43
3 39 37 36
3 38 39 36
3 21 36 38
3 24 21 38
3 24 21 20
3 23 24 20
3 23 20 64
3 67 23 64
3 38 24 23
3 38 23 67
3 67 68 50
3 50 51 47
3 50 47 46
3 42 43 39
3 42 39 38
3 42 38 67
3 67 50 46
3 67 46 42
3 122 123 127
3 92 93 122
3 163 92 122
3 147 164 163
3 144 148 147
3 143 144 147
3 131 140 139
3 130 131 139
3 122 127 126
3 163 122 126
3 143 147 163
3 139 143 163
3 130 139 163
3 126 130 163
3 98 93 92
3 97 98 92
3 97 92 163
3 178 97 163
3 179 178 163
3 179 163 164
3 147 164 179
3 149 147 179
3 150 149 147
3 150 147 148
3 144 148 150
3 146 144 150
3 146 144 143
3 145 146 143
3 139 143 145
3 141 139 145
3 142 141 139
3 142 139 140
3 131 140 142
3 138 131 142
3 138 131 130
3 137 138 130
3 126 130 137
3 128 126 137
3 129 128 126
3 129 126 127
3 123 127 129
3 125 123 129
3 125 123 122
3 124 125 122
3 93 122 124
3 98 93 124
3 124 125 129
3 97 98 124
3 178 97 124
3 149 179 178
3 146 150 149
3 145 146 149
3 138 142 141
3 137 138 141
3 124 129 128
3 178 124 128
3 145 149 178
3 141 145 178
3 137 141 178
3 128 137 178
3 203 204 219
3 247 203 219
3 231 248 247
3 228 232 231
3 227 228 231
3 220 224 223
3 219 220 223
3 247 219 223
3 227 231 247
3 223 227 247
3 248 247 250
3 251 248 250
3 231 248 251
3 233 231 251
3 234 233 231
3 234 231 232
3 228 232 234
3 230 228 234
3 230 228 227
3 229 230 227
3 223 227 229
3 225 223 229
3 226 225 223
3 226 223 224
3 220 224 226
3 222 220 226
3 222 220 219
3 221 222 219
3 204 219 221
3 207 204 221
3 207 204 203
3 206 207 203
3 206 203 247
3 250 206 247
3 206 207 221
3 250 206 221
3 233 251 250
3 230 234 233
3 229 230 233
3 222 226 225
3 221 222 225
3 250 221 225
3 229 233 250
3 225 229 250
3 436 435 467
3 436 467 468
3 343 342 303
3 304 343 303
3 395 394 366
3 367 395 366
3 438 437 469
3 438 469 470
3 345 344 305
3 306 345 305
3 397 396 368
3 369 397 368
3 440 439 471
3 440 471 472
3 347 346 307
3 308 347 307
3 399 398 370
3 371 399 370
3 442 441 473
3 442 473 474
3 349 348 309
3 310 349 309
3 401 400 372
3 373 401 372
3 444 443 475
3 444 475 476
3 312 311 350
3 312 350 351
3 375 374 402
3 375 402 403
3 660 657 701
3 660 701 704
3 552 549 505
3 508 552 505
3 632 629 577
3 580 632 577
3 662 661 705
3 662 705 706
3 554 553 509
3 510 554 509
3 634 633 581
3 582 634 581
3 664 663 707
3 664 707 708
3 556 555 511
3 512 556 511
3 636 635 583
3 584 636 583
3 666 665 709
3 666 709 710
3 558 557 513
3 514 558 513
3 638 637 585
3 586 638 585
3 668 667 711
3 668 711 712
3 560 559 515
3 516 560 515
3 640 639 587
3 588 640 587
3 670 669 713
3 670 713 714
3 518 517 561
3 518 561 562
3 590 589 641
3 590 641 642
3 519 504 503
3 519 503 547
3 547 548 531
3 531 532 528
3 531 528 527
3 523 524 520
3 523 520 519
3 523 519 547
3 547 531 527
3 547 527 523
3 548 547 550
3 551 548 550
3 531 548 551
3 533 531 551
3 534 533 531
3 534 531 532
3 528 532 534
3 530 528 534
3 530 528 527
3 529 530 527
3 523 527 529
3 525 523 529
3 526 525 523
3 526 523 524
3 520 524 526
3 522 520 526
3 522 520 519
3 521 522 519
3 504 519 521
3 507 504 521
3 507 504 503
3 506 507 503
3 506 503 547
3 550 506 547
3 521 507 506
3 521 506 550
3 550 551 533
3 533 534 530
3 533 530 529
3 525 526 522
3 525 522 521
3 525 521 550
3 550 533 529
3 550 529 525
3 595 596 592
3 595 592 591
3 591 576 575
3 591 575 627
3 627 628 611
3 611 612 608
3 611 608 607
3 603 604 600
3 603 600 599
3 595 591 627
3 627 611 607
3 627 607 603
3 627 603 599
3 627 599 595
3 579 576 575
3 578 579 575
3 578 575 627
3 630 578 627
3 631 630 627
3 631 627 628
3 611 628 631
3 613 611 631
3 614 613 611
3 614 611 612
3 608 612 614
3 610 608 614
3 610 608 607
3 609 610 607
3 603 607 609
3 605 603 609
3 606 605 603
3 606 603 604
3 600 604 606
3 602 600 606
3 602 600 599
3 601 602 599
3 595 599 601
3 597 595 601
3 598 597 595
3 598 595 596
3 592 596 598
3 594 592 598
3 594 592 591
3 593 594 591
3 576 591 593
3 579 576 593
3 597 598 594
3 597 594 593
3 593 579 578
3 593 578 630
3 630 631 613
3 613 614 610
3 613 610 609
3 605 606 602
3 605 602 601
3 597 593 630
3 630 613 609
3 630 609 605
3 630 605 601
3 630 601 597
3 655 656 671
3 699 655 671
3 683 700 699
3 680 684 683
3 679 680 683
3 672 676 675
3 671 672 675
3 699 671 675
3 679 683 699
3 675 679 699
3 700 699 702
3 703 700 702
3 683 700 703
3 685 683 703
3 686 685 683
3 686 683 684
3 680 684 686
3 682 680 686
3 682 680 679
3 681 682 679
3 675 679 681
3 677 675 681
3 678 677 675
3 678 675 676
3 672 676 678
3 674 672 678
3 674 672 671
3 673 674 671
3 656 671 673
3 659 656 673
3 659 656 655
3 658 659 655
3 658 655 699
3 702 658 699
3 658 659 673
3 702 658 673
3 685 703 702
3 682 686 685
3 681 682 685
3 674 678 677
3 673 674 677
3 702 673 677
3 681 685 702
3 677 681 702
3 285 376 379
3 300 285 379
3 285 376 379
3 300 285 379
3 377 376 285
3 286 377 285
3 286 285 300
3 301 286 300
3 380 301 300
3 380 300 379
3 377 380 379
3 377 379 376
3 286 377 380
3 301 286 380
3 301 380 404
3 313 301 404
3 381 380 301
3 302 381 301
3 302 301 313
3 314 302 313
3 405 314 313
3 405 313 404
3 381 405 404
3 381 404 380
3 302 381 405
3 314 302 405
3 314 405 409
3 316 314 409
3 406 405 314
3 315 406 314
3 315 314 316
3 317 315 316
3 410 317 316
3 410 316 409
3 406 410 409
3 406 409 405
3 315 406 410
3 317 315 410
3 317 410 412
3 319 317 412
3 411 410 317
3 318 411 317
3 318 317 319
3 320 318 319
3 413 320 319
3 413 319 412
3 411 413 412
3 411 412 410
3 318 411 413
3 320 318 413
3 320 413 417
3 322 320 417
3 414 413 320
3 321 414 320
3 321 320 322
3 323 321 322
3 418 323 322
3 418 322 417
3 414 418 417
3 414 417 413
3 321 414 418
3 323 321 418
3 323 418 432
3 325 323 432
3 419 418 323
3 324 419 323
3 324 323 325
3 326 324 325
3 433 326 325
3 433 325 432
3 419 433 432
3 419 432 418
3 324 419 433
3 326 324 433
3 326 433 449
3 330 326 449
3 434 433 326
3 327 434 326
3 327 326 330
3 331 327 330
3 450 331 330
3 450 330 449
3 434 450 449
3 434 449 433
3 327 434 450
3 331 327 450
3 355 354 420
3 355 420 421
3 715 4 5
3 716 715 5
3 643 687 688
3 643 688 644
3 563 615 616
3 563 616 564
3 491 535 536
3 491 536 492
3 191 235 236
3 191 236 192
3 80 151 152
3 80 152 81
3 8 52 53
3 8 53 9
3 10 54 55
3 10 55 11
3 82 153 154
3 82 154 83
3 193 237 238
3 193 238 194
3 290 332 333
3 290 333 291
3 356 382 383
3 356 383 357
3 422 457 458
3 422 458 423
3 493 537 538
3 493 538 494
3 565 617 618
3 565 618 566
3 645 689 690
3 645 690 646
3 647 691 692
3 647 692 648
3 567 619 620
3 567 620 568
3 495 539 540
3 495 540 496
3 424 459 460
3 424 460 425
3 358 384 385
3 358 385 359
3 292 334 335
3 292 335 293
3 195 239 240
3 195 240 196
3 84 155 156
3 84 156 85
3 12 56 57
3 12 57 13
3 14 58 59
3 14 59 15
3 86 157 158
3 86 158 87
3 197 241 242
3 197 242 198
3 294 336 337
3 294 337 295
3 360 386 387
3 360 387 361
3 426 461 462
3 426 462 427
3 497 541 542
3 497 542 498
3 569 621 622
3 569 622 570
3 649 693 694
3 649 694 650
3 651 695 696
3 651 696 652
3 571 623 624
3 571 624 572
3 499 543 544
3 499 544 500
3 428 463 464
3 428 464 429
3 362 388 389
3 362 389 363
3 296 338 339
3 296 339 297
3 199 243 244
3 199 244 200
3 88 159 160
3 88 160 89
3 16 60 61
3 16 61 17
3 19 63 62
3 18 19 62
3 91 162 161
3 90 91 161
3 202 246 245
3 201 202 245
3 299 341 340
3 298 299 340
3 365 391 390
3 364 365 390
3 430 465 466
3 430 466 431
3 502 546 545
3 501 502 545
3 574 626 625
3 573 574 625
3 654 698 697
3 653 654 697
3 416 415 352
3 353 416 352
3 5 716 720
3 7 5 720
3 7 5 4
3 6 7 4
3 6 4 715
3 719 6 715
3 720 719 715
3 720 715 716
3 644 643 657
3 660 644 657
3 660 644 688
3 704 660 688
3 704 688 687
3 701 704 687
3 643 687 701
3 657 643 701
3 564 563 577
3 580 564 577
3 580 564 616
3 632 580 616
3 632 616 615
3 629 632 615
3 563 615 629
3 577 563 629
3 492 491 505
3 508 492 505
3 508 492 536
3 552 508 536
3 552 536 535
3 549 552 535
3 491 535 549
3 505 491 549
3 192 191 205
3 208 192 205
3 208 192 236
3 252 208 236
3 252 236 235
3 249 252 235
3 191 235 249
3 205 191 249
3 81 80 110
3 111 81 110
3 111 81 152
3 166 111 152
3 166 152 151
3 165 166 151
3 80 151 165
3 110 80 165
3 9 8 22
3 25 9 22
3 25 9 53
3 69 25 53
3 69 53 52
3 66 69 52
3 8 52 66
3 22 8 66
3 11 10 26
3 27 11 26
3 27 11 55
3 71 27 55
3 71 55 54
3 70 71 54
3 10 54 70
3 26 10 70
3 83 82 112
3 113 83 112
3 113 83 154
3 168 113 154
3 168 154 153
3 167 168 153
3 82 153 167
3 112 82 167
3 194 193 209
3 210 194 209
3 210 194 238
3 254 210 238
3 254 238 237
3 253 254 237
3 193 237 253
3 209 193 253
3 291 290 303
3 304 291 303
3 304 291 333
3 343 304 333
3 343 333 332
3 342 343 332
3 290 332 342
3 303 290 342
3 357 356 366
3 367 357 366
3 367 357 383
3 395 367 383
3 395 383 382
3 394 395 382
3 356 382 394
3 366 356 394
3 423 422 435
3 436 423 435
3 436 423 458
3 468 436 458
3 468 458 457
3 467 468 457
3 422 457 467
3 435 422 467
3 494 493 509
3 510 494 509
3 510 494 538
3 554 510 538
3 554 538 537
3 553 554 537
3 493 537 553
3 509 493 553
3 566 565 581
3 582 566 581
3 582 566 618
3 634 582 618
3 634 618 617
3 633 634 617
3 565 617 633
3 581 565 633
3 646 645 661
3 662 646 661
3 662 646 690
3 706 662 690
3 706 690 689
3 705 706 689
3 645 689 705
3 661 645 705
3 648 647 663
3 664 648 663
3 664 648 692
3 708 664 692
3 708 692 691
3 707 708 691
3 647 691 707
3 663 647 707
3 568 567 583
3 584 568 583
3 584 568 620
3 636 584 620
3 636 620 619
3 635 636 619
3 567 619 635
3 583 567 635
3 496 495 511
3 512 496 511
3 512 496 540
3 556 512 540
3 556 540 539
3 555 556 539
3 495 539 555
3 511 495 555
3 425 424 437
3 438 425 437
3 438 425 460
3 470 438 460
3 470 460 459
3 469 470 459
3 424 459 469
3 437 424 469
3 359 358 368
3 369 359 368
3 369 359 385
3 397 369 385
3 397 385 384
3 396 397 384
3 358 384 396
3 368 358 396
3 293 292 305
3 306 293 305
3 306 293 335
3 345 306 335
3 345 335 334
3 344 345 334
3 292 334 344
3 305 292 344
3 196 195 211
3 212 196 211
3 212 196 240
3 256 212 240
3 256 240 239
3 255 256 239
3 195 239 255
3 211 195 255
3 85 84 114
3 115 85 114
3 115 85 156
3 170 115 156
3 170 156 155
3 169 170 155
3 84 155 169
3 114 84 169
3 13 12 28
3 29 13 28
3 29 13 57
3 73 29 57
3 73 57 56
3 72 73 56
3 12 56 72
3 28 12 72
3 15 14 30
3 31 15 30
3 31 15 59
3 75 31 59
3 75 59 58
3 74 75 58
3 14 58 74
3 30 14 74
3 87 86 116
3 117 87 116
3 117 87 158
3 172 117 158
3 172 158 157
3 171 172 157
3 86 157 171
3 116 86 171
3 198 197 213
3 214 198 213
3 214 198 242
3 258 214 242
3 258 242 241
3 257 258 241
3 197 241 257
3 213 197 257
3 295 294 307
3 308 295 307
3 308 295 337
3 347 308 337
3 347 337 336
3 346 347 336
3 294 336 346
3 307 294 346
3 361 360 370
3 371 361 370
3 371 361 387
3 399 371 387
3 399 387 386
3 398 399 386
3 360 386 398
3 370 360 398
3 427 426 439
3 440 427 439
3 440 427 462
3 472 440 462
3 472 462 461
3 471 472 461
3 426 461 471
3 439 426 471
3 498 497 513
3 514 498 513
3 514 498 542
3 558 514 542
3 558 542 541
3 557 558 541
3 497 541 557
3 513 497 557
3 570 569 585
3 586 570 585
3 586 570 622
3 638 586 622
3 638 622 621
3 637 638 621
3 569 621 637
3 585 569 637
3 650 649 665
3 666 650 665
3 666 650 694
3 710 666 694
3 710 694 693
3 709 710 693
3 649 693 709
3 665 649 709
3 652 651 667
3 668 652 667
3 668 652 696
3 712 668 696
3 712 696 695
3 711 712 695
3 651 695 711
3 667 651 711
3 572 571 587
3 588 572 587
3 588 572 624
3 640 588 624
3 640 624 623
3 639 640 623
3 571 623 639
3 587 571 639
3 500 499 515
3 516 500 515
3 516 500 544
3 560 516 544
3 560 544 543
3 559 560 543
3 499 543 559
3 515 499 559
3 429 428 441
3 442 429 441
3 442 429 464
3 474 442 464
3 474 464 463
3 473 474 463
3 428 463 473
3 441 428 473
3 363 362 372
3 373 363 372
3 373 363 389
3 401 373 389
3 401 389 388
3 400 401 388
3 362 388 400
3 372 362 400
3 297 296 309
3 310 297 309
3 310 297 339
3 349 310 339
3 349 339 338
3 348 349 338
3 296 338 348
3 309 296 348
3 200 199 215
3 216 200 215
3 216 200 244
3 260 216 244
3 260 244 243
3 259 260 243
3 199 243 259
3 215 199 259
3 89 88 118
3 119 89 118
3 119 89 160
3 174 119 160
3 174 160 159
3 173 174 159
3 88 159 173
3 118 88 173
3 17 16 32
3 33 17 32
3 33 17 61
3 77 33 61
3 77 61 60
3 76 77 60
3 16 60 76
3 32 16 76
3 35 34 18
3 35 18 19
3 35 19 63
3 79 35 63
3 79 63 62
3 78 79 62
3 18 62 78
3 34 18 78
3 121 120 90
3 121 90 91
3 121 91 162
3 176 121 162
3 176 162 161
3 175 176 161
3 90 161 175
3 120 90 175
3 218 217 201
3 218 201 202
3 218 202 246
3 262 218 246
3 262 246 245
3 261 262 245
3 201 245 261
3 217 201 261
3 312 311 298
3 312 298 299
3 312 299 341
3 351 312 341
3 351 341 340
3 350 351 340
3 298 340 350
3 311 298 350
3 375 374 364
3 375 364 365
3 375 365 391
3 403 375 391
3 403 391 390
3 402 403 390
3 364 390 402
3 374 364 402
3 431 430 443
3 444 431 443
3 444 431 466
3 476 444 466
3 476 466 465
3 475 476 465
3 430 465 475
3 443 430 475
3 518 517 501
3 518 501 502
3 518 502 546
3 562 518 546
3 562 546 545
3 561 562 545
3 501 545 561
3 517 501 561
3 590 589 573
3 590 573 574
3 590 574 626
3 642 590 626
3 642 626 625
3 641 642 625
3 573 625 641
3 589 573 641
3 670 669 653
3 670 653 654
3 670 654 698
3 714 670 698
3 714 698 697
3 713 714 697
3 653 697 713
3 669 653 713
3 352 415 420
3 354 352 420
3 355 354 352
3 355 352 353
3 355 353 416
3 421 355 416
3 421 416 415
3 420 421 415
3 720 7 6
3 720 6 719
3 657 701 704
3 657 704 660
3 577 629 632
3 577 632 580
3 505 549 552
3 505 552 508
3 205 249 252
3 205 252 208
3 110 165 166
3 110 166 111
3 22 66 69
3 22 69 25
3 26 70 71
3 26 71 27
3 112 167 168
3 112 168 113
3 209 253 254
3 209 254 210
3 303 342 343
3 303 343 304
3 366 394 395
3 366 395 367
3 435 467 468
3 435 468 436
3 509 553 554
3 509 554 510
3 581 633 634
3 581 634 582
3 661 705 706
3 661 706 662
3 663 707 708
3 663 708 664
3 583 635 636
3 583 636 584
3 511 555 556
3 511 556 512
3 437 469 470
3 437 470 438
3 368 396 397
3 368 397 369
3 305 344 345
3 305 345 306
3 211 255 256
3 211 256 212
3 114 169 170
3 114 170 115
3 28 72 73
3 28 73 29
3 30 74 75
3 30 75 31
3 116 171 172
3 116 172 117
3 213 257 258
3 213 258 214
3 307 346 347
3 307 347 308
3 370 398 399
3 370 399 371
3 439 471 472
3 439 472 440
3 513 557 558
3 513 558 514
3 585 637 638
3 585 638 586
3 665 709 710
3 665 710 666
3 667 711 712
3 667 712 668
3 587 639 640
3 587 640 588
3 515 559 560
3 515 560 516
3 441 473 474
3 441 474 442
3 372 400 401
3 372 401 373
3 309 348 349
3 309 349 310
3 215 259 260
3 215 260 216
3 118 173 174
3 118 174 119
3 32 76 77
3 32 77 33
3 34 78 79
3 34 79 35
3 120 175 176
3 120 176 121
3 217 261 262
3 217 262 218
3 311 350 351
3 311 351 312
3 374 402 403
3 374 403 375
3 443 475 476
3 443 476 444
3 517 561 562
3 517 562 518
3 589 641 642
3 589 642 590
3 669 713 714
3 669 714 670
3 421 420 354
3 355 421 354
3 728 135 136
3 731 728 136
3 728 727 738
3 739 728 738
3 739 738 485
3 486 739 485
3 135 486 485
3 135 485 134
3 728 135 134
3 728 134 727
3 724 726 725
3 724 725 723
3 735 724 723
3 735 723 734
3 735 734 736
3 737 735 736
3 737 736 725
3 726 737 725
