OFF
180 338 0
0.000 12.940 0.000
0.000 12.940 19.500
3.056 11.084 24.300
3.849 0.000 0.000
3.849 0.000 19.500
5.394 3.225 24.300
19.354 53.414 0.000
19.354 53.414 59.600
21.777 45.235 0.000
21.777 45.235 10.700
21.777 45.235 14.900
21.777 45.235 41.100
21.777 45.235 56.400
21.777 45.235 59.600
25.749 55.308 0.000
25.749 55.308 56.400
25.749 55.308 59.600
25.749 55.308 65.200
26.168 46.536 0.000
26.168 46.536 10.700
26.168 46.536 14.900
26.168 46.536 41.100
26.168 46.536 56.400
26.560 29.089 0.000
26.560 29.089 10.700
26.560 29.089 14.900
26.560 29.089 41.100
26.560 29.089 56.400
26.560 29.089 65.200
27.154 27.086 0.000
27.154 27.086 56.400
27.154 27.086 59.600
27.154 27.086 65.200
28.021 55.981 0.000
28.021 55.981 6.400
28.021 55.981 10.700
28.021 55.981 14.900
28.021 55.981 56.400
28.021 55.981 65.200
28.172 47.130 0.000
28.172 47.130 56.400
28.172 47.130 59.600
28.751 21.494 19.500
28.751 21.494 26.800
29.020 20.786 0.000
29.020 20.786 59.600
29.265 51.782 0.000
29.265 51.782 6.400
29.265 51.782 10.700
29.265 51.782 14.900
29.265 51.782 56.400
29.507 18.954 24.300
29.887 49.682 56.400
29.887 49.682 65.200
30.951 30.390 0.000
30.951 30.390 10.700
30.951 30.390 14.900
30.951 30.390 41.100
30.951 30.390 56.400
31.844 11.095 24.300
32.599 8.554 19.500
32.599 8.554 26.800
32.931 22.738 0.000
32.931 22.738 19.500
32.931 22.738 26.800
32.955 30.984 56.400
32.955 30.984 65.200
34.399 17.802 0.000
34.399 17.802 13.500
36.740 29.926 0.000
36.740 29.926 56.400
36.740 29.926 59.600
36.779 9.799 0.000
36.779 9.799 19.500
36.779 9.799 26.800
37.334 27.922 0.000
37.334 27.922 6.400
37.334 27.922 10.700
37.334 27.922 14.900
37.334 27.922 56.400
38.607 23.626 0.000
38.607 23.626 6.400
38.607 23.626 10.700
38.607 23.626 14.900
38.607 23.626 56.400
38.607 23.626 59.600
39.603 0.302 0.000
39.603 0.302 13.500
48.268 61.980 0.000
48.268 61.980 6.400
48.268 61.980 10.700
48.268 61.980 14.900
48.268 61.980 56.400
48.268 61.980 59.600
49.512 57.780 0.000
49.512 57.780 6.400
49.512 57.780 10.700
49.512 57.780 14.900
49.512 57.780 56.400
49.528 35.894 0.000
49.528 35.894 56.400
49.528 35.894 65.200
49.528 35.894 67.500
50.122 33.890 56.400
50.122 33.890 65.200
50.134 55.681 0.000
50.134 55.681 56.400
50.134 55.681 59.600
50.286 35.482 67.500
50.286 35.482 71.800
50.716 31.887 0.000
50.716 31.887 6.400
50.716 31.887 10.700
50.716 31.887 14.900
50.716 31.887 56.400
51.989 27.591 6.400
51.989 27.591 10.700
51.989 27.591 14.900
51.989 27.591 56.400
52.640 25.395 0.000
52.640 25.395 67.500
53.051 26.153 67.500
53.051 26.153 71.800
54.285 54.866 56.400
54.285 54.866 65.200
56.442 55.506 0.000
56.442 55.506 10.700
56.442 55.506 14.900
56.442 55.506 41.100
56.442 55.506 56.400
58.219 64.928 0.000
58.219 64.928 59.600
58.656 37.962 67.500
58.656 37.962 71.800
59.068 38.720 0.000
59.068 38.720 56.400
59.068 38.720 59.600
59.068 38.720 65.200
59.068 38.720 67.500
60.085 58.629 0.000
60.085 58.629 56.400
60.085 58.629 59.600
60.085 58.629 65.200
60.641 56.750 0.000
60.641 56.750 10.700
60.641 56.750 14.900
60.641 56.750 41.100
60.641 56.750 56.400
60.641 56.750 65.200
61.225 39.359 0.000
61.225 39.359 10.700
61.225 39.359 14.900
61.225 39.359 41.100
61.225 39.359 56.400
61.420 28.633 67.500
61.420 28.633 71.800
61.528 30.417 0.000
61.528 30.417 59.600
62.178 28.221 0.000
62.178 28.221 67.500
65.424 40.604 0.000
65.424 40.604 10.700
65.424 40.604 14.900
65.424 40.604 41.100
65.424 40.604 56.400
65.424 40.604 59.600
67.884 32.300 0.000
67.884 32.300 59.600
67.993 27.801 0.000
67.993 27.801 13.500
69.688 22.105 0.000
69.688 22.105 13.500
71.475 16.022 0.000
71.475 16.022 13.500
71.592 22.671 0.000
71.592 22.671 13.500
73.179 10.291 0.000
73.179 10.291 13.500
73.400 16.594 0.000
73.400 16.594 13.500
3 86 67 168
3 172 176 86
3 174 178 172
3 170 174 172
3 168 170 172
3 86 168 172
3 87 68 169
3 173 177 87
3 175 179 173
3 171 175 173
3 169 171 173
3 87 169 173
3 5 2 51
3 59 5 51
3 60 42 63
3 73 60 63
3 4 1 63
3 73 4 63
3 61 43 64
3 74 61 64
3 4 1 2
3 4 2 5
3 4 5 59
3 60 4 59
3 51 2 1
3 51 1 42
3 49 36 91
3 97 49 91
3 9 19 55
3 24 9 55
3 83 78 113
3 117 83 113
3 150 126 144
3 161 150 144
3 103 30 27
3 100 103 27
3 135 100 27
3 140 147 123
3 52 140 123
3 15 37 52
3 65 15 52
3 135 27 65
3 123 135 65
3 52 123 65
3 80 44 29
3 69 80 29
3 130 139 105
3 88 130 105
3 119 99 134
3 158 119 134
3 160 166 156
3 134 160 156
3 81 76 111
3 115 81 111
3 82 77 112
3 116 82 112
3 84 79 114
3 118 84 114
3 10 20 56
3 25 10 56
3 47 34 89
3 95 47 89
3 48 35 90
3 96 48 90
3 50 37 92
3 98 50 92
3 151 127 145
3 162 151 145
3 104 32 28
3 101 104 28
3 137 101 28
3 142 148 124
3 53 142 124
3 17 38 53
3 66 17 53
3 137 28 66
3 124 137 66
3 53 124 66
3 13 7 16
3 41 13 16
3 85 45 31
3 71 85 31
3 165 167 157
3 136 165 157
3 131 141 107
3 93 131 107
3 120 102 138
3 159 120 138
3 121 108 132
3 154 121 132
3 54 18 39
3 29 23 54
3 69 29 54
3 110 75 69
3 99 110 69
3 125 149 99
3 139 143 125
3 105 139 125
3 46 94 105
3 14 33 46
3 39 14 46
3 54 39 46
3 69 54 46
3 99 69 46
3 125 99 46
3 105 125 46
3 58 22 40
3 30 27 58
3 70 30 58
3 114 79 70
3 100 114 70
3 129 153 100
3 140 147 129
3 106 140 129
3 50 98 106
3 15 37 50
3 40 15 50
3 58 40 50
3 70 58 50
3 100 70 50
3 129 100 50
3 106 129 50
3 11 21 57
3 26 11 57
3 12 22 58
3 27 12 58
3 152 128 146
3 163 152 146
3 153 129 147
3 164 153 147
3 8 6 14
3 39 8 14
3 122 109 133
3 155 122 133
3 169 168 170
3 171 169 170
3 175 171 170
3 175 170 174
3 175 174 178
3 179 175 178
3 179 178 172
3 173 179 172
3 173 172 176
3 177 173 176
3 177 176 86
3 87 177 86
3 68 87 86
3 68 86 67
3 169 68 67
3 169 67 168
3 73 4 3
3 73 3 72
3 63 73 72
3 63 72 62
3 63 62 0
3 1 63 0
3 1 0 3
3 4 1 3
3 74 61 60
3 74 60 73
3 64 74 73
3 64 73 63
3 64 63 42
3 43 64 42
3 43 42 60
3 61 43 60
3 56 55 24
3 25 56 24
3 10 25 24
3 10 24 9
3 20 10 9
3 20 9 19
3 20 19 55
3 56 20 55
3 96 48 47
3 96 47 95
3 90 96 95
3 90 95 89
3 90 89 34
3 35 90 34
3 35 34 47
3 48 35 47
3 112 111 115
3 116 112 115
3 116 115 81
3 82 116 81
3 77 82 81
3 77 81 76
3 112 77 76
3 112 76 111
3 145 144 161
3 162 145 161
3 162 161 150
3 151 162 150
3 127 151 150
3 127 150 126
3 145 127 126
3 145 126 144
3 101 104 103
3 101 103 100
3 137 101 100
3 137 100 135
3 124 137 135
3 124 135 123
3 148 124 123
3 148 123 147
3 142 148 147
3 142 147 140
3 142 140 52
3 53 142 52
3 38 53 52
3 38 52 37
3 38 37 15
3 17 38 15
3 17 15 65
3 66 17 65
3 66 65 27
3 28 66 27
3 28 27 30
3 32 28 30
3 104 32 30
3 104 30 103
3 15 40 39
3 15 39 14
3 37 15 14
3 37 14 33
3 37 33 46
3 50 37 46
3 98 50 46
3 98 46 94
3 98 94 105
3 106 98 105
3 140 106 105
3 140 105 139
3 140 139 143
3 147 140 143
3 147 143 125
3 129 147 125
3 129 125 149
3 153 129 149
3 153 149 99
3 100 153 99
3 100 99 110
3 114 100 110
3 114 110 75
3 79 114 75
3 70 79 75
3 70 75 69
3 70 69 29
3 30 70 29
3 27 30 29
3 27 29 23
3 58 27 23
3 58 23 54
3 22 58 54
3 22 54 18
3 40 22 18
3 40 18 39
3 58 57 26
3 27 58 26
3 12 27 26
3 12 26 11
3 22 12 11
3 22 11 21
3 22 21 57
3 58 22 57
3 114 113 117
3 118 114 117
3 118 117 83
3 84 118 83
3 79 84 83
3 79 83 78
3 114 79 78
3 114 78 113
3 147 146 163
3 164 147 163
3 164 163 152
3 153 164 152
3 129 153 152
3 129 152 128
3 147 129 128
3 147 128 146
3 98 50 49
3 98 49 97
3 92 98 97
3 92 97 91
3 92 91 36
3 37 92 36
3 37 36 49
3 50 37 49
3 16 14 39
3 41 16 39
3 41 39 8
3 13 41 8
3 7 13 8
3 7 8 6
3 16 7 6
3 16 6 14
3 71 31 29
3 71 29 69
3 71 69 80
3 85 71 80
3 85 80 44
3 45 85 44
3 31 45 44
3 31 44 29
3 136 157 156
3 136 156 134
3 165 136 134
3 165 134 160
3 165 160 166
3 167 165 166
3 167 166 156
3 157 167 156
3 93 107 105
3 93 105 88
3 131 93 88
3 131 88 130
3 131 130 139
3 141 131 139
3 141 139 105
3 107 141 105
3 138 134 158
3 159 138 158
3 159 158 119
3 120 159 119
3 102 120 119
3 102 119 99
3 138 102 99
3 138 99 134
3 133 132 154
3 155 133 154
3 155 154 121
3 122 155 121
3 109 122 121
3 109 121 108
3 133 109 108
3 133 108 132
